G04 #@! TF.GenerationSoftware,KiCad,Pcbnew,7.0.11-2.fc39*
G04 #@! TF.CreationDate,2024-05-22T12:02:30+02:00*
G04 #@! TF.ProjectId,home_automation_module_std,686f6d65-5f61-4757-946f-6d6174696f6e,1.0*
G04 #@! TF.SameCoordinates,Original*
G04 #@! TF.FileFunction,Soldermask,Top*
G04 #@! TF.FilePolarity,Negative*
%FSLAX46Y46*%
G04 Gerber Fmt 4.6, Leading zero omitted, Abs format (unit mm)*
G04 Created by KiCad (PCBNEW 7.0.11-2.fc39) date 2024-05-22 12:02:30*
%MOMM*%
%LPD*%
G01*
G04 APERTURE LIST*
G04 Aperture macros list*
%AMRoundRect*
0 Rectangle with rounded corners*
0 $1 Rounding radius*
0 $2 $3 $4 $5 $6 $7 $8 $9 X,Y pos of 4 corners*
0 Add a 4 corners polygon primitive as box body*
4,1,4,$2,$3,$4,$5,$6,$7,$8,$9,$2,$3,0*
0 Add four circle primitives for the rounded corners*
1,1,$1+$1,$2,$3*
1,1,$1+$1,$4,$5*
1,1,$1+$1,$6,$7*
1,1,$1+$1,$8,$9*
0 Add four rect primitives between the rounded corners*
20,1,$1+$1,$2,$3,$4,$5,0*
20,1,$1+$1,$4,$5,$6,$7,0*
20,1,$1+$1,$6,$7,$8,$9,0*
20,1,$1+$1,$8,$9,$2,$3,0*%
G04 Aperture macros list end*
%ADD10RoundRect,0.237500X0.250000X0.237500X-0.250000X0.237500X-0.250000X-0.237500X0.250000X-0.237500X0*%
%ADD11R,0.900000X0.800000*%
%ADD12R,1.700000X1.700000*%
%ADD13O,1.700000X1.700000*%
%ADD14RoundRect,0.237500X-0.250000X-0.237500X0.250000X-0.237500X0.250000X0.237500X-0.250000X0.237500X0*%
%ADD15RoundRect,0.150000X0.825000X0.150000X-0.825000X0.150000X-0.825000X-0.150000X0.825000X-0.150000X0*%
%ADD16RoundRect,0.237500X0.237500X-0.250000X0.237500X0.250000X-0.237500X0.250000X-0.237500X-0.250000X0*%
%ADD17RoundRect,0.237500X-0.237500X0.300000X-0.237500X-0.300000X0.237500X-0.300000X0.237500X0.300000X0*%
%ADD18R,0.800000X0.900000*%
%ADD19RoundRect,0.237500X-0.237500X0.250000X-0.237500X-0.250000X0.237500X-0.250000X0.237500X0.250000X0*%
%ADD20R,1.800000X1.750000*%
%ADD21RoundRect,0.075000X0.662500X0.075000X-0.662500X0.075000X-0.662500X-0.075000X0.662500X-0.075000X0*%
%ADD22RoundRect,0.075000X0.075000X0.662500X-0.075000X0.662500X-0.075000X-0.662500X0.075000X-0.662500X0*%
%ADD23RoundRect,0.218750X0.218750X0.256250X-0.218750X0.256250X-0.218750X-0.256250X0.218750X-0.256250X0*%
%ADD24R,1.524000X1.524000*%
%ADD25C,1.524000*%
G04 APERTURE END LIST*
D10*
X108585000Y-61087000D03*
X106760000Y-61087000D03*
D11*
X103886000Y-78491000D03*
X103886000Y-80391000D03*
X105886000Y-79441000D03*
D12*
X120523000Y-66294000D03*
D13*
X120523000Y-68834000D03*
X120523000Y-71374000D03*
X120523000Y-73914000D03*
X120523000Y-76454000D03*
X120523000Y-78994000D03*
D12*
X107569000Y-84836000D03*
D13*
X105029000Y-84836000D03*
X102489000Y-84836000D03*
X99949000Y-84836000D03*
X97409000Y-84836000D03*
X94869000Y-84836000D03*
D11*
X111220000Y-68768000D03*
X111220000Y-66868000D03*
X109220000Y-67818000D03*
D14*
X110593500Y-55626000D03*
X112418500Y-55626000D03*
D15*
X93472000Y-76962000D03*
X93472000Y-75692000D03*
X93472000Y-74422000D03*
X93472000Y-73152000D03*
X88522000Y-73152000D03*
X88522000Y-74422000D03*
X88522000Y-75692000D03*
X88522000Y-76962000D03*
D14*
X87583000Y-68834000D03*
X89408000Y-68834000D03*
D16*
X112776000Y-68730500D03*
X112776000Y-66905500D03*
D17*
X107569000Y-72697000D03*
X107569000Y-74422000D03*
D14*
X113157000Y-77597000D03*
X114982000Y-77597000D03*
D18*
X108773000Y-53880000D03*
X106873000Y-53880000D03*
X107823000Y-55880000D03*
D13*
X100076000Y-76327000D03*
D12*
X83566000Y-73787000D03*
D13*
X83566000Y-76327000D03*
X83566000Y-78867000D03*
D18*
X115012000Y-81169000D03*
X113112000Y-81169000D03*
X114062000Y-83169000D03*
D19*
X114427000Y-70334500D03*
X114427000Y-72159500D03*
X110871000Y-70461500D03*
X110871000Y-72286500D03*
X109220000Y-70485000D03*
X109220000Y-72310000D03*
D16*
X112776000Y-72183000D03*
X112776000Y-70358000D03*
D19*
X116078000Y-70358000D03*
X116078000Y-72183000D03*
D12*
X83566000Y-58166000D03*
D13*
X83566000Y-60706000D03*
X83566000Y-63246000D03*
X83566000Y-65786000D03*
D11*
X110617000Y-59182000D03*
X110617000Y-61082000D03*
X112617000Y-60132000D03*
D10*
X105814500Y-74930000D03*
X103989500Y-74930000D03*
X112442000Y-57277000D03*
X110617000Y-57277000D03*
X105814500Y-76708000D03*
X103989500Y-76708000D03*
D13*
X97028000Y-76327000D03*
D17*
X107569000Y-69088000D03*
X107569000Y-70813000D03*
D18*
X109352000Y-75946000D03*
X111252000Y-75946000D03*
X110302000Y-73946000D03*
D12*
X106299000Y-63749000D03*
D13*
X106299000Y-66289000D03*
D14*
X113157000Y-79375000D03*
X114982000Y-79375000D03*
D10*
X112418500Y-53975000D03*
X110593500Y-53975000D03*
D20*
X105410000Y-69469000D03*
X105410000Y-72719000D03*
D11*
X109043000Y-62865000D03*
X109043000Y-64765000D03*
X111043000Y-63815000D03*
D14*
X106760000Y-59436000D03*
X108585000Y-59436000D03*
D10*
X111252000Y-79375000D03*
X109427000Y-79375000D03*
D12*
X83566000Y-49530000D03*
D13*
X83566000Y-52070000D03*
D21*
X102997000Y-70802000D03*
X102997000Y-70302000D03*
X102997000Y-69802000D03*
X102997000Y-69302000D03*
X102997000Y-68802000D03*
X102997000Y-68302000D03*
X102997000Y-67802000D03*
X102997000Y-67302000D03*
X102997000Y-66802000D03*
X102997000Y-66302000D03*
X102997000Y-65802000D03*
X102997000Y-65302000D03*
D22*
X101584500Y-63889500D03*
X101084500Y-63889500D03*
X100584500Y-63889500D03*
X100084500Y-63889500D03*
X99584500Y-63889500D03*
X99084500Y-63889500D03*
X98584500Y-63889500D03*
X98084500Y-63889500D03*
X97584500Y-63889500D03*
X97084500Y-63889500D03*
X96584500Y-63889500D03*
X96084500Y-63889500D03*
D21*
X94672000Y-65302000D03*
X94672000Y-65802000D03*
X94672000Y-66302000D03*
X94672000Y-66802000D03*
X94672000Y-67302000D03*
X94672000Y-67802000D03*
X94672000Y-68302000D03*
X94672000Y-68802000D03*
X94672000Y-69302000D03*
X94672000Y-69802000D03*
X94672000Y-70302000D03*
X94672000Y-70802000D03*
D22*
X96084500Y-72214500D03*
X96584500Y-72214500D03*
X97084500Y-72214500D03*
X97584500Y-72214500D03*
X98084500Y-72214500D03*
X98584500Y-72214500D03*
X99084500Y-72214500D03*
X99584500Y-72214500D03*
X100084500Y-72214500D03*
X100584500Y-72214500D03*
X101084500Y-72214500D03*
X101584500Y-72214500D03*
D18*
X115123000Y-73946000D03*
X113223000Y-73946000D03*
X114173000Y-75946000D03*
D19*
X112649000Y-62865000D03*
X112649000Y-64690000D03*
X114427000Y-62865000D03*
X114427000Y-64690000D03*
D10*
X111275500Y-77597000D03*
X109450500Y-77597000D03*
D14*
X106760000Y-57658000D03*
X108585000Y-57658000D03*
D23*
X92837000Y-68834000D03*
X91262000Y-68834000D03*
D24*
X103632000Y-59817000D03*
D25*
X103632000Y-57277000D03*
X101092000Y-59817000D03*
X101092000Y-57277000D03*
X98552000Y-59817000D03*
X98552000Y-57277000D03*
X96012000Y-59817000D03*
X96012000Y-57277000D03*
M02*
