G04 #@! TF.GenerationSoftware,KiCad,Pcbnew,7.0.11-2.fc39*
G04 #@! TF.CreationDate,2024-05-22T12:02:30+02:00*
G04 #@! TF.ProjectId,home_automation_module_std,686f6d65-5f61-4757-946f-6d6174696f6e,1.0*
G04 #@! TF.SameCoordinates,Original*
G04 #@! TF.FileFunction,Copper,L4,Bot*
G04 #@! TF.FilePolarity,Positive*
%FSLAX46Y46*%
G04 Gerber Fmt 4.6, Leading zero omitted, Abs format (unit mm)*
G04 Created by KiCad (PCBNEW 7.0.11-2.fc39) date 2024-05-22 12:02:30*
%MOMM*%
%LPD*%
G01*
G04 APERTURE LIST*
G04 Aperture macros list*
%AMRoundRect*
0 Rectangle with rounded corners*
0 $1 Rounding radius*
0 $2 $3 $4 $5 $6 $7 $8 $9 X,Y pos of 4 corners*
0 Add a 4 corners polygon primitive as box body*
4,1,4,$2,$3,$4,$5,$6,$7,$8,$9,$2,$3,0*
0 Add four circle primitives for the rounded corners*
1,1,$1+$1,$2,$3*
1,1,$1+$1,$4,$5*
1,1,$1+$1,$6,$7*
1,1,$1+$1,$8,$9*
0 Add four rect primitives between the rounded corners*
20,1,$1+$1,$2,$3,$4,$5,0*
20,1,$1+$1,$4,$5,$6,$7,0*
20,1,$1+$1,$6,$7,$8,$9,0*
20,1,$1+$1,$8,$9,$2,$3,0*%
G04 Aperture macros list end*
G04 #@! TA.AperFunction,ComponentPad*
%ADD10R,1.700000X1.700000*%
G04 #@! TD*
G04 #@! TA.AperFunction,ComponentPad*
%ADD11O,1.700000X1.700000*%
G04 #@! TD*
G04 #@! TA.AperFunction,SMDPad,CuDef*
%ADD12RoundRect,0.237500X-0.237500X0.250000X-0.237500X-0.250000X0.237500X-0.250000X0.237500X0.250000X0*%
G04 #@! TD*
G04 #@! TA.AperFunction,SMDPad,CuDef*
%ADD13R,0.900000X0.800000*%
G04 #@! TD*
G04 #@! TA.AperFunction,SMDPad,CuDef*
%ADD14RoundRect,0.237500X-0.300000X-0.237500X0.300000X-0.237500X0.300000X0.237500X-0.300000X0.237500X0*%
G04 #@! TD*
G04 #@! TA.AperFunction,SMDPad,CuDef*
%ADD15RoundRect,0.237500X-0.250000X-0.237500X0.250000X-0.237500X0.250000X0.237500X-0.250000X0.237500X0*%
G04 #@! TD*
G04 #@! TA.AperFunction,SMDPad,CuDef*
%ADD16RoundRect,0.237500X-0.237500X0.300000X-0.237500X-0.300000X0.237500X-0.300000X0.237500X0.300000X0*%
G04 #@! TD*
G04 #@! TA.AperFunction,SMDPad,CuDef*
%ADD17RoundRect,0.237500X0.300000X0.237500X-0.300000X0.237500X-0.300000X-0.237500X0.300000X-0.237500X0*%
G04 #@! TD*
G04 #@! TA.AperFunction,SMDPad,CuDef*
%ADD18R,0.600000X0.500000*%
G04 #@! TD*
G04 #@! TA.AperFunction,SMDPad,CuDef*
%ADD19RoundRect,0.237500X0.237500X-0.250000X0.237500X0.250000X-0.237500X0.250000X-0.237500X-0.250000X0*%
G04 #@! TD*
G04 #@! TA.AperFunction,ComponentPad*
%ADD20R,1.524000X1.524000*%
G04 #@! TD*
G04 #@! TA.AperFunction,ComponentPad*
%ADD21C,1.524000*%
G04 #@! TD*
G04 #@! TA.AperFunction,SMDPad,CuDef*
%ADD22RoundRect,0.150000X-0.512500X-0.150000X0.512500X-0.150000X0.512500X0.150000X-0.512500X0.150000X0*%
G04 #@! TD*
G04 #@! TA.AperFunction,SMDPad,CuDef*
%ADD23RoundRect,0.237500X0.250000X0.237500X-0.250000X0.237500X-0.250000X-0.237500X0.250000X-0.237500X0*%
G04 #@! TD*
G04 #@! TA.AperFunction,SMDPad,CuDef*
%ADD24R,0.700000X0.450000*%
G04 #@! TD*
G04 #@! TA.AperFunction,SMDPad,CuDef*
%ADD25R,0.800000X0.900000*%
G04 #@! TD*
G04 #@! TA.AperFunction,SMDPad,CuDef*
%ADD26RoundRect,0.250000X-0.650000X0.412500X-0.650000X-0.412500X0.650000X-0.412500X0.650000X0.412500X0*%
G04 #@! TD*
G04 #@! TA.AperFunction,SMDPad,CuDef*
%ADD27R,1.000000X1.000000*%
G04 #@! TD*
G04 #@! TA.AperFunction,SMDPad,CuDef*
%ADD28RoundRect,0.237500X0.237500X-0.300000X0.237500X0.300000X-0.237500X0.300000X-0.237500X-0.300000X0*%
G04 #@! TD*
G04 #@! TA.AperFunction,ViaPad*
%ADD29C,0.600000*%
G04 #@! TD*
G04 #@! TA.AperFunction,ViaPad*
%ADD30C,0.800000*%
G04 #@! TD*
G04 #@! TA.AperFunction,Conductor*
%ADD31C,0.381000*%
G04 #@! TD*
G04 #@! TA.AperFunction,Conductor*
%ADD32C,0.250000*%
G04 #@! TD*
G04 #@! TA.AperFunction,Conductor*
%ADD33C,0.762000*%
G04 #@! TD*
G04 APERTURE END LIST*
D10*
X120523000Y-66294000D03*
D11*
X120523000Y-68834000D03*
X120523000Y-71374000D03*
X120523000Y-73914000D03*
X120523000Y-76454000D03*
X120523000Y-78994000D03*
D10*
X107569000Y-84836000D03*
D11*
X105029000Y-84836000D03*
X102489000Y-84836000D03*
X99949000Y-84836000D03*
X97409000Y-84836000D03*
X94869000Y-84836000D03*
X100076000Y-76327000D03*
D10*
X83566000Y-73787000D03*
D11*
X83566000Y-76327000D03*
X83566000Y-78867000D03*
D10*
X83566000Y-58166000D03*
D11*
X83566000Y-60706000D03*
X83566000Y-63246000D03*
X83566000Y-65786000D03*
X97028000Y-76327000D03*
D10*
X106299000Y-63749000D03*
D11*
X106299000Y-66289000D03*
D10*
X83566000Y-49530000D03*
D11*
X83566000Y-52070000D03*
D12*
X98171000Y-65485000D03*
X98171000Y-67310000D03*
X88392000Y-74144500D03*
X88392000Y-75969500D03*
D13*
X103029000Y-48763000D03*
X103029000Y-46863000D03*
X105029000Y-47813000D03*
D14*
X101653000Y-69088000D03*
X103378000Y-69088000D03*
D15*
X90048786Y-60579000D03*
X91873786Y-60579000D03*
D16*
X90043000Y-54102000D03*
X90043000Y-55827000D03*
D12*
X96139000Y-46943000D03*
X96139000Y-48768000D03*
D17*
X94361000Y-50546000D03*
X92636000Y-50546000D03*
D18*
X99110800Y-78867000D03*
X99110800Y-79679800D03*
X99110800Y-80467200D03*
X96647000Y-80467200D03*
X96647000Y-79679800D03*
X96647000Y-78867000D03*
D19*
X97790000Y-48768000D03*
X97790000Y-46943000D03*
D20*
X103632000Y-59817000D03*
D21*
X103632000Y-57277000D03*
X101092000Y-59817000D03*
X101092000Y-57277000D03*
X98552000Y-59817000D03*
X98552000Y-57277000D03*
X96012000Y-59817000D03*
X96012000Y-57277000D03*
D22*
X91959000Y-54102000D03*
X91959000Y-53152000D03*
X91959000Y-52202000D03*
X94234000Y-52202000D03*
X94234000Y-54102000D03*
D17*
X91794500Y-45212000D03*
X90069500Y-45212000D03*
D14*
X101653000Y-70739000D03*
X103378000Y-70739000D03*
D13*
X98552000Y-52639000D03*
X98552000Y-50739000D03*
X100552000Y-51689000D03*
D23*
X91873786Y-58828000D03*
X90048786Y-58828000D03*
D12*
X102235000Y-50903500D03*
X102235000Y-52728500D03*
X99822000Y-65485000D03*
X99822000Y-67310000D03*
D24*
X89932000Y-63530000D03*
X89932000Y-62230000D03*
X91932000Y-62880000D03*
D25*
X98044000Y-45212000D03*
X96144000Y-45212000D03*
X97094000Y-43212000D03*
D22*
X91959000Y-48890000D03*
X91959000Y-47940000D03*
X91959000Y-46990000D03*
X94234000Y-46990000D03*
X94234000Y-48890000D03*
D26*
X87884000Y-48768000D03*
X87884000Y-51893000D03*
D23*
X101266000Y-48768000D03*
X99441000Y-48768000D03*
D27*
X96393000Y-50546000D03*
X96393000Y-53046000D03*
D28*
X90043000Y-48868500D03*
X90043000Y-47143500D03*
D19*
X98171000Y-70739000D03*
X98171000Y-68914000D03*
D12*
X96520000Y-65485000D03*
X96520000Y-67310000D03*
D17*
X93599000Y-55753000D03*
X91874000Y-55753000D03*
D16*
X95250000Y-78793000D03*
X95250000Y-80518000D03*
D29*
X96774000Y-68707000D03*
X117348000Y-76454000D03*
X117602000Y-72517000D03*
X121539000Y-42418000D03*
X98171000Y-78994000D03*
X115189000Y-85852000D03*
X115189000Y-49276000D03*
X115189000Y-69469000D03*
X121539000Y-49276000D03*
X82550000Y-70485000D03*
X108712000Y-42418000D03*
X90170000Y-75184000D03*
X82550000Y-42418000D03*
X115443000Y-65405000D03*
X101219000Y-81534000D03*
X104521000Y-66929000D03*
X121539000Y-85852000D03*
X95504000Y-42418000D03*
X121539000Y-55753000D03*
X101981000Y-42418000D03*
X109093000Y-74422000D03*
X82550000Y-85852000D03*
X99060000Y-61976000D03*
X115189000Y-42418000D03*
X99314000Y-54356000D03*
X89662000Y-65786000D03*
X85852000Y-47879000D03*
X104394000Y-54356000D03*
X91440000Y-80772000D03*
X121539000Y-60960000D03*
X112649000Y-75819000D03*
X91313000Y-50546000D03*
X108712000Y-49276000D03*
X111633000Y-61087000D03*
X89027000Y-42418000D03*
X115189000Y-55753000D03*
X88519000Y-55880000D03*
X95250000Y-80518000D03*
X116332000Y-79629000D03*
X115316000Y-60960000D03*
X97409000Y-51689000D03*
X89027000Y-85852000D03*
X101346000Y-68326000D03*
X95123000Y-51181000D03*
X88392000Y-67437000D03*
X94440131Y-78780000D03*
X100584000Y-52578000D03*
X97028000Y-62230000D03*
X112649000Y-61976000D03*
X89662000Y-57785000D03*
D30*
X112268000Y-78486000D03*
D29*
X109601000Y-68961000D03*
X106807000Y-58547000D03*
X93091000Y-51689000D03*
X92964000Y-56896000D03*
X88519000Y-77851000D03*
X99314000Y-45212000D03*
X116332000Y-62865000D03*
X96901000Y-69977000D03*
X91694000Y-76962000D03*
X99314000Y-70739000D03*
X95123000Y-73152000D03*
X109601000Y-54991000D03*
X104521000Y-65659000D03*
X114427000Y-68707000D03*
X103124000Y-64135000D03*
X94488000Y-62065497D03*
X94488000Y-62865000D03*
X99822000Y-66294000D03*
X98171000Y-66294000D03*
X96520000Y-66294000D03*
X107696000Y-62484000D03*
X114300000Y-66040000D03*
X99695000Y-69342000D03*
X102743000Y-76708000D03*
X98171000Y-70739000D03*
X101219000Y-67437000D03*
X101727000Y-66802000D03*
X96520000Y-74041000D03*
X93091000Y-70231000D03*
X93091000Y-71120000D03*
X97028000Y-71106261D03*
X101092000Y-73914000D03*
D31*
X116332000Y-62865000D02*
X116332000Y-77597000D01*
X116332000Y-77597000D02*
X117729000Y-78994000D01*
X117729000Y-78994000D02*
X120523000Y-78994000D01*
D32*
X102489000Y-84836000D02*
X102489000Y-78359000D01*
X102489000Y-78359000D02*
X102108000Y-77978000D01*
X99949000Y-84836000D02*
X99949000Y-79121000D01*
X99949000Y-79121000D02*
X99695000Y-78867000D01*
X99695000Y-78867000D02*
X99110800Y-78867000D01*
D33*
X83566000Y-76327000D02*
X86487000Y-76327000D01*
X86844500Y-75969500D02*
X88392000Y-75969500D01*
X86487000Y-76327000D02*
X86844500Y-75969500D01*
X83566000Y-73787000D02*
X86487000Y-73787000D01*
X86487000Y-73787000D02*
X86844500Y-74144500D01*
X86844500Y-74144500D02*
X88392000Y-74144500D01*
D32*
X83566000Y-63246000D02*
X86487000Y-63246000D01*
X86868000Y-63627000D02*
X86868000Y-69851396D01*
X86487000Y-63246000D02*
X86868000Y-63627000D01*
X86868000Y-69851396D02*
X88136604Y-71120000D01*
X88136604Y-71120000D02*
X93091000Y-71120000D01*
X83566000Y-60706000D02*
X86741000Y-60706000D01*
X86741000Y-60706000D02*
X87318000Y-61283000D01*
X87318000Y-61283000D02*
X87318000Y-69665000D01*
X87318000Y-69665000D02*
X87884000Y-70231000D01*
X87884000Y-70231000D02*
X93091000Y-70231000D01*
X83566000Y-58166000D02*
X87503000Y-58166000D01*
X87503000Y-58166000D02*
X88138000Y-58801000D01*
X88138000Y-58801000D02*
X88138000Y-61595000D01*
X88773000Y-62230000D02*
X89932000Y-62230000D01*
X88138000Y-61595000D02*
X88773000Y-62230000D01*
D33*
X83566000Y-49530000D02*
X87122000Y-49530000D01*
X87122000Y-49530000D02*
X87884000Y-48768000D01*
D32*
X94996000Y-47879000D02*
X98552000Y-47879000D01*
X93091000Y-54536000D02*
X93091000Y-53594000D01*
X98171000Y-79502000D02*
X98348800Y-79679800D01*
X91874000Y-55753000D02*
X93091000Y-54536000D01*
X99110800Y-79679800D02*
X98348800Y-79679800D01*
X93091000Y-50091000D02*
X93091000Y-48006000D01*
X92649000Y-53152000D02*
X91959000Y-53152000D01*
X93091000Y-53594000D02*
X92649000Y-53152000D01*
X98171000Y-78994000D02*
X98171000Y-79502000D01*
X92636000Y-50546000D02*
X93091000Y-50091000D01*
X101653000Y-68633000D02*
X101346000Y-68326000D01*
X96647000Y-79679800D02*
X96136800Y-79679800D01*
X94488000Y-50546000D02*
X95123000Y-51181000D01*
D31*
X94361000Y-50546000D02*
X94361000Y-49017000D01*
D32*
X101653000Y-69088000D02*
X101653000Y-68633000D01*
X94453131Y-78793000D02*
X94440131Y-78780000D01*
D31*
X94356000Y-48768000D02*
X94234000Y-48890000D01*
D32*
X96136800Y-79679800D02*
X95250000Y-78793000D01*
X100552000Y-51689000D02*
X100552000Y-52546000D01*
X95250000Y-78793000D02*
X94453131Y-78793000D01*
X100552000Y-52546000D02*
X100584000Y-52578000D01*
D31*
X94361000Y-49017000D02*
X94234000Y-48890000D01*
D32*
X94361000Y-50546000D02*
X94488000Y-50546000D01*
D31*
X100552000Y-51689000D02*
X100552000Y-49482000D01*
X96139000Y-48768000D02*
X94356000Y-48768000D01*
D33*
X101653000Y-69088000D02*
X101653000Y-70739000D01*
D31*
X100552000Y-49482000D02*
X101266000Y-48768000D01*
D32*
X91873786Y-60579000D02*
X91873786Y-58828000D01*
X95123000Y-63754000D02*
X92329000Y-63754000D01*
X95504000Y-63373000D02*
X95123000Y-63754000D01*
X91932000Y-60637214D02*
X91873786Y-60579000D01*
X91932000Y-62880000D02*
X91932000Y-60637214D01*
X95504000Y-62611000D02*
X95504000Y-63373000D01*
X91932000Y-63357000D02*
X91932000Y-62880000D01*
X92329000Y-63754000D02*
X91932000Y-63357000D01*
X95885000Y-62230000D02*
X95504000Y-62611000D01*
X97028000Y-62230000D02*
X95885000Y-62230000D01*
D31*
X91959000Y-48890000D02*
X90064500Y-48890000D01*
D33*
X90043000Y-48868500D02*
X87984500Y-48868500D01*
D32*
X90048786Y-58828000D02*
X90048786Y-58166000D01*
X89662000Y-57785000D02*
X89667786Y-57785000D01*
D31*
X91959000Y-54102000D02*
X90043000Y-54102000D01*
X90064500Y-48890000D02*
X90043000Y-48868500D01*
D33*
X90043000Y-54102000D02*
X90043000Y-48868500D01*
X87984500Y-48868500D02*
X87884000Y-48768000D01*
D32*
X89667786Y-57785000D02*
X90048786Y-58166000D01*
X91959000Y-52202000D02*
X92578000Y-52202000D01*
X91959000Y-52202000D02*
X92621499Y-52202000D01*
X92578000Y-52202000D02*
X93091000Y-51689000D01*
D31*
X94234000Y-55118000D02*
X94234000Y-54102000D01*
X93599000Y-55753000D02*
X94234000Y-55118000D01*
D32*
X93599000Y-55753000D02*
X93599000Y-56261000D01*
X93599000Y-56261000D02*
X92964000Y-56896000D01*
D31*
X91794500Y-45212000D02*
X96144000Y-45212000D01*
X91794500Y-46825500D02*
X91959000Y-46990000D01*
X91794500Y-45212000D02*
X91794500Y-46825500D01*
X96144000Y-45212000D02*
X96144000Y-46938000D01*
X96144000Y-46938000D02*
X96139000Y-46943000D01*
D32*
X99314000Y-45212000D02*
X98044000Y-45212000D01*
D31*
X103029000Y-50109500D02*
X102235000Y-50903500D01*
X103029000Y-48763000D02*
X103029000Y-50109500D01*
X100396000Y-47813000D02*
X99441000Y-48768000D01*
X105029000Y-47813000D02*
X100396000Y-47813000D01*
X99441000Y-48768000D02*
X99441000Y-49850000D01*
X99441000Y-49850000D02*
X98552000Y-50739000D01*
X98145000Y-53046000D02*
X98552000Y-52639000D01*
X96393000Y-53046000D02*
X98145000Y-53046000D01*
D32*
X96266000Y-70612000D02*
X96266000Y-70993000D01*
X91694000Y-76962000D02*
X91694000Y-72390000D01*
X92329000Y-71755000D02*
X95885000Y-71755000D01*
X96266000Y-71374000D02*
X96266000Y-70993000D01*
X96901000Y-69977000D02*
X96266000Y-70612000D01*
X95885000Y-71755000D02*
X96266000Y-71374000D01*
X91694000Y-72390000D02*
X92329000Y-71755000D01*
X99314000Y-70739000D02*
X99314000Y-72644000D01*
X98806000Y-73152000D02*
X95123000Y-73152000D01*
X99314000Y-72644000D02*
X98806000Y-73152000D01*
X104521000Y-63177000D02*
X105058000Y-62640000D01*
X105058000Y-62640000D02*
X109601000Y-58097000D01*
X104521000Y-65659000D02*
X104521000Y-63177000D01*
X109601000Y-58097000D02*
X109601000Y-54991000D01*
X104140000Y-67818000D02*
X114046000Y-67818000D01*
X103124000Y-66802000D02*
X104140000Y-67818000D01*
X114427000Y-68199000D02*
X114427000Y-68707000D01*
X114046000Y-67818000D02*
X114427000Y-68199000D01*
X103124000Y-64135000D02*
X103124000Y-66802000D01*
X101727000Y-55626000D02*
X102235000Y-55118000D01*
X93668000Y-61918000D02*
X93668000Y-58083748D01*
X93668000Y-58083748D02*
X96125749Y-55626000D01*
X102235000Y-55118000D02*
X102235000Y-52728500D01*
X94488000Y-62065497D02*
X93815497Y-62065497D01*
X96125749Y-55626000D02*
X101727000Y-55626000D01*
X93815497Y-62065497D02*
X93668000Y-61918000D01*
X96393000Y-51308000D02*
X96393000Y-50546000D01*
X93218000Y-57897352D02*
X95504000Y-55611353D01*
X93472000Y-62865000D02*
X93218000Y-62611000D01*
X94488000Y-62865000D02*
X93472000Y-62865000D01*
X93218000Y-62611000D02*
X93218000Y-57897352D01*
D31*
X97790000Y-48768000D02*
X97790000Y-49149000D01*
D32*
X95504000Y-55611353D02*
X95504000Y-52197000D01*
X95504000Y-52197000D02*
X96393000Y-51308000D01*
D31*
X97790000Y-49149000D02*
X96393000Y-50546000D01*
D32*
X99822000Y-65485000D02*
X99822000Y-66294000D01*
X98171000Y-65485000D02*
X98171000Y-66294000D01*
X96520000Y-65485000D02*
X96520000Y-66294000D01*
X112141000Y-66040000D02*
X114300000Y-66040000D01*
X110998000Y-62484000D02*
X111506000Y-62992000D01*
X111506000Y-65405000D02*
X112141000Y-66040000D01*
X111506000Y-62992000D02*
X111506000Y-65405000D01*
X107696000Y-62484000D02*
X110998000Y-62484000D01*
X101710424Y-72136000D02*
X100711000Y-71136576D01*
X99949000Y-69342000D02*
X99695000Y-69342000D01*
X100711000Y-70104000D02*
X99949000Y-69342000D01*
X100711000Y-71136576D02*
X100711000Y-70104000D01*
X102743000Y-73152000D02*
X101727000Y-72136000D01*
X101727000Y-72136000D02*
X101710424Y-72136000D01*
X102743000Y-76708000D02*
X102743000Y-73152000D01*
X102362000Y-66802000D02*
X102362000Y-61087000D01*
X102362000Y-67065305D02*
X102362000Y-66802000D01*
X101975884Y-67437000D02*
X102362000Y-67050884D01*
X101219000Y-67437000D02*
X101975884Y-67437000D01*
X102362000Y-61087000D02*
X101092000Y-59817000D01*
X102362000Y-67050884D02*
X102362000Y-66802000D01*
X100697749Y-60960000D02*
X99822000Y-60084251D01*
X99497000Y-56190000D02*
X96337000Y-56190000D01*
X101346000Y-61595000D02*
X100711000Y-60960000D01*
X101727000Y-66802000D02*
X101727000Y-65659000D01*
X99822000Y-60084251D02*
X99822000Y-56515000D01*
X101727000Y-66802000D02*
X101854000Y-66675000D01*
X99822000Y-56515000D02*
X99497000Y-56190000D01*
X96012000Y-56515000D02*
X96012000Y-57277000D01*
X101727000Y-61976000D02*
X101346000Y-61595000D01*
X101727000Y-65659000D02*
X101727000Y-61976000D01*
X100711000Y-60960000D02*
X100697749Y-60960000D01*
X96337000Y-56190000D02*
X96012000Y-56515000D01*
X96647000Y-81280000D02*
X96647000Y-80467200D01*
X96393000Y-81534000D02*
X96647000Y-81280000D01*
X93273500Y-81208500D02*
X93599000Y-81534000D01*
X93599000Y-81534000D02*
X96393000Y-81534000D01*
X96520000Y-74041000D02*
X94234000Y-74041000D01*
X94234000Y-74041000D02*
X93273500Y-75001500D01*
X93273500Y-75001500D02*
X93273500Y-81208500D01*
X92773500Y-81280000D02*
X92773500Y-81344896D01*
X97028000Y-71106261D02*
X97028000Y-71755000D01*
X92773500Y-78486000D02*
X92773500Y-81280000D01*
X93726000Y-82034000D02*
X98687000Y-82034000D01*
X98687000Y-82034000D02*
X99110800Y-81610200D01*
X93462604Y-82034000D02*
X93726000Y-82034000D01*
X97130887Y-71120000D02*
X97144626Y-71106261D01*
X96520000Y-72263000D02*
X94869000Y-72263000D01*
X99110800Y-81610200D02*
X99110800Y-80467200D01*
X92773500Y-74358500D02*
X92773500Y-78486000D01*
X92773500Y-81344896D02*
X93462604Y-82034000D01*
X94869000Y-72263000D02*
X92773500Y-74358500D01*
X97028000Y-71755000D02*
X96520000Y-72263000D01*
X97028000Y-77978000D02*
X96647000Y-78359000D01*
X102108000Y-74930000D02*
X102108000Y-77978000D01*
X96647000Y-78359000D02*
X96647000Y-78867000D01*
X102108000Y-77978000D02*
X97028000Y-77978000D01*
X101092000Y-73914000D02*
X102108000Y-74930000D01*
G04 #@! TA.AperFunction,Conductor*
G36*
X101797621Y-78631502D02*
G01*
X101844114Y-78685158D01*
X101855500Y-78737500D01*
X101855500Y-83559078D01*
X101835498Y-83627199D01*
X101789471Y-83669891D01*
X101743426Y-83694810D01*
X101743424Y-83694811D01*
X101565762Y-83833091D01*
X101413279Y-83998729D01*
X101324483Y-84134643D01*
X101270479Y-84180731D01*
X101200131Y-84190306D01*
X101135774Y-84160329D01*
X101113517Y-84134643D01*
X101024720Y-83998729D01*
X100895221Y-83858058D01*
X100872240Y-83833094D01*
X100872239Y-83833093D01*
X100872237Y-83833091D01*
X100752372Y-83739796D01*
X100694576Y-83694811D01*
X100666620Y-83679681D01*
X100648529Y-83669891D01*
X100598139Y-83619877D01*
X100582500Y-83559078D01*
X100582500Y-79204855D01*
X100584249Y-79189014D01*
X100583956Y-79188987D01*
X100584701Y-79181094D01*
X100584702Y-79181091D01*
X100582562Y-79113013D01*
X100582500Y-79109054D01*
X100582500Y-79081149D01*
X100582500Y-79081144D01*
X100581992Y-79077130D01*
X100581061Y-79065297D01*
X100579673Y-79021110D01*
X100574022Y-79001663D01*
X100570012Y-78982300D01*
X100567474Y-78962203D01*
X100551195Y-78921090D01*
X100547353Y-78909869D01*
X100535018Y-78867407D01*
X100524705Y-78849969D01*
X100516010Y-78832222D01*
X100508552Y-78813383D01*
X100507226Y-78811558D01*
X100506630Y-78809889D01*
X100504733Y-78806437D01*
X100505289Y-78806130D01*
X100483369Y-78744692D01*
X100499450Y-78675541D01*
X100550365Y-78626061D01*
X100609164Y-78611500D01*
X101729500Y-78611500D01*
X101797621Y-78631502D01*
G37*
G04 #@! TD.AperFunction*
G04 #@! TA.AperFunction,Conductor*
G36*
X98244421Y-78631502D02*
G01*
X98290914Y-78685158D01*
X98302300Y-78737500D01*
X98302300Y-79165649D01*
X98308809Y-79226195D01*
X98308811Y-79226201D01*
X98310260Y-79230086D01*
X98310490Y-79233304D01*
X98310623Y-79233867D01*
X98310531Y-79233888D01*
X98315323Y-79300902D01*
X98310262Y-79318138D01*
X98309306Y-79320700D01*
X98309305Y-79320703D01*
X98302800Y-79381202D01*
X98302800Y-79978397D01*
X98309306Y-80038900D01*
X98310376Y-80043429D01*
X98310377Y-80101367D01*
X98308810Y-80107997D01*
X98302300Y-80168550D01*
X98302300Y-80765849D01*
X98308809Y-80826396D01*
X98308811Y-80826404D01*
X98359910Y-80963402D01*
X98359910Y-80963403D01*
X98359911Y-80963404D01*
X98447539Y-81080461D01*
X98447541Y-81080462D01*
X98452168Y-81086643D01*
X98476979Y-81153163D01*
X98477300Y-81162153D01*
X98477300Y-81274500D01*
X98457298Y-81342621D01*
X98403642Y-81389114D01*
X98351300Y-81400500D01*
X97409366Y-81400500D01*
X97341245Y-81380498D01*
X97294752Y-81326842D01*
X97283925Y-81286357D01*
X97281059Y-81256036D01*
X97280500Y-81244179D01*
X97280500Y-81162153D01*
X97300502Y-81094032D01*
X97305632Y-81086643D01*
X97310258Y-81080463D01*
X97310261Y-81080461D01*
X97397889Y-80963404D01*
X97448989Y-80826401D01*
X97455500Y-80765838D01*
X97455500Y-80168562D01*
X97455473Y-80168315D01*
X97448989Y-80108001D01*
X97447685Y-80102480D01*
X97447685Y-80044520D01*
X97448987Y-80039006D01*
X97448989Y-80039001D01*
X97455500Y-79978438D01*
X97455500Y-79381162D01*
X97455499Y-79381150D01*
X97448990Y-79320603D01*
X97448989Y-79320600D01*
X97447810Y-79317439D01*
X97447622Y-79314815D01*
X97447177Y-79312932D01*
X97447482Y-79312859D01*
X97442741Y-79246624D01*
X97447810Y-79229361D01*
X97448989Y-79226201D01*
X97449831Y-79218375D01*
X97455499Y-79165649D01*
X97455500Y-79165632D01*
X97455500Y-78737500D01*
X97475502Y-78669379D01*
X97529158Y-78622886D01*
X97581500Y-78611500D01*
X98176300Y-78611500D01*
X98244421Y-78631502D01*
G37*
G04 #@! TD.AperFunction*
G04 #@! TA.AperFunction,Conductor*
G36*
X94080310Y-79511066D02*
G01*
X94080437Y-79510706D01*
X94087116Y-79513043D01*
X94259084Y-79573217D01*
X94318977Y-79579965D01*
X94384427Y-79607467D01*
X94424620Y-79665991D01*
X94426793Y-79736954D01*
X94412108Y-79771318D01*
X94332249Y-79900790D01*
X94277431Y-80066223D01*
X94277430Y-80066226D01*
X94267000Y-80168315D01*
X94267000Y-80264000D01*
X95378000Y-80264000D01*
X95446121Y-80284002D01*
X95492614Y-80337658D01*
X95504000Y-80390000D01*
X95504000Y-80646000D01*
X95483998Y-80714121D01*
X95430342Y-80760614D01*
X95378000Y-80772000D01*
X94267000Y-80772000D01*
X94267000Y-80774500D01*
X94246998Y-80842621D01*
X94193342Y-80889114D01*
X94141000Y-80900500D01*
X94033000Y-80900500D01*
X93964879Y-80880498D01*
X93918386Y-80826842D01*
X93907000Y-80774500D01*
X93907000Y-79626831D01*
X93927002Y-79558710D01*
X93980658Y-79512217D01*
X94050932Y-79502113D01*
X94080310Y-79511066D01*
G37*
G04 #@! TD.AperFunction*
G04 #@! TA.AperFunction,Conductor*
G36*
X94862579Y-57889239D02*
G01*
X94919415Y-57931786D01*
X94921760Y-57935025D01*
X95035016Y-58096772D01*
X95035020Y-58096777D01*
X95035023Y-58096781D01*
X95192219Y-58253977D01*
X95192222Y-58253979D01*
X95192227Y-58253983D01*
X95283349Y-58317787D01*
X95374323Y-58381488D01*
X95479460Y-58430514D01*
X95484373Y-58432805D01*
X95537658Y-58479722D01*
X95557119Y-58547999D01*
X95536577Y-58615959D01*
X95484373Y-58661195D01*
X95374323Y-58712512D01*
X95192222Y-58840020D01*
X95192216Y-58840025D01*
X95035025Y-58997216D01*
X95035020Y-58997222D01*
X94907512Y-59179323D01*
X94813561Y-59380801D01*
X94813560Y-59380804D01*
X94756022Y-59595537D01*
X94736647Y-59817000D01*
X94756022Y-60038463D01*
X94796552Y-60189723D01*
X94813559Y-60253193D01*
X94813561Y-60253199D01*
X94907511Y-60454675D01*
X94907512Y-60454677D01*
X95035016Y-60636772D01*
X95035020Y-60636777D01*
X95035023Y-60636781D01*
X95192219Y-60793977D01*
X95192222Y-60793979D01*
X95192227Y-60793983D01*
X95295341Y-60866184D01*
X95374323Y-60921488D01*
X95575804Y-61015440D01*
X95790537Y-61072978D01*
X96012000Y-61092353D01*
X96233463Y-61072978D01*
X96448196Y-61015440D01*
X96649677Y-60921488D01*
X96831781Y-60793977D01*
X96988977Y-60636781D01*
X97116488Y-60454677D01*
X97167805Y-60344626D01*
X97214722Y-60291342D01*
X97282999Y-60271881D01*
X97350959Y-60292423D01*
X97396195Y-60344627D01*
X97447511Y-60454675D01*
X97447512Y-60454677D01*
X97575016Y-60636772D01*
X97575020Y-60636777D01*
X97575023Y-60636781D01*
X97732219Y-60793977D01*
X97732222Y-60793979D01*
X97732227Y-60793983D01*
X97835341Y-60866184D01*
X97914323Y-60921488D01*
X98115804Y-61015440D01*
X98330537Y-61072978D01*
X98552000Y-61092353D01*
X98773463Y-61072978D01*
X98988196Y-61015440D01*
X99189677Y-60921488D01*
X99371781Y-60793977D01*
X99414707Y-60751049D01*
X99477015Y-60717026D01*
X99547831Y-60722089D01*
X99592896Y-60751051D01*
X100190501Y-61348656D01*
X100200471Y-61361100D01*
X100200699Y-61360913D01*
X100205750Y-61367019D01*
X100255398Y-61413641D01*
X100258243Y-61416399D01*
X100277972Y-61436129D01*
X100277973Y-61436130D01*
X100277977Y-61436133D01*
X100277979Y-61436135D01*
X100281184Y-61438621D01*
X100290191Y-61446314D01*
X100322428Y-61476586D01*
X100322431Y-61476587D01*
X100322434Y-61476590D01*
X100327269Y-61479248D01*
X100355663Y-61500567D01*
X101056595Y-62201499D01*
X101090621Y-62263811D01*
X101093500Y-62290594D01*
X101093500Y-66254262D01*
X101074187Y-66321298D01*
X100993958Y-66448981D01*
X100993957Y-66448984D01*
X100931446Y-66627632D01*
X100929562Y-66626973D01*
X100899702Y-66680341D01*
X100871797Y-66699926D01*
X100871968Y-66700198D01*
X100866647Y-66703540D01*
X100866208Y-66703849D01*
X100865987Y-66703955D01*
X100865316Y-66704377D01*
X100864822Y-66704516D01*
X100859616Y-66707024D01*
X100859176Y-66706111D01*
X100796993Y-66723677D01*
X100729081Y-66702976D01*
X100691047Y-66663831D01*
X100648262Y-66594466D01*
X100643710Y-66588709D01*
X100644740Y-66587894D01*
X100614381Y-66532298D01*
X100614639Y-66482102D01*
X100614424Y-66482078D01*
X100614649Y-66480075D01*
X100614663Y-66477468D01*
X100615211Y-66475062D01*
X100615217Y-66475047D01*
X100635616Y-66294000D01*
X100633626Y-66276341D01*
X100645875Y-66206411D01*
X100651593Y-66196087D01*
X100651594Y-66196086D01*
X100740209Y-66052420D01*
X100795062Y-65886881D01*
X100805500Y-65784713D01*
X100805499Y-65185288D01*
X100795062Y-65083119D01*
X100740209Y-64917580D01*
X100648658Y-64769154D01*
X100648657Y-64769153D01*
X100648652Y-64769147D01*
X100525352Y-64645847D01*
X100525346Y-64645842D01*
X100494954Y-64627096D01*
X100376920Y-64554291D01*
X100211381Y-64499438D01*
X100211379Y-64499437D01*
X100211377Y-64499437D01*
X100109221Y-64489000D01*
X99534787Y-64489000D01*
X99432619Y-64499437D01*
X99267079Y-64554291D01*
X99118653Y-64645842D01*
X99118647Y-64645847D01*
X99085595Y-64678900D01*
X99023283Y-64712926D01*
X98952468Y-64707861D01*
X98907405Y-64678900D01*
X98874352Y-64645847D01*
X98874346Y-64645842D01*
X98843954Y-64627096D01*
X98725920Y-64554291D01*
X98560381Y-64499438D01*
X98560379Y-64499437D01*
X98560377Y-64499437D01*
X98458221Y-64489000D01*
X97883787Y-64489000D01*
X97781619Y-64499437D01*
X97616079Y-64554291D01*
X97467653Y-64645842D01*
X97467647Y-64645847D01*
X97434595Y-64678900D01*
X97372283Y-64712926D01*
X97301468Y-64707861D01*
X97256405Y-64678900D01*
X97223352Y-64645847D01*
X97223346Y-64645842D01*
X97192954Y-64627096D01*
X97074920Y-64554291D01*
X96909381Y-64499438D01*
X96909379Y-64499437D01*
X96909377Y-64499437D01*
X96807221Y-64489000D01*
X96232787Y-64489000D01*
X96130619Y-64499437D01*
X95965079Y-64554291D01*
X95816653Y-64645842D01*
X95816647Y-64645847D01*
X95693347Y-64769147D01*
X95693342Y-64769153D01*
X95601791Y-64917580D01*
X95546937Y-65083122D01*
X95536500Y-65185278D01*
X95536500Y-65784712D01*
X95546937Y-65886880D01*
X95601791Y-66052420D01*
X95690406Y-66196086D01*
X95709143Y-66264565D01*
X95708373Y-66276335D01*
X95706384Y-66293994D01*
X95706384Y-66293997D01*
X95706384Y-66294000D01*
X95726783Y-66475047D01*
X95726784Y-66475049D01*
X95727339Y-66477481D01*
X95727239Y-66479095D01*
X95727576Y-66482078D01*
X95727053Y-66482136D01*
X95722994Y-66548344D01*
X95697661Y-66588211D01*
X95698290Y-66588709D01*
X95693737Y-66594466D01*
X95602248Y-66742792D01*
X95547431Y-66908223D01*
X95547430Y-66908226D01*
X95537000Y-67010315D01*
X95537000Y-67056000D01*
X96228333Y-67056000D01*
X96269946Y-67063070D01*
X96338953Y-67087217D01*
X96520000Y-67107616D01*
X96701047Y-67087217D01*
X96770053Y-67063070D01*
X96811667Y-67056000D01*
X97879333Y-67056000D01*
X97920946Y-67063070D01*
X97989953Y-67087217D01*
X98171000Y-67107616D01*
X98352047Y-67087217D01*
X98421053Y-67063070D01*
X98462667Y-67056000D01*
X99530333Y-67056000D01*
X99571946Y-67063070D01*
X99640953Y-67087217D01*
X99822000Y-67107616D01*
X99935896Y-67094782D01*
X100005823Y-67107031D01*
X100058032Y-67155143D01*
X100076000Y-67219990D01*
X100076000Y-68305500D01*
X100109185Y-68305500D01*
X100109184Y-68305499D01*
X100211273Y-68295069D01*
X100211285Y-68295067D01*
X100370018Y-68242468D01*
X100440972Y-68240027D01*
X100501983Y-68276335D01*
X100533678Y-68339864D01*
X100534857Y-68347956D01*
X100542885Y-68419198D01*
X100552783Y-68507047D01*
X100608704Y-68666862D01*
X100615122Y-68721281D01*
X100606999Y-68800793D01*
X100606837Y-68803982D01*
X100606674Y-68803973D01*
X100606674Y-68803977D01*
X100606609Y-68803970D01*
X100605757Y-68803927D01*
X100586998Y-68867818D01*
X100533342Y-68914311D01*
X100463068Y-68924415D01*
X100398488Y-68894921D01*
X100394760Y-68891559D01*
X100391361Y-68888368D01*
X100388504Y-68885599D01*
X100368777Y-68865871D01*
X100368773Y-68865867D01*
X100367393Y-68864796D01*
X100365568Y-68863381D01*
X100356555Y-68855683D01*
X100324321Y-68825414D01*
X100324318Y-68825412D01*
X100323145Y-68824560D01*
X100308116Y-68811724D01*
X100202281Y-68705889D01*
X100202280Y-68705888D01*
X100202278Y-68705886D01*
X100048018Y-68608958D01*
X100048015Y-68608957D01*
X99876050Y-68548784D01*
X99876049Y-68548783D01*
X99876047Y-68548783D01*
X99695000Y-68528384D01*
X99694998Y-68528384D01*
X99658509Y-68532495D01*
X99588577Y-68520245D01*
X99574945Y-68507682D01*
X99568577Y-68518547D01*
X99519940Y-68544470D01*
X99520632Y-68546446D01*
X99341985Y-68608956D01*
X99336588Y-68612348D01*
X99268266Y-68631652D01*
X99200354Y-68610955D01*
X99154411Y-68556827D01*
X99144206Y-68518465D01*
X99143567Y-68512218D01*
X99143567Y-68512214D01*
X99105986Y-68398803D01*
X99103545Y-68327848D01*
X99139853Y-68266838D01*
X99203382Y-68235143D01*
X99265223Y-68239566D01*
X99432714Y-68295067D01*
X99432726Y-68295069D01*
X99495039Y-68301436D01*
X99550443Y-68324042D01*
X99555308Y-68318191D01*
X99568000Y-68305499D01*
X99568000Y-67564000D01*
X98425000Y-67564000D01*
X98425000Y-69042000D01*
X98404998Y-69110121D01*
X98351342Y-69156614D01*
X98299000Y-69168000D01*
X97174113Y-69168000D01*
X97142386Y-69185323D01*
X97087566Y-69185042D01*
X97082051Y-69183783D01*
X96901000Y-69163384D01*
X96719953Y-69183783D01*
X96719950Y-69183783D01*
X96719949Y-69183784D01*
X96547984Y-69243957D01*
X96547981Y-69243958D01*
X96393720Y-69340887D01*
X96393718Y-69340888D01*
X96264888Y-69469718D01*
X96264887Y-69469720D01*
X96167958Y-69623981D01*
X96167957Y-69623984D01*
X96107784Y-69795947D01*
X96107781Y-69795961D01*
X96102768Y-69840452D01*
X96075264Y-69905904D01*
X96066656Y-69915437D01*
X95877336Y-70104757D01*
X95864901Y-70114720D01*
X95865089Y-70114947D01*
X95858982Y-70119999D01*
X95812370Y-70169635D01*
X95809620Y-70172473D01*
X95789863Y-70192231D01*
X95787374Y-70195439D01*
X95779688Y-70204436D01*
X95749418Y-70236673D01*
X95749411Y-70236683D01*
X95739651Y-70254435D01*
X95728803Y-70270950D01*
X95716386Y-70286958D01*
X95698824Y-70327540D01*
X95693604Y-70338195D01*
X95672305Y-70376939D01*
X95672303Y-70376944D01*
X95667267Y-70396559D01*
X95660864Y-70415262D01*
X95652819Y-70433852D01*
X95645901Y-70477525D01*
X95643495Y-70489142D01*
X95632500Y-70531968D01*
X95632500Y-70552223D01*
X95630949Y-70571933D01*
X95627780Y-70591942D01*
X95631941Y-70635961D01*
X95632500Y-70647819D01*
X95632500Y-70995500D01*
X95612498Y-71063621D01*
X95558842Y-71110114D01*
X95506500Y-71121500D01*
X94017385Y-71121500D01*
X93949264Y-71101498D01*
X93902771Y-71047842D01*
X93892178Y-71009611D01*
X93884217Y-70938953D01*
X93824043Y-70766985D01*
X93808680Y-70742536D01*
X93789375Y-70674216D01*
X93808681Y-70608463D01*
X93819062Y-70591942D01*
X93824043Y-70584015D01*
X93884217Y-70412047D01*
X93904616Y-70231000D01*
X93884217Y-70049953D01*
X93824043Y-69877985D01*
X93824041Y-69877982D01*
X93824041Y-69877981D01*
X93727112Y-69723720D01*
X93727111Y-69723718D01*
X93598281Y-69594888D01*
X93598279Y-69594887D01*
X93444018Y-69497958D01*
X93444015Y-69497957D01*
X93272050Y-69437784D01*
X93272049Y-69437783D01*
X93272047Y-69437783D01*
X93091000Y-69417384D01*
X92909953Y-69437783D01*
X92909950Y-69437783D01*
X92909949Y-69437784D01*
X92737984Y-69497957D01*
X92737982Y-69497958D01*
X92610299Y-69578187D01*
X92543263Y-69597500D01*
X88198595Y-69597500D01*
X88130474Y-69577498D01*
X88109499Y-69560595D01*
X87988404Y-69439499D01*
X87954379Y-69377187D01*
X87951500Y-69350404D01*
X87951500Y-68317010D01*
X87971502Y-68248889D01*
X88025158Y-68202396D01*
X88095432Y-68192292D01*
X88119106Y-68198078D01*
X88210953Y-68230217D01*
X88392000Y-68250616D01*
X88573047Y-68230217D01*
X88745015Y-68170043D01*
X88899281Y-68073111D01*
X89028111Y-67944281D01*
X89125043Y-67790015D01*
X89185217Y-67618047D01*
X89191307Y-67564000D01*
X95537000Y-67564000D01*
X95537000Y-67609684D01*
X95547430Y-67711773D01*
X95547431Y-67711776D01*
X95602248Y-67877207D01*
X95693737Y-68025533D01*
X95693742Y-68025539D01*
X95816960Y-68148757D01*
X95816966Y-68148762D01*
X95965292Y-68240251D01*
X96130723Y-68295068D01*
X96130726Y-68295069D01*
X96232815Y-68305499D01*
X96232815Y-68305500D01*
X96266000Y-68305500D01*
X96266000Y-67564000D01*
X96774000Y-67564000D01*
X96774000Y-68305500D01*
X96807185Y-68305500D01*
X96807184Y-68305499D01*
X96909273Y-68295069D01*
X96909285Y-68295067D01*
X97076776Y-68239566D01*
X97147731Y-68237125D01*
X97208741Y-68273433D01*
X97240436Y-68336962D01*
X97236014Y-68398802D01*
X97198431Y-68512219D01*
X97198430Y-68512226D01*
X97188000Y-68614315D01*
X97188000Y-68660000D01*
X97917000Y-68660000D01*
X97917000Y-67564000D01*
X96774000Y-67564000D01*
X96266000Y-67564000D01*
X95537000Y-67564000D01*
X89191307Y-67564000D01*
X89205616Y-67437000D01*
X89185217Y-67255953D01*
X89125043Y-67083985D01*
X89125041Y-67083982D01*
X89125041Y-67083981D01*
X89028112Y-66929720D01*
X89028111Y-66929718D01*
X88899281Y-66800888D01*
X88899279Y-66800887D01*
X88745018Y-66703958D01*
X88745015Y-66703957D01*
X88573050Y-66643784D01*
X88573049Y-66643783D01*
X88573047Y-66643783D01*
X88392000Y-66623384D01*
X88210953Y-66643783D01*
X88119112Y-66675919D01*
X88048210Y-66679537D01*
X87986605Y-66644248D01*
X87953859Y-66581255D01*
X87951500Y-66556989D01*
X87951500Y-63755000D01*
X89074000Y-63755000D01*
X89074000Y-63803597D01*
X89080505Y-63864093D01*
X89131555Y-64000964D01*
X89131555Y-64000965D01*
X89219095Y-64117904D01*
X89336034Y-64205444D01*
X89472906Y-64256494D01*
X89533402Y-64262999D01*
X89533415Y-64263000D01*
X89707000Y-64263000D01*
X89707000Y-63755000D01*
X90157000Y-63755000D01*
X90157000Y-64263000D01*
X90330585Y-64263000D01*
X90330597Y-64262999D01*
X90391093Y-64256494D01*
X90527964Y-64205444D01*
X90527965Y-64205444D01*
X90644904Y-64117904D01*
X90732444Y-64000965D01*
X90732444Y-64000964D01*
X90783494Y-63864093D01*
X90789999Y-63803597D01*
X90790000Y-63803585D01*
X90790000Y-63755000D01*
X90157000Y-63755000D01*
X89707000Y-63755000D01*
X89074000Y-63755000D01*
X87951500Y-63755000D01*
X87951500Y-62608594D01*
X87971502Y-62540473D01*
X88025158Y-62493980D01*
X88095432Y-62483876D01*
X88160012Y-62513370D01*
X88166595Y-62519499D01*
X88265753Y-62618657D01*
X88275720Y-62631097D01*
X88275947Y-62630910D01*
X88280999Y-62637017D01*
X88330666Y-62683657D01*
X88333510Y-62686414D01*
X88353230Y-62706134D01*
X88356416Y-62708605D01*
X88365447Y-62716318D01*
X88397678Y-62746585D01*
X88397682Y-62746588D01*
X88415430Y-62756345D01*
X88431957Y-62767201D01*
X88438619Y-62772369D01*
X88447960Y-62779614D01*
X88488539Y-62797174D01*
X88499187Y-62802391D01*
X88537934Y-62823692D01*
X88537936Y-62823693D01*
X88537940Y-62823695D01*
X88557562Y-62828733D01*
X88576263Y-62835135D01*
X88588814Y-62840567D01*
X88594852Y-62843180D01*
X88594853Y-62843180D01*
X88594855Y-62843181D01*
X88638530Y-62850098D01*
X88650141Y-62852502D01*
X88692970Y-62863500D01*
X88713224Y-62863500D01*
X88732934Y-62865051D01*
X88735141Y-62865400D01*
X88752943Y-62868220D01*
X88796961Y-62864058D01*
X88808819Y-62863500D01*
X89026216Y-62863500D01*
X89094337Y-62883502D01*
X89140830Y-62937158D01*
X89150934Y-63007432D01*
X89133391Y-63049767D01*
X89135875Y-63051124D01*
X89131555Y-63059035D01*
X89080505Y-63195906D01*
X89074000Y-63256402D01*
X89074000Y-63305000D01*
X90790000Y-63305000D01*
X90790000Y-63256414D01*
X90789999Y-63256402D01*
X90783494Y-63195906D01*
X90732444Y-63059035D01*
X90732444Y-63059034D01*
X90655257Y-62955925D01*
X90630446Y-62889405D01*
X90645537Y-62820031D01*
X90655248Y-62804919D01*
X90732889Y-62701204D01*
X90783989Y-62564201D01*
X90785968Y-62545799D01*
X90790499Y-62503649D01*
X90790500Y-62503632D01*
X90790500Y-61956367D01*
X90790499Y-61956350D01*
X90783990Y-61895803D01*
X90783988Y-61895795D01*
X90746375Y-61794953D01*
X90732889Y-61758796D01*
X90732888Y-61758794D01*
X90732887Y-61758792D01*
X90644387Y-61640571D01*
X90619576Y-61574051D01*
X90634667Y-61504677D01*
X90679108Y-61457821D01*
X90764319Y-61405262D01*
X90764325Y-61405257D01*
X90871837Y-61297746D01*
X90934149Y-61263720D01*
X91004964Y-61268785D01*
X91050027Y-61297746D01*
X91157933Y-61405652D01*
X91157939Y-61405657D01*
X91157940Y-61405658D01*
X91238649Y-61455440D01*
X91286125Y-61508224D01*
X91298500Y-61562679D01*
X91298500Y-62168959D01*
X91278498Y-62237080D01*
X91248010Y-62269826D01*
X91218738Y-62291738D01*
X91131112Y-62408792D01*
X91131110Y-62408797D01*
X91080011Y-62545795D01*
X91080009Y-62545803D01*
X91073500Y-62606350D01*
X91073500Y-63153649D01*
X91080009Y-63214196D01*
X91080011Y-63214204D01*
X91131110Y-63351202D01*
X91131112Y-63351207D01*
X91218738Y-63468261D01*
X91294770Y-63525177D01*
X91337317Y-63582012D01*
X91340257Y-63590889D01*
X91345982Y-63610593D01*
X91356294Y-63628031D01*
X91364988Y-63645779D01*
X91372444Y-63664609D01*
X91372450Y-63664620D01*
X91398432Y-63700381D01*
X91404949Y-63710301D01*
X91427458Y-63748362D01*
X91427459Y-63748363D01*
X91427461Y-63748366D01*
X91441779Y-63762684D01*
X91454617Y-63777714D01*
X91466526Y-63794104D01*
X91466530Y-63794109D01*
X91500592Y-63822287D01*
X91509373Y-63830277D01*
X91821757Y-64142662D01*
X91831719Y-64155096D01*
X91831946Y-64154909D01*
X91837000Y-64161018D01*
X91862965Y-64185401D01*
X91886650Y-64207642D01*
X91889494Y-64210399D01*
X91909223Y-64230129D01*
X91909224Y-64230130D01*
X91909228Y-64230133D01*
X91909230Y-64230135D01*
X91912435Y-64232621D01*
X91921442Y-64240314D01*
X91953679Y-64270586D01*
X91971428Y-64280343D01*
X91987953Y-64291198D01*
X92003959Y-64303614D01*
X92044542Y-64321175D01*
X92055193Y-64326393D01*
X92093940Y-64347695D01*
X92093948Y-64347697D01*
X92113558Y-64352732D01*
X92132267Y-64359137D01*
X92150855Y-64367181D01*
X92194530Y-64374098D01*
X92206141Y-64376502D01*
X92248970Y-64387500D01*
X92269224Y-64387500D01*
X92288934Y-64389051D01*
X92291141Y-64389400D01*
X92308943Y-64392220D01*
X92352961Y-64388058D01*
X92364819Y-64387500D01*
X95039147Y-64387500D01*
X95054988Y-64389249D01*
X95055016Y-64388956D01*
X95062902Y-64389700D01*
X95062909Y-64389702D01*
X95130986Y-64387562D01*
X95134945Y-64387500D01*
X95162851Y-64387500D01*
X95162856Y-64387500D01*
X95166867Y-64386992D01*
X95178699Y-64386061D01*
X95222889Y-64384673D01*
X95242347Y-64379019D01*
X95261694Y-64375013D01*
X95281797Y-64372474D01*
X95322910Y-64356195D01*
X95334130Y-64352353D01*
X95358913Y-64345154D01*
X95376591Y-64340019D01*
X95376595Y-64340017D01*
X95394026Y-64329708D01*
X95411780Y-64321009D01*
X95430617Y-64313552D01*
X95466392Y-64287558D01*
X95476298Y-64281051D01*
X95514362Y-64258542D01*
X95528685Y-64244218D01*
X95543724Y-64231374D01*
X95560107Y-64219472D01*
X95588303Y-64185386D01*
X95596272Y-64176630D01*
X95892657Y-63880245D01*
X95905092Y-63870284D01*
X95904905Y-63870057D01*
X95911016Y-63865001D01*
X95911015Y-63865001D01*
X95911018Y-63865000D01*
X95957676Y-63815312D01*
X95960367Y-63812535D01*
X95980134Y-63792770D01*
X95982617Y-63789567D01*
X95990308Y-63780562D01*
X96020586Y-63748321D01*
X96030345Y-63730567D01*
X96041197Y-63714046D01*
X96053613Y-63698041D01*
X96071168Y-63657470D01*
X96076392Y-63646808D01*
X96076958Y-63645779D01*
X96097695Y-63608060D01*
X96102733Y-63588435D01*
X96109138Y-63569730D01*
X96112297Y-63562430D01*
X96117181Y-63551145D01*
X96124096Y-63507476D01*
X96126503Y-63495856D01*
X96137498Y-63453036D01*
X96137500Y-63453028D01*
X96137500Y-63432769D01*
X96139051Y-63413058D01*
X96140809Y-63401957D01*
X96142219Y-63393057D01*
X96138059Y-63349045D01*
X96137500Y-63337188D01*
X96137500Y-62989500D01*
X96157502Y-62921379D01*
X96211158Y-62874886D01*
X96263500Y-62863500D01*
X96480263Y-62863500D01*
X96547299Y-62882813D01*
X96633789Y-62937158D01*
X96674985Y-62963043D01*
X96846953Y-63023217D01*
X97028000Y-63043616D01*
X97209047Y-63023217D01*
X97381015Y-62963043D01*
X97535281Y-62866111D01*
X97664111Y-62737281D01*
X97761043Y-62583015D01*
X97821217Y-62411047D01*
X97841616Y-62230000D01*
X97821217Y-62048953D01*
X97761043Y-61876985D01*
X97761041Y-61876982D01*
X97761041Y-61876981D01*
X97664112Y-61722720D01*
X97664111Y-61722718D01*
X97535281Y-61593888D01*
X97535279Y-61593887D01*
X97381018Y-61496958D01*
X97381015Y-61496957D01*
X97209050Y-61436784D01*
X97209049Y-61436783D01*
X97209047Y-61436783D01*
X97028000Y-61416384D01*
X96846953Y-61436783D01*
X96846950Y-61436783D01*
X96846949Y-61436784D01*
X96674984Y-61496957D01*
X96674982Y-61496958D01*
X96547299Y-61577187D01*
X96480263Y-61596500D01*
X95968849Y-61596500D01*
X95953010Y-61594751D01*
X95952983Y-61595045D01*
X95945091Y-61594299D01*
X95877033Y-61596438D01*
X95873075Y-61596500D01*
X95845144Y-61596500D01*
X95842957Y-61596776D01*
X95841111Y-61597009D01*
X95829304Y-61597937D01*
X95785110Y-61599326D01*
X95785105Y-61599327D01*
X95765660Y-61604977D01*
X95746302Y-61608986D01*
X95726207Y-61611524D01*
X95726205Y-61611525D01*
X95685083Y-61627805D01*
X95673859Y-61631647D01*
X95631410Y-61643980D01*
X95631404Y-61643982D01*
X95613966Y-61654295D01*
X95596220Y-61662989D01*
X95577381Y-61670448D01*
X95541614Y-61696434D01*
X95531698Y-61702948D01*
X95493636Y-61725458D01*
X95479307Y-61739787D01*
X95464281Y-61752620D01*
X95447895Y-61764526D01*
X95447887Y-61764533D01*
X95443551Y-61769774D01*
X95384714Y-61809507D01*
X95313736Y-61811123D01*
X95253152Y-61774108D01*
X95227545Y-61731066D01*
X95221043Y-61712482D01*
X95221041Y-61712479D01*
X95221041Y-61712478D01*
X95124112Y-61558217D01*
X95124111Y-61558215D01*
X94995281Y-61429385D01*
X94995279Y-61429384D01*
X94841018Y-61332455D01*
X94841015Y-61332454D01*
X94669050Y-61272281D01*
X94669049Y-61272280D01*
X94669047Y-61272280D01*
X94488000Y-61251881D01*
X94487999Y-61251881D01*
X94441607Y-61257108D01*
X94371675Y-61244858D01*
X94319467Y-61196745D01*
X94301500Y-61131900D01*
X94301500Y-58398342D01*
X94321502Y-58330221D01*
X94338405Y-58309247D01*
X94729452Y-57918200D01*
X94791764Y-57884174D01*
X94862579Y-57889239D01*
G37*
G04 #@! TD.AperFunction*
G04 #@! TA.AperFunction,Conductor*
G36*
X103966012Y-66247859D02*
G01*
X103972595Y-66253988D01*
X104013718Y-66295111D01*
X104013720Y-66295112D01*
X104167981Y-66392041D01*
X104167982Y-66392041D01*
X104167985Y-66392043D01*
X104339953Y-66452217D01*
X104521000Y-66472616D01*
X104702047Y-66452217D01*
X104789708Y-66421542D01*
X104860611Y-66417923D01*
X104922216Y-66453212D01*
X104953466Y-66509541D01*
X105009702Y-66731612D01*
X105009703Y-66731613D01*
X105009704Y-66731616D01*
X105095305Y-66926768D01*
X105100141Y-66937793D01*
X105133978Y-66989585D01*
X105154491Y-67057554D01*
X105135001Y-67125823D01*
X105081696Y-67172717D01*
X105028495Y-67184500D01*
X104454595Y-67184500D01*
X104386474Y-67164498D01*
X104365499Y-67147595D01*
X103794404Y-66576499D01*
X103760379Y-66514187D01*
X103757500Y-66487404D01*
X103757500Y-66343083D01*
X103777502Y-66274962D01*
X103831158Y-66228469D01*
X103901432Y-66218365D01*
X103966012Y-66247859D01*
G37*
G04 #@! TD.AperFunction*
G04 #@! TA.AperFunction,Conductor*
G36*
X99719012Y-52430715D02*
G01*
X99737368Y-52450430D01*
X99744139Y-52459475D01*
X99742542Y-52460669D01*
X99771031Y-52512840D01*
X99773118Y-52553727D01*
X99773011Y-52554680D01*
X99770384Y-52578000D01*
X99790783Y-52759047D01*
X99790783Y-52759049D01*
X99790784Y-52759050D01*
X99850957Y-52931015D01*
X99850958Y-52931018D01*
X99947887Y-53085279D01*
X99947888Y-53085281D01*
X100076718Y-53214111D01*
X100076720Y-53214112D01*
X100230981Y-53311041D01*
X100230982Y-53311041D01*
X100230985Y-53311043D01*
X100402953Y-53371217D01*
X100584000Y-53391616D01*
X100765047Y-53371217D01*
X100937015Y-53311043D01*
X101091281Y-53214111D01*
X101095854Y-53209537D01*
X101158162Y-53175511D01*
X101228978Y-53180572D01*
X101285816Y-53223116D01*
X101304555Y-53258995D01*
X101316791Y-53295920D01*
X101382408Y-53402301D01*
X101408342Y-53444346D01*
X101408347Y-53444352D01*
X101531647Y-53567652D01*
X101531653Y-53567657D01*
X101531654Y-53567658D01*
X101541645Y-53573821D01*
X101589124Y-53626605D01*
X101601500Y-53681062D01*
X101601500Y-54803405D01*
X101581498Y-54871526D01*
X101564595Y-54892500D01*
X101501500Y-54955595D01*
X101439188Y-54989621D01*
X101412405Y-54992500D01*
X96263500Y-54992500D01*
X96195379Y-54972498D01*
X96148886Y-54918842D01*
X96137500Y-54866500D01*
X96137500Y-54180500D01*
X96157502Y-54112379D01*
X96211158Y-54065886D01*
X96263500Y-54054500D01*
X96941632Y-54054500D01*
X96941638Y-54054500D01*
X96941645Y-54054499D01*
X96941649Y-54054499D01*
X97002196Y-54047990D01*
X97002199Y-54047989D01*
X97002201Y-54047989D01*
X97139204Y-53996889D01*
X97256261Y-53909261D01*
X97341429Y-53795491D01*
X97398265Y-53752944D01*
X97442297Y-53745000D01*
X98120077Y-53745000D01*
X98127684Y-53745230D01*
X98187515Y-53748849D01*
X98246488Y-53738040D01*
X98253982Y-53736900D01*
X98313510Y-53729673D01*
X98322765Y-53726162D01*
X98344741Y-53720036D01*
X98354483Y-53718251D01*
X98409157Y-53693643D01*
X98416151Y-53690746D01*
X98472227Y-53669480D01*
X98480382Y-53663849D01*
X98500252Y-53652644D01*
X98509275Y-53648584D01*
X98556486Y-53611596D01*
X98562568Y-53607120D01*
X98604481Y-53578190D01*
X98616636Y-53569802D01*
X98684061Y-53547568D01*
X98688209Y-53547500D01*
X99050632Y-53547500D01*
X99050638Y-53547500D01*
X99050645Y-53547499D01*
X99050649Y-53547499D01*
X99111196Y-53540990D01*
X99111199Y-53540989D01*
X99111201Y-53540989D01*
X99248204Y-53489889D01*
X99255302Y-53484576D01*
X99365261Y-53402261D01*
X99452887Y-53285207D01*
X99452887Y-53285206D01*
X99452889Y-53285204D01*
X99503989Y-53148201D01*
X99505906Y-53130377D01*
X99510499Y-53087649D01*
X99510500Y-53087632D01*
X99510500Y-52525939D01*
X99530502Y-52457818D01*
X99584158Y-52411325D01*
X99654432Y-52401221D01*
X99719012Y-52430715D01*
G37*
G04 #@! TD.AperFunction*
G04 #@! TA.AperFunction,Conductor*
G36*
X93306558Y-52874007D02*
G01*
X93308430Y-52871595D01*
X93314696Y-52876455D01*
X93457894Y-52961143D01*
X93457897Y-52961143D01*
X93457899Y-52961145D01*
X93617669Y-53007562D01*
X93654988Y-53010499D01*
X93654989Y-53010500D01*
X94744500Y-53010500D01*
X94812621Y-53030502D01*
X94859114Y-53084158D01*
X94870500Y-53136500D01*
X94870500Y-53167500D01*
X94850498Y-53235621D01*
X94796842Y-53282114D01*
X94744500Y-53293500D01*
X93654989Y-53293500D01*
X93617671Y-53296437D01*
X93617670Y-53296437D01*
X93457894Y-53342856D01*
X93314696Y-53427544D01*
X93308430Y-53432405D01*
X93306557Y-53429991D01*
X93256749Y-53457162D01*
X93185936Y-53452067D01*
X93129257Y-53409682D01*
X93126493Y-53406000D01*
X92876342Y-53406000D01*
X92812203Y-53388453D01*
X92735101Y-53342855D01*
X92649146Y-53317883D01*
X92575329Y-53296437D01*
X92538011Y-53293500D01*
X92538002Y-53293500D01*
X91831000Y-53293500D01*
X91762879Y-53273498D01*
X91716386Y-53219842D01*
X91705000Y-53167500D01*
X91705000Y-53136500D01*
X91725002Y-53068379D01*
X91778658Y-53021886D01*
X91831000Y-53010500D01*
X92538011Y-53010500D01*
X92538011Y-53010499D01*
X92575331Y-53007562D01*
X92735101Y-52961145D01*
X92812203Y-52915546D01*
X92876342Y-52898000D01*
X93126492Y-52898000D01*
X93129256Y-52894318D01*
X93186152Y-52851851D01*
X93256975Y-52846886D01*
X93306558Y-52874007D01*
G37*
G04 #@! TD.AperFunction*
G04 #@! TA.AperFunction,Conductor*
G36*
X97540541Y-51176821D02*
G01*
X97590744Y-51227024D01*
X97598211Y-51243376D01*
X97651110Y-51385203D01*
X97651112Y-51385207D01*
X97738738Y-51502261D01*
X97853448Y-51588132D01*
X97895995Y-51644968D01*
X97901059Y-51715784D01*
X97867034Y-51778096D01*
X97853448Y-51789868D01*
X97738738Y-51875738D01*
X97651112Y-51992792D01*
X97651110Y-51992797D01*
X97600011Y-52129795D01*
X97600009Y-52129803D01*
X97593500Y-52190350D01*
X97593500Y-52221000D01*
X97573498Y-52289121D01*
X97519842Y-52335614D01*
X97467500Y-52347000D01*
X97442297Y-52347000D01*
X97374176Y-52326998D01*
X97341429Y-52296509D01*
X97256261Y-52182738D01*
X97139207Y-52095112D01*
X97139202Y-52095110D01*
X97002204Y-52044011D01*
X97002196Y-52044009D01*
X96941649Y-52037500D01*
X96941638Y-52037500D01*
X96863594Y-52037500D01*
X96795473Y-52017498D01*
X96748980Y-51963842D01*
X96738876Y-51893568D01*
X96768370Y-51828988D01*
X96774492Y-51822411D01*
X96781653Y-51815249D01*
X96794097Y-51805283D01*
X96793908Y-51805054D01*
X96800012Y-51800003D01*
X96800018Y-51800000D01*
X96846662Y-51750327D01*
X96849352Y-51747551D01*
X96869135Y-51727770D01*
X96871614Y-51724573D01*
X96879311Y-51715559D01*
X96909586Y-51683321D01*
X96919346Y-51665565D01*
X96930195Y-51649050D01*
X96942614Y-51633041D01*
X96953716Y-51607384D01*
X96999124Y-51552808D01*
X97025313Y-51539368D01*
X97139204Y-51496889D01*
X97256261Y-51409261D01*
X97343889Y-51292204D01*
X97362102Y-51243373D01*
X97404647Y-51186541D01*
X97471167Y-51161730D01*
X97540541Y-51176821D01*
G37*
G04 #@! TD.AperFunction*
G04 #@! TA.AperFunction,Conductor*
G36*
X91122635Y-49613505D02*
G01*
X91182899Y-49649145D01*
X91342669Y-49695562D01*
X91379988Y-49698499D01*
X91379989Y-49698500D01*
X91610587Y-49698500D01*
X91678708Y-49718502D01*
X91725201Y-49772158D01*
X91735305Y-49842432D01*
X91717828Y-49890647D01*
X91655748Y-49991292D01*
X91600931Y-50156723D01*
X91600930Y-50156726D01*
X91590500Y-50258815D01*
X91590500Y-50292000D01*
X92764000Y-50292000D01*
X92832121Y-50312002D01*
X92878614Y-50365658D01*
X92890000Y-50418000D01*
X92890000Y-50674000D01*
X92869998Y-50742121D01*
X92816342Y-50788614D01*
X92764000Y-50800000D01*
X91590500Y-50800000D01*
X91590500Y-50833184D01*
X91600930Y-50935273D01*
X91600931Y-50935276D01*
X91655748Y-51100707D01*
X91717828Y-51201353D01*
X91736565Y-51269832D01*
X91715306Y-51337571D01*
X91660799Y-51383063D01*
X91610587Y-51393500D01*
X91379989Y-51393500D01*
X91342671Y-51396437D01*
X91342670Y-51396437D01*
X91182895Y-51442856D01*
X91122638Y-51478492D01*
X91053822Y-51495951D01*
X90986491Y-51473434D01*
X90942022Y-51418089D01*
X90932500Y-51370038D01*
X90932500Y-49721960D01*
X90952502Y-49653839D01*
X91006158Y-49607346D01*
X91076432Y-49597242D01*
X91122635Y-49613505D01*
G37*
G04 #@! TD.AperFunction*
G04 #@! TA.AperFunction,Conductor*
G36*
X95293958Y-47648567D02*
G01*
X95324575Y-47671080D01*
X95419900Y-47766405D01*
X95453926Y-47828717D01*
X95448861Y-47899532D01*
X95419901Y-47944595D01*
X95332399Y-48032096D01*
X95270090Y-48066120D01*
X95243306Y-48069000D01*
X94380923Y-48069000D01*
X94373316Y-48068770D01*
X94313482Y-48065150D01*
X94254520Y-48075956D01*
X94246998Y-48077101D01*
X94230821Y-48079065D01*
X94218339Y-48080581D01*
X94203152Y-48081500D01*
X93654989Y-48081500D01*
X93617671Y-48084437D01*
X93617670Y-48084437D01*
X93457894Y-48130856D01*
X93314696Y-48215544D01*
X93308430Y-48220405D01*
X93306557Y-48217991D01*
X93256749Y-48245162D01*
X93185936Y-48240067D01*
X93129257Y-48197682D01*
X93126493Y-48194000D01*
X92876342Y-48194000D01*
X92812203Y-48176453D01*
X92735101Y-48130855D01*
X92638032Y-48102654D01*
X92575329Y-48084437D01*
X92538011Y-48081500D01*
X92538002Y-48081500D01*
X91831000Y-48081500D01*
X91762879Y-48061498D01*
X91716386Y-48007842D01*
X91705000Y-47955500D01*
X91705000Y-47924500D01*
X91725002Y-47856379D01*
X91778658Y-47809886D01*
X91831000Y-47798500D01*
X92538011Y-47798500D01*
X92538011Y-47798499D01*
X92575331Y-47795562D01*
X92735101Y-47749145D01*
X92812203Y-47703546D01*
X92876342Y-47686000D01*
X93126492Y-47686000D01*
X93129256Y-47682318D01*
X93186152Y-47639851D01*
X93256975Y-47634886D01*
X93306558Y-47662007D01*
X93308430Y-47659595D01*
X93314696Y-47664455D01*
X93457894Y-47749143D01*
X93457897Y-47749143D01*
X93457899Y-47749145D01*
X93617669Y-47795562D01*
X93654988Y-47798499D01*
X93654989Y-47798500D01*
X93654998Y-47798500D01*
X94813011Y-47798500D01*
X94813011Y-47798499D01*
X94850331Y-47795562D01*
X95010101Y-47749145D01*
X95010103Y-47749143D01*
X95010105Y-47749143D01*
X95153300Y-47664457D01*
X95153299Y-47664457D01*
X95153307Y-47664453D01*
X95153313Y-47664446D01*
X95158250Y-47660618D01*
X95224335Y-47634669D01*
X95293958Y-47648567D01*
G37*
G04 #@! TD.AperFunction*
G04 #@! TA.AperFunction,Conductor*
G36*
X122123621Y-41803002D02*
G01*
X122170114Y-41856658D01*
X122181500Y-41909000D01*
X122181500Y-86368500D01*
X122161498Y-86436621D01*
X122107842Y-86483114D01*
X122055500Y-86494500D01*
X82033500Y-86494500D01*
X81965379Y-86474498D01*
X81918886Y-86420842D01*
X81907500Y-86368500D01*
X81907500Y-76327000D01*
X82202844Y-76327000D01*
X82213427Y-76454719D01*
X82221437Y-76551375D01*
X82276702Y-76769612D01*
X82276703Y-76769613D01*
X82276704Y-76769616D01*
X82358048Y-76955063D01*
X82367141Y-76975793D01*
X82490275Y-77164265D01*
X82490279Y-77164270D01*
X82575794Y-77257162D01*
X82629054Y-77315018D01*
X82642762Y-77329908D01*
X82661510Y-77344500D01*
X82820424Y-77468189D01*
X82854205Y-77486470D01*
X82904596Y-77536482D01*
X82919949Y-77605799D01*
X82895389Y-77672412D01*
X82854209Y-77708096D01*
X82820704Y-77726228D01*
X82820698Y-77726232D01*
X82643097Y-77864465D01*
X82490674Y-78030041D01*
X82367580Y-78218451D01*
X82277179Y-78424543D01*
X82277176Y-78424550D01*
X82229455Y-78612999D01*
X82229456Y-78613000D01*
X83134884Y-78613000D01*
X83106507Y-78657156D01*
X83066000Y-78795111D01*
X83066000Y-78938889D01*
X83106507Y-79076844D01*
X83134884Y-79121000D01*
X82229455Y-79121000D01*
X82277176Y-79309449D01*
X82277179Y-79309456D01*
X82367580Y-79515548D01*
X82490674Y-79703958D01*
X82643097Y-79869534D01*
X82820698Y-80007767D01*
X82820699Y-80007768D01*
X83018628Y-80114882D01*
X83018630Y-80114883D01*
X83231483Y-80187955D01*
X83231492Y-80187957D01*
X83312000Y-80201391D01*
X83312000Y-79300674D01*
X83423685Y-79351680D01*
X83530237Y-79367000D01*
X83601763Y-79367000D01*
X83708315Y-79351680D01*
X83820000Y-79300674D01*
X83820000Y-80201390D01*
X83900507Y-80187957D01*
X83900516Y-80187955D01*
X84113369Y-80114883D01*
X84113371Y-80114882D01*
X84311300Y-80007768D01*
X84311301Y-80007767D01*
X84488902Y-79869534D01*
X84641325Y-79703958D01*
X84764419Y-79515548D01*
X84854820Y-79309456D01*
X84854823Y-79309449D01*
X84902544Y-79121000D01*
X83997116Y-79121000D01*
X84025493Y-79076844D01*
X84066000Y-78938889D01*
X84066000Y-78795111D01*
X84025493Y-78657156D01*
X83997116Y-78613000D01*
X84902544Y-78613000D01*
X84902544Y-78612999D01*
X84854823Y-78424550D01*
X84854820Y-78424543D01*
X84764419Y-78218451D01*
X84641325Y-78030041D01*
X84488902Y-77864465D01*
X84311301Y-77726232D01*
X84311300Y-77726231D01*
X84277791Y-77708097D01*
X84227401Y-77658083D01*
X84212050Y-77588766D01*
X84236612Y-77522153D01*
X84277790Y-77486472D01*
X84311576Y-77468189D01*
X84489240Y-77329906D01*
X84556207Y-77257161D01*
X84617060Y-77220591D01*
X84648907Y-77216500D01*
X86407075Y-77216500D01*
X86426785Y-77218050D01*
X86440190Y-77220174D01*
X86506999Y-77216672D01*
X86513593Y-77216500D01*
X86533612Y-77216500D01*
X86533620Y-77216500D01*
X86553578Y-77214401D01*
X86560041Y-77213892D01*
X86626915Y-77210389D01*
X86640020Y-77206876D01*
X86659471Y-77203272D01*
X86672956Y-77201855D01*
X86672958Y-77201854D01*
X86672960Y-77201854D01*
X86736573Y-77181184D01*
X86742902Y-77179309D01*
X86769833Y-77172093D01*
X86807524Y-77161994D01*
X86819613Y-77155833D01*
X86837877Y-77148268D01*
X86850785Y-77144075D01*
X86850788Y-77144073D01*
X86850789Y-77144073D01*
X86868486Y-77133855D01*
X86908729Y-77110619D01*
X86914489Y-77107491D01*
X86974125Y-77077107D01*
X86984671Y-77068565D01*
X87000959Y-77057371D01*
X87012715Y-77050585D01*
X87012718Y-77050581D01*
X87012720Y-77050581D01*
X87062427Y-77005824D01*
X87067434Y-77001545D01*
X87083006Y-76988937D01*
X87097178Y-76974763D01*
X87101949Y-76970237D01*
X87107211Y-76965499D01*
X87151669Y-76925470D01*
X87159646Y-76914488D01*
X87172491Y-76899450D01*
X87176050Y-76895891D01*
X87238367Y-76861876D01*
X87265133Y-76859000D01*
X87734536Y-76859000D01*
X87800682Y-76877759D01*
X87837073Y-76900205D01*
X87837074Y-76900205D01*
X87837080Y-76900209D01*
X88002619Y-76955062D01*
X88002621Y-76955062D01*
X88002624Y-76955063D01*
X88009346Y-76956502D01*
X88009042Y-76957919D01*
X88067580Y-76981804D01*
X88108379Y-77039907D01*
X88111288Y-77110844D01*
X88075385Y-77172093D01*
X88056075Y-77187017D01*
X88011720Y-77214887D01*
X88011718Y-77214888D01*
X87882888Y-77343718D01*
X87882887Y-77343720D01*
X87785958Y-77497981D01*
X87785957Y-77497984D01*
X87728246Y-77662915D01*
X87725783Y-77669953D01*
X87705384Y-77851000D01*
X87725783Y-78032047D01*
X87725783Y-78032049D01*
X87725784Y-78032050D01*
X87785957Y-78204015D01*
X87785958Y-78204018D01*
X87882887Y-78358279D01*
X87882888Y-78358281D01*
X88011718Y-78487111D01*
X88011720Y-78487112D01*
X88165981Y-78584041D01*
X88165982Y-78584041D01*
X88165985Y-78584043D01*
X88337953Y-78644217D01*
X88519000Y-78664616D01*
X88700047Y-78644217D01*
X88872015Y-78584043D01*
X89026281Y-78487111D01*
X89155111Y-78358281D01*
X89252043Y-78204015D01*
X89312217Y-78032047D01*
X89332616Y-77851000D01*
X89312217Y-77669953D01*
X89252043Y-77497985D01*
X89252041Y-77497982D01*
X89252041Y-77497981D01*
X89155112Y-77343720D01*
X89155111Y-77343718D01*
X89026281Y-77214888D01*
X89026279Y-77214887D01*
X88897318Y-77133855D01*
X88850280Y-77080677D01*
X88839460Y-77010509D01*
X88868293Y-76945631D01*
X88924722Y-76907564D01*
X88946920Y-76900209D01*
X89095346Y-76808658D01*
X89218658Y-76685346D01*
X89310209Y-76536920D01*
X89365062Y-76371381D01*
X89375500Y-76269213D01*
X89375499Y-75669788D01*
X89365062Y-75567619D01*
X89310209Y-75402080D01*
X89218658Y-75253654D01*
X89218657Y-75253653D01*
X89218652Y-75253647D01*
X89111100Y-75146095D01*
X89077074Y-75083783D01*
X89082139Y-75012968D01*
X89111100Y-74967905D01*
X89218652Y-74860352D01*
X89218658Y-74860346D01*
X89310209Y-74711920D01*
X89365062Y-74546381D01*
X89375500Y-74444213D01*
X89375499Y-73844788D01*
X89369442Y-73785500D01*
X89365062Y-73742619D01*
X89354767Y-73711551D01*
X89310209Y-73577080D01*
X89218658Y-73428654D01*
X89218657Y-73428653D01*
X89218652Y-73428647D01*
X89095352Y-73305347D01*
X89095346Y-73305342D01*
X89050838Y-73277889D01*
X88946920Y-73213791D01*
X88781381Y-73158938D01*
X88781379Y-73158937D01*
X88781377Y-73158937D01*
X88679221Y-73148500D01*
X88104787Y-73148500D01*
X88002619Y-73158937D01*
X87880181Y-73199509D01*
X87837080Y-73213791D01*
X87837078Y-73213791D01*
X87837078Y-73213792D01*
X87837073Y-73213794D01*
X87800682Y-73236241D01*
X87734536Y-73255000D01*
X87265133Y-73255000D01*
X87197012Y-73234998D01*
X87176038Y-73218095D01*
X87172488Y-73214545D01*
X87159646Y-73199509D01*
X87151669Y-73188530D01*
X87101938Y-73143751D01*
X87097154Y-73139210D01*
X87083013Y-73125069D01*
X87083007Y-73125064D01*
X87067449Y-73112465D01*
X87062434Y-73108182D01*
X87055842Y-73102247D01*
X87012715Y-73063415D01*
X87000961Y-73056629D01*
X86984667Y-73045430D01*
X86974123Y-73036891D01*
X86914520Y-73006523D01*
X86908739Y-73003385D01*
X86850785Y-72969925D01*
X86837872Y-72965729D01*
X86819613Y-72958165D01*
X86807524Y-72952006D01*
X86807521Y-72952005D01*
X86742906Y-72934691D01*
X86736582Y-72932818D01*
X86672957Y-72912144D01*
X86659463Y-72910726D01*
X86640033Y-72907125D01*
X86626919Y-72903611D01*
X86626908Y-72903610D01*
X86560112Y-72900110D01*
X86553534Y-72899593D01*
X86533623Y-72897500D01*
X86533620Y-72897500D01*
X86513593Y-72897500D01*
X86506999Y-72897327D01*
X86504793Y-72897211D01*
X86440191Y-72893825D01*
X86426786Y-72895949D01*
X86407075Y-72897500D01*
X85031469Y-72897500D01*
X84963348Y-72877498D01*
X84916855Y-72823842D01*
X84913422Y-72815556D01*
X84866889Y-72690796D01*
X84866886Y-72690792D01*
X84866886Y-72690791D01*
X84779261Y-72573738D01*
X84662207Y-72486112D01*
X84662202Y-72486110D01*
X84525204Y-72435011D01*
X84525196Y-72435009D01*
X84464649Y-72428500D01*
X84464638Y-72428500D01*
X82667362Y-72428500D01*
X82667350Y-72428500D01*
X82606803Y-72435009D01*
X82606795Y-72435011D01*
X82469797Y-72486110D01*
X82469792Y-72486112D01*
X82352738Y-72573738D01*
X82265112Y-72690792D01*
X82265110Y-72690797D01*
X82214011Y-72827795D01*
X82214009Y-72827803D01*
X82207500Y-72888350D01*
X82207500Y-74685649D01*
X82214009Y-74746196D01*
X82214011Y-74746204D01*
X82265110Y-74883202D01*
X82265112Y-74883207D01*
X82352738Y-75000261D01*
X82469791Y-75087886D01*
X82469792Y-75087886D01*
X82469796Y-75087889D01*
X82584810Y-75130787D01*
X82641642Y-75173332D01*
X82666453Y-75239852D01*
X82651362Y-75309226D01*
X82633475Y-75334179D01*
X82490280Y-75489729D01*
X82490275Y-75489734D01*
X82367141Y-75678206D01*
X82276703Y-75884386D01*
X82276702Y-75884387D01*
X82221437Y-76102624D01*
X82221436Y-76102630D01*
X82221436Y-76102632D01*
X82202844Y-76327000D01*
X81907500Y-76327000D01*
X81907500Y-63246000D01*
X82202844Y-63246000D01*
X82221261Y-63468261D01*
X82221437Y-63470375D01*
X82276702Y-63688612D01*
X82276703Y-63688613D01*
X82276704Y-63688616D01*
X82309193Y-63762684D01*
X82367141Y-63894793D01*
X82490275Y-64083265D01*
X82490279Y-64083270D01*
X82642762Y-64248908D01*
X82670614Y-64270586D01*
X82820424Y-64387189D01*
X82854205Y-64405470D01*
X82904596Y-64455482D01*
X82919949Y-64524799D01*
X82895389Y-64591412D01*
X82854209Y-64627096D01*
X82820704Y-64645228D01*
X82820698Y-64645232D01*
X82643097Y-64783465D01*
X82490674Y-64949041D01*
X82367580Y-65137451D01*
X82277179Y-65343543D01*
X82277176Y-65343550D01*
X82229455Y-65531999D01*
X82229456Y-65532000D01*
X83134884Y-65532000D01*
X83106507Y-65576156D01*
X83066000Y-65714111D01*
X83066000Y-65857889D01*
X83106507Y-65995844D01*
X83134884Y-66040000D01*
X82229455Y-66040000D01*
X82277176Y-66228449D01*
X82277179Y-66228456D01*
X82367580Y-66434548D01*
X82490674Y-66622958D01*
X82643097Y-66788534D01*
X82820698Y-66926767D01*
X82820699Y-66926768D01*
X83018628Y-67033882D01*
X83018630Y-67033883D01*
X83231483Y-67106955D01*
X83231492Y-67106957D01*
X83312000Y-67120391D01*
X83312000Y-66219674D01*
X83423685Y-66270680D01*
X83530237Y-66286000D01*
X83601763Y-66286000D01*
X83708315Y-66270680D01*
X83820000Y-66219674D01*
X83820000Y-67120390D01*
X83900507Y-67106957D01*
X83900516Y-67106955D01*
X84113369Y-67033883D01*
X84113371Y-67033882D01*
X84311300Y-66926768D01*
X84311301Y-66926767D01*
X84488902Y-66788534D01*
X84641325Y-66622958D01*
X84764419Y-66434548D01*
X84854820Y-66228456D01*
X84854823Y-66228449D01*
X84902544Y-66040000D01*
X83997116Y-66040000D01*
X84025493Y-65995844D01*
X84066000Y-65857889D01*
X84066000Y-65714111D01*
X84025493Y-65576156D01*
X83997116Y-65532000D01*
X84902544Y-65532000D01*
X84902544Y-65531999D01*
X84854823Y-65343550D01*
X84854820Y-65343543D01*
X84764419Y-65137451D01*
X84641325Y-64949041D01*
X84488902Y-64783465D01*
X84311301Y-64645232D01*
X84311300Y-64645231D01*
X84277791Y-64627097D01*
X84227401Y-64577083D01*
X84212050Y-64507766D01*
X84236612Y-64441153D01*
X84277790Y-64405472D01*
X84311576Y-64387189D01*
X84489240Y-64248906D01*
X84641722Y-64083268D01*
X84643989Y-64079798D01*
X84737555Y-63936585D01*
X84791558Y-63890496D01*
X84843038Y-63879500D01*
X86108500Y-63879500D01*
X86176621Y-63899502D01*
X86223114Y-63953158D01*
X86234500Y-64005500D01*
X86234500Y-69767542D01*
X86232751Y-69783384D01*
X86233044Y-69783412D01*
X86232298Y-69791303D01*
X86234438Y-69859380D01*
X86234500Y-69863339D01*
X86234500Y-69891247D01*
X86234501Y-69891265D01*
X86235007Y-69895273D01*
X86235937Y-69907092D01*
X86237326Y-69951284D01*
X86237327Y-69951289D01*
X86242977Y-69970735D01*
X86246986Y-69990093D01*
X86249525Y-70010189D01*
X86249526Y-70010196D01*
X86265800Y-70051299D01*
X86269644Y-70062525D01*
X86281982Y-70104989D01*
X86292294Y-70122427D01*
X86300988Y-70140175D01*
X86308444Y-70159005D01*
X86308450Y-70159016D01*
X86334432Y-70194777D01*
X86340949Y-70204697D01*
X86363458Y-70242758D01*
X86363459Y-70242759D01*
X86363461Y-70242762D01*
X86377779Y-70257080D01*
X86390617Y-70272110D01*
X86400156Y-70285239D01*
X86401405Y-70286958D01*
X86402526Y-70288500D01*
X86402530Y-70288505D01*
X86436598Y-70316688D01*
X86445378Y-70324678D01*
X87629359Y-71508660D01*
X87639324Y-71521097D01*
X87639551Y-71520910D01*
X87644603Y-71527017D01*
X87694254Y-71573642D01*
X87697098Y-71576399D01*
X87716827Y-71596129D01*
X87716828Y-71596130D01*
X87716832Y-71596133D01*
X87716834Y-71596135D01*
X87720039Y-71598621D01*
X87729046Y-71606314D01*
X87761283Y-71636586D01*
X87779032Y-71646343D01*
X87795557Y-71657198D01*
X87811563Y-71669614D01*
X87852146Y-71687175D01*
X87862797Y-71692393D01*
X87901544Y-71713695D01*
X87901552Y-71713697D01*
X87921162Y-71718732D01*
X87939871Y-71725137D01*
X87958459Y-71733181D01*
X88002134Y-71740098D01*
X88013745Y-71742502D01*
X88056574Y-71753500D01*
X88076828Y-71753500D01*
X88096538Y-71755051D01*
X88098745Y-71755400D01*
X88116547Y-71758220D01*
X88160565Y-71754058D01*
X88172423Y-71753500D01*
X91130404Y-71753500D01*
X91198525Y-71773502D01*
X91245018Y-71827158D01*
X91255122Y-71897432D01*
X91225628Y-71962012D01*
X91219499Y-71968595D01*
X91217866Y-71970227D01*
X91217864Y-71970229D01*
X91215374Y-71973439D01*
X91207688Y-71982436D01*
X91177418Y-72014673D01*
X91177411Y-72014683D01*
X91167651Y-72032435D01*
X91156803Y-72048950D01*
X91144386Y-72064958D01*
X91126824Y-72105540D01*
X91121604Y-72116195D01*
X91100305Y-72154939D01*
X91100303Y-72154944D01*
X91095267Y-72174559D01*
X91088864Y-72193262D01*
X91080819Y-72211852D01*
X91073901Y-72255525D01*
X91071495Y-72267142D01*
X91060500Y-72309968D01*
X91060500Y-72330223D01*
X91058949Y-72349933D01*
X91055780Y-72369943D01*
X91057534Y-72388500D01*
X91059941Y-72413961D01*
X91060500Y-72425819D01*
X91060500Y-76414262D01*
X91041187Y-76481298D01*
X90960958Y-76608981D01*
X90960957Y-76608984D01*
X90960957Y-76608985D01*
X90900783Y-76780953D01*
X90880384Y-76962000D01*
X90900783Y-77143047D01*
X90900783Y-77143049D01*
X90900784Y-77143050D01*
X90960957Y-77315015D01*
X90960958Y-77315018D01*
X91057887Y-77469279D01*
X91057888Y-77469281D01*
X91186718Y-77598111D01*
X91186720Y-77598112D01*
X91340981Y-77695041D01*
X91340982Y-77695041D01*
X91340985Y-77695043D01*
X91512953Y-77755217D01*
X91694000Y-77775616D01*
X91875047Y-77755217D01*
X91972385Y-77721156D01*
X92043289Y-77717537D01*
X92104894Y-77752827D01*
X92137641Y-77815820D01*
X92140000Y-77840086D01*
X92140000Y-81261042D01*
X92138251Y-81276884D01*
X92138544Y-81276912D01*
X92137798Y-81284803D01*
X92137798Y-81284805D01*
X92139778Y-81347795D01*
X92139938Y-81352880D01*
X92140000Y-81356839D01*
X92140000Y-81384747D01*
X92140001Y-81384765D01*
X92140507Y-81388773D01*
X92141437Y-81400592D01*
X92142826Y-81444784D01*
X92142827Y-81444789D01*
X92148477Y-81464235D01*
X92152486Y-81483593D01*
X92155025Y-81503689D01*
X92155026Y-81503696D01*
X92171300Y-81544799D01*
X92175144Y-81556025D01*
X92187482Y-81598489D01*
X92197794Y-81615927D01*
X92206488Y-81633675D01*
X92213944Y-81652505D01*
X92213950Y-81652516D01*
X92239932Y-81688277D01*
X92246449Y-81698197D01*
X92268958Y-81736258D01*
X92268959Y-81736259D01*
X92268961Y-81736262D01*
X92283279Y-81750580D01*
X92296117Y-81765610D01*
X92308026Y-81782000D01*
X92308030Y-81782005D01*
X92342098Y-81810188D01*
X92350878Y-81818178D01*
X92955357Y-82422657D01*
X92965324Y-82435097D01*
X92965551Y-82434910D01*
X92970603Y-82441017D01*
X93020270Y-82487657D01*
X93023114Y-82490414D01*
X93042830Y-82510131D01*
X93046027Y-82512611D01*
X93055048Y-82520316D01*
X93087283Y-82550586D01*
X93087284Y-82550586D01*
X93087286Y-82550588D01*
X93105033Y-82560344D01*
X93121563Y-82571202D01*
X93137563Y-82583613D01*
X93178140Y-82601172D01*
X93188791Y-82606390D01*
X93227544Y-82627695D01*
X93247166Y-82632733D01*
X93265867Y-82639135D01*
X93278418Y-82644567D01*
X93284456Y-82647180D01*
X93284457Y-82647180D01*
X93284459Y-82647181D01*
X93328134Y-82654098D01*
X93339745Y-82656502D01*
X93382574Y-82667500D01*
X93402828Y-82667500D01*
X93422538Y-82669051D01*
X93424745Y-82669400D01*
X93442547Y-82672220D01*
X93486565Y-82668058D01*
X93498423Y-82667500D01*
X93645970Y-82667500D01*
X98603147Y-82667500D01*
X98618988Y-82669249D01*
X98619016Y-82668956D01*
X98626902Y-82669700D01*
X98626909Y-82669702D01*
X98694986Y-82667562D01*
X98698945Y-82667500D01*
X98726851Y-82667500D01*
X98726856Y-82667500D01*
X98730867Y-82666992D01*
X98742699Y-82666061D01*
X98786889Y-82664673D01*
X98806347Y-82659019D01*
X98825694Y-82655013D01*
X98845797Y-82652474D01*
X98886910Y-82636195D01*
X98898130Y-82632353D01*
X98922913Y-82625154D01*
X98940591Y-82620019D01*
X98940595Y-82620017D01*
X98958026Y-82609708D01*
X98975780Y-82601009D01*
X98994617Y-82593552D01*
X99030392Y-82567558D01*
X99040298Y-82561051D01*
X99078362Y-82538542D01*
X99092685Y-82524218D01*
X99107722Y-82511376D01*
X99115441Y-82505768D01*
X99182309Y-82481910D01*
X99251460Y-82497992D01*
X99300939Y-82548907D01*
X99315500Y-82607705D01*
X99315500Y-83559078D01*
X99295498Y-83627199D01*
X99249471Y-83669891D01*
X99203426Y-83694810D01*
X99203424Y-83694811D01*
X99025762Y-83833091D01*
X98873279Y-83998729D01*
X98784483Y-84134643D01*
X98730479Y-84180731D01*
X98660131Y-84190306D01*
X98595774Y-84160329D01*
X98573517Y-84134643D01*
X98484720Y-83998729D01*
X98355221Y-83858058D01*
X98332240Y-83833094D01*
X98332239Y-83833093D01*
X98332237Y-83833091D01*
X98212372Y-83739796D01*
X98154576Y-83694811D01*
X97956574Y-83587658D01*
X97956572Y-83587657D01*
X97956571Y-83587656D01*
X97743639Y-83514557D01*
X97743630Y-83514555D01*
X97666029Y-83501606D01*
X97521569Y-83477500D01*
X97296431Y-83477500D01*
X97151971Y-83501606D01*
X97074369Y-83514555D01*
X97074360Y-83514557D01*
X96861428Y-83587656D01*
X96861426Y-83587658D01*
X96663426Y-83694810D01*
X96663424Y-83694811D01*
X96485762Y-83833091D01*
X96333279Y-83998729D01*
X96244183Y-84135101D01*
X96190179Y-84181189D01*
X96119831Y-84190764D01*
X96055474Y-84160786D01*
X96033217Y-84135100D01*
X95944327Y-83999044D01*
X95791902Y-83833465D01*
X95614301Y-83695232D01*
X95614300Y-83695231D01*
X95416371Y-83588117D01*
X95416369Y-83588116D01*
X95203512Y-83515043D01*
X95203501Y-83515040D01*
X95123000Y-83501606D01*
X95123000Y-84402325D01*
X95011315Y-84351320D01*
X94904763Y-84336000D01*
X94833237Y-84336000D01*
X94726685Y-84351320D01*
X94615000Y-84402325D01*
X94615000Y-83501607D01*
X94614999Y-83501606D01*
X94534498Y-83515040D01*
X94534487Y-83515043D01*
X94321630Y-83588116D01*
X94321628Y-83588117D01*
X94123699Y-83695231D01*
X94123698Y-83695232D01*
X93946097Y-83833465D01*
X93793674Y-83999041D01*
X93670580Y-84187451D01*
X93580179Y-84393543D01*
X93580176Y-84393550D01*
X93532455Y-84581999D01*
X93532456Y-84582000D01*
X94437884Y-84582000D01*
X94409507Y-84626156D01*
X94369000Y-84764111D01*
X94369000Y-84907889D01*
X94409507Y-85045844D01*
X94437884Y-85090000D01*
X93532455Y-85090000D01*
X93580176Y-85278449D01*
X93580179Y-85278456D01*
X93670580Y-85484548D01*
X93793674Y-85672958D01*
X93946097Y-85838534D01*
X94123698Y-85976767D01*
X94123699Y-85976768D01*
X94321628Y-86083882D01*
X94321630Y-86083883D01*
X94534483Y-86156955D01*
X94534492Y-86156957D01*
X94615000Y-86170391D01*
X94615000Y-85269674D01*
X94726685Y-85320680D01*
X94833237Y-85336000D01*
X94904763Y-85336000D01*
X95011315Y-85320680D01*
X95123000Y-85269674D01*
X95123000Y-86170390D01*
X95203507Y-86156957D01*
X95203516Y-86156955D01*
X95416369Y-86083883D01*
X95416371Y-86083882D01*
X95614300Y-85976768D01*
X95614301Y-85976767D01*
X95791902Y-85838534D01*
X95944327Y-85672955D01*
X96033217Y-85536899D01*
X96087220Y-85490810D01*
X96157568Y-85481235D01*
X96221925Y-85511212D01*
X96244183Y-85536898D01*
X96333279Y-85673270D01*
X96485762Y-85838908D01*
X96540331Y-85881381D01*
X96663424Y-85977189D01*
X96861426Y-86084342D01*
X96861427Y-86084342D01*
X96861428Y-86084343D01*
X96973227Y-86122723D01*
X97074365Y-86157444D01*
X97296431Y-86194500D01*
X97296435Y-86194500D01*
X97521565Y-86194500D01*
X97521569Y-86194500D01*
X97743635Y-86157444D01*
X97956574Y-86084342D01*
X98154576Y-85977189D01*
X98332240Y-85838906D01*
X98484722Y-85673268D01*
X98484927Y-85672955D01*
X98490115Y-85665012D01*
X98573518Y-85537354D01*
X98627520Y-85491268D01*
X98697868Y-85481692D01*
X98762225Y-85511669D01*
X98784480Y-85537353D01*
X98817607Y-85588058D01*
X98873275Y-85673265D01*
X98873279Y-85673270D01*
X99025762Y-85838908D01*
X99080331Y-85881381D01*
X99203424Y-85977189D01*
X99401426Y-86084342D01*
X99401427Y-86084342D01*
X99401428Y-86084343D01*
X99513227Y-86122723D01*
X99614365Y-86157444D01*
X99836431Y-86194500D01*
X99836435Y-86194500D01*
X100061565Y-86194500D01*
X100061569Y-86194500D01*
X100283635Y-86157444D01*
X100496574Y-86084342D01*
X100694576Y-85977189D01*
X100872240Y-85838906D01*
X101024722Y-85673268D01*
X101024927Y-85672955D01*
X101030115Y-85665012D01*
X101113518Y-85537354D01*
X101167520Y-85491268D01*
X101237868Y-85481692D01*
X101302225Y-85511669D01*
X101324480Y-85537353D01*
X101357607Y-85588058D01*
X101413275Y-85673265D01*
X101413279Y-85673270D01*
X101565762Y-85838908D01*
X101620331Y-85881381D01*
X101743424Y-85977189D01*
X101941426Y-86084342D01*
X101941427Y-86084342D01*
X101941428Y-86084343D01*
X102053227Y-86122723D01*
X102154365Y-86157444D01*
X102376431Y-86194500D01*
X102376435Y-86194500D01*
X102601565Y-86194500D01*
X102601569Y-86194500D01*
X102823635Y-86157444D01*
X103036574Y-86084342D01*
X103234576Y-85977189D01*
X103412240Y-85838906D01*
X103564722Y-85673268D01*
X103564927Y-85672955D01*
X103570115Y-85665012D01*
X103653518Y-85537354D01*
X103707520Y-85491268D01*
X103777868Y-85481692D01*
X103842225Y-85511669D01*
X103864480Y-85537353D01*
X103897607Y-85588058D01*
X103953275Y-85673265D01*
X103953279Y-85673270D01*
X104105762Y-85838908D01*
X104160331Y-85881381D01*
X104283424Y-85977189D01*
X104481426Y-86084342D01*
X104481427Y-86084342D01*
X104481428Y-86084343D01*
X104593227Y-86122723D01*
X104694365Y-86157444D01*
X104916431Y-86194500D01*
X104916435Y-86194500D01*
X105141565Y-86194500D01*
X105141569Y-86194500D01*
X105363635Y-86157444D01*
X105576574Y-86084342D01*
X105774576Y-85977189D01*
X105952240Y-85838906D01*
X106013245Y-85772637D01*
X106074096Y-85736067D01*
X106145061Y-85738200D01*
X106203606Y-85778362D01*
X106224000Y-85813941D01*
X106268111Y-85932204D01*
X106268112Y-85932207D01*
X106355738Y-86049261D01*
X106472792Y-86136887D01*
X106472794Y-86136888D01*
X106472796Y-86136889D01*
X106526600Y-86156957D01*
X106609795Y-86187988D01*
X106609803Y-86187990D01*
X106670350Y-86194499D01*
X106670355Y-86194499D01*
X106670362Y-86194500D01*
X106670368Y-86194500D01*
X108467632Y-86194500D01*
X108467638Y-86194500D01*
X108467645Y-86194499D01*
X108467649Y-86194499D01*
X108528196Y-86187990D01*
X108528199Y-86187989D01*
X108528201Y-86187989D01*
X108665204Y-86136889D01*
X108735399Y-86084342D01*
X108782261Y-86049261D01*
X108869887Y-85932207D01*
X108869887Y-85932206D01*
X108869889Y-85932204D01*
X108920989Y-85795201D01*
X108922800Y-85778362D01*
X108927499Y-85734649D01*
X108927500Y-85734632D01*
X108927500Y-83937367D01*
X108927499Y-83937350D01*
X108920990Y-83876803D01*
X108920988Y-83876795D01*
X108869889Y-83739797D01*
X108869887Y-83739792D01*
X108782261Y-83622738D01*
X108665207Y-83535112D01*
X108665202Y-83535110D01*
X108528204Y-83484011D01*
X108528196Y-83484009D01*
X108467649Y-83477500D01*
X108467638Y-83477500D01*
X106670362Y-83477500D01*
X106670350Y-83477500D01*
X106609803Y-83484009D01*
X106609795Y-83484011D01*
X106472797Y-83535110D01*
X106472792Y-83535112D01*
X106355738Y-83622738D01*
X106268112Y-83739792D01*
X106268111Y-83739795D01*
X106224000Y-83858058D01*
X106181453Y-83914893D01*
X106114932Y-83939703D01*
X106045558Y-83924611D01*
X106013246Y-83899363D01*
X105952240Y-83833094D01*
X105952239Y-83833093D01*
X105952237Y-83833091D01*
X105832372Y-83739796D01*
X105774576Y-83694811D01*
X105576574Y-83587658D01*
X105576572Y-83587657D01*
X105576571Y-83587656D01*
X105363639Y-83514557D01*
X105363630Y-83514555D01*
X105286029Y-83501606D01*
X105141569Y-83477500D01*
X104916431Y-83477500D01*
X104771971Y-83501606D01*
X104694369Y-83514555D01*
X104694360Y-83514557D01*
X104481428Y-83587656D01*
X104481426Y-83587658D01*
X104283426Y-83694810D01*
X104283424Y-83694811D01*
X104105762Y-83833091D01*
X103953279Y-83998729D01*
X103864483Y-84134643D01*
X103810479Y-84180731D01*
X103740131Y-84190306D01*
X103675774Y-84160329D01*
X103653517Y-84134643D01*
X103564720Y-83998729D01*
X103435221Y-83858058D01*
X103412240Y-83833094D01*
X103412239Y-83833093D01*
X103412237Y-83833091D01*
X103292372Y-83739796D01*
X103234576Y-83694811D01*
X103206620Y-83679681D01*
X103188529Y-83669891D01*
X103138139Y-83619877D01*
X103122500Y-83559078D01*
X103122500Y-78486000D01*
X111354496Y-78486000D01*
X111374457Y-78675927D01*
X111391909Y-78729637D01*
X111433473Y-78857556D01*
X111461841Y-78906691D01*
X111528958Y-79022941D01*
X111528965Y-79022951D01*
X111656744Y-79164864D01*
X111689984Y-79189014D01*
X111811248Y-79277118D01*
X111985712Y-79354794D01*
X112172513Y-79394500D01*
X112363487Y-79394500D01*
X112550288Y-79354794D01*
X112724752Y-79277118D01*
X112879253Y-79164866D01*
X112927717Y-79111041D01*
X113007034Y-79022951D01*
X113007035Y-79022949D01*
X113007040Y-79022944D01*
X113102527Y-78857556D01*
X113161542Y-78675928D01*
X113181504Y-78486000D01*
X113161542Y-78296072D01*
X113102527Y-78114444D01*
X113007040Y-77949056D01*
X113007038Y-77949054D01*
X113007034Y-77949048D01*
X112879255Y-77807135D01*
X112724752Y-77694882D01*
X112550288Y-77617206D01*
X112363487Y-77577500D01*
X112172513Y-77577500D01*
X111985711Y-77617206D01*
X111811247Y-77694882D01*
X111656744Y-77807135D01*
X111528965Y-77949048D01*
X111528958Y-77949058D01*
X111433476Y-78114438D01*
X111433473Y-78114445D01*
X111374457Y-78296072D01*
X111354496Y-78486000D01*
X103122500Y-78486000D01*
X103122500Y-78442849D01*
X103124249Y-78427012D01*
X103123955Y-78426985D01*
X103124701Y-78419092D01*
X103122562Y-78351031D01*
X103122500Y-78347073D01*
X103122500Y-78319151D01*
X103122500Y-78319144D01*
X103121991Y-78315123D01*
X103121061Y-78303296D01*
X103120834Y-78296072D01*
X103119673Y-78259110D01*
X103114022Y-78239663D01*
X103110012Y-78220300D01*
X103107474Y-78200203D01*
X103091192Y-78159081D01*
X103087358Y-78147882D01*
X103075018Y-78105406D01*
X103064700Y-78087961D01*
X103056005Y-78070209D01*
X103048553Y-78051385D01*
X103048550Y-78051379D01*
X103022564Y-78015613D01*
X103016045Y-78005689D01*
X102993541Y-77967635D01*
X102979218Y-77953312D01*
X102966377Y-77938279D01*
X102962091Y-77932380D01*
X102954472Y-77921893D01*
X102949860Y-77918078D01*
X102920405Y-77893710D01*
X102911626Y-77885721D01*
X102778405Y-77752500D01*
X102744379Y-77690188D01*
X102741500Y-77663405D01*
X102741500Y-77634385D01*
X102761502Y-77566264D01*
X102815158Y-77519771D01*
X102853388Y-77509178D01*
X102924047Y-77501217D01*
X103096015Y-77441043D01*
X103250281Y-77344111D01*
X103379111Y-77215281D01*
X103476043Y-77061015D01*
X103536217Y-76889047D01*
X103556616Y-76708000D01*
X103536217Y-76526953D01*
X103476043Y-76354985D01*
X103476041Y-76354982D01*
X103476041Y-76354981D01*
X103395813Y-76227298D01*
X103376500Y-76160262D01*
X103376500Y-73235853D01*
X103378249Y-73220011D01*
X103377956Y-73219984D01*
X103378702Y-73212091D01*
X103376562Y-73144000D01*
X103376500Y-73140042D01*
X103376500Y-73112150D01*
X103376500Y-73112144D01*
X103375993Y-73108135D01*
X103375062Y-73096306D01*
X103373674Y-73052111D01*
X103368017Y-73032642D01*
X103364012Y-73013298D01*
X103361474Y-72993203D01*
X103345196Y-72952092D01*
X103341356Y-72940877D01*
X103329018Y-72898407D01*
X103318706Y-72880970D01*
X103310010Y-72863221D01*
X103302552Y-72844383D01*
X103276552Y-72808598D01*
X103270059Y-72798714D01*
X103247542Y-72760638D01*
X103233214Y-72746310D01*
X103220384Y-72731289D01*
X103208472Y-72714893D01*
X103208469Y-72714891D01*
X103208469Y-72714890D01*
X103174394Y-72686700D01*
X103165616Y-72678712D01*
X102304978Y-71818074D01*
X102270952Y-71755762D01*
X102276017Y-71684947D01*
X102318564Y-71628111D01*
X102327916Y-71621744D01*
X102418846Y-71565658D01*
X102426755Y-71557748D01*
X102489060Y-71523722D01*
X102559876Y-71528781D01*
X102604948Y-71557745D01*
X102612460Y-71565257D01*
X102612466Y-71565262D01*
X102760792Y-71656751D01*
X102926223Y-71711568D01*
X102926226Y-71711569D01*
X103028315Y-71721999D01*
X103028315Y-71722000D01*
X103124000Y-71722000D01*
X103124000Y-70993000D01*
X103632000Y-70993000D01*
X103632000Y-71722000D01*
X103727685Y-71722000D01*
X103727684Y-71721999D01*
X103829773Y-71711569D01*
X103829776Y-71711568D01*
X103995207Y-71656751D01*
X104143533Y-71565262D01*
X104143539Y-71565257D01*
X104266757Y-71442039D01*
X104266762Y-71442033D01*
X104358251Y-71293707D01*
X104413068Y-71128276D01*
X104413069Y-71128273D01*
X104423499Y-71026184D01*
X104423500Y-71026184D01*
X104423500Y-70993000D01*
X103632000Y-70993000D01*
X103124000Y-70993000D01*
X103124000Y-69342000D01*
X103632000Y-69342000D01*
X103632000Y-70485000D01*
X104423500Y-70485000D01*
X104423500Y-70451815D01*
X104413069Y-70349726D01*
X104413068Y-70349723D01*
X104358251Y-70184292D01*
X104266762Y-70035966D01*
X104233392Y-70002597D01*
X104199366Y-69940285D01*
X104204430Y-69869469D01*
X104233392Y-69824403D01*
X104266762Y-69791033D01*
X104358251Y-69642707D01*
X104413068Y-69477276D01*
X104413069Y-69477273D01*
X104423499Y-69375184D01*
X104423500Y-69375184D01*
X104423500Y-69342000D01*
X103632000Y-69342000D01*
X103124000Y-69342000D01*
X103124000Y-68960000D01*
X103144002Y-68891879D01*
X103197658Y-68845386D01*
X103250000Y-68834000D01*
X104423500Y-68834000D01*
X104423500Y-68800815D01*
X104413069Y-68698726D01*
X104413068Y-68698720D01*
X104386033Y-68617132D01*
X104383593Y-68546178D01*
X104419901Y-68485168D01*
X104483430Y-68453472D01*
X104505638Y-68451500D01*
X108745133Y-68451500D01*
X108813254Y-68471502D01*
X108859747Y-68525158D01*
X108869851Y-68595432D01*
X108864062Y-68619115D01*
X108833310Y-68707000D01*
X108807783Y-68779953D01*
X108787384Y-68961000D01*
X108807783Y-69142047D01*
X108807783Y-69142049D01*
X108807784Y-69142050D01*
X108867957Y-69314015D01*
X108867958Y-69314018D01*
X108964887Y-69468279D01*
X108964888Y-69468281D01*
X109093718Y-69597111D01*
X109093720Y-69597112D01*
X109247981Y-69694041D01*
X109247982Y-69694041D01*
X109247985Y-69694043D01*
X109419953Y-69754217D01*
X109601000Y-69774616D01*
X109782047Y-69754217D01*
X109954015Y-69694043D01*
X110108281Y-69597111D01*
X110237111Y-69468281D01*
X110334043Y-69314015D01*
X110394217Y-69142047D01*
X110414616Y-68961000D01*
X110394217Y-68779953D01*
X110352244Y-68660000D01*
X110337938Y-68619115D01*
X110334319Y-68548210D01*
X110369608Y-68486605D01*
X110432601Y-68453859D01*
X110456867Y-68451500D01*
X113501178Y-68451500D01*
X113569299Y-68471502D01*
X113615792Y-68525158D01*
X113626385Y-68591606D01*
X113616537Y-68679015D01*
X113613510Y-68705886D01*
X113613384Y-68707000D01*
X113633783Y-68888047D01*
X113633783Y-68888049D01*
X113633784Y-68888050D01*
X113693957Y-69060015D01*
X113693958Y-69060018D01*
X113790887Y-69214279D01*
X113790888Y-69214281D01*
X113919718Y-69343111D01*
X113919720Y-69343112D01*
X114073981Y-69440041D01*
X114073982Y-69440041D01*
X114073985Y-69440043D01*
X114245953Y-69500217D01*
X114427000Y-69520616D01*
X114608047Y-69500217D01*
X114780015Y-69440043D01*
X114934281Y-69343111D01*
X115063111Y-69214281D01*
X115160043Y-69060015D01*
X115220217Y-68888047D01*
X115240616Y-68707000D01*
X115220217Y-68525953D01*
X115160043Y-68353985D01*
X115160041Y-68353982D01*
X115160041Y-68353981D01*
X115079813Y-68226298D01*
X115061591Y-68163050D01*
X115060749Y-68163104D01*
X115060508Y-68159293D01*
X115060500Y-68159262D01*
X115060500Y-68159151D01*
X115060500Y-68159144D01*
X115059991Y-68155123D01*
X115059061Y-68143296D01*
X115057673Y-68099110D01*
X115052022Y-68079663D01*
X115048012Y-68060300D01*
X115047812Y-68058713D01*
X115045474Y-68040203D01*
X115029192Y-67999081D01*
X115025358Y-67987882D01*
X115013018Y-67945406D01*
X115002700Y-67927961D01*
X114994005Y-67910209D01*
X114986553Y-67891385D01*
X114986550Y-67891379D01*
X114960564Y-67855613D01*
X114954045Y-67845689D01*
X114931541Y-67807635D01*
X114917218Y-67793312D01*
X114904377Y-67778279D01*
X114892471Y-67761892D01*
X114858405Y-67733710D01*
X114849626Y-67725721D01*
X114553244Y-67429339D01*
X114543279Y-67416901D01*
X114543052Y-67417090D01*
X114538001Y-67410984D01*
X114538000Y-67410982D01*
X114488348Y-67364356D01*
X114485505Y-67361600D01*
X114465777Y-67341871D01*
X114465771Y-67341866D01*
X114462567Y-67339380D01*
X114453556Y-67331683D01*
X114421325Y-67301417D01*
X114421319Y-67301413D01*
X114403563Y-67291651D01*
X114387047Y-67280802D01*
X114371041Y-67268386D01*
X114330464Y-67250827D01*
X114319807Y-67245605D01*
X114281063Y-67224306D01*
X114281060Y-67224305D01*
X114261436Y-67219266D01*
X114242736Y-67212864D01*
X114224145Y-67204819D01*
X114224143Y-67204818D01*
X114224141Y-67204818D01*
X114180474Y-67197901D01*
X114168855Y-67195495D01*
X114126030Y-67184500D01*
X114105776Y-67184500D01*
X114086066Y-67182949D01*
X114066057Y-67179780D01*
X114022039Y-67183941D01*
X114010181Y-67184500D01*
X107569505Y-67184500D01*
X107501384Y-67164498D01*
X107454891Y-67110842D01*
X107444787Y-67040568D01*
X107464022Y-66989585D01*
X107480553Y-66964280D01*
X107497860Y-66937791D01*
X107588296Y-66731616D01*
X107643564Y-66513368D01*
X107662156Y-66289000D01*
X107643564Y-66064632D01*
X107643562Y-66064624D01*
X107588297Y-65846387D01*
X107588296Y-65846386D01*
X107588296Y-65846384D01*
X107497860Y-65640209D01*
X107482128Y-65616129D01*
X107374724Y-65451734D01*
X107374714Y-65451722D01*
X107231159Y-65295782D01*
X107199737Y-65232117D01*
X107207723Y-65161571D01*
X107252582Y-65106542D01*
X107279827Y-65092388D01*
X107394965Y-65049444D01*
X107511904Y-64961904D01*
X107599444Y-64844965D01*
X107599444Y-64844964D01*
X107650494Y-64708093D01*
X107656999Y-64647597D01*
X107657000Y-64647585D01*
X107657000Y-64003000D01*
X106730116Y-64003000D01*
X106758493Y-63958844D01*
X106799000Y-63820889D01*
X106799000Y-63677111D01*
X106758493Y-63539156D01*
X106730116Y-63495000D01*
X107657000Y-63495000D01*
X107657000Y-63414610D01*
X107677002Y-63346489D01*
X107730658Y-63299996D01*
X107768887Y-63289403D01*
X107877047Y-63277217D01*
X108049015Y-63217043D01*
X108117807Y-63173817D01*
X108176701Y-63136813D01*
X108243737Y-63117500D01*
X110683406Y-63117500D01*
X110751527Y-63137502D01*
X110772501Y-63154405D01*
X110835595Y-63217499D01*
X110869621Y-63279811D01*
X110872500Y-63306594D01*
X110872500Y-65321146D01*
X110870751Y-65336988D01*
X110871044Y-65337016D01*
X110870298Y-65344907D01*
X110872438Y-65412984D01*
X110872500Y-65416943D01*
X110872500Y-65444851D01*
X110872501Y-65444869D01*
X110873007Y-65448877D01*
X110873937Y-65460696D01*
X110875326Y-65504888D01*
X110875327Y-65504893D01*
X110880977Y-65524339D01*
X110884986Y-65543697D01*
X110887525Y-65563793D01*
X110887526Y-65563800D01*
X110903800Y-65604903D01*
X110907644Y-65616129D01*
X110919982Y-65658593D01*
X110930294Y-65676031D01*
X110938988Y-65693779D01*
X110946444Y-65712609D01*
X110946450Y-65712620D01*
X110972432Y-65748381D01*
X110978949Y-65758301D01*
X111001458Y-65796362D01*
X111001459Y-65796363D01*
X111001461Y-65796366D01*
X111015779Y-65810684D01*
X111028617Y-65825714D01*
X111040526Y-65842104D01*
X111040530Y-65842109D01*
X111074598Y-65870292D01*
X111083378Y-65878282D01*
X111633753Y-66428657D01*
X111643720Y-66441097D01*
X111643947Y-66440910D01*
X111648999Y-66447017D01*
X111649000Y-66447018D01*
X111686335Y-66482078D01*
X111698666Y-66493657D01*
X111701510Y-66496414D01*
X111721230Y-66516134D01*
X111724416Y-66518605D01*
X111733446Y-66526317D01*
X111747585Y-66539595D01*
X111765678Y-66556585D01*
X111765682Y-66556588D01*
X111783430Y-66566345D01*
X111799957Y-66577201D01*
X111813742Y-66587894D01*
X111815960Y-66589614D01*
X111856539Y-66607174D01*
X111867187Y-66612391D01*
X111905934Y-66633692D01*
X111905936Y-66633693D01*
X111905940Y-66633695D01*
X111925562Y-66638733D01*
X111944263Y-66645135D01*
X111956814Y-66650567D01*
X111962852Y-66653180D01*
X111962853Y-66653180D01*
X111962855Y-66653181D01*
X112006530Y-66660098D01*
X112018141Y-66662502D01*
X112060970Y-66673500D01*
X112081224Y-66673500D01*
X112100934Y-66675051D01*
X112103141Y-66675400D01*
X112120943Y-66678220D01*
X112164961Y-66674058D01*
X112176819Y-66673500D01*
X113752263Y-66673500D01*
X113819299Y-66692813D01*
X113881054Y-66731616D01*
X113946985Y-66773043D01*
X114118953Y-66833217D01*
X114300000Y-66853616D01*
X114481047Y-66833217D01*
X114653015Y-66773043D01*
X114807281Y-66676111D01*
X114936111Y-66547281D01*
X115033043Y-66393015D01*
X115093217Y-66221047D01*
X115113616Y-66040000D01*
X115093217Y-65858953D01*
X115033043Y-65686985D01*
X115033041Y-65686982D01*
X115033041Y-65686981D01*
X114936112Y-65532720D01*
X114936111Y-65532718D01*
X114807281Y-65403888D01*
X114807279Y-65403887D01*
X114653018Y-65306958D01*
X114653015Y-65306957D01*
X114481050Y-65246784D01*
X114481049Y-65246783D01*
X114481047Y-65246783D01*
X114300000Y-65226384D01*
X114118953Y-65246783D01*
X114118950Y-65246783D01*
X114118949Y-65246784D01*
X113946984Y-65306957D01*
X113946982Y-65306958D01*
X113819299Y-65387187D01*
X113752263Y-65406500D01*
X112455595Y-65406500D01*
X112387474Y-65386498D01*
X112366499Y-65369595D01*
X112176404Y-65179499D01*
X112142379Y-65117187D01*
X112139500Y-65090404D01*
X112139500Y-63075849D01*
X112141249Y-63060012D01*
X112140955Y-63059985D01*
X112141701Y-63052092D01*
X112139562Y-62984031D01*
X112139500Y-62980073D01*
X112139500Y-62952151D01*
X112139500Y-62952144D01*
X112138991Y-62948123D01*
X112138061Y-62936296D01*
X112136673Y-62892110D01*
X112131022Y-62872663D01*
X112129435Y-62865000D01*
X115518384Y-62865000D01*
X115538783Y-63046047D01*
X115538783Y-63046049D01*
X115538784Y-63046050D01*
X115598956Y-63218014D01*
X115613687Y-63241457D01*
X115633000Y-63308494D01*
X115633000Y-77572076D01*
X115632770Y-77579683D01*
X115629151Y-77639515D01*
X115639956Y-77698477D01*
X115641101Y-77706002D01*
X115648325Y-77765503D01*
X115648327Y-77765510D01*
X115651840Y-77774774D01*
X115657961Y-77796732D01*
X115659747Y-77806478D01*
X115659748Y-77806483D01*
X115684350Y-77861147D01*
X115687262Y-77868176D01*
X115708519Y-77924225D01*
X115708523Y-77924233D01*
X115714147Y-77932380D01*
X115725353Y-77952247D01*
X115729416Y-77961275D01*
X115766382Y-78008461D01*
X115770890Y-78014587D01*
X115804947Y-78063926D01*
X115849821Y-78103681D01*
X115855362Y-78108898D01*
X117217092Y-79470627D01*
X117222309Y-79476168D01*
X117262071Y-79521050D01*
X117262075Y-79521054D01*
X117289303Y-79539847D01*
X117311411Y-79555107D01*
X117317529Y-79559608D01*
X117364725Y-79596584D01*
X117373750Y-79600645D01*
X117393617Y-79611850D01*
X117401773Y-79617480D01*
X117457861Y-79638751D01*
X117464835Y-79641640D01*
X117519517Y-79666251D01*
X117529253Y-79668035D01*
X117551230Y-79674161D01*
X117560490Y-79677673D01*
X117620034Y-79684902D01*
X117627478Y-79686034D01*
X117686485Y-79696849D01*
X117746315Y-79693230D01*
X117753922Y-79693000D01*
X119288755Y-79693000D01*
X119356876Y-79713002D01*
X119394238Y-79750085D01*
X119447275Y-79831264D01*
X119447279Y-79831270D01*
X119599762Y-79996908D01*
X119613714Y-80007767D01*
X119777424Y-80135189D01*
X119975426Y-80242342D01*
X119975427Y-80242342D01*
X119975428Y-80242343D01*
X120087227Y-80280723D01*
X120188365Y-80315444D01*
X120410431Y-80352500D01*
X120410435Y-80352500D01*
X120635565Y-80352500D01*
X120635569Y-80352500D01*
X120857635Y-80315444D01*
X121070574Y-80242342D01*
X121268576Y-80135189D01*
X121446240Y-79996906D01*
X121598722Y-79831268D01*
X121721860Y-79642791D01*
X121812296Y-79436616D01*
X121867564Y-79218368D01*
X121886156Y-78994000D01*
X121867564Y-78769632D01*
X121843737Y-78675541D01*
X121812297Y-78551387D01*
X121812296Y-78551386D01*
X121812296Y-78551384D01*
X121721860Y-78345209D01*
X121715140Y-78334924D01*
X121598724Y-78156734D01*
X121598720Y-78156729D01*
X121479436Y-78027154D01*
X121446240Y-77991094D01*
X121446239Y-77991093D01*
X121446237Y-77991091D01*
X121360328Y-77924225D01*
X121268576Y-77852811D01*
X121234792Y-77834528D01*
X121184402Y-77784516D01*
X121169050Y-77715199D01*
X121193610Y-77648586D01*
X121234793Y-77612901D01*
X121268300Y-77594767D01*
X121268301Y-77594767D01*
X121445902Y-77456534D01*
X121598325Y-77290958D01*
X121721419Y-77102548D01*
X121811820Y-76896456D01*
X121811823Y-76896449D01*
X121859544Y-76708000D01*
X120954116Y-76708000D01*
X120982493Y-76663844D01*
X121023000Y-76525889D01*
X121023000Y-76382111D01*
X120982493Y-76244156D01*
X120954116Y-76200000D01*
X121859544Y-76200000D01*
X121859544Y-76199999D01*
X121811823Y-76011550D01*
X121811820Y-76011543D01*
X121721419Y-75805451D01*
X121598325Y-75617041D01*
X121445902Y-75451465D01*
X121268301Y-75313232D01*
X121268300Y-75313231D01*
X121234791Y-75295097D01*
X121184401Y-75245083D01*
X121169050Y-75175766D01*
X121193612Y-75109153D01*
X121234790Y-75073472D01*
X121268576Y-75055189D01*
X121446240Y-74916906D01*
X121598722Y-74751268D01*
X121721860Y-74562791D01*
X121812296Y-74356616D01*
X121867564Y-74138368D01*
X121886156Y-73914000D01*
X121867564Y-73689632D01*
X121859185Y-73656543D01*
X121812297Y-73471387D01*
X121812296Y-73471386D01*
X121812296Y-73471384D01*
X121721860Y-73265209D01*
X121666816Y-73180958D01*
X121598724Y-73076734D01*
X121598720Y-73076729D01*
X121467176Y-72933836D01*
X121446240Y-72911094D01*
X121446239Y-72911093D01*
X121446237Y-72911091D01*
X121339224Y-72827799D01*
X121268576Y-72772811D01*
X121235319Y-72754813D01*
X121184929Y-72704802D01*
X121169576Y-72635485D01*
X121194136Y-72568872D01*
X121235320Y-72533186D01*
X121268576Y-72515189D01*
X121446240Y-72376906D01*
X121598722Y-72211268D01*
X121721860Y-72022791D01*
X121812296Y-71816616D01*
X121867564Y-71598368D01*
X121886156Y-71374000D01*
X121867564Y-71149632D01*
X121830931Y-71004973D01*
X121812297Y-70931387D01*
X121812296Y-70931386D01*
X121812296Y-70931384D01*
X121721860Y-70725209D01*
X121671299Y-70647819D01*
X121598724Y-70536734D01*
X121598720Y-70536729D01*
X121451625Y-70376944D01*
X121446240Y-70371094D01*
X121446239Y-70371093D01*
X121446237Y-70371091D01*
X121340124Y-70288500D01*
X121268576Y-70232811D01*
X121234792Y-70214528D01*
X121184402Y-70164516D01*
X121169050Y-70095199D01*
X121193610Y-70028586D01*
X121234793Y-69992901D01*
X121268300Y-69974767D01*
X121268301Y-69974767D01*
X121445902Y-69836534D01*
X121598325Y-69670958D01*
X121721419Y-69482548D01*
X121811820Y-69276456D01*
X121811823Y-69276449D01*
X121859544Y-69088000D01*
X120954116Y-69088000D01*
X120982493Y-69043844D01*
X121023000Y-68905889D01*
X121023000Y-68762111D01*
X120982493Y-68624156D01*
X120954116Y-68580000D01*
X121859544Y-68580000D01*
X121859544Y-68579999D01*
X121811823Y-68391550D01*
X121811820Y-68391543D01*
X121721419Y-68185451D01*
X121598325Y-67997041D01*
X121455018Y-67841367D01*
X121423598Y-67777702D01*
X121431585Y-67707156D01*
X121476444Y-67652127D01*
X121503679Y-67637977D01*
X121619204Y-67594889D01*
X121736261Y-67507261D01*
X121794593Y-67429339D01*
X121823887Y-67390207D01*
X121823887Y-67390206D01*
X121823889Y-67390204D01*
X121874989Y-67253201D01*
X121875245Y-67250827D01*
X121881499Y-67192649D01*
X121881500Y-67192632D01*
X121881500Y-65395367D01*
X121881499Y-65395350D01*
X121874990Y-65334803D01*
X121874988Y-65334795D01*
X121823889Y-65197797D01*
X121823887Y-65197792D01*
X121736261Y-65080738D01*
X121619207Y-64993112D01*
X121619202Y-64993110D01*
X121482204Y-64942011D01*
X121482196Y-64942009D01*
X121421649Y-64935500D01*
X121421638Y-64935500D01*
X119624362Y-64935500D01*
X119624350Y-64935500D01*
X119563803Y-64942009D01*
X119563795Y-64942011D01*
X119426797Y-64993110D01*
X119426792Y-64993112D01*
X119309738Y-65080738D01*
X119222112Y-65197792D01*
X119222110Y-65197797D01*
X119171011Y-65334795D01*
X119171009Y-65334803D01*
X119164500Y-65395350D01*
X119164500Y-67192649D01*
X119171009Y-67253196D01*
X119171011Y-67253204D01*
X119222110Y-67390202D01*
X119222112Y-67390207D01*
X119309738Y-67507261D01*
X119426792Y-67594887D01*
X119426796Y-67594889D01*
X119542312Y-67637975D01*
X119599148Y-67680522D01*
X119623958Y-67747042D01*
X119608866Y-67816416D01*
X119590981Y-67841367D01*
X119447674Y-67997041D01*
X119324580Y-68185451D01*
X119234179Y-68391543D01*
X119234176Y-68391550D01*
X119186455Y-68579999D01*
X119186456Y-68580000D01*
X120091884Y-68580000D01*
X120063507Y-68624156D01*
X120023000Y-68762111D01*
X120023000Y-68905889D01*
X120063507Y-69043844D01*
X120091884Y-69088000D01*
X119186455Y-69088000D01*
X119234176Y-69276449D01*
X119234179Y-69276456D01*
X119324580Y-69482548D01*
X119447674Y-69670958D01*
X119600097Y-69836534D01*
X119777698Y-69974767D01*
X119777704Y-69974771D01*
X119811207Y-69992902D01*
X119861597Y-70042915D01*
X119876949Y-70112232D01*
X119852388Y-70178845D01*
X119811207Y-70214528D01*
X119777430Y-70232807D01*
X119777424Y-70232811D01*
X119599762Y-70371091D01*
X119447279Y-70536729D01*
X119447275Y-70536734D01*
X119324141Y-70725206D01*
X119233703Y-70931386D01*
X119233702Y-70931387D01*
X119178437Y-71149624D01*
X119178436Y-71149630D01*
X119178436Y-71149632D01*
X119159844Y-71374000D01*
X119178250Y-71596129D01*
X119178437Y-71598375D01*
X119233702Y-71816612D01*
X119233703Y-71816613D01*
X119233704Y-71816616D01*
X119320579Y-72014673D01*
X119324141Y-72022793D01*
X119447275Y-72211265D01*
X119447279Y-72211270D01*
X119599762Y-72376908D01*
X119626252Y-72397526D01*
X119777424Y-72515189D01*
X119810680Y-72533186D01*
X119861071Y-72583200D01*
X119876423Y-72652516D01*
X119851862Y-72719129D01*
X119810680Y-72754813D01*
X119777426Y-72772810D01*
X119777424Y-72772811D01*
X119599762Y-72911091D01*
X119447279Y-73076729D01*
X119447275Y-73076734D01*
X119324141Y-73265206D01*
X119233703Y-73471386D01*
X119233702Y-73471387D01*
X119178437Y-73689624D01*
X119178436Y-73689630D01*
X119178436Y-73689632D01*
X119159844Y-73914000D01*
X119174846Y-74095047D01*
X119178437Y-74138375D01*
X119233702Y-74356612D01*
X119233703Y-74356613D01*
X119233704Y-74356616D01*
X119318578Y-74550111D01*
X119324141Y-74562793D01*
X119447275Y-74751265D01*
X119447279Y-74751270D01*
X119599762Y-74916908D01*
X119639555Y-74947880D01*
X119777424Y-75055189D01*
X119811205Y-75073470D01*
X119861596Y-75123482D01*
X119876949Y-75192799D01*
X119852389Y-75259412D01*
X119811209Y-75295096D01*
X119777704Y-75313228D01*
X119777698Y-75313232D01*
X119600097Y-75451465D01*
X119447674Y-75617041D01*
X119324580Y-75805451D01*
X119234179Y-76011543D01*
X119234176Y-76011550D01*
X119186455Y-76199999D01*
X119186456Y-76200000D01*
X120091884Y-76200000D01*
X120063507Y-76244156D01*
X120023000Y-76382111D01*
X120023000Y-76525889D01*
X120063507Y-76663844D01*
X120091884Y-76708000D01*
X119186455Y-76708000D01*
X119234176Y-76896449D01*
X119234179Y-76896456D01*
X119324580Y-77102548D01*
X119447674Y-77290958D01*
X119600097Y-77456534D01*
X119777698Y-77594767D01*
X119777704Y-77594771D01*
X119811207Y-77612902D01*
X119861597Y-77662915D01*
X119876949Y-77732232D01*
X119852388Y-77798845D01*
X119811207Y-77834528D01*
X119777430Y-77852807D01*
X119777424Y-77852811D01*
X119599762Y-77991091D01*
X119447279Y-78156729D01*
X119447275Y-78156735D01*
X119394238Y-78237915D01*
X119340234Y-78284004D01*
X119288755Y-78295000D01*
X118070725Y-78295000D01*
X118002604Y-78274998D01*
X117981634Y-78258099D01*
X117067902Y-77344366D01*
X117033879Y-77282057D01*
X117031000Y-77255274D01*
X117031000Y-63308494D01*
X117050313Y-63241457D01*
X117065043Y-63218015D01*
X117125217Y-63046047D01*
X117145616Y-62865000D01*
X117125217Y-62683953D01*
X117065043Y-62511985D01*
X117065041Y-62511982D01*
X117065041Y-62511981D01*
X116968112Y-62357720D01*
X116968111Y-62357718D01*
X116839281Y-62228888D01*
X116839279Y-62228887D01*
X116685018Y-62131958D01*
X116685015Y-62131957D01*
X116513050Y-62071784D01*
X116513049Y-62071783D01*
X116513047Y-62071783D01*
X116332000Y-62051384D01*
X116150953Y-62071783D01*
X116150950Y-62071783D01*
X116150949Y-62071784D01*
X115978984Y-62131957D01*
X115978981Y-62131958D01*
X115824720Y-62228887D01*
X115824718Y-62228888D01*
X115695888Y-62357718D01*
X115695887Y-62357720D01*
X115598958Y-62511981D01*
X115598957Y-62511984D01*
X115538887Y-62683657D01*
X115538783Y-62683953D01*
X115518384Y-62865000D01*
X112129435Y-62865000D01*
X112127012Y-62853298D01*
X112125643Y-62842459D01*
X112136951Y-62772369D01*
X112184358Y-62719519D01*
X112252812Y-62700689D01*
X112292265Y-62707741D01*
X112295983Y-62709042D01*
X112295985Y-62709043D01*
X112467953Y-62769217D01*
X112649000Y-62789616D01*
X112830047Y-62769217D01*
X113002015Y-62709043D01*
X113156281Y-62612111D01*
X113285111Y-62483281D01*
X113382043Y-62329015D01*
X113442217Y-62157047D01*
X113462616Y-61976000D01*
X113442217Y-61794953D01*
X113382043Y-61622985D01*
X113382041Y-61622982D01*
X113382041Y-61622981D01*
X113285112Y-61468720D01*
X113285111Y-61468718D01*
X113156281Y-61339888D01*
X113156279Y-61339887D01*
X113002018Y-61242958D01*
X113002015Y-61242957D01*
X112830050Y-61182784D01*
X112830049Y-61182783D01*
X112830047Y-61182783D01*
X112649000Y-61162384D01*
X112467953Y-61182783D01*
X112467950Y-61182783D01*
X112467949Y-61182784D01*
X112295984Y-61242957D01*
X112295981Y-61242958D01*
X112141720Y-61339887D01*
X112141718Y-61339888D01*
X112012888Y-61468718D01*
X112012887Y-61468720D01*
X111915958Y-61622981D01*
X111915957Y-61622984D01*
X111866430Y-61764526D01*
X111855783Y-61794953D01*
X111842051Y-61916827D01*
X111835384Y-61976000D01*
X111852142Y-62124732D01*
X111839892Y-62194664D01*
X111791780Y-62246872D01*
X111723079Y-62264780D01*
X111655602Y-62242703D01*
X111637839Y-62227934D01*
X111505244Y-62095339D01*
X111495279Y-62082901D01*
X111495052Y-62083090D01*
X111490001Y-62076984D01*
X111490000Y-62076982D01*
X111440348Y-62030356D01*
X111437505Y-62027600D01*
X111417777Y-62007871D01*
X111417771Y-62007866D01*
X111414567Y-62005380D01*
X111405556Y-61997683D01*
X111373325Y-61967417D01*
X111373319Y-61967413D01*
X111355563Y-61957651D01*
X111339047Y-61946802D01*
X111323041Y-61934386D01*
X111282464Y-61916827D01*
X111271807Y-61911605D01*
X111233063Y-61890306D01*
X111233060Y-61890305D01*
X111213436Y-61885266D01*
X111194736Y-61878864D01*
X111190394Y-61876985D01*
X111176145Y-61870819D01*
X111176143Y-61870818D01*
X111176141Y-61870818D01*
X111132474Y-61863901D01*
X111120855Y-61861495D01*
X111078030Y-61850500D01*
X111057776Y-61850500D01*
X111038066Y-61848949D01*
X111018057Y-61845780D01*
X110995747Y-61847889D01*
X110974039Y-61849941D01*
X110962181Y-61850500D01*
X108243737Y-61850500D01*
X108176701Y-61831187D01*
X108049017Y-61750958D01*
X108049015Y-61750957D01*
X107877050Y-61690784D01*
X107877049Y-61690783D01*
X107877047Y-61690783D01*
X107696000Y-61670384D01*
X107514953Y-61690783D01*
X107514950Y-61690783D01*
X107514949Y-61690784D01*
X107342984Y-61750957D01*
X107342981Y-61750958D01*
X107188720Y-61847887D01*
X107188718Y-61847888D01*
X107059888Y-61976718D01*
X107059887Y-61976720D01*
X106962958Y-62130981D01*
X106962957Y-62130984D01*
X106953836Y-62157050D01*
X106906708Y-62291738D01*
X106901502Y-62306615D01*
X106860124Y-62364307D01*
X106794124Y-62390469D01*
X106782573Y-62391000D01*
X106507094Y-62391000D01*
X106438973Y-62370998D01*
X106392480Y-62317342D01*
X106382376Y-62247068D01*
X106411870Y-62182488D01*
X106417999Y-62175905D01*
X107296158Y-61297746D01*
X109989657Y-58604245D01*
X110002092Y-58594284D01*
X110001905Y-58594057D01*
X110008016Y-58589001D01*
X110008015Y-58589001D01*
X110008018Y-58589000D01*
X110054676Y-58539312D01*
X110057367Y-58536535D01*
X110077134Y-58516770D01*
X110079617Y-58513567D01*
X110087308Y-58504562D01*
X110117586Y-58472321D01*
X110127345Y-58454567D01*
X110138197Y-58438046D01*
X110150613Y-58422041D01*
X110168168Y-58381470D01*
X110173392Y-58370808D01*
X110176061Y-58365953D01*
X110194695Y-58332060D01*
X110199733Y-58312435D01*
X110206138Y-58293730D01*
X110206767Y-58292277D01*
X110214181Y-58275145D01*
X110221096Y-58231481D01*
X110223504Y-58219852D01*
X110230146Y-58193985D01*
X110234500Y-58177030D01*
X110234500Y-58156775D01*
X110236051Y-58137063D01*
X110239220Y-58117057D01*
X110235059Y-58073036D01*
X110234500Y-58061179D01*
X110234500Y-55538737D01*
X110253813Y-55471701D01*
X110300740Y-55397016D01*
X110334043Y-55344015D01*
X110394217Y-55172047D01*
X110414616Y-54991000D01*
X110394217Y-54809953D01*
X110334043Y-54637985D01*
X110334041Y-54637982D01*
X110334041Y-54637981D01*
X110237112Y-54483720D01*
X110237111Y-54483718D01*
X110108281Y-54354888D01*
X110108279Y-54354887D01*
X109954018Y-54257958D01*
X109954015Y-54257957D01*
X109782050Y-54197784D01*
X109782049Y-54197783D01*
X109782047Y-54197783D01*
X109601000Y-54177384D01*
X109419953Y-54197783D01*
X109419950Y-54197783D01*
X109419949Y-54197784D01*
X109247984Y-54257957D01*
X109247981Y-54257958D01*
X109093720Y-54354887D01*
X109093718Y-54354888D01*
X108964888Y-54483718D01*
X108964887Y-54483720D01*
X108867958Y-54637981D01*
X108867957Y-54637984D01*
X108810916Y-54801000D01*
X108807783Y-54809953D01*
X108787384Y-54991000D01*
X108807783Y-55172047D01*
X108807783Y-55172049D01*
X108807784Y-55172050D01*
X108867957Y-55344015D01*
X108867958Y-55344017D01*
X108948187Y-55471701D01*
X108967500Y-55538737D01*
X108967500Y-57782405D01*
X108947498Y-57850526D01*
X108930595Y-57871500D01*
X107718710Y-59083384D01*
X107656398Y-59117410D01*
X107585582Y-59112345D01*
X107528747Y-59069798D01*
X107503936Y-59003278D01*
X107519027Y-58933904D01*
X107522929Y-58927251D01*
X107540043Y-58900015D01*
X107600217Y-58728047D01*
X107620616Y-58547000D01*
X107600217Y-58365953D01*
X107540043Y-58193985D01*
X107540041Y-58193982D01*
X107540041Y-58193981D01*
X107443112Y-58039720D01*
X107443111Y-58039718D01*
X107314281Y-57910888D01*
X107314279Y-57910887D01*
X107160018Y-57813958D01*
X107160015Y-57813957D01*
X106988050Y-57753784D01*
X106988049Y-57753783D01*
X106988047Y-57753783D01*
X106807000Y-57733384D01*
X106625953Y-57753783D01*
X106625950Y-57753783D01*
X106625949Y-57753784D01*
X106453984Y-57813957D01*
X106453981Y-57813958D01*
X106299720Y-57910887D01*
X106299718Y-57910888D01*
X106170888Y-58039718D01*
X106170887Y-58039720D01*
X106073958Y-58193981D01*
X106073957Y-58193984D01*
X106014504Y-58363893D01*
X106013783Y-58365953D01*
X105993384Y-58547000D01*
X106013783Y-58728047D01*
X106013783Y-58728049D01*
X106013784Y-58728050D01*
X106073957Y-58900015D01*
X106073958Y-58900018D01*
X106170887Y-59054279D01*
X106170888Y-59054281D01*
X106299718Y-59183111D01*
X106299720Y-59183112D01*
X106453981Y-59280041D01*
X106453982Y-59280041D01*
X106453985Y-59280043D01*
X106625953Y-59340217D01*
X106807000Y-59360616D01*
X106988047Y-59340217D01*
X107160015Y-59280043D01*
X107187252Y-59262928D01*
X107255572Y-59243622D01*
X107323485Y-59264316D01*
X107369430Y-59318442D01*
X107378817Y-59388816D01*
X107348668Y-59453093D01*
X107343384Y-59458710D01*
X104581865Y-62220230D01*
X104581861Y-62220232D01*
X104581862Y-62220233D01*
X104132333Y-62669760D01*
X104119901Y-62679720D01*
X104120089Y-62679947D01*
X104113982Y-62684999D01*
X104067370Y-62734635D01*
X104064620Y-62737473D01*
X104044863Y-62757231D01*
X104042374Y-62760439D01*
X104034688Y-62769436D01*
X104004418Y-62801673D01*
X104004411Y-62801683D01*
X103994651Y-62819435D01*
X103983803Y-62835950D01*
X103971386Y-62851958D01*
X103953824Y-62892540D01*
X103948604Y-62903195D01*
X103927305Y-62941939D01*
X103927303Y-62941944D01*
X103922267Y-62961559D01*
X103915864Y-62980262D01*
X103907819Y-62998852D01*
X103900901Y-63042525D01*
X103898495Y-63054142D01*
X103887500Y-63096968D01*
X103887500Y-63117223D01*
X103885949Y-63136933D01*
X103882780Y-63156942D01*
X103886941Y-63200961D01*
X103887500Y-63212819D01*
X103887500Y-63450917D01*
X103867498Y-63519038D01*
X103813842Y-63565531D01*
X103743568Y-63575635D01*
X103678988Y-63546141D01*
X103672405Y-63540012D01*
X103631281Y-63498888D01*
X103631279Y-63498887D01*
X103477018Y-63401958D01*
X103477015Y-63401957D01*
X103305050Y-63341784D01*
X103305049Y-63341783D01*
X103305047Y-63341783D01*
X103124000Y-63321384D01*
X103123998Y-63321384D01*
X103123997Y-63321384D01*
X103121500Y-63321384D01*
X103119945Y-63320927D01*
X103116968Y-63320592D01*
X103117026Y-63320070D01*
X103053379Y-63301382D01*
X103006886Y-63247726D01*
X102995500Y-63195384D01*
X102995500Y-61213000D01*
X103015502Y-61144879D01*
X103069158Y-61098386D01*
X103121500Y-61087000D01*
X103378000Y-61087000D01*
X103378000Y-60102107D01*
X103448157Y-60156713D01*
X103568422Y-60198000D01*
X103663569Y-60198000D01*
X103757421Y-60182339D01*
X103869251Y-60121820D01*
X103886000Y-60103625D01*
X103886000Y-61087000D01*
X104442585Y-61087000D01*
X104442597Y-61086999D01*
X104503093Y-61080494D01*
X104639964Y-61029444D01*
X104639965Y-61029444D01*
X104756904Y-60941904D01*
X104844444Y-60824965D01*
X104844444Y-60824964D01*
X104895494Y-60688093D01*
X104901999Y-60627597D01*
X104902000Y-60627585D01*
X104902000Y-60071000D01*
X103916034Y-60071000D01*
X103955371Y-60028269D01*
X104006448Y-59911823D01*
X104016949Y-59785102D01*
X103985734Y-59661838D01*
X103921160Y-59563000D01*
X104902000Y-59563000D01*
X104902000Y-59006414D01*
X104901999Y-59006402D01*
X104895494Y-58945906D01*
X104844444Y-58809035D01*
X104844444Y-58809034D01*
X104756904Y-58692095D01*
X104639965Y-58604555D01*
X104503093Y-58553505D01*
X104442597Y-58547000D01*
X104432922Y-58547000D01*
X104364801Y-58526998D01*
X104318308Y-58473342D01*
X104308204Y-58403068D01*
X104337698Y-58338488D01*
X104360651Y-58317787D01*
X104368287Y-58312440D01*
X104451781Y-58253977D01*
X104608977Y-58096781D01*
X104736488Y-57914677D01*
X104830440Y-57713196D01*
X104887978Y-57498463D01*
X104907353Y-57277000D01*
X104887978Y-57055537D01*
X104830440Y-56840804D01*
X104736488Y-56639324D01*
X104608977Y-56457219D01*
X104451781Y-56300023D01*
X104451777Y-56300020D01*
X104451772Y-56300016D01*
X104269677Y-56172512D01*
X104269675Y-56172511D01*
X104068199Y-56078561D01*
X104068193Y-56078559D01*
X103989230Y-56057401D01*
X103853463Y-56021022D01*
X103632000Y-56001647D01*
X103410537Y-56021022D01*
X103295463Y-56051856D01*
X103195806Y-56078559D01*
X103195801Y-56078561D01*
X102994323Y-56172512D01*
X102812222Y-56300020D01*
X102812216Y-56300025D01*
X102655025Y-56457216D01*
X102655020Y-56457222D01*
X102527512Y-56639323D01*
X102476195Y-56749373D01*
X102429277Y-56802658D01*
X102361000Y-56822119D01*
X102293040Y-56801577D01*
X102247805Y-56749373D01*
X102232129Y-56715757D01*
X102196488Y-56639324D01*
X102068977Y-56457219D01*
X102000155Y-56388397D01*
X101966129Y-56326085D01*
X101971194Y-56255270D01*
X102013741Y-56198434D01*
X102028553Y-56188885D01*
X102034607Y-56185555D01*
X102034617Y-56185552D01*
X102070392Y-56159558D01*
X102080298Y-56153051D01*
X102118362Y-56130542D01*
X102132685Y-56116218D01*
X102147724Y-56103374D01*
X102164107Y-56091472D01*
X102192303Y-56057386D01*
X102200272Y-56048630D01*
X102623657Y-55625245D01*
X102636092Y-55615284D01*
X102635905Y-55615057D01*
X102642016Y-55610001D01*
X102642015Y-55610001D01*
X102642018Y-55610000D01*
X102688676Y-55560312D01*
X102691367Y-55557535D01*
X102711134Y-55537770D01*
X102713617Y-55534567D01*
X102721308Y-55525562D01*
X102751586Y-55493321D01*
X102761345Y-55475567D01*
X102772197Y-55459046D01*
X102784613Y-55443041D01*
X102802168Y-55402470D01*
X102807392Y-55391808D01*
X102828695Y-55353060D01*
X102833733Y-55333435D01*
X102840138Y-55314730D01*
X102848181Y-55296145D01*
X102855096Y-55252476D01*
X102857503Y-55240856D01*
X102865480Y-55209792D01*
X102868500Y-55198030D01*
X102868500Y-55177769D01*
X102870051Y-55158058D01*
X102871644Y-55147999D01*
X102873219Y-55138057D01*
X102869059Y-55094045D01*
X102868500Y-55082188D01*
X102868500Y-53681062D01*
X102888502Y-53612941D01*
X102928353Y-53573821D01*
X102938346Y-53567658D01*
X103061658Y-53444346D01*
X103153209Y-53295920D01*
X103208062Y-53130381D01*
X103218500Y-53028213D01*
X103218499Y-52428788D01*
X103208062Y-52326619D01*
X103153209Y-52161080D01*
X103061658Y-52012654D01*
X103061657Y-52012653D01*
X103061652Y-52012647D01*
X102954100Y-51905095D01*
X102920074Y-51842783D01*
X102925139Y-51771968D01*
X102954100Y-51726905D01*
X103061652Y-51619352D01*
X103061658Y-51619346D01*
X103153209Y-51470920D01*
X103208062Y-51305381D01*
X103218500Y-51203213D01*
X103218499Y-50960725D01*
X103238501Y-50892605D01*
X103255399Y-50871634D01*
X103505653Y-50621381D01*
X103511158Y-50616198D01*
X103556052Y-50576427D01*
X103590112Y-50527081D01*
X103594613Y-50520965D01*
X103609889Y-50501467D01*
X103631585Y-50473775D01*
X103635651Y-50464739D01*
X103646852Y-50444879D01*
X103652480Y-50436727D01*
X103673742Y-50380662D01*
X103676632Y-50373684D01*
X103701252Y-50318982D01*
X103703036Y-50309239D01*
X103709162Y-50287265D01*
X103712673Y-50278010D01*
X103719900Y-50218486D01*
X103721038Y-50211010D01*
X103731850Y-50152014D01*
X103728230Y-50092166D01*
X103728000Y-50084559D01*
X103728000Y-49674866D01*
X103748002Y-49606745D01*
X103778490Y-49573998D01*
X103842261Y-49526261D01*
X103929889Y-49409204D01*
X103980989Y-49272201D01*
X103983481Y-49249027D01*
X103987499Y-49211649D01*
X103987500Y-49211632D01*
X103987500Y-48649938D01*
X104007502Y-48581817D01*
X104061158Y-48535324D01*
X104131432Y-48525220D01*
X104196012Y-48554714D01*
X104214368Y-48574430D01*
X104215739Y-48576261D01*
X104215740Y-48576262D01*
X104332792Y-48663887D01*
X104332794Y-48663888D01*
X104332796Y-48663889D01*
X104391875Y-48685924D01*
X104469795Y-48714988D01*
X104469803Y-48714990D01*
X104530350Y-48721499D01*
X104530355Y-48721499D01*
X104530362Y-48721500D01*
X104530368Y-48721500D01*
X105527632Y-48721500D01*
X105527638Y-48721500D01*
X105527645Y-48721499D01*
X105527649Y-48721499D01*
X105588196Y-48714990D01*
X105588199Y-48714989D01*
X105588201Y-48714989D01*
X105725204Y-48663889D01*
X105743841Y-48649938D01*
X105842261Y-48576261D01*
X105929887Y-48459207D01*
X105929887Y-48459206D01*
X105929889Y-48459204D01*
X105980989Y-48322201D01*
X105981577Y-48316739D01*
X105987499Y-48261649D01*
X105987500Y-48261632D01*
X105987500Y-47364367D01*
X105987499Y-47364350D01*
X105980990Y-47303803D01*
X105980988Y-47303795D01*
X105946159Y-47210417D01*
X105929889Y-47166796D01*
X105929888Y-47166794D01*
X105929887Y-47166792D01*
X105842261Y-47049738D01*
X105725207Y-46962112D01*
X105725202Y-46962110D01*
X105588204Y-46911011D01*
X105588196Y-46911009D01*
X105527649Y-46904500D01*
X105527638Y-46904500D01*
X104530362Y-46904500D01*
X104530350Y-46904500D01*
X104469803Y-46911009D01*
X104469795Y-46911011D01*
X104332797Y-46962110D01*
X104332792Y-46962112D01*
X104215739Y-47049738D01*
X104205432Y-47063508D01*
X104148597Y-47106055D01*
X104104563Y-47114000D01*
X100420928Y-47114000D01*
X100413321Y-47113770D01*
X100353485Y-47110151D01*
X100353484Y-47110151D01*
X100353483Y-47110151D01*
X100294522Y-47120956D01*
X100286998Y-47122101D01*
X100227494Y-47129326D01*
X100227492Y-47129326D01*
X100227490Y-47129327D01*
X100218215Y-47132843D01*
X100196270Y-47138961D01*
X100190693Y-47139983D01*
X100186517Y-47140749D01*
X100186514Y-47140750D01*
X100131853Y-47165350D01*
X100124827Y-47168260D01*
X100068772Y-47189520D01*
X100068768Y-47189522D01*
X100060610Y-47195153D01*
X100040760Y-47206349D01*
X100031726Y-47210415D01*
X100031723Y-47210417D01*
X99984524Y-47247393D01*
X99978399Y-47251900D01*
X99929071Y-47285949D01*
X99889317Y-47330821D01*
X99884101Y-47336361D01*
X99472867Y-47747595D01*
X99410555Y-47781621D01*
X99383773Y-47784500D01*
X99141287Y-47784500D01*
X99039119Y-47794937D01*
X98873579Y-47849791D01*
X98725153Y-47941342D01*
X98704593Y-47961902D01*
X98642280Y-47995926D01*
X98571464Y-47990860D01*
X98526404Y-47961900D01*
X98508745Y-47944241D01*
X98474719Y-47881929D01*
X98479784Y-47811114D01*
X98508745Y-47766050D01*
X98616262Y-47658533D01*
X98707751Y-47510207D01*
X98762568Y-47344776D01*
X98762569Y-47344773D01*
X98772999Y-47242684D01*
X98773000Y-47242684D01*
X98773000Y-47197000D01*
X97662000Y-47197000D01*
X97593879Y-47176998D01*
X97547386Y-47123342D01*
X97536000Y-47071000D01*
X97536000Y-46815000D01*
X97556002Y-46746879D01*
X97609658Y-46700386D01*
X97662000Y-46689000D01*
X98773000Y-46689000D01*
X98773000Y-46643315D01*
X98769494Y-46609000D01*
X102071000Y-46609000D01*
X102775000Y-46609000D01*
X102775000Y-45955000D01*
X103283000Y-45955000D01*
X103283000Y-46609000D01*
X103987000Y-46609000D01*
X103987000Y-46414414D01*
X103986999Y-46414402D01*
X103980494Y-46353906D01*
X103929444Y-46217035D01*
X103929444Y-46217034D01*
X103841904Y-46100095D01*
X103724965Y-46012555D01*
X103588093Y-45961505D01*
X103527597Y-45955000D01*
X103283000Y-45955000D01*
X102775000Y-45955000D01*
X102530402Y-45955000D01*
X102469906Y-45961505D01*
X102333035Y-46012555D01*
X102333034Y-46012555D01*
X102216095Y-46100095D01*
X102128555Y-46217034D01*
X102128555Y-46217035D01*
X102077505Y-46353906D01*
X102071000Y-46414402D01*
X102071000Y-46609000D01*
X98769494Y-46609000D01*
X98762569Y-46541226D01*
X98762568Y-46541223D01*
X98707751Y-46375792D01*
X98651722Y-46284956D01*
X98632985Y-46216477D01*
X98654244Y-46148738D01*
X98683455Y-46117940D01*
X98690200Y-46112890D01*
X98690204Y-46112889D01*
X98807261Y-46025261D01*
X98831423Y-45992984D01*
X98888257Y-45950438D01*
X98959073Y-45945372D01*
X98973902Y-45949563D01*
X99132953Y-46005217D01*
X99314000Y-46025616D01*
X99495047Y-46005217D01*
X99667015Y-45945043D01*
X99821281Y-45848111D01*
X99950111Y-45719281D01*
X100047043Y-45565015D01*
X100107217Y-45393047D01*
X100127616Y-45212000D01*
X100107217Y-45030953D01*
X100047043Y-44858985D01*
X100047041Y-44858982D01*
X100047041Y-44858981D01*
X99950112Y-44704720D01*
X99950111Y-44704718D01*
X99821281Y-44575888D01*
X99821279Y-44575887D01*
X99667018Y-44478958D01*
X99667015Y-44478957D01*
X99495050Y-44418784D01*
X99495049Y-44418783D01*
X99495047Y-44418783D01*
X99314000Y-44398384D01*
X99132952Y-44418783D01*
X98973905Y-44474436D01*
X98903001Y-44478054D01*
X98841396Y-44442765D01*
X98831423Y-44431015D01*
X98807261Y-44398738D01*
X98690207Y-44311112D01*
X98690202Y-44311110D01*
X98553204Y-44260011D01*
X98553196Y-44260009D01*
X98492649Y-44253500D01*
X98492638Y-44253500D01*
X97930105Y-44253500D01*
X97861984Y-44233498D01*
X97815491Y-44179842D01*
X97805387Y-44109568D01*
X97834881Y-44044988D01*
X97854597Y-44026631D01*
X97856904Y-44024903D01*
X97944444Y-43907965D01*
X97944444Y-43907964D01*
X97995494Y-43771093D01*
X98001999Y-43710597D01*
X98002000Y-43710585D01*
X98002000Y-43466000D01*
X97348000Y-43466000D01*
X97348000Y-44170670D01*
X97381221Y-44231508D01*
X97376156Y-44302323D01*
X97333611Y-44359158D01*
X97280738Y-44398739D01*
X97194868Y-44513448D01*
X97138032Y-44555995D01*
X97067216Y-44561059D01*
X97004904Y-44527034D01*
X96993132Y-44513448D01*
X96924835Y-44422215D01*
X96907261Y-44398739D01*
X96899934Y-44393254D01*
X96854389Y-44359158D01*
X96811843Y-44302322D01*
X96806779Y-44231507D01*
X96840000Y-44170667D01*
X96840000Y-43466000D01*
X96186000Y-43466000D01*
X96186000Y-43710597D01*
X96192505Y-43771093D01*
X96243555Y-43907964D01*
X96243555Y-43907965D01*
X96331095Y-44024903D01*
X96333403Y-44026631D01*
X96335132Y-44028941D01*
X96337468Y-44031277D01*
X96337132Y-44031612D01*
X96375950Y-44083467D01*
X96381016Y-44154283D01*
X96346991Y-44216595D01*
X96284679Y-44250620D01*
X96257895Y-44253500D01*
X95695350Y-44253500D01*
X95634803Y-44260009D01*
X95634795Y-44260011D01*
X95497797Y-44311110D01*
X95497792Y-44311112D01*
X95380738Y-44398738D01*
X95333001Y-44462509D01*
X95276165Y-44505056D01*
X95232133Y-44513000D01*
X92740195Y-44513000D01*
X92672074Y-44492998D01*
X92651100Y-44476095D01*
X92560352Y-44385347D01*
X92560346Y-44385342D01*
X92440001Y-44311112D01*
X92411920Y-44293791D01*
X92246381Y-44238938D01*
X92246379Y-44238937D01*
X92246377Y-44238937D01*
X92144221Y-44228500D01*
X91444787Y-44228500D01*
X91342619Y-44238937D01*
X91177079Y-44293791D01*
X91028653Y-44385342D01*
X91028647Y-44385347D01*
X91020741Y-44393254D01*
X90958429Y-44427280D01*
X90887614Y-44422215D01*
X90842551Y-44393254D01*
X90835039Y-44385742D01*
X90835033Y-44385737D01*
X90686707Y-44294248D01*
X90521276Y-44239431D01*
X90521273Y-44239430D01*
X90419184Y-44229000D01*
X90323500Y-44229000D01*
X90323500Y-46159309D01*
X90303498Y-46227430D01*
X90297000Y-46235493D01*
X90297000Y-47271500D01*
X90276998Y-47339621D01*
X90223342Y-47386114D01*
X90171000Y-47397500D01*
X89060000Y-47397500D01*
X89060000Y-47493175D01*
X89066261Y-47554458D01*
X89053286Y-47624259D01*
X89004633Y-47675964D01*
X88935750Y-47693158D01*
X88874768Y-47674506D01*
X88856738Y-47663385D01*
X88856737Y-47663384D01*
X88856736Y-47663384D01*
X88688427Y-47607613D01*
X88688420Y-47607612D01*
X88584553Y-47597000D01*
X87183455Y-47597000D01*
X87079574Y-47607612D01*
X86911261Y-47663385D01*
X86760347Y-47756470D01*
X86760341Y-47756475D01*
X86634975Y-47881841D01*
X86634970Y-47881847D01*
X86541885Y-48032762D01*
X86486113Y-48201072D01*
X86486112Y-48201079D01*
X86475500Y-48304946D01*
X86475500Y-48514500D01*
X86455498Y-48582621D01*
X86401842Y-48629114D01*
X86349500Y-48640500D01*
X85031469Y-48640500D01*
X84963348Y-48620498D01*
X84916855Y-48566842D01*
X84913422Y-48558556D01*
X84866889Y-48433796D01*
X84866886Y-48433792D01*
X84866886Y-48433791D01*
X84779261Y-48316738D01*
X84662207Y-48229112D01*
X84662202Y-48229110D01*
X84525204Y-48178011D01*
X84525196Y-48178009D01*
X84464649Y-48171500D01*
X84464638Y-48171500D01*
X82667362Y-48171500D01*
X82667350Y-48171500D01*
X82606803Y-48178009D01*
X82606795Y-48178011D01*
X82469797Y-48229110D01*
X82469792Y-48229112D01*
X82352738Y-48316738D01*
X82265112Y-48433792D01*
X82265110Y-48433797D01*
X82214011Y-48570795D01*
X82214009Y-48570803D01*
X82207500Y-48631350D01*
X82207500Y-50428649D01*
X82214009Y-50489196D01*
X82214011Y-50489204D01*
X82265110Y-50626202D01*
X82265112Y-50626207D01*
X82352738Y-50743261D01*
X82469792Y-50830887D01*
X82469796Y-50830889D01*
X82585312Y-50873975D01*
X82642148Y-50916522D01*
X82666958Y-50983042D01*
X82651866Y-51052416D01*
X82633981Y-51077367D01*
X82490674Y-51233041D01*
X82367580Y-51421451D01*
X82277179Y-51627543D01*
X82277176Y-51627550D01*
X82229455Y-51815999D01*
X82229456Y-51816000D01*
X83134884Y-51816000D01*
X83106507Y-51860156D01*
X83066000Y-51998111D01*
X83066000Y-52141889D01*
X83106507Y-52279844D01*
X83134884Y-52324000D01*
X82229455Y-52324000D01*
X82277176Y-52512449D01*
X82277179Y-52512456D01*
X82367580Y-52718548D01*
X82490674Y-52906958D01*
X82643097Y-53072534D01*
X82820698Y-53210767D01*
X82820699Y-53210768D01*
X83018628Y-53317882D01*
X83018630Y-53317883D01*
X83231483Y-53390955D01*
X83231492Y-53390957D01*
X83312000Y-53404391D01*
X83312000Y-52503674D01*
X83423685Y-52554680D01*
X83530237Y-52570000D01*
X83601763Y-52570000D01*
X83708315Y-52554680D01*
X83820000Y-52503674D01*
X83820000Y-53404390D01*
X83900507Y-53390957D01*
X83900516Y-53390955D01*
X84113369Y-53317883D01*
X84113371Y-53317882D01*
X84311300Y-53210768D01*
X84311301Y-53210767D01*
X84488902Y-53072534D01*
X84641325Y-52906958D01*
X84764419Y-52718548D01*
X84854820Y-52512456D01*
X84854823Y-52512449D01*
X84902544Y-52324000D01*
X83997116Y-52324000D01*
X84025493Y-52279844D01*
X84064499Y-52147000D01*
X86476000Y-52147000D01*
X86476000Y-52356016D01*
X86486605Y-52459818D01*
X86486606Y-52459821D01*
X86542342Y-52628025D01*
X86635365Y-52778839D01*
X86635370Y-52778845D01*
X86760654Y-52904129D01*
X86760660Y-52904134D01*
X86911474Y-52997157D01*
X87079678Y-53052893D01*
X87079681Y-53052894D01*
X87183483Y-53063499D01*
X87183483Y-53063500D01*
X87630000Y-53063500D01*
X87630000Y-52147000D01*
X86476000Y-52147000D01*
X84064499Y-52147000D01*
X84066000Y-52141889D01*
X84066000Y-51998111D01*
X84025493Y-51860156D01*
X83997116Y-51816000D01*
X84902544Y-51816000D01*
X84902544Y-51815999D01*
X84857722Y-51639000D01*
X86476000Y-51639000D01*
X87630000Y-51639000D01*
X87630000Y-50722500D01*
X87183483Y-50722500D01*
X87079681Y-50733105D01*
X87079678Y-50733106D01*
X86911474Y-50788842D01*
X86760660Y-50881865D01*
X86760654Y-50881870D01*
X86635370Y-51007154D01*
X86635365Y-51007160D01*
X86542342Y-51157974D01*
X86486606Y-51326178D01*
X86486605Y-51326181D01*
X86476000Y-51429983D01*
X86476000Y-51639000D01*
X84857722Y-51639000D01*
X84854823Y-51627550D01*
X84854820Y-51627543D01*
X84764419Y-51421451D01*
X84641325Y-51233041D01*
X84498018Y-51077367D01*
X84466598Y-51013702D01*
X84474585Y-50943156D01*
X84519444Y-50888127D01*
X84546679Y-50873977D01*
X84662204Y-50830889D01*
X84779261Y-50743261D01*
X84866889Y-50626204D01*
X84913414Y-50501464D01*
X84955960Y-50444632D01*
X85022481Y-50419821D01*
X85031469Y-50419500D01*
X87042075Y-50419500D01*
X87061785Y-50421050D01*
X87075190Y-50423174D01*
X87141999Y-50419672D01*
X87148593Y-50419500D01*
X87168612Y-50419500D01*
X87168620Y-50419500D01*
X87188578Y-50417401D01*
X87195041Y-50416892D01*
X87261915Y-50413389D01*
X87275020Y-50409876D01*
X87294471Y-50406272D01*
X87307956Y-50404855D01*
X87307958Y-50404854D01*
X87307960Y-50404854D01*
X87371573Y-50384184D01*
X87377902Y-50382309D01*
X87442524Y-50364994D01*
X87454613Y-50358833D01*
X87472877Y-50351268D01*
X87485785Y-50347075D01*
X87485788Y-50347073D01*
X87485789Y-50347073D01*
X87508370Y-50334035D01*
X87543729Y-50313619D01*
X87549489Y-50310491D01*
X87609125Y-50280107D01*
X87619671Y-50271565D01*
X87635959Y-50260371D01*
X87647715Y-50253585D01*
X87647718Y-50253581D01*
X87647720Y-50253581D01*
X87697427Y-50208824D01*
X87702434Y-50204545D01*
X87718006Y-50191937D01*
X87732178Y-50177763D01*
X87736949Y-50173237D01*
X87786664Y-50128475D01*
X87786665Y-50128473D01*
X87786669Y-50128470D01*
X87794654Y-50117478D01*
X87807477Y-50102464D01*
X87934040Y-49975901D01*
X87996350Y-49941878D01*
X88023133Y-49938999D01*
X88584544Y-49938999D01*
X88688426Y-49928387D01*
X88856738Y-49872615D01*
X88961354Y-49808086D01*
X89029832Y-49789350D01*
X89097571Y-49810609D01*
X89143063Y-49865116D01*
X89153500Y-49915328D01*
X89153500Y-50746260D01*
X89133498Y-50814381D01*
X89079842Y-50860874D01*
X89009568Y-50870978D01*
X88961353Y-50853501D01*
X88856525Y-50788842D01*
X88688321Y-50733106D01*
X88688318Y-50733105D01*
X88584516Y-50722500D01*
X88138000Y-50722500D01*
X88138000Y-53063500D01*
X88584517Y-53063500D01*
X88584516Y-53063499D01*
X88688318Y-53052894D01*
X88688321Y-53052893D01*
X88856528Y-52997156D01*
X88961353Y-52932499D01*
X89029832Y-52913761D01*
X89097571Y-52935020D01*
X89143063Y-52989527D01*
X89153500Y-53039739D01*
X89153500Y-53402301D01*
X89134742Y-53468446D01*
X89124792Y-53484576D01*
X89069937Y-53650122D01*
X89059500Y-53752278D01*
X89059500Y-54451712D01*
X89069937Y-54553880D01*
X89104706Y-54658807D01*
X89124791Y-54719420D01*
X89216342Y-54867846D01*
X89224252Y-54875756D01*
X89258278Y-54938065D01*
X89253216Y-55008881D01*
X89224258Y-55053945D01*
X89216737Y-55061466D01*
X89125248Y-55209792D01*
X89070431Y-55375223D01*
X89070430Y-55375226D01*
X89060000Y-55477315D01*
X89060000Y-55573000D01*
X90785501Y-55573000D01*
X90822405Y-55536096D01*
X90825692Y-55539383D01*
X90859158Y-55510386D01*
X90911500Y-55499000D01*
X92002000Y-55499000D01*
X92070121Y-55519002D01*
X92116614Y-55572658D01*
X92128000Y-55625000D01*
X92128000Y-56741477D01*
X92155438Y-56791725D01*
X92157525Y-56832614D01*
X92152415Y-56877972D01*
X92150384Y-56896000D01*
X92170783Y-57077047D01*
X92170783Y-57077049D01*
X92170784Y-57077050D01*
X92230957Y-57249015D01*
X92230958Y-57249018D01*
X92327887Y-57403279D01*
X92327888Y-57403281D01*
X92456716Y-57532109D01*
X92456718Y-57532110D01*
X92456719Y-57532111D01*
X92547942Y-57589430D01*
X92594979Y-57642608D01*
X92605799Y-57712775D01*
X92605353Y-57715830D01*
X92597901Y-57762875D01*
X92595495Y-57774497D01*
X92584947Y-57815579D01*
X92548632Y-57876585D01*
X92485100Y-57908274D01*
X92423274Y-57903849D01*
X92275667Y-57854938D01*
X92275665Y-57854937D01*
X92275663Y-57854937D01*
X92173507Y-57844500D01*
X91574073Y-57844500D01*
X91471905Y-57854937D01*
X91306365Y-57909791D01*
X91157939Y-58001342D01*
X91157933Y-58001347D01*
X91050381Y-58108900D01*
X90988069Y-58142926D01*
X90917254Y-58137861D01*
X90872191Y-58108900D01*
X90764638Y-58001347D01*
X90764630Y-58001340D01*
X90669521Y-57942676D01*
X90627222Y-57899586D01*
X90624498Y-57894981D01*
X90615794Y-57877216D01*
X90608338Y-57858383D01*
X90608337Y-57858381D01*
X90608336Y-57858379D01*
X90582350Y-57822613D01*
X90575831Y-57812689D01*
X90571063Y-57804627D01*
X90553328Y-57774637D01*
X90553327Y-57774635D01*
X90539004Y-57760312D01*
X90526163Y-57745279D01*
X90514258Y-57728893D01*
X90503868Y-57720298D01*
X90464131Y-57661466D01*
X90458976Y-57637319D01*
X90455217Y-57603954D01*
X90455217Y-57603953D01*
X90395043Y-57431985D01*
X90395041Y-57431982D01*
X90395041Y-57431981D01*
X90298112Y-57277720D01*
X90298111Y-57277718D01*
X90169281Y-57148888D01*
X90169279Y-57148887D01*
X90099731Y-57105187D01*
X90052693Y-57052009D01*
X90041873Y-56981842D01*
X90070706Y-56916963D01*
X90130037Y-56877972D01*
X90166767Y-56872500D01*
X90330185Y-56872500D01*
X90330184Y-56872499D01*
X90432273Y-56862069D01*
X90432276Y-56862068D01*
X90597707Y-56807251D01*
X90746033Y-56715762D01*
X90746039Y-56715757D01*
X90869260Y-56592536D01*
X90881923Y-56572006D01*
X90934709Y-56524528D01*
X91004784Y-56513124D01*
X91069900Y-56541416D01*
X91078260Y-56549057D01*
X91108460Y-56579257D01*
X91108466Y-56579262D01*
X91256792Y-56670751D01*
X91422223Y-56725568D01*
X91422226Y-56725569D01*
X91524315Y-56735999D01*
X91524315Y-56736000D01*
X91620000Y-56736000D01*
X91620000Y-56007000D01*
X91068999Y-56007000D01*
X91032095Y-56043904D01*
X91028807Y-56040616D01*
X90995342Y-56069614D01*
X90943000Y-56081000D01*
X89060000Y-56081000D01*
X89060000Y-56176684D01*
X89070430Y-56278773D01*
X89070431Y-56278776D01*
X89125248Y-56444207D01*
X89216737Y-56592533D01*
X89216742Y-56592539D01*
X89339960Y-56715757D01*
X89339966Y-56715762D01*
X89451444Y-56784522D01*
X89498922Y-56837308D01*
X89510325Y-56907383D01*
X89482033Y-56972498D01*
X89426913Y-57010692D01*
X89308981Y-57051958D01*
X89154720Y-57148887D01*
X89154718Y-57148888D01*
X89025888Y-57277718D01*
X89025887Y-57277720D01*
X88928958Y-57431981D01*
X88928957Y-57431984D01*
X88870577Y-57598827D01*
X88868783Y-57603953D01*
X88848384Y-57785000D01*
X88868783Y-57966047D01*
X88868783Y-57966049D01*
X88868784Y-57966050D01*
X88928957Y-58138015D01*
X88928958Y-58138018D01*
X89025885Y-58292277D01*
X89025888Y-58292280D01*
X89025889Y-58292281D01*
X89035396Y-58301788D01*
X89069423Y-58364098D01*
X89065909Y-58430514D01*
X89063224Y-58438616D01*
X89063223Y-58438618D01*
X89052786Y-58540778D01*
X89052786Y-59115212D01*
X89063223Y-59217380D01*
X89118077Y-59382920D01*
X89209628Y-59531346D01*
X89209633Y-59531352D01*
X89293040Y-59614759D01*
X89327066Y-59677071D01*
X89322001Y-59747886D01*
X89293040Y-59792949D01*
X89210028Y-59875960D01*
X89210023Y-59875966D01*
X89118534Y-60024292D01*
X89063717Y-60189723D01*
X89063716Y-60189726D01*
X89053286Y-60291815D01*
X89053286Y-60325000D01*
X90176786Y-60325000D01*
X90244907Y-60345002D01*
X90291400Y-60398658D01*
X90302786Y-60451000D01*
X90302786Y-60707000D01*
X90282784Y-60775121D01*
X90229128Y-60821614D01*
X90176786Y-60833000D01*
X89053286Y-60833000D01*
X89053286Y-60866184D01*
X89063716Y-60968273D01*
X89063717Y-60968276D01*
X89118534Y-61133707D01*
X89210023Y-61282033D01*
X89210028Y-61282039D01*
X89309394Y-61381405D01*
X89343420Y-61443717D01*
X89338355Y-61514532D01*
X89295808Y-61571368D01*
X89229288Y-61596179D01*
X89220299Y-61596500D01*
X89087595Y-61596500D01*
X89019474Y-61576498D01*
X88998499Y-61559595D01*
X88808404Y-61369499D01*
X88774379Y-61307187D01*
X88771500Y-61280404D01*
X88771500Y-58884854D01*
X88773249Y-58869012D01*
X88772956Y-58868985D01*
X88773700Y-58861099D01*
X88773702Y-58861092D01*
X88771562Y-58793000D01*
X88771500Y-58789042D01*
X88771500Y-58761150D01*
X88771500Y-58761144D01*
X88770993Y-58757135D01*
X88770062Y-58745306D01*
X88769520Y-58728047D01*
X88768674Y-58701111D01*
X88763020Y-58681652D01*
X88759012Y-58662297D01*
X88756474Y-58642203D01*
X88740195Y-58601087D01*
X88736356Y-58589872D01*
X88727974Y-58561022D01*
X88724019Y-58547407D01*
X88717569Y-58536501D01*
X88713703Y-58529964D01*
X88705005Y-58512209D01*
X88697552Y-58493383D01*
X88671563Y-58457612D01*
X88665052Y-58447700D01*
X88642542Y-58409638D01*
X88628214Y-58395310D01*
X88615384Y-58380289D01*
X88603472Y-58363893D01*
X88603469Y-58363891D01*
X88603469Y-58363890D01*
X88569400Y-58335705D01*
X88560621Y-58327717D01*
X88010241Y-57777336D01*
X88000280Y-57764901D01*
X88000053Y-57765090D01*
X87995000Y-57758982D01*
X87945348Y-57712356D01*
X87942504Y-57709599D01*
X87922777Y-57689871D01*
X87922771Y-57689866D01*
X87919567Y-57687380D01*
X87910556Y-57679683D01*
X87878325Y-57649417D01*
X87878319Y-57649413D01*
X87860563Y-57639651D01*
X87844047Y-57628802D01*
X87828041Y-57616386D01*
X87787464Y-57598827D01*
X87776807Y-57593605D01*
X87738063Y-57572306D01*
X87738060Y-57572305D01*
X87718436Y-57567266D01*
X87699736Y-57560864D01*
X87681145Y-57552819D01*
X87681143Y-57552818D01*
X87681141Y-57552818D01*
X87637474Y-57545901D01*
X87625855Y-57543495D01*
X87583030Y-57532500D01*
X87562776Y-57532500D01*
X87543066Y-57530949D01*
X87523057Y-57527780D01*
X87479039Y-57531941D01*
X87467181Y-57532500D01*
X85050500Y-57532500D01*
X84982379Y-57512498D01*
X84935886Y-57458842D01*
X84924500Y-57406500D01*
X84924500Y-57267367D01*
X84924499Y-57267350D01*
X84917990Y-57206803D01*
X84917988Y-57206795D01*
X84880089Y-57105187D01*
X84866889Y-57069796D01*
X84866888Y-57069794D01*
X84866887Y-57069792D01*
X84779261Y-56952738D01*
X84662207Y-56865112D01*
X84662202Y-56865110D01*
X84525204Y-56814011D01*
X84525196Y-56814009D01*
X84464649Y-56807500D01*
X84464638Y-56807500D01*
X82667362Y-56807500D01*
X82667350Y-56807500D01*
X82606803Y-56814009D01*
X82606795Y-56814011D01*
X82469797Y-56865110D01*
X82469792Y-56865112D01*
X82352738Y-56952738D01*
X82265112Y-57069792D01*
X82265110Y-57069797D01*
X82214011Y-57206795D01*
X82214009Y-57206803D01*
X82207500Y-57267350D01*
X82207500Y-59064649D01*
X82214009Y-59125196D01*
X82214011Y-59125204D01*
X82265110Y-59262202D01*
X82265112Y-59262207D01*
X82352738Y-59379261D01*
X82469791Y-59466886D01*
X82469792Y-59466886D01*
X82469796Y-59466889D01*
X82584810Y-59509787D01*
X82641642Y-59552332D01*
X82666453Y-59618852D01*
X82651362Y-59688226D01*
X82633475Y-59713179D01*
X82490280Y-59868729D01*
X82490275Y-59868734D01*
X82367141Y-60057206D01*
X82276703Y-60263386D01*
X82276702Y-60263387D01*
X82221437Y-60481624D01*
X82221436Y-60481630D01*
X82221436Y-60481632D01*
X82202844Y-60706000D01*
X82220700Y-60921488D01*
X82221437Y-60930375D01*
X82276702Y-61148612D01*
X82276703Y-61148613D01*
X82276704Y-61148616D01*
X82364449Y-61348656D01*
X82367141Y-61354793D01*
X82490275Y-61543265D01*
X82490279Y-61543270D01*
X82597133Y-61659342D01*
X82634491Y-61699924D01*
X82642762Y-61708908D01*
X82696787Y-61750957D01*
X82820424Y-61847189D01*
X82853680Y-61865186D01*
X82904071Y-61915200D01*
X82919423Y-61984516D01*
X82894862Y-62051129D01*
X82853680Y-62086813D01*
X82820426Y-62104810D01*
X82820424Y-62104811D01*
X82642762Y-62243091D01*
X82490279Y-62408729D01*
X82490275Y-62408734D01*
X82367141Y-62597206D01*
X82276703Y-62803386D01*
X82276702Y-62803387D01*
X82221437Y-63021624D01*
X82221436Y-63021630D01*
X82221436Y-63021632D01*
X82202844Y-63246000D01*
X81907500Y-63246000D01*
X81907500Y-45466000D01*
X89024000Y-45466000D01*
X89024000Y-45499184D01*
X89034430Y-45601273D01*
X89034431Y-45601276D01*
X89089248Y-45766707D01*
X89180737Y-45915033D01*
X89180742Y-45915039D01*
X89303960Y-46038257D01*
X89303969Y-46038264D01*
X89324835Y-46051135D01*
X89372313Y-46103922D01*
X89383715Y-46173997D01*
X89355421Y-46239112D01*
X89344934Y-46249325D01*
X89345156Y-46249547D01*
X89216742Y-46377960D01*
X89216737Y-46377966D01*
X89125248Y-46526292D01*
X89070431Y-46691723D01*
X89070430Y-46691726D01*
X89060000Y-46793815D01*
X89060000Y-46889500D01*
X89789000Y-46889500D01*
X89789000Y-46133691D01*
X89809002Y-46065570D01*
X89815500Y-46057506D01*
X89815500Y-45466000D01*
X89024000Y-45466000D01*
X81907500Y-45466000D01*
X81907500Y-44958000D01*
X89024000Y-44958000D01*
X89815500Y-44958000D01*
X89815500Y-44229000D01*
X89719815Y-44229000D01*
X89617726Y-44239430D01*
X89617723Y-44239431D01*
X89452292Y-44294248D01*
X89303966Y-44385737D01*
X89303960Y-44385742D01*
X89180742Y-44508960D01*
X89180737Y-44508966D01*
X89089248Y-44657292D01*
X89034431Y-44822723D01*
X89034430Y-44822726D01*
X89024000Y-44924815D01*
X89024000Y-44958000D01*
X81907500Y-44958000D01*
X81907500Y-42958000D01*
X96186000Y-42958000D01*
X96840000Y-42958000D01*
X96840000Y-42254000D01*
X97348000Y-42254000D01*
X97348000Y-42958000D01*
X98002000Y-42958000D01*
X98002000Y-42713414D01*
X98001999Y-42713402D01*
X97995494Y-42652906D01*
X97944444Y-42516035D01*
X97944444Y-42516034D01*
X97856904Y-42399095D01*
X97739965Y-42311555D01*
X97603093Y-42260505D01*
X97542597Y-42254000D01*
X97348000Y-42254000D01*
X96840000Y-42254000D01*
X96645402Y-42254000D01*
X96584906Y-42260505D01*
X96448035Y-42311555D01*
X96448034Y-42311555D01*
X96331095Y-42399095D01*
X96243555Y-42516034D01*
X96243555Y-42516035D01*
X96192505Y-42652906D01*
X96186000Y-42713402D01*
X96186000Y-42958000D01*
X81907500Y-42958000D01*
X81907500Y-41909000D01*
X81927502Y-41840879D01*
X81981158Y-41794386D01*
X82033500Y-41783000D01*
X122055500Y-41783000D01*
X122123621Y-41803002D01*
G37*
G04 #@! TD.AperFunction*
M02*
