M48
; DRILL file {KiCad 7.0.11-2.fc39} date dim. 28 avril 2024 14:43:50
; FORMAT={-:-/ absolute / metric / decimal}
; #@! TF.CreationDate,2024-04-28T14:43:50+02:00
; #@! TF.GenerationSoftware,Kicad,Pcbnew,7.0.11-2.fc39
; #@! TF.FileFunction,Plated,1,4,PTH
FMAT,2
METRIC
; #@! TA.AperFunction,Plated,PTH,ViaDrill
T1C0.300
; #@! TA.AperFunction,Plated,PTH,ViaDrill
T2C0.400
; #@! TA.AperFunction,Plated,PTH,ComponentDrill
T3C0.762
; #@! TA.AperFunction,Plated,PTH,ComponentDrill
T4C1.000
%
G90
G05
T1
X83.058Y-42.291
X83.058Y-70.485
X83.058Y-84.455
X85.852Y-47.879
X88.138Y-55.88
X88.392Y-67.437
X88.519Y-77.851
X89.281Y-42.291
X89.281Y-84.455
X89.662Y-57.785
X89.662Y-65.786
X90.17Y-75.184
X91.313Y-50.546
X91.44Y-80.772
X91.694Y-76.962
X92.964Y-56.896
X93.091Y-51.689
X93.091Y-70.231
X93.091Y-71.12
X94.44Y-78.78
X94.488Y-62.065
X94.488Y-62.865
X95.123Y-51.181
X95.123Y-73.152
X95.25Y-80.518
X95.504Y-42.291
X96.52Y-66.294
X96.52Y-74.041
X96.774Y-68.707
X96.901Y-69.977
X97.028Y-62.23
X97.028Y-71.106
X97.409Y-51.689
X98.171Y-66.294
X98.171Y-70.739
X98.171Y-78.994
X99.06Y-61.976
X99.314Y-45.212
X99.314Y-54.356
X99.314Y-70.739
X99.695Y-69.342
X99.822Y-66.294
X100.584Y-52.578
X101.092Y-73.914
X101.219Y-67.437
X101.219Y-81.534
X101.346Y-68.326
X101.727Y-42.291
X101.727Y-66.802
X102.743Y-76.708
X103.124Y-64.135
X104.394Y-54.356
X104.521Y-65.659
X104.521Y-66.929
X106.807Y-58.547
X107.696Y-62.484
X107.95Y-42.291
X107.95Y-49.276
X109.093Y-74.422
X109.601Y-54.991
X109.601Y-68.961
X111.633Y-61.087
X112.649Y-61.976
X112.649Y-75.819
X114.173Y-42.291
X114.173Y-49.276
X114.173Y-84.455
X114.3Y-66.04
X114.427Y-68.707
X115.062Y-55.753
X115.062Y-60.96
X115.189Y-69.469
X115.443Y-65.405
X116.332Y-62.865
X116.332Y-79.629
X117.348Y-76.454
X117.602Y-72.517
X120.269Y-42.291
X120.269Y-49.276
X120.269Y-56.261
X120.269Y-63.246
X120.269Y-84.455
T2
X112.268Y-78.486
T3
X96.012Y-57.277
X96.012Y-59.817
X98.552Y-57.277
X98.552Y-59.817
X101.092Y-57.277
X101.092Y-59.817
X103.632Y-57.277
X103.632Y-59.817
T4
X84.201Y-49.53
X84.201Y-52.07
X84.201Y-58.166
X84.201Y-60.706
X84.201Y-63.246
X84.201Y-65.786
X84.201Y-73.787
X84.201Y-76.327
X84.201Y-78.867
X94.869Y-83.312
X97.028Y-76.327
X97.409Y-83.312
X99.949Y-83.312
X100.076Y-76.327
X102.489Y-83.312
X105.029Y-83.312
X106.299Y-63.749
X106.299Y-66.289
X107.569Y-83.312
X119.126Y-66.294
X119.126Y-68.834
X119.126Y-71.374
X119.126Y-73.914
X119.126Y-76.454
X119.126Y-78.994
M30
