G04 #@! TF.GenerationSoftware,KiCad,Pcbnew,7.0.11-2.fc39*
G04 #@! TF.CreationDate,2024-05-22T12:02:30+02:00*
G04 #@! TF.ProjectId,home_automation_module_std,686f6d65-5f61-4757-946f-6d6174696f6e,1.0*
G04 #@! TF.SameCoordinates,Original*
G04 #@! TF.FileFunction,Legend,Bot*
G04 #@! TF.FilePolarity,Positive*
%FSLAX46Y46*%
G04 Gerber Fmt 4.6, Leading zero omitted, Abs format (unit mm)*
G04 Created by KiCad (PCBNEW 7.0.11-2.fc39) date 2024-05-22 12:02:30*
%MOMM*%
%LPD*%
G01*
G04 APERTURE LIST*
G04 Aperture macros list*
%AMRoundRect*
0 Rectangle with rounded corners*
0 $1 Rounding radius*
0 $2 $3 $4 $5 $6 $7 $8 $9 X,Y pos of 4 corners*
0 Add a 4 corners polygon primitive as box body*
4,1,4,$2,$3,$4,$5,$6,$7,$8,$9,$2,$3,0*
0 Add four circle primitives for the rounded corners*
1,1,$1+$1,$2,$3*
1,1,$1+$1,$4,$5*
1,1,$1+$1,$6,$7*
1,1,$1+$1,$8,$9*
0 Add four rect primitives between the rounded corners*
20,1,$1+$1,$2,$3,$4,$5,0*
20,1,$1+$1,$4,$5,$6,$7,0*
20,1,$1+$1,$6,$7,$8,$9,0*
20,1,$1+$1,$8,$9,$2,$3,0*%
G04 Aperture macros list end*
%ADD10C,0.150000*%
%ADD11C,0.120000*%
%ADD12R,1.700000X1.700000*%
%ADD13O,1.700000X1.700000*%
%ADD14RoundRect,0.237500X-0.237500X0.250000X-0.237500X-0.250000X0.237500X-0.250000X0.237500X0.250000X0*%
%ADD15R,0.900000X0.800000*%
%ADD16RoundRect,0.237500X-0.300000X-0.237500X0.300000X-0.237500X0.300000X0.237500X-0.300000X0.237500X0*%
%ADD17RoundRect,0.237500X-0.250000X-0.237500X0.250000X-0.237500X0.250000X0.237500X-0.250000X0.237500X0*%
%ADD18RoundRect,0.237500X-0.237500X0.300000X-0.237500X-0.300000X0.237500X-0.300000X0.237500X0.300000X0*%
%ADD19RoundRect,0.237500X0.300000X0.237500X-0.300000X0.237500X-0.300000X-0.237500X0.300000X-0.237500X0*%
%ADD20R,0.600000X0.500000*%
%ADD21RoundRect,0.237500X0.237500X-0.250000X0.237500X0.250000X-0.237500X0.250000X-0.237500X-0.250000X0*%
%ADD22R,1.524000X1.524000*%
%ADD23C,1.524000*%
%ADD24RoundRect,0.150000X-0.512500X-0.150000X0.512500X-0.150000X0.512500X0.150000X-0.512500X0.150000X0*%
%ADD25RoundRect,0.237500X0.250000X0.237500X-0.250000X0.237500X-0.250000X-0.237500X0.250000X-0.237500X0*%
%ADD26R,0.700000X0.450000*%
%ADD27R,0.800000X0.900000*%
%ADD28RoundRect,0.250000X-0.650000X0.412500X-0.650000X-0.412500X0.650000X-0.412500X0.650000X0.412500X0*%
%ADD29R,1.000000X1.000000*%
%ADD30RoundRect,0.237500X0.237500X-0.300000X0.237500X0.300000X-0.237500X0.300000X-0.237500X-0.300000X0*%
G04 APERTURE END LIST*
D10*
X107086819Y-59007476D02*
X106086819Y-59007476D01*
X106086819Y-59007476D02*
X106801104Y-59340809D01*
X106801104Y-59340809D02*
X106086819Y-59674142D01*
X106086819Y-59674142D02*
X107086819Y-59674142D01*
X107086819Y-60674142D02*
X107086819Y-60102714D01*
X107086819Y-60388428D02*
X106086819Y-60388428D01*
X106086819Y-60388428D02*
X106229676Y-60293190D01*
X106229676Y-60293190D02*
X106324914Y-60197952D01*
X106324914Y-60197952D02*
X106372533Y-60102714D01*
D11*
X98693500Y-66142776D02*
X98693500Y-66652224D01*
X97648500Y-66142776D02*
X97648500Y-66652224D01*
X88914500Y-74802276D02*
X88914500Y-75311724D01*
X87869500Y-74802276D02*
X87869500Y-75311724D01*
X104789000Y-46233000D02*
X103329000Y-46233000D01*
X104789000Y-46233000D02*
X104789000Y-47163000D01*
X104789000Y-49393000D02*
X102629000Y-49393000D01*
X104789000Y-49393000D02*
X104789000Y-48463000D01*
X102369233Y-68578000D02*
X102661767Y-68578000D01*
X102369233Y-69598000D02*
X102661767Y-69598000D01*
X90706562Y-60056500D02*
X91216010Y-60056500D01*
X90706562Y-61101500D02*
X91216010Y-61101500D01*
X90553000Y-54818233D02*
X90553000Y-55110767D01*
X89533000Y-54818233D02*
X89533000Y-55110767D01*
X96661500Y-47600776D02*
X96661500Y-48110224D01*
X95616500Y-47600776D02*
X95616500Y-48110224D01*
X93644767Y-51056000D02*
X93352233Y-51056000D01*
X93644767Y-50036000D02*
X93352233Y-50036000D01*
D10*
X98866200Y-80754400D02*
X96866200Y-80754400D01*
X97866200Y-78554400D02*
X96866200Y-78554400D01*
D11*
X97267500Y-48110224D02*
X97267500Y-47600776D01*
X98312500Y-48110224D02*
X98312500Y-47600776D01*
X90282000Y-61417000D02*
X105732000Y-61417000D01*
X105732000Y-61417000D02*
X105732000Y-61417000D01*
X105732000Y-61417000D02*
X105732000Y-32217000D01*
X94488000Y-61087000D02*
X94488000Y-61087000D01*
X94488000Y-61087000D02*
X105156000Y-61087000D01*
X105156000Y-61087000D02*
X105156000Y-61087000D01*
X105156000Y-61087000D02*
X105156000Y-55753000D01*
X102362000Y-60833000D02*
X102362000Y-60833000D01*
X102362000Y-58547000D02*
X102362000Y-60833000D01*
X104648000Y-58547000D02*
X102362000Y-58547000D01*
X94488000Y-55753000D02*
X94488000Y-61087000D01*
X105156000Y-55753000D02*
X94488000Y-55753000D01*
X105664000Y-39497000D02*
X90297000Y-39497000D01*
X90282000Y-32217000D02*
X90282000Y-61417000D01*
X105732000Y-32217000D02*
X90282000Y-32217000D01*
X93096500Y-51592000D02*
X92296500Y-51592000D01*
X93096500Y-51592000D02*
X93896500Y-51592000D01*
X93096500Y-54712000D02*
X91296500Y-54712000D01*
X93096500Y-54712000D02*
X93896500Y-54712000D01*
X91078267Y-45722000D02*
X90785733Y-45722000D01*
X91078267Y-44702000D02*
X90785733Y-44702000D01*
X102369233Y-70229000D02*
X102661767Y-70229000D01*
X102369233Y-71249000D02*
X102661767Y-71249000D01*
X100312000Y-50109000D02*
X98852000Y-50109000D01*
X100312000Y-50109000D02*
X100312000Y-51039000D01*
X100312000Y-53269000D02*
X98152000Y-53269000D01*
X100312000Y-53269000D02*
X100312000Y-52339000D01*
X91216010Y-59350500D02*
X90706562Y-59350500D01*
X91216010Y-58305500D02*
X90706562Y-58305500D01*
X102757500Y-51561276D02*
X102757500Y-52070724D01*
X101712500Y-51561276D02*
X101712500Y-52070724D01*
X100344500Y-66142776D02*
X100344500Y-66652224D01*
X99299500Y-66142776D02*
X99299500Y-66652224D01*
X90252000Y-61720000D02*
X91662000Y-61720000D01*
X91662000Y-62380000D02*
X91662000Y-61720000D01*
X91662000Y-64040000D02*
X89632000Y-64040000D01*
X91662000Y-64040000D02*
X91662000Y-63380000D01*
X95514000Y-43452000D02*
X95514000Y-44912000D01*
X95514000Y-43452000D02*
X96444000Y-43452000D01*
X98674000Y-43452000D02*
X98674000Y-45612000D01*
X98674000Y-43452000D02*
X97744000Y-43452000D01*
X93096500Y-46380000D02*
X92296500Y-46380000D01*
X93096500Y-46380000D02*
X93896500Y-46380000D01*
X93096500Y-49500000D02*
X91296500Y-49500000D01*
X93096500Y-49500000D02*
X93896500Y-49500000D01*
X88794000Y-49619248D02*
X88794000Y-51041752D01*
X86974000Y-49619248D02*
X86974000Y-51041752D01*
X100608224Y-49290500D02*
X100098776Y-49290500D01*
X100608224Y-48245500D02*
X100098776Y-48245500D01*
X97243000Y-49896000D02*
X97243000Y-53046000D01*
X95543000Y-49896000D02*
X97243000Y-49896000D01*
X95543000Y-49896000D02*
X95543000Y-53046000D01*
X89533000Y-48152267D02*
X89533000Y-47859733D01*
X90553000Y-48152267D02*
X90553000Y-47859733D01*
X97648500Y-70081224D02*
X97648500Y-69571776D01*
X98693500Y-70081224D02*
X98693500Y-69571776D01*
X97042500Y-66142776D02*
X97042500Y-66652224D01*
X95997500Y-66142776D02*
X95997500Y-66652224D01*
X92882767Y-56263000D02*
X92590233Y-56263000D01*
X92882767Y-55243000D02*
X92590233Y-55243000D01*
X95760000Y-79509233D02*
X95760000Y-79801767D01*
X94740000Y-79509233D02*
X94740000Y-79801767D01*
%LPC*%
D12*
X120523000Y-66294000D03*
D13*
X120523000Y-68834000D03*
X120523000Y-71374000D03*
X120523000Y-73914000D03*
X120523000Y-76454000D03*
X120523000Y-78994000D03*
D12*
X107569000Y-84836000D03*
D13*
X105029000Y-84836000D03*
X102489000Y-84836000D03*
X99949000Y-84836000D03*
X97409000Y-84836000D03*
X94869000Y-84836000D03*
X100076000Y-76327000D03*
D12*
X83566000Y-73787000D03*
D13*
X83566000Y-76327000D03*
X83566000Y-78867000D03*
D12*
X83566000Y-58166000D03*
D13*
X83566000Y-60706000D03*
X83566000Y-63246000D03*
X83566000Y-65786000D03*
X97028000Y-76327000D03*
D12*
X106299000Y-63749000D03*
D13*
X106299000Y-66289000D03*
D12*
X83566000Y-49530000D03*
D13*
X83566000Y-52070000D03*
D14*
X98171000Y-65485000D03*
X98171000Y-67310000D03*
X88392000Y-74144500D03*
X88392000Y-75969500D03*
D15*
X103029000Y-48763000D03*
X103029000Y-46863000D03*
X105029000Y-47813000D03*
D16*
X101653000Y-69088000D03*
X103378000Y-69088000D03*
D17*
X90048786Y-60579000D03*
X91873786Y-60579000D03*
D18*
X90043000Y-54102000D03*
X90043000Y-55827000D03*
D14*
X96139000Y-46943000D03*
X96139000Y-48768000D03*
D19*
X94361000Y-50546000D03*
X92636000Y-50546000D03*
D20*
X99110800Y-78867000D03*
X99110800Y-79679800D03*
X99110800Y-80467200D03*
X96647000Y-80467200D03*
X96647000Y-79679800D03*
X96647000Y-78867000D03*
D21*
X97790000Y-48768000D03*
X97790000Y-46943000D03*
D22*
X103632000Y-59817000D03*
D23*
X103632000Y-57277000D03*
X101092000Y-59817000D03*
X101092000Y-57277000D03*
X98552000Y-59817000D03*
X98552000Y-57277000D03*
X96012000Y-59817000D03*
X96012000Y-57277000D03*
D24*
X91959000Y-54102000D03*
X91959000Y-53152000D03*
X91959000Y-52202000D03*
X94234000Y-52202000D03*
X94234000Y-54102000D03*
D19*
X91794500Y-45212000D03*
X90069500Y-45212000D03*
D16*
X101653000Y-70739000D03*
X103378000Y-70739000D03*
D15*
X98552000Y-52639000D03*
X98552000Y-50739000D03*
X100552000Y-51689000D03*
D25*
X91873786Y-58828000D03*
X90048786Y-58828000D03*
D14*
X102235000Y-50903500D03*
X102235000Y-52728500D03*
X99822000Y-65485000D03*
X99822000Y-67310000D03*
D26*
X89932000Y-63530000D03*
X89932000Y-62230000D03*
X91932000Y-62880000D03*
D27*
X98044000Y-45212000D03*
X96144000Y-45212000D03*
X97094000Y-43212000D03*
D24*
X91959000Y-48890000D03*
X91959000Y-47940000D03*
X91959000Y-46990000D03*
X94234000Y-46990000D03*
X94234000Y-48890000D03*
D28*
X87884000Y-48768000D03*
X87884000Y-51893000D03*
D25*
X101266000Y-48768000D03*
X99441000Y-48768000D03*
D29*
X96393000Y-50546000D03*
X96393000Y-53046000D03*
D30*
X90043000Y-48868500D03*
X90043000Y-47143500D03*
D21*
X98171000Y-70739000D03*
X98171000Y-68914000D03*
D14*
X96520000Y-65485000D03*
X96520000Y-67310000D03*
D19*
X93599000Y-55753000D03*
X91874000Y-55753000D03*
D18*
X95250000Y-78793000D03*
X95250000Y-80518000D03*
%LPD*%
M02*
