G04 #@! TF.GenerationSoftware,KiCad,Pcbnew,7.0.11-2.fc39*
G04 #@! TF.CreationDate,2024-05-22T12:02:30+02:00*
G04 #@! TF.ProjectId,home_automation_module_std,686f6d65-5f61-4757-946f-6d6174696f6e,1.0*
G04 #@! TF.SameCoordinates,Original*
G04 #@! TF.FileFunction,Legend,Top*
G04 #@! TF.FilePolarity,Positive*
%FSLAX46Y46*%
G04 Gerber Fmt 4.6, Leading zero omitted, Abs format (unit mm)*
G04 Created by KiCad (PCBNEW 7.0.11-2.fc39) date 2024-05-22 12:02:30*
%MOMM*%
%LPD*%
G01*
G04 APERTURE LIST*
G04 Aperture macros list*
%AMRoundRect*
0 Rectangle with rounded corners*
0 $1 Rounding radius*
0 $2 $3 $4 $5 $6 $7 $8 $9 X,Y pos of 4 corners*
0 Add a 4 corners polygon primitive as box body*
4,1,4,$2,$3,$4,$5,$6,$7,$8,$9,$2,$3,0*
0 Add four circle primitives for the rounded corners*
1,1,$1+$1,$2,$3*
1,1,$1+$1,$4,$5*
1,1,$1+$1,$6,$7*
1,1,$1+$1,$8,$9*
0 Add four rect primitives between the rounded corners*
20,1,$1+$1,$2,$3,$4,$5,0*
20,1,$1+$1,$4,$5,$6,$7,0*
20,1,$1+$1,$6,$7,$8,$9,0*
20,1,$1+$1,$8,$9,$2,$3,0*%
G04 Aperture macros list end*
%ADD10C,0.150000*%
%ADD11C,0.120000*%
%ADD12RoundRect,0.237500X0.250000X0.237500X-0.250000X0.237500X-0.250000X-0.237500X0.250000X-0.237500X0*%
%ADD13R,0.900000X0.800000*%
%ADD14R,1.700000X1.700000*%
%ADD15O,1.700000X1.700000*%
%ADD16RoundRect,0.237500X-0.250000X-0.237500X0.250000X-0.237500X0.250000X0.237500X-0.250000X0.237500X0*%
%ADD17RoundRect,0.150000X0.825000X0.150000X-0.825000X0.150000X-0.825000X-0.150000X0.825000X-0.150000X0*%
%ADD18RoundRect,0.237500X0.237500X-0.250000X0.237500X0.250000X-0.237500X0.250000X-0.237500X-0.250000X0*%
%ADD19RoundRect,0.237500X-0.237500X0.300000X-0.237500X-0.300000X0.237500X-0.300000X0.237500X0.300000X0*%
%ADD20R,0.800000X0.900000*%
%ADD21RoundRect,0.237500X-0.237500X0.250000X-0.237500X-0.250000X0.237500X-0.250000X0.237500X0.250000X0*%
%ADD22R,1.800000X1.750000*%
%ADD23RoundRect,0.075000X0.662500X0.075000X-0.662500X0.075000X-0.662500X-0.075000X0.662500X-0.075000X0*%
%ADD24RoundRect,0.075000X0.075000X0.662500X-0.075000X0.662500X-0.075000X-0.662500X0.075000X-0.662500X0*%
%ADD25RoundRect,0.218750X0.218750X0.256250X-0.218750X0.256250X-0.218750X-0.256250X0.218750X-0.256250X0*%
%ADD26R,1.524000X1.524000*%
%ADD27C,1.524000*%
G04 APERTURE END LIST*
D10*
X120189666Y-63418819D02*
X120189666Y-64133104D01*
X120189666Y-64133104D02*
X120142047Y-64275961D01*
X120142047Y-64275961D02*
X120046809Y-64371200D01*
X120046809Y-64371200D02*
X119903952Y-64418819D01*
X119903952Y-64418819D02*
X119808714Y-64418819D01*
X120618238Y-63514057D02*
X120665857Y-63466438D01*
X120665857Y-63466438D02*
X120761095Y-63418819D01*
X120761095Y-63418819D02*
X120999190Y-63418819D01*
X120999190Y-63418819D02*
X121094428Y-63466438D01*
X121094428Y-63466438D02*
X121142047Y-63514057D01*
X121142047Y-63514057D02*
X121189666Y-63609295D01*
X121189666Y-63609295D02*
X121189666Y-63704533D01*
X121189666Y-63704533D02*
X121142047Y-63847390D01*
X121142047Y-63847390D02*
X120570619Y-64418819D01*
X120570619Y-64418819D02*
X121189666Y-64418819D01*
X91741666Y-84290819D02*
X91741666Y-85005104D01*
X91741666Y-85005104D02*
X91694047Y-85147961D01*
X91694047Y-85147961D02*
X91598809Y-85243200D01*
X91598809Y-85243200D02*
X91455952Y-85290819D01*
X91455952Y-85290819D02*
X91360714Y-85290819D01*
X92122619Y-84290819D02*
X92741666Y-84290819D01*
X92741666Y-84290819D02*
X92408333Y-84671771D01*
X92408333Y-84671771D02*
X92551190Y-84671771D01*
X92551190Y-84671771D02*
X92646428Y-84719390D01*
X92646428Y-84719390D02*
X92694047Y-84767009D01*
X92694047Y-84767009D02*
X92741666Y-84862247D01*
X92741666Y-84862247D02*
X92741666Y-85100342D01*
X92741666Y-85100342D02*
X92694047Y-85195580D01*
X92694047Y-85195580D02*
X92646428Y-85243200D01*
X92646428Y-85243200D02*
X92551190Y-85290819D01*
X92551190Y-85290819D02*
X92265476Y-85290819D01*
X92265476Y-85290819D02*
X92170238Y-85243200D01*
X92170238Y-85243200D02*
X92122619Y-85195580D01*
X99830095Y-78321819D02*
X100401523Y-78321819D01*
X100115809Y-79321819D02*
X100115809Y-78321819D01*
X100734857Y-79321819D02*
X100734857Y-78321819D01*
X100734857Y-78321819D02*
X101115809Y-78321819D01*
X101115809Y-78321819D02*
X101211047Y-78369438D01*
X101211047Y-78369438D02*
X101258666Y-78417057D01*
X101258666Y-78417057D02*
X101306285Y-78512295D01*
X101306285Y-78512295D02*
X101306285Y-78655152D01*
X101306285Y-78655152D02*
X101258666Y-78750390D01*
X101258666Y-78750390D02*
X101211047Y-78798009D01*
X101211047Y-78798009D02*
X101115809Y-78845628D01*
X101115809Y-78845628D02*
X100734857Y-78845628D01*
X101687238Y-78417057D02*
X101734857Y-78369438D01*
X101734857Y-78369438D02*
X101830095Y-78321819D01*
X101830095Y-78321819D02*
X102068190Y-78321819D01*
X102068190Y-78321819D02*
X102163428Y-78369438D01*
X102163428Y-78369438D02*
X102211047Y-78417057D01*
X102211047Y-78417057D02*
X102258666Y-78512295D01*
X102258666Y-78512295D02*
X102258666Y-78607533D01*
X102258666Y-78607533D02*
X102211047Y-78750390D01*
X102211047Y-78750390D02*
X101639619Y-79321819D01*
X101639619Y-79321819D02*
X102258666Y-79321819D01*
X83232666Y-70911819D02*
X83232666Y-71626104D01*
X83232666Y-71626104D02*
X83185047Y-71768961D01*
X83185047Y-71768961D02*
X83089809Y-71864200D01*
X83089809Y-71864200D02*
X82946952Y-71911819D01*
X82946952Y-71911819D02*
X82851714Y-71911819D01*
X84185047Y-70911819D02*
X83708857Y-70911819D01*
X83708857Y-70911819D02*
X83661238Y-71388009D01*
X83661238Y-71388009D02*
X83708857Y-71340390D01*
X83708857Y-71340390D02*
X83804095Y-71292771D01*
X83804095Y-71292771D02*
X84042190Y-71292771D01*
X84042190Y-71292771D02*
X84137428Y-71340390D01*
X84137428Y-71340390D02*
X84185047Y-71388009D01*
X84185047Y-71388009D02*
X84232666Y-71483247D01*
X84232666Y-71483247D02*
X84232666Y-71721342D01*
X84232666Y-71721342D02*
X84185047Y-71816580D01*
X84185047Y-71816580D02*
X84137428Y-71864200D01*
X84137428Y-71864200D02*
X84042190Y-71911819D01*
X84042190Y-71911819D02*
X83804095Y-71911819D01*
X83804095Y-71911819D02*
X83708857Y-71864200D01*
X83708857Y-71864200D02*
X83661238Y-71816580D01*
X83232666Y-55290819D02*
X83232666Y-56005104D01*
X83232666Y-56005104D02*
X83185047Y-56147961D01*
X83185047Y-56147961D02*
X83089809Y-56243200D01*
X83089809Y-56243200D02*
X82946952Y-56290819D01*
X82946952Y-56290819D02*
X82851714Y-56290819D01*
X84137428Y-55624152D02*
X84137428Y-56290819D01*
X83899333Y-55243200D02*
X83661238Y-55957485D01*
X83661238Y-55957485D02*
X84280285Y-55957485D01*
X95004095Y-78321819D02*
X95575523Y-78321819D01*
X95289809Y-79321819D02*
X95289809Y-78321819D01*
X95908857Y-79321819D02*
X95908857Y-78321819D01*
X95908857Y-78321819D02*
X96289809Y-78321819D01*
X96289809Y-78321819D02*
X96385047Y-78369438D01*
X96385047Y-78369438D02*
X96432666Y-78417057D01*
X96432666Y-78417057D02*
X96480285Y-78512295D01*
X96480285Y-78512295D02*
X96480285Y-78655152D01*
X96480285Y-78655152D02*
X96432666Y-78750390D01*
X96432666Y-78750390D02*
X96385047Y-78798009D01*
X96385047Y-78798009D02*
X96289809Y-78845628D01*
X96289809Y-78845628D02*
X95908857Y-78845628D01*
X97432666Y-79321819D02*
X96861238Y-79321819D01*
X97146952Y-79321819D02*
X97146952Y-78321819D01*
X97146952Y-78321819D02*
X97051714Y-78464676D01*
X97051714Y-78464676D02*
X96956476Y-78559914D01*
X96956476Y-78559914D02*
X96861238Y-78607533D01*
X83232666Y-46654819D02*
X83232666Y-47369104D01*
X83232666Y-47369104D02*
X83185047Y-47511961D01*
X83185047Y-47511961D02*
X83089809Y-47607200D01*
X83089809Y-47607200D02*
X82946952Y-47654819D01*
X82946952Y-47654819D02*
X82851714Y-47654819D01*
X84232666Y-47654819D02*
X83661238Y-47654819D01*
X83946952Y-47654819D02*
X83946952Y-46654819D01*
X83946952Y-46654819D02*
X83851714Y-46797676D01*
X83851714Y-46797676D02*
X83756476Y-46892914D01*
X83756476Y-46892914D02*
X83661238Y-46940533D01*
D11*
X107927224Y-61609500D02*
X107417776Y-61609500D01*
X107927224Y-60564500D02*
X107417776Y-60564500D01*
X105646000Y-77861000D02*
X103486000Y-77861000D01*
X105646000Y-77861000D02*
X105646000Y-78791000D01*
X105646000Y-81021000D02*
X104186000Y-81021000D01*
X105646000Y-81021000D02*
X105646000Y-80091000D01*
X119193000Y-64964000D02*
X120523000Y-64964000D01*
X119193000Y-66294000D02*
X119193000Y-64964000D01*
X119193000Y-67564000D02*
X119193000Y-80324000D01*
X119193000Y-67564000D02*
X121853000Y-67564000D01*
X119193000Y-80324000D02*
X121853000Y-80324000D01*
X121853000Y-67564000D02*
X121853000Y-80324000D01*
X108899000Y-83506000D02*
X108899000Y-84836000D01*
X107569000Y-83506000D02*
X108899000Y-83506000D01*
X106299000Y-83506000D02*
X93539000Y-83506000D01*
X106299000Y-83506000D02*
X106299000Y-86166000D01*
X93539000Y-83506000D02*
X93539000Y-86166000D01*
X106299000Y-86166000D02*
X93539000Y-86166000D01*
X109460000Y-69398000D02*
X111620000Y-69398000D01*
X109460000Y-69398000D02*
X109460000Y-68468000D01*
X109460000Y-66238000D02*
X110920000Y-66238000D01*
X109460000Y-66238000D02*
X109460000Y-67168000D01*
X111251276Y-55103500D02*
X111760724Y-55103500D01*
X111251276Y-56148500D02*
X111760724Y-56148500D01*
X90997000Y-77617000D02*
X94447000Y-77617000D01*
X90997000Y-77617000D02*
X89047000Y-77617000D01*
X90997000Y-72497000D02*
X92947000Y-72497000D01*
X90997000Y-72497000D02*
X89047000Y-72497000D01*
X88240776Y-68311500D02*
X88750224Y-68311500D01*
X88240776Y-69356500D02*
X88750224Y-69356500D01*
X112253500Y-68072724D02*
X112253500Y-67563276D01*
X113298500Y-68072724D02*
X113298500Y-67563276D01*
X108079000Y-73413233D02*
X108079000Y-73705767D01*
X107059000Y-73413233D02*
X107059000Y-73705767D01*
X113814776Y-77074500D02*
X114324224Y-77074500D01*
X113814776Y-78119500D02*
X114324224Y-78119500D01*
X109403000Y-55640000D02*
X109403000Y-53480000D01*
X109403000Y-55640000D02*
X108473000Y-55640000D01*
X106243000Y-55640000D02*
X106243000Y-54180000D01*
X106243000Y-55640000D02*
X107173000Y-55640000D01*
X101396000Y-76327000D02*
G75*
G03*
X98756000Y-76327000I-1320000J0D01*
G01*
X98756000Y-76327000D02*
G75*
G03*
X101396000Y-76327000I1320000J0D01*
G01*
X82236000Y-72457000D02*
X83566000Y-72457000D01*
X82236000Y-73787000D02*
X82236000Y-72457000D01*
X82236000Y-75057000D02*
X82236000Y-80197000D01*
X82236000Y-75057000D02*
X84896000Y-75057000D01*
X82236000Y-80197000D02*
X84896000Y-80197000D01*
X84896000Y-75057000D02*
X84896000Y-80197000D01*
X115642000Y-82929000D02*
X115642000Y-80769000D01*
X115642000Y-82929000D02*
X114712000Y-82929000D01*
X112482000Y-82929000D02*
X112482000Y-81469000D01*
X112482000Y-82929000D02*
X113412000Y-82929000D01*
X114949500Y-70992276D02*
X114949500Y-71501724D01*
X113904500Y-70992276D02*
X113904500Y-71501724D01*
X111393500Y-71119276D02*
X111393500Y-71628724D01*
X110348500Y-71119276D02*
X110348500Y-71628724D01*
X109742500Y-71142776D02*
X109742500Y-71652224D01*
X108697500Y-71142776D02*
X108697500Y-71652224D01*
X112253500Y-71525224D02*
X112253500Y-71015776D01*
X113298500Y-71525224D02*
X113298500Y-71015776D01*
X116600500Y-71015776D02*
X116600500Y-71525224D01*
X115555500Y-71015776D02*
X115555500Y-71525224D01*
X82236000Y-56836000D02*
X83566000Y-56836000D01*
X82236000Y-58166000D02*
X82236000Y-56836000D01*
X82236000Y-59436000D02*
X82236000Y-67116000D01*
X82236000Y-59436000D02*
X84896000Y-59436000D01*
X82236000Y-67116000D02*
X84896000Y-67116000D01*
X84896000Y-59436000D02*
X84896000Y-67116000D01*
X112377000Y-58552000D02*
X110217000Y-58552000D01*
X112377000Y-58552000D02*
X112377000Y-59482000D01*
X112377000Y-61712000D02*
X110917000Y-61712000D01*
X112377000Y-61712000D02*
X112377000Y-60782000D01*
X105156724Y-75452500D02*
X104647276Y-75452500D01*
X105156724Y-74407500D02*
X104647276Y-74407500D01*
G36*
X114323045Y-45548261D02*
G01*
X114323045Y-46278437D01*
X114496093Y-46278437D01*
X114669140Y-46278437D01*
X114669140Y-46362851D01*
X114669140Y-46447264D01*
X114200646Y-46447264D01*
X113732151Y-46447264D01*
X113732151Y-46362851D01*
X113732151Y-46278437D01*
X113922081Y-46278437D01*
X114112012Y-46278437D01*
X114112012Y-45632674D01*
X114112012Y-44986912D01*
X113943185Y-44986912D01*
X113774358Y-44986912D01*
X113774358Y-44902498D01*
X113774358Y-44818085D01*
X114048702Y-44818085D01*
X114323045Y-44818085D01*
X114323045Y-45548261D01*
G37*
G36*
X112906621Y-46078995D02*
G01*
X112959768Y-46095914D01*
X113000404Y-46119381D01*
X113029721Y-46148071D01*
X113053075Y-46187437D01*
X113056134Y-46194024D01*
X113071650Y-46247218D01*
X113071556Y-46300562D01*
X113056866Y-46351239D01*
X113028591Y-46396434D01*
X112987743Y-46433332D01*
X112965391Y-46446548D01*
X112922652Y-46460499D01*
X112873229Y-46464526D01*
X112824093Y-46458636D01*
X112788845Y-46446382D01*
X112742680Y-46414945D01*
X112709781Y-46373308D01*
X112690656Y-46322328D01*
X112685610Y-46272377D01*
X112692715Y-46215761D01*
X112714046Y-46167669D01*
X112750328Y-46126489D01*
X112751745Y-46125267D01*
X112800392Y-46093591D01*
X112852544Y-46078093D01*
X112906621Y-46078995D01*
G37*
G36*
X111976074Y-44803308D02*
G01*
X112024364Y-44805895D01*
X112054115Y-44809074D01*
X112096128Y-44814847D01*
X112124352Y-44820018D01*
X112141507Y-44827527D01*
X112150310Y-44840316D01*
X112153481Y-44861325D01*
X112153737Y-44893495D01*
X112153620Y-44916713D01*
X112153620Y-45005762D01*
X112130406Y-45000843D01*
X112113025Y-44997783D01*
X112083188Y-44993153D01*
X112045177Y-44987597D01*
X112005897Y-44982116D01*
X111917865Y-44973685D01*
X111843044Y-44974555D01*
X111780304Y-44985114D01*
X111728515Y-45005752D01*
X111686547Y-45036859D01*
X111653273Y-45078824D01*
X111637040Y-45109311D01*
X111629924Y-45126207D01*
X111624678Y-45143396D01*
X111620949Y-45163939D01*
X111618382Y-45190896D01*
X111616623Y-45227329D01*
X111615319Y-45276298D01*
X111614821Y-45301352D01*
X111612007Y-45451186D01*
X111865931Y-45451186D01*
X112119855Y-45451186D01*
X112119855Y-45535599D01*
X112119855Y-45620012D01*
X111866614Y-45620012D01*
X111613374Y-45620012D01*
X111613374Y-46033638D01*
X111613374Y-46447264D01*
X111507857Y-46447264D01*
X111402341Y-46447264D01*
X111402341Y-46033638D01*
X111402341Y-45620012D01*
X111212410Y-45620012D01*
X111022480Y-45620012D01*
X111022480Y-45535599D01*
X111022480Y-45451186D01*
X111212410Y-45451186D01*
X111402341Y-45451186D01*
X111402341Y-45309033D01*
X111403907Y-45228100D01*
X111408967Y-45160751D01*
X111418064Y-45103946D01*
X111431740Y-45054645D01*
X111450538Y-45009811D01*
X111458477Y-44994521D01*
X111497221Y-44940124D01*
X111550017Y-44891876D01*
X111614638Y-44851461D01*
X111688507Y-44820678D01*
X111716852Y-44814480D01*
X111758183Y-44809440D01*
X111808635Y-44805680D01*
X111864344Y-44803323D01*
X111921446Y-44802492D01*
X111976074Y-44803308D01*
G37*
G36*
X110227492Y-44920959D02*
G01*
X110231142Y-44925466D01*
X110233775Y-44935651D01*
X110235557Y-44953559D01*
X110236649Y-44981235D01*
X110237215Y-45020725D01*
X110237419Y-45074074D01*
X110237435Y-45105090D01*
X110237435Y-45290800D01*
X110499117Y-45290800D01*
X110760799Y-45290800D01*
X110760799Y-45375213D01*
X110760799Y-45459627D01*
X110498586Y-45459627D01*
X110236373Y-45459627D01*
X110239015Y-45790950D01*
X110241656Y-46122272D01*
X110265902Y-46171650D01*
X110298215Y-46219065D01*
X110342585Y-46254897D01*
X110398222Y-46278520D01*
X110401675Y-46279475D01*
X110434483Y-46284841D01*
X110479283Y-46287391D01*
X110531434Y-46287209D01*
X110586296Y-46284380D01*
X110639229Y-46278989D01*
X110667944Y-46274594D01*
X110701782Y-46268781D01*
X110729771Y-46264321D01*
X110747349Y-46261928D01*
X110750247Y-46261710D01*
X110755328Y-46266629D01*
X110758623Y-46282858D01*
X110760365Y-46312335D01*
X110760799Y-46349505D01*
X110760799Y-46437455D01*
X110720702Y-46447112D01*
X110695886Y-46450957D01*
X110657870Y-46454252D01*
X110610260Y-46456925D01*
X110556665Y-46458908D01*
X110500693Y-46460129D01*
X110445950Y-46460519D01*
X110396044Y-46460007D01*
X110354584Y-46458524D01*
X110325176Y-46455998D01*
X110318760Y-46454930D01*
X110253198Y-46435034D01*
X110192064Y-46404120D01*
X110138745Y-46364535D01*
X110096628Y-46318622D01*
X110077591Y-46287940D01*
X110067569Y-46267420D01*
X110059243Y-46247512D01*
X110052455Y-46226462D01*
X110047051Y-46202520D01*
X110042874Y-46173934D01*
X110039768Y-46138951D01*
X110037578Y-46095821D01*
X110036146Y-46042792D01*
X110035317Y-45978111D01*
X110034935Y-45900028D01*
X110034843Y-45808169D01*
X110034843Y-45459627D01*
X109870237Y-45459627D01*
X109705631Y-45459627D01*
X109705631Y-45375213D01*
X109705631Y-45290800D01*
X109870055Y-45290800D01*
X110034479Y-45290800D01*
X110036771Y-45128304D01*
X110039064Y-44965808D01*
X110123477Y-44943299D01*
X110160341Y-44933771D01*
X110192185Y-44926092D01*
X110214793Y-44921250D01*
X110222663Y-44920085D01*
X110227492Y-44920959D01*
G37*
G36*
X116524898Y-45136745D02*
G01*
X116522015Y-45455406D01*
X116577243Y-45399887D01*
X116637412Y-45348890D01*
X116704852Y-45308201D01*
X116774970Y-45280402D01*
X116801940Y-45273635D01*
X116833140Y-45269443D01*
X116874426Y-45267015D01*
X116919065Y-45266679D01*
X116934998Y-45267147D01*
X117000598Y-45273531D01*
X117055155Y-45288072D01*
X117103344Y-45312761D01*
X117149839Y-45349591D01*
X117166831Y-45365974D01*
X117212102Y-45420575D01*
X117248801Y-45485500D01*
X117277426Y-45562065D01*
X117298470Y-45651583D01*
X117312045Y-45751379D01*
X117316914Y-45866604D01*
X117308588Y-45974138D01*
X117287468Y-46073217D01*
X117253955Y-46163077D01*
X117208451Y-46242953D01*
X117151358Y-46312080D01*
X117083077Y-46369694D01*
X117004010Y-46415031D01*
X116952523Y-46435690D01*
X116924961Y-46444689D01*
X116900307Y-46451127D01*
X116874634Y-46455499D01*
X116844011Y-46458300D01*
X116804511Y-46460025D01*
X116752205Y-46461168D01*
X116749931Y-46461207D01*
X116663941Y-46461029D01*
X116594347Y-46457348D01*
X116547339Y-46451325D01*
X116507758Y-46442936D01*
X116460417Y-46431027D01*
X116413476Y-46417702D01*
X116397505Y-46412725D01*
X116315202Y-46386267D01*
X116315202Y-46250654D01*
X116526236Y-46250654D01*
X116587435Y-46268268D01*
X116626326Y-46279331D01*
X116654454Y-46286566D01*
X116677276Y-46290841D01*
X116700244Y-46293025D01*
X116728814Y-46293985D01*
X116751289Y-46294341D01*
X116822706Y-46290191D01*
X116871799Y-46279254D01*
X116934596Y-46251141D01*
X116988510Y-46208965D01*
X117032931Y-46153381D01*
X117067251Y-46085042D01*
X117076248Y-46059828D01*
X117086604Y-46016133D01*
X117094079Y-45960435D01*
X117098524Y-45897391D01*
X117099792Y-45831656D01*
X117097736Y-45767887D01*
X117092208Y-45710742D01*
X117088097Y-45686118D01*
X117067324Y-45609309D01*
X117038421Y-45547128D01*
X117001443Y-45499646D01*
X116956445Y-45466940D01*
X116911352Y-45450679D01*
X116854426Y-45446232D01*
X116795874Y-45458088D01*
X116735534Y-45486336D01*
X116673243Y-45531066D01*
X116608840Y-45592365D01*
X116567182Y-45639444D01*
X116526236Y-45688420D01*
X116526236Y-45969537D01*
X116526236Y-46250654D01*
X116315202Y-46250654D01*
X116315202Y-45602176D01*
X116315202Y-44818085D01*
X116421491Y-44818085D01*
X116527780Y-44818085D01*
X116524898Y-45136745D01*
G37*
G36*
X109134303Y-45268939D02*
G01*
X109196037Y-45271755D01*
X109252152Y-45275924D01*
X109298910Y-45281398D01*
X109306777Y-45282639D01*
X109367977Y-45292840D01*
X109367977Y-45385779D01*
X109367977Y-45478719D01*
X109340543Y-45474012D01*
X109320097Y-45470420D01*
X109288449Y-45464765D01*
X109251006Y-45458014D01*
X109232916Y-45454734D01*
X109174067Y-45446348D01*
X109110521Y-45441222D01*
X109046497Y-45439364D01*
X108986215Y-45440787D01*
X108933896Y-45445501D01*
X108893759Y-45453516D01*
X108892593Y-45453867D01*
X108842479Y-45475493D01*
X108805508Y-45505075D01*
X108782627Y-45541326D01*
X108774784Y-45582959D01*
X108777695Y-45610012D01*
X108785523Y-45634086D01*
X108799248Y-45655692D01*
X108820507Y-45675814D01*
X108850937Y-45695437D01*
X108892174Y-45715547D01*
X108945855Y-45737128D01*
X109013619Y-45761166D01*
X109048019Y-45772677D01*
X109139506Y-45804470D01*
X109215720Y-45834747D01*
X109278086Y-45864489D01*
X109328028Y-45894680D01*
X109366972Y-45926302D01*
X109396341Y-45960335D01*
X109417561Y-45997764D01*
X109431376Y-46037021D01*
X109443273Y-46109480D01*
X109439187Y-46177872D01*
X109419715Y-46241329D01*
X109385451Y-46298982D01*
X109336989Y-46349964D01*
X109274926Y-46393407D01*
X109199855Y-46428441D01*
X109152431Y-46444043D01*
X109128576Y-46449585D01*
X109099222Y-46453768D01*
X109061693Y-46456791D01*
X109013316Y-46458854D01*
X108951417Y-46460156D01*
X108933248Y-46460389D01*
X108879866Y-46460822D01*
X108830802Y-46460877D01*
X108789113Y-46460576D01*
X108757857Y-46459944D01*
X108740090Y-46459004D01*
X108739097Y-46458884D01*
X108689517Y-46451609D01*
X108641804Y-46443704D01*
X108600956Y-46436047D01*
X108572381Y-46429623D01*
X108540726Y-46421289D01*
X108540726Y-46328760D01*
X108541278Y-46285279D01*
X108543086Y-46256678D01*
X108546375Y-46240985D01*
X108551334Y-46236230D01*
X108563444Y-46238004D01*
X108588238Y-46242816D01*
X108621953Y-46249905D01*
X108655976Y-46257413D01*
X108737096Y-46272747D01*
X108819525Y-46282937D01*
X108900318Y-46287976D01*
X108976533Y-46287860D01*
X109045227Y-46282584D01*
X109103458Y-46272142D01*
X109144687Y-46258234D01*
X109184575Y-46234966D01*
X109209493Y-46207121D01*
X109221276Y-46171738D01*
X109222299Y-46132940D01*
X109217994Y-46099234D01*
X109208951Y-46076011D01*
X109198620Y-46062607D01*
X109171770Y-46041450D01*
X109129586Y-46018286D01*
X109073413Y-45993717D01*
X109004596Y-45968347D01*
X108945910Y-45949284D01*
X108854047Y-45918440D01*
X108777578Y-45887064D01*
X108715020Y-45854203D01*
X108664891Y-45818898D01*
X108625707Y-45780195D01*
X108595985Y-45737138D01*
X108585765Y-45717088D01*
X108565921Y-45654894D01*
X108560904Y-45588759D01*
X108570703Y-45522795D01*
X108586404Y-45478853D01*
X108621617Y-45421429D01*
X108670876Y-45370959D01*
X108732315Y-45328763D01*
X108804064Y-45296161D01*
X108872134Y-45276900D01*
X108905911Y-45272205D01*
X108952754Y-45269111D01*
X109008925Y-45267568D01*
X109070687Y-45267527D01*
X109134303Y-45268939D01*
G37*
G36*
X118234071Y-45268939D02*
G01*
X118295804Y-45271755D01*
X118351919Y-45275924D01*
X118398677Y-45281398D01*
X118406545Y-45282639D01*
X118467744Y-45292840D01*
X118467744Y-45385779D01*
X118467744Y-45478719D01*
X118440310Y-45474012D01*
X118419864Y-45470420D01*
X118388217Y-45464765D01*
X118350773Y-45458014D01*
X118332683Y-45454734D01*
X118273834Y-45446348D01*
X118210288Y-45441222D01*
X118146264Y-45439364D01*
X118085983Y-45440787D01*
X118033663Y-45445501D01*
X117993527Y-45453516D01*
X117992361Y-45453867D01*
X117942246Y-45475493D01*
X117905275Y-45505075D01*
X117882395Y-45541326D01*
X117874551Y-45582959D01*
X117877463Y-45610012D01*
X117885291Y-45634086D01*
X117899016Y-45655692D01*
X117920274Y-45675814D01*
X117950704Y-45695437D01*
X117991941Y-45715547D01*
X118045623Y-45737128D01*
X118113386Y-45761166D01*
X118147787Y-45772677D01*
X118239273Y-45804470D01*
X118315487Y-45834747D01*
X118377853Y-45864489D01*
X118427796Y-45894680D01*
X118466739Y-45926302D01*
X118496109Y-45960335D01*
X118517328Y-45997764D01*
X118531143Y-46037021D01*
X118543040Y-46109480D01*
X118538955Y-46177872D01*
X118519482Y-46241329D01*
X118485218Y-46298982D01*
X118436757Y-46349964D01*
X118374693Y-46393407D01*
X118299622Y-46428441D01*
X118252199Y-46444043D01*
X118228344Y-46449585D01*
X118198989Y-46453768D01*
X118161460Y-46456791D01*
X118113083Y-46458854D01*
X118051184Y-46460156D01*
X118033015Y-46460389D01*
X117979633Y-46460822D01*
X117930569Y-46460877D01*
X117888880Y-46460576D01*
X117857624Y-46459944D01*
X117839857Y-46459004D01*
X117838864Y-46458884D01*
X117789284Y-46451609D01*
X117741571Y-46443704D01*
X117700723Y-46436047D01*
X117672148Y-46429623D01*
X117640493Y-46421289D01*
X117640493Y-46328760D01*
X117641045Y-46285279D01*
X117642853Y-46256678D01*
X117646142Y-46240985D01*
X117651102Y-46236230D01*
X117663211Y-46238004D01*
X117688006Y-46242816D01*
X117721720Y-46249905D01*
X117755743Y-46257413D01*
X117836864Y-46272747D01*
X117919292Y-46282937D01*
X118000085Y-46287976D01*
X118076300Y-46287860D01*
X118144995Y-46282584D01*
X118203225Y-46272142D01*
X118244455Y-46258234D01*
X118284342Y-46234966D01*
X118309260Y-46207121D01*
X118321043Y-46171738D01*
X118322066Y-46132940D01*
X118317762Y-46099234D01*
X118308719Y-46076011D01*
X118298387Y-46062607D01*
X118271538Y-46041450D01*
X118229354Y-46018286D01*
X118173181Y-45993717D01*
X118104364Y-45968347D01*
X118045677Y-45949284D01*
X117953814Y-45918440D01*
X117877345Y-45887064D01*
X117814787Y-45854203D01*
X117764658Y-45818898D01*
X117725474Y-45780195D01*
X117695753Y-45737138D01*
X117685532Y-45717088D01*
X117665689Y-45654894D01*
X117660672Y-45588759D01*
X117670470Y-45522795D01*
X117686171Y-45478853D01*
X117721384Y-45421429D01*
X117770644Y-45370959D01*
X117832082Y-45328763D01*
X117903831Y-45296161D01*
X117971901Y-45276900D01*
X118005679Y-45272205D01*
X118052521Y-45269111D01*
X118108692Y-45267568D01*
X118170454Y-45267527D01*
X118234071Y-45268939D01*
G37*
G36*
X115598213Y-45270017D02*
G01*
X115653531Y-45277758D01*
X115702896Y-45290692D01*
X115749826Y-45309372D01*
X115764142Y-45316271D01*
X115825243Y-45355965D01*
X115875644Y-45407816D01*
X115913959Y-45469895D01*
X115938801Y-45540276D01*
X115943988Y-45566097D01*
X115945615Y-45584418D01*
X115947136Y-45617744D01*
X115948517Y-45664198D01*
X115949725Y-45721903D01*
X115950728Y-45788982D01*
X115951493Y-45863559D01*
X115951986Y-45943754D01*
X115952175Y-46027693D01*
X115952175Y-46031528D01*
X115952224Y-46447264D01*
X115860354Y-46447264D01*
X115817488Y-46447119D01*
X115788694Y-46445018D01*
X115771170Y-46438462D01*
X115762114Y-46424951D01*
X115758725Y-46401987D01*
X115758201Y-46367070D01*
X115758189Y-46356136D01*
X115758073Y-46302995D01*
X115707474Y-46343937D01*
X115637411Y-46392268D01*
X115561184Y-46430069D01*
X115499394Y-46450747D01*
X115461250Y-46457531D01*
X115412936Y-46461712D01*
X115359838Y-46463265D01*
X115307345Y-46462164D01*
X115260844Y-46458383D01*
X115226269Y-46452050D01*
X115154282Y-46424597D01*
X115094999Y-46386081D01*
X115048671Y-46336842D01*
X115015552Y-46277220D01*
X114995893Y-46207554D01*
X114989911Y-46134154D01*
X114990769Y-46124201D01*
X115209386Y-46124201D01*
X115214461Y-46174008D01*
X115230809Y-46213781D01*
X115260115Y-46247382D01*
X115264944Y-46251481D01*
X115311811Y-46279435D01*
X115366280Y-46292371D01*
X115428197Y-46290265D01*
X115466406Y-46282418D01*
X115527870Y-46260731D01*
X115593942Y-46227319D01*
X115660043Y-46184618D01*
X115683993Y-46166638D01*
X115740698Y-46122272D01*
X115740945Y-46017564D01*
X115741191Y-45912856D01*
X115570254Y-45917731D01*
X115500323Y-45920214D01*
X115444590Y-45923558D01*
X115400376Y-45928271D01*
X115365000Y-45934860D01*
X115335782Y-45943832D01*
X115310041Y-45955694D01*
X115285097Y-45970955D01*
X115283527Y-45972017D01*
X115251222Y-46003193D01*
X115226591Y-46045302D01*
X115212139Y-46093208D01*
X115209386Y-46124201D01*
X114990769Y-46124201D01*
X114996768Y-46054592D01*
X115017483Y-45984630D01*
X115052270Y-45923935D01*
X115101343Y-45872167D01*
X115164917Y-45828992D01*
X115193794Y-45814360D01*
X115229976Y-45798820D01*
X115266254Y-45786495D01*
X115305383Y-45776954D01*
X115350116Y-45769761D01*
X115403209Y-45764484D01*
X115467415Y-45760689D01*
X115545490Y-45757941D01*
X115553371Y-45757728D01*
X115741191Y-45752756D01*
X115741191Y-45687445D01*
X115735798Y-45619302D01*
X115719267Y-45563308D01*
X115691070Y-45518480D01*
X115650678Y-45483836D01*
X115623915Y-45469159D01*
X115603830Y-45460259D01*
X115585636Y-45454136D01*
X115565549Y-45450294D01*
X115539782Y-45448237D01*
X115504549Y-45447470D01*
X115458406Y-45447487D01*
X115375962Y-45450821D01*
X115299528Y-45460808D01*
X115223671Y-45478587D01*
X115142958Y-45505292D01*
X115097538Y-45522973D01*
X115091183Y-45524256D01*
X115086960Y-45520211D01*
X115084439Y-45508197D01*
X115083192Y-45485575D01*
X115082788Y-45449707D01*
X115082766Y-45432215D01*
X115082766Y-45335466D01*
X115143966Y-45317327D01*
X115209643Y-45299020D01*
X115267555Y-45285899D01*
X115323866Y-45276988D01*
X115384739Y-45271310D01*
X115455645Y-45267909D01*
X115533424Y-45266918D01*
X115598213Y-45270017D01*
G37*
G36*
X118532814Y-38527174D02*
G01*
X118530142Y-42492495D01*
X118512153Y-42598012D01*
X118473619Y-42786852D01*
X118424040Y-42964361D01*
X118362614Y-43132629D01*
X118288537Y-43293746D01*
X118201007Y-43449802D01*
X118160329Y-43513897D01*
X118076735Y-43631349D01*
X117981115Y-43748443D01*
X117877407Y-43860851D01*
X117769550Y-43964242D01*
X117686920Y-44034369D01*
X117549970Y-44134813D01*
X117402751Y-44226140D01*
X117247865Y-44307227D01*
X117087910Y-44376948D01*
X116925488Y-44434179D01*
X116763197Y-44477794D01*
X116603639Y-44506668D01*
X116591656Y-44508233D01*
X116558793Y-44513112D01*
X116533449Y-44518222D01*
X116519413Y-44522737D01*
X116517794Y-44524344D01*
X116509440Y-44524781D01*
X116484723Y-44525211D01*
X116444166Y-44525633D01*
X116388287Y-44526046D01*
X116317609Y-44526449D01*
X116232653Y-44526842D01*
X116133937Y-44527223D01*
X116021985Y-44527591D01*
X115897315Y-44527946D01*
X115760450Y-44528286D01*
X115611909Y-44528611D01*
X115452214Y-44528921D01*
X115281885Y-44529213D01*
X115101442Y-44529488D01*
X114911408Y-44529743D01*
X114712302Y-44529980D01*
X114504644Y-44530195D01*
X114288957Y-44530390D01*
X114065761Y-44530562D01*
X113835575Y-44530711D01*
X113598922Y-44530836D01*
X113356322Y-44530936D01*
X113108295Y-44531011D01*
X112855363Y-44531058D01*
X112598045Y-44531078D01*
X112541922Y-44531079D01*
X108566050Y-44531079D01*
X108566157Y-41770760D01*
X111942587Y-41770760D01*
X111942587Y-42125297D01*
X111942587Y-42479833D01*
X112027000Y-42479833D01*
X112111413Y-42479833D01*
X112111413Y-42619115D01*
X112111413Y-42758397D01*
X112254916Y-42758397D01*
X112398419Y-42758397D01*
X112398419Y-42619115D01*
X112398419Y-42479833D01*
X112482833Y-42479833D01*
X112567246Y-42479833D01*
X112567246Y-42125297D01*
X112567246Y-41770760D01*
X112786721Y-41770760D01*
X112786721Y-42125297D01*
X112786721Y-42479833D01*
X112871134Y-42479833D01*
X112955548Y-42479833D01*
X112955548Y-42619115D01*
X112955548Y-42758397D01*
X113099051Y-42758397D01*
X113242553Y-42758397D01*
X113242553Y-42619115D01*
X113242553Y-42479833D01*
X113326967Y-42479833D01*
X113411380Y-42479833D01*
X113411380Y-42125297D01*
X113411380Y-41770760D01*
X113689945Y-41770760D01*
X113689945Y-42125297D01*
X113689945Y-42479833D01*
X113774358Y-42479833D01*
X113858771Y-42479833D01*
X113858771Y-42619115D01*
X113858771Y-42758397D01*
X114002274Y-42758397D01*
X114145777Y-42758397D01*
X114145777Y-42619115D01*
X114145777Y-42479833D01*
X114230190Y-42479833D01*
X114314604Y-42479833D01*
X114314604Y-42125297D01*
X114314604Y-41770760D01*
X114534079Y-41770760D01*
X114534079Y-42125297D01*
X114534079Y-42479833D01*
X114618492Y-42479833D01*
X114702906Y-42479833D01*
X114702906Y-42619115D01*
X114702906Y-42758397D01*
X114846408Y-42758397D01*
X114989911Y-42758397D01*
X114989911Y-42619115D01*
X114989911Y-42479833D01*
X115074325Y-42479833D01*
X115158738Y-42479833D01*
X115158738Y-42125297D01*
X115158738Y-41770760D01*
X114846408Y-41770760D01*
X114534079Y-41770760D01*
X114314604Y-41770760D01*
X114002274Y-41770760D01*
X113689945Y-41770760D01*
X113411380Y-41770760D01*
X113099051Y-41770760D01*
X112786721Y-41770760D01*
X112567246Y-41770760D01*
X112254916Y-41770760D01*
X111942587Y-41770760D01*
X108566157Y-41770760D01*
X108566188Y-40985715D01*
X110338731Y-40985715D01*
X110478014Y-40985715D01*
X110617296Y-40985715D01*
X110617296Y-41070129D01*
X110617296Y-41154542D01*
X110971832Y-41154542D01*
X111326369Y-41154542D01*
X111326369Y-40842212D01*
X111326369Y-40529883D01*
X110971832Y-40529883D01*
X110617296Y-40529883D01*
X110617296Y-40614296D01*
X110617296Y-40698710D01*
X110478014Y-40698710D01*
X110338731Y-40698710D01*
X110338731Y-40842212D01*
X110338731Y-40985715D01*
X108566188Y-40985715D01*
X108566204Y-40565758D01*
X108566222Y-40252231D01*
X108566232Y-40141581D01*
X110338731Y-40141581D01*
X110478014Y-40141581D01*
X110617296Y-40141581D01*
X110617296Y-40225994D01*
X110617296Y-40310408D01*
X110971832Y-40310408D01*
X111326369Y-40310408D01*
X111326369Y-39998078D01*
X111326369Y-39685748D01*
X110971832Y-39685748D01*
X110617296Y-39685748D01*
X110617296Y-39770162D01*
X110617296Y-39854575D01*
X110478014Y-39854575D01*
X110338731Y-39854575D01*
X110338731Y-39998078D01*
X110338731Y-40141581D01*
X108566232Y-40141581D01*
X108566250Y-39955147D01*
X108566291Y-39674069D01*
X108566345Y-39408557D01*
X108566392Y-39238357D01*
X110338731Y-39238357D01*
X110478014Y-39238357D01*
X110617296Y-39238357D01*
X110617296Y-39322771D01*
X110617296Y-39407184D01*
X110971832Y-39407184D01*
X111326369Y-39407184D01*
X111326369Y-39094854D01*
X111326369Y-38782525D01*
X110971832Y-38782525D01*
X110617296Y-38782525D01*
X110617296Y-38866938D01*
X110617296Y-38951352D01*
X110478014Y-38951352D01*
X110338731Y-38951352D01*
X110338731Y-39094854D01*
X110338731Y-39238357D01*
X108566392Y-39238357D01*
X108566414Y-39158173D01*
X108566499Y-38922479D01*
X108566602Y-38701035D01*
X108566723Y-38493403D01*
X108566795Y-38394223D01*
X110338731Y-38394223D01*
X110478014Y-38394223D01*
X110617296Y-38394223D01*
X110617296Y-38478636D01*
X110617296Y-38563050D01*
X110971832Y-38563050D01*
X111326369Y-38563050D01*
X111326369Y-38263382D01*
X111326369Y-37963715D01*
X110971832Y-37963715D01*
X110617296Y-37963715D01*
X110617296Y-38035466D01*
X110617296Y-38107217D01*
X110478014Y-38107217D01*
X110338731Y-38107217D01*
X110338731Y-38250720D01*
X110338731Y-38394223D01*
X108566795Y-38394223D01*
X108566865Y-38299144D01*
X108567028Y-38117820D01*
X108567214Y-37948992D01*
X108567424Y-37792221D01*
X108567660Y-37647068D01*
X108567923Y-37513096D01*
X108568035Y-37465675D01*
X111461430Y-37465675D01*
X111461430Y-39550687D01*
X111461430Y-41635699D01*
X113550662Y-41635699D01*
X115639895Y-41635699D01*
X115639895Y-40529883D01*
X115774956Y-40529883D01*
X115774956Y-40829550D01*
X115774956Y-41129218D01*
X116129493Y-41129218D01*
X116484029Y-41129218D01*
X116484029Y-41044805D01*
X116484029Y-40960391D01*
X116623311Y-40960391D01*
X116762593Y-40960391D01*
X116762593Y-40829550D01*
X116762593Y-40698710D01*
X116623311Y-40698710D01*
X116484029Y-40698710D01*
X116484029Y-40614296D01*
X116484029Y-40529883D01*
X116129493Y-40529883D01*
X115774956Y-40529883D01*
X115639895Y-40529883D01*
X115639895Y-39685748D01*
X115774956Y-39685748D01*
X115774956Y-39998078D01*
X115774956Y-40310408D01*
X116129493Y-40310408D01*
X116484029Y-40310408D01*
X116484029Y-40225994D01*
X116484029Y-40141581D01*
X116623311Y-40141581D01*
X116762593Y-40141581D01*
X116762593Y-39998078D01*
X116762593Y-39854575D01*
X116623311Y-39854575D01*
X116484029Y-39854575D01*
X116484029Y-39770162D01*
X116484029Y-39685748D01*
X116129493Y-39685748D01*
X115774956Y-39685748D01*
X115639895Y-39685748D01*
X115639895Y-39550687D01*
X115639895Y-38790966D01*
X115774956Y-38790966D01*
X115774956Y-39099075D01*
X115774956Y-39407184D01*
X116129493Y-39407184D01*
X116484029Y-39407184D01*
X116484029Y-39322771D01*
X116484029Y-39238357D01*
X116623311Y-39238357D01*
X116762593Y-39238357D01*
X116762593Y-39099075D01*
X116762593Y-38959793D01*
X116623311Y-38959793D01*
X116484029Y-38959793D01*
X116484029Y-38875380D01*
X116484029Y-38790966D01*
X116129493Y-38790966D01*
X115774956Y-38790966D01*
X115639895Y-38790966D01*
X115639895Y-37938391D01*
X115774956Y-37938391D01*
X115774956Y-38250720D01*
X115774956Y-38563050D01*
X116129493Y-38563050D01*
X116484029Y-38563050D01*
X116484029Y-38478636D01*
X116484029Y-38394223D01*
X116623311Y-38394223D01*
X116762593Y-38394223D01*
X116762593Y-38250720D01*
X116762593Y-38107217D01*
X116623311Y-38107217D01*
X116484029Y-38107217D01*
X116484029Y-38022804D01*
X116484029Y-37938391D01*
X116129493Y-37938391D01*
X115774956Y-37938391D01*
X115639895Y-37938391D01*
X115639895Y-37465675D01*
X113550662Y-37465675D01*
X111461430Y-37465675D01*
X108568035Y-37465675D01*
X108568214Y-37389864D01*
X108568406Y-37322173D01*
X111942587Y-37322173D01*
X112254916Y-37322173D01*
X112567246Y-37322173D01*
X112786721Y-37322173D01*
X113099051Y-37322173D01*
X113411380Y-37322173D01*
X113698386Y-37322173D01*
X114006495Y-37322173D01*
X114314604Y-37322173D01*
X114542520Y-37322173D01*
X114850629Y-37322173D01*
X115158738Y-37322173D01*
X115158738Y-36967636D01*
X115158738Y-36613100D01*
X115074325Y-36613100D01*
X114989911Y-36613100D01*
X114989911Y-36469597D01*
X114989911Y-36326094D01*
X114846408Y-36326094D01*
X114702906Y-36326094D01*
X114702906Y-36469597D01*
X114702906Y-36613100D01*
X114622713Y-36613100D01*
X114542520Y-36613100D01*
X114542520Y-36967636D01*
X114542520Y-37322173D01*
X114314604Y-37322173D01*
X114314604Y-36967636D01*
X114314604Y-36613100D01*
X114225970Y-36613100D01*
X114137336Y-36613100D01*
X114137336Y-36469597D01*
X114137336Y-36326094D01*
X113998054Y-36326094D01*
X113858771Y-36326094D01*
X113858771Y-36469597D01*
X113858771Y-36613100D01*
X113778579Y-36613100D01*
X113698386Y-36613100D01*
X113698386Y-36967636D01*
X113698386Y-37322173D01*
X113411380Y-37322173D01*
X113411380Y-36967636D01*
X113411380Y-36613100D01*
X113331187Y-36613100D01*
X113250995Y-36613100D01*
X113250995Y-36469597D01*
X113250995Y-36326094D01*
X113099051Y-36326094D01*
X112947106Y-36326094D01*
X112947106Y-36469597D01*
X112947106Y-36613100D01*
X112866914Y-36613100D01*
X112786721Y-36613100D01*
X112786721Y-36967636D01*
X112786721Y-37322173D01*
X112567246Y-37322173D01*
X112567246Y-36967636D01*
X112567246Y-36613100D01*
X112487053Y-36613100D01*
X112406860Y-36613100D01*
X112406860Y-36469597D01*
X112406860Y-36326094D01*
X112254916Y-36326094D01*
X112102972Y-36326094D01*
X112102972Y-36469597D01*
X112102972Y-36613100D01*
X112022779Y-36613100D01*
X111942587Y-36613100D01*
X111942587Y-36967636D01*
X111942587Y-37322173D01*
X108568406Y-37322173D01*
X108568534Y-37276935D01*
X108568886Y-37173870D01*
X108569269Y-37080230D01*
X108569686Y-36995577D01*
X108570138Y-36919471D01*
X108570627Y-36851474D01*
X108571152Y-36791148D01*
X108571717Y-36738054D01*
X108572322Y-36691752D01*
X108572968Y-36651805D01*
X108573657Y-36617774D01*
X108574391Y-36589220D01*
X108575170Y-36565704D01*
X108575996Y-36546788D01*
X108576870Y-36532033D01*
X108577794Y-36521000D01*
X108578530Y-36514834D01*
X108614318Y-36319773D01*
X108665293Y-36131859D01*
X108731671Y-35950575D01*
X108813663Y-35775404D01*
X108911486Y-35605828D01*
X109019698Y-35448877D01*
X109066005Y-35390894D01*
X109122696Y-35326338D01*
X109186463Y-35258517D01*
X109254000Y-35190737D01*
X109322001Y-35126305D01*
X109387157Y-35068528D01*
X109446162Y-35020713D01*
X109453073Y-35015502D01*
X109617796Y-34902386D01*
X109787620Y-34805304D01*
X109963064Y-34724042D01*
X110144645Y-34658386D01*
X110332880Y-34608122D01*
X110519030Y-34574334D01*
X110527528Y-34573371D01*
X110539414Y-34572460D01*
X110555128Y-34571597D01*
X110575108Y-34570783D01*
X110599793Y-34570015D01*
X110629621Y-34569292D01*
X110665032Y-34568613D01*
X110706464Y-34567977D01*
X110754355Y-34567382D01*
X110809145Y-34566827D01*
X110871272Y-34566310D01*
X110941174Y-34565831D01*
X111019291Y-34565387D01*
X111106061Y-34564978D01*
X111201922Y-34564603D01*
X111307314Y-34564259D01*
X111422674Y-34563946D01*
X111548443Y-34563662D01*
X111685058Y-34563405D01*
X111832957Y-34563176D01*
X111992581Y-34562971D01*
X112164367Y-34562791D01*
X112348754Y-34562633D01*
X112546180Y-34562496D01*
X112757085Y-34562379D01*
X112981908Y-34562281D01*
X113221085Y-34562200D01*
X113475058Y-34562134D01*
X113744263Y-34562084D01*
X114029140Y-34562046D01*
X114330128Y-34562021D01*
X114570059Y-34562008D01*
X118535485Y-34561854D01*
X118532814Y-38527174D01*
G37*
X111784224Y-57799500D02*
X111274776Y-57799500D01*
X111784224Y-56754500D02*
X111274776Y-56754500D01*
X105156724Y-77230500D02*
X104647276Y-77230500D01*
X105156724Y-76185500D02*
X104647276Y-76185500D01*
X98348000Y-76327000D02*
G75*
G03*
X95708000Y-76327000I-1320000J0D01*
G01*
X95708000Y-76327000D02*
G75*
G03*
X98348000Y-76327000I1320000J0D01*
G01*
X108079000Y-69804233D02*
X108079000Y-70096767D01*
X107059000Y-69804233D02*
X107059000Y-70096767D01*
X108722000Y-74186000D02*
X108722000Y-76346000D01*
X108722000Y-74186000D02*
X109652000Y-74186000D01*
X111882000Y-74186000D02*
X111882000Y-75646000D01*
X111882000Y-74186000D02*
X110952000Y-74186000D01*
X104969000Y-62419000D02*
X106299000Y-62419000D01*
X104969000Y-63749000D02*
X104969000Y-62419000D01*
X104969000Y-65019000D02*
X104969000Y-67619000D01*
X104969000Y-65019000D02*
X107629000Y-65019000D01*
X104969000Y-67619000D02*
X107629000Y-67619000D01*
X107629000Y-65019000D02*
X107629000Y-67619000D01*
X113814776Y-78852500D02*
X114324224Y-78852500D01*
X113814776Y-79897500D02*
X114324224Y-79897500D01*
X111760724Y-54497500D02*
X111251276Y-54497500D01*
X111760724Y-53452500D02*
X111251276Y-53452500D01*
X106310000Y-68394000D02*
X104510000Y-68394000D01*
X106360000Y-70544000D02*
X106360000Y-71644000D01*
X104460000Y-70544000D02*
X104460000Y-71644000D01*
X110803000Y-62235000D02*
X108643000Y-62235000D01*
X110803000Y-62235000D02*
X110803000Y-63165000D01*
X110803000Y-65395000D02*
X109343000Y-65395000D01*
X110803000Y-65395000D02*
X110803000Y-64465000D01*
X107417776Y-58913500D02*
X107927224Y-58913500D01*
X107417776Y-59958500D02*
X107927224Y-59958500D01*
X110594224Y-79897500D02*
X110084776Y-79897500D01*
X110594224Y-78852500D02*
X110084776Y-78852500D01*
X82236000Y-48200000D02*
X83566000Y-48200000D01*
X82236000Y-49530000D02*
X82236000Y-48200000D01*
X82236000Y-50800000D02*
X82236000Y-53400000D01*
X82236000Y-50800000D02*
X84896000Y-50800000D01*
X82236000Y-53400000D02*
X84896000Y-53400000D01*
X84896000Y-50800000D02*
X84896000Y-53400000D01*
X102444500Y-71662000D02*
X102444500Y-71212000D01*
X102444500Y-71212000D02*
X103734500Y-71212000D01*
X102444500Y-64442000D02*
X102444500Y-64892000D01*
X101994500Y-71662000D02*
X102444500Y-71662000D01*
X101994500Y-64442000D02*
X102444500Y-64442000D01*
X95674500Y-71662000D02*
X95224500Y-71662000D01*
X95674500Y-64442000D02*
X95224500Y-64442000D01*
X95224500Y-71662000D02*
X95224500Y-71212000D01*
X95224500Y-64442000D02*
X95224500Y-64892000D01*
X115753000Y-75706000D02*
X115753000Y-73546000D01*
X115753000Y-75706000D02*
X114823000Y-75706000D01*
X112593000Y-75706000D02*
X112593000Y-74246000D01*
X112593000Y-75706000D02*
X113523000Y-75706000D01*
X113171500Y-63522776D02*
X113171500Y-64032224D01*
X112126500Y-63522776D02*
X112126500Y-64032224D01*
X114949500Y-63522776D02*
X114949500Y-64032224D01*
X113904500Y-63522776D02*
X113904500Y-64032224D01*
X110617724Y-78119500D02*
X110108276Y-78119500D01*
X110617724Y-77074500D02*
X110108276Y-77074500D01*
X107417776Y-57135500D02*
X107927224Y-57135500D01*
X107417776Y-58180500D02*
X107927224Y-58180500D01*
X93534500Y-69569000D02*
X93534500Y-68099000D01*
X93534500Y-68099000D02*
X91249500Y-68099000D01*
X91249500Y-69569000D02*
X93534500Y-69569000D01*
%LPC*%
D12*
X108585000Y-61087000D03*
X106760000Y-61087000D03*
D13*
X103886000Y-78491000D03*
X103886000Y-80391000D03*
X105886000Y-79441000D03*
D14*
X120523000Y-66294000D03*
D15*
X120523000Y-68834000D03*
X120523000Y-71374000D03*
X120523000Y-73914000D03*
X120523000Y-76454000D03*
X120523000Y-78994000D03*
D14*
X107569000Y-84836000D03*
D15*
X105029000Y-84836000D03*
X102489000Y-84836000D03*
X99949000Y-84836000D03*
X97409000Y-84836000D03*
X94869000Y-84836000D03*
D13*
X111220000Y-68768000D03*
X111220000Y-66868000D03*
X109220000Y-67818000D03*
D16*
X110593500Y-55626000D03*
X112418500Y-55626000D03*
D17*
X93472000Y-76962000D03*
X93472000Y-75692000D03*
X93472000Y-74422000D03*
X93472000Y-73152000D03*
X88522000Y-73152000D03*
X88522000Y-74422000D03*
X88522000Y-75692000D03*
X88522000Y-76962000D03*
D16*
X87583000Y-68834000D03*
X89408000Y-68834000D03*
D18*
X112776000Y-68730500D03*
X112776000Y-66905500D03*
D19*
X107569000Y-72697000D03*
X107569000Y-74422000D03*
D16*
X113157000Y-77597000D03*
X114982000Y-77597000D03*
D20*
X108773000Y-53880000D03*
X106873000Y-53880000D03*
X107823000Y-55880000D03*
D15*
X100076000Y-76327000D03*
D14*
X83566000Y-73787000D03*
D15*
X83566000Y-76327000D03*
X83566000Y-78867000D03*
D20*
X115012000Y-81169000D03*
X113112000Y-81169000D03*
X114062000Y-83169000D03*
D21*
X114427000Y-70334500D03*
X114427000Y-72159500D03*
X110871000Y-70461500D03*
X110871000Y-72286500D03*
X109220000Y-70485000D03*
X109220000Y-72310000D03*
D18*
X112776000Y-72183000D03*
X112776000Y-70358000D03*
D21*
X116078000Y-70358000D03*
X116078000Y-72183000D03*
D14*
X83566000Y-58166000D03*
D15*
X83566000Y-60706000D03*
X83566000Y-63246000D03*
X83566000Y-65786000D03*
D13*
X110617000Y-59182000D03*
X110617000Y-61082000D03*
X112617000Y-60132000D03*
D12*
X105814500Y-74930000D03*
X103989500Y-74930000D03*
X112442000Y-57277000D03*
X110617000Y-57277000D03*
X105814500Y-76708000D03*
X103989500Y-76708000D03*
D15*
X97028000Y-76327000D03*
D19*
X107569000Y-69088000D03*
X107569000Y-70813000D03*
D20*
X109352000Y-75946000D03*
X111252000Y-75946000D03*
X110302000Y-73946000D03*
D14*
X106299000Y-63749000D03*
D15*
X106299000Y-66289000D03*
D16*
X113157000Y-79375000D03*
X114982000Y-79375000D03*
D12*
X112418500Y-53975000D03*
X110593500Y-53975000D03*
D22*
X105410000Y-69469000D03*
X105410000Y-72719000D03*
D13*
X109043000Y-62865000D03*
X109043000Y-64765000D03*
X111043000Y-63815000D03*
D16*
X106760000Y-59436000D03*
X108585000Y-59436000D03*
D12*
X111252000Y-79375000D03*
X109427000Y-79375000D03*
D14*
X83566000Y-49530000D03*
D15*
X83566000Y-52070000D03*
D23*
X102997000Y-70802000D03*
X102997000Y-70302000D03*
X102997000Y-69802000D03*
X102997000Y-69302000D03*
X102997000Y-68802000D03*
X102997000Y-68302000D03*
X102997000Y-67802000D03*
X102997000Y-67302000D03*
X102997000Y-66802000D03*
X102997000Y-66302000D03*
X102997000Y-65802000D03*
X102997000Y-65302000D03*
D24*
X101584500Y-63889500D03*
X101084500Y-63889500D03*
X100584500Y-63889500D03*
X100084500Y-63889500D03*
X99584500Y-63889500D03*
X99084500Y-63889500D03*
X98584500Y-63889500D03*
X98084500Y-63889500D03*
X97584500Y-63889500D03*
X97084500Y-63889500D03*
X96584500Y-63889500D03*
X96084500Y-63889500D03*
D23*
X94672000Y-65302000D03*
X94672000Y-65802000D03*
X94672000Y-66302000D03*
X94672000Y-66802000D03*
X94672000Y-67302000D03*
X94672000Y-67802000D03*
X94672000Y-68302000D03*
X94672000Y-68802000D03*
X94672000Y-69302000D03*
X94672000Y-69802000D03*
X94672000Y-70302000D03*
X94672000Y-70802000D03*
D24*
X96084500Y-72214500D03*
X96584500Y-72214500D03*
X97084500Y-72214500D03*
X97584500Y-72214500D03*
X98084500Y-72214500D03*
X98584500Y-72214500D03*
X99084500Y-72214500D03*
X99584500Y-72214500D03*
X100084500Y-72214500D03*
X100584500Y-72214500D03*
X101084500Y-72214500D03*
X101584500Y-72214500D03*
D20*
X115123000Y-73946000D03*
X113223000Y-73946000D03*
X114173000Y-75946000D03*
D21*
X112649000Y-62865000D03*
X112649000Y-64690000D03*
X114427000Y-62865000D03*
X114427000Y-64690000D03*
D12*
X111275500Y-77597000D03*
X109450500Y-77597000D03*
D16*
X106760000Y-57658000D03*
X108585000Y-57658000D03*
D25*
X92837000Y-68834000D03*
X91262000Y-68834000D03*
D26*
X103632000Y-59817000D03*
D27*
X103632000Y-57277000D03*
X101092000Y-59817000D03*
X101092000Y-57277000D03*
X98552000Y-59817000D03*
X98552000Y-57277000D03*
X96012000Y-59817000D03*
X96012000Y-57277000D03*
%LPD*%
M02*
