G04 #@! TF.GenerationSoftware,KiCad,Pcbnew,7.0.11-2.fc39*
G04 #@! TF.CreationDate,2024-05-22T12:02:30+02:00*
G04 #@! TF.ProjectId,home_automation_module_std,686f6d65-5f61-4757-946f-6d6174696f6e,1.0*
G04 #@! TF.SameCoordinates,Original*
G04 #@! TF.FileFunction,Soldermask,Bot*
G04 #@! TF.FilePolarity,Negative*
%FSLAX46Y46*%
G04 Gerber Fmt 4.6, Leading zero omitted, Abs format (unit mm)*
G04 Created by KiCad (PCBNEW 7.0.11-2.fc39) date 2024-05-22 12:02:30*
%MOMM*%
%LPD*%
G01*
G04 APERTURE LIST*
G04 Aperture macros list*
%AMRoundRect*
0 Rectangle with rounded corners*
0 $1 Rounding radius*
0 $2 $3 $4 $5 $6 $7 $8 $9 X,Y pos of 4 corners*
0 Add a 4 corners polygon primitive as box body*
4,1,4,$2,$3,$4,$5,$6,$7,$8,$9,$2,$3,0*
0 Add four circle primitives for the rounded corners*
1,1,$1+$1,$2,$3*
1,1,$1+$1,$4,$5*
1,1,$1+$1,$6,$7*
1,1,$1+$1,$8,$9*
0 Add four rect primitives between the rounded corners*
20,1,$1+$1,$2,$3,$4,$5,0*
20,1,$1+$1,$4,$5,$6,$7,0*
20,1,$1+$1,$6,$7,$8,$9,0*
20,1,$1+$1,$8,$9,$2,$3,0*%
G04 Aperture macros list end*
%ADD10R,1.700000X1.700000*%
%ADD11O,1.700000X1.700000*%
%ADD12RoundRect,0.237500X-0.237500X0.250000X-0.237500X-0.250000X0.237500X-0.250000X0.237500X0.250000X0*%
%ADD13R,0.900000X0.800000*%
%ADD14RoundRect,0.237500X-0.300000X-0.237500X0.300000X-0.237500X0.300000X0.237500X-0.300000X0.237500X0*%
%ADD15RoundRect,0.237500X-0.250000X-0.237500X0.250000X-0.237500X0.250000X0.237500X-0.250000X0.237500X0*%
%ADD16RoundRect,0.237500X-0.237500X0.300000X-0.237500X-0.300000X0.237500X-0.300000X0.237500X0.300000X0*%
%ADD17RoundRect,0.237500X0.300000X0.237500X-0.300000X0.237500X-0.300000X-0.237500X0.300000X-0.237500X0*%
%ADD18R,0.600000X0.500000*%
%ADD19RoundRect,0.237500X0.237500X-0.250000X0.237500X0.250000X-0.237500X0.250000X-0.237500X-0.250000X0*%
%ADD20R,1.524000X1.524000*%
%ADD21C,1.524000*%
%ADD22RoundRect,0.150000X-0.512500X-0.150000X0.512500X-0.150000X0.512500X0.150000X-0.512500X0.150000X0*%
%ADD23RoundRect,0.237500X0.250000X0.237500X-0.250000X0.237500X-0.250000X-0.237500X0.250000X-0.237500X0*%
%ADD24R,0.700000X0.450000*%
%ADD25R,0.800000X0.900000*%
%ADD26RoundRect,0.250000X-0.650000X0.412500X-0.650000X-0.412500X0.650000X-0.412500X0.650000X0.412500X0*%
%ADD27R,1.000000X1.000000*%
%ADD28RoundRect,0.237500X0.237500X-0.300000X0.237500X0.300000X-0.237500X0.300000X-0.237500X-0.300000X0*%
G04 APERTURE END LIST*
D10*
X120523000Y-66294000D03*
D11*
X120523000Y-68834000D03*
X120523000Y-71374000D03*
X120523000Y-73914000D03*
X120523000Y-76454000D03*
X120523000Y-78994000D03*
D10*
X107569000Y-84836000D03*
D11*
X105029000Y-84836000D03*
X102489000Y-84836000D03*
X99949000Y-84836000D03*
X97409000Y-84836000D03*
X94869000Y-84836000D03*
X100076000Y-76327000D03*
D10*
X83566000Y-73787000D03*
D11*
X83566000Y-76327000D03*
X83566000Y-78867000D03*
D10*
X83566000Y-58166000D03*
D11*
X83566000Y-60706000D03*
X83566000Y-63246000D03*
X83566000Y-65786000D03*
X97028000Y-76327000D03*
D10*
X106299000Y-63749000D03*
D11*
X106299000Y-66289000D03*
D10*
X83566000Y-49530000D03*
D11*
X83566000Y-52070000D03*
D12*
X98171000Y-65485000D03*
X98171000Y-67310000D03*
X88392000Y-74144500D03*
X88392000Y-75969500D03*
D13*
X103029000Y-48763000D03*
X103029000Y-46863000D03*
X105029000Y-47813000D03*
D14*
X101653000Y-69088000D03*
X103378000Y-69088000D03*
D15*
X90048786Y-60579000D03*
X91873786Y-60579000D03*
D16*
X90043000Y-54102000D03*
X90043000Y-55827000D03*
D12*
X96139000Y-46943000D03*
X96139000Y-48768000D03*
D17*
X94361000Y-50546000D03*
X92636000Y-50546000D03*
D18*
X99110800Y-78867000D03*
X99110800Y-79679800D03*
X99110800Y-80467200D03*
X96647000Y-80467200D03*
X96647000Y-79679800D03*
X96647000Y-78867000D03*
D19*
X97790000Y-48768000D03*
X97790000Y-46943000D03*
D20*
X103632000Y-59817000D03*
D21*
X103632000Y-57277000D03*
X101092000Y-59817000D03*
X101092000Y-57277000D03*
X98552000Y-59817000D03*
X98552000Y-57277000D03*
X96012000Y-59817000D03*
X96012000Y-57277000D03*
D22*
X91959000Y-54102000D03*
X91959000Y-53152000D03*
X91959000Y-52202000D03*
X94234000Y-52202000D03*
X94234000Y-54102000D03*
D17*
X91794500Y-45212000D03*
X90069500Y-45212000D03*
D14*
X101653000Y-70739000D03*
X103378000Y-70739000D03*
D13*
X98552000Y-52639000D03*
X98552000Y-50739000D03*
X100552000Y-51689000D03*
D23*
X91873786Y-58828000D03*
X90048786Y-58828000D03*
D12*
X102235000Y-50903500D03*
X102235000Y-52728500D03*
X99822000Y-65485000D03*
X99822000Y-67310000D03*
D24*
X89932000Y-63530000D03*
X89932000Y-62230000D03*
X91932000Y-62880000D03*
D25*
X98044000Y-45212000D03*
X96144000Y-45212000D03*
X97094000Y-43212000D03*
D22*
X91959000Y-48890000D03*
X91959000Y-47940000D03*
X91959000Y-46990000D03*
X94234000Y-46990000D03*
X94234000Y-48890000D03*
D26*
X87884000Y-48768000D03*
X87884000Y-51893000D03*
D23*
X101266000Y-48768000D03*
X99441000Y-48768000D03*
D27*
X96393000Y-50546000D03*
X96393000Y-53046000D03*
D28*
X90043000Y-48868500D03*
X90043000Y-47143500D03*
D19*
X98171000Y-70739000D03*
X98171000Y-68914000D03*
D12*
X96520000Y-65485000D03*
X96520000Y-67310000D03*
D17*
X93599000Y-55753000D03*
X91874000Y-55753000D03*
D16*
X95250000Y-78793000D03*
X95250000Y-80518000D03*
M02*
