G04 #@! TF.GenerationSoftware,KiCad,Pcbnew,7.0.11-2.fc39*
G04 #@! TF.CreationDate,2024-05-22T12:02:29+02:00*
G04 #@! TF.ProjectId,home_automation_module_std,686f6d65-5f61-4757-946f-6d6174696f6e,1.0*
G04 #@! TF.SameCoordinates,Original*
G04 #@! TF.FileFunction,Copper,L1,Top*
G04 #@! TF.FilePolarity,Positive*
%FSLAX46Y46*%
G04 Gerber Fmt 4.6, Leading zero omitted, Abs format (unit mm)*
G04 Created by KiCad (PCBNEW 7.0.11-2.fc39) date 2024-05-22 12:02:29*
%MOMM*%
%LPD*%
G01*
G04 APERTURE LIST*
G04 Aperture macros list*
%AMRoundRect*
0 Rectangle with rounded corners*
0 $1 Rounding radius*
0 $2 $3 $4 $5 $6 $7 $8 $9 X,Y pos of 4 corners*
0 Add a 4 corners polygon primitive as box body*
4,1,4,$2,$3,$4,$5,$6,$7,$8,$9,$2,$3,0*
0 Add four circle primitives for the rounded corners*
1,1,$1+$1,$2,$3*
1,1,$1+$1,$4,$5*
1,1,$1+$1,$6,$7*
1,1,$1+$1,$8,$9*
0 Add four rect primitives between the rounded corners*
20,1,$1+$1,$2,$3,$4,$5,0*
20,1,$1+$1,$4,$5,$6,$7,0*
20,1,$1+$1,$6,$7,$8,$9,0*
20,1,$1+$1,$8,$9,$2,$3,0*%
G04 Aperture macros list end*
G04 #@! TA.AperFunction,SMDPad,CuDef*
%ADD10RoundRect,0.237500X0.250000X0.237500X-0.250000X0.237500X-0.250000X-0.237500X0.250000X-0.237500X0*%
G04 #@! TD*
G04 #@! TA.AperFunction,SMDPad,CuDef*
%ADD11R,0.900000X0.800000*%
G04 #@! TD*
G04 #@! TA.AperFunction,ComponentPad*
%ADD12R,1.700000X1.700000*%
G04 #@! TD*
G04 #@! TA.AperFunction,ComponentPad*
%ADD13O,1.700000X1.700000*%
G04 #@! TD*
G04 #@! TA.AperFunction,SMDPad,CuDef*
%ADD14RoundRect,0.237500X-0.250000X-0.237500X0.250000X-0.237500X0.250000X0.237500X-0.250000X0.237500X0*%
G04 #@! TD*
G04 #@! TA.AperFunction,SMDPad,CuDef*
%ADD15RoundRect,0.150000X0.825000X0.150000X-0.825000X0.150000X-0.825000X-0.150000X0.825000X-0.150000X0*%
G04 #@! TD*
G04 #@! TA.AperFunction,SMDPad,CuDef*
%ADD16RoundRect,0.237500X0.237500X-0.250000X0.237500X0.250000X-0.237500X0.250000X-0.237500X-0.250000X0*%
G04 #@! TD*
G04 #@! TA.AperFunction,SMDPad,CuDef*
%ADD17RoundRect,0.237500X-0.237500X0.300000X-0.237500X-0.300000X0.237500X-0.300000X0.237500X0.300000X0*%
G04 #@! TD*
G04 #@! TA.AperFunction,SMDPad,CuDef*
%ADD18R,0.800000X0.900000*%
G04 #@! TD*
G04 #@! TA.AperFunction,SMDPad,CuDef*
%ADD19RoundRect,0.237500X-0.237500X0.250000X-0.237500X-0.250000X0.237500X-0.250000X0.237500X0.250000X0*%
G04 #@! TD*
G04 #@! TA.AperFunction,SMDPad,CuDef*
%ADD20R,1.800000X1.750000*%
G04 #@! TD*
G04 #@! TA.AperFunction,SMDPad,CuDef*
%ADD21RoundRect,0.075000X0.662500X0.075000X-0.662500X0.075000X-0.662500X-0.075000X0.662500X-0.075000X0*%
G04 #@! TD*
G04 #@! TA.AperFunction,SMDPad,CuDef*
%ADD22RoundRect,0.075000X0.075000X0.662500X-0.075000X0.662500X-0.075000X-0.662500X0.075000X-0.662500X0*%
G04 #@! TD*
G04 #@! TA.AperFunction,SMDPad,CuDef*
%ADD23RoundRect,0.218750X0.218750X0.256250X-0.218750X0.256250X-0.218750X-0.256250X0.218750X-0.256250X0*%
G04 #@! TD*
G04 #@! TA.AperFunction,ComponentPad*
%ADD24R,1.524000X1.524000*%
G04 #@! TD*
G04 #@! TA.AperFunction,ComponentPad*
%ADD25C,1.524000*%
G04 #@! TD*
G04 #@! TA.AperFunction,ViaPad*
%ADD26C,0.600000*%
G04 #@! TD*
G04 #@! TA.AperFunction,ViaPad*
%ADD27C,0.800000*%
G04 #@! TD*
G04 #@! TA.AperFunction,Conductor*
%ADD28C,0.762000*%
G04 #@! TD*
G04 #@! TA.AperFunction,Conductor*
%ADD29C,0.381000*%
G04 #@! TD*
G04 #@! TA.AperFunction,Conductor*
%ADD30C,0.250000*%
G04 #@! TD*
G04 APERTURE END LIST*
D10*
X108585000Y-61087000D03*
X106760000Y-61087000D03*
D11*
X103886000Y-78491000D03*
X103886000Y-80391000D03*
X105886000Y-79441000D03*
D12*
X120523000Y-66294000D03*
D13*
X120523000Y-68834000D03*
X120523000Y-71374000D03*
X120523000Y-73914000D03*
X120523000Y-76454000D03*
X120523000Y-78994000D03*
D12*
X107569000Y-84836000D03*
D13*
X105029000Y-84836000D03*
X102489000Y-84836000D03*
X99949000Y-84836000D03*
X97409000Y-84836000D03*
X94869000Y-84836000D03*
D11*
X111220000Y-68768000D03*
X111220000Y-66868000D03*
X109220000Y-67818000D03*
D14*
X110593500Y-55626000D03*
X112418500Y-55626000D03*
D15*
X93472000Y-76962000D03*
X93472000Y-75692000D03*
X93472000Y-74422000D03*
X93472000Y-73152000D03*
X88522000Y-73152000D03*
X88522000Y-74422000D03*
X88522000Y-75692000D03*
X88522000Y-76962000D03*
D14*
X87583000Y-68834000D03*
X89408000Y-68834000D03*
D16*
X112776000Y-68730500D03*
X112776000Y-66905500D03*
D17*
X107569000Y-72697000D03*
X107569000Y-74422000D03*
D14*
X113157000Y-77597000D03*
X114982000Y-77597000D03*
D18*
X108773000Y-53880000D03*
X106873000Y-53880000D03*
X107823000Y-55880000D03*
D13*
X100076000Y-76327000D03*
D12*
X83566000Y-73787000D03*
D13*
X83566000Y-76327000D03*
X83566000Y-78867000D03*
D18*
X115012000Y-81169000D03*
X113112000Y-81169000D03*
X114062000Y-83169000D03*
D19*
X114427000Y-70334500D03*
X114427000Y-72159500D03*
X110871000Y-70461500D03*
X110871000Y-72286500D03*
X109220000Y-70485000D03*
X109220000Y-72310000D03*
D16*
X112776000Y-72183000D03*
X112776000Y-70358000D03*
D19*
X116078000Y-70358000D03*
X116078000Y-72183000D03*
D12*
X83566000Y-58166000D03*
D13*
X83566000Y-60706000D03*
X83566000Y-63246000D03*
X83566000Y-65786000D03*
D11*
X110617000Y-59182000D03*
X110617000Y-61082000D03*
X112617000Y-60132000D03*
D10*
X105814500Y-74930000D03*
X103989500Y-74930000D03*
X112442000Y-57277000D03*
X110617000Y-57277000D03*
X105814500Y-76708000D03*
X103989500Y-76708000D03*
D13*
X97028000Y-76327000D03*
D17*
X107569000Y-69088000D03*
X107569000Y-70813000D03*
D18*
X109352000Y-75946000D03*
X111252000Y-75946000D03*
X110302000Y-73946000D03*
D12*
X106299000Y-63749000D03*
D13*
X106299000Y-66289000D03*
D14*
X113157000Y-79375000D03*
X114982000Y-79375000D03*
D10*
X112418500Y-53975000D03*
X110593500Y-53975000D03*
D20*
X105410000Y-69469000D03*
X105410000Y-72719000D03*
D11*
X109043000Y-62865000D03*
X109043000Y-64765000D03*
X111043000Y-63815000D03*
D14*
X106760000Y-59436000D03*
X108585000Y-59436000D03*
D10*
X111252000Y-79375000D03*
X109427000Y-79375000D03*
D12*
X83566000Y-49530000D03*
D13*
X83566000Y-52070000D03*
D21*
X102997000Y-70802000D03*
X102997000Y-70302000D03*
X102997000Y-69802000D03*
X102997000Y-69302000D03*
X102997000Y-68802000D03*
X102997000Y-68302000D03*
X102997000Y-67802000D03*
X102997000Y-67302000D03*
X102997000Y-66802000D03*
X102997000Y-66302000D03*
X102997000Y-65802000D03*
X102997000Y-65302000D03*
D22*
X101584500Y-63889500D03*
X101084500Y-63889500D03*
X100584500Y-63889500D03*
X100084500Y-63889500D03*
X99584500Y-63889500D03*
X99084500Y-63889500D03*
X98584500Y-63889500D03*
X98084500Y-63889500D03*
X97584500Y-63889500D03*
X97084500Y-63889500D03*
X96584500Y-63889500D03*
X96084500Y-63889500D03*
D21*
X94672000Y-65302000D03*
X94672000Y-65802000D03*
X94672000Y-66302000D03*
X94672000Y-66802000D03*
X94672000Y-67302000D03*
X94672000Y-67802000D03*
X94672000Y-68302000D03*
X94672000Y-68802000D03*
X94672000Y-69302000D03*
X94672000Y-69802000D03*
X94672000Y-70302000D03*
X94672000Y-70802000D03*
D22*
X96084500Y-72214500D03*
X96584500Y-72214500D03*
X97084500Y-72214500D03*
X97584500Y-72214500D03*
X98084500Y-72214500D03*
X98584500Y-72214500D03*
X99084500Y-72214500D03*
X99584500Y-72214500D03*
X100084500Y-72214500D03*
X100584500Y-72214500D03*
X101084500Y-72214500D03*
X101584500Y-72214500D03*
D18*
X115123000Y-73946000D03*
X113223000Y-73946000D03*
X114173000Y-75946000D03*
D19*
X112649000Y-62865000D03*
X112649000Y-64690000D03*
X114427000Y-62865000D03*
X114427000Y-64690000D03*
D10*
X111275500Y-77597000D03*
X109450500Y-77597000D03*
D14*
X106760000Y-57658000D03*
X108585000Y-57658000D03*
D23*
X92837000Y-68834000D03*
X91262000Y-68834000D03*
D24*
X103632000Y-59817000D03*
D25*
X103632000Y-57277000D03*
X101092000Y-59817000D03*
X101092000Y-57277000D03*
X98552000Y-59817000D03*
X98552000Y-57277000D03*
X96012000Y-59817000D03*
X96012000Y-57277000D03*
D26*
X96774000Y-68707000D03*
X117348000Y-76454000D03*
X117602000Y-72517000D03*
X121539000Y-42418000D03*
X98171000Y-78994000D03*
X115189000Y-85852000D03*
X115189000Y-49276000D03*
X115189000Y-69469000D03*
X121539000Y-49276000D03*
X82550000Y-70485000D03*
X108712000Y-42418000D03*
X90170000Y-75184000D03*
X82550000Y-42418000D03*
X115443000Y-65405000D03*
X101219000Y-81534000D03*
X104521000Y-66929000D03*
X121539000Y-85852000D03*
X95504000Y-42418000D03*
X121539000Y-55753000D03*
X101981000Y-42418000D03*
X109093000Y-74422000D03*
X82550000Y-85852000D03*
X99060000Y-61976000D03*
X115189000Y-42418000D03*
X99314000Y-54356000D03*
X89662000Y-65786000D03*
X85852000Y-47879000D03*
X104394000Y-54356000D03*
X91440000Y-80772000D03*
X121539000Y-60960000D03*
X112649000Y-75819000D03*
X91313000Y-50546000D03*
X108712000Y-49276000D03*
X111633000Y-61087000D03*
X89027000Y-42418000D03*
X115189000Y-55753000D03*
X88519000Y-55880000D03*
X95250000Y-80518000D03*
X116332000Y-79629000D03*
X115316000Y-60960000D03*
X97409000Y-51689000D03*
X89027000Y-85852000D03*
X101346000Y-68326000D03*
X95123000Y-51181000D03*
X88392000Y-67437000D03*
X94440131Y-78780000D03*
X100584000Y-52578000D03*
X97028000Y-62230000D03*
X112649000Y-61976000D03*
X89662000Y-57785000D03*
D27*
X112268000Y-78486000D03*
D26*
X109601000Y-68961000D03*
X106807000Y-58547000D03*
X93091000Y-51689000D03*
X92964000Y-56896000D03*
X88519000Y-77851000D03*
X99314000Y-45212000D03*
X116332000Y-62865000D03*
X96901000Y-69977000D03*
X91694000Y-76962000D03*
X99314000Y-70739000D03*
X95123000Y-73152000D03*
X109601000Y-54991000D03*
X104521000Y-65659000D03*
X114427000Y-68707000D03*
X103124000Y-64135000D03*
X94488000Y-62065497D03*
X94488000Y-62865000D03*
X99822000Y-66294000D03*
X98171000Y-66294000D03*
X96520000Y-66294000D03*
X107696000Y-62484000D03*
X114300000Y-66040000D03*
X99695000Y-69342000D03*
X102743000Y-76708000D03*
X98171000Y-70739000D03*
X101219000Y-67437000D03*
X101727000Y-66802000D03*
X96520000Y-74041000D03*
X93091000Y-70231000D03*
X93091000Y-71120000D03*
X97028000Y-71106261D03*
X101092000Y-73914000D03*
D28*
X120523000Y-66294000D02*
X119126000Y-64897000D01*
X119126000Y-63627000D02*
X119126000Y-55118000D01*
X119126000Y-64897000D02*
X119126000Y-63627000D01*
D29*
X120523000Y-71374000D02*
X119126000Y-71374000D01*
D28*
X120523000Y-73914000D02*
X115155000Y-73914000D01*
X115155000Y-73914000D02*
X115123000Y-73946000D01*
X120523000Y-78994000D02*
X119126000Y-78994000D01*
D30*
X99949000Y-84836000D02*
X99949000Y-80645000D01*
X99949000Y-80645000D02*
X100203000Y-80391000D01*
X100203000Y-80391000D02*
X101347396Y-80391000D01*
X101347396Y-80391000D02*
X102108000Y-79630396D01*
X102108000Y-79630396D02*
X102108000Y-73802500D01*
X102108000Y-73802500D02*
X101584500Y-73279000D01*
X101584500Y-73279000D02*
X101584500Y-72214500D01*
X97409000Y-84836000D02*
X97409000Y-80264000D01*
X97409000Y-80264000D02*
X97917000Y-79756000D01*
X97917000Y-79756000D02*
X101346000Y-79756000D01*
X101346000Y-79756000D02*
X101658000Y-79444000D01*
X101658000Y-79444000D02*
X101658000Y-75363884D01*
X101658000Y-75363884D02*
X99584500Y-73290384D01*
X99584500Y-73290384D02*
X99584500Y-72214500D01*
D29*
X83566000Y-76327000D02*
X86106000Y-76327000D01*
X86106000Y-76327000D02*
X86741000Y-75692000D01*
X86741000Y-75692000D02*
X88522000Y-75692000D01*
X83566000Y-73787000D02*
X86106000Y-73787000D01*
X86106000Y-73787000D02*
X86741000Y-74422000D01*
X86741000Y-74422000D02*
X88522000Y-74422000D01*
D30*
X104521000Y-67355000D02*
X104521000Y-66929000D01*
D29*
X106299000Y-63749000D02*
X108027000Y-63749000D01*
X107723000Y-70813000D02*
X109220000Y-72310000D01*
X109220000Y-72310000D02*
X109220000Y-73279000D01*
X108027000Y-63749000D02*
X109043000Y-64765000D01*
X107569000Y-70813000D02*
X107723000Y-70813000D01*
X109220000Y-73279000D02*
X108077000Y-74422000D01*
X108077000Y-74422000D02*
X107569000Y-74422000D01*
D30*
X104074000Y-67802000D02*
X104521000Y-67355000D01*
X102997000Y-67802000D02*
X104074000Y-67802000D01*
X87583000Y-68834000D02*
X87583000Y-68246000D01*
X87583000Y-68246000D02*
X88392000Y-67437000D01*
X97084500Y-62286500D02*
X97028000Y-62230000D01*
X97084500Y-63889500D02*
X97084500Y-62286500D01*
X112776000Y-68199000D02*
X112776000Y-68730500D01*
X112649000Y-62865000D02*
X112649000Y-61976000D01*
D28*
X106760000Y-59436000D02*
X106760000Y-58594000D01*
X106807000Y-58547000D02*
X106760000Y-58500000D01*
X106760000Y-58500000D02*
X106760000Y-57658000D01*
X106760000Y-58594000D02*
X106807000Y-58547000D01*
D30*
X110744000Y-67818000D02*
X112395000Y-67818000D01*
X109601000Y-68961000D02*
X110744000Y-67818000D01*
X112395000Y-67818000D02*
X112776000Y-68199000D01*
X91622000Y-53158000D02*
X93091000Y-51689000D01*
X94672000Y-67302000D02*
X93260706Y-67302000D01*
X91622000Y-65663295D02*
X91622000Y-53158000D01*
X93260706Y-67302000D02*
X91622000Y-65663295D01*
X88522000Y-77848000D02*
X88519000Y-77851000D01*
X88522000Y-76962000D02*
X88522000Y-77848000D01*
D29*
X109352000Y-75946000D02*
X106830500Y-75946000D01*
X106830500Y-75946000D02*
X105814500Y-74930000D01*
D30*
X110302000Y-73946000D02*
X110302000Y-76745500D01*
D29*
X110302000Y-73946000D02*
X113223000Y-73946000D01*
D30*
X110302000Y-76745500D02*
X109450500Y-77597000D01*
X96084500Y-72214500D02*
X95853000Y-72446000D01*
X91313000Y-78105000D02*
X90932000Y-77724000D01*
X98171000Y-49276000D02*
X99314000Y-48133000D01*
X86995000Y-68132424D02*
X86995000Y-49784000D01*
X95853000Y-74073000D02*
X95250000Y-74676000D01*
X95250000Y-77597000D02*
X94742000Y-78105000D01*
X86995000Y-49784000D02*
X87503000Y-49276000D01*
X87503000Y-49276000D02*
X98171000Y-49276000D01*
X86770500Y-68356924D02*
X86995000Y-68132424D01*
X90932000Y-77724000D02*
X90932000Y-70612000D01*
X95250000Y-74676000D02*
X95250000Y-77597000D01*
X90551000Y-70231000D02*
X86868000Y-70231000D01*
X86770500Y-70133500D02*
X86770500Y-68356924D01*
X90932000Y-70612000D02*
X90551000Y-70231000D01*
X94742000Y-78105000D02*
X91313000Y-78105000D01*
X86868000Y-70231000D02*
X86770500Y-70133500D01*
X99314000Y-48133000D02*
X99314000Y-45212000D01*
X95853000Y-72446000D02*
X95853000Y-74073000D01*
D29*
X104031500Y-78491000D02*
X105814500Y-76708000D01*
X103886000Y-78491000D02*
X104031500Y-78491000D01*
X109361000Y-79441000D02*
X109427000Y-79375000D01*
X109427000Y-79836000D02*
X109427000Y-79375000D01*
X105886000Y-79441000D02*
X109361000Y-79441000D01*
X113112000Y-81169000D02*
X110760000Y-81169000D01*
X110760000Y-81169000D02*
X109427000Y-79836000D01*
D28*
X116951000Y-81169000D02*
X119126000Y-78994000D01*
D29*
X114300000Y-62865000D02*
X116332000Y-62865000D01*
D28*
X115012000Y-81169000D02*
X116951000Y-81169000D01*
D29*
X114062000Y-83169000D02*
X114062000Y-80295000D01*
X114062000Y-80295000D02*
X114982000Y-79375000D01*
D30*
X113618000Y-73025000D02*
X114427000Y-73025000D01*
X112776000Y-72183000D02*
X113618000Y-73025000D01*
X115123000Y-73721000D02*
X115123000Y-73946000D01*
X114427000Y-73025000D02*
X115123000Y-73721000D01*
D29*
X114173000Y-76788000D02*
X114982000Y-77597000D01*
X114173000Y-75946000D02*
X114173000Y-76788000D01*
X110617000Y-59102000D02*
X112442000Y-57277000D01*
X110617000Y-59182000D02*
X110617000Y-59102000D01*
D30*
X112776000Y-66905500D02*
X113499000Y-66182500D01*
D29*
X111220000Y-66868000D02*
X112738500Y-66868000D01*
D30*
X113499000Y-61014000D02*
X112617000Y-60132000D01*
D29*
X112738500Y-66868000D02*
X112776000Y-66905500D01*
D30*
X113499000Y-66182500D02*
X113499000Y-61014000D01*
D29*
X118988000Y-71236000D02*
X119126000Y-71374000D01*
X111645500Y-71236000D02*
X118988000Y-71236000D01*
X110871000Y-70461500D02*
X110871000Y-69117000D01*
X110871000Y-69117000D02*
X111220000Y-68768000D01*
X110871000Y-70461500D02*
X111645500Y-71236000D01*
X109220000Y-67818000D02*
X109220000Y-66294000D01*
X110824000Y-64690000D02*
X112649000Y-64690000D01*
X109220000Y-66294000D02*
X110824000Y-64690000D01*
X109043000Y-61545000D02*
X108585000Y-61087000D01*
X109043000Y-62865000D02*
X109043000Y-61545000D01*
X109728000Y-61722000D02*
X111043000Y-63037000D01*
X108585000Y-59436000D02*
X107696000Y-58547000D01*
X107442000Y-56720500D02*
X107032500Y-56720500D01*
X107032500Y-56720500D02*
X106873000Y-56561000D01*
X107696000Y-56974500D02*
X107442000Y-56720500D01*
X108585000Y-59436000D02*
X109728000Y-60579000D01*
X107696000Y-58547000D02*
X107696000Y-56974500D01*
X109728000Y-60579000D02*
X109728000Y-61722000D01*
X106873000Y-56561000D02*
X106873000Y-53880000D01*
X111043000Y-63037000D02*
X111043000Y-63815000D01*
X108773000Y-53279000D02*
X109093000Y-52959000D01*
D28*
X119126000Y-55118000D02*
X117983000Y-53975000D01*
D29*
X109093000Y-52959000D02*
X112014000Y-52959000D01*
X112014000Y-52959000D02*
X112418500Y-53363500D01*
X112418500Y-53363500D02*
X112418500Y-53975000D01*
X108773000Y-53880000D02*
X108773000Y-53279000D01*
D28*
X117983000Y-53975000D02*
X112418500Y-53975000D01*
D29*
X108585000Y-56642000D02*
X107823000Y-55880000D01*
X108585000Y-57658000D02*
X108585000Y-56642000D01*
D30*
X96901000Y-69977000D02*
X100203000Y-69977000D01*
X100203000Y-69977000D02*
X100584500Y-70358500D01*
X91694000Y-76962000D02*
X93472000Y-76962000D01*
X100584500Y-72214500D02*
X100584500Y-71247000D01*
X100584500Y-70358500D02*
X100584500Y-71247000D01*
X100330000Y-70104000D02*
X100584500Y-70358500D01*
X92618960Y-67802000D02*
X94672000Y-67802000D01*
X92075000Y-70231000D02*
X92075000Y-68345960D01*
X92075000Y-68345960D02*
X92618960Y-67802000D01*
X93472000Y-75692000D02*
X92497001Y-75692000D01*
X92497001Y-75692000D02*
X91625000Y-74819999D01*
X91625000Y-74819999D02*
X91625000Y-70681000D01*
X91625000Y-70681000D02*
X92075000Y-70231000D01*
X92456000Y-74422000D02*
X92075000Y-74041000D01*
X95758000Y-68582736D02*
X95477264Y-68302000D01*
X92075000Y-74041000D02*
X92075000Y-72644000D01*
X95477264Y-68302000D02*
X94672000Y-68302000D01*
X92456000Y-72263000D02*
X94516264Y-72263000D01*
X92075000Y-72644000D02*
X92456000Y-72263000D01*
X94516264Y-72263000D02*
X95758000Y-71021264D01*
X93472000Y-74422000D02*
X92456000Y-74422000D01*
X95758000Y-71021264D02*
X95758000Y-68582736D01*
X99314000Y-70739000D02*
X99695000Y-70739000D01*
X99695000Y-70739000D02*
X100012500Y-71056500D01*
X100012500Y-71056500D02*
X99822000Y-70866000D01*
X95123000Y-73152000D02*
X93472000Y-73152000D01*
X99463598Y-70866000D02*
X99436480Y-70893118D01*
X100084500Y-72214500D02*
X100084500Y-71128500D01*
X100084500Y-71128500D02*
X100012500Y-71056500D01*
X102036208Y-61410000D02*
X100584500Y-62861708D01*
X104834396Y-61410000D02*
X102036208Y-61410000D01*
X100584500Y-62861708D02*
X100584500Y-63889500D01*
X106760000Y-61087000D02*
X105157396Y-61087000D01*
X105157396Y-61087000D02*
X104834396Y-61410000D01*
X110593500Y-53975000D02*
X110109000Y-53975000D01*
D28*
X110593500Y-54991000D02*
X110593500Y-55626000D01*
X110593500Y-53975000D02*
X110593500Y-54991000D01*
D30*
X104372884Y-65802000D02*
X104510010Y-65664874D01*
X110109000Y-53975000D02*
X109601000Y-54483000D01*
X109601000Y-54483000D02*
X109601000Y-54991000D01*
X102997000Y-65802000D02*
X104372884Y-65802000D01*
X107442000Y-52959000D02*
X107823000Y-53340000D01*
X100084500Y-63889500D02*
X100084500Y-62725312D01*
X107823000Y-53340000D02*
X107823000Y-54483000D01*
X101849812Y-60960000D02*
X104648000Y-60960000D01*
X107823000Y-54483000D02*
X110617000Y-57277000D01*
X105918000Y-59690000D02*
X105918000Y-53340000D01*
X106299000Y-52959000D02*
X107442000Y-52959000D01*
X105918000Y-53340000D02*
X106299000Y-52959000D01*
X104648000Y-60960000D02*
X105918000Y-59690000D01*
X100084500Y-62725312D02*
X101849812Y-60960000D01*
X107378500Y-64960500D02*
X104330500Y-64960500D01*
X103989000Y-65302000D02*
X102997000Y-65302000D01*
X108369000Y-65951000D02*
X107378500Y-64960500D01*
D29*
X110871000Y-72136000D02*
X109220000Y-70485000D01*
D30*
X104330500Y-64960500D02*
X103989000Y-65302000D01*
X108369000Y-69634000D02*
X108369000Y-65951000D01*
X109220000Y-70485000D02*
X108369000Y-69634000D01*
D29*
X110871000Y-72286500D02*
X110871000Y-72136000D01*
D30*
X103989500Y-74930000D02*
X103989500Y-72747500D01*
X100907000Y-66861396D02*
X100262396Y-67506000D01*
X99584500Y-64694764D02*
X99841736Y-64952000D01*
X101934500Y-70311500D02*
X101934500Y-70866000D01*
X100907000Y-65726604D02*
X100907000Y-66294000D01*
X100132396Y-64952000D02*
X100907000Y-65726604D01*
X100262396Y-67506000D02*
X100203000Y-67565396D01*
X101934500Y-70866000D02*
X101934500Y-71259236D01*
X102684264Y-72009000D02*
X103251000Y-72009000D01*
X100203000Y-68580000D02*
X101473000Y-69850000D01*
X101473000Y-69850000D02*
X101934500Y-70311500D01*
X100907000Y-66294000D02*
X100907000Y-66861396D01*
X101934500Y-71259236D02*
X102684264Y-72009000D01*
X100203000Y-68199000D02*
X100203000Y-68580000D01*
X100203000Y-67565396D02*
X100203000Y-68199000D01*
X100203000Y-68199000D02*
X100203000Y-68453000D01*
X99584500Y-63889500D02*
X99584500Y-64694764D01*
X103989500Y-72747500D02*
X103251000Y-72009000D01*
X99841736Y-64952000D02*
X99949000Y-64952000D01*
X99949000Y-64952000D02*
X100132396Y-64952000D01*
X101584500Y-63134500D02*
X101854000Y-62865000D01*
D29*
X114403500Y-70358000D02*
X114427000Y-70334500D01*
D30*
X102616000Y-62865000D02*
X103124000Y-63373000D01*
X103124000Y-63373000D02*
X103124000Y-64135000D01*
X101584500Y-63889500D02*
X101584500Y-63134500D01*
D29*
X112776000Y-70358000D02*
X114403500Y-70358000D01*
D30*
X101854000Y-62865000D02*
X102616000Y-62865000D01*
X114427000Y-68707000D02*
X114427000Y-70334500D01*
X96584500Y-63889500D02*
X96584500Y-63055104D01*
X95594893Y-62065497D02*
X94488000Y-62065497D01*
X96584500Y-63055104D02*
X95594893Y-62065497D01*
X96084500Y-63889500D02*
X96084500Y-63191500D01*
X95758000Y-62865000D02*
X94488000Y-62865000D01*
X96084500Y-63191500D02*
X95758000Y-62865000D01*
X98584500Y-63889500D02*
X98584500Y-65056500D01*
X98584500Y-65056500D02*
X99822000Y-66294000D01*
X98084500Y-63889500D02*
X98084500Y-65278000D01*
X98171000Y-66294000D02*
X98171000Y-65364500D01*
X98171000Y-65364500D02*
X98084500Y-65278000D01*
X96520000Y-66294000D02*
X96520000Y-65757184D01*
X97584500Y-64692685D02*
X97140592Y-65136592D01*
X96520000Y-65757184D02*
X97140592Y-65136592D01*
X97584500Y-63889500D02*
X97584500Y-64692685D01*
X107627000Y-62415000D02*
X107696000Y-62484000D01*
X101084500Y-63889500D02*
X101084500Y-62998104D01*
X101084500Y-62998104D02*
X101667604Y-62415000D01*
X116078000Y-67818000D02*
X114300000Y-66040000D01*
X116078000Y-70358000D02*
X116078000Y-67818000D01*
X101667604Y-62415000D02*
X107627000Y-62415000D01*
D29*
X114300000Y-64690000D02*
X114300000Y-66040000D01*
D30*
X99695000Y-68199000D02*
X99695000Y-69342000D01*
X99949000Y-65405000D02*
X100457000Y-65913000D01*
X99695000Y-67437000D02*
X99695000Y-67945000D01*
X99084500Y-63889500D02*
X99084500Y-64694764D01*
X100457000Y-66421000D02*
X100457000Y-66675000D01*
X100457000Y-65913000D02*
X100457000Y-66421000D01*
X102743000Y-76708000D02*
X103989500Y-76708000D01*
X99084500Y-64831160D02*
X99549670Y-65296330D01*
X99695000Y-67945000D02*
X99695000Y-68199000D01*
X99549670Y-65296330D02*
X99658340Y-65405000D01*
X99084500Y-63889500D02*
X99084500Y-64831160D01*
X100457000Y-66675000D02*
X100076000Y-67056000D01*
X100076000Y-67056000D02*
X99695000Y-67437000D01*
X99658340Y-65405000D02*
X99949000Y-65405000D01*
X98584500Y-72214500D02*
X98584500Y-71152500D01*
X98584500Y-71152500D02*
X98171000Y-70739000D01*
D29*
X91262000Y-68834000D02*
X89408000Y-68834000D01*
D30*
X102997000Y-70302000D02*
X103902264Y-70302000D01*
X105410000Y-71809736D02*
X105410000Y-72719000D01*
X103902264Y-70302000D02*
X105410000Y-71809736D01*
X107569000Y-72697000D02*
X105432000Y-72697000D01*
X105432000Y-72697000D02*
X105410000Y-72719000D01*
X102997000Y-69802000D02*
X105077000Y-69802000D01*
X105077000Y-69802000D02*
X105410000Y-69469000D01*
X105791000Y-69088000D02*
X105410000Y-69469000D01*
X107569000Y-69088000D02*
X105791000Y-69088000D01*
X102191736Y-67302000D02*
X102997000Y-67302000D01*
X102237884Y-67302000D02*
X102212884Y-67327000D01*
X101473000Y-67437000D02*
X102056736Y-67437000D01*
X102997000Y-67302000D02*
X102237884Y-67302000D01*
X102056736Y-67437000D02*
X102191736Y-67302000D01*
X101727000Y-66802000D02*
X102997000Y-66802000D01*
X96584500Y-73976500D02*
X96584500Y-72214500D01*
X96520000Y-74041000D02*
X96584500Y-73976500D01*
X93980000Y-61087000D02*
X98171000Y-61087000D01*
X94672000Y-65302000D02*
X93877000Y-65302000D01*
X98552000Y-60706000D02*
X98552000Y-59817000D01*
X93472000Y-64897000D02*
X93472000Y-61595000D01*
X93877000Y-65302000D02*
X93472000Y-64897000D01*
X93472000Y-61595000D02*
X93980000Y-61087000D01*
X98171000Y-61087000D02*
X98552000Y-60706000D01*
X93403000Y-59817000D02*
X96012000Y-59817000D01*
X93740604Y-65802000D02*
X93022000Y-65083396D01*
X93022000Y-65083396D02*
X93022000Y-60198000D01*
X94672000Y-65802000D02*
X93740604Y-65802000D01*
X93022000Y-60198000D02*
X93403000Y-59817000D01*
X98552000Y-58039000D02*
X98552000Y-57277000D01*
X98044000Y-58547000D02*
X98552000Y-58039000D01*
X92572000Y-60011604D02*
X94036604Y-58547000D01*
X92572000Y-65269792D02*
X92572000Y-60011604D01*
X93604208Y-66302000D02*
X92572000Y-65269792D01*
X94036604Y-58547000D02*
X98044000Y-58547000D01*
X94672000Y-66302000D02*
X93604208Y-66302000D01*
X101092000Y-56199370D02*
X101092000Y-57277000D01*
X96139000Y-55557000D02*
X100449630Y-55557000D01*
X94672000Y-66802000D02*
X93467812Y-66802000D01*
X92122000Y-65456188D02*
X92122000Y-59574000D01*
X93467812Y-66802000D02*
X92122000Y-65456188D01*
X92122000Y-59574000D02*
X96139000Y-55557000D01*
X100449630Y-55557000D02*
X101092000Y-56199370D01*
X92869000Y-68802000D02*
X92837000Y-68834000D01*
X94672000Y-68802000D02*
X92869000Y-68802000D01*
X94672000Y-70302000D02*
X93162000Y-70302000D01*
X93162000Y-70302000D02*
X93091000Y-70231000D01*
X93409000Y-70802000D02*
X93091000Y-71120000D01*
X94672000Y-70802000D02*
X93409000Y-70802000D01*
X97084500Y-71166387D02*
X97084500Y-72214500D01*
X97144626Y-71106261D02*
X97084500Y-71166387D01*
X97584500Y-76289000D02*
X97622500Y-76327000D01*
X97028000Y-74803000D02*
X97584500Y-74246500D01*
X97028000Y-76327000D02*
X97028000Y-74803000D01*
X97584500Y-74246500D02*
X97584500Y-72214500D01*
X98084500Y-72214500D02*
X98084500Y-74208500D01*
X100076000Y-75438000D02*
X99441000Y-74803000D01*
X100670500Y-76327000D02*
X100711000Y-76286500D01*
X100076000Y-76327000D02*
X100076000Y-75438000D01*
X98679000Y-74803000D02*
X99441000Y-74803000D01*
X98084500Y-74208500D02*
X98679000Y-74803000D01*
X101084500Y-73906500D02*
X101092000Y-73914000D01*
X101084500Y-72214500D02*
X101084500Y-73906500D01*
X106286000Y-66302000D02*
X106299000Y-66289000D01*
X102997000Y-66302000D02*
X103010000Y-66289000D01*
X102997000Y-66302000D02*
X106286000Y-66302000D01*
G04 #@! TA.AperFunction,Conductor*
G36*
X102159876Y-68091685D02*
G01*
X102161728Y-68092898D01*
X102227005Y-68136515D01*
X102227008Y-68136515D01*
X102227009Y-68136516D01*
X102267186Y-68144507D01*
X102307367Y-68152500D01*
X103484516Y-68152499D01*
X103551555Y-68172184D01*
X103560002Y-68178123D01*
X103599602Y-68208509D01*
X103622491Y-68231398D01*
X103682074Y-68309048D01*
X103698259Y-68337081D01*
X103735715Y-68427508D01*
X103744093Y-68458775D01*
X103757939Y-68563939D01*
X103759000Y-68580125D01*
X103759000Y-68960874D01*
X103757939Y-68977060D01*
X103744093Y-69082224D01*
X103735715Y-69113491D01*
X103698259Y-69203918D01*
X103682074Y-69231951D01*
X103622491Y-69309601D01*
X103599602Y-69332491D01*
X103521951Y-69392075D01*
X103493916Y-69408260D01*
X103412314Y-69442061D01*
X103364863Y-69451500D01*
X102530285Y-69451500D01*
X102473990Y-69437984D01*
X102409551Y-69405150D01*
X102378167Y-69382348D01*
X102321651Y-69325832D01*
X102298850Y-69294450D01*
X102262561Y-69223230D01*
X102250576Y-69186345D01*
X102235000Y-69088000D01*
X102235000Y-68707000D01*
X101854005Y-68707000D01*
X101294711Y-68707000D01*
X101270520Y-68704617D01*
X101185190Y-68687644D01*
X101140490Y-68669129D01*
X101078499Y-68627707D01*
X101044292Y-68593500D01*
X101002869Y-68531506D01*
X100984356Y-68486812D01*
X100969811Y-68413686D01*
X100969811Y-68365313D01*
X100984356Y-68292185D01*
X101002868Y-68247494D01*
X101044294Y-68185496D01*
X101078496Y-68151294D01*
X101140494Y-68109868D01*
X101185182Y-68091357D01*
X101270528Y-68074381D01*
X101294711Y-68072000D01*
X102092837Y-68072000D01*
X102159876Y-68091685D01*
G37*
G04 #@! TD.AperFunction*
G04 #@! TA.AperFunction,Conductor*
G36*
X113173059Y-77090061D02*
G01*
X113278223Y-77103906D01*
X113309491Y-77112284D01*
X113399918Y-77149740D01*
X113427952Y-77165925D01*
X113505602Y-77225509D01*
X113528491Y-77248398D01*
X113588074Y-77326048D01*
X113604259Y-77354081D01*
X113641715Y-77444508D01*
X113650093Y-77475775D01*
X113663939Y-77580939D01*
X113665000Y-77597125D01*
X113665000Y-79374874D01*
X113663939Y-79391060D01*
X113650093Y-79496224D01*
X113641715Y-79527491D01*
X113604259Y-79617918D01*
X113588074Y-79645951D01*
X113528491Y-79723601D01*
X113505601Y-79746491D01*
X113427951Y-79806074D01*
X113399918Y-79822259D01*
X113309491Y-79859715D01*
X113278224Y-79868093D01*
X113184398Y-79880446D01*
X113173058Y-79881939D01*
X113156874Y-79883000D01*
X111252126Y-79883000D01*
X111235941Y-79881939D01*
X111222917Y-79880224D01*
X111130775Y-79868093D01*
X111099508Y-79859715D01*
X111009081Y-79822259D01*
X110981048Y-79806074D01*
X110903398Y-79746491D01*
X110880508Y-79723601D01*
X110820925Y-79645951D01*
X110804740Y-79617918D01*
X110767284Y-79527491D01*
X110758906Y-79496223D01*
X110745061Y-79391059D01*
X110744000Y-79374874D01*
X110744000Y-77597125D01*
X110745061Y-77580940D01*
X110758906Y-77475776D01*
X110767284Y-77444508D01*
X110804740Y-77354081D01*
X110820923Y-77326050D01*
X110880513Y-77248392D01*
X110903392Y-77225513D01*
X110981050Y-77165923D01*
X111009079Y-77149740D01*
X111099509Y-77112283D01*
X111130775Y-77103906D01*
X111235941Y-77090061D01*
X111252126Y-77089000D01*
X113156874Y-77089000D01*
X113173059Y-77090061D01*
G37*
G04 #@! TD.AperFunction*
G04 #@! TA.AperFunction,Conductor*
G36*
X119508214Y-74823502D02*
G01*
X119532791Y-74844160D01*
X119599760Y-74916906D01*
X119599762Y-74916908D01*
X119626171Y-74937463D01*
X119777424Y-75055189D01*
X119811205Y-75073470D01*
X119861596Y-75123482D01*
X119876949Y-75192799D01*
X119852389Y-75259412D01*
X119811209Y-75295096D01*
X119777704Y-75313228D01*
X119777698Y-75313232D01*
X119600097Y-75451465D01*
X119447674Y-75617041D01*
X119324580Y-75805451D01*
X119234179Y-76011543D01*
X119234176Y-76011550D01*
X119186455Y-76199999D01*
X119186456Y-76200000D01*
X120091884Y-76200000D01*
X120063507Y-76244156D01*
X120023000Y-76382111D01*
X120023000Y-76525889D01*
X120063507Y-76663844D01*
X120091884Y-76708000D01*
X119186455Y-76708000D01*
X119234176Y-76896449D01*
X119234179Y-76896456D01*
X119324580Y-77102548D01*
X119447674Y-77290958D01*
X119600097Y-77456534D01*
X119777698Y-77594767D01*
X119777704Y-77594771D01*
X119811207Y-77612902D01*
X119861597Y-77662915D01*
X119876949Y-77732232D01*
X119852388Y-77798845D01*
X119811207Y-77834528D01*
X119777430Y-77852807D01*
X119777424Y-77852811D01*
X119599762Y-77991091D01*
X119532794Y-78063838D01*
X119471940Y-78100409D01*
X119440093Y-78104500D01*
X119205924Y-78104500D01*
X119186214Y-78102949D01*
X119172805Y-78100825D01*
X119108821Y-78104179D01*
X119106005Y-78104327D01*
X119099413Y-78104500D01*
X119079380Y-78104500D01*
X119079377Y-78104500D01*
X119079360Y-78104501D01*
X119059449Y-78106593D01*
X119052881Y-78107110D01*
X118986083Y-78110611D01*
X118972972Y-78114124D01*
X118953547Y-78117725D01*
X118940044Y-78119145D01*
X118940038Y-78119146D01*
X118876410Y-78139819D01*
X118870091Y-78141691D01*
X118805472Y-78159006D01*
X118793377Y-78165169D01*
X118775124Y-78172730D01*
X118762218Y-78176924D01*
X118762215Y-78176925D01*
X118704268Y-78210379D01*
X118698490Y-78213516D01*
X118638873Y-78243894D01*
X118638868Y-78243897D01*
X118628324Y-78252435D01*
X118612045Y-78263624D01*
X118600292Y-78270410D01*
X118600280Y-78270419D01*
X118550574Y-78315173D01*
X118545571Y-78319447D01*
X118529991Y-78332065D01*
X118529985Y-78332071D01*
X118515822Y-78346233D01*
X118511043Y-78350768D01*
X118461330Y-78395530D01*
X118453346Y-78406518D01*
X118440511Y-78421544D01*
X116619460Y-80242596D01*
X116557150Y-80276620D01*
X116530367Y-80279500D01*
X115922363Y-80279500D01*
X115854242Y-80259498D01*
X115807749Y-80205842D01*
X115797645Y-80135568D01*
X115819082Y-80085688D01*
X115817305Y-80084592D01*
X115821158Y-80078346D01*
X115912709Y-79929920D01*
X115967562Y-79764381D01*
X115978000Y-79662213D01*
X115977999Y-79087788D01*
X115975958Y-79067813D01*
X115967562Y-78985619D01*
X115952326Y-78939638D01*
X115912709Y-78820080D01*
X115821158Y-78671654D01*
X115821157Y-78671653D01*
X115821152Y-78671647D01*
X115724600Y-78575095D01*
X115690574Y-78512783D01*
X115695639Y-78441968D01*
X115724600Y-78396905D01*
X115821152Y-78300352D01*
X115821158Y-78300346D01*
X115912709Y-78151920D01*
X115967562Y-77986381D01*
X115978000Y-77884213D01*
X115977999Y-77309788D01*
X115976075Y-77290958D01*
X115967562Y-77207619D01*
X115953196Y-77164264D01*
X115912709Y-77042080D01*
X115821158Y-76893654D01*
X115821157Y-76893653D01*
X115821152Y-76893647D01*
X115697852Y-76770347D01*
X115697846Y-76770342D01*
X115657553Y-76745489D01*
X115549420Y-76678791D01*
X115383881Y-76623938D01*
X115383879Y-76623937D01*
X115383877Y-76623937D01*
X115281721Y-76613500D01*
X115281713Y-76613500D01*
X115203618Y-76613500D01*
X115135497Y-76593498D01*
X115089004Y-76539842D01*
X115078340Y-76474031D01*
X115081499Y-76444647D01*
X115081500Y-76444632D01*
X115081500Y-75447367D01*
X115081499Y-75447350D01*
X115074990Y-75386803D01*
X115074988Y-75386795D01*
X115045924Y-75308875D01*
X115023889Y-75249796D01*
X115023888Y-75249794D01*
X115023887Y-75249792D01*
X114936261Y-75132738D01*
X114934430Y-75131368D01*
X114933057Y-75129534D01*
X114929889Y-75126366D01*
X114930344Y-75125910D01*
X114891883Y-75074533D01*
X114886818Y-75003717D01*
X114920844Y-74941405D01*
X114983156Y-74907379D01*
X115009939Y-74904500D01*
X115571632Y-74904500D01*
X115571638Y-74904500D01*
X115571645Y-74904499D01*
X115571649Y-74904499D01*
X115632196Y-74897990D01*
X115632199Y-74897989D01*
X115632201Y-74897989D01*
X115769204Y-74846889D01*
X115793593Y-74828631D01*
X115860113Y-74803821D01*
X115869102Y-74803500D01*
X119440093Y-74803500D01*
X119508214Y-74823502D01*
G37*
G04 #@! TD.AperFunction*
G04 #@! TA.AperFunction,Conductor*
G36*
X112379254Y-74665002D02*
G01*
X112412001Y-74695491D01*
X112459738Y-74759261D01*
X112576792Y-74846887D01*
X112576794Y-74846888D01*
X112576796Y-74846889D01*
X112626704Y-74865504D01*
X112713795Y-74897988D01*
X112713803Y-74897990D01*
X112774350Y-74904499D01*
X112774355Y-74904499D01*
X112774362Y-74904500D01*
X112774368Y-74904500D01*
X113336061Y-74904500D01*
X113404182Y-74924502D01*
X113450675Y-74978158D01*
X113460779Y-75048432D01*
X113431285Y-75113012D01*
X113411570Y-75131368D01*
X113409738Y-75132738D01*
X113322112Y-75249792D01*
X113322110Y-75249797D01*
X113271011Y-75386795D01*
X113271009Y-75386803D01*
X113264500Y-75447350D01*
X113264500Y-76448012D01*
X113263152Y-76448012D01*
X113248082Y-76511832D01*
X113197000Y-76561138D01*
X113138580Y-76575500D01*
X112285918Y-76575500D01*
X112217797Y-76555498D01*
X112171304Y-76501842D01*
X112161081Y-76447965D01*
X112160000Y-76447965D01*
X112160000Y-76200000D01*
X111124000Y-76200000D01*
X111055879Y-76179998D01*
X111009386Y-76126342D01*
X110998000Y-76074000D01*
X110998000Y-74988000D01*
X111506000Y-74988000D01*
X111506000Y-75692000D01*
X112160000Y-75692000D01*
X112160000Y-75447414D01*
X112159999Y-75447402D01*
X112153494Y-75386906D01*
X112102444Y-75250035D01*
X112102444Y-75250034D01*
X112014904Y-75133095D01*
X111897965Y-75045555D01*
X111761093Y-74994505D01*
X111700597Y-74988000D01*
X111506000Y-74988000D01*
X110998000Y-74988000D01*
X110998000Y-74987331D01*
X110964777Y-74926490D01*
X110969842Y-74855675D01*
X111012386Y-74798842D01*
X111065261Y-74759261D01*
X111112999Y-74695491D01*
X111169835Y-74652944D01*
X111213867Y-74645000D01*
X112311133Y-74645000D01*
X112379254Y-74665002D01*
G37*
G04 #@! TD.AperFunction*
G04 #@! TA.AperFunction,Conductor*
G36*
X109416121Y-72076002D02*
G01*
X109462614Y-72129658D01*
X109474000Y-72182000D01*
X109474000Y-73177283D01*
X109455086Y-73241698D01*
X109455430Y-73241886D01*
X109454566Y-73243466D01*
X109453998Y-73245404D01*
X109451708Y-73248701D01*
X109451110Y-73249796D01*
X109400011Y-73386795D01*
X109400009Y-73386803D01*
X109393500Y-73447350D01*
X109393500Y-74444649D01*
X109400009Y-74505196D01*
X109400011Y-74505204D01*
X109451110Y-74642202D01*
X109451112Y-74642207D01*
X109538738Y-74759261D01*
X109540570Y-74760632D01*
X109541942Y-74762465D01*
X109545111Y-74765634D01*
X109544655Y-74766089D01*
X109583117Y-74817467D01*
X109588182Y-74888283D01*
X109554156Y-74950595D01*
X109491844Y-74984621D01*
X109465061Y-74987500D01*
X108903350Y-74987500D01*
X108842803Y-74994009D01*
X108842795Y-74994011D01*
X108699964Y-75047286D01*
X108629148Y-75052352D01*
X108566836Y-75018327D01*
X108532811Y-74956015D01*
X108536327Y-74889597D01*
X108541567Y-74873781D01*
X108541569Y-74873773D01*
X108551999Y-74771684D01*
X108552000Y-74771684D01*
X108552000Y-74676000D01*
X107441000Y-74676000D01*
X107372879Y-74655998D01*
X107326386Y-74602342D01*
X107315000Y-74550000D01*
X107315000Y-74294000D01*
X107335002Y-74225879D01*
X107388658Y-74179386D01*
X107441000Y-74168000D01*
X108552000Y-74168000D01*
X108552000Y-74072315D01*
X108541569Y-73970226D01*
X108541568Y-73970223D01*
X108486751Y-73804792D01*
X108395262Y-73656466D01*
X108395257Y-73656460D01*
X108387745Y-73648948D01*
X108353719Y-73586636D01*
X108358784Y-73515821D01*
X108387747Y-73470756D01*
X108395658Y-73462846D01*
X108487209Y-73314420D01*
X108487792Y-73312660D01*
X108488521Y-73311606D01*
X108490314Y-73307763D01*
X108490970Y-73308069D01*
X108528198Y-73254286D01*
X108593751Y-73227022D01*
X108660654Y-73238088D01*
X108665292Y-73240250D01*
X108830723Y-73295068D01*
X108830726Y-73295069D01*
X108932815Y-73305499D01*
X108932815Y-73305500D01*
X108966000Y-73305500D01*
X108966000Y-72182000D01*
X108986002Y-72113879D01*
X109039658Y-72067386D01*
X109092000Y-72056000D01*
X109348000Y-72056000D01*
X109416121Y-72076002D01*
G37*
G04 #@! TD.AperFunction*
G04 #@! TA.AperFunction,Conductor*
G36*
X118733287Y-71955002D02*
G01*
X118742873Y-71961815D01*
X118761725Y-71976585D01*
X118770755Y-71980649D01*
X118790623Y-71991855D01*
X118798771Y-71997479D01*
X118798775Y-71997481D01*
X118854825Y-72018738D01*
X118861847Y-72021646D01*
X118916517Y-72046251D01*
X118926253Y-72048035D01*
X118948230Y-72054161D01*
X118957490Y-72057673D01*
X119017034Y-72064902D01*
X119024478Y-72066034D01*
X119083485Y-72076849D01*
X119143315Y-72073230D01*
X119150922Y-72073000D01*
X119288755Y-72073000D01*
X119356876Y-72093002D01*
X119394238Y-72130085D01*
X119447275Y-72211264D01*
X119447279Y-72211270D01*
X119599762Y-72376908D01*
X119612446Y-72386780D01*
X119777424Y-72515189D01*
X119810680Y-72533186D01*
X119861071Y-72583200D01*
X119876423Y-72652516D01*
X119851862Y-72719129D01*
X119810680Y-72754813D01*
X119777426Y-72772810D01*
X119777424Y-72772811D01*
X119599762Y-72911091D01*
X119563169Y-72950842D01*
X119549869Y-72965290D01*
X119532794Y-72983838D01*
X119471940Y-73020409D01*
X119440093Y-73024500D01*
X117052324Y-73024500D01*
X116984203Y-73004498D01*
X116937710Y-72950842D01*
X116927606Y-72880568D01*
X116945083Y-72832353D01*
X116995751Y-72750207D01*
X117050568Y-72584776D01*
X117050569Y-72584773D01*
X117060999Y-72482684D01*
X117061000Y-72482684D01*
X117061000Y-72437000D01*
X115127691Y-72437000D01*
X115059570Y-72416998D01*
X115055230Y-72413500D01*
X114625677Y-72413500D01*
X114605965Y-72411949D01*
X114605145Y-72411819D01*
X114561474Y-72404901D01*
X114549853Y-72402495D01*
X114507030Y-72391500D01*
X114507029Y-72391500D01*
X114486776Y-72391500D01*
X114467066Y-72389949D01*
X114447057Y-72386780D01*
X114403039Y-72390941D01*
X114391181Y-72391500D01*
X114299000Y-72391500D01*
X114230879Y-72371498D01*
X114184386Y-72317842D01*
X114173000Y-72265500D01*
X114173000Y-72061000D01*
X114193002Y-71992879D01*
X114246658Y-71946386D01*
X114299000Y-71935000D01*
X118665166Y-71935000D01*
X118733287Y-71955002D01*
G37*
G04 #@! TD.AperFunction*
G04 #@! TA.AperFunction,Conductor*
G36*
X117630488Y-54884502D02*
G01*
X117651462Y-54901405D01*
X118199595Y-55449538D01*
X118233621Y-55511850D01*
X118236500Y-55538633D01*
X118236500Y-64817074D01*
X118234949Y-64836784D01*
X118232825Y-64850190D01*
X118236327Y-64916998D01*
X118236500Y-64923593D01*
X118236500Y-64943623D01*
X118238593Y-64963534D01*
X118239110Y-64970112D01*
X118242610Y-65036908D01*
X118242611Y-65036919D01*
X118246125Y-65050033D01*
X118249726Y-65069463D01*
X118251144Y-65082957D01*
X118271818Y-65146582D01*
X118273691Y-65152906D01*
X118285718Y-65197792D01*
X118291006Y-65217524D01*
X118297165Y-65229613D01*
X118304729Y-65247872D01*
X118308925Y-65260785D01*
X118342385Y-65318739D01*
X118345523Y-65324520D01*
X118375891Y-65384123D01*
X118384430Y-65394667D01*
X118395629Y-65410961D01*
X118402415Y-65422715D01*
X118424314Y-65447037D01*
X118447182Y-65472434D01*
X118451465Y-65477449D01*
X118464064Y-65493007D01*
X118464069Y-65493013D01*
X118478210Y-65507154D01*
X118482751Y-65511938D01*
X118527530Y-65561669D01*
X118538509Y-65569646D01*
X118553545Y-65582488D01*
X119127595Y-66156538D01*
X119161621Y-66218850D01*
X119164500Y-66245633D01*
X119164500Y-67192649D01*
X119171009Y-67253196D01*
X119171011Y-67253204D01*
X119222110Y-67390202D01*
X119222112Y-67390207D01*
X119309738Y-67507261D01*
X119426792Y-67594887D01*
X119426796Y-67594889D01*
X119542312Y-67637975D01*
X119599148Y-67680522D01*
X119623958Y-67747042D01*
X119608866Y-67816416D01*
X119590981Y-67841367D01*
X119447674Y-67997041D01*
X119324580Y-68185451D01*
X119234179Y-68391543D01*
X119234176Y-68391550D01*
X119186455Y-68579999D01*
X119186456Y-68580000D01*
X120091884Y-68580000D01*
X120063507Y-68624156D01*
X120023000Y-68762111D01*
X120023000Y-68905889D01*
X120063507Y-69043844D01*
X120091884Y-69088000D01*
X119186455Y-69088000D01*
X119234176Y-69276449D01*
X119234179Y-69276456D01*
X119324580Y-69482548D01*
X119447674Y-69670958D01*
X119600097Y-69836534D01*
X119777698Y-69974767D01*
X119777704Y-69974771D01*
X119811207Y-69992902D01*
X119861597Y-70042915D01*
X119876949Y-70112232D01*
X119852388Y-70178845D01*
X119811207Y-70214528D01*
X119777430Y-70232807D01*
X119777424Y-70232811D01*
X119599762Y-70371091D01*
X119447276Y-70536734D01*
X119436791Y-70552782D01*
X119382786Y-70598868D01*
X119312438Y-70608440D01*
X119286631Y-70601674D01*
X119259177Y-70591262D01*
X119252147Y-70588350D01*
X119197483Y-70563748D01*
X119197478Y-70563747D01*
X119187732Y-70561961D01*
X119165774Y-70555840D01*
X119156510Y-70552327D01*
X119156503Y-70552325D01*
X119097002Y-70545101D01*
X119089477Y-70543956D01*
X119030515Y-70533151D01*
X118970684Y-70536770D01*
X118963077Y-70537000D01*
X117187500Y-70537000D01*
X117119379Y-70516998D01*
X117072886Y-70463342D01*
X117061500Y-70411000D01*
X117061499Y-70058287D01*
X117051062Y-69956119D01*
X117047648Y-69945815D01*
X116996209Y-69790580D01*
X116904658Y-69642154D01*
X116904657Y-69642153D01*
X116904652Y-69642147D01*
X116781352Y-69518847D01*
X116781344Y-69518840D01*
X116771350Y-69512676D01*
X116723873Y-69459889D01*
X116711500Y-69405437D01*
X116711500Y-67901854D01*
X116713249Y-67886012D01*
X116712956Y-67885985D01*
X116713700Y-67878099D01*
X116713702Y-67878092D01*
X116711562Y-67810000D01*
X116711500Y-67806042D01*
X116711500Y-67778150D01*
X116711500Y-67778144D01*
X116710993Y-67774135D01*
X116710062Y-67762306D01*
X116708674Y-67718111D01*
X116703017Y-67698642D01*
X116699012Y-67679298D01*
X116696474Y-67659203D01*
X116680196Y-67618092D01*
X116676356Y-67606877D01*
X116664018Y-67564407D01*
X116653706Y-67546970D01*
X116645010Y-67529221D01*
X116637552Y-67510383D01*
X116611552Y-67474598D01*
X116605059Y-67464714D01*
X116582542Y-67426638D01*
X116568214Y-67412310D01*
X116555384Y-67397289D01*
X116543472Y-67380893D01*
X116543469Y-67380891D01*
X116543469Y-67380890D01*
X116509394Y-67352700D01*
X116500616Y-67344712D01*
X115134343Y-65978438D01*
X115100317Y-65916126D01*
X115098232Y-65903464D01*
X115093217Y-65858953D01*
X115038363Y-65702191D01*
X115034744Y-65631288D01*
X115070034Y-65569683D01*
X115091147Y-65553336D01*
X115093313Y-65552000D01*
X115130346Y-65529158D01*
X115253658Y-65405846D01*
X115345209Y-65257420D01*
X115400062Y-65091881D01*
X115410500Y-64989713D01*
X115410499Y-64390288D01*
X115410182Y-64387189D01*
X115400062Y-64288119D01*
X115389388Y-64255906D01*
X115345209Y-64122580D01*
X115253658Y-63974154D01*
X115253657Y-63974153D01*
X115253652Y-63974147D01*
X115146099Y-63866594D01*
X115112073Y-63804282D01*
X115117138Y-63733467D01*
X115146095Y-63688408D01*
X115233601Y-63600902D01*
X115295911Y-63566879D01*
X115322694Y-63564000D01*
X115888506Y-63564000D01*
X115955541Y-63583312D01*
X115978985Y-63598043D01*
X116150953Y-63658217D01*
X116332000Y-63678616D01*
X116513047Y-63658217D01*
X116685015Y-63598043D01*
X116839281Y-63501111D01*
X116968111Y-63372281D01*
X117065043Y-63218015D01*
X117125217Y-63046047D01*
X117145616Y-62865000D01*
X117125217Y-62683953D01*
X117065043Y-62511985D01*
X117065041Y-62511982D01*
X117065041Y-62511981D01*
X116968112Y-62357720D01*
X116968111Y-62357718D01*
X116839281Y-62228888D01*
X116839279Y-62228887D01*
X116685018Y-62131958D01*
X116685015Y-62131957D01*
X116513050Y-62071784D01*
X116513049Y-62071783D01*
X116513047Y-62071783D01*
X116332000Y-62051384D01*
X116150953Y-62071783D01*
X116150950Y-62071783D01*
X116150949Y-62071784D01*
X115978985Y-62131956D01*
X115962015Y-62142619D01*
X115955541Y-62146687D01*
X115888506Y-62166000D01*
X115322694Y-62166000D01*
X115254573Y-62145998D01*
X115233603Y-62129099D01*
X115130346Y-62025842D01*
X114981920Y-61934291D01*
X114816381Y-61879438D01*
X114816379Y-61879437D01*
X114816377Y-61879437D01*
X114714221Y-61869000D01*
X114258500Y-61869000D01*
X114190379Y-61848998D01*
X114143886Y-61795342D01*
X114132500Y-61743000D01*
X114132500Y-61097849D01*
X114134249Y-61082012D01*
X114133955Y-61081985D01*
X114134701Y-61074092D01*
X114132562Y-61006031D01*
X114132500Y-61002073D01*
X114132500Y-60974151D01*
X114132500Y-60974144D01*
X114131991Y-60970123D01*
X114131061Y-60958296D01*
X114130559Y-60942320D01*
X114129673Y-60914110D01*
X114124022Y-60894663D01*
X114120012Y-60875300D01*
X114117474Y-60855203D01*
X114101195Y-60814090D01*
X114097353Y-60802869D01*
X114085018Y-60760407D01*
X114074705Y-60742969D01*
X114066010Y-60725222D01*
X114058552Y-60706383D01*
X114032568Y-60670620D01*
X114026051Y-60660699D01*
X114003541Y-60622635D01*
X113989218Y-60608312D01*
X113976377Y-60593279D01*
X113964471Y-60576892D01*
X113930405Y-60548710D01*
X113921626Y-60540721D01*
X113612405Y-60231500D01*
X113578379Y-60169188D01*
X113575500Y-60142405D01*
X113575500Y-59683367D01*
X113575499Y-59683350D01*
X113568990Y-59622803D01*
X113568988Y-59622795D01*
X113527730Y-59512180D01*
X113517889Y-59485796D01*
X113517888Y-59485794D01*
X113517887Y-59485792D01*
X113430261Y-59368738D01*
X113313207Y-59281112D01*
X113313202Y-59281110D01*
X113176204Y-59230011D01*
X113176196Y-59230009D01*
X113115649Y-59223500D01*
X113115638Y-59223500D01*
X112118362Y-59223500D01*
X112118350Y-59223500D01*
X112057803Y-59230009D01*
X112057795Y-59230011D01*
X111920797Y-59281110D01*
X111920792Y-59281112D01*
X111803736Y-59368740D01*
X111802364Y-59370574D01*
X111800530Y-59371946D01*
X111797366Y-59375111D01*
X111796910Y-59374655D01*
X111745526Y-59413118D01*
X111674710Y-59418179D01*
X111612400Y-59384151D01*
X111578378Y-59321837D01*
X111575500Y-59295060D01*
X111575500Y-59184226D01*
X111595502Y-59116105D01*
X111612405Y-59095131D01*
X112410132Y-58297404D01*
X112472444Y-58263378D01*
X112499227Y-58260499D01*
X112741712Y-58260499D01*
X112843881Y-58250062D01*
X113009420Y-58195209D01*
X113157846Y-58103658D01*
X113281158Y-57980346D01*
X113372709Y-57831920D01*
X113427562Y-57666381D01*
X113438000Y-57564213D01*
X113437999Y-56989788D01*
X113427562Y-56887619D01*
X113372709Y-56722080D01*
X113281158Y-56573654D01*
X113281157Y-56573653D01*
X113281152Y-56573647D01*
X113235995Y-56528490D01*
X113201969Y-56466178D01*
X113207034Y-56395363D01*
X113235998Y-56350296D01*
X113257262Y-56329033D01*
X113348751Y-56180707D01*
X113403568Y-56015276D01*
X113403569Y-56015273D01*
X113413999Y-55913184D01*
X113414000Y-55913184D01*
X113414000Y-55880000D01*
X112290500Y-55880000D01*
X112222379Y-55859998D01*
X112175886Y-55806342D01*
X112164500Y-55754000D01*
X112164500Y-55498000D01*
X112184502Y-55429879D01*
X112238158Y-55383386D01*
X112290500Y-55372000D01*
X113414000Y-55372000D01*
X113414000Y-55338815D01*
X113403569Y-55236726D01*
X113403568Y-55236723D01*
X113348751Y-55071293D01*
X113339717Y-55056646D01*
X113320981Y-54988166D01*
X113342241Y-54920428D01*
X113396749Y-54874936D01*
X113446959Y-54864500D01*
X117562367Y-54864500D01*
X117630488Y-54884502D01*
G37*
G04 #@! TD.AperFunction*
G04 #@! TA.AperFunction,Conductor*
G36*
X115376617Y-68876869D02*
G01*
X115427833Y-68926036D01*
X115444500Y-68988665D01*
X115444500Y-69405437D01*
X115424498Y-69473558D01*
X115384650Y-69512676D01*
X115374655Y-69518840D01*
X115374650Y-69518844D01*
X115353341Y-69540153D01*
X115291028Y-69574176D01*
X115220212Y-69569108D01*
X115175154Y-69540149D01*
X115130352Y-69495347D01*
X115130344Y-69495340D01*
X115120350Y-69489176D01*
X115072873Y-69436389D01*
X115060500Y-69381937D01*
X115060500Y-69254737D01*
X115079813Y-69187701D01*
X115121640Y-69121133D01*
X115160043Y-69060015D01*
X115199571Y-68947049D01*
X115240949Y-68889358D01*
X115306949Y-68863196D01*
X115376617Y-68876869D01*
G37*
G04 #@! TD.AperFunction*
G04 #@! TA.AperFunction,Conductor*
G36*
X99078037Y-66640637D02*
G01*
X99103184Y-66669658D01*
X99155500Y-66752917D01*
X99185890Y-66801283D01*
X99221255Y-66836648D01*
X99255281Y-66898960D01*
X99250216Y-66969775D01*
X99221264Y-67014830D01*
X99218864Y-67017230D01*
X99216374Y-67020439D01*
X99208688Y-67029436D01*
X99178418Y-67061673D01*
X99178411Y-67061683D01*
X99168651Y-67079435D01*
X99157803Y-67095950D01*
X99145386Y-67111958D01*
X99127824Y-67152540D01*
X99122604Y-67163195D01*
X99101305Y-67201939D01*
X99101303Y-67201944D01*
X99096267Y-67221559D01*
X99089864Y-67240262D01*
X99081819Y-67258852D01*
X99074901Y-67302525D01*
X99072495Y-67314142D01*
X99061500Y-67356968D01*
X99061500Y-67377223D01*
X99059949Y-67396933D01*
X99056780Y-67416943D01*
X99058032Y-67430188D01*
X99060941Y-67460961D01*
X99061500Y-67472819D01*
X99061500Y-68794262D01*
X99042187Y-68861298D01*
X98961958Y-68988981D01*
X98961957Y-68988984D01*
X98901783Y-69160950D01*
X98899323Y-69182785D01*
X98893821Y-69231609D01*
X98866319Y-69297060D01*
X98807796Y-69337253D01*
X98768615Y-69343500D01*
X97448737Y-69343500D01*
X97381701Y-69324187D01*
X97254017Y-69243958D01*
X97254015Y-69243957D01*
X97082050Y-69183784D01*
X97082049Y-69183783D01*
X97082047Y-69183783D01*
X96901000Y-69163384D01*
X96719953Y-69183783D01*
X96719950Y-69183783D01*
X96719949Y-69183784D01*
X96559115Y-69240062D01*
X96488210Y-69243681D01*
X96426605Y-69208392D01*
X96393859Y-69145399D01*
X96391500Y-69121133D01*
X96391500Y-68666590D01*
X96393249Y-68650748D01*
X96392956Y-68650721D01*
X96393700Y-68642835D01*
X96393702Y-68642828D01*
X96391562Y-68574736D01*
X96391500Y-68570778D01*
X96391500Y-68542886D01*
X96391500Y-68542880D01*
X96390993Y-68538871D01*
X96390062Y-68527042D01*
X96390028Y-68525953D01*
X96388674Y-68482847D01*
X96383020Y-68463388D01*
X96379012Y-68444033D01*
X96376474Y-68423939D01*
X96360195Y-68382823D01*
X96356356Y-68371608D01*
X96344019Y-68329143D01*
X96333703Y-68311700D01*
X96325005Y-68293945D01*
X96317552Y-68275119D01*
X96291563Y-68239348D01*
X96285052Y-68229436D01*
X96262542Y-68191374D01*
X96248214Y-68177046D01*
X96235384Y-68162025D01*
X96223472Y-68145629D01*
X96189407Y-68117448D01*
X96180626Y-68109458D01*
X95984506Y-67913337D01*
X95974543Y-67900902D01*
X95974317Y-67901090D01*
X95969266Y-67894984D01*
X95957744Y-67884164D01*
X95921781Y-67822950D01*
X95918000Y-67792316D01*
X95918000Y-67688763D01*
X95918000Y-67688756D01*
X95902981Y-67574676D01*
X95902979Y-67574672D01*
X95902160Y-67568447D01*
X95902160Y-67535553D01*
X95902979Y-67529327D01*
X95902981Y-67529324D01*
X95918000Y-67415244D01*
X95918000Y-67188756D01*
X95907319Y-67107630D01*
X95918258Y-67037485D01*
X95965386Y-66984386D01*
X96033739Y-66965196D01*
X96099277Y-66984500D01*
X96166981Y-67027041D01*
X96166982Y-67027041D01*
X96166985Y-67027043D01*
X96338953Y-67087217D01*
X96520000Y-67107616D01*
X96701047Y-67087217D01*
X96873015Y-67027043D01*
X97027281Y-66930111D01*
X97156111Y-66801281D01*
X97238814Y-66669660D01*
X97291991Y-66622624D01*
X97362158Y-66611804D01*
X97427037Y-66640637D01*
X97452184Y-66669658D01*
X97504500Y-66752917D01*
X97534890Y-66801283D01*
X97663718Y-66930111D01*
X97663720Y-66930112D01*
X97817981Y-67027041D01*
X97817982Y-67027041D01*
X97817985Y-67027043D01*
X97989953Y-67087217D01*
X98171000Y-67107616D01*
X98352047Y-67087217D01*
X98524015Y-67027043D01*
X98678281Y-66930111D01*
X98807111Y-66801281D01*
X98889814Y-66669660D01*
X98942991Y-66622624D01*
X99013158Y-66611804D01*
X99078037Y-66640637D01*
G37*
G04 #@! TD.AperFunction*
G04 #@! TA.AperFunction,Conductor*
G36*
X107684628Y-66895081D02*
G01*
X107727389Y-66951756D01*
X107735500Y-66996233D01*
X107735500Y-67916000D01*
X107715498Y-67984121D01*
X107661842Y-68030614D01*
X107609500Y-68042000D01*
X107281787Y-68042000D01*
X107179619Y-68052437D01*
X107014079Y-68107291D01*
X106865653Y-68198842D01*
X106842247Y-68222248D01*
X106779934Y-68256272D01*
X106709118Y-68251206D01*
X106677644Y-68234019D01*
X106556207Y-68143112D01*
X106556202Y-68143110D01*
X106419204Y-68092011D01*
X106419196Y-68092009D01*
X106358649Y-68085500D01*
X106358638Y-68085500D01*
X104461362Y-68085500D01*
X104461350Y-68085500D01*
X104400803Y-68092009D01*
X104393132Y-68093823D01*
X104392465Y-68091002D01*
X104335279Y-68095068D01*
X104272982Y-68061015D01*
X104238984Y-67998688D01*
X104237194Y-67955511D01*
X104237656Y-67951999D01*
X104234725Y-67948658D01*
X104177986Y-67931998D01*
X104146145Y-67902704D01*
X104127729Y-67878704D01*
X104102128Y-67812484D01*
X104116392Y-67742935D01*
X104127729Y-67725296D01*
X104146145Y-67701296D01*
X104203483Y-67659429D01*
X104236131Y-67653738D01*
X104237656Y-67652000D01*
X104226908Y-67570363D01*
X104226908Y-67537468D01*
X104227979Y-67529326D01*
X104227981Y-67529324D01*
X104243000Y-67415244D01*
X104243000Y-67188756D01*
X104233999Y-67120390D01*
X104228412Y-67077946D01*
X104239352Y-67007797D01*
X104286480Y-66954699D01*
X104353334Y-66935500D01*
X105030455Y-66935500D01*
X105098576Y-66955502D01*
X105135938Y-66992585D01*
X105223275Y-67126264D01*
X105223279Y-67126270D01*
X105375762Y-67291908D01*
X105382893Y-67297458D01*
X105553424Y-67430189D01*
X105751426Y-67537342D01*
X105751427Y-67537342D01*
X105751428Y-67537343D01*
X105842032Y-67568447D01*
X105964365Y-67610444D01*
X106186431Y-67647500D01*
X106186435Y-67647500D01*
X106411565Y-67647500D01*
X106411569Y-67647500D01*
X106633635Y-67610444D01*
X106846574Y-67537342D01*
X107044576Y-67430189D01*
X107222240Y-67291906D01*
X107374722Y-67126268D01*
X107497860Y-66937791D01*
X107497867Y-66937774D01*
X107498685Y-66936265D01*
X107499188Y-66935757D01*
X107500710Y-66933429D01*
X107501189Y-66933741D01*
X107548698Y-66885874D01*
X107618015Y-66870521D01*
X107684628Y-66895081D01*
G37*
G04 #@! TD.AperFunction*
G04 #@! TA.AperFunction,Conductor*
G36*
X108055798Y-63292705D02*
G01*
X108088545Y-63355699D01*
X108090182Y-63366496D01*
X108091009Y-63374196D01*
X108091011Y-63374204D01*
X108142110Y-63511202D01*
X108142112Y-63511207D01*
X108229737Y-63628259D01*
X108229738Y-63628259D01*
X108229739Y-63628261D01*
X108285664Y-63670126D01*
X108344865Y-63714444D01*
X108387411Y-63771280D01*
X108392475Y-63842096D01*
X108358450Y-63904408D01*
X108344865Y-63916180D01*
X108230094Y-64002097D01*
X108142555Y-64119034D01*
X108142555Y-64119035D01*
X108091505Y-64255906D01*
X108085000Y-64316402D01*
X108085000Y-64463742D01*
X108064998Y-64531863D01*
X108011342Y-64578356D01*
X107941068Y-64588460D01*
X107876488Y-64558966D01*
X107872747Y-64555592D01*
X107820848Y-64506856D01*
X107818004Y-64504099D01*
X107798277Y-64484371D01*
X107798271Y-64484366D01*
X107795067Y-64481880D01*
X107786056Y-64474183D01*
X107753825Y-64443917D01*
X107753819Y-64443913D01*
X107736063Y-64434151D01*
X107719540Y-64423296D01*
X107705772Y-64412616D01*
X107664206Y-64355059D01*
X107657000Y-64313058D01*
X107657000Y-64003000D01*
X106730116Y-64003000D01*
X106758493Y-63958844D01*
X106799000Y-63820889D01*
X106799000Y-63677111D01*
X106758493Y-63539156D01*
X106730116Y-63495000D01*
X107657000Y-63495000D01*
X107657000Y-63414610D01*
X107677002Y-63346489D01*
X107730658Y-63299996D01*
X107768887Y-63289403D01*
X107877047Y-63277217D01*
X107923289Y-63261035D01*
X107994193Y-63257416D01*
X108055798Y-63292705D01*
G37*
G04 #@! TD.AperFunction*
G04 #@! TA.AperFunction,Conductor*
G36*
X104883121Y-63068502D02*
G01*
X104929614Y-63122158D01*
X104941000Y-63174500D01*
X104941000Y-63495000D01*
X105867884Y-63495000D01*
X105839507Y-63539156D01*
X105799000Y-63677111D01*
X105799000Y-63820889D01*
X105839507Y-63958844D01*
X105867884Y-64003000D01*
X104941000Y-64003000D01*
X104941000Y-64201000D01*
X104920998Y-64269121D01*
X104867342Y-64315614D01*
X104815000Y-64327000D01*
X104414353Y-64327000D01*
X104398511Y-64325250D01*
X104398484Y-64325544D01*
X104390591Y-64324797D01*
X104322501Y-64326938D01*
X104318543Y-64327000D01*
X104290644Y-64327000D01*
X104290638Y-64327000D01*
X104290632Y-64327001D01*
X104286633Y-64327506D01*
X104274813Y-64328436D01*
X104230614Y-64329825D01*
X104230607Y-64329827D01*
X104211149Y-64335479D01*
X104191804Y-64339485D01*
X104171706Y-64342025D01*
X104171698Y-64342027D01*
X104130590Y-64358302D01*
X104119364Y-64362146D01*
X104086532Y-64371685D01*
X104015536Y-64371483D01*
X103955919Y-64332929D01*
X103926610Y-64268265D01*
X103926170Y-64236585D01*
X103937616Y-64135000D01*
X103917217Y-63953953D01*
X103857043Y-63781985D01*
X103857041Y-63781982D01*
X103857041Y-63781981D01*
X103776813Y-63654298D01*
X103757500Y-63587262D01*
X103757500Y-63456849D01*
X103759249Y-63441012D01*
X103758955Y-63440985D01*
X103759701Y-63433092D01*
X103757562Y-63365031D01*
X103757500Y-63361073D01*
X103757500Y-63333151D01*
X103757500Y-63333144D01*
X103756991Y-63329123D01*
X103756061Y-63317296D01*
X103755700Y-63305799D01*
X103754673Y-63273110D01*
X103749022Y-63253663D01*
X103745012Y-63234300D01*
X103742474Y-63214203D01*
X103742470Y-63214194D01*
X103740502Y-63206523D01*
X103743722Y-63205696D01*
X103738645Y-63150154D01*
X103771433Y-63087182D01*
X103833061Y-63051933D01*
X103862271Y-63048500D01*
X104815000Y-63048500D01*
X104883121Y-63068502D01*
G37*
G04 #@! TD.AperFunction*
G04 #@! TA.AperFunction,Conductor*
G36*
X99890959Y-60292423D02*
G01*
X99936194Y-60344626D01*
X99957596Y-60390522D01*
X99987511Y-60454675D01*
X99987512Y-60454677D01*
X100115016Y-60636772D01*
X100115020Y-60636777D01*
X100115023Y-60636781D01*
X100272219Y-60793977D01*
X100272222Y-60793979D01*
X100272227Y-60793983D01*
X100376124Y-60866732D01*
X100454323Y-60921488D01*
X100655804Y-61015440D01*
X100655806Y-61015440D01*
X100658209Y-61016561D01*
X100711494Y-61063478D01*
X100730955Y-61131755D01*
X100710413Y-61199715D01*
X100694054Y-61219851D01*
X99695836Y-62218069D01*
X99683401Y-62228033D01*
X99683589Y-62228260D01*
X99677479Y-62233314D01*
X99630870Y-62282947D01*
X99628120Y-62285785D01*
X99608363Y-62305543D01*
X99605874Y-62308751D01*
X99598188Y-62317748D01*
X99567918Y-62349985D01*
X99567911Y-62349995D01*
X99558151Y-62367747D01*
X99547303Y-62384262D01*
X99534886Y-62400270D01*
X99517324Y-62440852D01*
X99512104Y-62451507D01*
X99490805Y-62490251D01*
X99490803Y-62490256D01*
X99485767Y-62509871D01*
X99479364Y-62528574D01*
X99471319Y-62547165D01*
X99470454Y-62552625D01*
X99440036Y-62616775D01*
X99379764Y-62654296D01*
X99362453Y-62657824D01*
X99350945Y-62659339D01*
X99318053Y-62659339D01*
X99197746Y-62643500D01*
X99197744Y-62643500D01*
X98971256Y-62643500D01*
X98971253Y-62643500D01*
X98850946Y-62659339D01*
X98818054Y-62659339D01*
X98697746Y-62643500D01*
X98697744Y-62643500D01*
X98471256Y-62643500D01*
X98471253Y-62643500D01*
X98350946Y-62659339D01*
X98318054Y-62659339D01*
X98197746Y-62643500D01*
X98197744Y-62643500D01*
X97971256Y-62643500D01*
X97971251Y-62643500D01*
X97931703Y-62648707D01*
X97861554Y-62637767D01*
X97808456Y-62590639D01*
X97789267Y-62522284D01*
X97796327Y-62482177D01*
X97821217Y-62411047D01*
X97841616Y-62230000D01*
X97821217Y-62048953D01*
X97774415Y-61915200D01*
X97764938Y-61888115D01*
X97761319Y-61817210D01*
X97796608Y-61755605D01*
X97859601Y-61722859D01*
X97883867Y-61720500D01*
X98087147Y-61720500D01*
X98102988Y-61722249D01*
X98103016Y-61721956D01*
X98110902Y-61722700D01*
X98110909Y-61722702D01*
X98178986Y-61720562D01*
X98182945Y-61720500D01*
X98210851Y-61720500D01*
X98210856Y-61720500D01*
X98214867Y-61719992D01*
X98226699Y-61719061D01*
X98270889Y-61717673D01*
X98290347Y-61712019D01*
X98309694Y-61708013D01*
X98329797Y-61705474D01*
X98370910Y-61689195D01*
X98382130Y-61685353D01*
X98406913Y-61678154D01*
X98424591Y-61673019D01*
X98424595Y-61673017D01*
X98442026Y-61662708D01*
X98459780Y-61654009D01*
X98478617Y-61646552D01*
X98514392Y-61620558D01*
X98524298Y-61614051D01*
X98562362Y-61591542D01*
X98576685Y-61577218D01*
X98591724Y-61564374D01*
X98608107Y-61552472D01*
X98636303Y-61518386D01*
X98644272Y-61509630D01*
X98940657Y-61213245D01*
X98953092Y-61203284D01*
X98952905Y-61203057D01*
X98959016Y-61198001D01*
X98959015Y-61198001D01*
X98959018Y-61198000D01*
X99005676Y-61148312D01*
X99008367Y-61145535D01*
X99028134Y-61125770D01*
X99030617Y-61122567D01*
X99038308Y-61113562D01*
X99068586Y-61081321D01*
X99078345Y-61063567D01*
X99089197Y-61047046D01*
X99101613Y-61031041D01*
X99112436Y-61006031D01*
X99119169Y-60990470D01*
X99124381Y-60979827D01*
X99125162Y-60978406D01*
X99175505Y-60928351D01*
X99182292Y-60924931D01*
X99189677Y-60921488D01*
X99371781Y-60793977D01*
X99528977Y-60636781D01*
X99656488Y-60454677D01*
X99707805Y-60344626D01*
X99754722Y-60291342D01*
X99822999Y-60271881D01*
X99890959Y-60292423D01*
G37*
G04 #@! TD.AperFunction*
G04 #@! TA.AperFunction,Conductor*
G36*
X111707322Y-60799843D02*
G01*
X111764158Y-60842389D01*
X111803738Y-60895260D01*
X111920792Y-60982887D01*
X111920794Y-60982888D01*
X111920796Y-60982889D01*
X111972230Y-61002073D01*
X112057795Y-61033988D01*
X112057803Y-61033990D01*
X112118350Y-61040499D01*
X112118355Y-61040499D01*
X112118362Y-61040500D01*
X112180837Y-61040500D01*
X112248958Y-61060502D01*
X112295451Y-61114158D01*
X112305555Y-61184432D01*
X112276061Y-61249012D01*
X112247873Y-61273187D01*
X112141720Y-61339887D01*
X112141718Y-61339888D01*
X112012888Y-61468718D01*
X112012887Y-61468720D01*
X111915958Y-61622981D01*
X111915957Y-61622984D01*
X111881010Y-61722859D01*
X111855783Y-61794953D01*
X111836197Y-61968784D01*
X111835384Y-61976001D01*
X111845024Y-62061564D01*
X111832774Y-62131495D01*
X111825736Y-62142625D01*
X111826195Y-62142908D01*
X111822342Y-62149153D01*
X111822342Y-62149154D01*
X111730791Y-62297580D01*
X111693193Y-62411048D01*
X111685864Y-62433165D01*
X111645450Y-62491537D01*
X111579894Y-62518793D01*
X111510009Y-62506280D01*
X111477164Y-62482628D01*
X111170471Y-62175935D01*
X111136445Y-62113623D01*
X111141510Y-62042808D01*
X111184057Y-61985972D01*
X111215534Y-61968784D01*
X111312965Y-61932444D01*
X111429904Y-61844904D01*
X111517444Y-61727965D01*
X111517444Y-61727964D01*
X111568494Y-61591093D01*
X111574999Y-61530597D01*
X111575000Y-61530585D01*
X111575000Y-61336000D01*
X110553000Y-61336000D01*
X110484879Y-61315998D01*
X110438386Y-61262342D01*
X110427000Y-61210000D01*
X110427000Y-60954000D01*
X110447002Y-60885879D01*
X110500658Y-60839386D01*
X110553000Y-60828000D01*
X111575668Y-60828000D01*
X111636506Y-60794779D01*
X111707322Y-60799843D01*
G37*
G04 #@! TD.AperFunction*
G04 #@! TA.AperFunction,Conductor*
G36*
X122123621Y-41803002D02*
G01*
X122170114Y-41856658D01*
X122181500Y-41909000D01*
X122181500Y-86368500D01*
X122161498Y-86436621D01*
X122107842Y-86483114D01*
X122055500Y-86494500D01*
X82033500Y-86494500D01*
X81965379Y-86474498D01*
X81918886Y-86420842D01*
X81907500Y-86368500D01*
X81907500Y-76327000D01*
X82202844Y-76327000D01*
X82217610Y-76505201D01*
X82221437Y-76551375D01*
X82276702Y-76769612D01*
X82276703Y-76769613D01*
X82276704Y-76769616D01*
X82350715Y-76938346D01*
X82367141Y-76975793D01*
X82490275Y-77164265D01*
X82490279Y-77164270D01*
X82581094Y-77262920D01*
X82640204Y-77327130D01*
X82642762Y-77329908D01*
X82661307Y-77344342D01*
X82820424Y-77468189D01*
X82854205Y-77486470D01*
X82904596Y-77536482D01*
X82919949Y-77605799D01*
X82895389Y-77672412D01*
X82854209Y-77708096D01*
X82820704Y-77726228D01*
X82820698Y-77726232D01*
X82643097Y-77864465D01*
X82490674Y-78030041D01*
X82367580Y-78218451D01*
X82277179Y-78424543D01*
X82277176Y-78424550D01*
X82229455Y-78612999D01*
X82229456Y-78613000D01*
X83134884Y-78613000D01*
X83106507Y-78657156D01*
X83066000Y-78795111D01*
X83066000Y-78938889D01*
X83106507Y-79076844D01*
X83134884Y-79121000D01*
X82229455Y-79121000D01*
X82277176Y-79309449D01*
X82277179Y-79309456D01*
X82367580Y-79515548D01*
X82490674Y-79703958D01*
X82643097Y-79869534D01*
X82820698Y-80007767D01*
X82820699Y-80007768D01*
X83018628Y-80114882D01*
X83018630Y-80114883D01*
X83231483Y-80187955D01*
X83231492Y-80187957D01*
X83312000Y-80201391D01*
X83312000Y-79300674D01*
X83423685Y-79351680D01*
X83530237Y-79367000D01*
X83601763Y-79367000D01*
X83708315Y-79351680D01*
X83820000Y-79300674D01*
X83820000Y-80201390D01*
X83900507Y-80187957D01*
X83900516Y-80187955D01*
X84113369Y-80114883D01*
X84113371Y-80114882D01*
X84311300Y-80007768D01*
X84311301Y-80007767D01*
X84488902Y-79869534D01*
X84641325Y-79703958D01*
X84764419Y-79515548D01*
X84854820Y-79309456D01*
X84854823Y-79309449D01*
X84902544Y-79121000D01*
X83997116Y-79121000D01*
X84025493Y-79076844D01*
X84066000Y-78938889D01*
X84066000Y-78795111D01*
X84025493Y-78657156D01*
X83997116Y-78613000D01*
X84902544Y-78613000D01*
X84902544Y-78612999D01*
X84854823Y-78424550D01*
X84854820Y-78424543D01*
X84764419Y-78218451D01*
X84641325Y-78030041D01*
X84488902Y-77864465D01*
X84311301Y-77726232D01*
X84311300Y-77726231D01*
X84277791Y-77708097D01*
X84227401Y-77658083D01*
X84212050Y-77588766D01*
X84236612Y-77522153D01*
X84277790Y-77486472D01*
X84311576Y-77468189D01*
X84489240Y-77329906D01*
X84641722Y-77164268D01*
X84682046Y-77102548D01*
X84694762Y-77083085D01*
X84748766Y-77036996D01*
X84800245Y-77026000D01*
X86081077Y-77026000D01*
X86088684Y-77026230D01*
X86148515Y-77029849D01*
X86207488Y-77019040D01*
X86214982Y-77017900D01*
X86274510Y-77010673D01*
X86283765Y-77007162D01*
X86305741Y-77001036D01*
X86315483Y-76999251D01*
X86370157Y-76974643D01*
X86377151Y-76971746D01*
X86433227Y-76950480D01*
X86441382Y-76944849D01*
X86461252Y-76933644D01*
X86470275Y-76929584D01*
X86517486Y-76892596D01*
X86523568Y-76888120D01*
X86572927Y-76854052D01*
X86612699Y-76809157D01*
X86617884Y-76803650D01*
X86829131Y-76592403D01*
X86891441Y-76558379D01*
X86962256Y-76563444D01*
X87019092Y-76605991D01*
X87043903Y-76672511D01*
X87042176Y-76704126D01*
X87041437Y-76708169D01*
X87038500Y-76745488D01*
X87038500Y-77178511D01*
X87041437Y-77215828D01*
X87041437Y-77215829D01*
X87087856Y-77375605D01*
X87172544Y-77518803D01*
X87172549Y-77518810D01*
X87290189Y-77636450D01*
X87290196Y-77636455D01*
X87433394Y-77721143D01*
X87433397Y-77721143D01*
X87433399Y-77721145D01*
X87593169Y-77767562D01*
X87593217Y-77767565D01*
X87593241Y-77767575D01*
X87599500Y-77768718D01*
X87599287Y-77769879D01*
X87659558Y-77792844D01*
X87701703Y-77849979D01*
X87708546Y-77879065D01*
X87725783Y-78032047D01*
X87725783Y-78032049D01*
X87725784Y-78032050D01*
X87785957Y-78204015D01*
X87785958Y-78204018D01*
X87882887Y-78358279D01*
X87882888Y-78358281D01*
X88011718Y-78487111D01*
X88011720Y-78487112D01*
X88165981Y-78584041D01*
X88165982Y-78584041D01*
X88165985Y-78584043D01*
X88337953Y-78644217D01*
X88519000Y-78664616D01*
X88700047Y-78644217D01*
X88872015Y-78584043D01*
X89026281Y-78487111D01*
X89155111Y-78358281D01*
X89252043Y-78204015D01*
X89312217Y-78032047D01*
X89329399Y-77879543D01*
X89356903Y-77814094D01*
X89415427Y-77773901D01*
X89444713Y-77768043D01*
X89450831Y-77767562D01*
X89610601Y-77721145D01*
X89610603Y-77721143D01*
X89610605Y-77721143D01*
X89693004Y-77672412D01*
X89753807Y-77636453D01*
X89871453Y-77518807D01*
X89935002Y-77411352D01*
X89956143Y-77375605D01*
X89956143Y-77375603D01*
X89956145Y-77375601D01*
X90002562Y-77215831D01*
X90005499Y-77178511D01*
X90005500Y-77178511D01*
X90005500Y-76745489D01*
X90005499Y-76745488D01*
X90002562Y-76708171D01*
X90002562Y-76708170D01*
X90001025Y-76702880D01*
X89956145Y-76548399D01*
X89956143Y-76548397D01*
X89956143Y-76548394D01*
X89871456Y-76405198D01*
X89871455Y-76405197D01*
X89871453Y-76405193D01*
X89871449Y-76405189D01*
X89870708Y-76404233D01*
X89870356Y-76403337D01*
X89867418Y-76398369D01*
X89868219Y-76397895D01*
X89844756Y-76338150D01*
X89858652Y-76268526D01*
X89870708Y-76249767D01*
X89871445Y-76248814D01*
X89871453Y-76248807D01*
X89956145Y-76105601D01*
X90002562Y-75945831D01*
X90005499Y-75908511D01*
X90005500Y-75908511D01*
X90005500Y-75475489D01*
X90005499Y-75475488D01*
X90003289Y-75447414D01*
X90002562Y-75438169D01*
X89956145Y-75278399D01*
X89956143Y-75278397D01*
X89956143Y-75278394D01*
X89871456Y-75135198D01*
X89871455Y-75135197D01*
X89871453Y-75135193D01*
X89871449Y-75135189D01*
X89870708Y-75134233D01*
X89870356Y-75133337D01*
X89867418Y-75128369D01*
X89868219Y-75127895D01*
X89844756Y-75068150D01*
X89858652Y-74998526D01*
X89870708Y-74979767D01*
X89871445Y-74978814D01*
X89871453Y-74978807D01*
X89933788Y-74873404D01*
X89956143Y-74835605D01*
X89956143Y-74835603D01*
X89956145Y-74835601D01*
X90002562Y-74675831D01*
X90005499Y-74638511D01*
X90005500Y-74638511D01*
X90005500Y-74205489D01*
X90005499Y-74205488D01*
X90002562Y-74168171D01*
X90002562Y-74168170D01*
X90001577Y-74164780D01*
X89956145Y-74008399D01*
X89956143Y-74008397D01*
X89956143Y-74008394D01*
X89871455Y-73865196D01*
X89870385Y-73863816D01*
X89869882Y-73862536D01*
X89867418Y-73858369D01*
X89868090Y-73857971D01*
X89844437Y-73797732D01*
X89858336Y-73728109D01*
X89870390Y-73709353D01*
X89871056Y-73708493D01*
X89955681Y-73565401D01*
X90001993Y-73406000D01*
X87042007Y-73406000D01*
X87039570Y-73409245D01*
X87039400Y-73468724D01*
X87000846Y-73528340D01*
X86936181Y-73557648D01*
X86865936Y-73547344D01*
X86829510Y-73521975D01*
X86821251Y-73513716D01*
X86617890Y-73310354D01*
X86612674Y-73304813D01*
X86572926Y-73259947D01*
X86523587Y-73225890D01*
X86517461Y-73221382D01*
X86470275Y-73184416D01*
X86461247Y-73180353D01*
X86441380Y-73169147D01*
X86433233Y-73163523D01*
X86433225Y-73163519D01*
X86377176Y-73142262D01*
X86370147Y-73139350D01*
X86315483Y-73114748D01*
X86315478Y-73114747D01*
X86305732Y-73112961D01*
X86283774Y-73106840D01*
X86274510Y-73103327D01*
X86274503Y-73103325D01*
X86215002Y-73096101D01*
X86207477Y-73094956D01*
X86148515Y-73084151D01*
X86088684Y-73087770D01*
X86081077Y-73088000D01*
X85050500Y-73088000D01*
X84982379Y-73067998D01*
X84935886Y-73014342D01*
X84924500Y-72962000D01*
X84924500Y-72898000D01*
X87042007Y-72898000D01*
X88268000Y-72898000D01*
X88268000Y-72344000D01*
X88776000Y-72344000D01*
X88776000Y-72898000D01*
X90001992Y-72898000D01*
X89955681Y-72738598D01*
X89871051Y-72595498D01*
X89871050Y-72595496D01*
X89753503Y-72477949D01*
X89753501Y-72477948D01*
X89610401Y-72393318D01*
X89450748Y-72346934D01*
X89450750Y-72346934D01*
X89413456Y-72344000D01*
X88776000Y-72344000D01*
X88268000Y-72344000D01*
X87630544Y-72344000D01*
X87593249Y-72346934D01*
X87433599Y-72393318D01*
X87290498Y-72477948D01*
X87290496Y-72477949D01*
X87172949Y-72595496D01*
X87172948Y-72595498D01*
X87088318Y-72738598D01*
X87042007Y-72898000D01*
X84924500Y-72898000D01*
X84924500Y-72888367D01*
X84924499Y-72888350D01*
X84917990Y-72827803D01*
X84917988Y-72827795D01*
X84866889Y-72690797D01*
X84866887Y-72690792D01*
X84779261Y-72573738D01*
X84662207Y-72486112D01*
X84662202Y-72486110D01*
X84525204Y-72435011D01*
X84525196Y-72435009D01*
X84464649Y-72428500D01*
X84464638Y-72428500D01*
X82667362Y-72428500D01*
X82667350Y-72428500D01*
X82606803Y-72435009D01*
X82606795Y-72435011D01*
X82469797Y-72486110D01*
X82469792Y-72486112D01*
X82352738Y-72573738D01*
X82265112Y-72690792D01*
X82265110Y-72690797D01*
X82214011Y-72827795D01*
X82214009Y-72827803D01*
X82207500Y-72888350D01*
X82207500Y-74685649D01*
X82214009Y-74746196D01*
X82214011Y-74746204D01*
X82265110Y-74883202D01*
X82265112Y-74883207D01*
X82352738Y-75000261D01*
X82469791Y-75087886D01*
X82469792Y-75087886D01*
X82469796Y-75087889D01*
X82584810Y-75130787D01*
X82641642Y-75173332D01*
X82666453Y-75239852D01*
X82651362Y-75309226D01*
X82633475Y-75334179D01*
X82490280Y-75489729D01*
X82490275Y-75489734D01*
X82367141Y-75678206D01*
X82276703Y-75884386D01*
X82276702Y-75884387D01*
X82221437Y-76102624D01*
X82221436Y-76102630D01*
X82221436Y-76102632D01*
X82202844Y-76327000D01*
X81907500Y-76327000D01*
X81907500Y-68336866D01*
X86132280Y-68336866D01*
X86136441Y-68380885D01*
X86137000Y-68392743D01*
X86137000Y-70049646D01*
X86135251Y-70065488D01*
X86135544Y-70065516D01*
X86134798Y-70073407D01*
X86134798Y-70073409D01*
X86136703Y-70133999D01*
X86136938Y-70141484D01*
X86137000Y-70145443D01*
X86137000Y-70173351D01*
X86137001Y-70173369D01*
X86137507Y-70177377D01*
X86138437Y-70189196D01*
X86139826Y-70233388D01*
X86139827Y-70233393D01*
X86145477Y-70252839D01*
X86149486Y-70272197D01*
X86152025Y-70292293D01*
X86152026Y-70292300D01*
X86168300Y-70333403D01*
X86172144Y-70344629D01*
X86184482Y-70387093D01*
X86194794Y-70404531D01*
X86203488Y-70422279D01*
X86210944Y-70441109D01*
X86210950Y-70441120D01*
X86236932Y-70476881D01*
X86243449Y-70486801D01*
X86265958Y-70524862D01*
X86280282Y-70539186D01*
X86293120Y-70554217D01*
X86305028Y-70570607D01*
X86339090Y-70598786D01*
X86347869Y-70606775D01*
X86360755Y-70619661D01*
X86370719Y-70632096D01*
X86370946Y-70631909D01*
X86376000Y-70638018D01*
X86425651Y-70684643D01*
X86428495Y-70687400D01*
X86448223Y-70707129D01*
X86448224Y-70707130D01*
X86448228Y-70707133D01*
X86448230Y-70707135D01*
X86451435Y-70709621D01*
X86460442Y-70717314D01*
X86492679Y-70747586D01*
X86510428Y-70757343D01*
X86526953Y-70768198D01*
X86542959Y-70780614D01*
X86583542Y-70798175D01*
X86594193Y-70803393D01*
X86632940Y-70824695D01*
X86632948Y-70824697D01*
X86652558Y-70829732D01*
X86671267Y-70836137D01*
X86689855Y-70844181D01*
X86733530Y-70851098D01*
X86745141Y-70853502D01*
X86787970Y-70864500D01*
X86808224Y-70864500D01*
X86827934Y-70866051D01*
X86830141Y-70866400D01*
X86847943Y-70869220D01*
X86891961Y-70865058D01*
X86903819Y-70864500D01*
X90172500Y-70864500D01*
X90240621Y-70884502D01*
X90287114Y-70938158D01*
X90298500Y-70990500D01*
X90298500Y-77640146D01*
X90296751Y-77655988D01*
X90297044Y-77656016D01*
X90296298Y-77663907D01*
X90296298Y-77663909D01*
X90296711Y-77677036D01*
X90298438Y-77731984D01*
X90298500Y-77735943D01*
X90298500Y-77763851D01*
X90298501Y-77763869D01*
X90299007Y-77767877D01*
X90299937Y-77779696D01*
X90301326Y-77823888D01*
X90301327Y-77823893D01*
X90306977Y-77843339D01*
X90310986Y-77862697D01*
X90313525Y-77882793D01*
X90313526Y-77882800D01*
X90329800Y-77923903D01*
X90333644Y-77935129D01*
X90345982Y-77977593D01*
X90356294Y-77995031D01*
X90364988Y-78012779D01*
X90372444Y-78031609D01*
X90372450Y-78031620D01*
X90398432Y-78067381D01*
X90404949Y-78077301D01*
X90427458Y-78115362D01*
X90427459Y-78115363D01*
X90427461Y-78115366D01*
X90441779Y-78129684D01*
X90454617Y-78144714D01*
X90466526Y-78161104D01*
X90466530Y-78161109D01*
X90500598Y-78189292D01*
X90509378Y-78197282D01*
X90805753Y-78493657D01*
X90815720Y-78506097D01*
X90815947Y-78505910D01*
X90820999Y-78512017D01*
X90821000Y-78512018D01*
X90859681Y-78548342D01*
X90870666Y-78558657D01*
X90873510Y-78561414D01*
X90893226Y-78581131D01*
X90896423Y-78583611D01*
X90905444Y-78591316D01*
X90937679Y-78621586D01*
X90937680Y-78621586D01*
X90937682Y-78621588D01*
X90955429Y-78631344D01*
X90971959Y-78642202D01*
X90987959Y-78654613D01*
X91028536Y-78672172D01*
X91039187Y-78677390D01*
X91077940Y-78698695D01*
X91097562Y-78703733D01*
X91116263Y-78710135D01*
X91134855Y-78718181D01*
X91178522Y-78725096D01*
X91190125Y-78727498D01*
X91232970Y-78738500D01*
X91253231Y-78738500D01*
X91272939Y-78740050D01*
X91292943Y-78743219D01*
X91336954Y-78739058D01*
X91348811Y-78738500D01*
X93509239Y-78738500D01*
X93577360Y-78758502D01*
X93623853Y-78812158D01*
X93634445Y-78850389D01*
X93643619Y-78931799D01*
X93646914Y-78961049D01*
X93707088Y-79133015D01*
X93707089Y-79133018D01*
X93804018Y-79287279D01*
X93804019Y-79287281D01*
X93932849Y-79416111D01*
X93932851Y-79416112D01*
X94087112Y-79513041D01*
X94087113Y-79513041D01*
X94087116Y-79513043D01*
X94259084Y-79573217D01*
X94440131Y-79593616D01*
X94621178Y-79573217D01*
X94793146Y-79513043D01*
X94947412Y-79416111D01*
X95076242Y-79287281D01*
X95173174Y-79133015D01*
X95233348Y-78961047D01*
X95253747Y-78780000D01*
X95233348Y-78598953D01*
X95233344Y-78598942D01*
X95232231Y-78594062D01*
X95236571Y-78523198D01*
X95265974Y-78476928D01*
X95638657Y-78104245D01*
X95651092Y-78094284D01*
X95650905Y-78094057D01*
X95657016Y-78089001D01*
X95657015Y-78089001D01*
X95657018Y-78089000D01*
X95703676Y-78039312D01*
X95706367Y-78036535D01*
X95726134Y-78016770D01*
X95728617Y-78013567D01*
X95736308Y-78004562D01*
X95766586Y-77972321D01*
X95776345Y-77954567D01*
X95787197Y-77938046D01*
X95799613Y-77922041D01*
X95817168Y-77881470D01*
X95822392Y-77870808D01*
X95832259Y-77852861D01*
X95843695Y-77832060D01*
X95848733Y-77812435D01*
X95855138Y-77793730D01*
X95863181Y-77775145D01*
X95863401Y-77773759D01*
X95864969Y-77763856D01*
X95870096Y-77731476D01*
X95872503Y-77719856D01*
X95875523Y-77708097D01*
X95883500Y-77677030D01*
X95883500Y-77656769D01*
X95885051Y-77637058D01*
X95888219Y-77617057D01*
X95884059Y-77573045D01*
X95883500Y-77561188D01*
X95883500Y-77412463D01*
X95903502Y-77344342D01*
X95957158Y-77297849D01*
X96027432Y-77287745D01*
X96092012Y-77317239D01*
X96102200Y-77327125D01*
X96104760Y-77329906D01*
X96104761Y-77329907D01*
X96123307Y-77344342D01*
X96282424Y-77468189D01*
X96480426Y-77575342D01*
X96480427Y-77575342D01*
X96480428Y-77575343D01*
X96569144Y-77605799D01*
X96693365Y-77648444D01*
X96915431Y-77685500D01*
X96915435Y-77685500D01*
X97140565Y-77685500D01*
X97140569Y-77685500D01*
X97362635Y-77648444D01*
X97575574Y-77575342D01*
X97773576Y-77468189D01*
X97951240Y-77329906D01*
X98103722Y-77164268D01*
X98226860Y-76975791D01*
X98317296Y-76769616D01*
X98372564Y-76551368D01*
X98391156Y-76327000D01*
X98372564Y-76102632D01*
X98371649Y-76099018D01*
X98317297Y-75884387D01*
X98317296Y-75884386D01*
X98317296Y-75884384D01*
X98226860Y-75678209D01*
X98207842Y-75649100D01*
X98103724Y-75489734D01*
X98103719Y-75489728D01*
X98043235Y-75424026D01*
X98017586Y-75396164D01*
X97986950Y-75334093D01*
X97958928Y-75327997D01*
X97941923Y-75316841D01*
X97773583Y-75185816D01*
X97773580Y-75185814D01*
X97773576Y-75185811D01*
X97771335Y-75184598D01*
X97770596Y-75183864D01*
X97769213Y-75182961D01*
X97769398Y-75182676D01*
X97720946Y-75134585D01*
X97705595Y-75065268D01*
X97730157Y-74998655D01*
X97742205Y-74984698D01*
X97764406Y-74962497D01*
X97826716Y-74928473D01*
X97897531Y-74933538D01*
X97942594Y-74962498D01*
X98025575Y-75045480D01*
X98108410Y-75128315D01*
X98142435Y-75190627D01*
X98142179Y-75194205D01*
X98175190Y-75202829D01*
X98196539Y-75218976D01*
X98236649Y-75256641D01*
X98239494Y-75259399D01*
X98259223Y-75279129D01*
X98259224Y-75279130D01*
X98259228Y-75279133D01*
X98259230Y-75279135D01*
X98262435Y-75281621D01*
X98271442Y-75289314D01*
X98303679Y-75319586D01*
X98321428Y-75329343D01*
X98337953Y-75340198D01*
X98353959Y-75352614D01*
X98394542Y-75370175D01*
X98405193Y-75375393D01*
X98443940Y-75396695D01*
X98443948Y-75396697D01*
X98463558Y-75401732D01*
X98482267Y-75408137D01*
X98500855Y-75416181D01*
X98544530Y-75423098D01*
X98556141Y-75425502D01*
X98598970Y-75436500D01*
X98619224Y-75436500D01*
X98638934Y-75438051D01*
X98639686Y-75438170D01*
X98658943Y-75441220D01*
X98702961Y-75437058D01*
X98714819Y-75436500D01*
X98802229Y-75436500D01*
X98870350Y-75456502D01*
X98916843Y-75510158D01*
X98926947Y-75580432D01*
X98907712Y-75631413D01*
X98906447Y-75633352D01*
X98877140Y-75678209D01*
X98786703Y-75884386D01*
X98786702Y-75884387D01*
X98731437Y-76102624D01*
X98731436Y-76102630D01*
X98731436Y-76102632D01*
X98712844Y-76327000D01*
X98727610Y-76505201D01*
X98731437Y-76551375D01*
X98786702Y-76769612D01*
X98786703Y-76769613D01*
X98786704Y-76769616D01*
X98860715Y-76938346D01*
X98877141Y-76975793D01*
X99000275Y-77164265D01*
X99000279Y-77164270D01*
X99091094Y-77262920D01*
X99150204Y-77327130D01*
X99152762Y-77329908D01*
X99171307Y-77344342D01*
X99330424Y-77468189D01*
X99528426Y-77575342D01*
X99528427Y-77575342D01*
X99528428Y-77575343D01*
X99617144Y-77605799D01*
X99741365Y-77648444D01*
X99963431Y-77685500D01*
X99963435Y-77685500D01*
X100188565Y-77685500D01*
X100188569Y-77685500D01*
X100410635Y-77648444D01*
X100623574Y-77575342D01*
X100821576Y-77468189D01*
X100821591Y-77468176D01*
X100825939Y-77465338D01*
X100826621Y-77466381D01*
X100887130Y-77442497D01*
X100956778Y-77456271D01*
X101007923Y-77505512D01*
X101024500Y-77567983D01*
X101024500Y-78996500D01*
X101004498Y-79064621D01*
X100950842Y-79111114D01*
X100898500Y-79122500D01*
X98000849Y-79122500D01*
X97985010Y-79120751D01*
X97984983Y-79121045D01*
X97977091Y-79120299D01*
X97909033Y-79122438D01*
X97905075Y-79122500D01*
X97877144Y-79122500D01*
X97874957Y-79122776D01*
X97873111Y-79123009D01*
X97861304Y-79123937D01*
X97817110Y-79125326D01*
X97817105Y-79125327D01*
X97797660Y-79130977D01*
X97778302Y-79134986D01*
X97758207Y-79137524D01*
X97758205Y-79137525D01*
X97717083Y-79153805D01*
X97705859Y-79157647D01*
X97663410Y-79169980D01*
X97663404Y-79169982D01*
X97645966Y-79180295D01*
X97628220Y-79188989D01*
X97609381Y-79196448D01*
X97573614Y-79222434D01*
X97563698Y-79228948D01*
X97525636Y-79251458D01*
X97511307Y-79265787D01*
X97496281Y-79278620D01*
X97479895Y-79290525D01*
X97451711Y-79324593D01*
X97443723Y-79333370D01*
X97020336Y-79756757D01*
X97007901Y-79766721D01*
X97008089Y-79766948D01*
X97001979Y-79772002D01*
X96955370Y-79821635D01*
X96952620Y-79824473D01*
X96932863Y-79844231D01*
X96930374Y-79847439D01*
X96922688Y-79856436D01*
X96892418Y-79888673D01*
X96892411Y-79888683D01*
X96882651Y-79906435D01*
X96871803Y-79922950D01*
X96859386Y-79938958D01*
X96841824Y-79979540D01*
X96836604Y-79990195D01*
X96815305Y-80028939D01*
X96815303Y-80028944D01*
X96810267Y-80048559D01*
X96803864Y-80067262D01*
X96795819Y-80085852D01*
X96788901Y-80129525D01*
X96786495Y-80141142D01*
X96775500Y-80183968D01*
X96775500Y-80204223D01*
X96773949Y-80223933D01*
X96770780Y-80243942D01*
X96774941Y-80287961D01*
X96775500Y-80299819D01*
X96775500Y-83559078D01*
X96755498Y-83627199D01*
X96709471Y-83669891D01*
X96663426Y-83694810D01*
X96663424Y-83694811D01*
X96485762Y-83833091D01*
X96333279Y-83998729D01*
X96244183Y-84135101D01*
X96190179Y-84181189D01*
X96119831Y-84190764D01*
X96055474Y-84160786D01*
X96033217Y-84135100D01*
X95944327Y-83999044D01*
X95791902Y-83833465D01*
X95614301Y-83695232D01*
X95614300Y-83695231D01*
X95416371Y-83588117D01*
X95416369Y-83588116D01*
X95203512Y-83515043D01*
X95203501Y-83515040D01*
X95123000Y-83501606D01*
X95123000Y-84402325D01*
X95011315Y-84351320D01*
X94904763Y-84336000D01*
X94833237Y-84336000D01*
X94726685Y-84351320D01*
X94615000Y-84402325D01*
X94615000Y-83501607D01*
X94614999Y-83501606D01*
X94534498Y-83515040D01*
X94534487Y-83515043D01*
X94321630Y-83588116D01*
X94321628Y-83588117D01*
X94123699Y-83695231D01*
X94123698Y-83695232D01*
X93946097Y-83833465D01*
X93793674Y-83999041D01*
X93670580Y-84187451D01*
X93580179Y-84393543D01*
X93580176Y-84393550D01*
X93532455Y-84581999D01*
X93532456Y-84582000D01*
X94437884Y-84582000D01*
X94409507Y-84626156D01*
X94369000Y-84764111D01*
X94369000Y-84907889D01*
X94409507Y-85045844D01*
X94437884Y-85090000D01*
X93532455Y-85090000D01*
X93580176Y-85278449D01*
X93580179Y-85278456D01*
X93670580Y-85484548D01*
X93793674Y-85672958D01*
X93946097Y-85838534D01*
X94123698Y-85976767D01*
X94123699Y-85976768D01*
X94321628Y-86083882D01*
X94321630Y-86083883D01*
X94534483Y-86156955D01*
X94534492Y-86156957D01*
X94615000Y-86170391D01*
X94615000Y-85269674D01*
X94726685Y-85320680D01*
X94833237Y-85336000D01*
X94904763Y-85336000D01*
X95011315Y-85320680D01*
X95123000Y-85269674D01*
X95123000Y-86170390D01*
X95203507Y-86156957D01*
X95203516Y-86156955D01*
X95416369Y-86083883D01*
X95416371Y-86083882D01*
X95614300Y-85976768D01*
X95614301Y-85976767D01*
X95791902Y-85838534D01*
X95944327Y-85672955D01*
X96033217Y-85536899D01*
X96087220Y-85490810D01*
X96157568Y-85481235D01*
X96221925Y-85511212D01*
X96244183Y-85536898D01*
X96333279Y-85673270D01*
X96485762Y-85838908D01*
X96540331Y-85881381D01*
X96663424Y-85977189D01*
X96861426Y-86084342D01*
X96861427Y-86084342D01*
X96861428Y-86084343D01*
X96973227Y-86122723D01*
X97074365Y-86157444D01*
X97296431Y-86194500D01*
X97296435Y-86194500D01*
X97521565Y-86194500D01*
X97521569Y-86194500D01*
X97743635Y-86157444D01*
X97956574Y-86084342D01*
X98154576Y-85977189D01*
X98332240Y-85838906D01*
X98484722Y-85673268D01*
X98484927Y-85672955D01*
X98490115Y-85665012D01*
X98573518Y-85537354D01*
X98627520Y-85491268D01*
X98697868Y-85481692D01*
X98762225Y-85511669D01*
X98784480Y-85537353D01*
X98817607Y-85588058D01*
X98873275Y-85673265D01*
X98873279Y-85673270D01*
X99025762Y-85838908D01*
X99080331Y-85881381D01*
X99203424Y-85977189D01*
X99401426Y-86084342D01*
X99401427Y-86084342D01*
X99401428Y-86084343D01*
X99513227Y-86122723D01*
X99614365Y-86157444D01*
X99836431Y-86194500D01*
X99836435Y-86194500D01*
X100061565Y-86194500D01*
X100061569Y-86194500D01*
X100283635Y-86157444D01*
X100496574Y-86084342D01*
X100694576Y-85977189D01*
X100872240Y-85838906D01*
X101024722Y-85673268D01*
X101024927Y-85672955D01*
X101030115Y-85665012D01*
X101113518Y-85537354D01*
X101167520Y-85491268D01*
X101237868Y-85481692D01*
X101302225Y-85511669D01*
X101324480Y-85537353D01*
X101357607Y-85588058D01*
X101413275Y-85673265D01*
X101413279Y-85673270D01*
X101565762Y-85838908D01*
X101620331Y-85881381D01*
X101743424Y-85977189D01*
X101941426Y-86084342D01*
X101941427Y-86084342D01*
X101941428Y-86084343D01*
X102053227Y-86122723D01*
X102154365Y-86157444D01*
X102376431Y-86194500D01*
X102376435Y-86194500D01*
X102601565Y-86194500D01*
X102601569Y-86194500D01*
X102823635Y-86157444D01*
X103036574Y-86084342D01*
X103234576Y-85977189D01*
X103412240Y-85838906D01*
X103564722Y-85673268D01*
X103564927Y-85672955D01*
X103570115Y-85665012D01*
X103653518Y-85537354D01*
X103707520Y-85491268D01*
X103777868Y-85481692D01*
X103842225Y-85511669D01*
X103864480Y-85537353D01*
X103897607Y-85588058D01*
X103953275Y-85673265D01*
X103953279Y-85673270D01*
X104105762Y-85838908D01*
X104160331Y-85881381D01*
X104283424Y-85977189D01*
X104481426Y-86084342D01*
X104481427Y-86084342D01*
X104481428Y-86084343D01*
X104593227Y-86122723D01*
X104694365Y-86157444D01*
X104916431Y-86194500D01*
X104916435Y-86194500D01*
X105141565Y-86194500D01*
X105141569Y-86194500D01*
X105363635Y-86157444D01*
X105576574Y-86084342D01*
X105774576Y-85977189D01*
X105952240Y-85838906D01*
X106013245Y-85772637D01*
X106074096Y-85736067D01*
X106145061Y-85738200D01*
X106203606Y-85778362D01*
X106224000Y-85813941D01*
X106268111Y-85932204D01*
X106268112Y-85932207D01*
X106355738Y-86049261D01*
X106472792Y-86136887D01*
X106472794Y-86136888D01*
X106472796Y-86136889D01*
X106526600Y-86156957D01*
X106609795Y-86187988D01*
X106609803Y-86187990D01*
X106670350Y-86194499D01*
X106670355Y-86194499D01*
X106670362Y-86194500D01*
X106670368Y-86194500D01*
X108467632Y-86194500D01*
X108467638Y-86194500D01*
X108467645Y-86194499D01*
X108467649Y-86194499D01*
X108528196Y-86187990D01*
X108528199Y-86187989D01*
X108528201Y-86187989D01*
X108665204Y-86136889D01*
X108735399Y-86084342D01*
X108782261Y-86049261D01*
X108869887Y-85932207D01*
X108869887Y-85932206D01*
X108869889Y-85932204D01*
X108920989Y-85795201D01*
X108922800Y-85778362D01*
X108927499Y-85734649D01*
X108927500Y-85734632D01*
X108927500Y-83937367D01*
X108927499Y-83937350D01*
X108920990Y-83876803D01*
X108920988Y-83876795D01*
X108869889Y-83739797D01*
X108869887Y-83739792D01*
X108782261Y-83622738D01*
X108665207Y-83535112D01*
X108665202Y-83535110D01*
X108528204Y-83484011D01*
X108528196Y-83484009D01*
X108467649Y-83477500D01*
X108467638Y-83477500D01*
X106670362Y-83477500D01*
X106670350Y-83477500D01*
X106609803Y-83484009D01*
X106609795Y-83484011D01*
X106472797Y-83535110D01*
X106472792Y-83535112D01*
X106355738Y-83622738D01*
X106268112Y-83739792D01*
X106268111Y-83739795D01*
X106224000Y-83858058D01*
X106181453Y-83914893D01*
X106114932Y-83939703D01*
X106045558Y-83924611D01*
X106013246Y-83899363D01*
X105952240Y-83833094D01*
X105952239Y-83833093D01*
X105952237Y-83833091D01*
X105832372Y-83739796D01*
X105774576Y-83694811D01*
X105576574Y-83587658D01*
X105576572Y-83587657D01*
X105576571Y-83587656D01*
X105363639Y-83514557D01*
X105363630Y-83514555D01*
X105286029Y-83501606D01*
X105141569Y-83477500D01*
X104916431Y-83477500D01*
X104771971Y-83501606D01*
X104694369Y-83514555D01*
X104694360Y-83514557D01*
X104481428Y-83587656D01*
X104481426Y-83587658D01*
X104333636Y-83667638D01*
X104283426Y-83694810D01*
X104283424Y-83694811D01*
X104105762Y-83833091D01*
X103953279Y-83998729D01*
X103864483Y-84134643D01*
X103810479Y-84180731D01*
X103740131Y-84190306D01*
X103675774Y-84160329D01*
X103653517Y-84134643D01*
X103564720Y-83998729D01*
X103435221Y-83858058D01*
X103412240Y-83833094D01*
X103412239Y-83833093D01*
X103412237Y-83833091D01*
X103292372Y-83739796D01*
X103234576Y-83694811D01*
X103036574Y-83587658D01*
X103036572Y-83587657D01*
X103036571Y-83587656D01*
X102823639Y-83514557D01*
X102823630Y-83514555D01*
X102746029Y-83501606D01*
X102601569Y-83477500D01*
X102376431Y-83477500D01*
X102231971Y-83501606D01*
X102154369Y-83514555D01*
X102154360Y-83514557D01*
X101941428Y-83587656D01*
X101941426Y-83587658D01*
X101793636Y-83667638D01*
X101743426Y-83694810D01*
X101743424Y-83694811D01*
X101565762Y-83833091D01*
X101413279Y-83998729D01*
X101324483Y-84134643D01*
X101270479Y-84180731D01*
X101200131Y-84190306D01*
X101135774Y-84160329D01*
X101113517Y-84134643D01*
X101024720Y-83998729D01*
X100895221Y-83858058D01*
X100872240Y-83833094D01*
X100872239Y-83833093D01*
X100872237Y-83833091D01*
X100752372Y-83739796D01*
X100694576Y-83694811D01*
X100666620Y-83679681D01*
X100648529Y-83669891D01*
X100598139Y-83619877D01*
X100582500Y-83559078D01*
X100582500Y-81150500D01*
X100602502Y-81082379D01*
X100656158Y-81035886D01*
X100708500Y-81024500D01*
X101263543Y-81024500D01*
X101279384Y-81026249D01*
X101279412Y-81025956D01*
X101287298Y-81026700D01*
X101287305Y-81026702D01*
X101355382Y-81024562D01*
X101359341Y-81024500D01*
X101387247Y-81024500D01*
X101387252Y-81024500D01*
X101391263Y-81023992D01*
X101403095Y-81023061D01*
X101447285Y-81021673D01*
X101466743Y-81016019D01*
X101486090Y-81012013D01*
X101506193Y-81009474D01*
X101547306Y-80993195D01*
X101558526Y-80989353D01*
X101583309Y-80982154D01*
X101600987Y-80977019D01*
X101600991Y-80977017D01*
X101618422Y-80966708D01*
X101636176Y-80958009D01*
X101655013Y-80950552D01*
X101690788Y-80924558D01*
X101700694Y-80918051D01*
X101738758Y-80895542D01*
X101753081Y-80881218D01*
X101768120Y-80868374D01*
X101784503Y-80856472D01*
X101812699Y-80822386D01*
X101820668Y-80813630D01*
X101989298Y-80645000D01*
X102928000Y-80645000D01*
X102928000Y-80839597D01*
X102934505Y-80900093D01*
X102985555Y-81036964D01*
X102985555Y-81036965D01*
X103073095Y-81153904D01*
X103190034Y-81241444D01*
X103326906Y-81292494D01*
X103387402Y-81298999D01*
X103387415Y-81299000D01*
X103632000Y-81299000D01*
X103632000Y-80645000D01*
X104140000Y-80645000D01*
X104140000Y-81299000D01*
X104384585Y-81299000D01*
X104384597Y-81298999D01*
X104445093Y-81292494D01*
X104581964Y-81241444D01*
X104581965Y-81241444D01*
X104698904Y-81153904D01*
X104786444Y-81036965D01*
X104786444Y-81036964D01*
X104837494Y-80900093D01*
X104843999Y-80839597D01*
X104844000Y-80839585D01*
X104844000Y-80645000D01*
X104140000Y-80645000D01*
X103632000Y-80645000D01*
X102928000Y-80645000D01*
X101989298Y-80645000D01*
X102496657Y-80137641D01*
X102509092Y-80127680D01*
X102508905Y-80127453D01*
X102515016Y-80122397D01*
X102515015Y-80122397D01*
X102515018Y-80122396D01*
X102561676Y-80072708D01*
X102564367Y-80069931D01*
X102584134Y-80050166D01*
X102586617Y-80046963D01*
X102594308Y-80037958D01*
X102624586Y-80005717D01*
X102634345Y-79987963D01*
X102645197Y-79971442D01*
X102657613Y-79955437D01*
X102675168Y-79914866D01*
X102680385Y-79904216D01*
X102691587Y-79883840D01*
X102741934Y-79833784D01*
X102811352Y-79818894D01*
X102877800Y-79843896D01*
X102920182Y-79900855D01*
X102928000Y-79944546D01*
X102928000Y-80137000D01*
X104844668Y-80137000D01*
X104905506Y-80103779D01*
X104976322Y-80108843D01*
X105033158Y-80151389D01*
X105072738Y-80204260D01*
X105072739Y-80204261D01*
X105096360Y-80221943D01*
X105189792Y-80291887D01*
X105189794Y-80291888D01*
X105189796Y-80291889D01*
X105235058Y-80308771D01*
X105326795Y-80342988D01*
X105326803Y-80342990D01*
X105387350Y-80349499D01*
X105387355Y-80349499D01*
X105387362Y-80349500D01*
X105387368Y-80349500D01*
X106384632Y-80349500D01*
X106384638Y-80349500D01*
X106384645Y-80349499D01*
X106384649Y-80349499D01*
X106445196Y-80342990D01*
X106445199Y-80342989D01*
X106445201Y-80342989D01*
X106582204Y-80291889D01*
X106699261Y-80204261D01*
X106709568Y-80190491D01*
X106766403Y-80147945D01*
X106810437Y-80140000D01*
X108597305Y-80140000D01*
X108665426Y-80160002D01*
X108686400Y-80176905D01*
X108711147Y-80201652D01*
X108711153Y-80201657D01*
X108711154Y-80201658D01*
X108859580Y-80293209D01*
X108881987Y-80300634D01*
X108925907Y-80325925D01*
X108944822Y-80342682D01*
X108950364Y-80347900D01*
X110248100Y-81645636D01*
X110253317Y-81651177D01*
X110293073Y-81696052D01*
X110342406Y-81730104D01*
X110348518Y-81734601D01*
X110395725Y-81771585D01*
X110404760Y-81775651D01*
X110424622Y-81786854D01*
X110432773Y-81792480D01*
X110484868Y-81812237D01*
X110488818Y-81813735D01*
X110495850Y-81816648D01*
X110550518Y-81841252D01*
X110560267Y-81843038D01*
X110582229Y-81849161D01*
X110591490Y-81852673D01*
X110651024Y-81859901D01*
X110658472Y-81861035D01*
X110717485Y-81871850D01*
X110777332Y-81868230D01*
X110784939Y-81868000D01*
X112200133Y-81868000D01*
X112268254Y-81888002D01*
X112301001Y-81918491D01*
X112348738Y-81982261D01*
X112465792Y-82069887D01*
X112465794Y-82069888D01*
X112465796Y-82069889D01*
X112524875Y-82091924D01*
X112602795Y-82120988D01*
X112602803Y-82120990D01*
X112663350Y-82127499D01*
X112663355Y-82127499D01*
X112663362Y-82127500D01*
X113225061Y-82127500D01*
X113293182Y-82147502D01*
X113339675Y-82201158D01*
X113349779Y-82271432D01*
X113320285Y-82336012D01*
X113300572Y-82354367D01*
X113298737Y-82355740D01*
X113211112Y-82472792D01*
X113211110Y-82472797D01*
X113160011Y-82609795D01*
X113160009Y-82609803D01*
X113153500Y-82670350D01*
X113153500Y-83667649D01*
X113160009Y-83728196D01*
X113160011Y-83728204D01*
X113211110Y-83865202D01*
X113211112Y-83865207D01*
X113298738Y-83982261D01*
X113415792Y-84069887D01*
X113415794Y-84069888D01*
X113415796Y-84069889D01*
X113474875Y-84091924D01*
X113552795Y-84120988D01*
X113552803Y-84120990D01*
X113613350Y-84127499D01*
X113613355Y-84127499D01*
X113613362Y-84127500D01*
X113613368Y-84127500D01*
X114510632Y-84127500D01*
X114510638Y-84127500D01*
X114510645Y-84127499D01*
X114510649Y-84127499D01*
X114571196Y-84120990D01*
X114571199Y-84120989D01*
X114571201Y-84120989D01*
X114708204Y-84069889D01*
X114825261Y-83982261D01*
X114912889Y-83865204D01*
X114963989Y-83728201D01*
X114967534Y-83695232D01*
X114970499Y-83667649D01*
X114970500Y-83667632D01*
X114970500Y-82670367D01*
X114970499Y-82670350D01*
X114963990Y-82609803D01*
X114963988Y-82609795D01*
X114912889Y-82472797D01*
X114912887Y-82472792D01*
X114825262Y-82355740D01*
X114823428Y-82354367D01*
X114822052Y-82352529D01*
X114818890Y-82349367D01*
X114819344Y-82348912D01*
X114780883Y-82297530D01*
X114775819Y-82226715D01*
X114809845Y-82164403D01*
X114872158Y-82130379D01*
X114898939Y-82127500D01*
X115460632Y-82127500D01*
X115460638Y-82127500D01*
X115460645Y-82127499D01*
X115460649Y-82127499D01*
X115521196Y-82120990D01*
X115521199Y-82120989D01*
X115521201Y-82120989D01*
X115658204Y-82069889D01*
X115658203Y-82069889D01*
X115666647Y-82066740D01*
X115667716Y-82069607D01*
X115711220Y-82058500D01*
X116871075Y-82058500D01*
X116890785Y-82060050D01*
X116904190Y-82062174D01*
X116970999Y-82058672D01*
X116977593Y-82058500D01*
X116997612Y-82058500D01*
X116997620Y-82058500D01*
X117017578Y-82056401D01*
X117024041Y-82055892D01*
X117090915Y-82052389D01*
X117104020Y-82048876D01*
X117123471Y-82045272D01*
X117136956Y-82043855D01*
X117136958Y-82043854D01*
X117136960Y-82043854D01*
X117200573Y-82023184D01*
X117206902Y-82021309D01*
X117271520Y-82003995D01*
X117271519Y-82003995D01*
X117271524Y-82003994D01*
X117283613Y-81997833D01*
X117301877Y-81990268D01*
X117314785Y-81986075D01*
X117314788Y-81986073D01*
X117314789Y-81986073D01*
X117331329Y-81976522D01*
X117372729Y-81952619D01*
X117378489Y-81949491D01*
X117438125Y-81919107D01*
X117448671Y-81910565D01*
X117464959Y-81899371D01*
X117476715Y-81892585D01*
X117476718Y-81892581D01*
X117476720Y-81892581D01*
X117526427Y-81847824D01*
X117531434Y-81843545D01*
X117547006Y-81830937D01*
X117561178Y-81816763D01*
X117565949Y-81812237D01*
X117615664Y-81767475D01*
X117615665Y-81767473D01*
X117615669Y-81767470D01*
X117623654Y-81756478D01*
X117636483Y-81741458D01*
X119402067Y-79975875D01*
X119464377Y-79941851D01*
X119535193Y-79946916D01*
X119583861Y-79979635D01*
X119599760Y-79996906D01*
X119777424Y-80135189D01*
X119975426Y-80242342D01*
X119975427Y-80242342D01*
X119975428Y-80242343D01*
X120075274Y-80276620D01*
X120188365Y-80315444D01*
X120410431Y-80352500D01*
X120410435Y-80352500D01*
X120635565Y-80352500D01*
X120635569Y-80352500D01*
X120857635Y-80315444D01*
X121070574Y-80242342D01*
X121268576Y-80135189D01*
X121446240Y-79996906D01*
X121598722Y-79831268D01*
X121721860Y-79642791D01*
X121812296Y-79436616D01*
X121867564Y-79218368D01*
X121886156Y-78994000D01*
X121867564Y-78769632D01*
X121867562Y-78769624D01*
X121812297Y-78551387D01*
X121812296Y-78551386D01*
X121812296Y-78551384D01*
X121721860Y-78345209D01*
X121702237Y-78315173D01*
X121598724Y-78156734D01*
X121598720Y-78156729D01*
X121458629Y-78004552D01*
X121446240Y-77991094D01*
X121446239Y-77991093D01*
X121446237Y-77991091D01*
X121342256Y-77910159D01*
X121268576Y-77852811D01*
X121234792Y-77834528D01*
X121184402Y-77784516D01*
X121169050Y-77715199D01*
X121193610Y-77648586D01*
X121234793Y-77612901D01*
X121268300Y-77594767D01*
X121268301Y-77594767D01*
X121445902Y-77456534D01*
X121598325Y-77290958D01*
X121721419Y-77102548D01*
X121811820Y-76896456D01*
X121811823Y-76896449D01*
X121859544Y-76708000D01*
X120954116Y-76708000D01*
X120982493Y-76663844D01*
X121023000Y-76525889D01*
X121023000Y-76382111D01*
X120982493Y-76244156D01*
X120954116Y-76200000D01*
X121859544Y-76200000D01*
X121859544Y-76199999D01*
X121811823Y-76011550D01*
X121811820Y-76011543D01*
X121721419Y-75805451D01*
X121598325Y-75617041D01*
X121445902Y-75451465D01*
X121268301Y-75313232D01*
X121268300Y-75313231D01*
X121234791Y-75295097D01*
X121184401Y-75245083D01*
X121169050Y-75175766D01*
X121193612Y-75109153D01*
X121234790Y-75073472D01*
X121268576Y-75055189D01*
X121446240Y-74916906D01*
X121598722Y-74751268D01*
X121721860Y-74562791D01*
X121812296Y-74356616D01*
X121867564Y-74138368D01*
X121886156Y-73914000D01*
X121867564Y-73689632D01*
X121864545Y-73677709D01*
X121812297Y-73471387D01*
X121812296Y-73471386D01*
X121812296Y-73471384D01*
X121721860Y-73265209D01*
X121711075Y-73248701D01*
X121598724Y-73076734D01*
X121598720Y-73076729D01*
X121450060Y-72915244D01*
X121446240Y-72911094D01*
X121446239Y-72911093D01*
X121446237Y-72911091D01*
X121364382Y-72847381D01*
X121268576Y-72772811D01*
X121235319Y-72754813D01*
X121184929Y-72704802D01*
X121169576Y-72635485D01*
X121194136Y-72568872D01*
X121235320Y-72533186D01*
X121268576Y-72515189D01*
X121446240Y-72376906D01*
X121598722Y-72211268D01*
X121721860Y-72022791D01*
X121812296Y-71816616D01*
X121867564Y-71598368D01*
X121886156Y-71374000D01*
X121867564Y-71149632D01*
X121814085Y-70938447D01*
X121812297Y-70931387D01*
X121812296Y-70931386D01*
X121812296Y-70931384D01*
X121721860Y-70725209D01*
X121672667Y-70649913D01*
X121598724Y-70536734D01*
X121598720Y-70536729D01*
X121446237Y-70371091D01*
X121364382Y-70307381D01*
X121268576Y-70232811D01*
X121234792Y-70214528D01*
X121184402Y-70164516D01*
X121169050Y-70095199D01*
X121193610Y-70028586D01*
X121234793Y-69992901D01*
X121268300Y-69974767D01*
X121268301Y-69974767D01*
X121445902Y-69836534D01*
X121598325Y-69670958D01*
X121721419Y-69482548D01*
X121811820Y-69276456D01*
X121811823Y-69276449D01*
X121859544Y-69088000D01*
X120954116Y-69088000D01*
X120982493Y-69043844D01*
X121023000Y-68905889D01*
X121023000Y-68762111D01*
X120982493Y-68624156D01*
X120954116Y-68580000D01*
X121859544Y-68580000D01*
X121859544Y-68579999D01*
X121811823Y-68391550D01*
X121811820Y-68391543D01*
X121721419Y-68185451D01*
X121598325Y-67997041D01*
X121455018Y-67841367D01*
X121423598Y-67777702D01*
X121431585Y-67707156D01*
X121476444Y-67652127D01*
X121503679Y-67637977D01*
X121619204Y-67594889D01*
X121736261Y-67507261D01*
X121796616Y-67426637D01*
X121823887Y-67390207D01*
X121823887Y-67390206D01*
X121823889Y-67390204D01*
X121874989Y-67253201D01*
X121875870Y-67245012D01*
X121881499Y-67192649D01*
X121881500Y-67192632D01*
X121881500Y-65395367D01*
X121881499Y-65395350D01*
X121874990Y-65334803D01*
X121874988Y-65334795D01*
X121842567Y-65247872D01*
X121823889Y-65197796D01*
X121823888Y-65197794D01*
X121823887Y-65197792D01*
X121736261Y-65080738D01*
X121619207Y-64993112D01*
X121619202Y-64993110D01*
X121482204Y-64942011D01*
X121482196Y-64942009D01*
X121421649Y-64935500D01*
X121421638Y-64935500D01*
X120474633Y-64935500D01*
X120406512Y-64915498D01*
X120385538Y-64898595D01*
X120052405Y-64565462D01*
X120018379Y-64503150D01*
X120015500Y-64476367D01*
X120015500Y-55197924D01*
X120017051Y-55178212D01*
X120019174Y-55164807D01*
X120015673Y-55098008D01*
X120015500Y-55091413D01*
X120015500Y-55071388D01*
X120015500Y-55071380D01*
X120013404Y-55051451D01*
X120012888Y-55044882D01*
X120010760Y-55004270D01*
X120009388Y-54978085D01*
X120005875Y-54964974D01*
X120002274Y-54945541D01*
X120001536Y-54938525D01*
X120000855Y-54932044D01*
X119980181Y-54868417D01*
X119978307Y-54862090D01*
X119960995Y-54797478D01*
X119960994Y-54797477D01*
X119960994Y-54797475D01*
X119954830Y-54785379D01*
X119947267Y-54767118D01*
X119943075Y-54754215D01*
X119909608Y-54696248D01*
X119906492Y-54690509D01*
X119876107Y-54630875D01*
X119867570Y-54620333D01*
X119856368Y-54604034D01*
X119855107Y-54601851D01*
X119849585Y-54592285D01*
X119804806Y-54542552D01*
X119800543Y-54537561D01*
X119787935Y-54521992D01*
X119773762Y-54507819D01*
X119769237Y-54503050D01*
X119724472Y-54453333D01*
X119724471Y-54453332D01*
X119724470Y-54453331D01*
X119713483Y-54445348D01*
X119698452Y-54432509D01*
X118668488Y-53402545D01*
X118655646Y-53387509D01*
X118647669Y-53376530D01*
X118597938Y-53331751D01*
X118593154Y-53327210D01*
X118579013Y-53313069D01*
X118579007Y-53313064D01*
X118579006Y-53313063D01*
X118563444Y-53300460D01*
X118558434Y-53296182D01*
X118508715Y-53251415D01*
X118496961Y-53244629D01*
X118480667Y-53233430D01*
X118470123Y-53224891D01*
X118410520Y-53194523D01*
X118404739Y-53191385D01*
X118346785Y-53157925D01*
X118333872Y-53153729D01*
X118315613Y-53146165D01*
X118303524Y-53140006D01*
X118303521Y-53140005D01*
X118238906Y-53122691D01*
X118232582Y-53120818D01*
X118168957Y-53100144D01*
X118155463Y-53098726D01*
X118136033Y-53095125D01*
X118122919Y-53091611D01*
X118122908Y-53091610D01*
X118056112Y-53088110D01*
X118049534Y-53087593D01*
X118029623Y-53085500D01*
X118029620Y-53085500D01*
X118009593Y-53085500D01*
X118002999Y-53085327D01*
X118000793Y-53085211D01*
X117936191Y-53081825D01*
X117922786Y-53083949D01*
X117903075Y-53085500D01*
X113142089Y-53085500D01*
X113073968Y-53065498D01*
X113038398Y-53031084D01*
X113036354Y-53028122D01*
X113025149Y-53008255D01*
X113021085Y-52999225D01*
X112991342Y-52961262D01*
X112984111Y-52952033D01*
X112979605Y-52945909D01*
X112970305Y-52932436D01*
X112945552Y-52896573D01*
X112945551Y-52896572D01*
X112945547Y-52896567D01*
X112900678Y-52856817D01*
X112895135Y-52851600D01*
X112525890Y-52482354D01*
X112520674Y-52476813D01*
X112480926Y-52431947D01*
X112431587Y-52397890D01*
X112425461Y-52393382D01*
X112378275Y-52356416D01*
X112378273Y-52356415D01*
X112369243Y-52352351D01*
X112349380Y-52341147D01*
X112341233Y-52335523D01*
X112341225Y-52335519D01*
X112285176Y-52314262D01*
X112278147Y-52311350D01*
X112223483Y-52286748D01*
X112223478Y-52286747D01*
X112213732Y-52284961D01*
X112191774Y-52278840D01*
X112182510Y-52275327D01*
X112182503Y-52275325D01*
X112123002Y-52268101D01*
X112115477Y-52266956D01*
X112056515Y-52256151D01*
X111996684Y-52259770D01*
X111989077Y-52260000D01*
X109117922Y-52260000D01*
X109110315Y-52259770D01*
X109100765Y-52259192D01*
X109050485Y-52256151D01*
X109050484Y-52256151D01*
X109050483Y-52256151D01*
X108991520Y-52266956D01*
X108983997Y-52268101D01*
X108924488Y-52275326D01*
X108924485Y-52275327D01*
X108915216Y-52278842D01*
X108893262Y-52284962D01*
X108883519Y-52286747D01*
X108828862Y-52311346D01*
X108821835Y-52314257D01*
X108765772Y-52335520D01*
X108765770Y-52335521D01*
X108757614Y-52341151D01*
X108737756Y-52352351D01*
X108728725Y-52356415D01*
X108681544Y-52393379D01*
X108675416Y-52397888D01*
X108626073Y-52431948D01*
X108586318Y-52476820D01*
X108581102Y-52482361D01*
X108310278Y-52753184D01*
X108247966Y-52787209D01*
X108177150Y-52782144D01*
X108132088Y-52753183D01*
X107949244Y-52570339D01*
X107939279Y-52557901D01*
X107939052Y-52558090D01*
X107934001Y-52551984D01*
X107934000Y-52551982D01*
X107884348Y-52505356D01*
X107881505Y-52502600D01*
X107861777Y-52482871D01*
X107861771Y-52482866D01*
X107858567Y-52480380D01*
X107849556Y-52472683D01*
X107817325Y-52442417D01*
X107817319Y-52442413D01*
X107799563Y-52432651D01*
X107783047Y-52421802D01*
X107767041Y-52409386D01*
X107726464Y-52391827D01*
X107715807Y-52386605D01*
X107677063Y-52365306D01*
X107677060Y-52365305D01*
X107657436Y-52360266D01*
X107638736Y-52353864D01*
X107635244Y-52352353D01*
X107620145Y-52345819D01*
X107620143Y-52345818D01*
X107620141Y-52345818D01*
X107576474Y-52338901D01*
X107564855Y-52336495D01*
X107522030Y-52325500D01*
X107501776Y-52325500D01*
X107482066Y-52323949D01*
X107462057Y-52320780D01*
X107427518Y-52324045D01*
X107418039Y-52324941D01*
X107406181Y-52325500D01*
X106382849Y-52325500D01*
X106367010Y-52323751D01*
X106366983Y-52324045D01*
X106359091Y-52323299D01*
X106301406Y-52325112D01*
X106291033Y-52325438D01*
X106287075Y-52325500D01*
X106259144Y-52325500D01*
X106256957Y-52325776D01*
X106255111Y-52326009D01*
X106243304Y-52326937D01*
X106199110Y-52328326D01*
X106199105Y-52328327D01*
X106179660Y-52333977D01*
X106160302Y-52337986D01*
X106140207Y-52340524D01*
X106140205Y-52340525D01*
X106099083Y-52356805D01*
X106087859Y-52360647D01*
X106045410Y-52372980D01*
X106045404Y-52372982D01*
X106027966Y-52383295D01*
X106010220Y-52391989D01*
X105991381Y-52399448D01*
X105955614Y-52425434D01*
X105945698Y-52431948D01*
X105907636Y-52454458D01*
X105893307Y-52468787D01*
X105878281Y-52481620D01*
X105861895Y-52493525D01*
X105833711Y-52527593D01*
X105825723Y-52536370D01*
X105529336Y-52832757D01*
X105516901Y-52842721D01*
X105517089Y-52842948D01*
X105510979Y-52848002D01*
X105464370Y-52897635D01*
X105461620Y-52900473D01*
X105441863Y-52920231D01*
X105439374Y-52923439D01*
X105431688Y-52932436D01*
X105401418Y-52964673D01*
X105401411Y-52964683D01*
X105391651Y-52982435D01*
X105380803Y-52998950D01*
X105368386Y-53014958D01*
X105350824Y-53055540D01*
X105345604Y-53066195D01*
X105324305Y-53104939D01*
X105324303Y-53104944D01*
X105319267Y-53124559D01*
X105312864Y-53143262D01*
X105304819Y-53161852D01*
X105297901Y-53205525D01*
X105295495Y-53217142D01*
X105284500Y-53259968D01*
X105284500Y-53280223D01*
X105282949Y-53299933D01*
X105279780Y-53319942D01*
X105283941Y-53363961D01*
X105284500Y-53375819D01*
X105284500Y-59375405D01*
X105264498Y-59443526D01*
X105247595Y-59464500D01*
X105117095Y-59595000D01*
X105054783Y-59629026D01*
X104983968Y-59623961D01*
X104927132Y-59581414D01*
X104902321Y-59514894D01*
X104902000Y-59505905D01*
X104902000Y-59006414D01*
X104901999Y-59006402D01*
X104895494Y-58945906D01*
X104844444Y-58809035D01*
X104844444Y-58809034D01*
X104756904Y-58692095D01*
X104639965Y-58604555D01*
X104503093Y-58553505D01*
X104442597Y-58547000D01*
X104432922Y-58547000D01*
X104364801Y-58526998D01*
X104318308Y-58473342D01*
X104308204Y-58403068D01*
X104337698Y-58338488D01*
X104360651Y-58317787D01*
X104397080Y-58292279D01*
X104451781Y-58253977D01*
X104608977Y-58096781D01*
X104736488Y-57914677D01*
X104830440Y-57713196D01*
X104887978Y-57498463D01*
X104907353Y-57277000D01*
X104887978Y-57055537D01*
X104830440Y-56840804D01*
X104736488Y-56639324D01*
X104608977Y-56457219D01*
X104451781Y-56300023D01*
X104451777Y-56300020D01*
X104451772Y-56300016D01*
X104269677Y-56172512D01*
X104269675Y-56172511D01*
X104068199Y-56078561D01*
X104068193Y-56078559D01*
X104001430Y-56060670D01*
X103853463Y-56021022D01*
X103632000Y-56001647D01*
X103410537Y-56021022D01*
X103295463Y-56051856D01*
X103195806Y-56078559D01*
X103195801Y-56078561D01*
X102994323Y-56172512D01*
X102812222Y-56300020D01*
X102812216Y-56300025D01*
X102655025Y-56457216D01*
X102655020Y-56457222D01*
X102527512Y-56639323D01*
X102476195Y-56749373D01*
X102429277Y-56802658D01*
X102361000Y-56822119D01*
X102293040Y-56801577D01*
X102247805Y-56749373D01*
X102235077Y-56722079D01*
X102196488Y-56639324D01*
X102068977Y-56457219D01*
X101911781Y-56300023D01*
X101902467Y-56293501D01*
X101776547Y-56205330D01*
X101732219Y-56149872D01*
X101722880Y-56106073D01*
X101722673Y-56099480D01*
X101717022Y-56080033D01*
X101713012Y-56060670D01*
X101710474Y-56040573D01*
X101694195Y-55999460D01*
X101690353Y-55988239D01*
X101678018Y-55945777D01*
X101667705Y-55928339D01*
X101659010Y-55910592D01*
X101651552Y-55891753D01*
X101625568Y-55855990D01*
X101619051Y-55846069D01*
X101596541Y-55808005D01*
X101582218Y-55793682D01*
X101569377Y-55778649D01*
X101557471Y-55762262D01*
X101523405Y-55734080D01*
X101514626Y-55726091D01*
X100956874Y-55168339D01*
X100946909Y-55155901D01*
X100946682Y-55156090D01*
X100941631Y-55149984D01*
X100941630Y-55149982D01*
X100925016Y-55134381D01*
X100891979Y-55103357D01*
X100889135Y-55100600D01*
X100869407Y-55080871D01*
X100869401Y-55080866D01*
X100866197Y-55078380D01*
X100857186Y-55070683D01*
X100824955Y-55040417D01*
X100824949Y-55040413D01*
X100807193Y-55030651D01*
X100790677Y-55019802D01*
X100774671Y-55007386D01*
X100742321Y-54993387D01*
X100734094Y-54989827D01*
X100723437Y-54984605D01*
X100684693Y-54963306D01*
X100684690Y-54963305D01*
X100665066Y-54958266D01*
X100646366Y-54951864D01*
X100631754Y-54945541D01*
X100627775Y-54943819D01*
X100627773Y-54943818D01*
X100627771Y-54943818D01*
X100584104Y-54936901D01*
X100572485Y-54934495D01*
X100529660Y-54923500D01*
X100509406Y-54923500D01*
X100489696Y-54921949D01*
X100469687Y-54918780D01*
X100425669Y-54922941D01*
X100413811Y-54923500D01*
X96222853Y-54923500D01*
X96207011Y-54921750D01*
X96206984Y-54922044D01*
X96199091Y-54921297D01*
X96131001Y-54923438D01*
X96127043Y-54923500D01*
X96099144Y-54923500D01*
X96099138Y-54923500D01*
X96099132Y-54923501D01*
X96095133Y-54924006D01*
X96083313Y-54924936D01*
X96039114Y-54926325D01*
X96039107Y-54926327D01*
X96019649Y-54931979D01*
X96000304Y-54935985D01*
X95980206Y-54938525D01*
X95980198Y-54938527D01*
X95939090Y-54954802D01*
X95927866Y-54958645D01*
X95885409Y-54970981D01*
X95885407Y-54970981D01*
X95885407Y-54970982D01*
X95867964Y-54981297D01*
X95850218Y-54989990D01*
X95831382Y-54997448D01*
X95795610Y-55023437D01*
X95785694Y-55029951D01*
X95747637Y-55052458D01*
X95733311Y-55066784D01*
X95718285Y-55079617D01*
X95701895Y-55091525D01*
X95701893Y-55091527D01*
X95673700Y-55125605D01*
X95665713Y-55134381D01*
X93975431Y-56824662D01*
X93913119Y-56858688D01*
X93842303Y-56853623D01*
X93785468Y-56811076D01*
X93761129Y-56749676D01*
X93757217Y-56714953D01*
X93697043Y-56542985D01*
X93697041Y-56542982D01*
X93697041Y-56542981D01*
X93600112Y-56388720D01*
X93600111Y-56388718D01*
X93471281Y-56259888D01*
X93471279Y-56259887D01*
X93317018Y-56162958D01*
X93317015Y-56162957D01*
X93145050Y-56102784D01*
X93145049Y-56102783D01*
X93145047Y-56102783D01*
X92964000Y-56082384D01*
X92782953Y-56102783D01*
X92782950Y-56102783D01*
X92782949Y-56102784D01*
X92610984Y-56162957D01*
X92610981Y-56162958D01*
X92450727Y-56263653D01*
X92449418Y-56261570D01*
X92394320Y-56284059D01*
X92324518Y-56271092D01*
X92272807Y-56222446D01*
X92255500Y-56158713D01*
X92255500Y-53472594D01*
X92275502Y-53404473D01*
X92292399Y-53383504D01*
X93097903Y-52578000D01*
X99770384Y-52578000D01*
X99790783Y-52759047D01*
X99790783Y-52759049D01*
X99790784Y-52759050D01*
X99850957Y-52931015D01*
X99850958Y-52931018D01*
X99947887Y-53085279D01*
X99947888Y-53085281D01*
X100076718Y-53214111D01*
X100076720Y-53214112D01*
X100230981Y-53311041D01*
X100230982Y-53311041D01*
X100230985Y-53311043D01*
X100402953Y-53371217D01*
X100584000Y-53391616D01*
X100765047Y-53371217D01*
X100937015Y-53311043D01*
X101091281Y-53214111D01*
X101220111Y-53085281D01*
X101317043Y-52931015D01*
X101377217Y-52759047D01*
X101397616Y-52578000D01*
X101377217Y-52396953D01*
X101317043Y-52224985D01*
X101317041Y-52224982D01*
X101317041Y-52224981D01*
X101220112Y-52070720D01*
X101220111Y-52070718D01*
X101091281Y-51941888D01*
X101091279Y-51941887D01*
X100937018Y-51844958D01*
X100937015Y-51844957D01*
X100765050Y-51784784D01*
X100765049Y-51784783D01*
X100765047Y-51784783D01*
X100584000Y-51764384D01*
X100402953Y-51784783D01*
X100402950Y-51784783D01*
X100402949Y-51784784D01*
X100230984Y-51844957D01*
X100230981Y-51844958D01*
X100076720Y-51941887D01*
X100076718Y-51941888D01*
X99947888Y-52070718D01*
X99947887Y-52070720D01*
X99850958Y-52224981D01*
X99850957Y-52224984D01*
X99791211Y-52395731D01*
X99790783Y-52396953D01*
X99770384Y-52578000D01*
X93097903Y-52578000D01*
X93152563Y-52523340D01*
X93214872Y-52489318D01*
X93227539Y-52487231D01*
X93272047Y-52482217D01*
X93444015Y-52422043D01*
X93598281Y-52325111D01*
X93727111Y-52196281D01*
X93824043Y-52042015D01*
X93884217Y-51870047D01*
X93904616Y-51689000D01*
X93884217Y-51507953D01*
X93824043Y-51335985D01*
X93824041Y-51335982D01*
X93824041Y-51335981D01*
X93727112Y-51181720D01*
X93727111Y-51181718D01*
X93726393Y-51181000D01*
X94309384Y-51181000D01*
X94329783Y-51362047D01*
X94329783Y-51362049D01*
X94329784Y-51362050D01*
X94389957Y-51534015D01*
X94389958Y-51534018D01*
X94486887Y-51688279D01*
X94486888Y-51688281D01*
X94615718Y-51817111D01*
X94615720Y-51817112D01*
X94769981Y-51914041D01*
X94769982Y-51914041D01*
X94769985Y-51914043D01*
X94941953Y-51974217D01*
X95123000Y-51994616D01*
X95304047Y-51974217D01*
X95476015Y-51914043D01*
X95630281Y-51817111D01*
X95759111Y-51688281D01*
X95856043Y-51534015D01*
X95916217Y-51362047D01*
X95936616Y-51181000D01*
X95916217Y-50999953D01*
X95856043Y-50827985D01*
X95856041Y-50827982D01*
X95856041Y-50827981D01*
X95759112Y-50673720D01*
X95759111Y-50673718D01*
X95630281Y-50544888D01*
X95630279Y-50544887D01*
X95476018Y-50447958D01*
X95476015Y-50447957D01*
X95304050Y-50387784D01*
X95304049Y-50387783D01*
X95304047Y-50387783D01*
X95123000Y-50367384D01*
X94941953Y-50387783D01*
X94941950Y-50387783D01*
X94941949Y-50387784D01*
X94769984Y-50447957D01*
X94769981Y-50447958D01*
X94615720Y-50544887D01*
X94615718Y-50544888D01*
X94486888Y-50673718D01*
X94486887Y-50673720D01*
X94389958Y-50827981D01*
X94389957Y-50827984D01*
X94345178Y-50955957D01*
X94329783Y-50999953D01*
X94309384Y-51181000D01*
X93726393Y-51181000D01*
X93598281Y-51052888D01*
X93598279Y-51052887D01*
X93444018Y-50955958D01*
X93444015Y-50955957D01*
X93272050Y-50895784D01*
X93272049Y-50895783D01*
X93272047Y-50895783D01*
X93091000Y-50875384D01*
X92909953Y-50895783D01*
X92909950Y-50895783D01*
X92909949Y-50895784D01*
X92737984Y-50955957D01*
X92737981Y-50955958D01*
X92583720Y-51052887D01*
X92583718Y-51052888D01*
X92454888Y-51181718D01*
X92454887Y-51181720D01*
X92357958Y-51335981D01*
X92357957Y-51335984D01*
X92297784Y-51507947D01*
X92297781Y-51507961D01*
X92292768Y-51552452D01*
X92265264Y-51617904D01*
X92256656Y-51627437D01*
X91233336Y-52650757D01*
X91220901Y-52660721D01*
X91221089Y-52660948D01*
X91214979Y-52666002D01*
X91168370Y-52715635D01*
X91165620Y-52718473D01*
X91145863Y-52738231D01*
X91143374Y-52741439D01*
X91135688Y-52750436D01*
X91105418Y-52782673D01*
X91105411Y-52782683D01*
X91095651Y-52800435D01*
X91084803Y-52816950D01*
X91072386Y-52832958D01*
X91054824Y-52873540D01*
X91049604Y-52884195D01*
X91028305Y-52922939D01*
X91028303Y-52922944D01*
X91023267Y-52942559D01*
X91016864Y-52961262D01*
X91008819Y-52979852D01*
X91001901Y-53023525D01*
X90999495Y-53035142D01*
X90988500Y-53077968D01*
X90988500Y-53098223D01*
X90986949Y-53117933D01*
X90983780Y-53137942D01*
X90987941Y-53181961D01*
X90988500Y-53193819D01*
X90988500Y-65579442D01*
X90986751Y-65595285D01*
X90987044Y-65595313D01*
X90986298Y-65603204D01*
X90988438Y-65671280D01*
X90988500Y-65675239D01*
X90988500Y-65703146D01*
X90988501Y-65703164D01*
X90989007Y-65707172D01*
X90989937Y-65718991D01*
X90991326Y-65763184D01*
X90991327Y-65763189D01*
X90996977Y-65782635D01*
X91000986Y-65801993D01*
X91003525Y-65822089D01*
X91003526Y-65822096D01*
X91019802Y-65863204D01*
X91023646Y-65874430D01*
X91026962Y-65885842D01*
X91035982Y-65916888D01*
X91045142Y-65932377D01*
X91046294Y-65934325D01*
X91054990Y-65952076D01*
X91062446Y-65970907D01*
X91062452Y-65970919D01*
X91088435Y-66006681D01*
X91094948Y-66016596D01*
X91095254Y-66017112D01*
X91115876Y-66051984D01*
X91117458Y-66054658D01*
X91131782Y-66068982D01*
X91144619Y-66084011D01*
X91156528Y-66100402D01*
X91190593Y-66128583D01*
X91199373Y-66136573D01*
X91732462Y-66669662D01*
X92203495Y-67140694D01*
X92237520Y-67203006D01*
X92232456Y-67273821D01*
X92189909Y-67330657D01*
X92188471Y-67331718D01*
X92181856Y-67336524D01*
X92181853Y-67336527D01*
X92153665Y-67370599D01*
X92145678Y-67379376D01*
X91703418Y-67821635D01*
X91641106Y-67855660D01*
X91601517Y-67857887D01*
X91529211Y-67850500D01*
X90994789Y-67850500D01*
X90895190Y-67860675D01*
X90895187Y-67860675D01*
X90895186Y-67860676D01*
X90815223Y-67887172D01*
X90733807Y-67914151D01*
X90589112Y-68003400D01*
X90589106Y-68003405D01*
X90494417Y-68098095D01*
X90432105Y-68132121D01*
X90405322Y-68135000D01*
X90303695Y-68135000D01*
X90235574Y-68114998D01*
X90214600Y-68098095D01*
X90123852Y-68007347D01*
X90123846Y-68007342D01*
X90082107Y-67981597D01*
X89975420Y-67915791D01*
X89809881Y-67860938D01*
X89809879Y-67860937D01*
X89809877Y-67860937D01*
X89707721Y-67850500D01*
X89281458Y-67850500D01*
X89213337Y-67830498D01*
X89166844Y-67776842D01*
X89156740Y-67706568D01*
X89162529Y-67682885D01*
X89163356Y-67680522D01*
X89185217Y-67618047D01*
X89205616Y-67437000D01*
X89185217Y-67255953D01*
X89125043Y-67083985D01*
X89125041Y-67083982D01*
X89125041Y-67083981D01*
X89028112Y-66929720D01*
X89028111Y-66929718D01*
X88899281Y-66800888D01*
X88899279Y-66800887D01*
X88745018Y-66703958D01*
X88745015Y-66703957D01*
X88573050Y-66643784D01*
X88573049Y-66643783D01*
X88573047Y-66643783D01*
X88392000Y-66623384D01*
X88210953Y-66643783D01*
X88210950Y-66643783D01*
X88210949Y-66643784D01*
X88038984Y-66703957D01*
X88038981Y-66703958D01*
X87884720Y-66800887D01*
X87884718Y-66800888D01*
X87843595Y-66842012D01*
X87781283Y-66876038D01*
X87710468Y-66870973D01*
X87653632Y-66828426D01*
X87628821Y-66761906D01*
X87628500Y-66752917D01*
X87628500Y-57785000D01*
X88848384Y-57785000D01*
X88868783Y-57966047D01*
X88868783Y-57966049D01*
X88868784Y-57966050D01*
X88928957Y-58138015D01*
X88928958Y-58138018D01*
X89025887Y-58292279D01*
X89025888Y-58292281D01*
X89154718Y-58421111D01*
X89154720Y-58421112D01*
X89308981Y-58518041D01*
X89308982Y-58518041D01*
X89308985Y-58518043D01*
X89480953Y-58578217D01*
X89662000Y-58598616D01*
X89843047Y-58578217D01*
X90015015Y-58518043D01*
X90169281Y-58421111D01*
X90298111Y-58292281D01*
X90395043Y-58138015D01*
X90455217Y-57966047D01*
X90475616Y-57785000D01*
X90455217Y-57603953D01*
X90395043Y-57431985D01*
X90395041Y-57431982D01*
X90395041Y-57431981D01*
X90298112Y-57277720D01*
X90298111Y-57277718D01*
X90169281Y-57148888D01*
X90169279Y-57148887D01*
X90015018Y-57051958D01*
X90015015Y-57051957D01*
X89843050Y-56991784D01*
X89843049Y-56991783D01*
X89843047Y-56991783D01*
X89662000Y-56971384D01*
X89480953Y-56991783D01*
X89480950Y-56991783D01*
X89480949Y-56991784D01*
X89308984Y-57051957D01*
X89308981Y-57051958D01*
X89154720Y-57148887D01*
X89154718Y-57148888D01*
X89025888Y-57277718D01*
X89025887Y-57277720D01*
X88928958Y-57431981D01*
X88928957Y-57431984D01*
X88882686Y-57564221D01*
X88868783Y-57603953D01*
X88848384Y-57785000D01*
X87628500Y-57785000D01*
X87628500Y-50098594D01*
X87648502Y-50030473D01*
X87665405Y-50009499D01*
X87728499Y-49946405D01*
X87790811Y-49912379D01*
X87817594Y-49909500D01*
X98087147Y-49909500D01*
X98102988Y-49911249D01*
X98103016Y-49910956D01*
X98110902Y-49911700D01*
X98110909Y-49911702D01*
X98178986Y-49909562D01*
X98182945Y-49909500D01*
X98210851Y-49909500D01*
X98210856Y-49909500D01*
X98214867Y-49908992D01*
X98226699Y-49908061D01*
X98270889Y-49906673D01*
X98290347Y-49901019D01*
X98309694Y-49897013D01*
X98329797Y-49894474D01*
X98370910Y-49878195D01*
X98382130Y-49874353D01*
X98406913Y-49867154D01*
X98424591Y-49862019D01*
X98424595Y-49862017D01*
X98442026Y-49851708D01*
X98459780Y-49843009D01*
X98478617Y-49835552D01*
X98514392Y-49809558D01*
X98524298Y-49803051D01*
X98562362Y-49780542D01*
X98576685Y-49766218D01*
X98591724Y-49753374D01*
X98608107Y-49741472D01*
X98636303Y-49707386D01*
X98644272Y-49698630D01*
X99702659Y-48640244D01*
X99715098Y-48630280D01*
X99714910Y-48630053D01*
X99721016Y-48625001D01*
X99721015Y-48625001D01*
X99721018Y-48625000D01*
X99767662Y-48575327D01*
X99770352Y-48572551D01*
X99790135Y-48552770D01*
X99792614Y-48549573D01*
X99800311Y-48540559D01*
X99830586Y-48508321D01*
X99840346Y-48490565D01*
X99851195Y-48474050D01*
X99863614Y-48458041D01*
X99881179Y-48417446D01*
X99886384Y-48406821D01*
X99907695Y-48368060D01*
X99912733Y-48348434D01*
X99919137Y-48329732D01*
X99924760Y-48316739D01*
X99927181Y-48311145D01*
X99934096Y-48267481D01*
X99936504Y-48255852D01*
X99947500Y-48213030D01*
X99947500Y-48192775D01*
X99949051Y-48173063D01*
X99952220Y-48153057D01*
X99948059Y-48109036D01*
X99947500Y-48097179D01*
X99947500Y-45759737D01*
X99966813Y-45692701D01*
X100003817Y-45633807D01*
X100047043Y-45565015D01*
X100107217Y-45393047D01*
X100127616Y-45212000D01*
X100107217Y-45030953D01*
X100047043Y-44858985D01*
X100047041Y-44858982D01*
X100047041Y-44858981D01*
X99950112Y-44704720D01*
X99950111Y-44704718D01*
X99821281Y-44575888D01*
X99821279Y-44575887D01*
X99667018Y-44478958D01*
X99667015Y-44478957D01*
X99495050Y-44418784D01*
X99495049Y-44418783D01*
X99495047Y-44418783D01*
X99314000Y-44398384D01*
X99132953Y-44418783D01*
X99132950Y-44418783D01*
X99132949Y-44418784D01*
X98960984Y-44478957D01*
X98960981Y-44478958D01*
X98806720Y-44575887D01*
X98806718Y-44575888D01*
X98677888Y-44704718D01*
X98677887Y-44704720D01*
X98580958Y-44858981D01*
X98580957Y-44858984D01*
X98580957Y-44858985D01*
X98520783Y-45030953D01*
X98500384Y-45212000D01*
X98520783Y-45393047D01*
X98520783Y-45393049D01*
X98520784Y-45393050D01*
X98580957Y-45565015D01*
X98580958Y-45565017D01*
X98661187Y-45692701D01*
X98680500Y-45759737D01*
X98680500Y-47818405D01*
X98660498Y-47886526D01*
X98643595Y-47907500D01*
X97945500Y-48605595D01*
X97883188Y-48639621D01*
X97856405Y-48642500D01*
X87586849Y-48642500D01*
X87571010Y-48640751D01*
X87570983Y-48641045D01*
X87563091Y-48640299D01*
X87495033Y-48642438D01*
X87491075Y-48642500D01*
X87463144Y-48642500D01*
X87460957Y-48642776D01*
X87459111Y-48643009D01*
X87447304Y-48643937D01*
X87403110Y-48645326D01*
X87403105Y-48645327D01*
X87383660Y-48650977D01*
X87364302Y-48654986D01*
X87344207Y-48657524D01*
X87344205Y-48657525D01*
X87303083Y-48673805D01*
X87291859Y-48677647D01*
X87249410Y-48689980D01*
X87249404Y-48689982D01*
X87231966Y-48700295D01*
X87214220Y-48708989D01*
X87195381Y-48716448D01*
X87159614Y-48742434D01*
X87149698Y-48748948D01*
X87111636Y-48771458D01*
X87097307Y-48785787D01*
X87082281Y-48798620D01*
X87065895Y-48810525D01*
X87037711Y-48844593D01*
X87029723Y-48853370D01*
X86606336Y-49276757D01*
X86593901Y-49286721D01*
X86594089Y-49286948D01*
X86587979Y-49292002D01*
X86541370Y-49341635D01*
X86538620Y-49344473D01*
X86518863Y-49364231D01*
X86516374Y-49367439D01*
X86508688Y-49376436D01*
X86478418Y-49408673D01*
X86478411Y-49408683D01*
X86468651Y-49426435D01*
X86457803Y-49442950D01*
X86445386Y-49458958D01*
X86427824Y-49499540D01*
X86422604Y-49510195D01*
X86401305Y-49548939D01*
X86401303Y-49548944D01*
X86396267Y-49568559D01*
X86389864Y-49587262D01*
X86381819Y-49605852D01*
X86374901Y-49649525D01*
X86372495Y-49661142D01*
X86361500Y-49703968D01*
X86361500Y-49724223D01*
X86359949Y-49743933D01*
X86356780Y-49763942D01*
X86360941Y-49807961D01*
X86361500Y-49819819D01*
X86361500Y-67817147D01*
X86341498Y-67885268D01*
X86327346Y-67903404D01*
X86316866Y-67914563D01*
X86314119Y-67917398D01*
X86294363Y-67937155D01*
X86291874Y-67940363D01*
X86284188Y-67949360D01*
X86253918Y-67981597D01*
X86253911Y-67981607D01*
X86244151Y-67999359D01*
X86233303Y-68015874D01*
X86220886Y-68031882D01*
X86203324Y-68072464D01*
X86198104Y-68083119D01*
X86176805Y-68121863D01*
X86176803Y-68121868D01*
X86171767Y-68141483D01*
X86165364Y-68160186D01*
X86157319Y-68178776D01*
X86150401Y-68222449D01*
X86147995Y-68234066D01*
X86137000Y-68276892D01*
X86137000Y-68297147D01*
X86135449Y-68316857D01*
X86132280Y-68336866D01*
X81907500Y-68336866D01*
X81907500Y-63246000D01*
X82202844Y-63246000D01*
X82219003Y-63441012D01*
X82221437Y-63470375D01*
X82276702Y-63688612D01*
X82276703Y-63688613D01*
X82276704Y-63688616D01*
X82351592Y-63859344D01*
X82367141Y-63894793D01*
X82490275Y-64083265D01*
X82490279Y-64083270D01*
X82642762Y-64248908D01*
X82651753Y-64255906D01*
X82820424Y-64387189D01*
X82854205Y-64405470D01*
X82904596Y-64455482D01*
X82919949Y-64524799D01*
X82895389Y-64591412D01*
X82854209Y-64627096D01*
X82820704Y-64645228D01*
X82820698Y-64645232D01*
X82643097Y-64783465D01*
X82490674Y-64949041D01*
X82367580Y-65137451D01*
X82277179Y-65343543D01*
X82277176Y-65343550D01*
X82229455Y-65531999D01*
X82229456Y-65532000D01*
X83134884Y-65532000D01*
X83106507Y-65576156D01*
X83066000Y-65714111D01*
X83066000Y-65857889D01*
X83106507Y-65995844D01*
X83134884Y-66040000D01*
X82229455Y-66040000D01*
X82277176Y-66228449D01*
X82277179Y-66228456D01*
X82367580Y-66434548D01*
X82490674Y-66622958D01*
X82643097Y-66788534D01*
X82820698Y-66926767D01*
X82820699Y-66926768D01*
X83018628Y-67033882D01*
X83018630Y-67033883D01*
X83231483Y-67106955D01*
X83231492Y-67106957D01*
X83312000Y-67120391D01*
X83312000Y-66219674D01*
X83423685Y-66270680D01*
X83530237Y-66286000D01*
X83601763Y-66286000D01*
X83708315Y-66270680D01*
X83820000Y-66219674D01*
X83820000Y-67120390D01*
X83900507Y-67106957D01*
X83900516Y-67106955D01*
X84113369Y-67033883D01*
X84113371Y-67033882D01*
X84311300Y-66926768D01*
X84311301Y-66926767D01*
X84488902Y-66788534D01*
X84641325Y-66622958D01*
X84764419Y-66434548D01*
X84854820Y-66228456D01*
X84854823Y-66228449D01*
X84902544Y-66040000D01*
X83997116Y-66040000D01*
X84025493Y-65995844D01*
X84066000Y-65857889D01*
X84066000Y-65714111D01*
X84025493Y-65576156D01*
X83997116Y-65532000D01*
X84902544Y-65532000D01*
X84902544Y-65531999D01*
X84854823Y-65343550D01*
X84854820Y-65343543D01*
X84764419Y-65137451D01*
X84641325Y-64949041D01*
X84488902Y-64783465D01*
X84311301Y-64645232D01*
X84311300Y-64645231D01*
X84277791Y-64627097D01*
X84227401Y-64577083D01*
X84212050Y-64507766D01*
X84236612Y-64441153D01*
X84277790Y-64405472D01*
X84311576Y-64387189D01*
X84489240Y-64248906D01*
X84641722Y-64083268D01*
X84764860Y-63894791D01*
X84855296Y-63688616D01*
X84910564Y-63470368D01*
X84929156Y-63246000D01*
X84910564Y-63021632D01*
X84855296Y-62803384D01*
X84764860Y-62597209D01*
X84714075Y-62519477D01*
X84641724Y-62408734D01*
X84641720Y-62408729D01*
X84489237Y-62243091D01*
X84368547Y-62149154D01*
X84311576Y-62104811D01*
X84278319Y-62086813D01*
X84227929Y-62036802D01*
X84212576Y-61967485D01*
X84237136Y-61900872D01*
X84278320Y-61865186D01*
X84311576Y-61847189D01*
X84489240Y-61708906D01*
X84641722Y-61543268D01*
X84764860Y-61354791D01*
X84855296Y-61148616D01*
X84910564Y-60930368D01*
X84929156Y-60706000D01*
X84910564Y-60481632D01*
X84855296Y-60263384D01*
X84764860Y-60057209D01*
X84687558Y-59938889D01*
X84641724Y-59868734D01*
X84641719Y-59868729D01*
X84498524Y-59713179D01*
X84467103Y-59649514D01*
X84475090Y-59578968D01*
X84519948Y-59523939D01*
X84547183Y-59509789D01*
X84662204Y-59466889D01*
X84665396Y-59464500D01*
X84779261Y-59379261D01*
X84866887Y-59262207D01*
X84866887Y-59262206D01*
X84866889Y-59262204D01*
X84917989Y-59125201D01*
X84919484Y-59111302D01*
X84924499Y-59064649D01*
X84924500Y-59064632D01*
X84924500Y-57267367D01*
X84924499Y-57267350D01*
X84917990Y-57206803D01*
X84917988Y-57206795D01*
X84866889Y-57069797D01*
X84866887Y-57069792D01*
X84779261Y-56952738D01*
X84662207Y-56865112D01*
X84662202Y-56865110D01*
X84525204Y-56814011D01*
X84525196Y-56814009D01*
X84464649Y-56807500D01*
X84464638Y-56807500D01*
X82667362Y-56807500D01*
X82667350Y-56807500D01*
X82606803Y-56814009D01*
X82606795Y-56814011D01*
X82469797Y-56865110D01*
X82469792Y-56865112D01*
X82352738Y-56952738D01*
X82265112Y-57069792D01*
X82265110Y-57069797D01*
X82214011Y-57206795D01*
X82214009Y-57206803D01*
X82207500Y-57267350D01*
X82207500Y-59064649D01*
X82214009Y-59125196D01*
X82214011Y-59125204D01*
X82265110Y-59262202D01*
X82265112Y-59262207D01*
X82352738Y-59379261D01*
X82469791Y-59466886D01*
X82469792Y-59466886D01*
X82469796Y-59466889D01*
X82584810Y-59509787D01*
X82641642Y-59552332D01*
X82666453Y-59618852D01*
X82651362Y-59688226D01*
X82633475Y-59713179D01*
X82490280Y-59868729D01*
X82490275Y-59868734D01*
X82367141Y-60057206D01*
X82276703Y-60263386D01*
X82276702Y-60263387D01*
X82221437Y-60481624D01*
X82221436Y-60481630D01*
X82221436Y-60481632D01*
X82202844Y-60706000D01*
X82220700Y-60921488D01*
X82221437Y-60930375D01*
X82276702Y-61148612D01*
X82276703Y-61148613D01*
X82276704Y-61148616D01*
X82367140Y-61354791D01*
X82367141Y-61354793D01*
X82490275Y-61543265D01*
X82490279Y-61543270D01*
X82642762Y-61708908D01*
X82686563Y-61743000D01*
X82820424Y-61847189D01*
X82853680Y-61865186D01*
X82904071Y-61915200D01*
X82919423Y-61984516D01*
X82894862Y-62051129D01*
X82853680Y-62086813D01*
X82820426Y-62104810D01*
X82820424Y-62104811D01*
X82642762Y-62243091D01*
X82490279Y-62408729D01*
X82490275Y-62408734D01*
X82367141Y-62597206D01*
X82276703Y-62803386D01*
X82276702Y-62803387D01*
X82221437Y-63021624D01*
X82221436Y-63021630D01*
X82221436Y-63021632D01*
X82202844Y-63246000D01*
X81907500Y-63246000D01*
X81907500Y-50428649D01*
X82207500Y-50428649D01*
X82214009Y-50489196D01*
X82214011Y-50489204D01*
X82265110Y-50626202D01*
X82265112Y-50626207D01*
X82352738Y-50743261D01*
X82469792Y-50830887D01*
X82469796Y-50830889D01*
X82585312Y-50873975D01*
X82642148Y-50916522D01*
X82666958Y-50983042D01*
X82651866Y-51052416D01*
X82633981Y-51077367D01*
X82490674Y-51233041D01*
X82367580Y-51421451D01*
X82277179Y-51627543D01*
X82277176Y-51627550D01*
X82229455Y-51815999D01*
X82229456Y-51816000D01*
X83134884Y-51816000D01*
X83106507Y-51860156D01*
X83066000Y-51998111D01*
X83066000Y-52141889D01*
X83106507Y-52279844D01*
X83134884Y-52324000D01*
X82229455Y-52324000D01*
X82277176Y-52512449D01*
X82277179Y-52512456D01*
X82367580Y-52718548D01*
X82490674Y-52906958D01*
X82643097Y-53072534D01*
X82820698Y-53210767D01*
X82820699Y-53210768D01*
X83018628Y-53317882D01*
X83018630Y-53317883D01*
X83231483Y-53390955D01*
X83231492Y-53390957D01*
X83312000Y-53404391D01*
X83312000Y-52503674D01*
X83423685Y-52554680D01*
X83530237Y-52570000D01*
X83601763Y-52570000D01*
X83708315Y-52554680D01*
X83820000Y-52503674D01*
X83820000Y-53404390D01*
X83900507Y-53390957D01*
X83900516Y-53390955D01*
X84113369Y-53317883D01*
X84113371Y-53317882D01*
X84311300Y-53210768D01*
X84311301Y-53210767D01*
X84488902Y-53072534D01*
X84641325Y-52906958D01*
X84764419Y-52718548D01*
X84854820Y-52512456D01*
X84854823Y-52512449D01*
X84902544Y-52324000D01*
X83997116Y-52324000D01*
X84025493Y-52279844D01*
X84066000Y-52141889D01*
X84066000Y-51998111D01*
X84025493Y-51860156D01*
X83997116Y-51816000D01*
X84902544Y-51816000D01*
X84902544Y-51815999D01*
X84854823Y-51627550D01*
X84854820Y-51627543D01*
X84764419Y-51421451D01*
X84641325Y-51233041D01*
X84498018Y-51077367D01*
X84466598Y-51013702D01*
X84474585Y-50943156D01*
X84519444Y-50888127D01*
X84546679Y-50873977D01*
X84662204Y-50830889D01*
X84779261Y-50743261D01*
X84831320Y-50673719D01*
X84866887Y-50626207D01*
X84866887Y-50626206D01*
X84866889Y-50626204D01*
X84917989Y-50489201D01*
X84924500Y-50428638D01*
X84924500Y-48631362D01*
X84924499Y-48631350D01*
X84917990Y-48570803D01*
X84917988Y-48570795D01*
X84866889Y-48433797D01*
X84866887Y-48433792D01*
X84779261Y-48316738D01*
X84662207Y-48229112D01*
X84662202Y-48229110D01*
X84525204Y-48178011D01*
X84525196Y-48178009D01*
X84464649Y-48171500D01*
X84464638Y-48171500D01*
X82667362Y-48171500D01*
X82667350Y-48171500D01*
X82606803Y-48178009D01*
X82606795Y-48178011D01*
X82469797Y-48229110D01*
X82469792Y-48229112D01*
X82352738Y-48316738D01*
X82265112Y-48433792D01*
X82265110Y-48433797D01*
X82214011Y-48570795D01*
X82214009Y-48570803D01*
X82207500Y-48631350D01*
X82207500Y-50428649D01*
X81907500Y-50428649D01*
X81907500Y-41909000D01*
X81927502Y-41840879D01*
X81981158Y-41794386D01*
X82033500Y-41783000D01*
X122055500Y-41783000D01*
X122123621Y-41803002D01*
G37*
G04 #@! TD.AperFunction*
M02*
