G04 #@! TF.GenerationSoftware,KiCad,Pcbnew,7.0.11-2.fc39*
G04 #@! TF.CreationDate,2024-06-06T09:07:33+02:00*
G04 #@! TF.ProjectId,four_relays_extension,666f7572-5f72-4656-9c61-79735f657874,1.0*
G04 #@! TF.SameCoordinates,Original*
G04 #@! TF.FileFunction,Copper,L2,Bot*
G04 #@! TF.FilePolarity,Positive*
%FSLAX46Y46*%
G04 Gerber Fmt 4.6, Leading zero omitted, Abs format (unit mm)*
G04 Created by KiCad (PCBNEW 7.0.11-2.fc39) date 2024-06-06 09:07:33*
%MOMM*%
%LPD*%
G01*
G04 APERTURE LIST*
G04 #@! TA.AperFunction,ComponentPad*
%ADD10C,3.000000*%
G04 #@! TD*
G04 #@! TA.AperFunction,ComponentPad*
%ADD11C,2.500000*%
G04 #@! TD*
G04 #@! TA.AperFunction,ComponentPad*
%ADD12O,5.000000X5.000000*%
G04 #@! TD*
G04 #@! TA.AperFunction,ComponentPad*
%ADD13R,1.700000X1.700000*%
G04 #@! TD*
G04 #@! TA.AperFunction,ComponentPad*
%ADD14O,1.700000X1.700000*%
G04 #@! TD*
G04 #@! TA.AperFunction,ComponentPad*
%ADD15O,0.100000X0.100000*%
G04 #@! TD*
G04 #@! TA.AperFunction,SMDPad,CuDef*
%ADD16R,1.000000X1.000000*%
G04 #@! TD*
G04 #@! TA.AperFunction,ViaPad*
%ADD17C,0.800000*%
G04 #@! TD*
G04 #@! TA.AperFunction,ViaPad*
%ADD18C,0.600000*%
G04 #@! TD*
G04 #@! TA.AperFunction,Conductor*
%ADD19C,0.762000*%
G04 #@! TD*
G04 #@! TA.AperFunction,Conductor*
%ADD20C,0.381000*%
G04 #@! TD*
G04 APERTURE END LIST*
D10*
X150322000Y-74250000D03*
D11*
X144272000Y-76200000D03*
D10*
X144272000Y-88400000D03*
X156322000Y-88450000D03*
D11*
X156272000Y-76200000D03*
D12*
X176631600Y-56489600D03*
D13*
X134772400Y-98679000D03*
D14*
X132232400Y-98679000D03*
X129692400Y-98679000D03*
D10*
X114381000Y-74319000D03*
D11*
X108331000Y-76269000D03*
D10*
X108331000Y-88469000D03*
X120381000Y-88519000D03*
D11*
X120331000Y-76269000D03*
D10*
X168254400Y-74250000D03*
D11*
X162204400Y-76200000D03*
D10*
X162204400Y-88400000D03*
X174254400Y-88450000D03*
D11*
X174204400Y-76200000D03*
D15*
X105968800Y-98501200D03*
D13*
X147675600Y-53086000D03*
D14*
X145135600Y-53086000D03*
X142595600Y-53086000D03*
X140055600Y-53086000D03*
X137515600Y-53086000D03*
X134975600Y-53086000D03*
D10*
X132338800Y-74242000D03*
D11*
X126288800Y-76192000D03*
D10*
X126288800Y-88392000D03*
X138338800Y-88442000D03*
D11*
X138288800Y-76192000D03*
D15*
X176631600Y-98602800D03*
D13*
X116840000Y-98552000D03*
D14*
X114300000Y-98552000D03*
X111760000Y-98552000D03*
D13*
X170789600Y-98602800D03*
D14*
X168249600Y-98602800D03*
X165709600Y-98602800D03*
D12*
X105968800Y-56489600D03*
D13*
X152806400Y-98602800D03*
D14*
X150266400Y-98602800D03*
X147726400Y-98602800D03*
D16*
X115606200Y-78181200D03*
X113106200Y-78181200D03*
X154279600Y-78181200D03*
X151779600Y-78181200D03*
X172212000Y-78181200D03*
X169712000Y-78181200D03*
X136144000Y-78181200D03*
X133644000Y-78181200D03*
D17*
X127076200Y-62738000D03*
D18*
X147523200Y-63957200D03*
X120853200Y-52425600D03*
D17*
X118846600Y-69646800D03*
D18*
X129743200Y-58216800D03*
D17*
X105791000Y-67970400D03*
D18*
X147523200Y-69900800D03*
X137795000Y-57912000D03*
D17*
X119253000Y-66395600D03*
D18*
X129743200Y-52425600D03*
D17*
X127939800Y-65735200D03*
D18*
X105130600Y-69900800D03*
X156413200Y-69900800D03*
X174193200Y-52425600D03*
X165303200Y-69900800D03*
X177901600Y-69900800D03*
X165303200Y-63957200D03*
X138633200Y-69900800D03*
X111963200Y-52425600D03*
X131140200Y-69900800D03*
X156413200Y-52425600D03*
X138633200Y-63906400D03*
X105130600Y-63855600D03*
X156413200Y-63957200D03*
X111963200Y-57912000D03*
X165303200Y-52425600D03*
D17*
X140106400Y-56337200D03*
X135382000Y-57251600D03*
X114477800Y-60502800D03*
X122504200Y-62687200D03*
X113614200Y-68529200D03*
D19*
X133644000Y-78181200D02*
X128278000Y-78181200D01*
X128278000Y-78181200D02*
X126288800Y-76192000D01*
X110243200Y-78181200D02*
X108331000Y-76269000D01*
X113106200Y-78181200D02*
X110243200Y-78181200D01*
D20*
X140106400Y-53136800D02*
X140055600Y-53086000D01*
X140106400Y-56337200D02*
X140106400Y-53136800D01*
X137515600Y-55118000D02*
X137515600Y-53086000D01*
X135382000Y-57251600D02*
X137515600Y-55118000D01*
D19*
X164185600Y-78181200D02*
X162204400Y-76200000D01*
X169712000Y-78181200D02*
X164185600Y-78181200D01*
D20*
X120319800Y-60502800D02*
X122504200Y-62687200D01*
X114477800Y-60502800D02*
X113614200Y-61366400D01*
X114477800Y-60502800D02*
X120319800Y-60502800D01*
X113614200Y-61366400D02*
X113614200Y-68529200D01*
D19*
X156272000Y-76200000D02*
X160082000Y-80010000D01*
X152614400Y-79857600D02*
X141954400Y-79857600D01*
X120331000Y-76269000D02*
X123868800Y-79806800D01*
X156272000Y-76200000D02*
X152614400Y-79857600D01*
X141954400Y-79857600D02*
X138288800Y-76192000D01*
X160082000Y-80010000D02*
X170394400Y-80010000D01*
X123868800Y-79806800D02*
X134674000Y-79806800D01*
X118418800Y-78181200D02*
X120331000Y-76269000D01*
X134674000Y-79806800D02*
X138288800Y-76192000D01*
X120338000Y-76269000D02*
X120331000Y-76269000D01*
X115606200Y-78181200D02*
X118418800Y-78181200D01*
X170394400Y-80010000D02*
X174204400Y-76200000D01*
X146253200Y-78181200D02*
X144272000Y-76200000D01*
X151779600Y-78181200D02*
X146253200Y-78181200D01*
G04 #@! TA.AperFunction,Conductor*
G36*
X180087339Y-51447185D02*
G01*
X180133094Y-51499989D01*
X180144300Y-51551500D01*
X180144300Y-72215200D01*
X180124615Y-72282239D01*
X180071811Y-72327994D01*
X180020300Y-72339200D01*
X168878197Y-72339200D01*
X168834865Y-72331382D01*
X168819446Y-72325631D01*
X168819441Y-72325629D01*
X168539833Y-72264804D01*
X168254401Y-72244390D01*
X168254399Y-72244390D01*
X167968966Y-72264804D01*
X167689358Y-72325629D01*
X167680408Y-72328967D01*
X167673934Y-72331382D01*
X167630603Y-72339200D01*
X150945797Y-72339200D01*
X150902465Y-72331382D01*
X150887046Y-72325631D01*
X150887041Y-72325629D01*
X150607433Y-72264804D01*
X150322001Y-72244390D01*
X150321999Y-72244390D01*
X150036566Y-72264804D01*
X149756958Y-72325629D01*
X149748008Y-72328967D01*
X149741534Y-72331382D01*
X149698203Y-72339200D01*
X132984047Y-72339200D01*
X132940715Y-72331382D01*
X132903843Y-72317630D01*
X132624233Y-72256804D01*
X132338801Y-72236390D01*
X132338799Y-72236390D01*
X132053366Y-72256804D01*
X131773756Y-72317630D01*
X131736885Y-72331382D01*
X131693553Y-72339200D01*
X114704565Y-72339200D01*
X114678206Y-72336366D01*
X114666428Y-72333804D01*
X114585193Y-72327994D01*
X114381001Y-72313390D01*
X114380999Y-72313390D01*
X114095571Y-72333804D01*
X114090576Y-72334890D01*
X114083793Y-72336366D01*
X114057435Y-72339200D01*
X102580100Y-72339200D01*
X102513061Y-72319515D01*
X102467306Y-72266711D01*
X102456100Y-72215200D01*
X102456100Y-68529200D01*
X112708740Y-68529200D01*
X112728526Y-68717456D01*
X112728527Y-68717459D01*
X112787018Y-68897477D01*
X112787021Y-68897484D01*
X112881667Y-69061416D01*
X113008329Y-69202088D01*
X113161465Y-69313348D01*
X113161470Y-69313351D01*
X113334392Y-69390342D01*
X113334397Y-69390344D01*
X113519554Y-69429700D01*
X113519555Y-69429700D01*
X113708844Y-69429700D01*
X113708846Y-69429700D01*
X113894003Y-69390344D01*
X114066930Y-69313351D01*
X114220071Y-69202088D01*
X114346733Y-69061416D01*
X114441379Y-68897484D01*
X114499874Y-68717456D01*
X114519660Y-68529200D01*
X114499874Y-68340944D01*
X114441379Y-68160916D01*
X114346733Y-67996984D01*
X114340766Y-67990357D01*
X114337047Y-67986226D01*
X114306820Y-67923234D01*
X114305200Y-67903257D01*
X114305200Y-61703983D01*
X114324885Y-61636944D01*
X114341519Y-61616302D01*
X114523712Y-61434108D01*
X114585033Y-61400625D01*
X114585148Y-61400600D01*
X114757603Y-61363944D01*
X114757607Y-61363942D01*
X114757608Y-61363942D01*
X114846489Y-61324369D01*
X114930530Y-61286951D01*
X115008753Y-61230119D01*
X115026147Y-61217482D01*
X115091953Y-61194002D01*
X115099032Y-61193800D01*
X119982216Y-61193800D01*
X120049255Y-61213485D01*
X120069897Y-61230119D01*
X121576118Y-62736340D01*
X121609603Y-62797663D01*
X121611757Y-62811053D01*
X121618526Y-62875456D01*
X121618527Y-62875459D01*
X121677018Y-63055477D01*
X121677021Y-63055484D01*
X121771667Y-63219416D01*
X121898329Y-63360088D01*
X122051465Y-63471348D01*
X122051470Y-63471351D01*
X122224392Y-63548342D01*
X122224397Y-63548344D01*
X122409554Y-63587700D01*
X122409555Y-63587700D01*
X122598844Y-63587700D01*
X122598846Y-63587700D01*
X122784003Y-63548344D01*
X122956930Y-63471351D01*
X123110071Y-63360088D01*
X123236733Y-63219416D01*
X123331379Y-63055484D01*
X123389874Y-62875456D01*
X123409660Y-62687200D01*
X123389874Y-62498944D01*
X123331379Y-62318916D01*
X123236733Y-62154984D01*
X123110071Y-62014312D01*
X123110070Y-62014311D01*
X122956934Y-61903051D01*
X122956929Y-61903048D01*
X122784007Y-61826057D01*
X122784002Y-61826055D01*
X122612011Y-61789498D01*
X122550529Y-61756306D01*
X122550111Y-61755889D01*
X120825827Y-60031605D01*
X120820693Y-60026151D01*
X120781383Y-59981780D01*
X120732592Y-59948102D01*
X120726560Y-59943663D01*
X120679908Y-59907114D01*
X120679899Y-59907108D01*
X120670934Y-59903074D01*
X120651386Y-59892050D01*
X120643282Y-59886456D01*
X120643278Y-59886453D01*
X120587861Y-59865436D01*
X120580944Y-59862572D01*
X120526881Y-59838241D01*
X120526882Y-59838241D01*
X120517195Y-59836466D01*
X120495592Y-59830444D01*
X120486382Y-59826952D01*
X120427535Y-59819806D01*
X120420133Y-59818679D01*
X120361830Y-59807995D01*
X120361825Y-59807995D01*
X120302661Y-59811574D01*
X120295174Y-59811800D01*
X115099032Y-59811800D01*
X115031993Y-59792115D01*
X115026147Y-59788118D01*
X114930534Y-59718651D01*
X114930529Y-59718648D01*
X114757607Y-59641657D01*
X114757602Y-59641655D01*
X114611801Y-59610665D01*
X114572446Y-59602300D01*
X114383154Y-59602300D01*
X114350697Y-59609198D01*
X114197997Y-59641655D01*
X114197992Y-59641657D01*
X114025070Y-59718648D01*
X114025065Y-59718651D01*
X113871929Y-59829911D01*
X113745266Y-59970585D01*
X113650621Y-60134515D01*
X113650618Y-60134522D01*
X113592127Y-60314540D01*
X113592126Y-60314544D01*
X113585358Y-60378940D01*
X113558773Y-60443555D01*
X113549718Y-60453659D01*
X113143004Y-60860372D01*
X113137552Y-60865504D01*
X113093186Y-60904810D01*
X113093176Y-60904821D01*
X113059498Y-60953612D01*
X113055061Y-60959643D01*
X113018512Y-61006294D01*
X113018511Y-61006296D01*
X113014471Y-61015273D01*
X113003453Y-61034808D01*
X112997855Y-61042919D01*
X112976832Y-61098349D01*
X112973968Y-61105265D01*
X112949642Y-61159316D01*
X112947866Y-61169006D01*
X112941845Y-61190603D01*
X112938352Y-61199814D01*
X112938352Y-61199815D01*
X112931206Y-61258665D01*
X112930079Y-61266067D01*
X112919395Y-61324369D01*
X112919395Y-61324372D01*
X112922974Y-61383537D01*
X112923200Y-61391024D01*
X112923200Y-67903257D01*
X112903515Y-67970296D01*
X112891353Y-67986226D01*
X112881666Y-67996985D01*
X112787021Y-68160915D01*
X112787018Y-68160922D01*
X112728527Y-68340940D01*
X112728526Y-68340944D01*
X112708740Y-68529200D01*
X102456100Y-68529200D01*
X102456100Y-56239599D01*
X102978276Y-56239599D01*
X102978277Y-56239600D01*
X105000554Y-56239600D01*
X104975234Y-56337391D01*
X104964933Y-56540510D01*
X104995433Y-56739600D01*
X102978277Y-56739600D01*
X102984035Y-56838473D01*
X102984035Y-56838477D01*
X103044714Y-57182602D01*
X103044716Y-57182611D01*
X103144945Y-57517400D01*
X103283355Y-57838270D01*
X103283361Y-57838283D01*
X103458089Y-58140922D01*
X103666768Y-58421227D01*
X103666773Y-58421233D01*
X103906584Y-58675416D01*
X103906594Y-58675426D01*
X104174280Y-58900042D01*
X104466261Y-59092080D01*
X104778539Y-59248914D01*
X104778545Y-59248916D01*
X105106930Y-59368438D01*
X105106933Y-59368439D01*
X105446971Y-59449029D01*
X105718800Y-59480801D01*
X105718800Y-57459121D01*
X105867110Y-57489600D01*
X106019512Y-57489600D01*
X106171137Y-57474181D01*
X106218800Y-57459226D01*
X106218800Y-59480801D01*
X106490627Y-59449029D01*
X106490629Y-59449029D01*
X106830666Y-59368439D01*
X106830669Y-59368438D01*
X107159054Y-59248916D01*
X107159060Y-59248914D01*
X107471338Y-59092080D01*
X107763319Y-58900042D01*
X108031005Y-58675426D01*
X108031015Y-58675416D01*
X108270826Y-58421233D01*
X108270831Y-58421227D01*
X108479510Y-58140922D01*
X108654238Y-57838283D01*
X108654244Y-57838270D01*
X108792654Y-57517400D01*
X108892883Y-57182611D01*
X108892885Y-57182602D01*
X108953564Y-56838477D01*
X108953564Y-56838473D01*
X108959323Y-56739600D01*
X106937046Y-56739600D01*
X106962366Y-56641809D01*
X106972667Y-56438690D01*
X106942167Y-56239600D01*
X108959323Y-56239600D01*
X108959323Y-56239599D01*
X108953564Y-56140726D01*
X108953564Y-56140722D01*
X108892885Y-55796597D01*
X108892883Y-55796588D01*
X108792654Y-55461799D01*
X108654244Y-55140929D01*
X108654238Y-55140916D01*
X108479510Y-54838277D01*
X108270831Y-54557972D01*
X108270826Y-54557966D01*
X108031015Y-54303783D01*
X108031005Y-54303773D01*
X107763319Y-54079157D01*
X107471338Y-53887119D01*
X107159060Y-53730285D01*
X107159054Y-53730283D01*
X106830669Y-53610761D01*
X106830666Y-53610760D01*
X106490629Y-53530170D01*
X106218800Y-53498397D01*
X106218800Y-55520078D01*
X106070490Y-55489600D01*
X105918088Y-55489600D01*
X105766463Y-55505019D01*
X105718800Y-55519973D01*
X105718800Y-53498397D01*
X105446970Y-53530170D01*
X105106933Y-53610760D01*
X105106930Y-53610761D01*
X104778545Y-53730283D01*
X104778539Y-53730285D01*
X104466261Y-53887119D01*
X104174280Y-54079157D01*
X103906594Y-54303773D01*
X103906584Y-54303783D01*
X103666773Y-54557966D01*
X103666768Y-54557972D01*
X103458089Y-54838277D01*
X103283361Y-55140916D01*
X103283355Y-55140929D01*
X103144945Y-55461799D01*
X103044716Y-55796588D01*
X103044714Y-55796597D01*
X102984035Y-56140722D01*
X102984035Y-56140726D01*
X102978276Y-56239599D01*
X102456100Y-56239599D01*
X102456100Y-53336000D01*
X133644964Y-53336000D01*
X133702167Y-53549486D01*
X133702170Y-53549492D01*
X133801999Y-53763578D01*
X133937494Y-53957082D01*
X134104517Y-54124105D01*
X134298021Y-54259600D01*
X134512107Y-54359429D01*
X134512116Y-54359433D01*
X134725600Y-54416634D01*
X134725600Y-53521501D01*
X134833285Y-53570680D01*
X134939837Y-53586000D01*
X135011363Y-53586000D01*
X135117915Y-53570680D01*
X135225600Y-53521501D01*
X135225600Y-54416633D01*
X135439083Y-54359433D01*
X135439092Y-54359429D01*
X135653178Y-54259600D01*
X135846682Y-54124105D01*
X136013705Y-53957082D01*
X136143719Y-53771405D01*
X136198296Y-53727781D01*
X136267795Y-53720588D01*
X136330149Y-53752110D01*
X136346869Y-53771405D01*
X136477105Y-53957401D01*
X136477106Y-53957402D01*
X136644197Y-54124493D01*
X136644203Y-54124498D01*
X136771723Y-54213788D01*
X136815348Y-54268365D01*
X136824600Y-54315363D01*
X136824600Y-54780416D01*
X136804915Y-54847455D01*
X136788281Y-54868097D01*
X135336088Y-56320289D01*
X135274765Y-56353774D01*
X135274188Y-56353898D01*
X135102197Y-56390455D01*
X135102192Y-56390457D01*
X134929270Y-56467448D01*
X134929265Y-56467451D01*
X134776129Y-56578711D01*
X134649466Y-56719385D01*
X134554821Y-56883315D01*
X134554818Y-56883322D01*
X134496327Y-57063340D01*
X134496326Y-57063344D01*
X134476540Y-57251600D01*
X134496326Y-57439856D01*
X134496327Y-57439859D01*
X134554818Y-57619877D01*
X134554821Y-57619884D01*
X134649467Y-57783816D01*
X134776129Y-57924488D01*
X134929265Y-58035748D01*
X134929270Y-58035751D01*
X135102192Y-58112742D01*
X135102197Y-58112744D01*
X135287354Y-58152100D01*
X135287355Y-58152100D01*
X135476644Y-58152100D01*
X135476646Y-58152100D01*
X135661803Y-58112744D01*
X135834730Y-58035751D01*
X135987871Y-57924488D01*
X136114533Y-57783816D01*
X136209179Y-57619884D01*
X136267674Y-57439856D01*
X136274441Y-57375459D01*
X136301024Y-57310846D01*
X136310072Y-57300748D01*
X137986817Y-55624003D01*
X137992219Y-55618917D01*
X138036620Y-55579583D01*
X138070296Y-55530791D01*
X138074734Y-55524761D01*
X138111288Y-55478105D01*
X138115322Y-55469139D01*
X138126354Y-55449580D01*
X138131942Y-55441485D01*
X138131942Y-55441484D01*
X138131944Y-55441482D01*
X138152978Y-55386017D01*
X138155818Y-55379161D01*
X138180157Y-55325085D01*
X138181930Y-55315403D01*
X138187956Y-55293788D01*
X138191448Y-55284582D01*
X138198593Y-55225730D01*
X138199719Y-55218336D01*
X138210404Y-55160033D01*
X138210405Y-55160026D01*
X138206826Y-55100861D01*
X138206600Y-55093374D01*
X138206600Y-54315363D01*
X138226285Y-54248324D01*
X138259477Y-54213788D01*
X138310279Y-54178216D01*
X138387001Y-54124495D01*
X138554095Y-53957401D01*
X138684025Y-53771842D01*
X138738602Y-53728217D01*
X138808100Y-53721023D01*
X138870455Y-53752546D01*
X138887175Y-53771842D01*
X139017101Y-53957396D01*
X139017106Y-53957402D01*
X139184197Y-54124493D01*
X139184203Y-54124498D01*
X139362523Y-54249359D01*
X139406148Y-54303936D01*
X139415400Y-54350934D01*
X139415400Y-55711257D01*
X139395715Y-55778296D01*
X139383553Y-55794226D01*
X139373866Y-55804985D01*
X139279221Y-55968915D01*
X139279218Y-55968922D01*
X139223396Y-56140726D01*
X139220726Y-56148944D01*
X139200940Y-56337200D01*
X139220726Y-56525456D01*
X139220727Y-56525459D01*
X139279218Y-56705477D01*
X139279221Y-56705484D01*
X139373867Y-56869416D01*
X139430457Y-56932265D01*
X139500529Y-57010088D01*
X139653665Y-57121348D01*
X139653670Y-57121351D01*
X139826592Y-57198342D01*
X139826597Y-57198344D01*
X140011754Y-57237700D01*
X140011755Y-57237700D01*
X140201044Y-57237700D01*
X140201046Y-57237700D01*
X140386203Y-57198344D01*
X140559130Y-57121351D01*
X140712271Y-57010088D01*
X140838933Y-56869416D01*
X140933579Y-56705484D01*
X140992074Y-56525456D01*
X141011860Y-56337200D01*
X141001602Y-56239599D01*
X173641076Y-56239599D01*
X173641077Y-56239600D01*
X175663354Y-56239600D01*
X175638034Y-56337391D01*
X175627733Y-56540510D01*
X175658233Y-56739600D01*
X173641077Y-56739600D01*
X173646835Y-56838473D01*
X173646835Y-56838477D01*
X173707514Y-57182602D01*
X173707516Y-57182611D01*
X173807745Y-57517400D01*
X173946155Y-57838270D01*
X173946161Y-57838283D01*
X174120889Y-58140922D01*
X174329568Y-58421227D01*
X174329573Y-58421233D01*
X174569384Y-58675416D01*
X174569394Y-58675426D01*
X174837080Y-58900042D01*
X175129061Y-59092080D01*
X175441339Y-59248914D01*
X175441345Y-59248916D01*
X175769730Y-59368438D01*
X175769733Y-59368439D01*
X176109771Y-59449029D01*
X176381600Y-59480801D01*
X176381600Y-57459121D01*
X176529910Y-57489600D01*
X176682312Y-57489600D01*
X176833937Y-57474181D01*
X176881600Y-57459226D01*
X176881600Y-59480801D01*
X177153427Y-59449029D01*
X177153429Y-59449029D01*
X177493466Y-59368439D01*
X177493469Y-59368438D01*
X177821854Y-59248916D01*
X177821860Y-59248914D01*
X178134138Y-59092080D01*
X178426119Y-58900042D01*
X178693805Y-58675426D01*
X178693815Y-58675416D01*
X178933626Y-58421233D01*
X178933631Y-58421227D01*
X179142310Y-58140922D01*
X179317038Y-57838283D01*
X179317044Y-57838270D01*
X179455454Y-57517400D01*
X179555683Y-57182611D01*
X179555685Y-57182602D01*
X179616364Y-56838477D01*
X179616364Y-56838473D01*
X179622123Y-56739600D01*
X177599846Y-56739600D01*
X177625166Y-56641809D01*
X177635467Y-56438690D01*
X177604967Y-56239600D01*
X179622123Y-56239600D01*
X179622123Y-56239599D01*
X179616364Y-56140726D01*
X179616364Y-56140722D01*
X179555685Y-55796597D01*
X179555683Y-55796588D01*
X179455454Y-55461799D01*
X179317044Y-55140929D01*
X179317038Y-55140916D01*
X179142310Y-54838277D01*
X178933631Y-54557972D01*
X178933626Y-54557966D01*
X178693815Y-54303783D01*
X178693805Y-54303773D01*
X178426119Y-54079157D01*
X178134138Y-53887119D01*
X177821860Y-53730285D01*
X177821854Y-53730283D01*
X177493469Y-53610761D01*
X177493466Y-53610760D01*
X177153429Y-53530170D01*
X176881600Y-53498397D01*
X176881600Y-55520078D01*
X176733290Y-55489600D01*
X176580888Y-55489600D01*
X176429263Y-55505019D01*
X176381600Y-55519973D01*
X176381600Y-53498397D01*
X176109770Y-53530170D01*
X175769733Y-53610760D01*
X175769730Y-53610761D01*
X175441345Y-53730283D01*
X175441339Y-53730285D01*
X175129061Y-53887119D01*
X174837080Y-54079157D01*
X174569394Y-54303773D01*
X174569384Y-54303783D01*
X174329573Y-54557966D01*
X174329568Y-54557972D01*
X174120889Y-54838277D01*
X173946161Y-55140916D01*
X173946155Y-55140929D01*
X173807745Y-55461799D01*
X173707516Y-55796588D01*
X173707514Y-55796597D01*
X173646835Y-56140722D01*
X173646835Y-56140726D01*
X173641076Y-56239599D01*
X141001602Y-56239599D01*
X140992074Y-56148944D01*
X140933579Y-55968916D01*
X140838933Y-55804984D01*
X140831816Y-55797080D01*
X140829247Y-55794226D01*
X140799020Y-55731234D01*
X140797400Y-55711257D01*
X140797400Y-54279792D01*
X140817085Y-54212753D01*
X140850272Y-54178220D01*
X140927001Y-54124495D01*
X141094095Y-53957401D01*
X141224025Y-53771842D01*
X141278602Y-53728217D01*
X141348100Y-53721023D01*
X141410455Y-53752546D01*
X141427175Y-53771842D01*
X141556881Y-53957082D01*
X141557105Y-53957401D01*
X141724199Y-54124495D01*
X141820984Y-54192265D01*
X141917765Y-54260032D01*
X141917767Y-54260033D01*
X141917770Y-54260035D01*
X142131937Y-54359903D01*
X142360192Y-54421063D01*
X142536634Y-54436500D01*
X142595599Y-54441659D01*
X142595600Y-54441659D01*
X142595601Y-54441659D01*
X142654566Y-54436500D01*
X142831008Y-54421063D01*
X143059263Y-54359903D01*
X143273430Y-54260035D01*
X143467001Y-54124495D01*
X143634095Y-53957401D01*
X143764025Y-53771842D01*
X143818602Y-53728217D01*
X143888100Y-53721023D01*
X143950455Y-53752546D01*
X143967175Y-53771842D01*
X144096881Y-53957082D01*
X144097105Y-53957401D01*
X144264199Y-54124495D01*
X144360984Y-54192265D01*
X144457765Y-54260032D01*
X144457767Y-54260033D01*
X144457770Y-54260035D01*
X144671937Y-54359903D01*
X144900192Y-54421063D01*
X145076634Y-54436500D01*
X145135599Y-54441659D01*
X145135600Y-54441659D01*
X145135601Y-54441659D01*
X145194566Y-54436500D01*
X145371008Y-54421063D01*
X145599263Y-54359903D01*
X145813430Y-54260035D01*
X146007001Y-54124495D01*
X146128929Y-54002566D01*
X146190248Y-53969084D01*
X146259940Y-53974068D01*
X146315874Y-54015939D01*
X146332789Y-54046917D01*
X146381802Y-54178328D01*
X146381806Y-54178335D01*
X146468052Y-54293544D01*
X146468055Y-54293547D01*
X146583264Y-54379793D01*
X146583271Y-54379797D01*
X146718117Y-54430091D01*
X146718116Y-54430091D01*
X146725044Y-54430835D01*
X146777727Y-54436500D01*
X148573472Y-54436499D01*
X148633083Y-54430091D01*
X148767931Y-54379796D01*
X148883146Y-54293546D01*
X148969396Y-54178331D01*
X149019691Y-54043483D01*
X149026100Y-53983873D01*
X149026099Y-52188128D01*
X149019691Y-52128517D01*
X149018410Y-52125083D01*
X148969397Y-51993671D01*
X148969393Y-51993664D01*
X148883147Y-51878455D01*
X148883144Y-51878452D01*
X148767935Y-51792206D01*
X148767928Y-51792202D01*
X148633082Y-51741908D01*
X148633083Y-51741908D01*
X148573483Y-51735501D01*
X148573481Y-51735500D01*
X148573473Y-51735500D01*
X148573464Y-51735500D01*
X146777729Y-51735500D01*
X146777723Y-51735501D01*
X146718116Y-51741908D01*
X146583271Y-51792202D01*
X146583264Y-51792206D01*
X146468055Y-51878452D01*
X146468052Y-51878455D01*
X146381806Y-51993664D01*
X146381803Y-51993669D01*
X146332789Y-52125083D01*
X146290917Y-52181016D01*
X146225453Y-52205433D01*
X146157180Y-52190581D01*
X146128926Y-52169430D01*
X146007002Y-52047506D01*
X146006995Y-52047501D01*
X145813434Y-51911967D01*
X145813430Y-51911965D01*
X145813428Y-51911964D01*
X145599263Y-51812097D01*
X145599259Y-51812096D01*
X145599255Y-51812094D01*
X145371013Y-51750938D01*
X145371003Y-51750936D01*
X145135601Y-51730341D01*
X145135599Y-51730341D01*
X144900196Y-51750936D01*
X144900186Y-51750938D01*
X144671944Y-51812094D01*
X144671935Y-51812098D01*
X144457771Y-51911964D01*
X144457769Y-51911965D01*
X144264197Y-52047505D01*
X144097105Y-52214597D01*
X143967175Y-52400158D01*
X143912598Y-52443783D01*
X143843100Y-52450977D01*
X143780745Y-52419454D01*
X143764025Y-52400158D01*
X143634094Y-52214597D01*
X143467002Y-52047506D01*
X143466995Y-52047501D01*
X143273434Y-51911967D01*
X143273430Y-51911965D01*
X143273428Y-51911964D01*
X143059263Y-51812097D01*
X143059259Y-51812096D01*
X143059255Y-51812094D01*
X142831013Y-51750938D01*
X142831003Y-51750936D01*
X142595601Y-51730341D01*
X142595599Y-51730341D01*
X142360196Y-51750936D01*
X142360186Y-51750938D01*
X142131944Y-51812094D01*
X142131935Y-51812098D01*
X141917771Y-51911964D01*
X141917769Y-51911965D01*
X141724197Y-52047505D01*
X141557105Y-52214597D01*
X141427175Y-52400158D01*
X141372598Y-52443783D01*
X141303100Y-52450977D01*
X141240745Y-52419454D01*
X141224025Y-52400158D01*
X141094094Y-52214597D01*
X140927002Y-52047506D01*
X140926995Y-52047501D01*
X140733434Y-51911967D01*
X140733430Y-51911965D01*
X140733428Y-51911964D01*
X140519263Y-51812097D01*
X140519259Y-51812096D01*
X140519255Y-51812094D01*
X140291013Y-51750938D01*
X140291003Y-51750936D01*
X140055601Y-51730341D01*
X140055599Y-51730341D01*
X139820196Y-51750936D01*
X139820186Y-51750938D01*
X139591944Y-51812094D01*
X139591935Y-51812098D01*
X139377771Y-51911964D01*
X139377769Y-51911965D01*
X139184197Y-52047505D01*
X139017105Y-52214597D01*
X138887175Y-52400158D01*
X138832598Y-52443783D01*
X138763100Y-52450977D01*
X138700745Y-52419454D01*
X138684025Y-52400158D01*
X138554094Y-52214597D01*
X138387002Y-52047506D01*
X138386995Y-52047501D01*
X138193434Y-51911967D01*
X138193430Y-51911965D01*
X138193428Y-51911964D01*
X137979263Y-51812097D01*
X137979259Y-51812096D01*
X137979255Y-51812094D01*
X137751013Y-51750938D01*
X137751003Y-51750936D01*
X137515601Y-51730341D01*
X137515599Y-51730341D01*
X137280196Y-51750936D01*
X137280186Y-51750938D01*
X137051944Y-51812094D01*
X137051935Y-51812098D01*
X136837771Y-51911964D01*
X136837769Y-51911965D01*
X136644197Y-52047505D01*
X136477108Y-52214594D01*
X136346869Y-52400595D01*
X136292292Y-52444219D01*
X136222793Y-52451412D01*
X136160439Y-52419890D01*
X136143719Y-52400594D01*
X136013713Y-52214926D01*
X136013708Y-52214920D01*
X135846682Y-52047894D01*
X135653178Y-51912399D01*
X135439092Y-51812570D01*
X135439086Y-51812567D01*
X135225600Y-51755364D01*
X135225600Y-52650498D01*
X135117915Y-52601320D01*
X135011363Y-52586000D01*
X134939837Y-52586000D01*
X134833285Y-52601320D01*
X134725600Y-52650498D01*
X134725600Y-51755364D01*
X134725599Y-51755364D01*
X134512113Y-51812567D01*
X134512107Y-51812570D01*
X134298022Y-51912399D01*
X134298020Y-51912400D01*
X134104526Y-52047886D01*
X134104520Y-52047891D01*
X133937491Y-52214920D01*
X133937486Y-52214926D01*
X133802000Y-52408420D01*
X133801999Y-52408422D01*
X133702170Y-52622507D01*
X133702167Y-52622513D01*
X133644964Y-52835999D01*
X133644964Y-52836000D01*
X134541914Y-52836000D01*
X134516107Y-52876156D01*
X134475600Y-53014111D01*
X134475600Y-53157889D01*
X134516107Y-53295844D01*
X134541914Y-53336000D01*
X133644964Y-53336000D01*
X102456100Y-53336000D01*
X102456100Y-51551500D01*
X102475785Y-51484461D01*
X102528589Y-51438706D01*
X102580100Y-51427500D01*
X180020300Y-51427500D01*
X180087339Y-51447185D01*
G37*
G04 #@! TD.AperFunction*
M02*
