%TF.GenerationSoftware,KiCad,Pcbnew,7.0.11-2.fc39*%
%TF.CreationDate,2024-06-06T09:07:51+02:00*%
%TF.ProjectId,four_relays_extension,666f7572-5f72-4656-9c61-79735f657874,1.0*%
%TF.SameCoordinates,Original*%
%TF.FileFunction,Drillmap*%
%TF.FilePolarity,Positive*%
%FSLAX45Y45*%
G04 Gerber Fmt 4.5, Leading zero omitted, Abs format (unit mm)*
G04 Created by KiCad (PCBNEW 7.0.11-2.fc39) date 2024-06-06 09:07:51*
%MOMM*%
%LPD*%
G01*
G04 APERTURE LIST*
%ADD10C,0.100000*%
%ADD11C,0.200000*%
G04 APERTURE END LIST*
D10*
X10195560Y-5092700D02*
X18064480Y-5092700D01*
X18064480Y-10154920D01*
X10195560Y-10154920D01*
X10195560Y-5092700D01*
D11*
X10451337Y-10471404D02*
X10451337Y-10271404D01*
X10451337Y-10271404D02*
X10498956Y-10271404D01*
X10498956Y-10271404D02*
X10527527Y-10280928D01*
X10527527Y-10280928D02*
X10546575Y-10299975D01*
X10546575Y-10299975D02*
X10556099Y-10319023D01*
X10556099Y-10319023D02*
X10565623Y-10357118D01*
X10565623Y-10357118D02*
X10565623Y-10385690D01*
X10565623Y-10385690D02*
X10556099Y-10423785D01*
X10556099Y-10423785D02*
X10546575Y-10442832D01*
X10546575Y-10442832D02*
X10527527Y-10461880D01*
X10527527Y-10461880D02*
X10498956Y-10471404D01*
X10498956Y-10471404D02*
X10451337Y-10471404D01*
X10651337Y-10471404D02*
X10651337Y-10338070D01*
X10651337Y-10376166D02*
X10660861Y-10357118D01*
X10660861Y-10357118D02*
X10670384Y-10347594D01*
X10670384Y-10347594D02*
X10689432Y-10338070D01*
X10689432Y-10338070D02*
X10708480Y-10338070D01*
X10775146Y-10471404D02*
X10775146Y-10338070D01*
X10775146Y-10271404D02*
X10765623Y-10280928D01*
X10765623Y-10280928D02*
X10775146Y-10290451D01*
X10775146Y-10290451D02*
X10784670Y-10280928D01*
X10784670Y-10280928D02*
X10775146Y-10271404D01*
X10775146Y-10271404D02*
X10775146Y-10290451D01*
X10898956Y-10471404D02*
X10879908Y-10461880D01*
X10879908Y-10461880D02*
X10870384Y-10442832D01*
X10870384Y-10442832D02*
X10870384Y-10271404D01*
X11003718Y-10471404D02*
X10984670Y-10461880D01*
X10984670Y-10461880D02*
X10975146Y-10442832D01*
X10975146Y-10442832D02*
X10975146Y-10271404D01*
X11232289Y-10471404D02*
X11232289Y-10271404D01*
X11232289Y-10271404D02*
X11298956Y-10414261D01*
X11298956Y-10414261D02*
X11365622Y-10271404D01*
X11365622Y-10271404D02*
X11365622Y-10471404D01*
X11546575Y-10471404D02*
X11546575Y-10366642D01*
X11546575Y-10366642D02*
X11537051Y-10347594D01*
X11537051Y-10347594D02*
X11518003Y-10338070D01*
X11518003Y-10338070D02*
X11479908Y-10338070D01*
X11479908Y-10338070D02*
X11460861Y-10347594D01*
X11546575Y-10461880D02*
X11527527Y-10471404D01*
X11527527Y-10471404D02*
X11479908Y-10471404D01*
X11479908Y-10471404D02*
X11460861Y-10461880D01*
X11460861Y-10461880D02*
X11451337Y-10442832D01*
X11451337Y-10442832D02*
X11451337Y-10423785D01*
X11451337Y-10423785D02*
X11460861Y-10404737D01*
X11460861Y-10404737D02*
X11479908Y-10395213D01*
X11479908Y-10395213D02*
X11527527Y-10395213D01*
X11527527Y-10395213D02*
X11546575Y-10385690D01*
X11641813Y-10338070D02*
X11641813Y-10538070D01*
X11641813Y-10347594D02*
X11660861Y-10338070D01*
X11660861Y-10338070D02*
X11698956Y-10338070D01*
X11698956Y-10338070D02*
X11718003Y-10347594D01*
X11718003Y-10347594D02*
X11727527Y-10357118D01*
X11727527Y-10357118D02*
X11737051Y-10376166D01*
X11737051Y-10376166D02*
X11737051Y-10433309D01*
X11737051Y-10433309D02*
X11727527Y-10452356D01*
X11727527Y-10452356D02*
X11718003Y-10461880D01*
X11718003Y-10461880D02*
X11698956Y-10471404D01*
X11698956Y-10471404D02*
X11660861Y-10471404D01*
X11660861Y-10471404D02*
X11641813Y-10461880D01*
X11822765Y-10452356D02*
X11832289Y-10461880D01*
X11832289Y-10461880D02*
X11822765Y-10471404D01*
X11822765Y-10471404D02*
X11813242Y-10461880D01*
X11813242Y-10461880D02*
X11822765Y-10452356D01*
X11822765Y-10452356D02*
X11822765Y-10471404D01*
X11822765Y-10347594D02*
X11832289Y-10357118D01*
X11832289Y-10357118D02*
X11822765Y-10366642D01*
X11822765Y-10366642D02*
X11813242Y-10357118D01*
X11813242Y-10357118D02*
X11822765Y-10347594D01*
X11822765Y-10347594D02*
X11822765Y-10366642D01*
M02*
