G04 #@! TF.GenerationSoftware,KiCad,Pcbnew,7.0.11-2.fc39*
G04 #@! TF.CreationDate,2024-06-06T09:07:33+02:00*
G04 #@! TF.ProjectId,four_relays_extension,666f7572-5f72-4656-9c61-79735f657874,1.0*
G04 #@! TF.SameCoordinates,Original*
G04 #@! TF.FileFunction,Legend,Bot*
G04 #@! TF.FilePolarity,Positive*
%FSLAX46Y46*%
G04 Gerber Fmt 4.6, Leading zero omitted, Abs format (unit mm)*
G04 Created by KiCad (PCBNEW 7.0.11-2.fc39) date 2024-06-06 09:07:33*
%MOMM*%
%LPD*%
G01*
G04 APERTURE LIST*
%ADD10C,0.120000*%
%ADD11C,3.000000*%
%ADD12C,2.500000*%
%ADD13O,5.000000X5.000000*%
%ADD14R,1.700000X1.700000*%
%ADD15O,1.700000X1.700000*%
%ADD16O,0.100000X0.100000*%
%ADD17R,1.000000X1.000000*%
G04 APERTURE END LIST*
D10*
X116256200Y-79031200D02*
X113106200Y-79031200D01*
X116256200Y-77331200D02*
X116256200Y-79031200D01*
X116256200Y-77331200D02*
X113106200Y-77331200D01*
X154929600Y-79031200D02*
X151779600Y-79031200D01*
X154929600Y-77331200D02*
X154929600Y-79031200D01*
X154929600Y-77331200D02*
X151779600Y-77331200D01*
X172862000Y-79031200D02*
X169712000Y-79031200D01*
X172862000Y-77331200D02*
X172862000Y-79031200D01*
X172862000Y-77331200D02*
X169712000Y-77331200D01*
X136794000Y-79031200D02*
X133644000Y-79031200D01*
X136794000Y-77331200D02*
X136794000Y-79031200D01*
X136794000Y-77331200D02*
X133644000Y-77331200D01*
%LPC*%
D11*
X150322000Y-74250000D03*
D12*
X144272000Y-76200000D03*
D11*
X144272000Y-88400000D03*
X156322000Y-88450000D03*
D12*
X156272000Y-76200000D03*
D13*
X176631600Y-56489600D03*
D14*
X134772400Y-98679000D03*
D15*
X132232400Y-98679000D03*
X129692400Y-98679000D03*
D11*
X114381000Y-74319000D03*
D12*
X108331000Y-76269000D03*
D11*
X108331000Y-88469000D03*
X120381000Y-88519000D03*
D12*
X120331000Y-76269000D03*
D11*
X168254400Y-74250000D03*
D12*
X162204400Y-76200000D03*
D11*
X162204400Y-88400000D03*
X174254400Y-88450000D03*
D12*
X174204400Y-76200000D03*
D16*
X105968800Y-98501200D03*
D14*
X147675600Y-53086000D03*
D15*
X145135600Y-53086000D03*
X142595600Y-53086000D03*
X140055600Y-53086000D03*
X137515600Y-53086000D03*
X134975600Y-53086000D03*
D11*
X132338800Y-74242000D03*
D12*
X126288800Y-76192000D03*
D11*
X126288800Y-88392000D03*
X138338800Y-88442000D03*
D12*
X138288800Y-76192000D03*
D16*
X176631600Y-98602800D03*
D14*
X116840000Y-98552000D03*
D15*
X114300000Y-98552000D03*
X111760000Y-98552000D03*
D14*
X170789600Y-98602800D03*
D15*
X168249600Y-98602800D03*
X165709600Y-98602800D03*
D13*
X105968800Y-56489600D03*
D14*
X152806400Y-98602800D03*
D15*
X150266400Y-98602800D03*
X147726400Y-98602800D03*
D17*
X115606200Y-78181200D03*
X113106200Y-78181200D03*
X154279600Y-78181200D03*
X151779600Y-78181200D03*
X172212000Y-78181200D03*
X169712000Y-78181200D03*
X136144000Y-78181200D03*
X133644000Y-78181200D03*
%LPD*%
M02*
