G04 #@! TF.GenerationSoftware,KiCad,Pcbnew,7.0.11-2.fc39*
G04 #@! TF.CreationDate,2024-06-06T09:07:33+02:00*
G04 #@! TF.ProjectId,four_relays_extension,666f7572-5f72-4656-9c61-79735f657874,1.0*
G04 #@! TF.SameCoordinates,Original*
G04 #@! TF.FileFunction,Copper,L1,Top*
G04 #@! TF.FilePolarity,Positive*
%FSLAX46Y46*%
G04 Gerber Fmt 4.6, Leading zero omitted, Abs format (unit mm)*
G04 Created by KiCad (PCBNEW 7.0.11-2.fc39) date 2024-06-06 09:07:33*
%MOMM*%
%LPD*%
G01*
G04 APERTURE LIST*
G04 Aperture macros list*
%AMRoundRect*
0 Rectangle with rounded corners*
0 $1 Rounding radius*
0 $2 $3 $4 $5 $6 $7 $8 $9 X,Y pos of 4 corners*
0 Add a 4 corners polygon primitive as box body*
4,1,4,$2,$3,$4,$5,$6,$7,$8,$9,$2,$3,0*
0 Add four circle primitives for the rounded corners*
1,1,$1+$1,$2,$3*
1,1,$1+$1,$4,$5*
1,1,$1+$1,$6,$7*
1,1,$1+$1,$8,$9*
0 Add four rect primitives between the rounded corners*
20,1,$1+$1,$2,$3,$4,$5,0*
20,1,$1+$1,$4,$5,$6,$7,0*
20,1,$1+$1,$6,$7,$8,$9,0*
20,1,$1+$1,$8,$9,$2,$3,0*%
G04 Aperture macros list end*
G04 #@! TA.AperFunction,SMDPad,CuDef*
%ADD10RoundRect,0.237500X-0.237500X0.250000X-0.237500X-0.250000X0.237500X-0.250000X0.237500X0.250000X0*%
G04 #@! TD*
G04 #@! TA.AperFunction,SMDPad,CuDef*
%ADD11RoundRect,0.237500X0.250000X0.237500X-0.250000X0.237500X-0.250000X-0.237500X0.250000X-0.237500X0*%
G04 #@! TD*
G04 #@! TA.AperFunction,ComponentPad*
%ADD12C,3.000000*%
G04 #@! TD*
G04 #@! TA.AperFunction,ComponentPad*
%ADD13C,2.500000*%
G04 #@! TD*
G04 #@! TA.AperFunction,ComponentPad*
%ADD14O,5.000000X5.000000*%
G04 #@! TD*
G04 #@! TA.AperFunction,ComponentPad*
%ADD15R,1.700000X1.700000*%
G04 #@! TD*
G04 #@! TA.AperFunction,ComponentPad*
%ADD16O,1.700000X1.700000*%
G04 #@! TD*
G04 #@! TA.AperFunction,SMDPad,CuDef*
%ADD17RoundRect,0.150000X-0.825000X-0.150000X0.825000X-0.150000X0.825000X0.150000X-0.825000X0.150000X0*%
G04 #@! TD*
G04 #@! TA.AperFunction,SMDPad,CuDef*
%ADD18RoundRect,0.237500X-0.300000X-0.237500X0.300000X-0.237500X0.300000X0.237500X-0.300000X0.237500X0*%
G04 #@! TD*
G04 #@! TA.AperFunction,SMDPad,CuDef*
%ADD19R,0.800000X0.900000*%
G04 #@! TD*
G04 #@! TA.AperFunction,SMDPad,CuDef*
%ADD20RoundRect,0.237500X0.300000X0.237500X-0.300000X0.237500X-0.300000X-0.237500X0.300000X-0.237500X0*%
G04 #@! TD*
G04 #@! TA.AperFunction,ComponentPad*
%ADD21O,0.100000X0.100000*%
G04 #@! TD*
G04 #@! TA.AperFunction,SMDPad,CuDef*
%ADD22RoundRect,0.125000X-0.825000X-0.125000X0.825000X-0.125000X0.825000X0.125000X-0.825000X0.125000X0*%
G04 #@! TD*
G04 #@! TA.AperFunction,ViaPad*
%ADD23C,0.800000*%
G04 #@! TD*
G04 #@! TA.AperFunction,ViaPad*
%ADD24C,0.600000*%
G04 #@! TD*
G04 #@! TA.AperFunction,Conductor*
%ADD25C,0.381000*%
G04 #@! TD*
G04 #@! TA.AperFunction,Conductor*
%ADD26C,0.762000*%
G04 #@! TD*
G04 #@! TA.AperFunction,Conductor*
%ADD27C,1.524000*%
G04 #@! TD*
G04 APERTURE END LIST*
D10*
X115011200Y-67311900D03*
X115011200Y-69136900D03*
D11*
X145133700Y-57912000D03*
X143308700Y-57912000D03*
X145186400Y-67056000D03*
X143361400Y-67056000D03*
X109169200Y-67945000D03*
X107344200Y-67945000D03*
D12*
X150322000Y-74250000D03*
D13*
X144272000Y-76200000D03*
D12*
X144272000Y-88400000D03*
X156322000Y-88450000D03*
D13*
X156272000Y-76200000D03*
D14*
X176631600Y-56489600D03*
D15*
X134772400Y-98679000D03*
D16*
X132232400Y-98679000D03*
X129692400Y-98679000D03*
D17*
X107800600Y-62179200D03*
X107800600Y-63449200D03*
X107800600Y-64719200D03*
X107800600Y-65989200D03*
X112750600Y-65989200D03*
X112750600Y-64719200D03*
X112750600Y-63449200D03*
X112750600Y-62179200D03*
D12*
X114381000Y-74319000D03*
D13*
X108331000Y-76269000D03*
D12*
X108331000Y-88469000D03*
X120381000Y-88519000D03*
D13*
X120331000Y-76269000D03*
D18*
X124055800Y-62687200D03*
X125780800Y-62687200D03*
D12*
X168254400Y-74250000D03*
D13*
X162204400Y-76200000D03*
D12*
X162204400Y-88400000D03*
X174254400Y-88450000D03*
D13*
X174204400Y-76200000D03*
D19*
X109230200Y-69628000D03*
X107330200Y-69628000D03*
X108280200Y-71628000D03*
D20*
X112748400Y-60502800D03*
X111023400Y-60502800D03*
D21*
X105968800Y-98501200D03*
D19*
X145222000Y-68612000D03*
X143322000Y-68612000D03*
X144272000Y-70612000D03*
D15*
X147675600Y-53086000D03*
D16*
X145135600Y-53086000D03*
X142595600Y-53086000D03*
X140055600Y-53086000D03*
X137515600Y-53086000D03*
X134975600Y-53086000D03*
D12*
X132338800Y-74242000D03*
D13*
X126288800Y-76192000D03*
D12*
X126288800Y-88392000D03*
X138338800Y-88442000D03*
D13*
X138288800Y-76192000D03*
D21*
X176631600Y-98602800D03*
D22*
X117129800Y-64457200D03*
X117129800Y-65107200D03*
X117129800Y-65757200D03*
X117129800Y-66407200D03*
X117129800Y-67057200D03*
X117129800Y-67707200D03*
X117129800Y-68357200D03*
X117129800Y-69007200D03*
X117129800Y-69657200D03*
X117129800Y-70307200D03*
X124129800Y-70307200D03*
X124129800Y-69657200D03*
X124129800Y-69007200D03*
X124129800Y-68357200D03*
X124129800Y-67707200D03*
X124129800Y-67057200D03*
X124129800Y-66407200D03*
X124129800Y-65757200D03*
X124129800Y-65107200D03*
X124129800Y-64457200D03*
D15*
X116840000Y-98552000D03*
D16*
X114300000Y-98552000D03*
X111760000Y-98552000D03*
D11*
X129794000Y-66929000D03*
X127969000Y-66929000D03*
D15*
X170789600Y-98602800D03*
D16*
X168249600Y-98602800D03*
X165709600Y-98602800D03*
D19*
X129855000Y-68612000D03*
X127955000Y-68612000D03*
X128905000Y-70612000D03*
D14*
X105968800Y-56489600D03*
D15*
X152806400Y-98602800D03*
D16*
X150266400Y-98602800D03*
X147726400Y-98602800D03*
D19*
X163154400Y-68612000D03*
X161254400Y-68612000D03*
X162204400Y-70612000D03*
D11*
X145131800Y-56337200D03*
X143306800Y-56337200D03*
X163118800Y-67056000D03*
X161293800Y-67056000D03*
D23*
X127076200Y-62738000D03*
D24*
X147523200Y-63957200D03*
X120853200Y-52425600D03*
D23*
X118846600Y-69646800D03*
D24*
X129743200Y-58216800D03*
D23*
X105791000Y-67970400D03*
D24*
X147523200Y-69900800D03*
X137795000Y-57912000D03*
D23*
X119253000Y-66395600D03*
D24*
X129743200Y-52425600D03*
D23*
X127939800Y-65735200D03*
D24*
X105130600Y-69900800D03*
X156413200Y-69900800D03*
X174193200Y-52425600D03*
X165303200Y-69900800D03*
X177901600Y-69900800D03*
X165303200Y-63957200D03*
X138633200Y-69900800D03*
X111963200Y-52425600D03*
X131140200Y-69900800D03*
X156413200Y-52425600D03*
X138633200Y-63906400D03*
X105130600Y-63855600D03*
X156413200Y-63957200D03*
X111963200Y-57912000D03*
X165303200Y-52425600D03*
D23*
X140106400Y-56337200D03*
X135382000Y-57251600D03*
X114477800Y-60502800D03*
X122504200Y-62687200D03*
X113614200Y-68529200D03*
D25*
X126796800Y-65481200D02*
X127355600Y-64922400D01*
X124129800Y-69007200D02*
X125785400Y-69007200D01*
D26*
X129794000Y-66929000D02*
X129794000Y-68551000D01*
D25*
X126796800Y-67995800D02*
X126796800Y-65481200D01*
X129235200Y-64922400D02*
X129794000Y-65481200D01*
X127355600Y-64922400D02*
X129235200Y-64922400D01*
D26*
X129794000Y-68551000D02*
X129855000Y-68612000D01*
D25*
X125785400Y-69007200D02*
X126796800Y-67995800D01*
X129794000Y-65481200D02*
X129794000Y-66929000D01*
D26*
X107344200Y-69614000D02*
X107330200Y-69628000D01*
X127969000Y-68598000D02*
X127955000Y-68612000D01*
D25*
X105816400Y-67945000D02*
X105791000Y-67970400D01*
X118591400Y-67057200D02*
X119253000Y-66395600D01*
X117129800Y-67057200D02*
X118591400Y-67057200D01*
X125780800Y-62687200D02*
X127025400Y-62687200D01*
D26*
X107344200Y-67945000D02*
X105816400Y-67945000D01*
D25*
X127025400Y-62687200D02*
X127076200Y-62738000D01*
X107344200Y-66445600D02*
X107800600Y-65989200D01*
D26*
X127969000Y-66929000D02*
X127969000Y-68598000D01*
X127969000Y-65764400D02*
X127939800Y-65735200D01*
X127969000Y-66929000D02*
X127969000Y-65764400D01*
D25*
X117129800Y-69657200D02*
X118836200Y-69657200D01*
D26*
X107344200Y-67945000D02*
X107344200Y-69614000D01*
D25*
X118836200Y-69657200D02*
X118846600Y-69646800D01*
X107344200Y-67945000D02*
X107344200Y-66445600D01*
D26*
X128905000Y-71043800D02*
X128905000Y-70612000D01*
X126288800Y-76192000D02*
X126288800Y-73660000D01*
X126288800Y-73660000D02*
X128905000Y-71043800D01*
D25*
X109169200Y-69567000D02*
X109230200Y-69628000D01*
X112210600Y-69628000D02*
X114143700Y-71561100D01*
X109169200Y-67945000D02*
X109169200Y-69567000D01*
X126161800Y-71120000D02*
X126161800Y-70104000D01*
X125715000Y-69657200D02*
X124129800Y-69657200D01*
X109230200Y-69628000D02*
X112210600Y-69628000D01*
X115697000Y-71548600D02*
X125733200Y-71548600D01*
X126161800Y-70104000D02*
X125715000Y-69657200D01*
X115684500Y-71561100D02*
X115697000Y-71548600D01*
X125733200Y-71548600D02*
X126161800Y-71120000D01*
X114143700Y-71561100D02*
X115684500Y-71561100D01*
D26*
X108280200Y-76218200D02*
X108331000Y-76269000D01*
X108280200Y-71628000D02*
X108280200Y-76218200D01*
D25*
X119202200Y-58115200D02*
X121945400Y-55372000D01*
X119202200Y-63652400D02*
X119202200Y-58115200D01*
X121945400Y-55372000D02*
X142595600Y-55372000D01*
X142595600Y-54457600D02*
X142595600Y-55372000D01*
X118397400Y-64457200D02*
X119202200Y-63652400D01*
X114731800Y-64457200D02*
X117129800Y-64457200D01*
X114469800Y-64719200D02*
X114731800Y-64457200D01*
X117129800Y-64457200D02*
X118397400Y-64457200D01*
X142595600Y-55372000D02*
X142595600Y-55676800D01*
X112750600Y-64719200D02*
X114469800Y-64719200D01*
X142595600Y-54457600D02*
X142595600Y-53086000D01*
X143306800Y-56337200D02*
X142595600Y-55626000D01*
X115004200Y-65107200D02*
X114122200Y-65989200D01*
X140106400Y-57251600D02*
X140106400Y-56337200D01*
X140766800Y-57912000D02*
X140106400Y-57251600D01*
X122097800Y-56337200D02*
X136499600Y-56337200D01*
X119783200Y-63893058D02*
X119783200Y-58651800D01*
X117129800Y-65107200D02*
X115004200Y-65107200D01*
X143308700Y-57912000D02*
X140766800Y-57912000D01*
X117129800Y-65107200D02*
X118569058Y-65107200D01*
X136499600Y-56337200D02*
X140106400Y-56337200D01*
X121551700Y-56883300D02*
X122097800Y-56337200D01*
X119783200Y-58651800D02*
X121551700Y-56883300D01*
X118569058Y-65107200D02*
X119783200Y-63893058D01*
X114122200Y-65989200D02*
X112750600Y-65989200D01*
X114970800Y-66116200D02*
X115329800Y-65757200D01*
X114970800Y-67244200D02*
X115433800Y-67707200D01*
X115329800Y-65757200D02*
X117129800Y-65757200D01*
X114970800Y-66116200D02*
X114970800Y-67244200D01*
X115433800Y-67707200D02*
X117129800Y-67707200D01*
X120364200Y-66805290D02*
X120364200Y-62534800D01*
X135371900Y-57241500D02*
X135382000Y-57251600D01*
X120364200Y-59239200D02*
X121450100Y-58153300D01*
X120364200Y-62534800D02*
X120364200Y-59239200D01*
X121450100Y-58153300D02*
X122361900Y-57241500D01*
X118162290Y-69007200D02*
X120364200Y-66805290D01*
X117129800Y-69007200D02*
X118162290Y-69007200D01*
X122361900Y-57241500D02*
X135371900Y-57241500D01*
X125091580Y-67707200D02*
X125656200Y-67142580D01*
D26*
X163118800Y-68576400D02*
X163154400Y-68612000D01*
X163118800Y-67056000D02*
X163118800Y-68576400D01*
D25*
X124129800Y-67707200D02*
X125091580Y-67707200D01*
X134546200Y-65001000D02*
X162435400Y-65001000D01*
X163118800Y-65684400D02*
X163118800Y-67056000D01*
X126915706Y-63860400D02*
X133405600Y-63860400D01*
X125656200Y-67142580D02*
X125656200Y-65119905D01*
X162435400Y-65001000D02*
X163118800Y-65684400D01*
X125656200Y-65119905D02*
X126915706Y-63860400D01*
X133405600Y-63860400D02*
X134546200Y-65001000D01*
D26*
X162204400Y-70612000D02*
X162204400Y-76200000D01*
D25*
X121183400Y-70967600D02*
X114427000Y-70967600D01*
X110871000Y-64160400D02*
X111582200Y-63449200D01*
X114427000Y-70967600D02*
X113334800Y-69875400D01*
X122097800Y-70053200D02*
X121183400Y-70967600D01*
X122097800Y-65938400D02*
X122097800Y-70053200D01*
X114439500Y-70980100D02*
X113334800Y-69875400D01*
X124129800Y-65107200D02*
X122929000Y-65107200D01*
X113334800Y-69875400D02*
X110871000Y-67411600D01*
X111582200Y-63449200D02*
X112750600Y-63449200D01*
X110871000Y-67411600D02*
X110871000Y-64160400D01*
X122929000Y-65107200D02*
X122097800Y-65938400D01*
D26*
X145131800Y-58009800D02*
X145135600Y-58013600D01*
D25*
X143916400Y-59232800D02*
X145135600Y-58013600D01*
X114970800Y-69136900D02*
X114221900Y-69136900D01*
X124055800Y-62687200D02*
X124055800Y-64383200D01*
D26*
X145135600Y-56435000D02*
X145131800Y-56438800D01*
D25*
X112748400Y-62177000D02*
X112750600Y-62179200D01*
D26*
X145135600Y-53086000D02*
X145135600Y-56435000D01*
D25*
X126849800Y-59232800D02*
X143916400Y-59232800D01*
D26*
X145131800Y-56438800D02*
X145131800Y-58009800D01*
D25*
X126849800Y-59232800D02*
X124055800Y-62026800D01*
X124055800Y-62026800D02*
X124055800Y-62687200D01*
X124055800Y-64383200D02*
X124129800Y-64457200D01*
X124055800Y-62687200D02*
X122504200Y-62687200D01*
X114221900Y-69136900D02*
X113614200Y-68529200D01*
X112748400Y-60502800D02*
X112748400Y-62177000D01*
X112748400Y-60502800D02*
X114477800Y-60502800D01*
D27*
X114381000Y-74319000D02*
X114381000Y-98471000D01*
X114381000Y-98471000D02*
X114300000Y-98552000D01*
X108331000Y-92075000D02*
X111760000Y-95504000D01*
X111760000Y-95504000D02*
X111760000Y-98552000D01*
X108331000Y-88469000D02*
X108331000Y-92075000D01*
X120381000Y-88519000D02*
X120381000Y-97170000D01*
X120381000Y-97170000D02*
X118999000Y-98552000D01*
X118999000Y-98552000D02*
X116840000Y-98552000D01*
X168859200Y-57302400D02*
X149301200Y-57302400D01*
X174204400Y-76200000D02*
X174204400Y-62647600D01*
X174204400Y-62647600D02*
X168859200Y-57302400D01*
X147675600Y-55676800D02*
X147675600Y-53086000D01*
X149301200Y-57302400D02*
X147675600Y-55676800D01*
X132338800Y-98572600D02*
X132232400Y-98679000D01*
X132338800Y-74242000D02*
X132338800Y-98572600D01*
X127736600Y-98628200D02*
X126339600Y-97231200D01*
X126339600Y-97231200D02*
X126339600Y-88341200D01*
X129880600Y-98628200D02*
X127736600Y-98628200D01*
X138338800Y-88442000D02*
X138338800Y-97119200D01*
X138338800Y-97119200D02*
X136779000Y-98679000D01*
X136779000Y-98679000D02*
X134772400Y-98679000D01*
D25*
X145186400Y-66192400D02*
X144526000Y-65532000D01*
D26*
X145186400Y-67056000D02*
X145186400Y-68576400D01*
D25*
X126187200Y-67767200D02*
X126187200Y-65339853D01*
X134213600Y-65532000D02*
X133073000Y-64391400D01*
X144526000Y-65532000D02*
X134213600Y-65532000D01*
X125597200Y-68357200D02*
X126187200Y-67767200D01*
X126187200Y-65339853D02*
X127135653Y-64391400D01*
D26*
X145186400Y-68576400D02*
X145222000Y-68612000D01*
D25*
X133073000Y-64391400D02*
X130279000Y-64391400D01*
X127135653Y-64391400D02*
X130279000Y-64391400D01*
X145186400Y-67056000D02*
X145186400Y-66192400D01*
X124129800Y-68357200D02*
X125597200Y-68357200D01*
D26*
X144272000Y-70612000D02*
X144272000Y-76200000D01*
D27*
X168254400Y-98598000D02*
X168249600Y-98602800D01*
X168254400Y-74250000D02*
X168254400Y-98598000D01*
X163728400Y-98602800D02*
X165709600Y-98602800D01*
X162204400Y-88400000D02*
X162204400Y-97078800D01*
X162204400Y-97078800D02*
X163728400Y-98602800D01*
X170789600Y-95046800D02*
X174254400Y-91582000D01*
X170789600Y-98602800D02*
X170789600Y-95046800D01*
X174254400Y-91582000D02*
X174254400Y-88450000D01*
X150322000Y-98547200D02*
X150266400Y-98602800D01*
X150322000Y-74250000D02*
X150322000Y-98547200D01*
X144272000Y-97180400D02*
X145694400Y-98602800D01*
X145694400Y-98602800D02*
X147726400Y-98602800D01*
X144272000Y-88400000D02*
X144272000Y-97180400D01*
X156322000Y-97068400D02*
X154787600Y-98602800D01*
X156322000Y-88450000D02*
X156322000Y-97068400D01*
X154787600Y-98602800D02*
X152806400Y-98602800D01*
G04 #@! TA.AperFunction,Conductor*
G36*
X180087339Y-51447185D02*
G01*
X180133094Y-51499989D01*
X180144300Y-51551500D01*
X180144300Y-72215200D01*
X180124615Y-72282239D01*
X180071811Y-72327994D01*
X180020300Y-72339200D01*
X175590900Y-72339200D01*
X175523861Y-72319515D01*
X175478106Y-72266711D01*
X175466900Y-72215200D01*
X175466900Y-62725462D01*
X175467680Y-62711577D01*
X175467968Y-62709020D01*
X175471684Y-62676042D01*
X175467181Y-62609256D01*
X175466900Y-62600914D01*
X175466900Y-62590906D01*
X175466900Y-62590901D01*
X175463205Y-62549855D01*
X175462991Y-62547122D01*
X175456397Y-62449308D01*
X175455296Y-62444939D01*
X175452036Y-62425747D01*
X175451632Y-62421262D01*
X175425538Y-62326711D01*
X175424839Y-62324066D01*
X175400869Y-62228937D01*
X175399008Y-62224840D01*
X175392373Y-62206540D01*
X175391175Y-62202201D01*
X175391173Y-62202194D01*
X175359247Y-62135899D01*
X175348607Y-62113806D01*
X175347456Y-62111346D01*
X175324779Y-62061420D01*
X175306887Y-62022028D01*
X175304323Y-62018328D01*
X175294525Y-62001503D01*
X175292572Y-61997447D01*
X175292568Y-61997441D01*
X175234902Y-61918070D01*
X175233292Y-61915801D01*
X175177467Y-61835223D01*
X175174286Y-61832042D01*
X175161645Y-61817241D01*
X175158998Y-61813598D01*
X175158996Y-61813595D01*
X175088040Y-61745754D01*
X175086096Y-61743852D01*
X169806981Y-56464736D01*
X169797714Y-56454367D01*
X169775416Y-56426406D01*
X169725008Y-56382366D01*
X169718911Y-56376666D01*
X169711833Y-56369588D01*
X169711830Y-56369585D01*
X169693594Y-56354360D01*
X169680215Y-56343190D01*
X169678102Y-56341385D01*
X169604279Y-56276888D01*
X169600412Y-56274578D01*
X169584548Y-56263323D01*
X169581080Y-56260428D01*
X169581078Y-56260426D01*
X169581077Y-56260426D01*
X169544372Y-56239599D01*
X173641076Y-56239599D01*
X173641077Y-56239600D01*
X175663354Y-56239600D01*
X175638034Y-56337391D01*
X175627733Y-56540510D01*
X175658233Y-56739600D01*
X173641077Y-56739600D01*
X173646835Y-56838473D01*
X173646835Y-56838477D01*
X173707514Y-57182602D01*
X173707516Y-57182611D01*
X173807745Y-57517400D01*
X173946155Y-57838270D01*
X173946161Y-57838283D01*
X174120889Y-58140922D01*
X174329568Y-58421227D01*
X174329573Y-58421233D01*
X174569384Y-58675416D01*
X174569394Y-58675426D01*
X174837080Y-58900042D01*
X175129061Y-59092080D01*
X175441339Y-59248914D01*
X175441345Y-59248916D01*
X175769730Y-59368438D01*
X175769733Y-59368439D01*
X176109771Y-59449029D01*
X176381600Y-59480801D01*
X176381600Y-57459121D01*
X176529910Y-57489600D01*
X176682312Y-57489600D01*
X176833937Y-57474181D01*
X176881600Y-57459226D01*
X176881600Y-59480801D01*
X177153427Y-59449029D01*
X177153429Y-59449029D01*
X177493466Y-59368439D01*
X177493469Y-59368438D01*
X177821854Y-59248916D01*
X177821860Y-59248914D01*
X178134138Y-59092080D01*
X178426119Y-58900042D01*
X178693805Y-58675426D01*
X178693815Y-58675416D01*
X178933626Y-58421233D01*
X178933631Y-58421227D01*
X179142310Y-58140922D01*
X179317038Y-57838283D01*
X179317044Y-57838270D01*
X179455454Y-57517400D01*
X179555683Y-57182611D01*
X179555685Y-57182602D01*
X179616364Y-56838477D01*
X179616364Y-56838473D01*
X179622123Y-56739600D01*
X177599846Y-56739600D01*
X177625166Y-56641809D01*
X177635467Y-56438690D01*
X177604967Y-56239600D01*
X179622123Y-56239600D01*
X179622123Y-56239599D01*
X179616364Y-56140726D01*
X179616364Y-56140722D01*
X179555685Y-55796597D01*
X179555683Y-55796588D01*
X179455454Y-55461799D01*
X179317044Y-55140929D01*
X179317038Y-55140916D01*
X179142310Y-54838277D01*
X178933631Y-54557972D01*
X178933626Y-54557966D01*
X178693815Y-54303783D01*
X178693805Y-54303773D01*
X178426119Y-54079157D01*
X178134138Y-53887119D01*
X177821860Y-53730285D01*
X177821854Y-53730283D01*
X177493469Y-53610761D01*
X177493466Y-53610760D01*
X177153429Y-53530170D01*
X176881600Y-53498397D01*
X176881600Y-55520078D01*
X176733290Y-55489600D01*
X176580888Y-55489600D01*
X176429263Y-55505019D01*
X176381600Y-55519973D01*
X176381600Y-53498397D01*
X176109770Y-53530170D01*
X175769733Y-53610760D01*
X175769730Y-53610761D01*
X175441345Y-53730283D01*
X175441339Y-53730285D01*
X175129061Y-53887119D01*
X174837080Y-54079157D01*
X174569394Y-54303773D01*
X174569384Y-54303783D01*
X174329573Y-54557966D01*
X174329568Y-54557972D01*
X174120889Y-54838277D01*
X173946161Y-55140916D01*
X173946155Y-55140929D01*
X173807745Y-55461799D01*
X173707516Y-55796588D01*
X173707514Y-55796597D01*
X173646835Y-56140722D01*
X173646835Y-56140726D01*
X173641076Y-56239599D01*
X169544372Y-56239599D01*
X169495769Y-56212021D01*
X169493364Y-56210620D01*
X169409200Y-56160333D01*
X169409194Y-56160330D01*
X169409192Y-56160329D01*
X169409189Y-56160327D01*
X169409185Y-56160326D01*
X169404972Y-56158745D01*
X169387344Y-56150498D01*
X169383427Y-56148275D01*
X169290831Y-56115874D01*
X169288255Y-56114940D01*
X169196429Y-56080478D01*
X169196432Y-56080478D01*
X169191978Y-56079670D01*
X169173186Y-56074709D01*
X169168933Y-56073221D01*
X169168923Y-56073218D01*
X169072056Y-56057875D01*
X169069315Y-56057409D01*
X168972831Y-56039900D01*
X168972827Y-56039900D01*
X168968320Y-56039900D01*
X168948933Y-56038374D01*
X168944471Y-56037668D01*
X168944465Y-56037668D01*
X168846400Y-56039869D01*
X168843618Y-56039900D01*
X149875507Y-56039900D01*
X149808468Y-56020215D01*
X149787826Y-56003581D01*
X148974419Y-55190174D01*
X148940934Y-55128851D01*
X148938100Y-55102493D01*
X148938100Y-54261408D01*
X148957785Y-54194369D01*
X148962822Y-54187112D01*
X148969396Y-54178331D01*
X149019691Y-54043483D01*
X149026100Y-53983873D01*
X149026099Y-52188128D01*
X149019691Y-52128517D01*
X149018410Y-52125083D01*
X148969397Y-51993671D01*
X148969393Y-51993664D01*
X148883147Y-51878455D01*
X148883144Y-51878452D01*
X148767935Y-51792206D01*
X148767928Y-51792202D01*
X148633082Y-51741908D01*
X148633083Y-51741908D01*
X148573483Y-51735501D01*
X148573481Y-51735500D01*
X148573473Y-51735500D01*
X148573464Y-51735500D01*
X146777729Y-51735500D01*
X146777723Y-51735501D01*
X146718116Y-51741908D01*
X146583271Y-51792202D01*
X146583264Y-51792206D01*
X146468055Y-51878452D01*
X146468052Y-51878455D01*
X146381806Y-51993664D01*
X146381803Y-51993669D01*
X146332789Y-52125083D01*
X146290917Y-52181016D01*
X146225453Y-52205433D01*
X146157180Y-52190581D01*
X146128926Y-52169430D01*
X146007002Y-52047506D01*
X146006995Y-52047501D01*
X145813434Y-51911967D01*
X145813430Y-51911965D01*
X145813428Y-51911964D01*
X145599263Y-51812097D01*
X145599259Y-51812096D01*
X145599255Y-51812094D01*
X145371013Y-51750938D01*
X145371003Y-51750936D01*
X145135601Y-51730341D01*
X145135599Y-51730341D01*
X144900196Y-51750936D01*
X144900186Y-51750938D01*
X144671944Y-51812094D01*
X144671935Y-51812098D01*
X144457771Y-51911964D01*
X144457769Y-51911965D01*
X144264197Y-52047505D01*
X144097105Y-52214597D01*
X143967175Y-52400158D01*
X143912598Y-52443783D01*
X143843100Y-52450977D01*
X143780745Y-52419454D01*
X143764025Y-52400158D01*
X143634094Y-52214597D01*
X143467002Y-52047506D01*
X143466995Y-52047501D01*
X143273434Y-51911967D01*
X143273430Y-51911965D01*
X143273428Y-51911964D01*
X143059263Y-51812097D01*
X143059259Y-51812096D01*
X143059255Y-51812094D01*
X142831013Y-51750938D01*
X142831003Y-51750936D01*
X142595601Y-51730341D01*
X142595599Y-51730341D01*
X142360196Y-51750936D01*
X142360186Y-51750938D01*
X142131944Y-51812094D01*
X142131935Y-51812098D01*
X141917771Y-51911964D01*
X141917769Y-51911965D01*
X141724197Y-52047505D01*
X141557105Y-52214597D01*
X141427175Y-52400158D01*
X141372598Y-52443783D01*
X141303100Y-52450977D01*
X141240745Y-52419454D01*
X141224025Y-52400158D01*
X141094094Y-52214597D01*
X140927002Y-52047506D01*
X140926995Y-52047501D01*
X140733434Y-51911967D01*
X140733430Y-51911965D01*
X140733428Y-51911964D01*
X140519263Y-51812097D01*
X140519259Y-51812096D01*
X140519255Y-51812094D01*
X140291013Y-51750938D01*
X140291003Y-51750936D01*
X140055601Y-51730341D01*
X140055599Y-51730341D01*
X139820196Y-51750936D01*
X139820186Y-51750938D01*
X139591944Y-51812094D01*
X139591935Y-51812098D01*
X139377771Y-51911964D01*
X139377769Y-51911965D01*
X139184197Y-52047505D01*
X139017105Y-52214597D01*
X138887175Y-52400158D01*
X138832598Y-52443783D01*
X138763100Y-52450977D01*
X138700745Y-52419454D01*
X138684025Y-52400158D01*
X138554094Y-52214597D01*
X138387002Y-52047506D01*
X138386995Y-52047501D01*
X138193434Y-51911967D01*
X138193430Y-51911965D01*
X138193428Y-51911964D01*
X137979263Y-51812097D01*
X137979259Y-51812096D01*
X137979255Y-51812094D01*
X137751013Y-51750938D01*
X137751003Y-51750936D01*
X137515601Y-51730341D01*
X137515599Y-51730341D01*
X137280196Y-51750936D01*
X137280186Y-51750938D01*
X137051944Y-51812094D01*
X137051935Y-51812098D01*
X136837771Y-51911964D01*
X136837769Y-51911965D01*
X136644197Y-52047505D01*
X136477108Y-52214594D01*
X136346869Y-52400595D01*
X136292292Y-52444219D01*
X136222793Y-52451412D01*
X136160439Y-52419890D01*
X136143719Y-52400594D01*
X136013713Y-52214926D01*
X136013708Y-52214920D01*
X135846682Y-52047894D01*
X135653178Y-51912399D01*
X135439092Y-51812570D01*
X135439086Y-51812567D01*
X135225600Y-51755364D01*
X135225600Y-52650498D01*
X135117915Y-52601320D01*
X135011363Y-52586000D01*
X134939837Y-52586000D01*
X134833285Y-52601320D01*
X134725600Y-52650498D01*
X134725600Y-51755364D01*
X134725599Y-51755364D01*
X134512113Y-51812567D01*
X134512107Y-51812570D01*
X134298022Y-51912399D01*
X134298020Y-51912400D01*
X134104526Y-52047886D01*
X134104520Y-52047891D01*
X133937491Y-52214920D01*
X133937486Y-52214926D01*
X133802000Y-52408420D01*
X133801999Y-52408422D01*
X133702170Y-52622507D01*
X133702167Y-52622513D01*
X133644964Y-52835999D01*
X133644964Y-52836000D01*
X134541914Y-52836000D01*
X134516107Y-52876156D01*
X134475600Y-53014111D01*
X134475600Y-53157889D01*
X134516107Y-53295844D01*
X134541914Y-53336000D01*
X133644964Y-53336000D01*
X133702167Y-53549486D01*
X133702170Y-53549492D01*
X133801999Y-53763578D01*
X133937494Y-53957082D01*
X134104517Y-54124105D01*
X134298021Y-54259600D01*
X134512107Y-54359429D01*
X134512116Y-54359433D01*
X134725600Y-54416634D01*
X134725600Y-53521501D01*
X134833285Y-53570680D01*
X134939837Y-53586000D01*
X135011363Y-53586000D01*
X135117915Y-53570680D01*
X135225600Y-53521501D01*
X135225600Y-54416633D01*
X135439083Y-54359433D01*
X135439092Y-54359429D01*
X135653178Y-54259600D01*
X135846682Y-54124105D01*
X136013705Y-53957082D01*
X136143719Y-53771405D01*
X136198296Y-53727781D01*
X136267795Y-53720588D01*
X136330149Y-53752110D01*
X136346869Y-53771405D01*
X136477105Y-53957401D01*
X136644199Y-54124495D01*
X136721085Y-54178331D01*
X136837765Y-54260032D01*
X136837767Y-54260033D01*
X136837770Y-54260035D01*
X137051937Y-54359903D01*
X137280192Y-54421063D01*
X137422025Y-54433472D01*
X137487093Y-54458925D01*
X137515843Y-54498628D01*
X137526270Y-54475797D01*
X137585048Y-54438023D01*
X137609174Y-54433472D01*
X137751008Y-54421063D01*
X137979263Y-54359903D01*
X138193430Y-54260035D01*
X138387001Y-54124495D01*
X138554095Y-53957401D01*
X138684025Y-53771842D01*
X138738602Y-53728217D01*
X138808100Y-53721023D01*
X138870455Y-53752546D01*
X138887175Y-53771842D01*
X139016881Y-53957082D01*
X139017105Y-53957401D01*
X139184199Y-54124495D01*
X139261085Y-54178331D01*
X139377765Y-54260032D01*
X139377767Y-54260033D01*
X139377770Y-54260035D01*
X139591937Y-54359903D01*
X139820192Y-54421063D01*
X139962025Y-54433472D01*
X140027093Y-54458925D01*
X140055843Y-54498628D01*
X140066270Y-54475797D01*
X140125048Y-54438023D01*
X140149174Y-54433472D01*
X140291008Y-54421063D01*
X140519263Y-54359903D01*
X140733430Y-54260035D01*
X140927001Y-54124495D01*
X141094095Y-53957401D01*
X141224025Y-53771842D01*
X141278602Y-53728217D01*
X141348100Y-53721023D01*
X141410455Y-53752546D01*
X141427175Y-53771842D01*
X141557101Y-53957396D01*
X141557106Y-53957402D01*
X141724197Y-54124493D01*
X141724203Y-54124498D01*
X141851723Y-54213788D01*
X141895348Y-54268365D01*
X141904600Y-54315363D01*
X141904600Y-54557000D01*
X141884915Y-54624039D01*
X141832111Y-54669794D01*
X141780600Y-54681000D01*
X140159983Y-54681000D01*
X140092944Y-54661315D01*
X140054196Y-54616598D01*
X140037496Y-54646062D01*
X139975649Y-54678569D01*
X139951217Y-54681000D01*
X137619983Y-54681000D01*
X137552944Y-54661315D01*
X137514196Y-54616598D01*
X137497496Y-54646062D01*
X137435649Y-54678569D01*
X137411217Y-54681000D01*
X121970026Y-54681000D01*
X121962539Y-54680774D01*
X121903375Y-54677195D01*
X121903374Y-54677195D01*
X121903373Y-54677195D01*
X121903372Y-54677195D01*
X121860432Y-54685062D01*
X121845069Y-54687878D01*
X121837671Y-54689003D01*
X121778822Y-54696150D01*
X121778819Y-54696151D01*
X121769616Y-54699641D01*
X121748008Y-54705665D01*
X121738317Y-54707441D01*
X121684253Y-54731772D01*
X121677339Y-54734636D01*
X121621917Y-54755655D01*
X121613808Y-54761253D01*
X121594273Y-54772271D01*
X121585296Y-54776311D01*
X121585295Y-54776312D01*
X121538637Y-54812865D01*
X121532608Y-54817301D01*
X121483818Y-54850979D01*
X121483810Y-54850986D01*
X121444497Y-54895360D01*
X121439365Y-54900812D01*
X118731004Y-57609172D01*
X118725552Y-57614304D01*
X118681186Y-57653610D01*
X118681176Y-57653621D01*
X118647498Y-57702412D01*
X118643061Y-57708443D01*
X118606512Y-57755094D01*
X118606511Y-57755096D01*
X118602471Y-57764073D01*
X118591453Y-57783608D01*
X118585855Y-57791719D01*
X118564832Y-57847149D01*
X118561968Y-57854065D01*
X118537642Y-57908116D01*
X118535866Y-57917806D01*
X118529845Y-57939403D01*
X118526352Y-57948614D01*
X118526352Y-57948615D01*
X118519206Y-58007465D01*
X118518079Y-58014867D01*
X118507395Y-58073169D01*
X118507395Y-58073172D01*
X118510974Y-58132337D01*
X118511200Y-58139824D01*
X118511200Y-63314815D01*
X118491515Y-63381854D01*
X118474881Y-63402496D01*
X118193973Y-63683403D01*
X118132650Y-63716888D01*
X118071701Y-63714799D01*
X118053436Y-63709493D01*
X118053430Y-63709491D01*
X118053427Y-63709491D01*
X118053424Y-63709490D01*
X118053420Y-63709490D01*
X118017963Y-63706700D01*
X116241649Y-63706700D01*
X116241624Y-63706701D01*
X116206172Y-63709491D01*
X116054411Y-63753581D01*
X116048820Y-63756001D01*
X115999573Y-63766200D01*
X114756426Y-63766200D01*
X114748939Y-63765974D01*
X114689774Y-63762395D01*
X114689769Y-63762395D01*
X114631467Y-63773079D01*
X114624065Y-63774206D01*
X114565215Y-63781352D01*
X114565214Y-63781352D01*
X114556003Y-63784845D01*
X114534406Y-63790866D01*
X114524716Y-63792642D01*
X114502099Y-63802821D01*
X114470658Y-63816970D01*
X114463749Y-63819832D01*
X114408317Y-63840855D01*
X114401679Y-63844340D01*
X114400362Y-63841831D01*
X114346491Y-63859557D01*
X114278851Y-63842047D01*
X114231416Y-63790747D01*
X114219246Y-63721946D01*
X114222440Y-63705918D01*
X114223198Y-63701767D01*
X114223431Y-63698810D01*
X114226100Y-63664894D01*
X114226100Y-63233506D01*
X114223198Y-63196631D01*
X114222969Y-63195843D01*
X114182191Y-63055484D01*
X114177344Y-63038802D01*
X114093681Y-62897335D01*
X114093678Y-62897332D01*
X114088898Y-62891169D01*
X114091350Y-62889266D01*
X114064755Y-62840621D01*
X114069704Y-62770926D01*
X114090540Y-62738504D01*
X114088898Y-62737231D01*
X114093675Y-62731070D01*
X114093681Y-62731065D01*
X114177344Y-62589598D01*
X114223198Y-62431769D01*
X114226100Y-62394894D01*
X114226100Y-61963506D01*
X114223198Y-61926631D01*
X114216347Y-61903051D01*
X114177345Y-61768806D01*
X114177344Y-61768803D01*
X114177344Y-61768802D01*
X114093681Y-61627335D01*
X114093679Y-61627333D01*
X114093676Y-61627329D01*
X114008275Y-61541928D01*
X113974790Y-61480605D01*
X113979774Y-61410913D01*
X114021646Y-61354980D01*
X114087110Y-61330563D01*
X114146392Y-61340968D01*
X114176487Y-61354367D01*
X114197997Y-61363944D01*
X114383154Y-61403300D01*
X114383155Y-61403300D01*
X114572444Y-61403300D01*
X114572446Y-61403300D01*
X114757603Y-61363944D01*
X114930530Y-61286951D01*
X115083671Y-61175688D01*
X115210333Y-61035016D01*
X115304979Y-60871084D01*
X115363474Y-60691056D01*
X115383260Y-60502800D01*
X115363474Y-60314544D01*
X115304979Y-60134516D01*
X115210333Y-59970584D01*
X115083671Y-59829912D01*
X115058464Y-59811598D01*
X114930534Y-59718651D01*
X114930529Y-59718648D01*
X114757607Y-59641657D01*
X114757602Y-59641655D01*
X114611801Y-59610665D01*
X114572446Y-59602300D01*
X114383154Y-59602300D01*
X114350697Y-59609198D01*
X114197997Y-59641655D01*
X114197992Y-59641657D01*
X114025070Y-59718648D01*
X114025065Y-59718651D01*
X113929453Y-59788118D01*
X113863647Y-59811598D01*
X113856568Y-59811800D01*
X113689952Y-59811800D01*
X113622913Y-59792115D01*
X113602271Y-59775481D01*
X113509251Y-59682461D01*
X113509250Y-59682460D01*
X113379290Y-59602300D01*
X113362418Y-59591893D01*
X113362413Y-59591891D01*
X113316817Y-59576782D01*
X113198653Y-59537626D01*
X113198651Y-59537625D01*
X113097578Y-59527300D01*
X112399230Y-59527300D01*
X112399212Y-59527301D01*
X112298147Y-59537625D01*
X112134384Y-59591892D01*
X112134381Y-59591893D01*
X111987548Y-59682461D01*
X111973225Y-59696784D01*
X111911901Y-59730268D01*
X111842209Y-59725282D01*
X111797865Y-59696782D01*
X111783938Y-59682855D01*
X111783934Y-59682852D01*
X111637211Y-59592351D01*
X111637200Y-59592346D01*
X111473552Y-59538119D01*
X111372554Y-59527800D01*
X111273400Y-59527800D01*
X111273400Y-61477799D01*
X111278559Y-61477799D01*
X111345598Y-61497484D01*
X111391353Y-61550288D01*
X111401297Y-61619446D01*
X111385291Y-61664920D01*
X111323855Y-61768803D01*
X111323854Y-61768806D01*
X111278002Y-61926626D01*
X111278001Y-61926632D01*
X111275100Y-61963498D01*
X111275100Y-62394901D01*
X111278001Y-62431767D01*
X111278002Y-62431773D01*
X111323854Y-62589593D01*
X111323854Y-62589594D01*
X111323855Y-62589596D01*
X111323856Y-62589598D01*
X111335482Y-62609256D01*
X111354430Y-62641296D01*
X111371611Y-62709020D01*
X111349451Y-62775282D01*
X111294985Y-62819045D01*
X111291672Y-62820356D01*
X111258720Y-62832854D01*
X111250608Y-62838453D01*
X111231073Y-62849471D01*
X111222096Y-62853511D01*
X111222095Y-62853512D01*
X111175437Y-62890065D01*
X111169408Y-62894501D01*
X111120618Y-62928179D01*
X111120610Y-62928186D01*
X111081297Y-62972560D01*
X111076165Y-62978012D01*
X110399804Y-63654372D01*
X110394352Y-63659504D01*
X110349986Y-63698810D01*
X110349976Y-63698821D01*
X110316298Y-63747612D01*
X110311861Y-63753643D01*
X110275312Y-63800294D01*
X110275311Y-63800296D01*
X110271271Y-63809273D01*
X110260253Y-63828808D01*
X110254655Y-63836919D01*
X110233632Y-63892349D01*
X110230768Y-63899265D01*
X110206442Y-63953316D01*
X110204666Y-63963006D01*
X110198645Y-63984603D01*
X110195152Y-63993814D01*
X110195152Y-63993815D01*
X110188006Y-64052665D01*
X110186879Y-64060067D01*
X110176195Y-64118369D01*
X110176195Y-64118372D01*
X110179774Y-64177537D01*
X110180000Y-64185024D01*
X110180000Y-67125248D01*
X110160315Y-67192287D01*
X110107511Y-67238042D01*
X110038353Y-67247986D01*
X109974797Y-67218961D01*
X109968319Y-67212929D01*
X109880051Y-67124661D01*
X109880050Y-67124660D01*
X109739442Y-67037932D01*
X109733218Y-67034093D01*
X109733213Y-67034091D01*
X109723601Y-67030906D01*
X109569453Y-66979826D01*
X109569451Y-66979825D01*
X109468384Y-66969500D01*
X108951815Y-66969500D01*
X108884776Y-66949815D01*
X108839021Y-66897011D01*
X108829077Y-66827853D01*
X108858102Y-66764297D01*
X108888695Y-66738768D01*
X109027150Y-66656887D01*
X109027161Y-66656878D01*
X109143278Y-66540761D01*
X109143285Y-66540752D01*
X109226881Y-66399398D01*
X109272700Y-66241686D01*
X109272895Y-66239201D01*
X109272895Y-66239200D01*
X106328305Y-66239200D01*
X106328304Y-66239201D01*
X106328499Y-66241686D01*
X106374318Y-66399398D01*
X106457914Y-66540752D01*
X106457921Y-66540761D01*
X106574038Y-66656878D01*
X106574047Y-66656885D01*
X106715402Y-66740481D01*
X106839794Y-66776620D01*
X106898680Y-66814226D01*
X106927887Y-66877699D01*
X106918141Y-66946885D01*
X106872538Y-66999820D01*
X106844205Y-67013403D01*
X106780397Y-67034547D01*
X106780388Y-67034551D01*
X106633665Y-67125052D01*
X106633661Y-67125055D01*
X106511755Y-67246961D01*
X106511752Y-67246965D01*
X106421251Y-67393688D01*
X106421246Y-67393699D01*
X106367019Y-67557347D01*
X106356700Y-67658345D01*
X106356700Y-67695000D01*
X107470200Y-67695000D01*
X107537239Y-67714685D01*
X107582994Y-67767489D01*
X107594200Y-67819000D01*
X107594200Y-68897638D01*
X107580200Y-68945316D01*
X107580200Y-70578000D01*
X107593030Y-70590830D01*
X107626515Y-70652153D01*
X107621531Y-70721845D01*
X107579662Y-70777776D01*
X107522654Y-70820453D01*
X107522652Y-70820455D01*
X107436406Y-70935664D01*
X107436402Y-70935671D01*
X107386108Y-71070517D01*
X107379701Y-71130116D01*
X107379701Y-71130123D01*
X107379700Y-71130135D01*
X107379700Y-72125870D01*
X107379701Y-72125876D01*
X107386109Y-72185484D01*
X107386392Y-72186682D01*
X107386340Y-72187639D01*
X107386938Y-72193196D01*
X107386037Y-72193292D01*
X107382653Y-72256452D01*
X107341787Y-72313124D01*
X107276769Y-72338706D01*
X107265716Y-72339200D01*
X102580100Y-72339200D01*
X102513061Y-72319515D01*
X102467306Y-72266711D01*
X102456100Y-72215200D01*
X102456100Y-69878000D01*
X106430200Y-69878000D01*
X106430200Y-70125844D01*
X106436601Y-70185372D01*
X106436603Y-70185379D01*
X106486845Y-70320086D01*
X106486849Y-70320093D01*
X106573009Y-70435187D01*
X106573012Y-70435190D01*
X106688106Y-70521350D01*
X106688113Y-70521354D01*
X106822820Y-70571596D01*
X106822827Y-70571598D01*
X106882355Y-70577999D01*
X106882372Y-70578000D01*
X107080200Y-70578000D01*
X107080200Y-69878000D01*
X106430200Y-69878000D01*
X102456100Y-69878000D01*
X102456100Y-68195000D01*
X106356701Y-68195000D01*
X106356701Y-68231654D01*
X106367019Y-68332652D01*
X106421246Y-68496300D01*
X106421251Y-68496311D01*
X106511752Y-68643034D01*
X106511755Y-68643038D01*
X106546916Y-68678199D01*
X106580401Y-68739522D01*
X106575417Y-68809214D01*
X106558502Y-68840190D01*
X106486849Y-68935907D01*
X106486845Y-68935913D01*
X106436603Y-69070620D01*
X106436601Y-69070627D01*
X106430200Y-69130155D01*
X106430200Y-69378000D01*
X107080200Y-69378000D01*
X107080200Y-68700362D01*
X107094200Y-68652683D01*
X107094200Y-68195000D01*
X106356701Y-68195000D01*
X102456100Y-68195000D01*
X102456100Y-64934901D01*
X106325100Y-64934901D01*
X106328001Y-64971767D01*
X106328002Y-64971773D01*
X106373854Y-65129593D01*
X106373855Y-65129596D01*
X106457517Y-65271062D01*
X106462302Y-65277231D01*
X106459969Y-65279040D01*
X106486810Y-65328195D01*
X106481826Y-65397887D01*
X106461070Y-65430221D01*
X106462697Y-65431483D01*
X106457913Y-65437649D01*
X106374318Y-65579001D01*
X106328499Y-65736713D01*
X106328304Y-65739198D01*
X106328305Y-65739200D01*
X109272895Y-65739200D01*
X109272895Y-65739198D01*
X109272700Y-65736713D01*
X109226881Y-65579001D01*
X109143285Y-65437647D01*
X109138500Y-65431478D01*
X109140966Y-65429564D01*
X109114402Y-65380976D01*
X109119349Y-65311282D01*
X109140456Y-65278432D01*
X109138901Y-65277226D01*
X109143677Y-65271068D01*
X109143681Y-65271065D01*
X109227344Y-65129598D01*
X109273198Y-64971769D01*
X109276100Y-64934894D01*
X109276100Y-64503506D01*
X109273198Y-64466631D01*
X109266674Y-64444176D01*
X109239436Y-64350424D01*
X109227344Y-64308802D01*
X109143681Y-64167335D01*
X109143678Y-64167332D01*
X109138898Y-64161169D01*
X109141350Y-64159266D01*
X109114755Y-64110621D01*
X109119704Y-64040926D01*
X109140540Y-64008504D01*
X109138898Y-64007231D01*
X109143675Y-64001070D01*
X109143681Y-64001065D01*
X109227344Y-63859598D01*
X109267336Y-63721946D01*
X109273197Y-63701773D01*
X109273198Y-63701767D01*
X109273431Y-63698810D01*
X109276100Y-63664894D01*
X109276100Y-63233506D01*
X109273198Y-63196631D01*
X109272969Y-63195843D01*
X109232191Y-63055484D01*
X109227344Y-63038802D01*
X109143681Y-62897335D01*
X109143678Y-62897332D01*
X109138898Y-62891169D01*
X109141350Y-62889266D01*
X109114755Y-62840621D01*
X109119704Y-62770926D01*
X109140540Y-62738504D01*
X109138898Y-62737231D01*
X109143675Y-62731070D01*
X109143681Y-62731065D01*
X109227344Y-62589598D01*
X109273198Y-62431769D01*
X109276100Y-62394894D01*
X109276100Y-61963506D01*
X109273198Y-61926631D01*
X109266347Y-61903051D01*
X109227345Y-61768806D01*
X109227344Y-61768803D01*
X109227344Y-61768802D01*
X109143681Y-61627335D01*
X109143679Y-61627333D01*
X109143676Y-61627329D01*
X109027470Y-61511123D01*
X109027462Y-61511117D01*
X108885996Y-61427455D01*
X108885993Y-61427454D01*
X108728173Y-61381602D01*
X108728167Y-61381601D01*
X108691301Y-61378700D01*
X108691294Y-61378700D01*
X106909906Y-61378700D01*
X106909898Y-61378700D01*
X106873032Y-61381601D01*
X106873026Y-61381602D01*
X106715206Y-61427454D01*
X106715203Y-61427455D01*
X106573737Y-61511117D01*
X106573729Y-61511123D01*
X106457523Y-61627329D01*
X106457517Y-61627337D01*
X106373855Y-61768803D01*
X106373854Y-61768806D01*
X106328002Y-61926626D01*
X106328001Y-61926632D01*
X106325100Y-61963498D01*
X106325100Y-62394901D01*
X106328001Y-62431767D01*
X106328002Y-62431773D01*
X106373854Y-62589593D01*
X106373855Y-62589596D01*
X106457517Y-62731062D01*
X106462302Y-62737231D01*
X106459856Y-62739127D01*
X106486457Y-62787842D01*
X106481473Y-62857534D01*
X106460669Y-62889903D01*
X106462302Y-62891169D01*
X106457517Y-62897337D01*
X106373855Y-63038803D01*
X106373854Y-63038806D01*
X106328002Y-63196626D01*
X106328001Y-63196632D01*
X106325100Y-63233498D01*
X106325100Y-63664901D01*
X106328001Y-63701767D01*
X106328002Y-63701773D01*
X106373854Y-63859593D01*
X106373855Y-63859596D01*
X106457517Y-64001062D01*
X106462302Y-64007231D01*
X106459856Y-64009127D01*
X106486457Y-64057842D01*
X106481473Y-64127534D01*
X106460669Y-64159903D01*
X106462302Y-64161169D01*
X106457517Y-64167337D01*
X106373855Y-64308803D01*
X106373854Y-64308806D01*
X106328002Y-64466626D01*
X106328001Y-64466632D01*
X106325100Y-64503498D01*
X106325100Y-64934901D01*
X102456100Y-64934901D01*
X102456100Y-60752800D01*
X109985901Y-60752800D01*
X109985901Y-60789454D01*
X109996219Y-60890452D01*
X110050446Y-61054100D01*
X110050451Y-61054111D01*
X110140952Y-61200834D01*
X110140955Y-61200838D01*
X110262861Y-61322744D01*
X110262865Y-61322747D01*
X110409588Y-61413248D01*
X110409599Y-61413253D01*
X110573247Y-61467480D01*
X110674251Y-61477799D01*
X110773400Y-61477798D01*
X110773400Y-60752800D01*
X109985901Y-60752800D01*
X102456100Y-60752800D01*
X102456100Y-60252800D01*
X109985900Y-60252800D01*
X110773400Y-60252800D01*
X110773400Y-59527799D01*
X110674260Y-59527800D01*
X110674244Y-59527801D01*
X110573247Y-59538119D01*
X110409599Y-59592346D01*
X110409588Y-59592351D01*
X110262865Y-59682852D01*
X110262861Y-59682855D01*
X110140955Y-59804761D01*
X110140952Y-59804765D01*
X110050451Y-59951488D01*
X110050446Y-59951499D01*
X109996219Y-60115147D01*
X109985900Y-60216145D01*
X109985900Y-60252800D01*
X102456100Y-60252800D01*
X102456100Y-56239599D01*
X102978276Y-56239599D01*
X102978277Y-56239600D01*
X105000554Y-56239600D01*
X104975234Y-56337391D01*
X104964933Y-56540510D01*
X104995433Y-56739600D01*
X102978277Y-56739600D01*
X102984035Y-56838473D01*
X102984035Y-56838477D01*
X103044714Y-57182602D01*
X103044716Y-57182611D01*
X103144945Y-57517400D01*
X103283355Y-57838270D01*
X103283361Y-57838283D01*
X103458089Y-58140922D01*
X103666768Y-58421227D01*
X103666773Y-58421233D01*
X103906584Y-58675416D01*
X103906594Y-58675426D01*
X104174280Y-58900042D01*
X104466261Y-59092080D01*
X104778539Y-59248914D01*
X104778545Y-59248916D01*
X105106930Y-59368438D01*
X105106933Y-59368439D01*
X105446971Y-59449029D01*
X105718800Y-59480801D01*
X105718800Y-57459121D01*
X105867110Y-57489600D01*
X106019512Y-57489600D01*
X106171137Y-57474181D01*
X106218800Y-57459226D01*
X106218800Y-59480801D01*
X106490627Y-59449029D01*
X106490629Y-59449029D01*
X106830666Y-59368439D01*
X106830669Y-59368438D01*
X107159054Y-59248916D01*
X107159060Y-59248914D01*
X107471338Y-59092080D01*
X107763319Y-58900042D01*
X108031005Y-58675426D01*
X108031015Y-58675416D01*
X108270826Y-58421233D01*
X108270831Y-58421227D01*
X108479510Y-58140922D01*
X108654238Y-57838283D01*
X108654244Y-57838270D01*
X108792654Y-57517400D01*
X108892883Y-57182611D01*
X108892885Y-57182602D01*
X108953564Y-56838477D01*
X108953564Y-56838473D01*
X108959323Y-56739600D01*
X106937046Y-56739600D01*
X106962366Y-56641809D01*
X106972667Y-56438690D01*
X106942167Y-56239600D01*
X108959323Y-56239600D01*
X108959323Y-56239599D01*
X108953564Y-56140726D01*
X108953564Y-56140722D01*
X108892885Y-55796597D01*
X108892883Y-55796588D01*
X108792654Y-55461799D01*
X108654244Y-55140929D01*
X108654238Y-55140916D01*
X108479510Y-54838277D01*
X108270831Y-54557972D01*
X108270826Y-54557966D01*
X108031015Y-54303783D01*
X108031005Y-54303773D01*
X107763319Y-54079157D01*
X107471338Y-53887119D01*
X107159060Y-53730285D01*
X107159054Y-53730283D01*
X106830669Y-53610761D01*
X106830666Y-53610760D01*
X106490629Y-53530170D01*
X106218800Y-53498397D01*
X106218800Y-55520078D01*
X106070490Y-55489600D01*
X105918088Y-55489600D01*
X105766463Y-55505019D01*
X105718800Y-55519973D01*
X105718800Y-53498397D01*
X105446970Y-53530170D01*
X105106933Y-53610760D01*
X105106930Y-53610761D01*
X104778545Y-53730283D01*
X104778539Y-53730285D01*
X104466261Y-53887119D01*
X104174280Y-54079157D01*
X103906594Y-54303773D01*
X103906584Y-54303783D01*
X103666773Y-54557966D01*
X103666768Y-54557972D01*
X103458089Y-54838277D01*
X103283361Y-55140916D01*
X103283355Y-55140929D01*
X103144945Y-55461799D01*
X103044716Y-55796588D01*
X103044714Y-55796597D01*
X102984035Y-56140722D01*
X102984035Y-56140726D01*
X102978276Y-56239599D01*
X102456100Y-56239599D01*
X102456100Y-51551500D01*
X102475785Y-51484461D01*
X102528589Y-51438706D01*
X102580100Y-51427500D01*
X180020300Y-51427500D01*
X180087339Y-51447185D01*
G37*
G04 #@! TD.AperFunction*
G04 #@! TA.AperFunction,Conductor*
G36*
X128964654Y-65633085D02*
G01*
X128985296Y-65649718D01*
X129066681Y-65731102D01*
X129100166Y-65792425D01*
X129103000Y-65818784D01*
X129103000Y-66037447D01*
X129083315Y-66104486D01*
X129066681Y-66125128D01*
X128968827Y-66222982D01*
X128907504Y-66256467D01*
X128837812Y-66251483D01*
X128793465Y-66222982D01*
X128679538Y-66109055D01*
X128679534Y-66109052D01*
X128532811Y-66018551D01*
X128532800Y-66018546D01*
X128369152Y-65964319D01*
X128268154Y-65954000D01*
X128219000Y-65954000D01*
X128219000Y-67881638D01*
X128205000Y-67929316D01*
X128205000Y-69562000D01*
X128217830Y-69574830D01*
X128251315Y-69636153D01*
X128246331Y-69705845D01*
X128204462Y-69761776D01*
X128147454Y-69804453D01*
X128147452Y-69804455D01*
X128061206Y-69919664D01*
X128061202Y-69919671D01*
X128010908Y-70054517D01*
X128004501Y-70114116D01*
X128004501Y-70114123D01*
X128004500Y-70114135D01*
X128004500Y-70646307D01*
X127984815Y-70713346D01*
X127968181Y-70733988D01*
X126399289Y-72302881D01*
X126337966Y-72336366D01*
X126311608Y-72339200D01*
X126203856Y-72339200D01*
X126136817Y-72319515D01*
X126091062Y-72266711D01*
X126081118Y-72197553D01*
X126110143Y-72133997D01*
X126127378Y-72117593D01*
X126139957Y-72107737D01*
X126145998Y-72103292D01*
X126194783Y-72069620D01*
X126234117Y-72025219D01*
X126239203Y-72019817D01*
X126633017Y-71626003D01*
X126638419Y-71620917D01*
X126682820Y-71581583D01*
X126716496Y-71532791D01*
X126720934Y-71526761D01*
X126757488Y-71480105D01*
X126761522Y-71471139D01*
X126772554Y-71451580D01*
X126778142Y-71443485D01*
X126778142Y-71443484D01*
X126778144Y-71443482D01*
X126799178Y-71388017D01*
X126802018Y-71381161D01*
X126826357Y-71327085D01*
X126828130Y-71317403D01*
X126834156Y-71295788D01*
X126837648Y-71286582D01*
X126844793Y-71227730D01*
X126845919Y-71220336D01*
X126855238Y-71169485D01*
X126856605Y-71162028D01*
X126853026Y-71102861D01*
X126852800Y-71095374D01*
X126852800Y-70128637D01*
X126853026Y-70121149D01*
X126855299Y-70083573D01*
X126856606Y-70061972D01*
X126845914Y-70003636D01*
X126844789Y-69996235D01*
X126837648Y-69937418D01*
X126837647Y-69937416D01*
X126834163Y-69928230D01*
X126828132Y-69906600D01*
X126826358Y-69896916D01*
X126802018Y-69842836D01*
X126799160Y-69835933D01*
X126778146Y-69780522D01*
X126778145Y-69780520D01*
X126778144Y-69780518D01*
X126772548Y-69772411D01*
X126761525Y-69752866D01*
X126757488Y-69743895D01*
X126720934Y-69697238D01*
X126716499Y-69691211D01*
X126711542Y-69684030D01*
X126682820Y-69642417D01*
X126638438Y-69603098D01*
X126632985Y-69597964D01*
X126490101Y-69455080D01*
X126456616Y-69393757D01*
X126461600Y-69324065D01*
X126490097Y-69279723D01*
X126843320Y-68926500D01*
X126904642Y-68893016D01*
X126974334Y-68898000D01*
X127030267Y-68939872D01*
X127054684Y-69005336D01*
X127055000Y-69014182D01*
X127055000Y-69109844D01*
X127061401Y-69169372D01*
X127061403Y-69169379D01*
X127111645Y-69304086D01*
X127111649Y-69304093D01*
X127197809Y-69419187D01*
X127197812Y-69419190D01*
X127312906Y-69505350D01*
X127312913Y-69505354D01*
X127447620Y-69555596D01*
X127447627Y-69555598D01*
X127507155Y-69561999D01*
X127507172Y-69562000D01*
X127705000Y-69562000D01*
X127705000Y-67684362D01*
X127719000Y-67636683D01*
X127719000Y-65954000D01*
X127718999Y-65953999D01*
X127669861Y-65954000D01*
X127669836Y-65954002D01*
X127624399Y-65958643D01*
X127555707Y-65945872D01*
X127504823Y-65897991D01*
X127487800Y-65835285D01*
X127487800Y-65818783D01*
X127507485Y-65751744D01*
X127524119Y-65731102D01*
X127605502Y-65649719D01*
X127666825Y-65616234D01*
X127693183Y-65613400D01*
X128897615Y-65613400D01*
X128964654Y-65633085D01*
G37*
G04 #@! TD.AperFunction*
G04 #@! TA.AperFunction,Conductor*
G36*
X132802455Y-65102085D02*
G01*
X132823097Y-65118719D01*
X133707579Y-66003201D01*
X133712699Y-66008639D01*
X133738221Y-66037447D01*
X133752019Y-66053022D01*
X133800806Y-66086696D01*
X133806843Y-66091138D01*
X133853490Y-66127685D01*
X133853493Y-66127687D01*
X133853494Y-66127687D01*
X133853495Y-66127688D01*
X133862466Y-66131725D01*
X133882011Y-66142748D01*
X133890118Y-66148344D01*
X133890119Y-66148344D01*
X133890120Y-66148345D01*
X133890122Y-66148346D01*
X133920744Y-66159959D01*
X133945543Y-66169364D01*
X133952442Y-66172221D01*
X134006515Y-66196557D01*
X134016196Y-66198331D01*
X134037818Y-66204359D01*
X134047018Y-66207848D01*
X134105868Y-66214993D01*
X134113236Y-66216114D01*
X134171572Y-66226805D01*
X134230739Y-66223226D01*
X134238226Y-66223000D01*
X142390025Y-66223000D01*
X142457064Y-66242685D01*
X142502819Y-66295489D01*
X142512763Y-66364647D01*
X142495563Y-66412097D01*
X142438451Y-66504688D01*
X142438446Y-66504699D01*
X142384219Y-66668347D01*
X142373900Y-66769345D01*
X142373900Y-66806000D01*
X143487400Y-66806000D01*
X143554439Y-66825685D01*
X143600194Y-66878489D01*
X143611400Y-66930000D01*
X143611400Y-67983238D01*
X143591715Y-68050277D01*
X143575081Y-68070919D01*
X143572000Y-68074000D01*
X143572000Y-69562000D01*
X143584830Y-69574830D01*
X143618315Y-69636153D01*
X143613331Y-69705845D01*
X143571462Y-69761776D01*
X143514454Y-69804453D01*
X143514452Y-69804455D01*
X143428206Y-69919664D01*
X143428202Y-69919671D01*
X143377908Y-70054517D01*
X143371501Y-70114116D01*
X143371501Y-70114123D01*
X143371500Y-70114135D01*
X143371500Y-71109870D01*
X143371501Y-71109876D01*
X143377909Y-71169485D01*
X143382681Y-71182279D01*
X143390500Y-71225613D01*
X143390500Y-72215200D01*
X143370815Y-72282239D01*
X143318011Y-72327994D01*
X143266500Y-72339200D01*
X132984047Y-72339200D01*
X132940715Y-72331382D01*
X132903843Y-72317630D01*
X132624233Y-72256804D01*
X132338801Y-72236390D01*
X132338799Y-72236390D01*
X132053366Y-72256804D01*
X131773756Y-72317630D01*
X131736885Y-72331382D01*
X131693553Y-72339200D01*
X129155590Y-72339200D01*
X129088551Y-72319515D01*
X129042796Y-72266711D01*
X129032852Y-72197553D01*
X129061877Y-72133997D01*
X129067909Y-72127519D01*
X129175628Y-72019800D01*
X129499423Y-71696004D01*
X129506804Y-71689200D01*
X129548739Y-71653582D01*
X129598583Y-71588012D01*
X129600598Y-71585436D01*
X129652116Y-71521346D01*
X129652227Y-71521120D01*
X129664609Y-71501157D01*
X129664774Y-71500941D01*
X129699336Y-71426232D01*
X129700743Y-71423294D01*
X129737307Y-71349574D01*
X129737367Y-71349330D01*
X129745174Y-71327157D01*
X129745282Y-71326924D01*
X129750483Y-71303293D01*
X129755398Y-71286628D01*
X129799091Y-71169483D01*
X129805500Y-71109873D01*
X129805499Y-70114128D01*
X129799091Y-70054517D01*
X129784687Y-70015899D01*
X129748797Y-69919671D01*
X129748793Y-69919664D01*
X129662547Y-69804455D01*
X129662544Y-69804453D01*
X129637581Y-69785765D01*
X129595710Y-69729830D01*
X129590727Y-69660139D01*
X129624213Y-69598816D01*
X129685537Y-69565332D01*
X129711886Y-69562499D01*
X130302872Y-69562499D01*
X130362483Y-69556091D01*
X130497331Y-69505796D01*
X130612546Y-69419546D01*
X130698796Y-69304331D01*
X130749091Y-69169483D01*
X130755500Y-69109873D01*
X130755500Y-68862000D01*
X142422000Y-68862000D01*
X142422000Y-69109844D01*
X142428401Y-69169372D01*
X142428403Y-69169379D01*
X142478645Y-69304086D01*
X142478649Y-69304093D01*
X142564809Y-69419187D01*
X142564812Y-69419190D01*
X142679906Y-69505350D01*
X142679913Y-69505354D01*
X142814620Y-69555596D01*
X142814627Y-69555598D01*
X142874155Y-69561999D01*
X142874172Y-69562000D01*
X143072000Y-69562000D01*
X143072000Y-68862000D01*
X142422000Y-68862000D01*
X130755500Y-68862000D01*
X130755499Y-68114128D01*
X130749091Y-68054517D01*
X130742866Y-68037828D01*
X130698797Y-67919671D01*
X130694548Y-67911890D01*
X130696264Y-67910952D01*
X130675815Y-67856117D01*
X130675500Y-67847278D01*
X130675500Y-67583624D01*
X130693962Y-67518526D01*
X130717408Y-67480516D01*
X130771674Y-67316753D01*
X130772773Y-67306000D01*
X142373901Y-67306000D01*
X142373901Y-67342654D01*
X142384219Y-67443652D01*
X142438446Y-67607300D01*
X142438451Y-67607311D01*
X142518011Y-67736296D01*
X142536452Y-67803688D01*
X142515530Y-67870352D01*
X142511740Y-67875704D01*
X142478647Y-67919910D01*
X142478645Y-67919913D01*
X142428403Y-68054620D01*
X142428401Y-68054627D01*
X142422000Y-68114155D01*
X142422000Y-68362000D01*
X143072000Y-68362000D01*
X143072000Y-67709762D01*
X143091685Y-67642723D01*
X143108319Y-67622081D01*
X143111400Y-67619000D01*
X143111400Y-67306000D01*
X142373901Y-67306000D01*
X130772773Y-67306000D01*
X130782000Y-67215677D01*
X130781999Y-66642324D01*
X130771674Y-66541247D01*
X130717408Y-66377484D01*
X130626840Y-66230650D01*
X130521318Y-66125128D01*
X130487834Y-66063805D01*
X130485000Y-66037447D01*
X130485000Y-65505837D01*
X130485226Y-65498349D01*
X130486528Y-65476821D01*
X130488806Y-65439172D01*
X130478114Y-65380836D01*
X130476989Y-65373435D01*
X130469848Y-65314618D01*
X130469847Y-65314616D01*
X130466363Y-65305430D01*
X130460332Y-65283800D01*
X130458558Y-65274116D01*
X130450984Y-65257289D01*
X130441422Y-65188078D01*
X130470796Y-65124683D01*
X130529781Y-65087233D01*
X130564061Y-65082400D01*
X132735416Y-65082400D01*
X132802455Y-65102085D01*
G37*
G04 #@! TD.AperFunction*
G04 #@! TA.AperFunction,Conductor*
G36*
X162164855Y-65711685D02*
G01*
X162185497Y-65728319D01*
X162391481Y-65934302D01*
X162424966Y-65995625D01*
X162427800Y-66021983D01*
X162427800Y-66164447D01*
X162408115Y-66231486D01*
X162391481Y-66252128D01*
X162293627Y-66349982D01*
X162232304Y-66383467D01*
X162162612Y-66378483D01*
X162118265Y-66349982D01*
X162004338Y-66236055D01*
X162004334Y-66236052D01*
X161857611Y-66145551D01*
X161857600Y-66145546D01*
X161693952Y-66091319D01*
X161592954Y-66081000D01*
X161543800Y-66081000D01*
X161543800Y-67983238D01*
X161524115Y-68050277D01*
X161507481Y-68070919D01*
X161504400Y-68074000D01*
X161504400Y-69562000D01*
X161517230Y-69574830D01*
X161550715Y-69636153D01*
X161545731Y-69705845D01*
X161503862Y-69761776D01*
X161446854Y-69804453D01*
X161446852Y-69804455D01*
X161360606Y-69919664D01*
X161360602Y-69919671D01*
X161310308Y-70054517D01*
X161303901Y-70114116D01*
X161303901Y-70114123D01*
X161303900Y-70114135D01*
X161303900Y-71109870D01*
X161303901Y-71109876D01*
X161310309Y-71169485D01*
X161315081Y-71182279D01*
X161322900Y-71225613D01*
X161322900Y-72215200D01*
X161303215Y-72282239D01*
X161250411Y-72327994D01*
X161198900Y-72339200D01*
X150945797Y-72339200D01*
X150902465Y-72331382D01*
X150887046Y-72325631D01*
X150887041Y-72325629D01*
X150607433Y-72264804D01*
X150322001Y-72244390D01*
X150321999Y-72244390D01*
X150036566Y-72264804D01*
X149756958Y-72325629D01*
X149748008Y-72328967D01*
X149741534Y-72331382D01*
X149698203Y-72339200D01*
X145277500Y-72339200D01*
X145210461Y-72319515D01*
X145164706Y-72266711D01*
X145153500Y-72215200D01*
X145153500Y-71225613D01*
X145161319Y-71182277D01*
X145166090Y-71169485D01*
X145166091Y-71169483D01*
X145172500Y-71109873D01*
X145172499Y-70114128D01*
X145166091Y-70054517D01*
X145151687Y-70015899D01*
X145115797Y-69919671D01*
X145115793Y-69919664D01*
X145029547Y-69804455D01*
X145029544Y-69804453D01*
X145004581Y-69785765D01*
X144962710Y-69729830D01*
X144957727Y-69660139D01*
X144991213Y-69598816D01*
X145052537Y-69565332D01*
X145078886Y-69562499D01*
X145669872Y-69562499D01*
X145729483Y-69556091D01*
X145864331Y-69505796D01*
X145979546Y-69419546D01*
X146065796Y-69304331D01*
X146116091Y-69169483D01*
X146122500Y-69109873D01*
X146122500Y-68862000D01*
X160354400Y-68862000D01*
X160354400Y-69109844D01*
X160360801Y-69169372D01*
X160360803Y-69169379D01*
X160411045Y-69304086D01*
X160411049Y-69304093D01*
X160497209Y-69419187D01*
X160497212Y-69419190D01*
X160612306Y-69505350D01*
X160612313Y-69505354D01*
X160747020Y-69555596D01*
X160747027Y-69555598D01*
X160806555Y-69561999D01*
X160806572Y-69562000D01*
X161004400Y-69562000D01*
X161004400Y-68862000D01*
X160354400Y-68862000D01*
X146122500Y-68862000D01*
X146122499Y-68114128D01*
X146116091Y-68054517D01*
X146109866Y-68037828D01*
X146075718Y-67946271D01*
X146067900Y-67902938D01*
X146067900Y-67710624D01*
X146086362Y-67645526D01*
X146109808Y-67607516D01*
X146164074Y-67443753D01*
X146174400Y-67342677D01*
X146174400Y-67306000D01*
X160306301Y-67306000D01*
X160306301Y-67342654D01*
X160316619Y-67443652D01*
X160370846Y-67607300D01*
X160370851Y-67607311D01*
X160450411Y-67736296D01*
X160468852Y-67803688D01*
X160447930Y-67870352D01*
X160444140Y-67875704D01*
X160411047Y-67919910D01*
X160411045Y-67919913D01*
X160360803Y-68054620D01*
X160360801Y-68054627D01*
X160354400Y-68114155D01*
X160354400Y-68362000D01*
X161004400Y-68362000D01*
X161004400Y-67709762D01*
X161024085Y-67642723D01*
X161040719Y-67622081D01*
X161043800Y-67619000D01*
X161043800Y-67306000D01*
X160306301Y-67306000D01*
X146174400Y-67306000D01*
X146174399Y-66806000D01*
X160306300Y-66806000D01*
X161043800Y-66806000D01*
X161043800Y-66081000D01*
X161043799Y-66080999D01*
X160994661Y-66081000D01*
X160994643Y-66081001D01*
X160893647Y-66091319D01*
X160729999Y-66145546D01*
X160729988Y-66145551D01*
X160583265Y-66236052D01*
X160583261Y-66236055D01*
X160461355Y-66357961D01*
X160461352Y-66357965D01*
X160370851Y-66504688D01*
X160370846Y-66504699D01*
X160316619Y-66668347D01*
X160306300Y-66769345D01*
X160306300Y-66806000D01*
X146174399Y-66806000D01*
X146174399Y-66769324D01*
X146173885Y-66764297D01*
X146164074Y-66668247D01*
X146155484Y-66642324D01*
X146109808Y-66504484D01*
X146019240Y-66357650D01*
X145916718Y-66255128D01*
X145883234Y-66193805D01*
X145880626Y-66159959D01*
X145880793Y-66157199D01*
X145881206Y-66150372D01*
X145870514Y-66092036D01*
X145869389Y-66084635D01*
X145862248Y-66025818D01*
X145862247Y-66025816D01*
X145858763Y-66016630D01*
X145852732Y-65995000D01*
X145850958Y-65985316D01*
X145826618Y-65931236D01*
X145823760Y-65924333D01*
X145800084Y-65861903D01*
X145802673Y-65860920D01*
X145791487Y-65805142D01*
X145816967Y-65740083D01*
X145873575Y-65699128D01*
X145915011Y-65692000D01*
X162097816Y-65692000D01*
X162164855Y-65711685D01*
G37*
G04 #@! TD.AperFunction*
G04 #@! TA.AperFunction,Conductor*
G36*
X146259940Y-53974068D02*
G01*
X146315874Y-54015939D01*
X146332789Y-54046917D01*
X146381802Y-54178328D01*
X146381803Y-54178330D01*
X146381804Y-54178331D01*
X146388366Y-54187096D01*
X146412784Y-54252558D01*
X146413100Y-54261408D01*
X146413100Y-55598936D01*
X146412320Y-55612820D01*
X146408316Y-55648353D01*
X146408315Y-55648360D01*
X146412819Y-55715140D01*
X146413100Y-55723483D01*
X146413100Y-55733504D01*
X146416788Y-55774491D01*
X146417006Y-55777258D01*
X146423604Y-55875098D01*
X146424706Y-55879471D01*
X146427962Y-55898634D01*
X146428367Y-55903138D01*
X146454466Y-55997708D01*
X146455175Y-56000396D01*
X146479128Y-56095457D01*
X146479131Y-56095463D01*
X146480993Y-56099564D01*
X146487626Y-56117858D01*
X146488823Y-56122196D01*
X146488827Y-56122208D01*
X146531390Y-56210591D01*
X146532569Y-56213111D01*
X146573111Y-56302367D01*
X146573112Y-56302370D01*
X146575683Y-56306081D01*
X146585466Y-56322881D01*
X146587424Y-56326947D01*
X146587427Y-56326952D01*
X146645054Y-56406268D01*
X146646664Y-56408537D01*
X146676325Y-56451349D01*
X146702531Y-56489176D01*
X146702533Y-56489178D01*
X146705715Y-56492360D01*
X146718350Y-56507153D01*
X146720999Y-56510799D01*
X146721007Y-56510808D01*
X146791913Y-56578602D01*
X146793902Y-56580547D01*
X148353417Y-58140062D01*
X148362683Y-58150430D01*
X148384982Y-58178392D01*
X148435390Y-58222432D01*
X148441487Y-58228132D01*
X148448570Y-58235215D01*
X148468844Y-58252141D01*
X148480182Y-58261607D01*
X148482296Y-58263413D01*
X148556118Y-58327909D01*
X148556119Y-58327910D01*
X148556122Y-58327912D01*
X148559991Y-58330223D01*
X148575863Y-58341486D01*
X148579320Y-58344372D01*
X148579320Y-58344373D01*
X148664619Y-58392772D01*
X148667001Y-58394159D01*
X148751208Y-58444471D01*
X148755425Y-58446053D01*
X148773054Y-58454301D01*
X148776970Y-58456523D01*
X148776969Y-58456523D01*
X148796960Y-58463518D01*
X148869626Y-58488945D01*
X148872111Y-58489847D01*
X148963971Y-58524322D01*
X148968398Y-58525125D01*
X148987219Y-58530093D01*
X148991474Y-58531582D01*
X149088442Y-58546939D01*
X149091037Y-58547381D01*
X149143766Y-58556950D01*
X149187571Y-58564900D01*
X149187573Y-58564900D01*
X149192081Y-58564900D01*
X149211467Y-58566425D01*
X149215930Y-58567132D01*
X149314001Y-58564931D01*
X149316783Y-58564900D01*
X168284893Y-58564900D01*
X168351932Y-58584585D01*
X168372574Y-58601219D01*
X172905581Y-63134225D01*
X172939066Y-63195548D01*
X172941900Y-63221906D01*
X172941900Y-72215200D01*
X172922215Y-72282239D01*
X172869411Y-72327994D01*
X172817900Y-72339200D01*
X168878197Y-72339200D01*
X168834865Y-72331382D01*
X168819446Y-72325631D01*
X168819441Y-72325629D01*
X168539833Y-72264804D01*
X168254401Y-72244390D01*
X168254399Y-72244390D01*
X167968966Y-72264804D01*
X167689358Y-72325629D01*
X167680408Y-72328967D01*
X167673934Y-72331382D01*
X167630603Y-72339200D01*
X163209900Y-72339200D01*
X163142861Y-72319515D01*
X163097106Y-72266711D01*
X163085900Y-72215200D01*
X163085900Y-71225613D01*
X163093719Y-71182277D01*
X163098490Y-71169485D01*
X163098491Y-71169483D01*
X163104900Y-71109873D01*
X163104899Y-70114128D01*
X163098491Y-70054517D01*
X163084087Y-70015899D01*
X163048197Y-69919671D01*
X163048193Y-69919664D01*
X162961947Y-69804455D01*
X162961944Y-69804453D01*
X162936981Y-69785765D01*
X162895110Y-69729830D01*
X162890127Y-69660139D01*
X162923613Y-69598816D01*
X162984937Y-69565332D01*
X163011286Y-69562499D01*
X163602272Y-69562499D01*
X163661883Y-69556091D01*
X163796731Y-69505796D01*
X163911946Y-69419546D01*
X163998196Y-69304331D01*
X164048491Y-69169483D01*
X164054900Y-69109873D01*
X164054899Y-68114128D01*
X164048491Y-68054517D01*
X164042266Y-68037828D01*
X164008118Y-67946271D01*
X164000300Y-67902938D01*
X164000300Y-67710624D01*
X164018762Y-67645526D01*
X164042208Y-67607516D01*
X164096474Y-67443753D01*
X164106800Y-67342677D01*
X164106799Y-66769324D01*
X164106285Y-66764297D01*
X164096474Y-66668247D01*
X164087884Y-66642324D01*
X164042208Y-66504484D01*
X163951640Y-66357650D01*
X163846118Y-66252128D01*
X163812634Y-66190805D01*
X163809800Y-66164447D01*
X163809800Y-65709037D01*
X163810026Y-65701549D01*
X163811495Y-65677265D01*
X163813606Y-65642372D01*
X163802914Y-65584036D01*
X163801789Y-65576635D01*
X163796326Y-65531643D01*
X163794648Y-65517818D01*
X163791162Y-65508629D01*
X163785132Y-65487000D01*
X163783358Y-65477316D01*
X163759018Y-65423236D01*
X163756160Y-65416333D01*
X163735146Y-65360922D01*
X163735145Y-65360920D01*
X163735144Y-65360918D01*
X163729548Y-65352811D01*
X163718525Y-65333266D01*
X163714488Y-65324295D01*
X163677934Y-65277638D01*
X163673499Y-65271611D01*
X163673122Y-65271065D01*
X163639820Y-65222817D01*
X163595438Y-65183498D01*
X163589985Y-65178364D01*
X162941427Y-64529805D01*
X162936293Y-64524351D01*
X162896983Y-64479980D01*
X162848192Y-64446302D01*
X162842160Y-64441863D01*
X162795508Y-64405314D01*
X162795499Y-64405308D01*
X162786534Y-64401274D01*
X162766986Y-64390250D01*
X162758882Y-64384656D01*
X162758878Y-64384653D01*
X162703461Y-64363636D01*
X162696544Y-64360772D01*
X162642481Y-64336441D01*
X162642482Y-64336441D01*
X162632795Y-64334666D01*
X162611192Y-64328644D01*
X162601982Y-64325152D01*
X162543135Y-64318006D01*
X162535733Y-64316879D01*
X162477430Y-64306195D01*
X162477425Y-64306195D01*
X162418261Y-64309774D01*
X162410774Y-64310000D01*
X134883784Y-64310000D01*
X134816745Y-64290315D01*
X134796103Y-64273681D01*
X133911627Y-63389205D01*
X133906493Y-63383751D01*
X133867183Y-63339380D01*
X133818392Y-63305702D01*
X133812360Y-63301263D01*
X133765708Y-63264714D01*
X133765699Y-63264708D01*
X133756734Y-63260674D01*
X133737186Y-63249650D01*
X133729082Y-63244056D01*
X133729078Y-63244053D01*
X133673661Y-63223036D01*
X133666744Y-63220172D01*
X133612681Y-63195841D01*
X133612682Y-63195841D01*
X133602995Y-63194066D01*
X133581392Y-63188044D01*
X133572182Y-63184552D01*
X133513335Y-63177406D01*
X133505933Y-63176279D01*
X133447630Y-63165595D01*
X133447625Y-63165595D01*
X133388461Y-63169174D01*
X133380974Y-63169400D01*
X126940332Y-63169400D01*
X126932828Y-63169173D01*
X126928160Y-63168890D01*
X126862435Y-63145184D01*
X126819959Y-63089708D01*
X126812306Y-63032513D01*
X126818299Y-62973851D01*
X126818300Y-62973841D01*
X126818300Y-62937200D01*
X126030800Y-62937200D01*
X126030800Y-63713561D01*
X126027773Y-63713561D01*
X126024561Y-63758474D01*
X125996060Y-63802821D01*
X125714705Y-64084176D01*
X125653382Y-64117661D01*
X125583690Y-64112677D01*
X125527757Y-64070805D01*
X125520292Y-64059616D01*
X125518378Y-64056380D01*
X125452970Y-63945780D01*
X125452968Y-63945778D01*
X125452965Y-63945774D01*
X125381071Y-63873880D01*
X125347586Y-63812557D01*
X125352570Y-63742865D01*
X125394442Y-63686932D01*
X125459906Y-63662515D01*
X125468751Y-63662199D01*
X125530800Y-63662198D01*
X125530800Y-61712200D01*
X126030800Y-61712200D01*
X126030800Y-62437200D01*
X126818299Y-62437200D01*
X126818299Y-62400560D01*
X126818298Y-62400545D01*
X126807980Y-62299547D01*
X126753753Y-62135899D01*
X126753748Y-62135888D01*
X126663247Y-61989165D01*
X126663244Y-61989161D01*
X126541338Y-61867255D01*
X126541334Y-61867252D01*
X126394611Y-61776751D01*
X126394600Y-61776746D01*
X126230952Y-61722519D01*
X126129954Y-61712200D01*
X126030800Y-61712200D01*
X125530800Y-61712200D01*
X125530800Y-61712199D01*
X125526891Y-61708290D01*
X125493406Y-61646967D01*
X125498390Y-61577275D01*
X125526887Y-61532933D01*
X127099702Y-59960119D01*
X127161025Y-59926634D01*
X127187383Y-59923800D01*
X143891774Y-59923800D01*
X143899261Y-59924026D01*
X143958426Y-59927605D01*
X143958426Y-59927604D01*
X143958428Y-59927605D01*
X144016736Y-59916919D01*
X144024130Y-59915793D01*
X144082982Y-59908648D01*
X144092188Y-59905156D01*
X144113803Y-59899130D01*
X144123485Y-59897357D01*
X144177561Y-59873018D01*
X144184417Y-59870178D01*
X144239882Y-59849144D01*
X144247980Y-59843554D01*
X144267539Y-59832522D01*
X144276505Y-59828488D01*
X144323166Y-59791930D01*
X144329198Y-59787492D01*
X144377983Y-59753820D01*
X144417317Y-59709419D01*
X144422403Y-59704017D01*
X145202603Y-58923818D01*
X145263926Y-58890333D01*
X145290284Y-58887499D01*
X145432870Y-58887499D01*
X145432876Y-58887499D01*
X145533953Y-58877174D01*
X145697716Y-58822908D01*
X145844550Y-58732340D01*
X145966540Y-58610350D01*
X146057108Y-58463516D01*
X146111374Y-58299753D01*
X146121700Y-58198677D01*
X146121699Y-57625324D01*
X146121143Y-57619884D01*
X146111374Y-57524247D01*
X146099893Y-57489600D01*
X146057108Y-57360484D01*
X146056399Y-57359335D01*
X146031761Y-57319389D01*
X146013300Y-57254293D01*
X146013300Y-56991824D01*
X146031762Y-56926726D01*
X146055208Y-56888716D01*
X146109474Y-56724953D01*
X146119800Y-56623877D01*
X146119799Y-56050524D01*
X146119432Y-56046935D01*
X146109474Y-55949447D01*
X146094129Y-55903139D01*
X146055208Y-55785684D01*
X146044300Y-55767999D01*
X146035561Y-55753830D01*
X146017100Y-55688734D01*
X146017100Y-54165758D01*
X146036785Y-54098719D01*
X146053413Y-54078082D01*
X146128929Y-54002566D01*
X146190248Y-53969084D01*
X146259940Y-53974068D01*
G37*
G04 #@! TD.AperFunction*
G04 #@! TA.AperFunction,Conductor*
G36*
X139358439Y-57047885D02*
G01*
X139404194Y-57100689D01*
X139415400Y-57152200D01*
X139415400Y-57226974D01*
X139415174Y-57234461D01*
X139411595Y-57293625D01*
X139411595Y-57293628D01*
X139422279Y-57351933D01*
X139423406Y-57359335D01*
X139430552Y-57418182D01*
X139434044Y-57427392D01*
X139440066Y-57448995D01*
X139441841Y-57458681D01*
X139466172Y-57512744D01*
X139469036Y-57519661D01*
X139490053Y-57575078D01*
X139490056Y-57575082D01*
X139495650Y-57583186D01*
X139506674Y-57602734D01*
X139510708Y-57611699D01*
X139510714Y-57611708D01*
X139547263Y-57658360D01*
X139551702Y-57664392D01*
X139585380Y-57713183D01*
X139629751Y-57752493D01*
X139635205Y-57757627D01*
X140207698Y-58330119D01*
X140241183Y-58391442D01*
X140236199Y-58461133D01*
X140194328Y-58517067D01*
X140128863Y-58541484D01*
X140120017Y-58541800D01*
X126874426Y-58541800D01*
X126866939Y-58541574D01*
X126807775Y-58537995D01*
X126807774Y-58537995D01*
X126807773Y-58537995D01*
X126807772Y-58537995D01*
X126764832Y-58545862D01*
X126749469Y-58548678D01*
X126742071Y-58549803D01*
X126683222Y-58556950D01*
X126683219Y-58556951D01*
X126674016Y-58560441D01*
X126652408Y-58566465D01*
X126642717Y-58568241D01*
X126588653Y-58592572D01*
X126581739Y-58595436D01*
X126526317Y-58616455D01*
X126518208Y-58622053D01*
X126498673Y-58633071D01*
X126489696Y-58637111D01*
X126489695Y-58637112D01*
X126443037Y-58673665D01*
X126437008Y-58678101D01*
X126388218Y-58711779D01*
X126388210Y-58711786D01*
X126348897Y-58756160D01*
X126343765Y-58761612D01*
X123584604Y-61520772D01*
X123579152Y-61525904D01*
X123534786Y-61565210D01*
X123534776Y-61565221D01*
X123501098Y-61614012D01*
X123496661Y-61620043D01*
X123460112Y-61666694D01*
X123460111Y-61666696D01*
X123456071Y-61675673D01*
X123445053Y-61695208D01*
X123439455Y-61703317D01*
X123418434Y-61758744D01*
X123415567Y-61765665D01*
X123414480Y-61768080D01*
X123369014Y-61821133D01*
X123366505Y-61822722D01*
X123294951Y-61866858D01*
X123206634Y-61955175D01*
X123145310Y-61988659D01*
X123075619Y-61983675D01*
X123046068Y-61967811D01*
X122956934Y-61903051D01*
X122956929Y-61903048D01*
X122784007Y-61826057D01*
X122784002Y-61826055D01*
X122638201Y-61795065D01*
X122598846Y-61786700D01*
X122409554Y-61786700D01*
X122377097Y-61793598D01*
X122224397Y-61826055D01*
X122224392Y-61826057D01*
X122051470Y-61903048D01*
X122051465Y-61903051D01*
X121898329Y-62014311D01*
X121771666Y-62154985D01*
X121677021Y-62318915D01*
X121677018Y-62318922D01*
X121620456Y-62493004D01*
X121618526Y-62498944D01*
X121598740Y-62687200D01*
X121618526Y-62875456D01*
X121618527Y-62875459D01*
X121677018Y-63055477D01*
X121677021Y-63055484D01*
X121771667Y-63219416D01*
X121857565Y-63314815D01*
X121898329Y-63360088D01*
X122051465Y-63471348D01*
X122051470Y-63471351D01*
X122224392Y-63548342D01*
X122224397Y-63548344D01*
X122409554Y-63587700D01*
X122409555Y-63587700D01*
X122598844Y-63587700D01*
X122598846Y-63587700D01*
X122784003Y-63548344D01*
X122956930Y-63471351D01*
X123046070Y-63406587D01*
X123111875Y-63383108D01*
X123179929Y-63398933D01*
X123206635Y-63419225D01*
X123285494Y-63498084D01*
X123318979Y-63559407D01*
X123313995Y-63629099D01*
X123272123Y-63685032D01*
X123212270Y-63707601D01*
X123212408Y-63708352D01*
X123208282Y-63709105D01*
X123207549Y-63709382D01*
X123206176Y-63709490D01*
X123206174Y-63709490D01*
X123054414Y-63753580D01*
X123054409Y-63753582D01*
X122918383Y-63834027D01*
X122918374Y-63834034D01*
X122806634Y-63945774D01*
X122806627Y-63945783D01*
X122726182Y-64081809D01*
X122726180Y-64081814D01*
X122682092Y-64233566D01*
X122682090Y-64233579D01*
X122679300Y-64269029D01*
X122679300Y-64377283D01*
X122659615Y-64444322D01*
X122611466Y-64486042D01*
X122612163Y-64487369D01*
X122605523Y-64490853D01*
X122605518Y-64490856D01*
X122605513Y-64490859D01*
X122605510Y-64490861D01*
X122597410Y-64496451D01*
X122577881Y-64507466D01*
X122568900Y-64511508D01*
X122568897Y-64511510D01*
X122568895Y-64511511D01*
X122568894Y-64511512D01*
X122545544Y-64529805D01*
X122522237Y-64548064D01*
X122516211Y-64552497D01*
X122467416Y-64586180D01*
X122467414Y-64586182D01*
X122428104Y-64630552D01*
X122422972Y-64636004D01*
X121626604Y-65432372D01*
X121621152Y-65437504D01*
X121576786Y-65476810D01*
X121576776Y-65476821D01*
X121543098Y-65525612D01*
X121538661Y-65531643D01*
X121502112Y-65578294D01*
X121502111Y-65578296D01*
X121498071Y-65587273D01*
X121487053Y-65606808D01*
X121481455Y-65614919D01*
X121460432Y-65670349D01*
X121457568Y-65677265D01*
X121433242Y-65731316D01*
X121431466Y-65741006D01*
X121425445Y-65762603D01*
X121421952Y-65771814D01*
X121421952Y-65771815D01*
X121414806Y-65830665D01*
X121413679Y-65838067D01*
X121402995Y-65896369D01*
X121402995Y-65896372D01*
X121406574Y-65955537D01*
X121406800Y-65963024D01*
X121406800Y-69715616D01*
X121387115Y-69782655D01*
X121370481Y-69803297D01*
X120933497Y-70240281D01*
X120872174Y-70273766D01*
X120845816Y-70276600D01*
X118704299Y-70276600D01*
X118637260Y-70256915D01*
X118591505Y-70204111D01*
X118580299Y-70152600D01*
X118580299Y-70119049D01*
X118580298Y-70119024D01*
X118577509Y-70083573D01*
X118569067Y-70054516D01*
X118557847Y-70015895D01*
X118557847Y-69946706D01*
X118569325Y-69907200D01*
X118563593Y-69899565D01*
X118522553Y-69887515D01*
X118482860Y-69846321D01*
X118448999Y-69789065D01*
X118452514Y-69786986D01*
X118432666Y-69741212D01*
X118443940Y-69672258D01*
X118485281Y-69623882D01*
X118485769Y-69623545D01*
X118485772Y-69623544D01*
X118493878Y-69617947D01*
X118513429Y-69606922D01*
X118522395Y-69602888D01*
X118569056Y-69566330D01*
X118575088Y-69561892D01*
X118623873Y-69528220D01*
X118663207Y-69483819D01*
X118668293Y-69478417D01*
X120835417Y-67311293D01*
X120840819Y-67306207D01*
X120885220Y-67266873D01*
X120918896Y-67218081D01*
X120923334Y-67212051D01*
X120959888Y-67165395D01*
X120963922Y-67156429D01*
X120974954Y-67136870D01*
X120980542Y-67128775D01*
X120980542Y-67128774D01*
X120980544Y-67128772D01*
X121001578Y-67073307D01*
X121004418Y-67066451D01*
X121028757Y-67012375D01*
X121030530Y-67002693D01*
X121036556Y-66981078D01*
X121040048Y-66971872D01*
X121047193Y-66913020D01*
X121048319Y-66905626D01*
X121059004Y-66847323D01*
X121059005Y-66847316D01*
X121055426Y-66788151D01*
X121055200Y-66780664D01*
X121055200Y-59576782D01*
X121074885Y-59509743D01*
X121091515Y-59489105D01*
X121903775Y-58676844D01*
X121903793Y-58676829D01*
X122611802Y-57968819D01*
X122673125Y-57935334D01*
X122699483Y-57932500D01*
X134746867Y-57932500D01*
X134813906Y-57952185D01*
X134819752Y-57956182D01*
X134929265Y-58035748D01*
X134929270Y-58035751D01*
X135102192Y-58112742D01*
X135102197Y-58112744D01*
X135287354Y-58152100D01*
X135287355Y-58152100D01*
X135476644Y-58152100D01*
X135476646Y-58152100D01*
X135661803Y-58112744D01*
X135834730Y-58035751D01*
X135987871Y-57924488D01*
X136114533Y-57783816D01*
X136209179Y-57619884D01*
X136267674Y-57439856D01*
X136287460Y-57251600D01*
X136278375Y-57165160D01*
X136290945Y-57096431D01*
X136338677Y-57045408D01*
X136401696Y-57028200D01*
X136457804Y-57028200D01*
X139291400Y-57028200D01*
X139358439Y-57047885D01*
G37*
G04 #@! TD.AperFunction*
G04 #@! TA.AperFunction,Conductor*
G36*
X119592534Y-65163459D02*
G01*
X119648467Y-65205331D01*
X119672884Y-65270795D01*
X119673200Y-65279641D01*
X119673200Y-66467705D01*
X119653515Y-66534744D01*
X119636881Y-66555386D01*
X118781526Y-67410740D01*
X118720203Y-67444225D01*
X118650511Y-67439241D01*
X118594578Y-67397369D01*
X118570161Y-67331905D01*
X118572354Y-67311233D01*
X118563593Y-67299565D01*
X118522553Y-67287515D01*
X118482860Y-67246321D01*
X118452972Y-67195783D01*
X118452965Y-67195774D01*
X118341225Y-67084034D01*
X118341216Y-67084027D01*
X118263273Y-67037932D01*
X118215589Y-66986863D01*
X118203086Y-66918121D01*
X118229731Y-66853532D01*
X118287067Y-66813602D01*
X118326394Y-66807200D01*
X118569326Y-66807200D01*
X118557587Y-66766796D01*
X118557587Y-66697604D01*
X118569326Y-66657200D01*
X118326394Y-66657200D01*
X118259355Y-66637515D01*
X118213600Y-66584711D01*
X118203656Y-66515553D01*
X118232681Y-66451997D01*
X118263273Y-66426468D01*
X118335983Y-66383467D01*
X118341220Y-66380370D01*
X118452970Y-66268620D01*
X118482860Y-66218079D01*
X118533929Y-66170396D01*
X118564937Y-66163044D01*
X118569325Y-66157199D01*
X118557847Y-66117689D01*
X118557847Y-66048500D01*
X118577509Y-65980827D01*
X118580300Y-65945363D01*
X118580299Y-65911763D01*
X118599982Y-65844726D01*
X118652784Y-65798970D01*
X118689352Y-65788667D01*
X118735640Y-65783048D01*
X118744846Y-65779556D01*
X118766461Y-65773530D01*
X118776143Y-65771757D01*
X118830219Y-65747418D01*
X118837075Y-65744578D01*
X118892540Y-65723544D01*
X118900638Y-65717954D01*
X118920197Y-65706922D01*
X118929163Y-65702888D01*
X118975824Y-65666330D01*
X118981856Y-65661892D01*
X119030641Y-65628220D01*
X119069975Y-65583819D01*
X119075061Y-65578417D01*
X119461520Y-65191959D01*
X119522842Y-65158475D01*
X119592534Y-65163459D01*
G37*
G04 #@! TD.AperFunction*
G04 #@! TA.AperFunction,Conductor*
G36*
X117322839Y-66527384D02*
G01*
X117368594Y-66580188D01*
X117379800Y-66631699D01*
X117379800Y-66832700D01*
X117360115Y-66899739D01*
X117307311Y-66945494D01*
X117255800Y-66956700D01*
X117003800Y-66956700D01*
X116936761Y-66937015D01*
X116891006Y-66884211D01*
X116879800Y-66832700D01*
X116879800Y-66631699D01*
X116899485Y-66564660D01*
X116952289Y-66518905D01*
X117003797Y-66507699D01*
X117255801Y-66507699D01*
X117322839Y-66527384D01*
G37*
G04 #@! TD.AperFunction*
M02*
