M48
; DRILL file {KiCad 7.0.11-2.fc39} date jeu. 06 juin 2024 09:07:49
; FORMAT={-:-/ absolute / metric / decimal}
; #@! TF.CreationDate,2024-06-06T09:07:49+02:00
; #@! TF.GenerationSoftware,Kicad,Pcbnew,7.0.11-2.fc39
; #@! TF.FileFunction,Plated,1,2,PTH
FMAT,2
METRIC
; #@! TA.AperFunction,Plated,PTH,ViaDrill
T1C0.300
; #@! TA.AperFunction,Plated,PTH,ViaDrill
T2C0.400
; #@! TA.AperFunction,Plated,PTH,ComponentDrill
T3C1.000
; #@! TA.AperFunction,Plated,PTH,ComponentDrill
T4C1.300
; #@! TA.AperFunction,Plated,PTH,ComponentDrill
T5C2.000
%
G90
G05
T1
X105.131Y-63.856
X105.131Y-69.901
X111.963Y-52.426
X111.963Y-57.912
X120.853Y-52.426
X129.743Y-52.426
X129.743Y-58.217
X131.14Y-69.901
X137.795Y-57.912
X138.633Y-63.906
X138.633Y-69.901
X147.523Y-63.957
X147.523Y-69.901
X156.413Y-52.426
X156.413Y-63.957
X156.413Y-69.901
X165.303Y-52.426
X165.303Y-63.957
X165.303Y-69.901
X174.193Y-52.426
X177.902Y-69.901
T2
X105.791Y-67.97
X113.614Y-68.529
X114.478Y-60.503
X118.847Y-69.647
X119.253Y-66.396
X122.504Y-62.687
X127.076Y-62.738
X127.94Y-65.735
X135.382Y-57.252
X140.106Y-56.337
T3
X108.331Y-76.269
X111.76Y-98.552
X114.3Y-98.552
X116.84Y-98.552
X120.331Y-76.269
X126.289Y-76.192
X129.692Y-98.679
X132.232Y-98.679
X134.772Y-98.679
X134.976Y-53.086
X137.516Y-53.086
X138.289Y-76.192
X140.056Y-53.086
X142.596Y-53.086
X144.272Y-76.2
X145.136Y-53.086
X147.676Y-53.086
X147.726Y-98.603
X150.266Y-98.603
X152.806Y-98.603
X156.272Y-76.2
X162.204Y-76.2
X165.71Y-98.603
X168.25Y-98.603
X170.79Y-98.603
X174.204Y-76.2
T4
X108.331Y-88.469
X114.381Y-74.319
X120.381Y-88.519
X126.289Y-88.392
X132.339Y-74.242
X138.339Y-88.442
X144.272Y-88.4
X150.322Y-74.25
X156.322Y-88.45
X162.204Y-88.4
X168.254Y-74.25
X174.254Y-88.45
T5
X105.969Y-56.49
X105.969Y-98.501
X176.632Y-56.49
X176.632Y-98.603
M30
