%TF.GenerationSoftware,KiCad,Pcbnew,7.0.11-2.fc39*%
%TF.CreationDate,2024-06-09T18:16:30+02:00*%
%TF.ProjectId,current_measurement_extension,63757272-656e-4745-9f6d-656173757265,1.0*%
%TF.SameCoordinates,Original*%
%TF.FileFunction,Drillmap*%
%TF.FilePolarity,Positive*%
%FSLAX45Y45*%
G04 Gerber Fmt 4.5, Leading zero omitted, Abs format (unit mm)*
G04 Created by KiCad (PCBNEW 7.0.11-2.fc39) date 2024-06-09 18:16:30*
%MOMM*%
%LPD*%
G01*
G04 APERTURE LIST*
%ADD10C,0.100000*%
%ADD11C,0.200000*%
G04 APERTURE END LIST*
D10*
X8717280Y-4579620D02*
X12844780Y-4579620D01*
X12844780Y-8041640D01*
X8717280Y-8041640D01*
X8717280Y-4579620D01*
D11*
X8973057Y-8358124D02*
X8973057Y-8158124D01*
X8973057Y-8158124D02*
X9020676Y-8158124D01*
X9020676Y-8158124D02*
X9049247Y-8167648D01*
X9049247Y-8167648D02*
X9068295Y-8186695D01*
X9068295Y-8186695D02*
X9077819Y-8205743D01*
X9077819Y-8205743D02*
X9087343Y-8243838D01*
X9087343Y-8243838D02*
X9087343Y-8272409D01*
X9087343Y-8272409D02*
X9077819Y-8310505D01*
X9077819Y-8310505D02*
X9068295Y-8329552D01*
X9068295Y-8329552D02*
X9049247Y-8348600D01*
X9049247Y-8348600D02*
X9020676Y-8358124D01*
X9020676Y-8358124D02*
X8973057Y-8358124D01*
X9173057Y-8358124D02*
X9173057Y-8224790D01*
X9173057Y-8262886D02*
X9182581Y-8243838D01*
X9182581Y-8243838D02*
X9192104Y-8234314D01*
X9192104Y-8234314D02*
X9211152Y-8224790D01*
X9211152Y-8224790D02*
X9230200Y-8224790D01*
X9296866Y-8358124D02*
X9296866Y-8224790D01*
X9296866Y-8158124D02*
X9287343Y-8167648D01*
X9287343Y-8167648D02*
X9296866Y-8177171D01*
X9296866Y-8177171D02*
X9306390Y-8167648D01*
X9306390Y-8167648D02*
X9296866Y-8158124D01*
X9296866Y-8158124D02*
X9296866Y-8177171D01*
X9420676Y-8358124D02*
X9401628Y-8348600D01*
X9401628Y-8348600D02*
X9392104Y-8329552D01*
X9392104Y-8329552D02*
X9392104Y-8158124D01*
X9525438Y-8358124D02*
X9506390Y-8348600D01*
X9506390Y-8348600D02*
X9496866Y-8329552D01*
X9496866Y-8329552D02*
X9496866Y-8158124D01*
X9754009Y-8358124D02*
X9754009Y-8158124D01*
X9754009Y-8158124D02*
X9820676Y-8300981D01*
X9820676Y-8300981D02*
X9887343Y-8158124D01*
X9887343Y-8158124D02*
X9887343Y-8358124D01*
X10068295Y-8358124D02*
X10068295Y-8253362D01*
X10068295Y-8253362D02*
X10058771Y-8234314D01*
X10058771Y-8234314D02*
X10039724Y-8224790D01*
X10039724Y-8224790D02*
X10001628Y-8224790D01*
X10001628Y-8224790D02*
X9982581Y-8234314D01*
X10068295Y-8348600D02*
X10049247Y-8358124D01*
X10049247Y-8358124D02*
X10001628Y-8358124D01*
X10001628Y-8358124D02*
X9982581Y-8348600D01*
X9982581Y-8348600D02*
X9973057Y-8329552D01*
X9973057Y-8329552D02*
X9973057Y-8310505D01*
X9973057Y-8310505D02*
X9982581Y-8291457D01*
X9982581Y-8291457D02*
X10001628Y-8281933D01*
X10001628Y-8281933D02*
X10049247Y-8281933D01*
X10049247Y-8281933D02*
X10068295Y-8272409D01*
X10163533Y-8224790D02*
X10163533Y-8424790D01*
X10163533Y-8234314D02*
X10182581Y-8224790D01*
X10182581Y-8224790D02*
X10220676Y-8224790D01*
X10220676Y-8224790D02*
X10239724Y-8234314D01*
X10239724Y-8234314D02*
X10249247Y-8243838D01*
X10249247Y-8243838D02*
X10258771Y-8262886D01*
X10258771Y-8262886D02*
X10258771Y-8320028D01*
X10258771Y-8320028D02*
X10249247Y-8339076D01*
X10249247Y-8339076D02*
X10239724Y-8348600D01*
X10239724Y-8348600D02*
X10220676Y-8358124D01*
X10220676Y-8358124D02*
X10182581Y-8358124D01*
X10182581Y-8358124D02*
X10163533Y-8348600D01*
X10344485Y-8339076D02*
X10354009Y-8348600D01*
X10354009Y-8348600D02*
X10344485Y-8358124D01*
X10344485Y-8358124D02*
X10334962Y-8348600D01*
X10334962Y-8348600D02*
X10344485Y-8339076D01*
X10344485Y-8339076D02*
X10344485Y-8358124D01*
X10344485Y-8234314D02*
X10354009Y-8243838D01*
X10354009Y-8243838D02*
X10344485Y-8253362D01*
X10344485Y-8253362D02*
X10334962Y-8243838D01*
X10334962Y-8243838D02*
X10344485Y-8234314D01*
X10344485Y-8234314D02*
X10344485Y-8253362D01*
M02*
