%TF.GenerationSoftware,KiCad,Pcbnew,7.0.11-2.fc39*%
%TF.CreationDate,2024-06-09T18:16:30+02:00*%
%TF.ProjectId,current_measurement_extension,63757272-656e-4745-9f6d-656173757265,1.0*%
%TF.SameCoordinates,Original*%
%TF.FileFunction,Drillmap*%
%TF.FilePolarity,Positive*%
%FSLAX45Y45*%
G04 Gerber Fmt 4.5, Leading zero omitted, Abs format (unit mm)*
G04 Created by KiCad (PCBNEW 7.0.11-2.fc39) date 2024-06-09 18:16:30*
%MOMM*%
%LPD*%
G01*
G04 APERTURE LIST*
%ADD10C,0.100000*%
%ADD11C,0.200000*%
G04 APERTURE END LIST*
D10*
X8717280Y-4579620D02*
X12844780Y-4579620D01*
X12844780Y-8041640D01*
X8717280Y-8041640D01*
X8717280Y-4579620D01*
D11*
D10*
X8814040Y-4663680D02*
X8844040Y-4693680D01*
X8844040Y-4663680D02*
X8814040Y-4693680D01*
X8814040Y-5263120D02*
X8844040Y-5293120D01*
X8844040Y-5263120D02*
X8814040Y-5293120D01*
X8814040Y-5857480D02*
X8844040Y-5887480D01*
X8844040Y-5857480D02*
X8814040Y-5887480D01*
X8814040Y-6462000D02*
X8844040Y-6492000D01*
X8844040Y-6462000D02*
X8814040Y-6492000D01*
X9464280Y-4663680D02*
X9494280Y-4693680D01*
X9494280Y-4663680D02*
X9464280Y-4693680D01*
X9464280Y-5263120D02*
X9494280Y-5293120D01*
X9494280Y-5263120D02*
X9464280Y-5293120D01*
X10429480Y-4993880D02*
X10459480Y-5023880D01*
X10459480Y-4993880D02*
X10429480Y-5023880D01*
X10429480Y-5237720D02*
X10459480Y-5267720D01*
X10459480Y-5237720D02*
X10429480Y-5267720D01*
X11145760Y-5562840D02*
X11175760Y-5592840D01*
X11175760Y-5562840D02*
X11145760Y-5592840D01*
X11155920Y-6462000D02*
X11185920Y-6492000D01*
X11185920Y-6462000D02*
X11155920Y-6492000D01*
X11181320Y-4993880D02*
X11211320Y-5023880D01*
X11211320Y-4993880D02*
X11181320Y-5023880D01*
X11445480Y-5263120D02*
X11475480Y-5293120D01*
X11475480Y-5263120D02*
X11445480Y-5293120D01*
X11445480Y-5862560D02*
X11475480Y-5892560D01*
X11475480Y-5862560D02*
X11445480Y-5892560D01*
X11445480Y-6462000D02*
X11475480Y-6492000D01*
X11475480Y-6462000D02*
X11445480Y-6492000D01*
X12080480Y-4663680D02*
X12110480Y-4693680D01*
X12110480Y-4663680D02*
X12080480Y-4693680D01*
X12080480Y-5263120D02*
X12110480Y-5293120D01*
X12110480Y-5263120D02*
X12080480Y-5293120D01*
X12080480Y-5862560D02*
X12110480Y-5892560D01*
X12110480Y-5862560D02*
X12080480Y-5892560D01*
X12080480Y-6462000D02*
X12110480Y-6492000D01*
X12110480Y-6462000D02*
X12080480Y-6492000D01*
X12715480Y-4663680D02*
X12745480Y-4693680D01*
X12745480Y-4663680D02*
X12715480Y-4693680D01*
X12715480Y-5263120D02*
X12745480Y-5293120D01*
X12745480Y-5263120D02*
X12715480Y-5293120D01*
X12715480Y-5867640D02*
X12745480Y-5897640D01*
X12745480Y-5867640D02*
X12715480Y-5897640D01*
X12715480Y-6462000D02*
X12745480Y-6492000D01*
X12745480Y-6462000D02*
X12715480Y-6492000D01*
X9199560Y-6075680D02*
G75*
G03*
X9159560Y-6075680I-20000J0D01*
G01*
X9159560Y-6075680D02*
G75*
G03*
X9199560Y-6075680I20000J0D01*
G01*
X10550840Y-5379720D02*
G75*
G03*
X10510840Y-5379720I-20000J0D01*
G01*
X10510840Y-5379720D02*
G75*
G03*
X10550840Y-5379720I20000J0D01*
G01*
X10759120Y-5298440D02*
G75*
G03*
X10719120Y-5298440I-20000J0D01*
G01*
X10719120Y-5298440D02*
G75*
G03*
X10759120Y-5298440I20000J0D01*
G01*
X10921680Y-5877560D02*
G75*
G03*
X10881680Y-5877560I-20000J0D01*
G01*
X10881680Y-5877560D02*
G75*
G03*
X10921680Y-5877560I20000J0D01*
G01*
X11104560Y-5420360D02*
G75*
G03*
X11064560Y-5420360I-20000J0D01*
G01*
X11064560Y-5420360D02*
G75*
G03*
X11104560Y-5420360I20000J0D01*
G01*
X11358560Y-6436360D02*
G75*
G03*
X11318560Y-6436360I-20000J0D01*
G01*
X11318560Y-6436360D02*
G75*
G03*
X11358560Y-6436360I20000J0D01*
G01*
X9839960Y-7691920D02*
X9839960Y-7791920D01*
X9789960Y-7741920D02*
X9889960Y-7741920D01*
X10063480Y-4750600D02*
X10063480Y-4850600D01*
X10013480Y-4800600D02*
X10113480Y-4800600D01*
X10093960Y-7691920D02*
X10093960Y-7791920D01*
X10043960Y-7741920D02*
X10143960Y-7741920D01*
X10317480Y-4750600D02*
X10317480Y-4850600D01*
X10267480Y-4800600D02*
X10367480Y-4800600D01*
X10347960Y-7691920D02*
X10347960Y-7791920D01*
X10297960Y-7741920D02*
X10397960Y-7741920D01*
X10571480Y-4750600D02*
X10571480Y-4850600D01*
X10521480Y-4800600D02*
X10621480Y-4800600D01*
X10825480Y-4750600D02*
X10825480Y-4850600D01*
X10775480Y-4800600D02*
X10875480Y-4800600D01*
X11079480Y-4750600D02*
X11079480Y-4850600D01*
X11029480Y-4800600D02*
X11129480Y-4800600D01*
X11257280Y-7691920D02*
X11257280Y-7791920D01*
X11207280Y-7741920D02*
X11307280Y-7741920D01*
X11333480Y-4750600D02*
X11333480Y-4850600D01*
X11283480Y-4800600D02*
X11383480Y-4800600D01*
X11511280Y-7691920D02*
X11511280Y-7791920D01*
X11461280Y-7741920D02*
X11561280Y-7741920D01*
X11765280Y-7691920D02*
X11765280Y-7791920D01*
X11715280Y-7741920D02*
X11815280Y-7741920D01*
D11*
X8973057Y-8358124D02*
X8973057Y-8158124D01*
X8973057Y-8158124D02*
X9020676Y-8158124D01*
X9020676Y-8158124D02*
X9049247Y-8167648D01*
X9049247Y-8167648D02*
X9068295Y-8186695D01*
X9068295Y-8186695D02*
X9077819Y-8205743D01*
X9077819Y-8205743D02*
X9087343Y-8243838D01*
X9087343Y-8243838D02*
X9087343Y-8272409D01*
X9087343Y-8272409D02*
X9077819Y-8310505D01*
X9077819Y-8310505D02*
X9068295Y-8329552D01*
X9068295Y-8329552D02*
X9049247Y-8348600D01*
X9049247Y-8348600D02*
X9020676Y-8358124D01*
X9020676Y-8358124D02*
X8973057Y-8358124D01*
X9173057Y-8358124D02*
X9173057Y-8224790D01*
X9173057Y-8262886D02*
X9182581Y-8243838D01*
X9182581Y-8243838D02*
X9192104Y-8234314D01*
X9192104Y-8234314D02*
X9211152Y-8224790D01*
X9211152Y-8224790D02*
X9230200Y-8224790D01*
X9296866Y-8358124D02*
X9296866Y-8224790D01*
X9296866Y-8158124D02*
X9287343Y-8167648D01*
X9287343Y-8167648D02*
X9296866Y-8177171D01*
X9296866Y-8177171D02*
X9306390Y-8167648D01*
X9306390Y-8167648D02*
X9296866Y-8158124D01*
X9296866Y-8158124D02*
X9296866Y-8177171D01*
X9420676Y-8358124D02*
X9401628Y-8348600D01*
X9401628Y-8348600D02*
X9392104Y-8329552D01*
X9392104Y-8329552D02*
X9392104Y-8158124D01*
X9525438Y-8358124D02*
X9506390Y-8348600D01*
X9506390Y-8348600D02*
X9496866Y-8329552D01*
X9496866Y-8329552D02*
X9496866Y-8158124D01*
X9754009Y-8358124D02*
X9754009Y-8158124D01*
X9754009Y-8158124D02*
X9820676Y-8300981D01*
X9820676Y-8300981D02*
X9887343Y-8158124D01*
X9887343Y-8158124D02*
X9887343Y-8358124D01*
X10068295Y-8358124D02*
X10068295Y-8253362D01*
X10068295Y-8253362D02*
X10058771Y-8234314D01*
X10058771Y-8234314D02*
X10039724Y-8224790D01*
X10039724Y-8224790D02*
X10001628Y-8224790D01*
X10001628Y-8224790D02*
X9982581Y-8234314D01*
X10068295Y-8348600D02*
X10049247Y-8358124D01*
X10049247Y-8358124D02*
X10001628Y-8358124D01*
X10001628Y-8358124D02*
X9982581Y-8348600D01*
X9982581Y-8348600D02*
X9973057Y-8329552D01*
X9973057Y-8329552D02*
X9973057Y-8310505D01*
X9973057Y-8310505D02*
X9982581Y-8291457D01*
X9982581Y-8291457D02*
X10001628Y-8281933D01*
X10001628Y-8281933D02*
X10049247Y-8281933D01*
X10049247Y-8281933D02*
X10068295Y-8272409D01*
X10163533Y-8224790D02*
X10163533Y-8424790D01*
X10163533Y-8234314D02*
X10182581Y-8224790D01*
X10182581Y-8224790D02*
X10220676Y-8224790D01*
X10220676Y-8224790D02*
X10239724Y-8234314D01*
X10239724Y-8234314D02*
X10249247Y-8243838D01*
X10249247Y-8243838D02*
X10258771Y-8262886D01*
X10258771Y-8262886D02*
X10258771Y-8320028D01*
X10258771Y-8320028D02*
X10249247Y-8339076D01*
X10249247Y-8339076D02*
X10239724Y-8348600D01*
X10239724Y-8348600D02*
X10220676Y-8358124D01*
X10220676Y-8358124D02*
X10182581Y-8358124D01*
X10182581Y-8358124D02*
X10163533Y-8348600D01*
X10344485Y-8339076D02*
X10354009Y-8348600D01*
X10354009Y-8348600D02*
X10344485Y-8358124D01*
X10344485Y-8358124D02*
X10334962Y-8348600D01*
X10334962Y-8348600D02*
X10344485Y-8339076D01*
X10344485Y-8339076D02*
X10344485Y-8358124D01*
X10344485Y-8234314D02*
X10354009Y-8243838D01*
X10354009Y-8243838D02*
X10344485Y-8253362D01*
X10344485Y-8253362D02*
X10334962Y-8243838D01*
X10334962Y-8243838D02*
X10344485Y-8234314D01*
X10344485Y-8234314D02*
X10344485Y-8253362D01*
D10*
X8682280Y-8671640D02*
X8712280Y-8701640D01*
X8712280Y-8671640D02*
X8682280Y-8701640D01*
D11*
X9011152Y-8578124D02*
X9030200Y-8578124D01*
X9030200Y-8578124D02*
X9049247Y-8587648D01*
X9049247Y-8587648D02*
X9058771Y-8597171D01*
X9058771Y-8597171D02*
X9068295Y-8616219D01*
X9068295Y-8616219D02*
X9077819Y-8654314D01*
X9077819Y-8654314D02*
X9077819Y-8701933D01*
X9077819Y-8701933D02*
X9068295Y-8740029D01*
X9068295Y-8740029D02*
X9058771Y-8759076D01*
X9058771Y-8759076D02*
X9049247Y-8768600D01*
X9049247Y-8768600D02*
X9030200Y-8778124D01*
X9030200Y-8778124D02*
X9011152Y-8778124D01*
X9011152Y-8778124D02*
X8992104Y-8768600D01*
X8992104Y-8768600D02*
X8982581Y-8759076D01*
X8982581Y-8759076D02*
X8973057Y-8740029D01*
X8973057Y-8740029D02*
X8963533Y-8701933D01*
X8963533Y-8701933D02*
X8963533Y-8654314D01*
X8963533Y-8654314D02*
X8973057Y-8616219D01*
X8973057Y-8616219D02*
X8982581Y-8597171D01*
X8982581Y-8597171D02*
X8992104Y-8587648D01*
X8992104Y-8587648D02*
X9011152Y-8578124D01*
X9163533Y-8759076D02*
X9173057Y-8768600D01*
X9173057Y-8768600D02*
X9163533Y-8778124D01*
X9163533Y-8778124D02*
X9154009Y-8768600D01*
X9154009Y-8768600D02*
X9163533Y-8759076D01*
X9163533Y-8759076D02*
X9163533Y-8778124D01*
X9239724Y-8578124D02*
X9363533Y-8578124D01*
X9363533Y-8578124D02*
X9296866Y-8654314D01*
X9296866Y-8654314D02*
X9325438Y-8654314D01*
X9325438Y-8654314D02*
X9344485Y-8663838D01*
X9344485Y-8663838D02*
X9354009Y-8673362D01*
X9354009Y-8673362D02*
X9363533Y-8692410D01*
X9363533Y-8692410D02*
X9363533Y-8740029D01*
X9363533Y-8740029D02*
X9354009Y-8759076D01*
X9354009Y-8759076D02*
X9344485Y-8768600D01*
X9344485Y-8768600D02*
X9325438Y-8778124D01*
X9325438Y-8778124D02*
X9268295Y-8778124D01*
X9268295Y-8778124D02*
X9249247Y-8768600D01*
X9249247Y-8768600D02*
X9239724Y-8759076D01*
X9487343Y-8578124D02*
X9506390Y-8578124D01*
X9506390Y-8578124D02*
X9525438Y-8587648D01*
X9525438Y-8587648D02*
X9534962Y-8597171D01*
X9534962Y-8597171D02*
X9544485Y-8616219D01*
X9544485Y-8616219D02*
X9554009Y-8654314D01*
X9554009Y-8654314D02*
X9554009Y-8701933D01*
X9554009Y-8701933D02*
X9544485Y-8740029D01*
X9544485Y-8740029D02*
X9534962Y-8759076D01*
X9534962Y-8759076D02*
X9525438Y-8768600D01*
X9525438Y-8768600D02*
X9506390Y-8778124D01*
X9506390Y-8778124D02*
X9487343Y-8778124D01*
X9487343Y-8778124D02*
X9468295Y-8768600D01*
X9468295Y-8768600D02*
X9458771Y-8759076D01*
X9458771Y-8759076D02*
X9449247Y-8740029D01*
X9449247Y-8740029D02*
X9439724Y-8701933D01*
X9439724Y-8701933D02*
X9439724Y-8654314D01*
X9439724Y-8654314D02*
X9449247Y-8616219D01*
X9449247Y-8616219D02*
X9458771Y-8597171D01*
X9458771Y-8597171D02*
X9468295Y-8587648D01*
X9468295Y-8587648D02*
X9487343Y-8578124D01*
X9677819Y-8578124D02*
X9696866Y-8578124D01*
X9696866Y-8578124D02*
X9715914Y-8587648D01*
X9715914Y-8587648D02*
X9725438Y-8597171D01*
X9725438Y-8597171D02*
X9734962Y-8616219D01*
X9734962Y-8616219D02*
X9744485Y-8654314D01*
X9744485Y-8654314D02*
X9744485Y-8701933D01*
X9744485Y-8701933D02*
X9734962Y-8740029D01*
X9734962Y-8740029D02*
X9725438Y-8759076D01*
X9725438Y-8759076D02*
X9715914Y-8768600D01*
X9715914Y-8768600D02*
X9696866Y-8778124D01*
X9696866Y-8778124D02*
X9677819Y-8778124D01*
X9677819Y-8778124D02*
X9658771Y-8768600D01*
X9658771Y-8768600D02*
X9649247Y-8759076D01*
X9649247Y-8759076D02*
X9639724Y-8740029D01*
X9639724Y-8740029D02*
X9630200Y-8701933D01*
X9630200Y-8701933D02*
X9630200Y-8654314D01*
X9630200Y-8654314D02*
X9639724Y-8616219D01*
X9639724Y-8616219D02*
X9649247Y-8597171D01*
X9649247Y-8597171D02*
X9658771Y-8587648D01*
X9658771Y-8587648D02*
X9677819Y-8578124D01*
X9830200Y-8778124D02*
X9830200Y-8644790D01*
X9830200Y-8663838D02*
X9839724Y-8654314D01*
X9839724Y-8654314D02*
X9858771Y-8644790D01*
X9858771Y-8644790D02*
X9887343Y-8644790D01*
X9887343Y-8644790D02*
X9906390Y-8654314D01*
X9906390Y-8654314D02*
X9915914Y-8673362D01*
X9915914Y-8673362D02*
X9915914Y-8778124D01*
X9915914Y-8673362D02*
X9925438Y-8654314D01*
X9925438Y-8654314D02*
X9944485Y-8644790D01*
X9944485Y-8644790D02*
X9973057Y-8644790D01*
X9973057Y-8644790D02*
X9992105Y-8654314D01*
X9992105Y-8654314D02*
X10001628Y-8673362D01*
X10001628Y-8673362D02*
X10001628Y-8778124D01*
X10096866Y-8778124D02*
X10096866Y-8644790D01*
X10096866Y-8663838D02*
X10106390Y-8654314D01*
X10106390Y-8654314D02*
X10125438Y-8644790D01*
X10125438Y-8644790D02*
X10154009Y-8644790D01*
X10154009Y-8644790D02*
X10173057Y-8654314D01*
X10173057Y-8654314D02*
X10182581Y-8673362D01*
X10182581Y-8673362D02*
X10182581Y-8778124D01*
X10182581Y-8673362D02*
X10192105Y-8654314D01*
X10192105Y-8654314D02*
X10211152Y-8644790D01*
X10211152Y-8644790D02*
X10239724Y-8644790D01*
X10239724Y-8644790D02*
X10258771Y-8654314D01*
X10258771Y-8654314D02*
X10268295Y-8673362D01*
X10268295Y-8673362D02*
X10268295Y-8778124D01*
X10658771Y-8568600D02*
X10487343Y-8825743D01*
X10915914Y-8578124D02*
X10934962Y-8578124D01*
X10934962Y-8578124D02*
X10954009Y-8587648D01*
X10954009Y-8587648D02*
X10963533Y-8597171D01*
X10963533Y-8597171D02*
X10973057Y-8616219D01*
X10973057Y-8616219D02*
X10982581Y-8654314D01*
X10982581Y-8654314D02*
X10982581Y-8701933D01*
X10982581Y-8701933D02*
X10973057Y-8740029D01*
X10973057Y-8740029D02*
X10963533Y-8759076D01*
X10963533Y-8759076D02*
X10954009Y-8768600D01*
X10954009Y-8768600D02*
X10934962Y-8778124D01*
X10934962Y-8778124D02*
X10915914Y-8778124D01*
X10915914Y-8778124D02*
X10896867Y-8768600D01*
X10896867Y-8768600D02*
X10887343Y-8759076D01*
X10887343Y-8759076D02*
X10877819Y-8740029D01*
X10877819Y-8740029D02*
X10868295Y-8701933D01*
X10868295Y-8701933D02*
X10868295Y-8654314D01*
X10868295Y-8654314D02*
X10877819Y-8616219D01*
X10877819Y-8616219D02*
X10887343Y-8597171D01*
X10887343Y-8597171D02*
X10896867Y-8587648D01*
X10896867Y-8587648D02*
X10915914Y-8578124D01*
X11068295Y-8759076D02*
X11077819Y-8768600D01*
X11077819Y-8768600D02*
X11068295Y-8778124D01*
X11068295Y-8778124D02*
X11058771Y-8768600D01*
X11058771Y-8768600D02*
X11068295Y-8759076D01*
X11068295Y-8759076D02*
X11068295Y-8778124D01*
X11201628Y-8578124D02*
X11220676Y-8578124D01*
X11220676Y-8578124D02*
X11239724Y-8587648D01*
X11239724Y-8587648D02*
X11249247Y-8597171D01*
X11249247Y-8597171D02*
X11258771Y-8616219D01*
X11258771Y-8616219D02*
X11268295Y-8654314D01*
X11268295Y-8654314D02*
X11268295Y-8701933D01*
X11268295Y-8701933D02*
X11258771Y-8740029D01*
X11258771Y-8740029D02*
X11249247Y-8759076D01*
X11249247Y-8759076D02*
X11239724Y-8768600D01*
X11239724Y-8768600D02*
X11220676Y-8778124D01*
X11220676Y-8778124D02*
X11201628Y-8778124D01*
X11201628Y-8778124D02*
X11182581Y-8768600D01*
X11182581Y-8768600D02*
X11173057Y-8759076D01*
X11173057Y-8759076D02*
X11163533Y-8740029D01*
X11163533Y-8740029D02*
X11154009Y-8701933D01*
X11154009Y-8701933D02*
X11154009Y-8654314D01*
X11154009Y-8654314D02*
X11163533Y-8616219D01*
X11163533Y-8616219D02*
X11173057Y-8597171D01*
X11173057Y-8597171D02*
X11182581Y-8587648D01*
X11182581Y-8587648D02*
X11201628Y-8578124D01*
X11458771Y-8778124D02*
X11344486Y-8778124D01*
X11401628Y-8778124D02*
X11401628Y-8578124D01*
X11401628Y-8578124D02*
X11382581Y-8606695D01*
X11382581Y-8606695D02*
X11363533Y-8625743D01*
X11363533Y-8625743D02*
X11344486Y-8635267D01*
X11649247Y-8778124D02*
X11534962Y-8778124D01*
X11592105Y-8778124D02*
X11592105Y-8578124D01*
X11592105Y-8578124D02*
X11573057Y-8606695D01*
X11573057Y-8606695D02*
X11554009Y-8625743D01*
X11554009Y-8625743D02*
X11534962Y-8635267D01*
X11763533Y-8663838D02*
X11744486Y-8654314D01*
X11744486Y-8654314D02*
X11734962Y-8644790D01*
X11734962Y-8644790D02*
X11725438Y-8625743D01*
X11725438Y-8625743D02*
X11725438Y-8616219D01*
X11725438Y-8616219D02*
X11734962Y-8597171D01*
X11734962Y-8597171D02*
X11744486Y-8587648D01*
X11744486Y-8587648D02*
X11763533Y-8578124D01*
X11763533Y-8578124D02*
X11801628Y-8578124D01*
X11801628Y-8578124D02*
X11820676Y-8587648D01*
X11820676Y-8587648D02*
X11830200Y-8597171D01*
X11830200Y-8597171D02*
X11839724Y-8616219D01*
X11839724Y-8616219D02*
X11839724Y-8625743D01*
X11839724Y-8625743D02*
X11830200Y-8644790D01*
X11830200Y-8644790D02*
X11820676Y-8654314D01*
X11820676Y-8654314D02*
X11801628Y-8663838D01*
X11801628Y-8663838D02*
X11763533Y-8663838D01*
X11763533Y-8663838D02*
X11744486Y-8673362D01*
X11744486Y-8673362D02*
X11734962Y-8682886D01*
X11734962Y-8682886D02*
X11725438Y-8701933D01*
X11725438Y-8701933D02*
X11725438Y-8740029D01*
X11725438Y-8740029D02*
X11734962Y-8759076D01*
X11734962Y-8759076D02*
X11744486Y-8768600D01*
X11744486Y-8768600D02*
X11763533Y-8778124D01*
X11763533Y-8778124D02*
X11801628Y-8778124D01*
X11801628Y-8778124D02*
X11820676Y-8768600D01*
X11820676Y-8768600D02*
X11830200Y-8759076D01*
X11830200Y-8759076D02*
X11839724Y-8740029D01*
X11839724Y-8740029D02*
X11839724Y-8701933D01*
X11839724Y-8701933D02*
X11830200Y-8682886D01*
X11830200Y-8682886D02*
X11820676Y-8673362D01*
X11820676Y-8673362D02*
X11801628Y-8663838D01*
X11915914Y-8578124D02*
X11915914Y-8616219D01*
X11992105Y-8578124D02*
X11992105Y-8616219D01*
X12287343Y-8854314D02*
X12277819Y-8844790D01*
X12277819Y-8844790D02*
X12258771Y-8816219D01*
X12258771Y-8816219D02*
X12249248Y-8797171D01*
X12249248Y-8797171D02*
X12239724Y-8768600D01*
X12239724Y-8768600D02*
X12230200Y-8720981D01*
X12230200Y-8720981D02*
X12230200Y-8682886D01*
X12230200Y-8682886D02*
X12239724Y-8635267D01*
X12239724Y-8635267D02*
X12249248Y-8606695D01*
X12249248Y-8606695D02*
X12258771Y-8587648D01*
X12258771Y-8587648D02*
X12277819Y-8559076D01*
X12277819Y-8559076D02*
X12287343Y-8549552D01*
X12354009Y-8597171D02*
X12363533Y-8587648D01*
X12363533Y-8587648D02*
X12382581Y-8578124D01*
X12382581Y-8578124D02*
X12430200Y-8578124D01*
X12430200Y-8578124D02*
X12449248Y-8587648D01*
X12449248Y-8587648D02*
X12458771Y-8597171D01*
X12458771Y-8597171D02*
X12468295Y-8616219D01*
X12468295Y-8616219D02*
X12468295Y-8635267D01*
X12468295Y-8635267D02*
X12458771Y-8663838D01*
X12458771Y-8663838D02*
X12344486Y-8778124D01*
X12344486Y-8778124D02*
X12468295Y-8778124D01*
X12544486Y-8597171D02*
X12554009Y-8587648D01*
X12554009Y-8587648D02*
X12573057Y-8578124D01*
X12573057Y-8578124D02*
X12620676Y-8578124D01*
X12620676Y-8578124D02*
X12639724Y-8587648D01*
X12639724Y-8587648D02*
X12649248Y-8597171D01*
X12649248Y-8597171D02*
X12658771Y-8616219D01*
X12658771Y-8616219D02*
X12658771Y-8635267D01*
X12658771Y-8635267D02*
X12649248Y-8663838D01*
X12649248Y-8663838D02*
X12534962Y-8778124D01*
X12534962Y-8778124D02*
X12658771Y-8778124D01*
X12896867Y-8778124D02*
X12896867Y-8578124D01*
X12982581Y-8778124D02*
X12982581Y-8673362D01*
X12982581Y-8673362D02*
X12973057Y-8654314D01*
X12973057Y-8654314D02*
X12954010Y-8644790D01*
X12954010Y-8644790D02*
X12925438Y-8644790D01*
X12925438Y-8644790D02*
X12906390Y-8654314D01*
X12906390Y-8654314D02*
X12896867Y-8663838D01*
X13106390Y-8778124D02*
X13087343Y-8768600D01*
X13087343Y-8768600D02*
X13077819Y-8759076D01*
X13077819Y-8759076D02*
X13068295Y-8740029D01*
X13068295Y-8740029D02*
X13068295Y-8682886D01*
X13068295Y-8682886D02*
X13077819Y-8663838D01*
X13077819Y-8663838D02*
X13087343Y-8654314D01*
X13087343Y-8654314D02*
X13106390Y-8644790D01*
X13106390Y-8644790D02*
X13134962Y-8644790D01*
X13134962Y-8644790D02*
X13154010Y-8654314D01*
X13154010Y-8654314D02*
X13163533Y-8663838D01*
X13163533Y-8663838D02*
X13173057Y-8682886D01*
X13173057Y-8682886D02*
X13173057Y-8740029D01*
X13173057Y-8740029D02*
X13163533Y-8759076D01*
X13163533Y-8759076D02*
X13154010Y-8768600D01*
X13154010Y-8768600D02*
X13134962Y-8778124D01*
X13134962Y-8778124D02*
X13106390Y-8778124D01*
X13287343Y-8778124D02*
X13268295Y-8768600D01*
X13268295Y-8768600D02*
X13258771Y-8749552D01*
X13258771Y-8749552D02*
X13258771Y-8578124D01*
X13439724Y-8768600D02*
X13420676Y-8778124D01*
X13420676Y-8778124D02*
X13382581Y-8778124D01*
X13382581Y-8778124D02*
X13363533Y-8768600D01*
X13363533Y-8768600D02*
X13354010Y-8749552D01*
X13354010Y-8749552D02*
X13354010Y-8673362D01*
X13354010Y-8673362D02*
X13363533Y-8654314D01*
X13363533Y-8654314D02*
X13382581Y-8644790D01*
X13382581Y-8644790D02*
X13420676Y-8644790D01*
X13420676Y-8644790D02*
X13439724Y-8654314D01*
X13439724Y-8654314D02*
X13449248Y-8673362D01*
X13449248Y-8673362D02*
X13449248Y-8692410D01*
X13449248Y-8692410D02*
X13354010Y-8711457D01*
X13525438Y-8768600D02*
X13544486Y-8778124D01*
X13544486Y-8778124D02*
X13582581Y-8778124D01*
X13582581Y-8778124D02*
X13601629Y-8768600D01*
X13601629Y-8768600D02*
X13611152Y-8749552D01*
X13611152Y-8749552D02*
X13611152Y-8740029D01*
X13611152Y-8740029D02*
X13601629Y-8720981D01*
X13601629Y-8720981D02*
X13582581Y-8711457D01*
X13582581Y-8711457D02*
X13554010Y-8711457D01*
X13554010Y-8711457D02*
X13534962Y-8701933D01*
X13534962Y-8701933D02*
X13525438Y-8682886D01*
X13525438Y-8682886D02*
X13525438Y-8673362D01*
X13525438Y-8673362D02*
X13534962Y-8654314D01*
X13534962Y-8654314D02*
X13554010Y-8644790D01*
X13554010Y-8644790D02*
X13582581Y-8644790D01*
X13582581Y-8644790D02*
X13601629Y-8654314D01*
X13677819Y-8854314D02*
X13687343Y-8844790D01*
X13687343Y-8844790D02*
X13706391Y-8816219D01*
X13706391Y-8816219D02*
X13715914Y-8797171D01*
X13715914Y-8797171D02*
X13725438Y-8768600D01*
X13725438Y-8768600D02*
X13734962Y-8720981D01*
X13734962Y-8720981D02*
X13734962Y-8682886D01*
X13734962Y-8682886D02*
X13725438Y-8635267D01*
X13725438Y-8635267D02*
X13715914Y-8606695D01*
X13715914Y-8606695D02*
X13706391Y-8587648D01*
X13706391Y-8587648D02*
X13687343Y-8559076D01*
X13687343Y-8559076D02*
X13677819Y-8549552D01*
D10*
X8712280Y-8950640D02*
G75*
G03*
X8672280Y-8950640I-20000J0D01*
G01*
X8672280Y-8950640D02*
G75*
G03*
X8712280Y-8950640I20000J0D01*
G01*
D11*
X9011152Y-8842124D02*
X9030200Y-8842124D01*
X9030200Y-8842124D02*
X9049247Y-8851648D01*
X9049247Y-8851648D02*
X9058771Y-8861171D01*
X9058771Y-8861171D02*
X9068295Y-8880219D01*
X9068295Y-8880219D02*
X9077819Y-8918314D01*
X9077819Y-8918314D02*
X9077819Y-8965933D01*
X9077819Y-8965933D02*
X9068295Y-9004029D01*
X9068295Y-9004029D02*
X9058771Y-9023076D01*
X9058771Y-9023076D02*
X9049247Y-9032600D01*
X9049247Y-9032600D02*
X9030200Y-9042124D01*
X9030200Y-9042124D02*
X9011152Y-9042124D01*
X9011152Y-9042124D02*
X8992104Y-9032600D01*
X8992104Y-9032600D02*
X8982581Y-9023076D01*
X8982581Y-9023076D02*
X8973057Y-9004029D01*
X8973057Y-9004029D02*
X8963533Y-8965933D01*
X8963533Y-8965933D02*
X8963533Y-8918314D01*
X8963533Y-8918314D02*
X8973057Y-8880219D01*
X8973057Y-8880219D02*
X8982581Y-8861171D01*
X8982581Y-8861171D02*
X8992104Y-8851648D01*
X8992104Y-8851648D02*
X9011152Y-8842124D01*
X9163533Y-9023076D02*
X9173057Y-9032600D01*
X9173057Y-9032600D02*
X9163533Y-9042124D01*
X9163533Y-9042124D02*
X9154009Y-9032600D01*
X9154009Y-9032600D02*
X9163533Y-9023076D01*
X9163533Y-9023076D02*
X9163533Y-9042124D01*
X9344485Y-8908790D02*
X9344485Y-9042124D01*
X9296866Y-8832600D02*
X9249247Y-8975457D01*
X9249247Y-8975457D02*
X9373057Y-8975457D01*
X9487343Y-8842124D02*
X9506390Y-8842124D01*
X9506390Y-8842124D02*
X9525438Y-8851648D01*
X9525438Y-8851648D02*
X9534962Y-8861171D01*
X9534962Y-8861171D02*
X9544485Y-8880219D01*
X9544485Y-8880219D02*
X9554009Y-8918314D01*
X9554009Y-8918314D02*
X9554009Y-8965933D01*
X9554009Y-8965933D02*
X9544485Y-9004029D01*
X9544485Y-9004029D02*
X9534962Y-9023076D01*
X9534962Y-9023076D02*
X9525438Y-9032600D01*
X9525438Y-9032600D02*
X9506390Y-9042124D01*
X9506390Y-9042124D02*
X9487343Y-9042124D01*
X9487343Y-9042124D02*
X9468295Y-9032600D01*
X9468295Y-9032600D02*
X9458771Y-9023076D01*
X9458771Y-9023076D02*
X9449247Y-9004029D01*
X9449247Y-9004029D02*
X9439724Y-8965933D01*
X9439724Y-8965933D02*
X9439724Y-8918314D01*
X9439724Y-8918314D02*
X9449247Y-8880219D01*
X9449247Y-8880219D02*
X9458771Y-8861171D01*
X9458771Y-8861171D02*
X9468295Y-8851648D01*
X9468295Y-8851648D02*
X9487343Y-8842124D01*
X9677819Y-8842124D02*
X9696866Y-8842124D01*
X9696866Y-8842124D02*
X9715914Y-8851648D01*
X9715914Y-8851648D02*
X9725438Y-8861171D01*
X9725438Y-8861171D02*
X9734962Y-8880219D01*
X9734962Y-8880219D02*
X9744485Y-8918314D01*
X9744485Y-8918314D02*
X9744485Y-8965933D01*
X9744485Y-8965933D02*
X9734962Y-9004029D01*
X9734962Y-9004029D02*
X9725438Y-9023076D01*
X9725438Y-9023076D02*
X9715914Y-9032600D01*
X9715914Y-9032600D02*
X9696866Y-9042124D01*
X9696866Y-9042124D02*
X9677819Y-9042124D01*
X9677819Y-9042124D02*
X9658771Y-9032600D01*
X9658771Y-9032600D02*
X9649247Y-9023076D01*
X9649247Y-9023076D02*
X9639724Y-9004029D01*
X9639724Y-9004029D02*
X9630200Y-8965933D01*
X9630200Y-8965933D02*
X9630200Y-8918314D01*
X9630200Y-8918314D02*
X9639724Y-8880219D01*
X9639724Y-8880219D02*
X9649247Y-8861171D01*
X9649247Y-8861171D02*
X9658771Y-8851648D01*
X9658771Y-8851648D02*
X9677819Y-8842124D01*
X9830200Y-9042124D02*
X9830200Y-8908790D01*
X9830200Y-8927838D02*
X9839724Y-8918314D01*
X9839724Y-8918314D02*
X9858771Y-8908790D01*
X9858771Y-8908790D02*
X9887343Y-8908790D01*
X9887343Y-8908790D02*
X9906390Y-8918314D01*
X9906390Y-8918314D02*
X9915914Y-8937362D01*
X9915914Y-8937362D02*
X9915914Y-9042124D01*
X9915914Y-8937362D02*
X9925438Y-8918314D01*
X9925438Y-8918314D02*
X9944485Y-8908790D01*
X9944485Y-8908790D02*
X9973057Y-8908790D01*
X9973057Y-8908790D02*
X9992105Y-8918314D01*
X9992105Y-8918314D02*
X10001628Y-8937362D01*
X10001628Y-8937362D02*
X10001628Y-9042124D01*
X10096866Y-9042124D02*
X10096866Y-8908790D01*
X10096866Y-8927838D02*
X10106390Y-8918314D01*
X10106390Y-8918314D02*
X10125438Y-8908790D01*
X10125438Y-8908790D02*
X10154009Y-8908790D01*
X10154009Y-8908790D02*
X10173057Y-8918314D01*
X10173057Y-8918314D02*
X10182581Y-8937362D01*
X10182581Y-8937362D02*
X10182581Y-9042124D01*
X10182581Y-8937362D02*
X10192105Y-8918314D01*
X10192105Y-8918314D02*
X10211152Y-8908790D01*
X10211152Y-8908790D02*
X10239724Y-8908790D01*
X10239724Y-8908790D02*
X10258771Y-8918314D01*
X10258771Y-8918314D02*
X10268295Y-8937362D01*
X10268295Y-8937362D02*
X10268295Y-9042124D01*
X10658771Y-8832600D02*
X10487343Y-9089743D01*
X10915914Y-8842124D02*
X10934962Y-8842124D01*
X10934962Y-8842124D02*
X10954009Y-8851648D01*
X10954009Y-8851648D02*
X10963533Y-8861171D01*
X10963533Y-8861171D02*
X10973057Y-8880219D01*
X10973057Y-8880219D02*
X10982581Y-8918314D01*
X10982581Y-8918314D02*
X10982581Y-8965933D01*
X10982581Y-8965933D02*
X10973057Y-9004029D01*
X10973057Y-9004029D02*
X10963533Y-9023076D01*
X10963533Y-9023076D02*
X10954009Y-9032600D01*
X10954009Y-9032600D02*
X10934962Y-9042124D01*
X10934962Y-9042124D02*
X10915914Y-9042124D01*
X10915914Y-9042124D02*
X10896867Y-9032600D01*
X10896867Y-9032600D02*
X10887343Y-9023076D01*
X10887343Y-9023076D02*
X10877819Y-9004029D01*
X10877819Y-9004029D02*
X10868295Y-8965933D01*
X10868295Y-8965933D02*
X10868295Y-8918314D01*
X10868295Y-8918314D02*
X10877819Y-8880219D01*
X10877819Y-8880219D02*
X10887343Y-8861171D01*
X10887343Y-8861171D02*
X10896867Y-8851648D01*
X10896867Y-8851648D02*
X10915914Y-8842124D01*
X11068295Y-9023076D02*
X11077819Y-9032600D01*
X11077819Y-9032600D02*
X11068295Y-9042124D01*
X11068295Y-9042124D02*
X11058771Y-9032600D01*
X11058771Y-9032600D02*
X11068295Y-9023076D01*
X11068295Y-9023076D02*
X11068295Y-9042124D01*
X11201628Y-8842124D02*
X11220676Y-8842124D01*
X11220676Y-8842124D02*
X11239724Y-8851648D01*
X11239724Y-8851648D02*
X11249247Y-8861171D01*
X11249247Y-8861171D02*
X11258771Y-8880219D01*
X11258771Y-8880219D02*
X11268295Y-8918314D01*
X11268295Y-8918314D02*
X11268295Y-8965933D01*
X11268295Y-8965933D02*
X11258771Y-9004029D01*
X11258771Y-9004029D02*
X11249247Y-9023076D01*
X11249247Y-9023076D02*
X11239724Y-9032600D01*
X11239724Y-9032600D02*
X11220676Y-9042124D01*
X11220676Y-9042124D02*
X11201628Y-9042124D01*
X11201628Y-9042124D02*
X11182581Y-9032600D01*
X11182581Y-9032600D02*
X11173057Y-9023076D01*
X11173057Y-9023076D02*
X11163533Y-9004029D01*
X11163533Y-9004029D02*
X11154009Y-8965933D01*
X11154009Y-8965933D02*
X11154009Y-8918314D01*
X11154009Y-8918314D02*
X11163533Y-8880219D01*
X11163533Y-8880219D02*
X11173057Y-8861171D01*
X11173057Y-8861171D02*
X11182581Y-8851648D01*
X11182581Y-8851648D02*
X11201628Y-8842124D01*
X11458771Y-9042124D02*
X11344486Y-9042124D01*
X11401628Y-9042124D02*
X11401628Y-8842124D01*
X11401628Y-8842124D02*
X11382581Y-8870695D01*
X11382581Y-8870695D02*
X11363533Y-8889743D01*
X11363533Y-8889743D02*
X11344486Y-8899267D01*
X11639724Y-8842124D02*
X11544486Y-8842124D01*
X11544486Y-8842124D02*
X11534962Y-8937362D01*
X11534962Y-8937362D02*
X11544486Y-8927838D01*
X11544486Y-8927838D02*
X11563533Y-8918314D01*
X11563533Y-8918314D02*
X11611152Y-8918314D01*
X11611152Y-8918314D02*
X11630200Y-8927838D01*
X11630200Y-8927838D02*
X11639724Y-8937362D01*
X11639724Y-8937362D02*
X11649247Y-8956410D01*
X11649247Y-8956410D02*
X11649247Y-9004029D01*
X11649247Y-9004029D02*
X11639724Y-9023076D01*
X11639724Y-9023076D02*
X11630200Y-9032600D01*
X11630200Y-9032600D02*
X11611152Y-9042124D01*
X11611152Y-9042124D02*
X11563533Y-9042124D01*
X11563533Y-9042124D02*
X11544486Y-9032600D01*
X11544486Y-9032600D02*
X11534962Y-9023076D01*
X11715914Y-8842124D02*
X11849247Y-8842124D01*
X11849247Y-8842124D02*
X11763533Y-9042124D01*
X11915914Y-8842124D02*
X11915914Y-8880219D01*
X11992105Y-8842124D02*
X11992105Y-8880219D01*
X12287343Y-9118314D02*
X12277819Y-9108790D01*
X12277819Y-9108790D02*
X12258771Y-9080219D01*
X12258771Y-9080219D02*
X12249248Y-9061171D01*
X12249248Y-9061171D02*
X12239724Y-9032600D01*
X12239724Y-9032600D02*
X12230200Y-8984981D01*
X12230200Y-8984981D02*
X12230200Y-8946886D01*
X12230200Y-8946886D02*
X12239724Y-8899267D01*
X12239724Y-8899267D02*
X12249248Y-8870695D01*
X12249248Y-8870695D02*
X12258771Y-8851648D01*
X12258771Y-8851648D02*
X12277819Y-8823076D01*
X12277819Y-8823076D02*
X12287343Y-8813552D01*
X12449248Y-8842124D02*
X12411152Y-8842124D01*
X12411152Y-8842124D02*
X12392105Y-8851648D01*
X12392105Y-8851648D02*
X12382581Y-8861171D01*
X12382581Y-8861171D02*
X12363533Y-8889743D01*
X12363533Y-8889743D02*
X12354009Y-8927838D01*
X12354009Y-8927838D02*
X12354009Y-9004029D01*
X12354009Y-9004029D02*
X12363533Y-9023076D01*
X12363533Y-9023076D02*
X12373057Y-9032600D01*
X12373057Y-9032600D02*
X12392105Y-9042124D01*
X12392105Y-9042124D02*
X12430200Y-9042124D01*
X12430200Y-9042124D02*
X12449248Y-9032600D01*
X12449248Y-9032600D02*
X12458771Y-9023076D01*
X12458771Y-9023076D02*
X12468295Y-9004029D01*
X12468295Y-9004029D02*
X12468295Y-8956410D01*
X12468295Y-8956410D02*
X12458771Y-8937362D01*
X12458771Y-8937362D02*
X12449248Y-8927838D01*
X12449248Y-8927838D02*
X12430200Y-8918314D01*
X12430200Y-8918314D02*
X12392105Y-8918314D01*
X12392105Y-8918314D02*
X12373057Y-8927838D01*
X12373057Y-8927838D02*
X12363533Y-8937362D01*
X12363533Y-8937362D02*
X12354009Y-8956410D01*
X12706390Y-9042124D02*
X12706390Y-8842124D01*
X12792105Y-9042124D02*
X12792105Y-8937362D01*
X12792105Y-8937362D02*
X12782581Y-8918314D01*
X12782581Y-8918314D02*
X12763533Y-8908790D01*
X12763533Y-8908790D02*
X12734962Y-8908790D01*
X12734962Y-8908790D02*
X12715914Y-8918314D01*
X12715914Y-8918314D02*
X12706390Y-8927838D01*
X12915914Y-9042124D02*
X12896867Y-9032600D01*
X12896867Y-9032600D02*
X12887343Y-9023076D01*
X12887343Y-9023076D02*
X12877819Y-9004029D01*
X12877819Y-9004029D02*
X12877819Y-8946886D01*
X12877819Y-8946886D02*
X12887343Y-8927838D01*
X12887343Y-8927838D02*
X12896867Y-8918314D01*
X12896867Y-8918314D02*
X12915914Y-8908790D01*
X12915914Y-8908790D02*
X12944486Y-8908790D01*
X12944486Y-8908790D02*
X12963533Y-8918314D01*
X12963533Y-8918314D02*
X12973057Y-8927838D01*
X12973057Y-8927838D02*
X12982581Y-8946886D01*
X12982581Y-8946886D02*
X12982581Y-9004029D01*
X12982581Y-9004029D02*
X12973057Y-9023076D01*
X12973057Y-9023076D02*
X12963533Y-9032600D01*
X12963533Y-9032600D02*
X12944486Y-9042124D01*
X12944486Y-9042124D02*
X12915914Y-9042124D01*
X13096867Y-9042124D02*
X13077819Y-9032600D01*
X13077819Y-9032600D02*
X13068295Y-9013552D01*
X13068295Y-9013552D02*
X13068295Y-8842124D01*
X13249248Y-9032600D02*
X13230200Y-9042124D01*
X13230200Y-9042124D02*
X13192105Y-9042124D01*
X13192105Y-9042124D02*
X13173057Y-9032600D01*
X13173057Y-9032600D02*
X13163533Y-9013552D01*
X13163533Y-9013552D02*
X13163533Y-8937362D01*
X13163533Y-8937362D02*
X13173057Y-8918314D01*
X13173057Y-8918314D02*
X13192105Y-8908790D01*
X13192105Y-8908790D02*
X13230200Y-8908790D01*
X13230200Y-8908790D02*
X13249248Y-8918314D01*
X13249248Y-8918314D02*
X13258771Y-8937362D01*
X13258771Y-8937362D02*
X13258771Y-8956410D01*
X13258771Y-8956410D02*
X13163533Y-8975457D01*
X13334962Y-9032600D02*
X13354010Y-9042124D01*
X13354010Y-9042124D02*
X13392105Y-9042124D01*
X13392105Y-9042124D02*
X13411152Y-9032600D01*
X13411152Y-9032600D02*
X13420676Y-9013552D01*
X13420676Y-9013552D02*
X13420676Y-9004029D01*
X13420676Y-9004029D02*
X13411152Y-8984981D01*
X13411152Y-8984981D02*
X13392105Y-8975457D01*
X13392105Y-8975457D02*
X13363533Y-8975457D01*
X13363533Y-8975457D02*
X13344486Y-8965933D01*
X13344486Y-8965933D02*
X13334962Y-8946886D01*
X13334962Y-8946886D02*
X13334962Y-8937362D01*
X13334962Y-8937362D02*
X13344486Y-8918314D01*
X13344486Y-8918314D02*
X13363533Y-8908790D01*
X13363533Y-8908790D02*
X13392105Y-8908790D01*
X13392105Y-8908790D02*
X13411152Y-8918314D01*
X13487343Y-9118314D02*
X13496867Y-9108790D01*
X13496867Y-9108790D02*
X13515914Y-9080219D01*
X13515914Y-9080219D02*
X13525438Y-9061171D01*
X13525438Y-9061171D02*
X13534962Y-9032600D01*
X13534962Y-9032600D02*
X13544486Y-8984981D01*
X13544486Y-8984981D02*
X13544486Y-8946886D01*
X13544486Y-8946886D02*
X13534962Y-8899267D01*
X13534962Y-8899267D02*
X13525438Y-8870695D01*
X13525438Y-8870695D02*
X13515914Y-8851648D01*
X13515914Y-8851648D02*
X13496867Y-8823076D01*
X13496867Y-8823076D02*
X13487343Y-8813552D01*
D10*
X8662280Y-9164640D02*
X8662280Y-9264640D01*
X8612280Y-9214640D02*
X8712280Y-9214640D01*
D11*
X9077819Y-9306124D02*
X8963533Y-9306124D01*
X9020676Y-9306124D02*
X9020676Y-9106124D01*
X9020676Y-9106124D02*
X9001628Y-9134695D01*
X9001628Y-9134695D02*
X8982581Y-9153743D01*
X8982581Y-9153743D02*
X8963533Y-9163267D01*
X9163533Y-9287076D02*
X9173057Y-9296600D01*
X9173057Y-9296600D02*
X9163533Y-9306124D01*
X9163533Y-9306124D02*
X9154009Y-9296600D01*
X9154009Y-9296600D02*
X9163533Y-9287076D01*
X9163533Y-9287076D02*
X9163533Y-9306124D01*
X9296866Y-9106124D02*
X9315914Y-9106124D01*
X9315914Y-9106124D02*
X9334962Y-9115648D01*
X9334962Y-9115648D02*
X9344485Y-9125171D01*
X9344485Y-9125171D02*
X9354009Y-9144219D01*
X9354009Y-9144219D02*
X9363533Y-9182314D01*
X9363533Y-9182314D02*
X9363533Y-9229933D01*
X9363533Y-9229933D02*
X9354009Y-9268029D01*
X9354009Y-9268029D02*
X9344485Y-9287076D01*
X9344485Y-9287076D02*
X9334962Y-9296600D01*
X9334962Y-9296600D02*
X9315914Y-9306124D01*
X9315914Y-9306124D02*
X9296866Y-9306124D01*
X9296866Y-9306124D02*
X9277819Y-9296600D01*
X9277819Y-9296600D02*
X9268295Y-9287076D01*
X9268295Y-9287076D02*
X9258771Y-9268029D01*
X9258771Y-9268029D02*
X9249247Y-9229933D01*
X9249247Y-9229933D02*
X9249247Y-9182314D01*
X9249247Y-9182314D02*
X9258771Y-9144219D01*
X9258771Y-9144219D02*
X9268295Y-9125171D01*
X9268295Y-9125171D02*
X9277819Y-9115648D01*
X9277819Y-9115648D02*
X9296866Y-9106124D01*
X9487343Y-9106124D02*
X9506390Y-9106124D01*
X9506390Y-9106124D02*
X9525438Y-9115648D01*
X9525438Y-9115648D02*
X9534962Y-9125171D01*
X9534962Y-9125171D02*
X9544485Y-9144219D01*
X9544485Y-9144219D02*
X9554009Y-9182314D01*
X9554009Y-9182314D02*
X9554009Y-9229933D01*
X9554009Y-9229933D02*
X9544485Y-9268029D01*
X9544485Y-9268029D02*
X9534962Y-9287076D01*
X9534962Y-9287076D02*
X9525438Y-9296600D01*
X9525438Y-9296600D02*
X9506390Y-9306124D01*
X9506390Y-9306124D02*
X9487343Y-9306124D01*
X9487343Y-9306124D02*
X9468295Y-9296600D01*
X9468295Y-9296600D02*
X9458771Y-9287076D01*
X9458771Y-9287076D02*
X9449247Y-9268029D01*
X9449247Y-9268029D02*
X9439724Y-9229933D01*
X9439724Y-9229933D02*
X9439724Y-9182314D01*
X9439724Y-9182314D02*
X9449247Y-9144219D01*
X9449247Y-9144219D02*
X9458771Y-9125171D01*
X9458771Y-9125171D02*
X9468295Y-9115648D01*
X9468295Y-9115648D02*
X9487343Y-9106124D01*
X9677819Y-9106124D02*
X9696866Y-9106124D01*
X9696866Y-9106124D02*
X9715914Y-9115648D01*
X9715914Y-9115648D02*
X9725438Y-9125171D01*
X9725438Y-9125171D02*
X9734962Y-9144219D01*
X9734962Y-9144219D02*
X9744485Y-9182314D01*
X9744485Y-9182314D02*
X9744485Y-9229933D01*
X9744485Y-9229933D02*
X9734962Y-9268029D01*
X9734962Y-9268029D02*
X9725438Y-9287076D01*
X9725438Y-9287076D02*
X9715914Y-9296600D01*
X9715914Y-9296600D02*
X9696866Y-9306124D01*
X9696866Y-9306124D02*
X9677819Y-9306124D01*
X9677819Y-9306124D02*
X9658771Y-9296600D01*
X9658771Y-9296600D02*
X9649247Y-9287076D01*
X9649247Y-9287076D02*
X9639724Y-9268029D01*
X9639724Y-9268029D02*
X9630200Y-9229933D01*
X9630200Y-9229933D02*
X9630200Y-9182314D01*
X9630200Y-9182314D02*
X9639724Y-9144219D01*
X9639724Y-9144219D02*
X9649247Y-9125171D01*
X9649247Y-9125171D02*
X9658771Y-9115648D01*
X9658771Y-9115648D02*
X9677819Y-9106124D01*
X9830200Y-9306124D02*
X9830200Y-9172790D01*
X9830200Y-9191838D02*
X9839724Y-9182314D01*
X9839724Y-9182314D02*
X9858771Y-9172790D01*
X9858771Y-9172790D02*
X9887343Y-9172790D01*
X9887343Y-9172790D02*
X9906390Y-9182314D01*
X9906390Y-9182314D02*
X9915914Y-9201362D01*
X9915914Y-9201362D02*
X9915914Y-9306124D01*
X9915914Y-9201362D02*
X9925438Y-9182314D01*
X9925438Y-9182314D02*
X9944485Y-9172790D01*
X9944485Y-9172790D02*
X9973057Y-9172790D01*
X9973057Y-9172790D02*
X9992105Y-9182314D01*
X9992105Y-9182314D02*
X10001628Y-9201362D01*
X10001628Y-9201362D02*
X10001628Y-9306124D01*
X10096866Y-9306124D02*
X10096866Y-9172790D01*
X10096866Y-9191838D02*
X10106390Y-9182314D01*
X10106390Y-9182314D02*
X10125438Y-9172790D01*
X10125438Y-9172790D02*
X10154009Y-9172790D01*
X10154009Y-9172790D02*
X10173057Y-9182314D01*
X10173057Y-9182314D02*
X10182581Y-9201362D01*
X10182581Y-9201362D02*
X10182581Y-9306124D01*
X10182581Y-9201362D02*
X10192105Y-9182314D01*
X10192105Y-9182314D02*
X10211152Y-9172790D01*
X10211152Y-9172790D02*
X10239724Y-9172790D01*
X10239724Y-9172790D02*
X10258771Y-9182314D01*
X10258771Y-9182314D02*
X10268295Y-9201362D01*
X10268295Y-9201362D02*
X10268295Y-9306124D01*
X10658771Y-9096600D02*
X10487343Y-9353743D01*
X10915914Y-9106124D02*
X10934962Y-9106124D01*
X10934962Y-9106124D02*
X10954009Y-9115648D01*
X10954009Y-9115648D02*
X10963533Y-9125171D01*
X10963533Y-9125171D02*
X10973057Y-9144219D01*
X10973057Y-9144219D02*
X10982581Y-9182314D01*
X10982581Y-9182314D02*
X10982581Y-9229933D01*
X10982581Y-9229933D02*
X10973057Y-9268029D01*
X10973057Y-9268029D02*
X10963533Y-9287076D01*
X10963533Y-9287076D02*
X10954009Y-9296600D01*
X10954009Y-9296600D02*
X10934962Y-9306124D01*
X10934962Y-9306124D02*
X10915914Y-9306124D01*
X10915914Y-9306124D02*
X10896867Y-9296600D01*
X10896867Y-9296600D02*
X10887343Y-9287076D01*
X10887343Y-9287076D02*
X10877819Y-9268029D01*
X10877819Y-9268029D02*
X10868295Y-9229933D01*
X10868295Y-9229933D02*
X10868295Y-9182314D01*
X10868295Y-9182314D02*
X10877819Y-9144219D01*
X10877819Y-9144219D02*
X10887343Y-9125171D01*
X10887343Y-9125171D02*
X10896867Y-9115648D01*
X10896867Y-9115648D02*
X10915914Y-9106124D01*
X11068295Y-9287076D02*
X11077819Y-9296600D01*
X11077819Y-9296600D02*
X11068295Y-9306124D01*
X11068295Y-9306124D02*
X11058771Y-9296600D01*
X11058771Y-9296600D02*
X11068295Y-9287076D01*
X11068295Y-9287076D02*
X11068295Y-9306124D01*
X11201628Y-9106124D02*
X11220676Y-9106124D01*
X11220676Y-9106124D02*
X11239724Y-9115648D01*
X11239724Y-9115648D02*
X11249247Y-9125171D01*
X11249247Y-9125171D02*
X11258771Y-9144219D01*
X11258771Y-9144219D02*
X11268295Y-9182314D01*
X11268295Y-9182314D02*
X11268295Y-9229933D01*
X11268295Y-9229933D02*
X11258771Y-9268029D01*
X11258771Y-9268029D02*
X11249247Y-9287076D01*
X11249247Y-9287076D02*
X11239724Y-9296600D01*
X11239724Y-9296600D02*
X11220676Y-9306124D01*
X11220676Y-9306124D02*
X11201628Y-9306124D01*
X11201628Y-9306124D02*
X11182581Y-9296600D01*
X11182581Y-9296600D02*
X11173057Y-9287076D01*
X11173057Y-9287076D02*
X11163533Y-9268029D01*
X11163533Y-9268029D02*
X11154009Y-9229933D01*
X11154009Y-9229933D02*
X11154009Y-9182314D01*
X11154009Y-9182314D02*
X11163533Y-9144219D01*
X11163533Y-9144219D02*
X11173057Y-9125171D01*
X11173057Y-9125171D02*
X11182581Y-9115648D01*
X11182581Y-9115648D02*
X11201628Y-9106124D01*
X11334962Y-9106124D02*
X11458771Y-9106124D01*
X11458771Y-9106124D02*
X11392105Y-9182314D01*
X11392105Y-9182314D02*
X11420676Y-9182314D01*
X11420676Y-9182314D02*
X11439724Y-9191838D01*
X11439724Y-9191838D02*
X11449247Y-9201362D01*
X11449247Y-9201362D02*
X11458771Y-9220410D01*
X11458771Y-9220410D02*
X11458771Y-9268029D01*
X11458771Y-9268029D02*
X11449247Y-9287076D01*
X11449247Y-9287076D02*
X11439724Y-9296600D01*
X11439724Y-9296600D02*
X11420676Y-9306124D01*
X11420676Y-9306124D02*
X11363533Y-9306124D01*
X11363533Y-9306124D02*
X11344486Y-9296600D01*
X11344486Y-9296600D02*
X11334962Y-9287076D01*
X11554009Y-9306124D02*
X11592105Y-9306124D01*
X11592105Y-9306124D02*
X11611152Y-9296600D01*
X11611152Y-9296600D02*
X11620676Y-9287076D01*
X11620676Y-9287076D02*
X11639724Y-9258505D01*
X11639724Y-9258505D02*
X11649247Y-9220410D01*
X11649247Y-9220410D02*
X11649247Y-9144219D01*
X11649247Y-9144219D02*
X11639724Y-9125171D01*
X11639724Y-9125171D02*
X11630200Y-9115648D01*
X11630200Y-9115648D02*
X11611152Y-9106124D01*
X11611152Y-9106124D02*
X11573057Y-9106124D01*
X11573057Y-9106124D02*
X11554009Y-9115648D01*
X11554009Y-9115648D02*
X11544486Y-9125171D01*
X11544486Y-9125171D02*
X11534962Y-9144219D01*
X11534962Y-9144219D02*
X11534962Y-9191838D01*
X11534962Y-9191838D02*
X11544486Y-9210886D01*
X11544486Y-9210886D02*
X11554009Y-9220410D01*
X11554009Y-9220410D02*
X11573057Y-9229933D01*
X11573057Y-9229933D02*
X11611152Y-9229933D01*
X11611152Y-9229933D02*
X11630200Y-9220410D01*
X11630200Y-9220410D02*
X11639724Y-9210886D01*
X11639724Y-9210886D02*
X11649247Y-9191838D01*
X11820676Y-9172790D02*
X11820676Y-9306124D01*
X11773057Y-9096600D02*
X11725438Y-9239457D01*
X11725438Y-9239457D02*
X11849247Y-9239457D01*
X11915914Y-9106124D02*
X11915914Y-9144219D01*
X11992105Y-9106124D02*
X11992105Y-9144219D01*
X12287343Y-9382314D02*
X12277819Y-9372790D01*
X12277819Y-9372790D02*
X12258771Y-9344219D01*
X12258771Y-9344219D02*
X12249248Y-9325171D01*
X12249248Y-9325171D02*
X12239724Y-9296600D01*
X12239724Y-9296600D02*
X12230200Y-9248981D01*
X12230200Y-9248981D02*
X12230200Y-9210886D01*
X12230200Y-9210886D02*
X12239724Y-9163267D01*
X12239724Y-9163267D02*
X12249248Y-9134695D01*
X12249248Y-9134695D02*
X12258771Y-9115648D01*
X12258771Y-9115648D02*
X12277819Y-9087076D01*
X12277819Y-9087076D02*
X12287343Y-9077552D01*
X12468295Y-9306124D02*
X12354009Y-9306124D01*
X12411152Y-9306124D02*
X12411152Y-9106124D01*
X12411152Y-9106124D02*
X12392105Y-9134695D01*
X12392105Y-9134695D02*
X12373057Y-9153743D01*
X12373057Y-9153743D02*
X12354009Y-9163267D01*
X12544486Y-9125171D02*
X12554009Y-9115648D01*
X12554009Y-9115648D02*
X12573057Y-9106124D01*
X12573057Y-9106124D02*
X12620676Y-9106124D01*
X12620676Y-9106124D02*
X12639724Y-9115648D01*
X12639724Y-9115648D02*
X12649248Y-9125171D01*
X12649248Y-9125171D02*
X12658771Y-9144219D01*
X12658771Y-9144219D02*
X12658771Y-9163267D01*
X12658771Y-9163267D02*
X12649248Y-9191838D01*
X12649248Y-9191838D02*
X12534962Y-9306124D01*
X12534962Y-9306124D02*
X12658771Y-9306124D01*
X12896867Y-9306124D02*
X12896867Y-9106124D01*
X12982581Y-9306124D02*
X12982581Y-9201362D01*
X12982581Y-9201362D02*
X12973057Y-9182314D01*
X12973057Y-9182314D02*
X12954010Y-9172790D01*
X12954010Y-9172790D02*
X12925438Y-9172790D01*
X12925438Y-9172790D02*
X12906390Y-9182314D01*
X12906390Y-9182314D02*
X12896867Y-9191838D01*
X13106390Y-9306124D02*
X13087343Y-9296600D01*
X13087343Y-9296600D02*
X13077819Y-9287076D01*
X13077819Y-9287076D02*
X13068295Y-9268029D01*
X13068295Y-9268029D02*
X13068295Y-9210886D01*
X13068295Y-9210886D02*
X13077819Y-9191838D01*
X13077819Y-9191838D02*
X13087343Y-9182314D01*
X13087343Y-9182314D02*
X13106390Y-9172790D01*
X13106390Y-9172790D02*
X13134962Y-9172790D01*
X13134962Y-9172790D02*
X13154010Y-9182314D01*
X13154010Y-9182314D02*
X13163533Y-9191838D01*
X13163533Y-9191838D02*
X13173057Y-9210886D01*
X13173057Y-9210886D02*
X13173057Y-9268029D01*
X13173057Y-9268029D02*
X13163533Y-9287076D01*
X13163533Y-9287076D02*
X13154010Y-9296600D01*
X13154010Y-9296600D02*
X13134962Y-9306124D01*
X13134962Y-9306124D02*
X13106390Y-9306124D01*
X13287343Y-9306124D02*
X13268295Y-9296600D01*
X13268295Y-9296600D02*
X13258771Y-9277552D01*
X13258771Y-9277552D02*
X13258771Y-9106124D01*
X13439724Y-9296600D02*
X13420676Y-9306124D01*
X13420676Y-9306124D02*
X13382581Y-9306124D01*
X13382581Y-9306124D02*
X13363533Y-9296600D01*
X13363533Y-9296600D02*
X13354010Y-9277552D01*
X13354010Y-9277552D02*
X13354010Y-9201362D01*
X13354010Y-9201362D02*
X13363533Y-9182314D01*
X13363533Y-9182314D02*
X13382581Y-9172790D01*
X13382581Y-9172790D02*
X13420676Y-9172790D01*
X13420676Y-9172790D02*
X13439724Y-9182314D01*
X13439724Y-9182314D02*
X13449248Y-9201362D01*
X13449248Y-9201362D02*
X13449248Y-9220410D01*
X13449248Y-9220410D02*
X13354010Y-9239457D01*
X13525438Y-9296600D02*
X13544486Y-9306124D01*
X13544486Y-9306124D02*
X13582581Y-9306124D01*
X13582581Y-9306124D02*
X13601629Y-9296600D01*
X13601629Y-9296600D02*
X13611152Y-9277552D01*
X13611152Y-9277552D02*
X13611152Y-9268029D01*
X13611152Y-9268029D02*
X13601629Y-9248981D01*
X13601629Y-9248981D02*
X13582581Y-9239457D01*
X13582581Y-9239457D02*
X13554010Y-9239457D01*
X13554010Y-9239457D02*
X13534962Y-9229933D01*
X13534962Y-9229933D02*
X13525438Y-9210886D01*
X13525438Y-9210886D02*
X13525438Y-9201362D01*
X13525438Y-9201362D02*
X13534962Y-9182314D01*
X13534962Y-9182314D02*
X13554010Y-9172790D01*
X13554010Y-9172790D02*
X13582581Y-9172790D01*
X13582581Y-9172790D02*
X13601629Y-9182314D01*
X13677819Y-9382314D02*
X13687343Y-9372790D01*
X13687343Y-9372790D02*
X13706391Y-9344219D01*
X13706391Y-9344219D02*
X13715914Y-9325171D01*
X13715914Y-9325171D02*
X13725438Y-9296600D01*
X13725438Y-9296600D02*
X13734962Y-9248981D01*
X13734962Y-9248981D02*
X13734962Y-9210886D01*
X13734962Y-9210886D02*
X13725438Y-9163267D01*
X13725438Y-9163267D02*
X13715914Y-9134695D01*
X13715914Y-9134695D02*
X13706391Y-9115648D01*
X13706391Y-9115648D02*
X13687343Y-9087076D01*
X13687343Y-9087076D02*
X13677819Y-9077552D01*
M02*
