G04 #@! TF.GenerationSoftware,KiCad,Pcbnew,7.0.11-2.fc39*
G04 #@! TF.CreationDate,2024-06-09T18:16:26+02:00*
G04 #@! TF.ProjectId,current_measurement_extension,63757272-656e-4745-9f6d-656173757265,1.0*
G04 #@! TF.SameCoordinates,Original*
G04 #@! TF.FileFunction,Copper,L1,Top*
G04 #@! TF.FilePolarity,Positive*
%FSLAX46Y46*%
G04 Gerber Fmt 4.6, Leading zero omitted, Abs format (unit mm)*
G04 Created by KiCad (PCBNEW 7.0.11-2.fc39) date 2024-06-09 18:16:26*
%MOMM*%
%LPD*%
G01*
G04 APERTURE LIST*
G04 Aperture macros list*
%AMRoundRect*
0 Rectangle with rounded corners*
0 $1 Rounding radius*
0 $2 $3 $4 $5 $6 $7 $8 $9 X,Y pos of 4 corners*
0 Add a 4 corners polygon primitive as box body*
4,1,4,$2,$3,$4,$5,$6,$7,$8,$9,$2,$3,0*
0 Add four circle primitives for the rounded corners*
1,1,$1+$1,$2,$3*
1,1,$1+$1,$4,$5*
1,1,$1+$1,$6,$7*
1,1,$1+$1,$8,$9*
0 Add four rect primitives between the rounded corners*
20,1,$1+$1,$2,$3,$4,$5,0*
20,1,$1+$1,$4,$5,$6,$7,0*
20,1,$1+$1,$6,$7,$8,$9,0*
20,1,$1+$1,$8,$9,$2,$3,0*%
G04 Aperture macros list end*
G04 #@! TA.AperFunction,SMDPad,CuDef*
%ADD10RoundRect,0.237500X-0.300000X-0.237500X0.300000X-0.237500X0.300000X0.237500X-0.300000X0.237500X0*%
G04 #@! TD*
G04 #@! TA.AperFunction,SMDPad,CuDef*
%ADD11RoundRect,0.150000X-0.512500X-0.150000X0.512500X-0.150000X0.512500X0.150000X-0.512500X0.150000X0*%
G04 #@! TD*
G04 #@! TA.AperFunction,ComponentPad*
%ADD12R,1.700000X1.700000*%
G04 #@! TD*
G04 #@! TA.AperFunction,ComponentPad*
%ADD13O,1.700000X1.700000*%
G04 #@! TD*
G04 #@! TA.AperFunction,SMDPad,CuDef*
%ADD14RoundRect,0.237500X0.250000X0.237500X-0.250000X0.237500X-0.250000X-0.237500X0.250000X-0.237500X0*%
G04 #@! TD*
G04 #@! TA.AperFunction,SMDPad,CuDef*
%ADD15RoundRect,0.237500X-0.237500X0.250000X-0.237500X-0.250000X0.237500X-0.250000X0.237500X0.250000X0*%
G04 #@! TD*
G04 #@! TA.AperFunction,SMDPad,CuDef*
%ADD16RoundRect,0.237500X0.300000X0.237500X-0.300000X0.237500X-0.300000X-0.237500X0.300000X-0.237500X0*%
G04 #@! TD*
G04 #@! TA.AperFunction,SMDPad,CuDef*
%ADD17RoundRect,0.250000X-0.650000X0.412500X-0.650000X-0.412500X0.650000X-0.412500X0.650000X0.412500X0*%
G04 #@! TD*
G04 #@! TA.AperFunction,SMDPad,CuDef*
%ADD18RoundRect,0.150000X-0.825000X-0.150000X0.825000X-0.150000X0.825000X0.150000X-0.825000X0.150000X0*%
G04 #@! TD*
G04 #@! TA.AperFunction,SMDPad,CuDef*
%ADD19RoundRect,0.150000X0.150000X-0.512500X0.150000X0.512500X-0.150000X0.512500X-0.150000X-0.512500X0*%
G04 #@! TD*
G04 #@! TA.AperFunction,SMDPad,CuDef*
%ADD20RoundRect,0.150000X0.150000X-0.825000X0.150000X0.825000X-0.150000X0.825000X-0.150000X-0.825000X0*%
G04 #@! TD*
G04 #@! TA.AperFunction,SMDPad,CuDef*
%ADD21RoundRect,0.237500X-0.237500X0.300000X-0.237500X-0.300000X0.237500X-0.300000X0.237500X0.300000X0*%
G04 #@! TD*
G04 #@! TA.AperFunction,ViaPad*
%ADD22C,0.600000*%
G04 #@! TD*
G04 #@! TA.AperFunction,ViaPad*
%ADD23C,0.800000*%
G04 #@! TD*
G04 #@! TA.AperFunction,Conductor*
%ADD24C,0.381000*%
G04 #@! TD*
G04 #@! TA.AperFunction,Conductor*
%ADD25C,0.762000*%
G04 #@! TD*
G04 #@! TA.AperFunction,Conductor*
%ADD26C,1.524000*%
G04 #@! TD*
G04 APERTURE END LIST*
D10*
X109067600Y-63500000D03*
X110792600Y-63500000D03*
D11*
X96418400Y-62514400D03*
X96418400Y-63464400D03*
X96418400Y-64414400D03*
X98693400Y-64414400D03*
X98693400Y-62514400D03*
D12*
X117652800Y-77419200D03*
D13*
X115112800Y-77419200D03*
X112572800Y-77419200D03*
D14*
X110791000Y-51308000D03*
X108966000Y-51308000D03*
D12*
X103479600Y-77419200D03*
D13*
X100939600Y-77419200D03*
X98399600Y-77419200D03*
D15*
X107391200Y-61675000D03*
X107391200Y-63500000D03*
D16*
X104391800Y-65684400D03*
X102666800Y-65684400D03*
D17*
X91795600Y-62559400D03*
X91795600Y-65684400D03*
D10*
X105206800Y-55016400D03*
X106931800Y-55016400D03*
D18*
X98094800Y-55016400D03*
X98094800Y-56286400D03*
X98094800Y-57556400D03*
X98094800Y-58826400D03*
X103044800Y-58826400D03*
X103044800Y-57556400D03*
X103044800Y-56286400D03*
X103044800Y-55016400D03*
D12*
X113334800Y-48006000D03*
D13*
X110794800Y-48006000D03*
X108254800Y-48006000D03*
X105714800Y-48006000D03*
X103174800Y-48006000D03*
X100634800Y-48006000D03*
D19*
X105491200Y-59842400D03*
X106441200Y-59842400D03*
X107391200Y-59842400D03*
X107391200Y-57567400D03*
X105491200Y-57567400D03*
D16*
X103479600Y-60502800D03*
X101754600Y-60502800D03*
D20*
X106121200Y-70634400D03*
X107391200Y-70634400D03*
X108661200Y-70634400D03*
X109931200Y-70634400D03*
X109931200Y-65684400D03*
X108661200Y-65684400D03*
X107391200Y-65684400D03*
X106121200Y-65684400D03*
D21*
X93929200Y-62537000D03*
X93929200Y-64262000D03*
X100838000Y-62537000D03*
X100838000Y-64262000D03*
D14*
X110792900Y-52984400D03*
X108967900Y-52984400D03*
D22*
X111709200Y-64770000D03*
X104444800Y-52527200D03*
X104444800Y-50088800D03*
X111607600Y-55778400D03*
X111963200Y-50088800D03*
X114604800Y-58775600D03*
X94792800Y-46786800D03*
X127304800Y-64770000D03*
X94792800Y-52781200D03*
X120954800Y-64770000D03*
X114604800Y-64770000D03*
X88290400Y-64770000D03*
X127304800Y-46786800D03*
X120954800Y-58775600D03*
X114604800Y-52781200D03*
X88290400Y-46786800D03*
X88290400Y-58724800D03*
X88290400Y-52781200D03*
X127304800Y-58826400D03*
X127304800Y-52781200D03*
X120954800Y-46786800D03*
X120954800Y-52781200D03*
D23*
X109016800Y-58775600D03*
X107391200Y-52984400D03*
X110845600Y-54203600D03*
X105308400Y-53797200D03*
X113385600Y-64363600D03*
X91795600Y-60756800D03*
D24*
X109931200Y-65684400D02*
X110794800Y-65684400D01*
X110794800Y-65684400D02*
X111709200Y-64770000D01*
D25*
X113385600Y-64363600D02*
X113334800Y-64312800D01*
X113334800Y-64312800D02*
X113334800Y-48006000D01*
D24*
X106845501Y-58775600D02*
X109016800Y-58775600D01*
X106441200Y-59179901D02*
X106845501Y-58775600D01*
X106441200Y-59842400D02*
X106441200Y-59179901D01*
X105480200Y-57556400D02*
X105491200Y-57567400D01*
X108967900Y-52984400D02*
X107391200Y-52984400D01*
X108967900Y-55319300D02*
X107950000Y-56337200D01*
X103044800Y-57556400D02*
X105480200Y-57556400D01*
X108967900Y-52984400D02*
X108967900Y-55319300D01*
X106721400Y-56337200D02*
X105491200Y-57567400D01*
X107950000Y-56337200D02*
X106721400Y-56337200D01*
X109931200Y-51968400D02*
X109931200Y-57048400D01*
X108966000Y-51308000D02*
X106984800Y-51308000D01*
X109931200Y-57048400D02*
X109412200Y-57567400D01*
X105765600Y-58826400D02*
X106680000Y-57912000D01*
X106702000Y-57912000D02*
X107046600Y-57567400D01*
X108966000Y-51308000D02*
X109270800Y-51308000D01*
X107391200Y-57567400D02*
X107046600Y-57567400D01*
X109412200Y-57567400D02*
X107391200Y-57567400D01*
X106984800Y-51308000D02*
X105714800Y-50038000D01*
X105714800Y-50038000D02*
X105714800Y-48006000D01*
X106680000Y-57912000D02*
X106702000Y-57912000D01*
X103044800Y-58826400D02*
X105765600Y-58826400D01*
X109270800Y-51308000D02*
X109931200Y-51968400D01*
X107391200Y-57567400D02*
X107691199Y-57567400D01*
X101295200Y-53543200D02*
X103174800Y-51663600D01*
X103174800Y-51663600D02*
X103174800Y-48006000D01*
X101955600Y-56286400D02*
X101295200Y-55626000D01*
X101295200Y-55626000D02*
X101295200Y-53543200D01*
X103044800Y-56286400D02*
X101955600Y-56286400D01*
X110794800Y-48006000D02*
X110794800Y-51308000D01*
X105206800Y-53898800D02*
X105308400Y-53797200D01*
X110791000Y-52933600D02*
X110791000Y-51311800D01*
X110791000Y-51311800D02*
X110794800Y-51308000D01*
X103044800Y-55016400D02*
X105206800Y-55016400D01*
X110792900Y-54150900D02*
X110845600Y-54203600D01*
X110792900Y-52984400D02*
X110792900Y-54150900D01*
X110921800Y-48310800D02*
X110794800Y-48183800D01*
X105206800Y-55016400D02*
X105206800Y-53898800D01*
D25*
X91795600Y-62559400D02*
X93906800Y-62559400D01*
D24*
X93906800Y-62559400D02*
X93929200Y-62537000D01*
D25*
X91795600Y-62559400D02*
X91795600Y-60756800D01*
D24*
X93929200Y-62537000D02*
X96395800Y-62537000D01*
X96395800Y-62537000D02*
X96418400Y-62514400D01*
X103459200Y-62514400D02*
X103479600Y-62534800D01*
X103479600Y-60502800D02*
X104830800Y-60502800D01*
X104830800Y-60502800D02*
X105491200Y-59842400D01*
X104391800Y-65684400D02*
X106121200Y-65684400D01*
X104391800Y-65684400D02*
X104391800Y-63447000D01*
X103479600Y-62534800D02*
X103479600Y-60502800D01*
X104391800Y-63447000D02*
X103479600Y-62534800D01*
X98693400Y-62514400D02*
X103459200Y-62514400D01*
X107391200Y-61675000D02*
X107391200Y-59842400D01*
D26*
X112572800Y-77419200D02*
X103479600Y-77419200D01*
D24*
X108661200Y-63906400D02*
X109067600Y-63500000D01*
X108663400Y-65682200D02*
X108661200Y-65684400D01*
X108661200Y-65684400D02*
X108661200Y-63906400D01*
X107391200Y-65684400D02*
X107391200Y-63500000D01*
D26*
X100939600Y-74879200D02*
X101955600Y-73863200D01*
X100939600Y-77419200D02*
X100939600Y-74879200D01*
X115112800Y-74980800D02*
X115112800Y-77419200D01*
X113995200Y-73863200D02*
X115112800Y-74980800D01*
X101955600Y-73863200D02*
X113995200Y-73863200D01*
G04 #@! TA.AperFunction,Conductor*
G36*
X116500077Y-69666485D02*
G01*
X116520719Y-69683119D01*
X118480081Y-71642481D01*
X118513566Y-71703804D01*
X118516400Y-71730162D01*
X118516400Y-78158800D01*
X118496715Y-78225839D01*
X118443911Y-78271594D01*
X118392400Y-78282800D01*
X116913200Y-78282800D01*
X116846161Y-78263115D01*
X116800406Y-78210311D01*
X116789200Y-78158800D01*
X116789200Y-73660000D01*
X114757200Y-71628000D01*
X108480400Y-71628000D01*
X108413361Y-71608315D01*
X108367606Y-71555511D01*
X108356400Y-71504000D01*
X108356400Y-69770800D01*
X108376085Y-69703761D01*
X108428889Y-69658006D01*
X108480400Y-69646800D01*
X116433038Y-69646800D01*
X116500077Y-69666485D01*
G37*
G04 #@! TD.AperFunction*
G04 #@! TA.AperFunction,Conductor*
G36*
X107639039Y-69691885D02*
G01*
X107684794Y-69744689D01*
X107696000Y-69796200D01*
X107696000Y-71529400D01*
X107676315Y-71596439D01*
X107623511Y-71642194D01*
X107572000Y-71653400D01*
X101295199Y-71653400D01*
X99263200Y-73685399D01*
X99263200Y-77346000D01*
X99243515Y-77413039D01*
X99190711Y-77458794D01*
X99139200Y-77470000D01*
X97660000Y-77470000D01*
X97592961Y-77450315D01*
X97547206Y-77397511D01*
X97536000Y-77346000D01*
X97536000Y-71755562D01*
X97555685Y-71688523D01*
X97572319Y-71667881D01*
X99531681Y-69708519D01*
X99593004Y-69675034D01*
X99619362Y-69672200D01*
X107572000Y-69672200D01*
X107639039Y-69691885D01*
G37*
G04 #@! TD.AperFunction*
G04 #@! TA.AperFunction,Conductor*
G36*
X127890339Y-46316385D02*
G01*
X127936094Y-46369189D01*
X127947300Y-46420700D01*
X127947300Y-67084400D01*
X127927615Y-67151439D01*
X127874811Y-67197194D01*
X127823300Y-67208400D01*
X110600802Y-67208400D01*
X110533763Y-67188715D01*
X110488008Y-67135911D01*
X110478064Y-67066753D01*
X110507089Y-67003197D01*
X110513121Y-66996719D01*
X110598878Y-66910961D01*
X110598885Y-66910952D01*
X110682482Y-66769596D01*
X110682483Y-66769593D01*
X110728299Y-66611895D01*
X110728300Y-66611889D01*
X110731199Y-66575049D01*
X110731200Y-66575034D01*
X110731200Y-65934400D01*
X109805200Y-65934400D01*
X109738161Y-65914715D01*
X109692406Y-65861911D01*
X109681200Y-65810400D01*
X109681200Y-65558400D01*
X109700885Y-65491361D01*
X109753689Y-65445606D01*
X109805200Y-65434400D01*
X110731200Y-65434400D01*
X110731200Y-64793765D01*
X110731199Y-64793750D01*
X110728300Y-64756910D01*
X110728299Y-64756904D01*
X110682483Y-64599206D01*
X110682482Y-64599203D01*
X110634459Y-64518000D01*
X110605901Y-64501711D01*
X110606650Y-64500396D01*
X110599561Y-64498315D01*
X110553806Y-64445511D01*
X110542600Y-64394000D01*
X110542600Y-63750000D01*
X111042600Y-63750000D01*
X111042600Y-64474999D01*
X111141740Y-64474999D01*
X111141754Y-64474998D01*
X111242752Y-64464680D01*
X111406400Y-64410453D01*
X111406411Y-64410448D01*
X111553134Y-64319947D01*
X111553138Y-64319944D01*
X111675044Y-64198038D01*
X111675047Y-64198034D01*
X111765548Y-64051311D01*
X111765553Y-64051300D01*
X111819780Y-63887652D01*
X111830099Y-63786654D01*
X111830100Y-63786641D01*
X111830100Y-63750000D01*
X111042600Y-63750000D01*
X110542600Y-63750000D01*
X110542600Y-62525000D01*
X111042600Y-62525000D01*
X111042600Y-63250000D01*
X111830099Y-63250000D01*
X111830099Y-63213360D01*
X111830098Y-63213345D01*
X111819780Y-63112347D01*
X111765553Y-62948699D01*
X111765548Y-62948688D01*
X111675047Y-62801965D01*
X111675044Y-62801961D01*
X111553138Y-62680055D01*
X111553134Y-62680052D01*
X111406411Y-62589551D01*
X111406400Y-62589546D01*
X111242752Y-62535319D01*
X111141754Y-62525000D01*
X111042600Y-62525000D01*
X110542600Y-62525000D01*
X110542600Y-62524999D01*
X110443460Y-62525000D01*
X110443444Y-62525001D01*
X110342447Y-62535319D01*
X110178799Y-62589546D01*
X110178788Y-62589551D01*
X110032065Y-62680052D01*
X110018132Y-62693985D01*
X109956808Y-62727468D01*
X109887116Y-62722482D01*
X109842772Y-62693982D01*
X109828451Y-62679661D01*
X109828450Y-62679660D01*
X109721768Y-62613858D01*
X109681618Y-62589093D01*
X109681613Y-62589091D01*
X109676812Y-62587500D01*
X109517853Y-62534826D01*
X109517851Y-62534825D01*
X109416778Y-62524500D01*
X108718430Y-62524500D01*
X108718412Y-62524501D01*
X108617347Y-62534825D01*
X108453584Y-62589092D01*
X108453581Y-62589093D01*
X108306748Y-62679661D01*
X108292081Y-62694329D01*
X108230758Y-62727814D01*
X108161066Y-62722830D01*
X108116719Y-62694329D01*
X108097571Y-62675181D01*
X108064086Y-62613858D01*
X108069070Y-62544166D01*
X108097571Y-62499819D01*
X108211540Y-62385850D01*
X108302108Y-62239016D01*
X108356374Y-62075253D01*
X108366700Y-61974177D01*
X108366699Y-61375824D01*
X108363922Y-61348642D01*
X108356374Y-61274747D01*
X108302108Y-61110984D01*
X108211540Y-60964150D01*
X108118519Y-60871129D01*
X108085034Y-60809806D01*
X108082200Y-60783448D01*
X108082200Y-60751932D01*
X108099468Y-60688811D01*
X108142944Y-60615298D01*
X108188798Y-60457469D01*
X108191700Y-60420594D01*
X108191700Y-59264206D01*
X108188798Y-59227331D01*
X108142944Y-59069502D01*
X108059281Y-58928035D01*
X108059279Y-58928033D01*
X108059276Y-58928029D01*
X107943070Y-58811823D01*
X107943067Y-58811821D01*
X107943065Y-58811819D01*
X107942749Y-58811632D01*
X107942553Y-58811422D01*
X107936902Y-58807039D01*
X107937609Y-58806127D01*
X107895066Y-58760564D01*
X107882562Y-58691823D01*
X107909206Y-58627233D01*
X107937121Y-58603044D01*
X107936902Y-58602761D01*
X107942111Y-58598720D01*
X107942750Y-58598167D01*
X107943065Y-58597981D01*
X108059281Y-58481765D01*
X108142944Y-58340298D01*
X108142944Y-58340294D01*
X108142946Y-58340293D01*
X108146040Y-58333146D01*
X108190733Y-58279441D01*
X108257367Y-58258425D01*
X108259838Y-58258400D01*
X109387574Y-58258400D01*
X109395061Y-58258626D01*
X109454226Y-58262205D01*
X109454226Y-58262204D01*
X109454228Y-58262205D01*
X109512536Y-58251519D01*
X109519930Y-58250393D01*
X109578782Y-58243248D01*
X109587988Y-58239756D01*
X109609603Y-58233730D01*
X109619285Y-58231957D01*
X109673361Y-58207618D01*
X109680217Y-58204778D01*
X109735682Y-58183744D01*
X109743780Y-58178154D01*
X109763339Y-58167122D01*
X109772305Y-58163088D01*
X109818966Y-58126530D01*
X109824998Y-58122092D01*
X109873783Y-58088420D01*
X109913101Y-58044036D01*
X109918205Y-58038614D01*
X110402409Y-57554410D01*
X110407811Y-57549324D01*
X110452220Y-57509983D01*
X110485918Y-57461160D01*
X110490308Y-57455193D01*
X110526888Y-57408505D01*
X110530922Y-57399539D01*
X110541954Y-57379980D01*
X110547542Y-57371885D01*
X110547542Y-57371884D01*
X110547544Y-57371882D01*
X110568578Y-57316417D01*
X110571418Y-57309561D01*
X110595757Y-57255485D01*
X110597530Y-57245803D01*
X110603556Y-57224188D01*
X110607048Y-57214982D01*
X110614193Y-57156130D01*
X110615319Y-57148736D01*
X110626004Y-57090433D01*
X110626005Y-57090426D01*
X110622426Y-57031260D01*
X110622200Y-57023773D01*
X110622200Y-55228100D01*
X110641885Y-55161061D01*
X110694689Y-55115306D01*
X110746200Y-55104100D01*
X110940244Y-55104100D01*
X110940246Y-55104100D01*
X111125403Y-55064744D01*
X111298330Y-54987751D01*
X111451471Y-54876488D01*
X111578133Y-54735816D01*
X111672779Y-54571884D01*
X111731274Y-54391856D01*
X111751060Y-54203600D01*
X111731274Y-54015344D01*
X111672779Y-53835316D01*
X111641546Y-53781219D01*
X111625074Y-53713323D01*
X111643396Y-53654125D01*
X111716303Y-53535924D01*
X111716302Y-53535924D01*
X111716308Y-53535916D01*
X111770574Y-53372153D01*
X111780900Y-53271077D01*
X111780899Y-52697724D01*
X111770574Y-52596647D01*
X111716308Y-52432884D01*
X111625740Y-52286050D01*
X111609409Y-52269719D01*
X111572620Y-52232929D01*
X111539136Y-52171606D01*
X111544121Y-52101914D01*
X111572620Y-52057569D01*
X111623840Y-52006350D01*
X111714408Y-51859516D01*
X111768674Y-51695753D01*
X111779000Y-51594677D01*
X111778999Y-51021324D01*
X111768674Y-50920247D01*
X111714408Y-50756484D01*
X111623840Y-50609650D01*
X111522118Y-50507928D01*
X111488634Y-50446605D01*
X111485800Y-50420247D01*
X111485800Y-49235363D01*
X111505485Y-49168324D01*
X111538677Y-49133788D01*
X111589319Y-49098328D01*
X111666201Y-49044495D01*
X111788129Y-48922566D01*
X111849448Y-48889084D01*
X111919140Y-48894068D01*
X111975074Y-48935939D01*
X111991989Y-48966917D01*
X112041002Y-49098328D01*
X112041006Y-49098335D01*
X112127252Y-49213544D01*
X112127255Y-49213547D01*
X112242464Y-49299793D01*
X112242471Y-49299797D01*
X112372633Y-49348344D01*
X112428567Y-49390215D01*
X112452984Y-49455679D01*
X112453300Y-49464526D01*
X112453300Y-64271927D01*
X112452891Y-64281992D01*
X112448426Y-64336808D01*
X112448427Y-64336814D01*
X112459533Y-64418334D01*
X112459941Y-64421664D01*
X112468833Y-64503413D01*
X112468833Y-64503416D01*
X112468920Y-64503672D01*
X112474271Y-64526505D01*
X112474309Y-64526787D01*
X112474311Y-64526794D01*
X112502692Y-64604048D01*
X112503807Y-64607214D01*
X112530056Y-64685118D01*
X112530201Y-64685359D01*
X112540332Y-64706500D01*
X112540427Y-64706760D01*
X112540435Y-64706775D01*
X112574989Y-64760835D01*
X112577896Y-64765617D01*
X112619164Y-64837094D01*
X112643001Y-64878382D01*
X112653066Y-64895814D01*
X112653065Y-64895814D01*
X112779729Y-65036488D01*
X112932865Y-65147748D01*
X112932870Y-65147751D01*
X113105792Y-65224742D01*
X113105797Y-65224744D01*
X113290954Y-65264100D01*
X113290955Y-65264100D01*
X113480244Y-65264100D01*
X113480246Y-65264100D01*
X113665403Y-65224744D01*
X113838330Y-65147751D01*
X113991471Y-65036488D01*
X114118133Y-64895816D01*
X114212779Y-64731884D01*
X114271274Y-64551856D01*
X114291060Y-64363600D01*
X114271274Y-64175344D01*
X114222369Y-64024830D01*
X114216300Y-63986512D01*
X114216300Y-49464526D01*
X114235985Y-49397487D01*
X114288789Y-49351732D01*
X114296967Y-49348344D01*
X114427128Y-49299797D01*
X114427127Y-49299797D01*
X114427131Y-49299796D01*
X114542346Y-49213546D01*
X114628596Y-49098331D01*
X114678891Y-48963483D01*
X114685300Y-48903873D01*
X114685299Y-47108128D01*
X114678891Y-47048517D01*
X114677610Y-47045083D01*
X114628597Y-46913671D01*
X114628593Y-46913664D01*
X114542347Y-46798455D01*
X114542344Y-46798452D01*
X114427135Y-46712206D01*
X114427128Y-46712202D01*
X114292282Y-46661908D01*
X114292283Y-46661908D01*
X114232683Y-46655501D01*
X114232681Y-46655500D01*
X114232673Y-46655500D01*
X114232664Y-46655500D01*
X112436929Y-46655500D01*
X112436923Y-46655501D01*
X112377316Y-46661908D01*
X112242471Y-46712202D01*
X112242464Y-46712206D01*
X112127255Y-46798452D01*
X112127252Y-46798455D01*
X112041006Y-46913664D01*
X112041003Y-46913669D01*
X111991989Y-47045083D01*
X111950117Y-47101016D01*
X111884653Y-47125433D01*
X111816380Y-47110581D01*
X111788126Y-47089430D01*
X111666202Y-46967506D01*
X111666195Y-46967501D01*
X111472634Y-46831967D01*
X111472630Y-46831965D01*
X111472628Y-46831964D01*
X111258463Y-46732097D01*
X111258459Y-46732096D01*
X111258455Y-46732094D01*
X111030213Y-46670938D01*
X111030203Y-46670936D01*
X110794801Y-46650341D01*
X110794799Y-46650341D01*
X110559396Y-46670936D01*
X110559386Y-46670938D01*
X110331144Y-46732094D01*
X110331135Y-46732098D01*
X110116971Y-46831964D01*
X110116969Y-46831965D01*
X109923397Y-46967505D01*
X109756305Y-47134597D01*
X109626375Y-47320158D01*
X109571798Y-47363783D01*
X109502300Y-47370977D01*
X109439945Y-47339454D01*
X109423225Y-47320158D01*
X109293294Y-47134597D01*
X109126202Y-46967506D01*
X109126195Y-46967501D01*
X108932634Y-46831967D01*
X108932630Y-46831965D01*
X108932628Y-46831964D01*
X108718463Y-46732097D01*
X108718459Y-46732096D01*
X108718455Y-46732094D01*
X108490213Y-46670938D01*
X108490203Y-46670936D01*
X108254801Y-46650341D01*
X108254799Y-46650341D01*
X108019396Y-46670936D01*
X108019386Y-46670938D01*
X107791144Y-46732094D01*
X107791135Y-46732098D01*
X107576971Y-46831964D01*
X107576969Y-46831965D01*
X107383397Y-46967505D01*
X107216305Y-47134597D01*
X107086375Y-47320158D01*
X107031798Y-47363783D01*
X106962300Y-47370977D01*
X106899945Y-47339454D01*
X106883225Y-47320158D01*
X106753294Y-47134597D01*
X106586202Y-46967506D01*
X106586195Y-46967501D01*
X106392634Y-46831967D01*
X106392630Y-46831965D01*
X106392628Y-46831964D01*
X106178463Y-46732097D01*
X106178459Y-46732096D01*
X106178455Y-46732094D01*
X105950213Y-46670938D01*
X105950203Y-46670936D01*
X105714801Y-46650341D01*
X105714799Y-46650341D01*
X105479396Y-46670936D01*
X105479386Y-46670938D01*
X105251144Y-46732094D01*
X105251135Y-46732098D01*
X105036971Y-46831964D01*
X105036969Y-46831965D01*
X104843397Y-46967505D01*
X104676305Y-47134597D01*
X104546375Y-47320158D01*
X104491798Y-47363783D01*
X104422300Y-47370977D01*
X104359945Y-47339454D01*
X104343225Y-47320158D01*
X104213294Y-47134597D01*
X104046202Y-46967506D01*
X104046195Y-46967501D01*
X103852634Y-46831967D01*
X103852630Y-46831965D01*
X103852628Y-46831964D01*
X103638463Y-46732097D01*
X103638459Y-46732096D01*
X103638455Y-46732094D01*
X103410213Y-46670938D01*
X103410203Y-46670936D01*
X103174801Y-46650341D01*
X103174799Y-46650341D01*
X102939396Y-46670936D01*
X102939386Y-46670938D01*
X102711144Y-46732094D01*
X102711135Y-46732098D01*
X102496971Y-46831964D01*
X102496969Y-46831965D01*
X102303397Y-46967505D01*
X102136308Y-47134594D01*
X102006069Y-47320595D01*
X101951492Y-47364219D01*
X101881993Y-47371412D01*
X101819639Y-47339890D01*
X101802919Y-47320594D01*
X101672913Y-47134926D01*
X101672908Y-47134920D01*
X101505882Y-46967894D01*
X101312378Y-46832399D01*
X101098292Y-46732570D01*
X101098286Y-46732567D01*
X100884800Y-46675364D01*
X100884800Y-47570498D01*
X100777115Y-47521320D01*
X100670563Y-47506000D01*
X100599037Y-47506000D01*
X100492485Y-47521320D01*
X100384800Y-47570498D01*
X100384800Y-46675364D01*
X100384799Y-46675364D01*
X100171313Y-46732567D01*
X100171307Y-46732570D01*
X99957222Y-46832399D01*
X99957220Y-46832400D01*
X99763726Y-46967886D01*
X99763720Y-46967891D01*
X99596691Y-47134920D01*
X99596686Y-47134926D01*
X99461200Y-47328420D01*
X99461199Y-47328422D01*
X99361370Y-47542507D01*
X99361367Y-47542513D01*
X99304164Y-47755999D01*
X99304164Y-47756000D01*
X100201114Y-47756000D01*
X100175307Y-47796156D01*
X100134800Y-47934111D01*
X100134800Y-48077889D01*
X100175307Y-48215844D01*
X100201114Y-48256000D01*
X99304164Y-48256000D01*
X99361367Y-48469486D01*
X99361370Y-48469492D01*
X99461199Y-48683578D01*
X99596694Y-48877082D01*
X99763717Y-49044105D01*
X99957221Y-49179600D01*
X100171307Y-49279429D01*
X100171316Y-49279433D01*
X100384800Y-49336634D01*
X100384800Y-48441501D01*
X100492485Y-48490680D01*
X100599037Y-48506000D01*
X100670563Y-48506000D01*
X100777115Y-48490680D01*
X100884800Y-48441501D01*
X100884800Y-49336633D01*
X101098283Y-49279433D01*
X101098292Y-49279429D01*
X101312378Y-49179600D01*
X101505882Y-49044105D01*
X101672905Y-48877082D01*
X101802919Y-48691405D01*
X101857496Y-48647781D01*
X101926995Y-48640588D01*
X101989349Y-48672110D01*
X102006069Y-48691405D01*
X102136305Y-48877401D01*
X102136306Y-48877402D01*
X102303397Y-49044493D01*
X102303403Y-49044498D01*
X102430923Y-49133788D01*
X102474548Y-49188365D01*
X102483800Y-49235363D01*
X102483800Y-51326015D01*
X102464115Y-51393054D01*
X102447481Y-51413696D01*
X100824004Y-53037172D01*
X100818552Y-53042304D01*
X100774186Y-53081610D01*
X100774176Y-53081621D01*
X100740498Y-53130412D01*
X100736061Y-53136443D01*
X100699512Y-53183094D01*
X100699511Y-53183096D01*
X100695471Y-53192073D01*
X100684453Y-53211608D01*
X100678855Y-53219719D01*
X100657832Y-53275149D01*
X100654968Y-53282065D01*
X100630642Y-53336116D01*
X100628866Y-53345806D01*
X100622845Y-53367403D01*
X100619352Y-53376614D01*
X100619352Y-53376615D01*
X100612206Y-53435465D01*
X100611079Y-53442867D01*
X100600395Y-53501169D01*
X100600395Y-53501172D01*
X100603974Y-53560337D01*
X100604200Y-53567824D01*
X100604200Y-55601374D01*
X100603974Y-55608861D01*
X100600395Y-55668025D01*
X100600395Y-55668028D01*
X100611079Y-55726333D01*
X100612206Y-55733735D01*
X100619352Y-55792582D01*
X100622844Y-55801792D01*
X100628866Y-55823395D01*
X100630641Y-55833081D01*
X100654972Y-55887144D01*
X100657836Y-55894061D01*
X100678853Y-55949478D01*
X100678856Y-55949482D01*
X100684450Y-55957586D01*
X100695474Y-55977134D01*
X100699508Y-55986099D01*
X100699514Y-55986108D01*
X100736063Y-56032760D01*
X100740502Y-56038792D01*
X100774180Y-56087583D01*
X100818551Y-56126893D01*
X100824005Y-56132027D01*
X101449564Y-56757585D01*
X101454698Y-56763038D01*
X101494017Y-56807420D01*
X101542819Y-56841105D01*
X101548838Y-56845534D01*
X101595495Y-56882088D01*
X101604466Y-56886125D01*
X101624003Y-56897143D01*
X101629149Y-56900694D01*
X101673141Y-56954972D01*
X101680805Y-57024420D01*
X101665447Y-57065867D01*
X101618054Y-57146005D01*
X101618054Y-57146006D01*
X101572202Y-57303826D01*
X101572201Y-57303832D01*
X101569300Y-57340698D01*
X101569300Y-57772101D01*
X101572201Y-57808967D01*
X101572202Y-57808973D01*
X101618054Y-57966793D01*
X101618055Y-57966796D01*
X101701717Y-58108262D01*
X101706502Y-58114431D01*
X101704056Y-58116327D01*
X101730657Y-58165042D01*
X101725673Y-58234734D01*
X101704869Y-58267103D01*
X101706502Y-58268369D01*
X101701717Y-58274537D01*
X101618055Y-58416003D01*
X101618054Y-58416006D01*
X101572202Y-58573826D01*
X101572201Y-58573832D01*
X101569300Y-58610698D01*
X101569300Y-59042101D01*
X101572201Y-59078967D01*
X101572202Y-59078973D01*
X101618054Y-59236793D01*
X101618055Y-59236796D01*
X101618056Y-59236798D01*
X101642139Y-59277521D01*
X101679491Y-59340679D01*
X101696674Y-59408403D01*
X101674514Y-59474666D01*
X101620048Y-59518429D01*
X101572760Y-59527800D01*
X101405461Y-59527800D01*
X101405444Y-59527801D01*
X101304447Y-59538119D01*
X101140799Y-59592346D01*
X101140788Y-59592351D01*
X100994065Y-59682852D01*
X100994061Y-59682855D01*
X100872155Y-59804761D01*
X100872152Y-59804765D01*
X100781651Y-59951488D01*
X100781646Y-59951499D01*
X100727419Y-60115147D01*
X100717100Y-60216145D01*
X100717100Y-60252800D01*
X101880600Y-60252800D01*
X101947639Y-60272485D01*
X101993394Y-60325289D01*
X102004600Y-60376800D01*
X102004600Y-61477799D01*
X102103740Y-61477799D01*
X102103754Y-61477798D01*
X102204752Y-61467480D01*
X102368400Y-61413253D01*
X102368411Y-61413248D01*
X102515135Y-61322747D01*
X102529060Y-61308821D01*
X102590382Y-61275333D01*
X102660073Y-61280314D01*
X102704427Y-61308817D01*
X102718750Y-61323140D01*
X102729693Y-61329890D01*
X102776419Y-61381834D01*
X102788600Y-61435430D01*
X102788600Y-61699400D01*
X102768915Y-61766439D01*
X102716111Y-61812194D01*
X102664600Y-61823400D01*
X101755733Y-61823400D01*
X101688694Y-61803715D01*
X101663673Y-61781030D01*
X101663447Y-61781257D01*
X101658829Y-61776639D01*
X101658465Y-61776309D01*
X101658342Y-61776154D01*
X101658340Y-61776150D01*
X101536350Y-61654160D01*
X101530683Y-61649679D01*
X101532441Y-61647454D01*
X101494393Y-61605168D01*
X101483158Y-61536207D01*
X101504600Y-61486832D01*
X101504600Y-60752800D01*
X100717101Y-60752800D01*
X100717101Y-60789454D01*
X100727419Y-60890452D01*
X100781646Y-61054100D01*
X100781651Y-61054111D01*
X100872152Y-61200834D01*
X100872155Y-61200838D01*
X100958636Y-61287319D01*
X100992121Y-61348642D01*
X100987137Y-61418334D01*
X100945265Y-61474267D01*
X100879801Y-61498684D01*
X100870955Y-61499000D01*
X100551331Y-61499000D01*
X100551312Y-61499001D01*
X100450247Y-61509325D01*
X100286484Y-61563592D01*
X100286481Y-61563593D01*
X100139648Y-61654161D01*
X100017663Y-61776146D01*
X100017535Y-61776309D01*
X100017418Y-61776391D01*
X100012553Y-61781257D01*
X100011721Y-61780425D01*
X99960514Y-61816687D01*
X99920267Y-61823400D01*
X99602933Y-61823400D01*
X99539812Y-61806132D01*
X99507627Y-61787098D01*
X99466298Y-61762656D01*
X99466297Y-61762655D01*
X99466296Y-61762655D01*
X99466293Y-61762654D01*
X99308473Y-61716802D01*
X99308467Y-61716801D01*
X99271601Y-61713900D01*
X99271594Y-61713900D01*
X98115206Y-61713900D01*
X98115198Y-61713900D01*
X98078332Y-61716801D01*
X98078326Y-61716802D01*
X97920506Y-61762654D01*
X97920503Y-61762655D01*
X97779037Y-61846317D01*
X97779029Y-61846323D01*
X97662823Y-61962529D01*
X97662814Y-61962540D01*
X97662629Y-61962855D01*
X97662419Y-61963050D01*
X97658039Y-61968698D01*
X97657127Y-61967991D01*
X97611557Y-62010536D01*
X97542815Y-62023037D01*
X97478227Y-61996388D01*
X97454043Y-61968478D01*
X97453761Y-61968698D01*
X97449723Y-61963492D01*
X97449171Y-61962855D01*
X97448985Y-61962540D01*
X97448976Y-61962529D01*
X97332770Y-61846323D01*
X97332762Y-61846317D01*
X97214108Y-61776146D01*
X97191298Y-61762656D01*
X97191297Y-61762655D01*
X97191296Y-61762655D01*
X97191293Y-61762654D01*
X97033473Y-61716802D01*
X97033467Y-61716801D01*
X96996601Y-61713900D01*
X96996594Y-61713900D01*
X95840206Y-61713900D01*
X95840198Y-61713900D01*
X95803332Y-61716801D01*
X95803326Y-61716802D01*
X95645506Y-61762654D01*
X95645503Y-61762655D01*
X95561737Y-61812194D01*
X95535745Y-61827566D01*
X95533773Y-61828732D01*
X95470652Y-61846000D01*
X94861831Y-61846000D01*
X94794792Y-61826315D01*
X94756293Y-61787098D01*
X94749540Y-61776150D01*
X94627551Y-61654161D01*
X94627550Y-61654160D01*
X94480716Y-61563592D01*
X94316953Y-61509326D01*
X94316951Y-61509325D01*
X94215878Y-61499000D01*
X93642530Y-61499000D01*
X93642512Y-61499001D01*
X93541447Y-61509325D01*
X93377684Y-61563592D01*
X93377681Y-61563593D01*
X93281156Y-61623130D01*
X93230850Y-61654160D01*
X93230848Y-61654161D01*
X93224703Y-61657952D01*
X93223332Y-61655729D01*
X93169826Y-61677308D01*
X93157725Y-61677900D01*
X93089330Y-61677900D01*
X93022291Y-61658215D01*
X93001649Y-61641581D01*
X92914257Y-61554189D01*
X92914256Y-61554188D01*
X92764934Y-61462086D01*
X92764932Y-61462085D01*
X92764930Y-61462084D01*
X92764928Y-61462083D01*
X92762088Y-61461142D01*
X92760393Y-61459968D01*
X92758389Y-61459034D01*
X92758548Y-61458691D01*
X92704646Y-61421366D01*
X92677827Y-61356848D01*
X92677100Y-61343439D01*
X92677100Y-60977541D01*
X92681203Y-60951689D01*
X92679922Y-60951417D01*
X92681272Y-60945061D01*
X92681274Y-60945056D01*
X92701060Y-60756800D01*
X92681274Y-60568544D01*
X92622779Y-60388516D01*
X92528133Y-60224584D01*
X92401471Y-60083912D01*
X92401470Y-60083911D01*
X92248334Y-59972651D01*
X92248329Y-59972648D01*
X92075407Y-59895657D01*
X92075402Y-59895655D01*
X91929601Y-59864665D01*
X91890246Y-59856300D01*
X91700954Y-59856300D01*
X91668497Y-59863198D01*
X91515797Y-59895655D01*
X91515792Y-59895657D01*
X91342870Y-59972648D01*
X91342865Y-59972651D01*
X91189729Y-60083911D01*
X91063066Y-60224585D01*
X90968421Y-60388515D01*
X90968418Y-60388522D01*
X90946015Y-60457473D01*
X90909926Y-60568544D01*
X90890140Y-60756800D01*
X90909215Y-60938295D01*
X90909927Y-60945061D01*
X90911278Y-60951417D01*
X90909996Y-60951689D01*
X90914100Y-60977541D01*
X90914100Y-61343439D01*
X90894415Y-61410478D01*
X90841611Y-61456233D01*
X90829112Y-61461142D01*
X90826271Y-61462083D01*
X90826269Y-61462084D01*
X90676942Y-61554189D01*
X90552889Y-61678242D01*
X90460787Y-61827563D01*
X90460785Y-61827568D01*
X90432949Y-61911570D01*
X90405601Y-61994103D01*
X90405601Y-61994104D01*
X90405600Y-61994104D01*
X90395100Y-62096883D01*
X90395100Y-63021901D01*
X90395101Y-63021919D01*
X90405600Y-63124696D01*
X90405601Y-63124699D01*
X90460785Y-63291231D01*
X90460787Y-63291236D01*
X90475383Y-63314900D01*
X90552888Y-63440556D01*
X90676944Y-63564612D01*
X90826266Y-63656714D01*
X90992803Y-63711899D01*
X91095591Y-63722400D01*
X92495608Y-63722399D01*
X92598397Y-63711899D01*
X92764934Y-63656714D01*
X92790439Y-63640982D01*
X92857829Y-63622542D01*
X92924493Y-63643464D01*
X92969263Y-63697105D01*
X92977925Y-63766436D01*
X92973242Y-63785523D01*
X92964518Y-63811848D01*
X92954200Y-63912845D01*
X92954200Y-64012000D01*
X94904199Y-64012000D01*
X94904199Y-63912860D01*
X94904198Y-63912845D01*
X94893880Y-63811847D01*
X94839653Y-63648199D01*
X94839648Y-63648188D01*
X94749147Y-63501465D01*
X94749144Y-63501461D01*
X94735217Y-63487534D01*
X94701732Y-63426211D01*
X94706716Y-63356519D01*
X94735217Y-63312172D01*
X94749540Y-63297850D01*
X94756293Y-63286902D01*
X94808242Y-63240178D01*
X94861831Y-63228000D01*
X95547082Y-63228000D01*
X95610202Y-63245267D01*
X95645502Y-63266144D01*
X95663008Y-63271230D01*
X95803326Y-63311997D01*
X95803329Y-63311997D01*
X95803331Y-63311998D01*
X95840206Y-63314900D01*
X95840214Y-63314900D01*
X96996586Y-63314900D01*
X96996594Y-63314900D01*
X97033469Y-63311998D01*
X97033471Y-63311997D01*
X97033473Y-63311997D01*
X97082173Y-63297848D01*
X97191298Y-63266144D01*
X97249594Y-63231668D01*
X97312715Y-63214400D01*
X97578194Y-63214400D01*
X97602457Y-63188152D01*
X97662418Y-63152285D01*
X97732252Y-63154529D01*
X97771912Y-63178930D01*
X97772869Y-63177698D01*
X97779032Y-63182478D01*
X97779035Y-63182481D01*
X97920502Y-63266144D01*
X97938008Y-63271230D01*
X98078326Y-63311997D01*
X98078329Y-63311997D01*
X98078331Y-63311998D01*
X98115206Y-63314900D01*
X98115214Y-63314900D01*
X99271586Y-63314900D01*
X99271594Y-63314900D01*
X99308469Y-63311998D01*
X99308471Y-63311997D01*
X99308473Y-63311997D01*
X99357173Y-63297848D01*
X99466298Y-63266144D01*
X99539812Y-63222667D01*
X99602933Y-63205400D01*
X99891430Y-63205400D01*
X99958469Y-63225085D01*
X99996967Y-63264302D01*
X99998104Y-63266145D01*
X100017659Y-63297849D01*
X100031982Y-63312172D01*
X100065467Y-63373495D01*
X100060483Y-63443187D01*
X100031985Y-63487532D01*
X100018052Y-63501465D01*
X99927551Y-63648188D01*
X99927546Y-63648199D01*
X99886769Y-63771258D01*
X99846996Y-63828703D01*
X99782481Y-63855526D01*
X99713705Y-63843211D01*
X99681382Y-63819935D01*
X99607770Y-63746323D01*
X99607762Y-63746317D01*
X99466296Y-63662655D01*
X99466293Y-63662654D01*
X99308473Y-63616802D01*
X99308467Y-63616801D01*
X99271601Y-63613900D01*
X99271594Y-63613900D01*
X98115206Y-63613900D01*
X98115198Y-63613900D01*
X98078332Y-63616801D01*
X98078326Y-63616802D01*
X97920506Y-63662654D01*
X97920503Y-63662655D01*
X97779037Y-63746317D01*
X97772869Y-63751102D01*
X97771564Y-63749419D01*
X97719854Y-63777646D01*
X97650163Y-63772651D01*
X97602458Y-63740647D01*
X97578196Y-63714400D01*
X97312715Y-63714400D01*
X97249594Y-63697132D01*
X97191296Y-63662655D01*
X97191293Y-63662654D01*
X97033473Y-63616802D01*
X97033467Y-63616801D01*
X96996601Y-63613900D01*
X96996594Y-63613900D01*
X95840206Y-63613900D01*
X95840198Y-63613900D01*
X95803332Y-63616801D01*
X95803326Y-63616802D01*
X95645506Y-63662654D01*
X95645503Y-63662655D01*
X95587206Y-63697132D01*
X95524085Y-63714400D01*
X95258605Y-63714400D01*
X95258604Y-63714401D01*
X95258799Y-63716888D01*
X95258800Y-63716894D01*
X95304616Y-63874593D01*
X95304620Y-63874603D01*
X95305327Y-63875798D01*
X95305595Y-63876854D01*
X95307716Y-63881756D01*
X95306924Y-63882098D01*
X95322503Y-63943523D01*
X95306893Y-63996684D01*
X95307255Y-63996841D01*
X95305987Y-63999769D01*
X95305327Y-64002020D01*
X95304159Y-64003994D01*
X95304154Y-64004007D01*
X95258302Y-64161826D01*
X95258301Y-64161832D01*
X95255400Y-64198698D01*
X95255400Y-64630101D01*
X95258301Y-64666967D01*
X95258302Y-64666973D01*
X95304154Y-64824793D01*
X95304155Y-64824796D01*
X95387632Y-64965950D01*
X95387818Y-64966264D01*
X95387823Y-64966270D01*
X95504029Y-65082476D01*
X95504033Y-65082479D01*
X95504035Y-65082481D01*
X95645502Y-65166144D01*
X95687124Y-65178236D01*
X95803326Y-65211997D01*
X95803329Y-65211997D01*
X95803331Y-65211998D01*
X95840206Y-65214900D01*
X95840214Y-65214900D01*
X96996586Y-65214900D01*
X96996594Y-65214900D01*
X97033469Y-65211998D01*
X97033471Y-65211997D01*
X97033473Y-65211997D01*
X97081581Y-65198020D01*
X97191298Y-65166144D01*
X97332765Y-65082481D01*
X97448981Y-64966265D01*
X97449167Y-64965949D01*
X97449377Y-64965753D01*
X97453761Y-64960102D01*
X97454672Y-64960809D01*
X97500236Y-64918266D01*
X97568977Y-64905762D01*
X97633567Y-64932406D01*
X97657755Y-64960321D01*
X97658039Y-64960102D01*
X97662079Y-64965311D01*
X97662632Y-64965948D01*
X97662819Y-64966265D01*
X97662821Y-64966267D01*
X97662823Y-64966270D01*
X97779029Y-65082476D01*
X97779033Y-65082479D01*
X97779035Y-65082481D01*
X97920502Y-65166144D01*
X97962124Y-65178236D01*
X98078326Y-65211997D01*
X98078329Y-65211997D01*
X98078331Y-65211998D01*
X98115206Y-65214900D01*
X98115214Y-65214900D01*
X99271586Y-65214900D01*
X99271594Y-65214900D01*
X99308469Y-65211998D01*
X99308471Y-65211997D01*
X99308473Y-65211997D01*
X99356581Y-65198020D01*
X99466298Y-65166144D01*
X99607765Y-65082481D01*
X99723981Y-64966265D01*
X99746436Y-64928294D01*
X99797501Y-64880613D01*
X99866243Y-64868107D01*
X99930833Y-64894751D01*
X99958705Y-64926318D01*
X100018054Y-65022537D01*
X100139961Y-65144444D01*
X100139965Y-65144447D01*
X100286688Y-65234948D01*
X100286699Y-65234953D01*
X100450347Y-65289180D01*
X100551352Y-65299499D01*
X100588000Y-65299499D01*
X100588000Y-64512000D01*
X101088000Y-64512000D01*
X101088000Y-65299499D01*
X101124640Y-65299499D01*
X101124654Y-65299498D01*
X101225652Y-65289180D01*
X101389300Y-65234953D01*
X101389307Y-65234950D01*
X101449179Y-65198020D01*
X101516571Y-65179579D01*
X101583235Y-65200501D01*
X101628005Y-65254142D01*
X101637635Y-65316160D01*
X101629300Y-65397743D01*
X101629300Y-65434400D01*
X102416800Y-65434400D01*
X102416800Y-64709399D01*
X102317660Y-64709400D01*
X102317644Y-64709401D01*
X102216647Y-64719719D01*
X102052999Y-64773946D01*
X102052990Y-64773950D01*
X101993118Y-64810880D01*
X101925726Y-64829320D01*
X101859062Y-64808397D01*
X101814293Y-64754755D01*
X101804664Y-64692738D01*
X101812999Y-64611153D01*
X101813000Y-64611141D01*
X101813000Y-64512000D01*
X101088000Y-64512000D01*
X100588000Y-64512000D01*
X100588000Y-64136000D01*
X100607685Y-64068961D01*
X100660489Y-64023206D01*
X100712000Y-64012000D01*
X101812999Y-64012000D01*
X101812999Y-63912860D01*
X101812998Y-63912845D01*
X101802680Y-63811847D01*
X101748453Y-63648199D01*
X101748448Y-63648188D01*
X101657947Y-63501465D01*
X101657944Y-63501461D01*
X101644017Y-63487534D01*
X101610532Y-63426211D01*
X101615516Y-63356519D01*
X101644017Y-63312172D01*
X101658340Y-63297850D01*
X101679032Y-63264303D01*
X101730978Y-63217579D01*
X101784570Y-63205400D01*
X103121616Y-63205400D01*
X103188655Y-63225085D01*
X103209297Y-63241719D01*
X103664481Y-63696902D01*
X103697966Y-63758225D01*
X103700800Y-63784583D01*
X103700800Y-64751769D01*
X103681115Y-64818808D01*
X103641898Y-64857307D01*
X103630950Y-64864059D01*
X103616625Y-64878384D01*
X103555301Y-64911868D01*
X103485609Y-64906882D01*
X103441265Y-64878382D01*
X103427338Y-64864455D01*
X103427334Y-64864452D01*
X103280611Y-64773951D01*
X103280600Y-64773946D01*
X103116952Y-64719719D01*
X103015954Y-64709400D01*
X102916800Y-64709400D01*
X102916800Y-66659399D01*
X103015940Y-66659399D01*
X103015954Y-66659398D01*
X103116952Y-66649080D01*
X103280600Y-66594853D01*
X103280611Y-66594848D01*
X103427335Y-66504347D01*
X103441260Y-66490421D01*
X103502582Y-66456933D01*
X103572273Y-66461914D01*
X103616627Y-66490417D01*
X103630950Y-66504740D01*
X103777784Y-66595308D01*
X103941547Y-66649574D01*
X104042623Y-66659900D01*
X104740976Y-66659899D01*
X104740984Y-66659898D01*
X104740987Y-66659898D01*
X104796330Y-66654244D01*
X104842053Y-66649574D01*
X105005816Y-66595308D01*
X105134854Y-66515716D01*
X105202244Y-66497277D01*
X105268908Y-66518199D01*
X105313678Y-66571841D01*
X105322138Y-66605792D01*
X105322463Y-66605733D01*
X105323394Y-66610832D01*
X105323567Y-66611525D01*
X105323601Y-66611968D01*
X105323602Y-66611973D01*
X105369454Y-66769793D01*
X105369455Y-66769796D01*
X105369456Y-66769798D01*
X105406881Y-66833081D01*
X105453117Y-66911262D01*
X105453123Y-66911270D01*
X105538572Y-66996719D01*
X105572057Y-67058042D01*
X105567073Y-67127734D01*
X105525201Y-67183667D01*
X105459737Y-67208084D01*
X105450891Y-67208400D01*
X87797300Y-67208400D01*
X87730261Y-67188715D01*
X87684506Y-67135911D01*
X87673300Y-67084400D01*
X87673300Y-65934400D01*
X90395601Y-65934400D01*
X90395601Y-66146886D01*
X90406094Y-66249597D01*
X90461241Y-66416019D01*
X90461243Y-66416024D01*
X90553284Y-66565245D01*
X90677254Y-66689215D01*
X90826475Y-66781256D01*
X90826480Y-66781258D01*
X90992902Y-66836405D01*
X90992909Y-66836406D01*
X91095619Y-66846899D01*
X91545599Y-66846899D01*
X91545600Y-66846898D01*
X91545600Y-65934400D01*
X92045600Y-65934400D01*
X92045600Y-66846899D01*
X92495572Y-66846899D01*
X92495586Y-66846898D01*
X92598297Y-66836405D01*
X92764719Y-66781258D01*
X92764724Y-66781256D01*
X92913945Y-66689215D01*
X93037915Y-66565245D01*
X93129956Y-66416024D01*
X93129958Y-66416019D01*
X93185105Y-66249597D01*
X93185106Y-66249590D01*
X93195599Y-66146886D01*
X93195600Y-66146873D01*
X93195600Y-65934400D01*
X101629301Y-65934400D01*
X101629301Y-65971054D01*
X101639619Y-66072052D01*
X101693846Y-66235700D01*
X101693851Y-66235711D01*
X101784352Y-66382434D01*
X101784355Y-66382438D01*
X101906261Y-66504344D01*
X101906265Y-66504347D01*
X102052988Y-66594848D01*
X102052999Y-66594853D01*
X102216647Y-66649080D01*
X102317651Y-66659399D01*
X102416800Y-66659398D01*
X102416800Y-65934400D01*
X101629301Y-65934400D01*
X93195600Y-65934400D01*
X92045600Y-65934400D01*
X91545600Y-65934400D01*
X90395601Y-65934400D01*
X87673300Y-65934400D01*
X87673300Y-65434400D01*
X90395600Y-65434400D01*
X91545600Y-65434400D01*
X92045600Y-65434400D01*
X93195599Y-65434400D01*
X93195599Y-65344587D01*
X93215284Y-65277548D01*
X93268088Y-65231793D01*
X93337246Y-65221849D01*
X93372001Y-65232203D01*
X93377899Y-65234953D01*
X93541547Y-65289180D01*
X93642552Y-65299499D01*
X93679200Y-65299499D01*
X93679200Y-64512000D01*
X94179200Y-64512000D01*
X94179200Y-65299499D01*
X94215840Y-65299499D01*
X94215854Y-65299498D01*
X94316852Y-65289180D01*
X94480500Y-65234953D01*
X94480511Y-65234948D01*
X94627234Y-65144447D01*
X94627238Y-65144444D01*
X94749144Y-65022538D01*
X94749147Y-65022534D01*
X94839648Y-64875811D01*
X94839653Y-64875800D01*
X94893880Y-64712152D01*
X94904199Y-64611154D01*
X94904200Y-64611141D01*
X94904200Y-64512000D01*
X94179200Y-64512000D01*
X93679200Y-64512000D01*
X92954201Y-64512000D01*
X92941829Y-64524371D01*
X92934516Y-64549278D01*
X92881712Y-64595033D01*
X92812554Y-64604977D01*
X92771502Y-64590097D01*
X92771270Y-64590596D01*
X92765656Y-64587978D01*
X92765106Y-64587779D01*
X92764726Y-64587544D01*
X92764719Y-64587541D01*
X92598297Y-64532394D01*
X92598290Y-64532393D01*
X92495586Y-64521900D01*
X92045600Y-64521900D01*
X92045600Y-65434400D01*
X91545600Y-65434400D01*
X91545600Y-64521900D01*
X91095628Y-64521900D01*
X91095612Y-64521901D01*
X90992902Y-64532394D01*
X90826480Y-64587541D01*
X90826475Y-64587543D01*
X90677254Y-64679584D01*
X90553284Y-64803554D01*
X90461243Y-64952775D01*
X90461241Y-64952780D01*
X90406094Y-65119202D01*
X90406093Y-65119209D01*
X90395600Y-65221913D01*
X90395600Y-65434400D01*
X87673300Y-65434400D01*
X87673300Y-59076401D01*
X96622504Y-59076401D01*
X96622699Y-59078886D01*
X96668518Y-59236598D01*
X96752114Y-59377952D01*
X96752121Y-59377961D01*
X96868238Y-59494078D01*
X96868247Y-59494085D01*
X97009603Y-59577682D01*
X97009606Y-59577683D01*
X97167304Y-59623499D01*
X97167310Y-59623500D01*
X97204150Y-59626399D01*
X97204166Y-59626400D01*
X97844800Y-59626400D01*
X97844800Y-59076400D01*
X98344800Y-59076400D01*
X98344800Y-59626400D01*
X98985434Y-59626400D01*
X98985449Y-59626399D01*
X99022289Y-59623500D01*
X99022295Y-59623499D01*
X99179993Y-59577683D01*
X99179996Y-59577682D01*
X99321352Y-59494085D01*
X99321361Y-59494078D01*
X99437478Y-59377961D01*
X99437485Y-59377952D01*
X99521081Y-59236598D01*
X99566900Y-59078886D01*
X99567095Y-59076401D01*
X99567095Y-59076400D01*
X98344800Y-59076400D01*
X97844800Y-59076400D01*
X96622505Y-59076400D01*
X96622504Y-59076401D01*
X87673300Y-59076401D01*
X87673300Y-57772101D01*
X96619300Y-57772101D01*
X96622201Y-57808967D01*
X96622202Y-57808973D01*
X96668054Y-57966793D01*
X96668055Y-57966796D01*
X96751717Y-58108262D01*
X96756502Y-58114431D01*
X96754169Y-58116240D01*
X96781010Y-58165395D01*
X96776026Y-58235087D01*
X96755270Y-58267421D01*
X96756897Y-58268683D01*
X96752113Y-58274849D01*
X96668518Y-58416201D01*
X96622699Y-58573913D01*
X96622504Y-58576398D01*
X96622505Y-58576400D01*
X99567095Y-58576400D01*
X99567095Y-58576398D01*
X99566900Y-58573913D01*
X99521081Y-58416201D01*
X99437485Y-58274847D01*
X99432700Y-58268678D01*
X99435166Y-58266764D01*
X99408602Y-58218176D01*
X99413549Y-58148482D01*
X99434656Y-58115632D01*
X99433101Y-58114426D01*
X99437877Y-58108268D01*
X99437881Y-58108265D01*
X99521544Y-57966798D01*
X99567398Y-57808969D01*
X99570300Y-57772094D01*
X99570300Y-57340706D01*
X99567398Y-57303831D01*
X99553351Y-57255483D01*
X99521545Y-57146006D01*
X99521544Y-57146003D01*
X99521544Y-57146002D01*
X99437881Y-57004535D01*
X99437878Y-57004532D01*
X99433098Y-56998369D01*
X99435550Y-56996466D01*
X99408955Y-56947821D01*
X99413904Y-56878126D01*
X99434740Y-56845704D01*
X99433098Y-56844431D01*
X99437875Y-56838270D01*
X99437881Y-56838265D01*
X99521544Y-56696798D01*
X99567398Y-56538969D01*
X99570300Y-56502094D01*
X99570300Y-56070706D01*
X99567398Y-56033831D01*
X99564606Y-56024222D01*
X99521545Y-55876006D01*
X99521544Y-55876003D01*
X99521544Y-55876002D01*
X99437881Y-55734535D01*
X99437878Y-55734532D01*
X99433098Y-55728369D01*
X99435550Y-55726466D01*
X99408955Y-55677821D01*
X99413904Y-55608126D01*
X99434740Y-55575704D01*
X99433098Y-55574431D01*
X99437875Y-55568270D01*
X99437881Y-55568265D01*
X99521544Y-55426798D01*
X99567398Y-55268969D01*
X99570300Y-55232094D01*
X99570300Y-54800706D01*
X99567398Y-54763831D01*
X99559258Y-54735814D01*
X99521545Y-54606006D01*
X99521544Y-54606003D01*
X99521544Y-54606002D01*
X99437881Y-54464535D01*
X99437879Y-54464533D01*
X99437876Y-54464529D01*
X99321670Y-54348323D01*
X99321662Y-54348317D01*
X99220503Y-54288492D01*
X99180198Y-54264656D01*
X99180197Y-54264655D01*
X99180196Y-54264655D01*
X99180193Y-54264654D01*
X99022373Y-54218802D01*
X99022367Y-54218801D01*
X98985501Y-54215900D01*
X98985494Y-54215900D01*
X97204106Y-54215900D01*
X97204098Y-54215900D01*
X97167232Y-54218801D01*
X97167226Y-54218802D01*
X97009406Y-54264654D01*
X97009403Y-54264655D01*
X96867937Y-54348317D01*
X96867929Y-54348323D01*
X96751723Y-54464529D01*
X96751717Y-54464537D01*
X96668055Y-54606003D01*
X96668054Y-54606006D01*
X96622202Y-54763826D01*
X96622201Y-54763832D01*
X96619300Y-54800698D01*
X96619300Y-55232101D01*
X96622201Y-55268967D01*
X96622202Y-55268973D01*
X96668054Y-55426793D01*
X96668055Y-55426796D01*
X96751717Y-55568262D01*
X96756502Y-55574431D01*
X96754056Y-55576327D01*
X96780657Y-55625042D01*
X96775673Y-55694734D01*
X96754869Y-55727103D01*
X96756502Y-55728369D01*
X96751717Y-55734537D01*
X96668055Y-55876003D01*
X96668054Y-55876006D01*
X96622202Y-56033826D01*
X96622201Y-56033832D01*
X96619300Y-56070698D01*
X96619300Y-56502101D01*
X96622201Y-56538967D01*
X96622202Y-56538973D01*
X96668054Y-56696793D01*
X96668055Y-56696796D01*
X96668056Y-56696798D01*
X96704005Y-56757585D01*
X96751717Y-56838262D01*
X96756502Y-56844431D01*
X96754056Y-56846327D01*
X96780657Y-56895042D01*
X96775673Y-56964734D01*
X96754869Y-56997103D01*
X96756502Y-56998369D01*
X96751717Y-57004537D01*
X96668055Y-57146003D01*
X96668054Y-57146006D01*
X96622202Y-57303826D01*
X96622201Y-57303832D01*
X96619300Y-57340698D01*
X96619300Y-57772101D01*
X87673300Y-57772101D01*
X87673300Y-46420700D01*
X87692985Y-46353661D01*
X87745789Y-46307906D01*
X87797300Y-46296700D01*
X127823300Y-46296700D01*
X127890339Y-46316385D01*
G37*
G04 #@! TD.AperFunction*
G04 #@! TA.AperFunction,Conductor*
G36*
X104529655Y-48672546D02*
G01*
X104546375Y-48691842D01*
X104676301Y-48877396D01*
X104676306Y-48877402D01*
X104843397Y-49044493D01*
X104843403Y-49044498D01*
X104970923Y-49133788D01*
X105014548Y-49188365D01*
X105023800Y-49235363D01*
X105023800Y-50013374D01*
X105023574Y-50020861D01*
X105019995Y-50080025D01*
X105019995Y-50080028D01*
X105030679Y-50138333D01*
X105031806Y-50145735D01*
X105038952Y-50204582D01*
X105042444Y-50213792D01*
X105048466Y-50235395D01*
X105050241Y-50245081D01*
X105074572Y-50299144D01*
X105077436Y-50306061D01*
X105098453Y-50361478D01*
X105098456Y-50361482D01*
X105104050Y-50369586D01*
X105115074Y-50389134D01*
X105119108Y-50398099D01*
X105119114Y-50398108D01*
X105155663Y-50444760D01*
X105160102Y-50450792D01*
X105193780Y-50499583D01*
X105238151Y-50538893D01*
X105243605Y-50544027D01*
X106478779Y-51779201D01*
X106483899Y-51784639D01*
X106523217Y-51829020D01*
X106572014Y-51862703D01*
X106578033Y-51867132D01*
X106624694Y-51903688D01*
X106633665Y-51907725D01*
X106653220Y-51918754D01*
X106661318Y-51924344D01*
X106716742Y-51945363D01*
X106723640Y-51948220D01*
X106777715Y-51972557D01*
X106787396Y-51974331D01*
X106809018Y-51980359D01*
X106818216Y-51983847D01*
X106818217Y-51983848D01*
X106863336Y-51989326D01*
X106927515Y-52016947D01*
X106966572Y-52074881D01*
X106968107Y-52144734D01*
X106931634Y-52204328D01*
X106921277Y-52212740D01*
X106785327Y-52311513D01*
X106658666Y-52452185D01*
X106564021Y-52616115D01*
X106564018Y-52616122D01*
X106505527Y-52796140D01*
X106505526Y-52796144D01*
X106485740Y-52984400D01*
X106505526Y-53172656D01*
X106505527Y-53172659D01*
X106564018Y-53352677D01*
X106564021Y-53352684D01*
X106658667Y-53516616D01*
X106741796Y-53608940D01*
X106785329Y-53657288D01*
X106938465Y-53768548D01*
X106938470Y-53768551D01*
X107111392Y-53845542D01*
X107111393Y-53845542D01*
X107111397Y-53845544D01*
X107111400Y-53845544D01*
X107117574Y-53847551D01*
X107116861Y-53849745D01*
X107169053Y-53877906D01*
X107202845Y-53939061D01*
X107198209Y-54008776D01*
X107181800Y-54034450D01*
X107181800Y-54766400D01*
X107969299Y-54766400D01*
X107969299Y-54729760D01*
X107969298Y-54729745D01*
X107958980Y-54628747D01*
X107904753Y-54465099D01*
X107904748Y-54465088D01*
X107814247Y-54318365D01*
X107814244Y-54318361D01*
X107692338Y-54196455D01*
X107692334Y-54196452D01*
X107545611Y-54105951D01*
X107539060Y-54102897D01*
X107540149Y-54100561D01*
X107492617Y-54067634D01*
X107465811Y-54003111D01*
X107478143Y-53934339D01*
X107525699Y-53883151D01*
X107563297Y-53868437D01*
X107671003Y-53845544D01*
X107671007Y-53845542D01*
X107671008Y-53845542D01*
X107788790Y-53793101D01*
X107843930Y-53768551D01*
X107859962Y-53756902D01*
X107939547Y-53699082D01*
X108005353Y-53675602D01*
X108012432Y-53675400D01*
X108076348Y-53675400D01*
X108143387Y-53695085D01*
X108164029Y-53711719D01*
X108240581Y-53788271D01*
X108274066Y-53849594D01*
X108276900Y-53875952D01*
X108276900Y-54981715D01*
X108257215Y-55048754D01*
X108240581Y-55069396D01*
X108079896Y-55230081D01*
X108018573Y-55263566D01*
X107992215Y-55266400D01*
X106805800Y-55266400D01*
X106738761Y-55246715D01*
X106693006Y-55193911D01*
X106681800Y-55142400D01*
X106681800Y-54041399D01*
X106582660Y-54041400D01*
X106582644Y-54041401D01*
X106481647Y-54051719D01*
X106358892Y-54092396D01*
X106289063Y-54094798D01*
X106229021Y-54059066D01*
X106197829Y-53996545D01*
X106196567Y-53961734D01*
X106213860Y-53797200D01*
X106194074Y-53608944D01*
X106135579Y-53428916D01*
X106040933Y-53264984D01*
X105914271Y-53124312D01*
X105855512Y-53081621D01*
X105761134Y-53013051D01*
X105761129Y-53013048D01*
X105588207Y-52936057D01*
X105588202Y-52936055D01*
X105442401Y-52905065D01*
X105403046Y-52896700D01*
X105213754Y-52896700D01*
X105181297Y-52903598D01*
X105028597Y-52936055D01*
X105028592Y-52936057D01*
X104855670Y-53013048D01*
X104855665Y-53013051D01*
X104702529Y-53124311D01*
X104575866Y-53264985D01*
X104481221Y-53428915D01*
X104481218Y-53428922D01*
X104422727Y-53608940D01*
X104422726Y-53608944D01*
X104402940Y-53797200D01*
X104422726Y-53985456D01*
X104430303Y-54008776D01*
X104456588Y-54089672D01*
X104458583Y-54159513D01*
X104426338Y-54215672D01*
X104353517Y-54288492D01*
X104292193Y-54321976D01*
X104222502Y-54316991D01*
X104202716Y-54307542D01*
X104130200Y-54264657D01*
X104130193Y-54264654D01*
X103972373Y-54218802D01*
X103972367Y-54218801D01*
X103935501Y-54215900D01*
X103935494Y-54215900D01*
X102154106Y-54215900D01*
X102154093Y-54215900D01*
X102119926Y-54218589D01*
X102051549Y-54204223D01*
X102001793Y-54155171D01*
X101986200Y-54094971D01*
X101986200Y-53880782D01*
X102005885Y-53813743D01*
X102022514Y-53793106D01*
X103646009Y-52169610D01*
X103651411Y-52164524D01*
X103695820Y-52125183D01*
X103729518Y-52076360D01*
X103733908Y-52070393D01*
X103770488Y-52023705D01*
X103774522Y-52014739D01*
X103785554Y-51995180D01*
X103791142Y-51987085D01*
X103791142Y-51987084D01*
X103791144Y-51987082D01*
X103812178Y-51931617D01*
X103815018Y-51924761D01*
X103839357Y-51870685D01*
X103841130Y-51861003D01*
X103847156Y-51839388D01*
X103850648Y-51830182D01*
X103857793Y-51771330D01*
X103858919Y-51763936D01*
X103869604Y-51705633D01*
X103869605Y-51705626D01*
X103866026Y-51646460D01*
X103865800Y-51638973D01*
X103865800Y-49235363D01*
X103885485Y-49168324D01*
X103918677Y-49133788D01*
X103969319Y-49098328D01*
X104046201Y-49044495D01*
X104213295Y-48877401D01*
X104343225Y-48691842D01*
X104397802Y-48648217D01*
X104467300Y-48641023D01*
X104529655Y-48672546D01*
G37*
G04 #@! TD.AperFunction*
M02*
