G04 #@! TF.GenerationSoftware,KiCad,Pcbnew,7.0.11-2.fc39*
G04 #@! TF.CreationDate,2024-06-09T18:16:26+02:00*
G04 #@! TF.ProjectId,current_measurement_extension,63757272-656e-4745-9f6d-656173757265,1.0*
G04 #@! TF.SameCoordinates,Original*
G04 #@! TF.FileFunction,Legend,Top*
G04 #@! TF.FilePolarity,Positive*
%FSLAX46Y46*%
G04 Gerber Fmt 4.6, Leading zero omitted, Abs format (unit mm)*
G04 Created by KiCad (PCBNEW 7.0.11-2.fc39) date 2024-06-09 18:16:26*
%MOMM*%
%LPD*%
G01*
G04 APERTURE LIST*
G04 Aperture macros list*
%AMRoundRect*
0 Rectangle with rounded corners*
0 $1 Rounding radius*
0 $2 $3 $4 $5 $6 $7 $8 $9 X,Y pos of 4 corners*
0 Add a 4 corners polygon primitive as box body*
4,1,4,$2,$3,$4,$5,$6,$7,$8,$9,$2,$3,0*
0 Add four circle primitives for the rounded corners*
1,1,$1+$1,$2,$3*
1,1,$1+$1,$4,$5*
1,1,$1+$1,$6,$7*
1,1,$1+$1,$8,$9*
0 Add four rect primitives between the rounded corners*
20,1,$1+$1,$2,$3,$4,$5,0*
20,1,$1+$1,$4,$5,$6,$7,0*
20,1,$1+$1,$6,$7,$8,$9,0*
20,1,$1+$1,$8,$9,$2,$3,0*%
G04 Aperture macros list end*
%ADD10C,0.250000*%
%ADD11C,0.150000*%
%ADD12C,0.120000*%
%ADD13RoundRect,0.237500X-0.300000X-0.237500X0.300000X-0.237500X0.300000X0.237500X-0.300000X0.237500X0*%
%ADD14RoundRect,0.150000X-0.512500X-0.150000X0.512500X-0.150000X0.512500X0.150000X-0.512500X0.150000X0*%
%ADD15R,1.700000X1.700000*%
%ADD16O,1.700000X1.700000*%
%ADD17RoundRect,0.237500X0.250000X0.237500X-0.250000X0.237500X-0.250000X-0.237500X0.250000X-0.237500X0*%
%ADD18RoundRect,0.237500X-0.237500X0.250000X-0.237500X-0.250000X0.237500X-0.250000X0.237500X0.250000X0*%
%ADD19RoundRect,0.237500X0.300000X0.237500X-0.300000X0.237500X-0.300000X-0.237500X0.300000X-0.237500X0*%
%ADD20RoundRect,0.250000X-0.650000X0.412500X-0.650000X-0.412500X0.650000X-0.412500X0.650000X0.412500X0*%
%ADD21RoundRect,0.150000X-0.825000X-0.150000X0.825000X-0.150000X0.825000X0.150000X-0.825000X0.150000X0*%
%ADD22RoundRect,0.150000X0.150000X-0.512500X0.150000X0.512500X-0.150000X0.512500X-0.150000X-0.512500X0*%
%ADD23RoundRect,0.150000X0.150000X-0.825000X0.150000X0.825000X-0.150000X0.825000X-0.150000X-0.825000X0*%
%ADD24RoundRect,0.237500X-0.237500X0.300000X-0.237500X-0.300000X0.237500X-0.300000X0.237500X0.300000X0*%
G04 APERTURE END LIST*
D10*
X99817978Y-73184619D02*
X99817978Y-72184619D01*
X100294168Y-73184619D02*
X100294168Y-72184619D01*
X100294168Y-72184619D02*
X100675120Y-72184619D01*
X100675120Y-72184619D02*
X100770358Y-72232238D01*
X100770358Y-72232238D02*
X100817977Y-72279857D01*
X100817977Y-72279857D02*
X100865596Y-72375095D01*
X100865596Y-72375095D02*
X100865596Y-72517952D01*
X100865596Y-72517952D02*
X100817977Y-72613190D01*
X100817977Y-72613190D02*
X100770358Y-72660809D01*
X100770358Y-72660809D02*
X100675120Y-72708428D01*
X100675120Y-72708428D02*
X100294168Y-72708428D01*
X101294168Y-72803666D02*
X102056073Y-72803666D01*
X101675120Y-73184619D02*
X101675120Y-72422714D01*
X98294168Y-74794619D02*
X98294168Y-73794619D01*
X98294168Y-73794619D02*
X98675120Y-73794619D01*
X98675120Y-73794619D02*
X98770358Y-73842238D01*
X98770358Y-73842238D02*
X98817977Y-73889857D01*
X98817977Y-73889857D02*
X98865596Y-73985095D01*
X98865596Y-73985095D02*
X98865596Y-74127952D01*
X98865596Y-74127952D02*
X98817977Y-74223190D01*
X98817977Y-74223190D02*
X98770358Y-74270809D01*
X98770358Y-74270809D02*
X98675120Y-74318428D01*
X98675120Y-74318428D02*
X98294168Y-74318428D01*
X101341787Y-73842238D02*
X101246549Y-73794619D01*
X101246549Y-73794619D02*
X101103692Y-73794619D01*
X101103692Y-73794619D02*
X100960835Y-73842238D01*
X100960835Y-73842238D02*
X100865597Y-73937476D01*
X100865597Y-73937476D02*
X100817978Y-74032714D01*
X100817978Y-74032714D02*
X100770359Y-74223190D01*
X100770359Y-74223190D02*
X100770359Y-74366047D01*
X100770359Y-74366047D02*
X100817978Y-74556523D01*
X100817978Y-74556523D02*
X100865597Y-74651761D01*
X100865597Y-74651761D02*
X100960835Y-74747000D01*
X100960835Y-74747000D02*
X101103692Y-74794619D01*
X101103692Y-74794619D02*
X101198930Y-74794619D01*
X101198930Y-74794619D02*
X101341787Y-74747000D01*
X101341787Y-74747000D02*
X101389406Y-74699380D01*
X101389406Y-74699380D02*
X101389406Y-74366047D01*
X101389406Y-74366047D02*
X101198930Y-74366047D01*
X103341788Y-74794619D02*
X103341788Y-73794619D01*
X103341788Y-73794619D02*
X103913216Y-74794619D01*
X103913216Y-74794619D02*
X103913216Y-73794619D01*
X113787978Y-73184619D02*
X113787978Y-72184619D01*
X114264168Y-73184619D02*
X114264168Y-72184619D01*
X114264168Y-72184619D02*
X114645120Y-72184619D01*
X114645120Y-72184619D02*
X114740358Y-72232238D01*
X114740358Y-72232238D02*
X114787977Y-72279857D01*
X114787977Y-72279857D02*
X114835596Y-72375095D01*
X114835596Y-72375095D02*
X114835596Y-72517952D01*
X114835596Y-72517952D02*
X114787977Y-72613190D01*
X114787977Y-72613190D02*
X114740358Y-72660809D01*
X114740358Y-72660809D02*
X114645120Y-72708428D01*
X114645120Y-72708428D02*
X114264168Y-72708428D01*
X115264168Y-72803666D02*
X116026073Y-72803666D01*
X112264168Y-74794619D02*
X112264168Y-73794619D01*
X112264168Y-73794619D02*
X112835596Y-74794619D01*
X112835596Y-74794619D02*
X112835596Y-73794619D01*
X115359406Y-73842238D02*
X115264168Y-73794619D01*
X115264168Y-73794619D02*
X115121311Y-73794619D01*
X115121311Y-73794619D02*
X114978454Y-73842238D01*
X114978454Y-73842238D02*
X114883216Y-73937476D01*
X114883216Y-73937476D02*
X114835597Y-74032714D01*
X114835597Y-74032714D02*
X114787978Y-74223190D01*
X114787978Y-74223190D02*
X114787978Y-74366047D01*
X114787978Y-74366047D02*
X114835597Y-74556523D01*
X114835597Y-74556523D02*
X114883216Y-74651761D01*
X114883216Y-74651761D02*
X114978454Y-74747000D01*
X114978454Y-74747000D02*
X115121311Y-74794619D01*
X115121311Y-74794619D02*
X115216549Y-74794619D01*
X115216549Y-74794619D02*
X115359406Y-74747000D01*
X115359406Y-74747000D02*
X115407025Y-74699380D01*
X115407025Y-74699380D02*
X115407025Y-74366047D01*
X115407025Y-74366047D02*
X115216549Y-74366047D01*
X117359407Y-74794619D02*
X117359407Y-73794619D01*
X117359407Y-73794619D02*
X117740359Y-73794619D01*
X117740359Y-73794619D02*
X117835597Y-73842238D01*
X117835597Y-73842238D02*
X117883216Y-73889857D01*
X117883216Y-73889857D02*
X117930835Y-73985095D01*
X117930835Y-73985095D02*
X117930835Y-74127952D01*
X117930835Y-74127952D02*
X117883216Y-74223190D01*
X117883216Y-74223190D02*
X117835597Y-74270809D01*
X117835597Y-74270809D02*
X117740359Y-74318428D01*
X117740359Y-74318428D02*
X117359407Y-74318428D01*
X89045387Y-49112942D02*
X89045387Y-47912942D01*
X89045387Y-48484371D02*
X89731101Y-48484371D01*
X89731101Y-49112942D02*
X89731101Y-47912942D01*
X90245387Y-48770085D02*
X90816816Y-48770085D01*
X90131101Y-49112942D02*
X90531101Y-47912942D01*
X90531101Y-47912942D02*
X90931101Y-49112942D01*
X92759673Y-49055800D02*
X92645387Y-49112942D01*
X92645387Y-49112942D02*
X92416815Y-49112942D01*
X92416815Y-49112942D02*
X92302530Y-49055800D01*
X92302530Y-49055800D02*
X92245387Y-48998657D01*
X92245387Y-48998657D02*
X92188244Y-48884371D01*
X92188244Y-48884371D02*
X92188244Y-48541514D01*
X92188244Y-48541514D02*
X92245387Y-48427228D01*
X92245387Y-48427228D02*
X92302530Y-48370085D01*
X92302530Y-48370085D02*
X92416815Y-48312942D01*
X92416815Y-48312942D02*
X92645387Y-48312942D01*
X92645387Y-48312942D02*
X92759673Y-48370085D01*
X93788244Y-48312942D02*
X93788244Y-49112942D01*
X93273958Y-48312942D02*
X93273958Y-48941514D01*
X93273958Y-48941514D02*
X93331101Y-49055800D01*
X93331101Y-49055800D02*
X93445386Y-49112942D01*
X93445386Y-49112942D02*
X93616815Y-49112942D01*
X93616815Y-49112942D02*
X93731101Y-49055800D01*
X93731101Y-49055800D02*
X93788244Y-48998657D01*
X94359672Y-49112942D02*
X94359672Y-48312942D01*
X94359672Y-48541514D02*
X94416815Y-48427228D01*
X94416815Y-48427228D02*
X94473958Y-48370085D01*
X94473958Y-48370085D02*
X94588243Y-48312942D01*
X94588243Y-48312942D02*
X94702529Y-48312942D01*
X95102529Y-49112942D02*
X95102529Y-48312942D01*
X95102529Y-48541514D02*
X95159672Y-48427228D01*
X95159672Y-48427228D02*
X95216815Y-48370085D01*
X95216815Y-48370085D02*
X95331100Y-48312942D01*
X95331100Y-48312942D02*
X95445386Y-48312942D01*
X96302529Y-49055800D02*
X96188243Y-49112942D01*
X96188243Y-49112942D02*
X95959672Y-49112942D01*
X95959672Y-49112942D02*
X95845386Y-49055800D01*
X95845386Y-49055800D02*
X95788243Y-48941514D01*
X95788243Y-48941514D02*
X95788243Y-48484371D01*
X95788243Y-48484371D02*
X95845386Y-48370085D01*
X95845386Y-48370085D02*
X95959672Y-48312942D01*
X95959672Y-48312942D02*
X96188243Y-48312942D01*
X96188243Y-48312942D02*
X96302529Y-48370085D01*
X96302529Y-48370085D02*
X96359672Y-48484371D01*
X96359672Y-48484371D02*
X96359672Y-48598657D01*
X96359672Y-48598657D02*
X95788243Y-48712942D01*
X96873957Y-48312942D02*
X96873957Y-49112942D01*
X96873957Y-48427228D02*
X96931100Y-48370085D01*
X96931100Y-48370085D02*
X97045385Y-48312942D01*
X97045385Y-48312942D02*
X97216814Y-48312942D01*
X97216814Y-48312942D02*
X97331100Y-48370085D01*
X97331100Y-48370085D02*
X97388243Y-48484371D01*
X97388243Y-48484371D02*
X97388243Y-49112942D01*
X97788242Y-48312942D02*
X98245385Y-48312942D01*
X97959671Y-47912942D02*
X97959671Y-48941514D01*
X97959671Y-48941514D02*
X98016814Y-49055800D01*
X98016814Y-49055800D02*
X98131099Y-49112942D01*
X98131099Y-49112942D02*
X98245385Y-49112942D01*
X89045387Y-51044942D02*
X89045387Y-50244942D01*
X89045387Y-50359228D02*
X89102530Y-50302085D01*
X89102530Y-50302085D02*
X89216815Y-50244942D01*
X89216815Y-50244942D02*
X89388244Y-50244942D01*
X89388244Y-50244942D02*
X89502530Y-50302085D01*
X89502530Y-50302085D02*
X89559673Y-50416371D01*
X89559673Y-50416371D02*
X89559673Y-51044942D01*
X89559673Y-50416371D02*
X89616815Y-50302085D01*
X89616815Y-50302085D02*
X89731101Y-50244942D01*
X89731101Y-50244942D02*
X89902530Y-50244942D01*
X89902530Y-50244942D02*
X90016815Y-50302085D01*
X90016815Y-50302085D02*
X90073958Y-50416371D01*
X90073958Y-50416371D02*
X90073958Y-51044942D01*
X91102530Y-50987800D02*
X90988244Y-51044942D01*
X90988244Y-51044942D02*
X90759673Y-51044942D01*
X90759673Y-51044942D02*
X90645387Y-50987800D01*
X90645387Y-50987800D02*
X90588244Y-50873514D01*
X90588244Y-50873514D02*
X90588244Y-50416371D01*
X90588244Y-50416371D02*
X90645387Y-50302085D01*
X90645387Y-50302085D02*
X90759673Y-50244942D01*
X90759673Y-50244942D02*
X90988244Y-50244942D01*
X90988244Y-50244942D02*
X91102530Y-50302085D01*
X91102530Y-50302085D02*
X91159673Y-50416371D01*
X91159673Y-50416371D02*
X91159673Y-50530657D01*
X91159673Y-50530657D02*
X90588244Y-50644942D01*
X92188244Y-51044942D02*
X92188244Y-50416371D01*
X92188244Y-50416371D02*
X92131101Y-50302085D01*
X92131101Y-50302085D02*
X92016815Y-50244942D01*
X92016815Y-50244942D02*
X91788244Y-50244942D01*
X91788244Y-50244942D02*
X91673958Y-50302085D01*
X92188244Y-50987800D02*
X92073958Y-51044942D01*
X92073958Y-51044942D02*
X91788244Y-51044942D01*
X91788244Y-51044942D02*
X91673958Y-50987800D01*
X91673958Y-50987800D02*
X91616815Y-50873514D01*
X91616815Y-50873514D02*
X91616815Y-50759228D01*
X91616815Y-50759228D02*
X91673958Y-50644942D01*
X91673958Y-50644942D02*
X91788244Y-50587800D01*
X91788244Y-50587800D02*
X92073958Y-50587800D01*
X92073958Y-50587800D02*
X92188244Y-50530657D01*
X92702529Y-50987800D02*
X92816815Y-51044942D01*
X92816815Y-51044942D02*
X93045386Y-51044942D01*
X93045386Y-51044942D02*
X93159672Y-50987800D01*
X93159672Y-50987800D02*
X93216815Y-50873514D01*
X93216815Y-50873514D02*
X93216815Y-50816371D01*
X93216815Y-50816371D02*
X93159672Y-50702085D01*
X93159672Y-50702085D02*
X93045386Y-50644942D01*
X93045386Y-50644942D02*
X92873958Y-50644942D01*
X92873958Y-50644942D02*
X92759672Y-50587800D01*
X92759672Y-50587800D02*
X92702529Y-50473514D01*
X92702529Y-50473514D02*
X92702529Y-50416371D01*
X92702529Y-50416371D02*
X92759672Y-50302085D01*
X92759672Y-50302085D02*
X92873958Y-50244942D01*
X92873958Y-50244942D02*
X93045386Y-50244942D01*
X93045386Y-50244942D02*
X93159672Y-50302085D01*
X94245387Y-50244942D02*
X94245387Y-51044942D01*
X93731101Y-50244942D02*
X93731101Y-50873514D01*
X93731101Y-50873514D02*
X93788244Y-50987800D01*
X93788244Y-50987800D02*
X93902529Y-51044942D01*
X93902529Y-51044942D02*
X94073958Y-51044942D01*
X94073958Y-51044942D02*
X94188244Y-50987800D01*
X94188244Y-50987800D02*
X94245387Y-50930657D01*
X94816815Y-51044942D02*
X94816815Y-50244942D01*
X94816815Y-50473514D02*
X94873958Y-50359228D01*
X94873958Y-50359228D02*
X94931101Y-50302085D01*
X94931101Y-50302085D02*
X95045386Y-50244942D01*
X95045386Y-50244942D02*
X95159672Y-50244942D01*
X96016815Y-50987800D02*
X95902529Y-51044942D01*
X95902529Y-51044942D02*
X95673958Y-51044942D01*
X95673958Y-51044942D02*
X95559672Y-50987800D01*
X95559672Y-50987800D02*
X95502529Y-50873514D01*
X95502529Y-50873514D02*
X95502529Y-50416371D01*
X95502529Y-50416371D02*
X95559672Y-50302085D01*
X95559672Y-50302085D02*
X95673958Y-50244942D01*
X95673958Y-50244942D02*
X95902529Y-50244942D01*
X95902529Y-50244942D02*
X96016815Y-50302085D01*
X96016815Y-50302085D02*
X96073958Y-50416371D01*
X96073958Y-50416371D02*
X96073958Y-50530657D01*
X96073958Y-50530657D02*
X95502529Y-50644942D01*
X96588243Y-51044942D02*
X96588243Y-50244942D01*
X96588243Y-50359228D02*
X96645386Y-50302085D01*
X96645386Y-50302085D02*
X96759671Y-50244942D01*
X96759671Y-50244942D02*
X96931100Y-50244942D01*
X96931100Y-50244942D02*
X97045386Y-50302085D01*
X97045386Y-50302085D02*
X97102529Y-50416371D01*
X97102529Y-50416371D02*
X97102529Y-51044942D01*
X97102529Y-50416371D02*
X97159671Y-50302085D01*
X97159671Y-50302085D02*
X97273957Y-50244942D01*
X97273957Y-50244942D02*
X97445386Y-50244942D01*
X97445386Y-50244942D02*
X97559671Y-50302085D01*
X97559671Y-50302085D02*
X97616814Y-50416371D01*
X97616814Y-50416371D02*
X97616814Y-51044942D01*
X98645386Y-50987800D02*
X98531100Y-51044942D01*
X98531100Y-51044942D02*
X98302529Y-51044942D01*
X98302529Y-51044942D02*
X98188243Y-50987800D01*
X98188243Y-50987800D02*
X98131100Y-50873514D01*
X98131100Y-50873514D02*
X98131100Y-50416371D01*
X98131100Y-50416371D02*
X98188243Y-50302085D01*
X98188243Y-50302085D02*
X98302529Y-50244942D01*
X98302529Y-50244942D02*
X98531100Y-50244942D01*
X98531100Y-50244942D02*
X98645386Y-50302085D01*
X98645386Y-50302085D02*
X98702529Y-50416371D01*
X98702529Y-50416371D02*
X98702529Y-50530657D01*
X98702529Y-50530657D02*
X98131100Y-50644942D01*
X99216814Y-50244942D02*
X99216814Y-51044942D01*
X99216814Y-50359228D02*
X99273957Y-50302085D01*
X99273957Y-50302085D02*
X99388242Y-50244942D01*
X99388242Y-50244942D02*
X99559671Y-50244942D01*
X99559671Y-50244942D02*
X99673957Y-50302085D01*
X99673957Y-50302085D02*
X99731100Y-50416371D01*
X99731100Y-50416371D02*
X99731100Y-51044942D01*
X100131099Y-50244942D02*
X100588242Y-50244942D01*
X100302528Y-49844942D02*
X100302528Y-50873514D01*
X100302528Y-50873514D02*
X100359671Y-50987800D01*
X100359671Y-50987800D02*
X100473956Y-51044942D01*
X100473956Y-51044942D02*
X100588242Y-51044942D01*
X89502530Y-52919800D02*
X89388244Y-52976942D01*
X89388244Y-52976942D02*
X89159673Y-52976942D01*
X89159673Y-52976942D02*
X89045387Y-52919800D01*
X89045387Y-52919800D02*
X88988244Y-52805514D01*
X88988244Y-52805514D02*
X88988244Y-52348371D01*
X88988244Y-52348371D02*
X89045387Y-52234085D01*
X89045387Y-52234085D02*
X89159673Y-52176942D01*
X89159673Y-52176942D02*
X89388244Y-52176942D01*
X89388244Y-52176942D02*
X89502530Y-52234085D01*
X89502530Y-52234085D02*
X89559673Y-52348371D01*
X89559673Y-52348371D02*
X89559673Y-52462657D01*
X89559673Y-52462657D02*
X88988244Y-52576942D01*
X89959672Y-52976942D02*
X90588244Y-52176942D01*
X89959672Y-52176942D02*
X90588244Y-52976942D01*
X90873958Y-52176942D02*
X91331101Y-52176942D01*
X91045387Y-51776942D02*
X91045387Y-52805514D01*
X91045387Y-52805514D02*
X91102530Y-52919800D01*
X91102530Y-52919800D02*
X91216815Y-52976942D01*
X91216815Y-52976942D02*
X91331101Y-52976942D01*
X92188244Y-52919800D02*
X92073958Y-52976942D01*
X92073958Y-52976942D02*
X91845387Y-52976942D01*
X91845387Y-52976942D02*
X91731101Y-52919800D01*
X91731101Y-52919800D02*
X91673958Y-52805514D01*
X91673958Y-52805514D02*
X91673958Y-52348371D01*
X91673958Y-52348371D02*
X91731101Y-52234085D01*
X91731101Y-52234085D02*
X91845387Y-52176942D01*
X91845387Y-52176942D02*
X92073958Y-52176942D01*
X92073958Y-52176942D02*
X92188244Y-52234085D01*
X92188244Y-52234085D02*
X92245387Y-52348371D01*
X92245387Y-52348371D02*
X92245387Y-52462657D01*
X92245387Y-52462657D02*
X91673958Y-52576942D01*
X92759672Y-52176942D02*
X92759672Y-52976942D01*
X92759672Y-52291228D02*
X92816815Y-52234085D01*
X92816815Y-52234085D02*
X92931100Y-52176942D01*
X92931100Y-52176942D02*
X93102529Y-52176942D01*
X93102529Y-52176942D02*
X93216815Y-52234085D01*
X93216815Y-52234085D02*
X93273958Y-52348371D01*
X93273958Y-52348371D02*
X93273958Y-52976942D01*
X93788243Y-52919800D02*
X93902529Y-52976942D01*
X93902529Y-52976942D02*
X94131100Y-52976942D01*
X94131100Y-52976942D02*
X94245386Y-52919800D01*
X94245386Y-52919800D02*
X94302529Y-52805514D01*
X94302529Y-52805514D02*
X94302529Y-52748371D01*
X94302529Y-52748371D02*
X94245386Y-52634085D01*
X94245386Y-52634085D02*
X94131100Y-52576942D01*
X94131100Y-52576942D02*
X93959672Y-52576942D01*
X93959672Y-52576942D02*
X93845386Y-52519800D01*
X93845386Y-52519800D02*
X93788243Y-52405514D01*
X93788243Y-52405514D02*
X93788243Y-52348371D01*
X93788243Y-52348371D02*
X93845386Y-52234085D01*
X93845386Y-52234085D02*
X93959672Y-52176942D01*
X93959672Y-52176942D02*
X94131100Y-52176942D01*
X94131100Y-52176942D02*
X94245386Y-52234085D01*
X94816815Y-52976942D02*
X94816815Y-52176942D01*
X94816815Y-51776942D02*
X94759672Y-51834085D01*
X94759672Y-51834085D02*
X94816815Y-51891228D01*
X94816815Y-51891228D02*
X94873958Y-51834085D01*
X94873958Y-51834085D02*
X94816815Y-51776942D01*
X94816815Y-51776942D02*
X94816815Y-51891228D01*
X95559672Y-52976942D02*
X95445387Y-52919800D01*
X95445387Y-52919800D02*
X95388244Y-52862657D01*
X95388244Y-52862657D02*
X95331101Y-52748371D01*
X95331101Y-52748371D02*
X95331101Y-52405514D01*
X95331101Y-52405514D02*
X95388244Y-52291228D01*
X95388244Y-52291228D02*
X95445387Y-52234085D01*
X95445387Y-52234085D02*
X95559672Y-52176942D01*
X95559672Y-52176942D02*
X95731101Y-52176942D01*
X95731101Y-52176942D02*
X95845387Y-52234085D01*
X95845387Y-52234085D02*
X95902530Y-52291228D01*
X95902530Y-52291228D02*
X95959672Y-52405514D01*
X95959672Y-52405514D02*
X95959672Y-52748371D01*
X95959672Y-52748371D02*
X95902530Y-52862657D01*
X95902530Y-52862657D02*
X95845387Y-52919800D01*
X95845387Y-52919800D02*
X95731101Y-52976942D01*
X95731101Y-52976942D02*
X95559672Y-52976942D01*
X96473958Y-52176942D02*
X96473958Y-52976942D01*
X96473958Y-52291228D02*
X96531101Y-52234085D01*
X96531101Y-52234085D02*
X96645386Y-52176942D01*
X96645386Y-52176942D02*
X96816815Y-52176942D01*
X96816815Y-52176942D02*
X96931101Y-52234085D01*
X96931101Y-52234085D02*
X96988244Y-52348371D01*
X96988244Y-52348371D02*
X96988244Y-52976942D01*
X99102529Y-52976942D02*
X98416815Y-52976942D01*
X98759672Y-52976942D02*
X98759672Y-51776942D01*
X98759672Y-51776942D02*
X98645386Y-51948371D01*
X98645386Y-51948371D02*
X98531101Y-52062657D01*
X98531101Y-52062657D02*
X98416815Y-52119800D01*
X99616815Y-52862657D02*
X99673958Y-52919800D01*
X99673958Y-52919800D02*
X99616815Y-52976942D01*
X99616815Y-52976942D02*
X99559672Y-52919800D01*
X99559672Y-52919800D02*
X99616815Y-52862657D01*
X99616815Y-52862657D02*
X99616815Y-52976942D01*
X100416815Y-51776942D02*
X100531101Y-51776942D01*
X100531101Y-51776942D02*
X100645387Y-51834085D01*
X100645387Y-51834085D02*
X100702530Y-51891228D01*
X100702530Y-51891228D02*
X100759672Y-52005514D01*
X100759672Y-52005514D02*
X100816815Y-52234085D01*
X100816815Y-52234085D02*
X100816815Y-52519800D01*
X100816815Y-52519800D02*
X100759672Y-52748371D01*
X100759672Y-52748371D02*
X100702530Y-52862657D01*
X100702530Y-52862657D02*
X100645387Y-52919800D01*
X100645387Y-52919800D02*
X100531101Y-52976942D01*
X100531101Y-52976942D02*
X100416815Y-52976942D01*
X100416815Y-52976942D02*
X100302530Y-52919800D01*
X100302530Y-52919800D02*
X100245387Y-52862657D01*
X100245387Y-52862657D02*
X100188244Y-52748371D01*
X100188244Y-52748371D02*
X100131101Y-52519800D01*
X100131101Y-52519800D02*
X100131101Y-52234085D01*
X100131101Y-52234085D02*
X100188244Y-52005514D01*
X100188244Y-52005514D02*
X100245387Y-51891228D01*
X100245387Y-51891228D02*
X100302530Y-51834085D01*
X100302530Y-51834085D02*
X100416815Y-51776942D01*
D11*
X112556333Y-63859580D02*
X112508714Y-63907200D01*
X112508714Y-63907200D02*
X112365857Y-63954819D01*
X112365857Y-63954819D02*
X112270619Y-63954819D01*
X112270619Y-63954819D02*
X112127762Y-63907200D01*
X112127762Y-63907200D02*
X112032524Y-63811961D01*
X112032524Y-63811961D02*
X111984905Y-63716723D01*
X111984905Y-63716723D02*
X111937286Y-63526247D01*
X111937286Y-63526247D02*
X111937286Y-63383390D01*
X111937286Y-63383390D02*
X111984905Y-63192914D01*
X111984905Y-63192914D02*
X112032524Y-63097676D01*
X112032524Y-63097676D02*
X112127762Y-63002438D01*
X112127762Y-63002438D02*
X112270619Y-62954819D01*
X112270619Y-62954819D02*
X112365857Y-62954819D01*
X112365857Y-62954819D02*
X112508714Y-63002438D01*
X112508714Y-63002438D02*
X112556333Y-63050057D01*
X112889667Y-62954819D02*
X113556333Y-62954819D01*
X113556333Y-62954819D02*
X113127762Y-63954819D01*
X96824895Y-65444019D02*
X96824895Y-66253542D01*
X96824895Y-66253542D02*
X96872514Y-66348780D01*
X96872514Y-66348780D02*
X96920133Y-66396400D01*
X96920133Y-66396400D02*
X97015371Y-66444019D01*
X97015371Y-66444019D02*
X97205847Y-66444019D01*
X97205847Y-66444019D02*
X97301085Y-66396400D01*
X97301085Y-66396400D02*
X97348704Y-66348780D01*
X97348704Y-66348780D02*
X97396323Y-66253542D01*
X97396323Y-66253542D02*
X97396323Y-65444019D01*
X97777276Y-65444019D02*
X98396323Y-65444019D01*
X98396323Y-65444019D02*
X98062990Y-65824971D01*
X98062990Y-65824971D02*
X98205847Y-65824971D01*
X98205847Y-65824971D02*
X98301085Y-65872590D01*
X98301085Y-65872590D02*
X98348704Y-65920209D01*
X98348704Y-65920209D02*
X98396323Y-66015447D01*
X98396323Y-66015447D02*
X98396323Y-66253542D01*
X98396323Y-66253542D02*
X98348704Y-66348780D01*
X98348704Y-66348780D02*
X98301085Y-66396400D01*
X98301085Y-66396400D02*
X98205847Y-66444019D01*
X98205847Y-66444019D02*
X97920133Y-66444019D01*
X97920133Y-66444019D02*
X97824895Y-66396400D01*
X97824895Y-66396400D02*
X97777276Y-66348780D01*
X112456933Y-51762819D02*
X112123600Y-51286628D01*
X111885505Y-51762819D02*
X111885505Y-50762819D01*
X111885505Y-50762819D02*
X112266457Y-50762819D01*
X112266457Y-50762819D02*
X112361695Y-50810438D01*
X112361695Y-50810438D02*
X112409314Y-50858057D01*
X112409314Y-50858057D02*
X112456933Y-50953295D01*
X112456933Y-50953295D02*
X112456933Y-51096152D01*
X112456933Y-51096152D02*
X112409314Y-51191390D01*
X112409314Y-51191390D02*
X112361695Y-51239009D01*
X112361695Y-51239009D02*
X112266457Y-51286628D01*
X112266457Y-51286628D02*
X111885505Y-51286628D01*
X112837886Y-50858057D02*
X112885505Y-50810438D01*
X112885505Y-50810438D02*
X112980743Y-50762819D01*
X112980743Y-50762819D02*
X113218838Y-50762819D01*
X113218838Y-50762819D02*
X113314076Y-50810438D01*
X113314076Y-50810438D02*
X113361695Y-50858057D01*
X113361695Y-50858057D02*
X113409314Y-50953295D01*
X113409314Y-50953295D02*
X113409314Y-51048533D01*
X113409314Y-51048533D02*
X113361695Y-51191390D01*
X113361695Y-51191390D02*
X112790267Y-51762819D01*
X112790267Y-51762819D02*
X113409314Y-51762819D01*
X100468133Y-66043980D02*
X100420514Y-66091600D01*
X100420514Y-66091600D02*
X100277657Y-66139219D01*
X100277657Y-66139219D02*
X100182419Y-66139219D01*
X100182419Y-66139219D02*
X100039562Y-66091600D01*
X100039562Y-66091600D02*
X99944324Y-65996361D01*
X99944324Y-65996361D02*
X99896705Y-65901123D01*
X99896705Y-65901123D02*
X99849086Y-65710647D01*
X99849086Y-65710647D02*
X99849086Y-65567790D01*
X99849086Y-65567790D02*
X99896705Y-65377314D01*
X99896705Y-65377314D02*
X99944324Y-65282076D01*
X99944324Y-65282076D02*
X100039562Y-65186838D01*
X100039562Y-65186838D02*
X100182419Y-65139219D01*
X100182419Y-65139219D02*
X100277657Y-65139219D01*
X100277657Y-65139219D02*
X100420514Y-65186838D01*
X100420514Y-65186838D02*
X100468133Y-65234457D01*
X101325276Y-65139219D02*
X101134800Y-65139219D01*
X101134800Y-65139219D02*
X101039562Y-65186838D01*
X101039562Y-65186838D02*
X100991943Y-65234457D01*
X100991943Y-65234457D02*
X100896705Y-65377314D01*
X100896705Y-65377314D02*
X100849086Y-65567790D01*
X100849086Y-65567790D02*
X100849086Y-65948742D01*
X100849086Y-65948742D02*
X100896705Y-66043980D01*
X100896705Y-66043980D02*
X100944324Y-66091600D01*
X100944324Y-66091600D02*
X101039562Y-66139219D01*
X101039562Y-66139219D02*
X101230038Y-66139219D01*
X101230038Y-66139219D02*
X101325276Y-66091600D01*
X101325276Y-66091600D02*
X101372895Y-66043980D01*
X101372895Y-66043980D02*
X101420514Y-65948742D01*
X101420514Y-65948742D02*
X101420514Y-65710647D01*
X101420514Y-65710647D02*
X101372895Y-65615409D01*
X101372895Y-65615409D02*
X101325276Y-65567790D01*
X101325276Y-65567790D02*
X101230038Y-65520171D01*
X101230038Y-65520171D02*
X101039562Y-65520171D01*
X101039562Y-65520171D02*
X100944324Y-65567790D01*
X100944324Y-65567790D02*
X100896705Y-65615409D01*
X100896705Y-65615409D02*
X100849086Y-65710647D01*
X105902633Y-53945980D02*
X105855014Y-53993600D01*
X105855014Y-53993600D02*
X105712157Y-54041219D01*
X105712157Y-54041219D02*
X105616919Y-54041219D01*
X105616919Y-54041219D02*
X105474062Y-53993600D01*
X105474062Y-53993600D02*
X105378824Y-53898361D01*
X105378824Y-53898361D02*
X105331205Y-53803123D01*
X105331205Y-53803123D02*
X105283586Y-53612647D01*
X105283586Y-53612647D02*
X105283586Y-53469790D01*
X105283586Y-53469790D02*
X105331205Y-53279314D01*
X105331205Y-53279314D02*
X105378824Y-53184076D01*
X105378824Y-53184076D02*
X105474062Y-53088838D01*
X105474062Y-53088838D02*
X105616919Y-53041219D01*
X105616919Y-53041219D02*
X105712157Y-53041219D01*
X105712157Y-53041219D02*
X105855014Y-53088838D01*
X105855014Y-53088838D02*
X105902633Y-53136457D01*
X106235967Y-53041219D02*
X106855014Y-53041219D01*
X106855014Y-53041219D02*
X106521681Y-53422171D01*
X106521681Y-53422171D02*
X106664538Y-53422171D01*
X106664538Y-53422171D02*
X106759776Y-53469790D01*
X106759776Y-53469790D02*
X106807395Y-53517409D01*
X106807395Y-53517409D02*
X106855014Y-53612647D01*
X106855014Y-53612647D02*
X106855014Y-53850742D01*
X106855014Y-53850742D02*
X106807395Y-53945980D01*
X106807395Y-53945980D02*
X106759776Y-53993600D01*
X106759776Y-53993600D02*
X106664538Y-54041219D01*
X106664538Y-54041219D02*
X106378824Y-54041219D01*
X106378824Y-54041219D02*
X106283586Y-53993600D01*
X106283586Y-53993600D02*
X106235967Y-53945980D01*
X94894495Y-56350819D02*
X94894495Y-57160342D01*
X94894495Y-57160342D02*
X94942114Y-57255580D01*
X94942114Y-57255580D02*
X94989733Y-57303200D01*
X94989733Y-57303200D02*
X95084971Y-57350819D01*
X95084971Y-57350819D02*
X95275447Y-57350819D01*
X95275447Y-57350819D02*
X95370685Y-57303200D01*
X95370685Y-57303200D02*
X95418304Y-57255580D01*
X95418304Y-57255580D02*
X95465923Y-57160342D01*
X95465923Y-57160342D02*
X95465923Y-56350819D01*
X95894495Y-56446057D02*
X95942114Y-56398438D01*
X95942114Y-56398438D02*
X96037352Y-56350819D01*
X96037352Y-56350819D02*
X96275447Y-56350819D01*
X96275447Y-56350819D02*
X96370685Y-56398438D01*
X96370685Y-56398438D02*
X96418304Y-56446057D01*
X96418304Y-56446057D02*
X96465923Y-56541295D01*
X96465923Y-56541295D02*
X96465923Y-56636533D01*
X96465923Y-56636533D02*
X96418304Y-56779390D01*
X96418304Y-56779390D02*
X95846876Y-57350819D01*
X95846876Y-57350819D02*
X96465923Y-57350819D01*
X115119619Y-48339333D02*
X115833904Y-48339333D01*
X115833904Y-48339333D02*
X115976761Y-48386952D01*
X115976761Y-48386952D02*
X116072000Y-48482190D01*
X116072000Y-48482190D02*
X116119619Y-48625047D01*
X116119619Y-48625047D02*
X116119619Y-48720285D01*
X116119619Y-47339333D02*
X116119619Y-47910761D01*
X116119619Y-47625047D02*
X115119619Y-47625047D01*
X115119619Y-47625047D02*
X115262476Y-47720285D01*
X115262476Y-47720285D02*
X115357714Y-47815523D01*
X115357714Y-47815523D02*
X115405333Y-47910761D01*
X108559695Y-58230419D02*
X108559695Y-59039942D01*
X108559695Y-59039942D02*
X108607314Y-59135180D01*
X108607314Y-59135180D02*
X108654933Y-59182800D01*
X108654933Y-59182800D02*
X108750171Y-59230419D01*
X108750171Y-59230419D02*
X108940647Y-59230419D01*
X108940647Y-59230419D02*
X109035885Y-59182800D01*
X109035885Y-59182800D02*
X109083504Y-59135180D01*
X109083504Y-59135180D02*
X109131123Y-59039942D01*
X109131123Y-59039942D02*
X109131123Y-58230419D01*
X110131123Y-59230419D02*
X109559695Y-59230419D01*
X109845409Y-59230419D02*
X109845409Y-58230419D01*
X109845409Y-58230419D02*
X109750171Y-58373276D01*
X109750171Y-58373276D02*
X109654933Y-58468514D01*
X109654933Y-58468514D02*
X109559695Y-58516133D01*
X99553733Y-60862380D02*
X99506114Y-60910000D01*
X99506114Y-60910000D02*
X99363257Y-60957619D01*
X99363257Y-60957619D02*
X99268019Y-60957619D01*
X99268019Y-60957619D02*
X99125162Y-60910000D01*
X99125162Y-60910000D02*
X99029924Y-60814761D01*
X99029924Y-60814761D02*
X98982305Y-60719523D01*
X98982305Y-60719523D02*
X98934686Y-60529047D01*
X98934686Y-60529047D02*
X98934686Y-60386190D01*
X98934686Y-60386190D02*
X98982305Y-60195714D01*
X98982305Y-60195714D02*
X99029924Y-60100476D01*
X99029924Y-60100476D02*
X99125162Y-60005238D01*
X99125162Y-60005238D02*
X99268019Y-59957619D01*
X99268019Y-59957619D02*
X99363257Y-59957619D01*
X99363257Y-59957619D02*
X99506114Y-60005238D01*
X99506114Y-60005238D02*
X99553733Y-60052857D01*
X100410876Y-60290952D02*
X100410876Y-60957619D01*
X100172781Y-59910000D02*
X99934686Y-60624285D01*
X99934686Y-60624285D02*
X100553733Y-60624285D01*
X111150495Y-67614219D02*
X111150495Y-68423742D01*
X111150495Y-68423742D02*
X111198114Y-68518980D01*
X111198114Y-68518980D02*
X111245733Y-68566600D01*
X111245733Y-68566600D02*
X111340971Y-68614219D01*
X111340971Y-68614219D02*
X111531447Y-68614219D01*
X111531447Y-68614219D02*
X111626685Y-68566600D01*
X111626685Y-68566600D02*
X111674304Y-68518980D01*
X111674304Y-68518980D02*
X111721923Y-68423742D01*
X111721923Y-68423742D02*
X111721923Y-67614219D01*
X112626685Y-67947552D02*
X112626685Y-68614219D01*
X112388590Y-67566600D02*
X112150495Y-68280885D01*
X112150495Y-68280885D02*
X112769542Y-68280885D01*
X112455033Y-53439219D02*
X112121700Y-52963028D01*
X111883605Y-53439219D02*
X111883605Y-52439219D01*
X111883605Y-52439219D02*
X112264557Y-52439219D01*
X112264557Y-52439219D02*
X112359795Y-52486838D01*
X112359795Y-52486838D02*
X112407414Y-52534457D01*
X112407414Y-52534457D02*
X112455033Y-52629695D01*
X112455033Y-52629695D02*
X112455033Y-52772552D01*
X112455033Y-52772552D02*
X112407414Y-52867790D01*
X112407414Y-52867790D02*
X112359795Y-52915409D01*
X112359795Y-52915409D02*
X112264557Y-52963028D01*
X112264557Y-52963028D02*
X111883605Y-52963028D01*
X113407414Y-53439219D02*
X112835986Y-53439219D01*
X113121700Y-53439219D02*
X113121700Y-52439219D01*
X113121700Y-52439219D02*
X113026462Y-52582076D01*
X113026462Y-52582076D02*
X112931224Y-52677314D01*
X112931224Y-52677314D02*
X112835986Y-52724933D01*
D12*
X109783833Y-62990000D02*
X110076367Y-62990000D01*
X109783833Y-64010000D02*
X110076367Y-64010000D01*
X97555900Y-61904400D02*
X95755900Y-61904400D01*
X97555900Y-61904400D02*
X98355900Y-61904400D01*
X97555900Y-65024400D02*
X96755900Y-65024400D01*
X97555900Y-65024400D02*
X98355900Y-65024400D01*
X118982800Y-76089200D02*
X118982800Y-77419200D01*
X117652800Y-76089200D02*
X118982800Y-76089200D01*
X116382800Y-76089200D02*
X111242800Y-76089200D01*
X116382800Y-76089200D02*
X116382800Y-78749200D01*
X111242800Y-76089200D02*
X111242800Y-78749200D01*
X116382800Y-78749200D02*
X111242800Y-78749200D01*
X110133224Y-51830500D02*
X109623776Y-51830500D01*
X110133224Y-50785500D02*
X109623776Y-50785500D01*
X104809600Y-76089200D02*
X104809600Y-77419200D01*
X103479600Y-76089200D02*
X104809600Y-76089200D01*
X102209600Y-76089200D02*
X97069600Y-76089200D01*
X102209600Y-76089200D02*
X102209600Y-78749200D01*
X97069600Y-76089200D02*
X97069600Y-78749200D01*
X102209600Y-78749200D02*
X97069600Y-78749200D01*
X107913700Y-62332776D02*
X107913700Y-62842224D01*
X106868700Y-62332776D02*
X106868700Y-62842224D01*
X103675567Y-66194400D02*
X103383033Y-66194400D01*
X103675567Y-65174400D02*
X103383033Y-65174400D01*
X92705600Y-63410648D02*
X92705600Y-64833152D01*
X90885600Y-63410648D02*
X90885600Y-64833152D01*
X105923033Y-54506400D02*
X106215567Y-54506400D01*
X105923033Y-55526400D02*
X106215567Y-55526400D01*
X100569800Y-54361400D02*
X97119800Y-54361400D01*
X100569800Y-54361400D02*
X102519800Y-54361400D01*
X100569800Y-59481400D02*
X98619800Y-59481400D01*
X100569800Y-59481400D02*
X102519800Y-59481400D01*
G36*
X122247845Y-58375261D02*
G01*
X122247845Y-59105437D01*
X122420893Y-59105437D01*
X122593940Y-59105437D01*
X122593940Y-59189851D01*
X122593940Y-59274264D01*
X122125446Y-59274264D01*
X121656951Y-59274264D01*
X121656951Y-59189851D01*
X121656951Y-59105437D01*
X121846881Y-59105437D01*
X122036812Y-59105437D01*
X122036812Y-58459674D01*
X122036812Y-57813912D01*
X121867985Y-57813912D01*
X121699158Y-57813912D01*
X121699158Y-57729498D01*
X121699158Y-57645085D01*
X121973502Y-57645085D01*
X122247845Y-57645085D01*
X122247845Y-58375261D01*
G37*
G36*
X120831421Y-58905995D02*
G01*
X120884568Y-58922914D01*
X120925204Y-58946381D01*
X120954521Y-58975071D01*
X120977875Y-59014437D01*
X120980934Y-59021024D01*
X120996450Y-59074218D01*
X120996356Y-59127562D01*
X120981666Y-59178239D01*
X120953391Y-59223434D01*
X120912543Y-59260332D01*
X120890191Y-59273548D01*
X120847452Y-59287499D01*
X120798029Y-59291526D01*
X120748893Y-59285636D01*
X120713645Y-59273382D01*
X120667480Y-59241945D01*
X120634581Y-59200308D01*
X120615456Y-59149328D01*
X120610410Y-59099377D01*
X120617515Y-59042761D01*
X120638846Y-58994669D01*
X120675128Y-58953489D01*
X120676545Y-58952267D01*
X120725192Y-58920591D01*
X120777344Y-58905093D01*
X120831421Y-58905995D01*
G37*
G36*
X119900874Y-57630308D02*
G01*
X119949164Y-57632895D01*
X119978915Y-57636074D01*
X120020928Y-57641847D01*
X120049152Y-57647018D01*
X120066307Y-57654527D01*
X120075110Y-57667316D01*
X120078281Y-57688325D01*
X120078537Y-57720495D01*
X120078420Y-57743713D01*
X120078420Y-57832762D01*
X120055206Y-57827843D01*
X120037825Y-57824783D01*
X120007988Y-57820153D01*
X119969977Y-57814597D01*
X119930697Y-57809116D01*
X119842665Y-57800685D01*
X119767844Y-57801555D01*
X119705104Y-57812114D01*
X119653315Y-57832752D01*
X119611347Y-57863859D01*
X119578073Y-57905824D01*
X119561840Y-57936311D01*
X119554724Y-57953207D01*
X119549478Y-57970396D01*
X119545749Y-57990939D01*
X119543182Y-58017896D01*
X119541423Y-58054329D01*
X119540119Y-58103298D01*
X119539621Y-58128352D01*
X119536807Y-58278186D01*
X119790731Y-58278186D01*
X120044655Y-58278186D01*
X120044655Y-58362599D01*
X120044655Y-58447012D01*
X119791414Y-58447012D01*
X119538174Y-58447012D01*
X119538174Y-58860638D01*
X119538174Y-59274264D01*
X119432657Y-59274264D01*
X119327141Y-59274264D01*
X119327141Y-58860638D01*
X119327141Y-58447012D01*
X119137210Y-58447012D01*
X118947280Y-58447012D01*
X118947280Y-58362599D01*
X118947280Y-58278186D01*
X119137210Y-58278186D01*
X119327141Y-58278186D01*
X119327141Y-58136033D01*
X119328707Y-58055100D01*
X119333767Y-57987751D01*
X119342864Y-57930946D01*
X119356540Y-57881645D01*
X119375338Y-57836811D01*
X119383277Y-57821521D01*
X119422021Y-57767124D01*
X119474817Y-57718876D01*
X119539438Y-57678461D01*
X119613307Y-57647678D01*
X119641652Y-57641480D01*
X119682983Y-57636440D01*
X119733435Y-57632680D01*
X119789144Y-57630323D01*
X119846246Y-57629492D01*
X119900874Y-57630308D01*
G37*
G36*
X118152292Y-57747959D02*
G01*
X118155942Y-57752466D01*
X118158575Y-57762651D01*
X118160357Y-57780559D01*
X118161449Y-57808235D01*
X118162015Y-57847725D01*
X118162219Y-57901074D01*
X118162235Y-57932090D01*
X118162235Y-58117800D01*
X118423917Y-58117800D01*
X118685599Y-58117800D01*
X118685599Y-58202213D01*
X118685599Y-58286627D01*
X118423386Y-58286627D01*
X118161173Y-58286627D01*
X118163815Y-58617950D01*
X118166456Y-58949272D01*
X118190702Y-58998650D01*
X118223015Y-59046065D01*
X118267385Y-59081897D01*
X118323022Y-59105520D01*
X118326475Y-59106475D01*
X118359283Y-59111841D01*
X118404083Y-59114391D01*
X118456234Y-59114209D01*
X118511096Y-59111380D01*
X118564029Y-59105989D01*
X118592744Y-59101594D01*
X118626582Y-59095781D01*
X118654571Y-59091321D01*
X118672149Y-59088928D01*
X118675047Y-59088710D01*
X118680128Y-59093629D01*
X118683423Y-59109858D01*
X118685165Y-59139335D01*
X118685599Y-59176505D01*
X118685599Y-59264455D01*
X118645502Y-59274112D01*
X118620686Y-59277957D01*
X118582670Y-59281252D01*
X118535060Y-59283925D01*
X118481465Y-59285908D01*
X118425493Y-59287129D01*
X118370750Y-59287519D01*
X118320844Y-59287007D01*
X118279384Y-59285524D01*
X118249976Y-59282998D01*
X118243560Y-59281930D01*
X118177998Y-59262034D01*
X118116864Y-59231120D01*
X118063545Y-59191535D01*
X118021428Y-59145622D01*
X118002391Y-59114940D01*
X117992369Y-59094420D01*
X117984043Y-59074512D01*
X117977255Y-59053462D01*
X117971851Y-59029520D01*
X117967674Y-59000934D01*
X117964568Y-58965951D01*
X117962378Y-58922821D01*
X117960946Y-58869792D01*
X117960117Y-58805111D01*
X117959735Y-58727028D01*
X117959643Y-58635169D01*
X117959643Y-58286627D01*
X117795037Y-58286627D01*
X117630431Y-58286627D01*
X117630431Y-58202213D01*
X117630431Y-58117800D01*
X117794855Y-58117800D01*
X117959279Y-58117800D01*
X117961571Y-57955304D01*
X117963864Y-57792808D01*
X118048277Y-57770299D01*
X118085141Y-57760771D01*
X118116985Y-57753092D01*
X118139593Y-57748250D01*
X118147463Y-57747085D01*
X118152292Y-57747959D01*
G37*
G36*
X124449698Y-57963745D02*
G01*
X124446815Y-58282406D01*
X124502043Y-58226887D01*
X124562212Y-58175890D01*
X124629652Y-58135201D01*
X124699770Y-58107402D01*
X124726740Y-58100635D01*
X124757940Y-58096443D01*
X124799226Y-58094015D01*
X124843865Y-58093679D01*
X124859798Y-58094147D01*
X124925398Y-58100531D01*
X124979955Y-58115072D01*
X125028144Y-58139761D01*
X125074639Y-58176591D01*
X125091631Y-58192974D01*
X125136902Y-58247575D01*
X125173601Y-58312500D01*
X125202226Y-58389065D01*
X125223270Y-58478583D01*
X125236845Y-58578379D01*
X125241714Y-58693604D01*
X125233388Y-58801138D01*
X125212268Y-58900217D01*
X125178755Y-58990077D01*
X125133251Y-59069953D01*
X125076158Y-59139080D01*
X125007877Y-59196694D01*
X124928810Y-59242031D01*
X124877323Y-59262690D01*
X124849761Y-59271689D01*
X124825107Y-59278127D01*
X124799434Y-59282499D01*
X124768811Y-59285300D01*
X124729311Y-59287025D01*
X124677005Y-59288168D01*
X124674731Y-59288207D01*
X124588741Y-59288029D01*
X124519147Y-59284348D01*
X124472139Y-59278325D01*
X124432558Y-59269936D01*
X124385217Y-59258027D01*
X124338276Y-59244702D01*
X124322305Y-59239725D01*
X124240002Y-59213267D01*
X124240002Y-59077654D01*
X124451036Y-59077654D01*
X124512235Y-59095268D01*
X124551126Y-59106331D01*
X124579254Y-59113566D01*
X124602076Y-59117841D01*
X124625044Y-59120025D01*
X124653614Y-59120985D01*
X124676089Y-59121341D01*
X124747506Y-59117191D01*
X124796599Y-59106254D01*
X124859396Y-59078141D01*
X124913310Y-59035965D01*
X124957731Y-58980381D01*
X124992051Y-58912042D01*
X125001048Y-58886828D01*
X125011404Y-58843133D01*
X125018879Y-58787435D01*
X125023324Y-58724391D01*
X125024592Y-58658656D01*
X125022536Y-58594887D01*
X125017008Y-58537742D01*
X125012897Y-58513118D01*
X124992124Y-58436309D01*
X124963221Y-58374128D01*
X124926243Y-58326646D01*
X124881245Y-58293940D01*
X124836152Y-58277679D01*
X124779226Y-58273232D01*
X124720674Y-58285088D01*
X124660334Y-58313336D01*
X124598043Y-58358066D01*
X124533640Y-58419365D01*
X124491982Y-58466444D01*
X124451036Y-58515420D01*
X124451036Y-58796537D01*
X124451036Y-59077654D01*
X124240002Y-59077654D01*
X124240002Y-58429176D01*
X124240002Y-57645085D01*
X124346291Y-57645085D01*
X124452580Y-57645085D01*
X124449698Y-57963745D01*
G37*
G36*
X117059103Y-58095939D02*
G01*
X117120837Y-58098755D01*
X117176952Y-58102924D01*
X117223710Y-58108398D01*
X117231577Y-58109639D01*
X117292777Y-58119840D01*
X117292777Y-58212779D01*
X117292777Y-58305719D01*
X117265343Y-58301012D01*
X117244897Y-58297420D01*
X117213249Y-58291765D01*
X117175806Y-58285014D01*
X117157716Y-58281734D01*
X117098867Y-58273348D01*
X117035321Y-58268222D01*
X116971297Y-58266364D01*
X116911015Y-58267787D01*
X116858696Y-58272501D01*
X116818559Y-58280516D01*
X116817393Y-58280867D01*
X116767279Y-58302493D01*
X116730308Y-58332075D01*
X116707427Y-58368326D01*
X116699584Y-58409959D01*
X116702495Y-58437012D01*
X116710323Y-58461086D01*
X116724048Y-58482692D01*
X116745307Y-58502814D01*
X116775737Y-58522437D01*
X116816974Y-58542547D01*
X116870655Y-58564128D01*
X116938419Y-58588166D01*
X116972819Y-58599677D01*
X117064306Y-58631470D01*
X117140520Y-58661747D01*
X117202886Y-58691489D01*
X117252828Y-58721680D01*
X117291772Y-58753302D01*
X117321141Y-58787335D01*
X117342361Y-58824764D01*
X117356176Y-58864021D01*
X117368073Y-58936480D01*
X117363987Y-59004872D01*
X117344515Y-59068329D01*
X117310251Y-59125982D01*
X117261789Y-59176964D01*
X117199726Y-59220407D01*
X117124655Y-59255441D01*
X117077231Y-59271043D01*
X117053376Y-59276585D01*
X117024022Y-59280768D01*
X116986493Y-59283791D01*
X116938116Y-59285854D01*
X116876217Y-59287156D01*
X116858048Y-59287389D01*
X116804666Y-59287822D01*
X116755602Y-59287877D01*
X116713913Y-59287576D01*
X116682657Y-59286944D01*
X116664890Y-59286004D01*
X116663897Y-59285884D01*
X116614317Y-59278609D01*
X116566604Y-59270704D01*
X116525756Y-59263047D01*
X116497181Y-59256623D01*
X116465526Y-59248289D01*
X116465526Y-59155760D01*
X116466078Y-59112279D01*
X116467886Y-59083678D01*
X116471175Y-59067985D01*
X116476134Y-59063230D01*
X116488244Y-59065004D01*
X116513038Y-59069816D01*
X116546753Y-59076905D01*
X116580776Y-59084413D01*
X116661896Y-59099747D01*
X116744325Y-59109937D01*
X116825118Y-59114976D01*
X116901333Y-59114860D01*
X116970027Y-59109584D01*
X117028258Y-59099142D01*
X117069487Y-59085234D01*
X117109375Y-59061966D01*
X117134293Y-59034121D01*
X117146076Y-58998738D01*
X117147099Y-58959940D01*
X117142794Y-58926234D01*
X117133751Y-58903011D01*
X117123420Y-58889607D01*
X117096570Y-58868450D01*
X117054386Y-58845286D01*
X116998213Y-58820717D01*
X116929396Y-58795347D01*
X116870710Y-58776284D01*
X116778847Y-58745440D01*
X116702378Y-58714064D01*
X116639820Y-58681203D01*
X116589691Y-58645898D01*
X116550507Y-58607195D01*
X116520785Y-58564138D01*
X116510565Y-58544088D01*
X116490721Y-58481894D01*
X116485704Y-58415759D01*
X116495503Y-58349795D01*
X116511204Y-58305853D01*
X116546417Y-58248429D01*
X116595676Y-58197959D01*
X116657115Y-58155763D01*
X116728864Y-58123161D01*
X116796934Y-58103900D01*
X116830711Y-58099205D01*
X116877554Y-58096111D01*
X116933725Y-58094568D01*
X116995487Y-58094527D01*
X117059103Y-58095939D01*
G37*
G36*
X126158871Y-58095939D02*
G01*
X126220604Y-58098755D01*
X126276719Y-58102924D01*
X126323477Y-58108398D01*
X126331345Y-58109639D01*
X126392544Y-58119840D01*
X126392544Y-58212779D01*
X126392544Y-58305719D01*
X126365110Y-58301012D01*
X126344664Y-58297420D01*
X126313017Y-58291765D01*
X126275573Y-58285014D01*
X126257483Y-58281734D01*
X126198634Y-58273348D01*
X126135088Y-58268222D01*
X126071064Y-58266364D01*
X126010783Y-58267787D01*
X125958463Y-58272501D01*
X125918327Y-58280516D01*
X125917161Y-58280867D01*
X125867046Y-58302493D01*
X125830075Y-58332075D01*
X125807195Y-58368326D01*
X125799351Y-58409959D01*
X125802263Y-58437012D01*
X125810091Y-58461086D01*
X125823816Y-58482692D01*
X125845074Y-58502814D01*
X125875504Y-58522437D01*
X125916741Y-58542547D01*
X125970423Y-58564128D01*
X126038186Y-58588166D01*
X126072587Y-58599677D01*
X126164073Y-58631470D01*
X126240287Y-58661747D01*
X126302653Y-58691489D01*
X126352596Y-58721680D01*
X126391539Y-58753302D01*
X126420909Y-58787335D01*
X126442128Y-58824764D01*
X126455943Y-58864021D01*
X126467840Y-58936480D01*
X126463755Y-59004872D01*
X126444282Y-59068329D01*
X126410018Y-59125982D01*
X126361557Y-59176964D01*
X126299493Y-59220407D01*
X126224422Y-59255441D01*
X126176999Y-59271043D01*
X126153144Y-59276585D01*
X126123789Y-59280768D01*
X126086260Y-59283791D01*
X126037883Y-59285854D01*
X125975984Y-59287156D01*
X125957815Y-59287389D01*
X125904433Y-59287822D01*
X125855369Y-59287877D01*
X125813680Y-59287576D01*
X125782424Y-59286944D01*
X125764657Y-59286004D01*
X125763664Y-59285884D01*
X125714084Y-59278609D01*
X125666371Y-59270704D01*
X125625523Y-59263047D01*
X125596948Y-59256623D01*
X125565293Y-59248289D01*
X125565293Y-59155760D01*
X125565845Y-59112279D01*
X125567653Y-59083678D01*
X125570942Y-59067985D01*
X125575902Y-59063230D01*
X125588011Y-59065004D01*
X125612806Y-59069816D01*
X125646520Y-59076905D01*
X125680543Y-59084413D01*
X125761664Y-59099747D01*
X125844092Y-59109937D01*
X125924885Y-59114976D01*
X126001100Y-59114860D01*
X126069795Y-59109584D01*
X126128025Y-59099142D01*
X126169255Y-59085234D01*
X126209142Y-59061966D01*
X126234060Y-59034121D01*
X126245843Y-58998738D01*
X126246866Y-58959940D01*
X126242562Y-58926234D01*
X126233519Y-58903011D01*
X126223187Y-58889607D01*
X126196338Y-58868450D01*
X126154154Y-58845286D01*
X126097981Y-58820717D01*
X126029164Y-58795347D01*
X125970477Y-58776284D01*
X125878614Y-58745440D01*
X125802145Y-58714064D01*
X125739587Y-58681203D01*
X125689458Y-58645898D01*
X125650274Y-58607195D01*
X125620553Y-58564138D01*
X125610332Y-58544088D01*
X125590489Y-58481894D01*
X125585472Y-58415759D01*
X125595270Y-58349795D01*
X125610971Y-58305853D01*
X125646184Y-58248429D01*
X125695444Y-58197959D01*
X125756882Y-58155763D01*
X125828631Y-58123161D01*
X125896701Y-58103900D01*
X125930479Y-58099205D01*
X125977321Y-58096111D01*
X126033492Y-58094568D01*
X126095254Y-58094527D01*
X126158871Y-58095939D01*
G37*
G36*
X123523013Y-58097017D02*
G01*
X123578331Y-58104758D01*
X123627696Y-58117692D01*
X123674626Y-58136372D01*
X123688942Y-58143271D01*
X123750043Y-58182965D01*
X123800444Y-58234816D01*
X123838759Y-58296895D01*
X123863601Y-58367276D01*
X123868788Y-58393097D01*
X123870415Y-58411418D01*
X123871936Y-58444744D01*
X123873317Y-58491198D01*
X123874525Y-58548903D01*
X123875528Y-58615982D01*
X123876293Y-58690559D01*
X123876786Y-58770754D01*
X123876975Y-58854693D01*
X123876975Y-58858528D01*
X123877024Y-59274264D01*
X123785154Y-59274264D01*
X123742288Y-59274119D01*
X123713494Y-59272018D01*
X123695970Y-59265462D01*
X123686914Y-59251951D01*
X123683525Y-59228987D01*
X123683001Y-59194070D01*
X123682989Y-59183136D01*
X123682873Y-59129995D01*
X123632274Y-59170937D01*
X123562211Y-59219268D01*
X123485984Y-59257069D01*
X123424194Y-59277747D01*
X123386050Y-59284531D01*
X123337736Y-59288712D01*
X123284638Y-59290265D01*
X123232145Y-59289164D01*
X123185644Y-59285383D01*
X123151069Y-59279050D01*
X123079082Y-59251597D01*
X123019799Y-59213081D01*
X122973471Y-59163842D01*
X122940352Y-59104220D01*
X122920693Y-59034554D01*
X122914711Y-58961154D01*
X122915569Y-58951201D01*
X123134186Y-58951201D01*
X123139261Y-59001008D01*
X123155609Y-59040781D01*
X123184915Y-59074382D01*
X123189744Y-59078481D01*
X123236611Y-59106435D01*
X123291080Y-59119371D01*
X123352997Y-59117265D01*
X123391206Y-59109418D01*
X123452670Y-59087731D01*
X123518742Y-59054319D01*
X123584843Y-59011618D01*
X123608793Y-58993638D01*
X123665498Y-58949272D01*
X123665745Y-58844564D01*
X123665991Y-58739856D01*
X123495054Y-58744731D01*
X123425123Y-58747214D01*
X123369390Y-58750558D01*
X123325176Y-58755271D01*
X123289800Y-58761860D01*
X123260582Y-58770832D01*
X123234841Y-58782694D01*
X123209897Y-58797955D01*
X123208327Y-58799017D01*
X123176022Y-58830193D01*
X123151391Y-58872302D01*
X123136939Y-58920208D01*
X123134186Y-58951201D01*
X122915569Y-58951201D01*
X122921568Y-58881592D01*
X122942283Y-58811630D01*
X122977070Y-58750935D01*
X123026143Y-58699167D01*
X123089717Y-58655992D01*
X123118594Y-58641360D01*
X123154776Y-58625820D01*
X123191054Y-58613495D01*
X123230183Y-58603954D01*
X123274916Y-58596761D01*
X123328009Y-58591484D01*
X123392215Y-58587689D01*
X123470290Y-58584941D01*
X123478171Y-58584728D01*
X123665991Y-58579756D01*
X123665991Y-58514445D01*
X123660598Y-58446302D01*
X123644067Y-58390308D01*
X123615870Y-58345480D01*
X123575478Y-58310836D01*
X123548715Y-58296159D01*
X123528630Y-58287259D01*
X123510436Y-58281136D01*
X123490349Y-58277294D01*
X123464582Y-58275237D01*
X123429349Y-58274470D01*
X123383206Y-58274487D01*
X123300762Y-58277821D01*
X123224328Y-58287808D01*
X123148471Y-58305587D01*
X123067758Y-58332292D01*
X123022338Y-58349973D01*
X123015983Y-58351256D01*
X123011760Y-58347211D01*
X123009239Y-58335197D01*
X123007992Y-58312575D01*
X123007588Y-58276707D01*
X123007566Y-58259215D01*
X123007566Y-58162466D01*
X123068766Y-58144327D01*
X123134443Y-58126020D01*
X123192355Y-58112899D01*
X123248666Y-58103988D01*
X123309539Y-58098310D01*
X123380445Y-58094909D01*
X123458224Y-58093918D01*
X123523013Y-58097017D01*
G37*
G36*
X126457614Y-51354174D02*
G01*
X126454942Y-55319495D01*
X126436953Y-55425012D01*
X126398419Y-55613852D01*
X126348840Y-55791361D01*
X126287414Y-55959629D01*
X126213337Y-56120746D01*
X126125807Y-56276802D01*
X126085129Y-56340897D01*
X126001535Y-56458349D01*
X125905915Y-56575443D01*
X125802207Y-56687851D01*
X125694350Y-56791242D01*
X125611720Y-56861369D01*
X125474770Y-56961813D01*
X125327551Y-57053140D01*
X125172665Y-57134227D01*
X125012710Y-57203948D01*
X124850288Y-57261179D01*
X124687997Y-57304794D01*
X124528439Y-57333668D01*
X124516456Y-57335233D01*
X124483593Y-57340112D01*
X124458249Y-57345222D01*
X124444213Y-57349737D01*
X124442594Y-57351344D01*
X124434240Y-57351781D01*
X124409523Y-57352211D01*
X124368966Y-57352633D01*
X124313087Y-57353046D01*
X124242409Y-57353449D01*
X124157453Y-57353842D01*
X124058737Y-57354223D01*
X123946785Y-57354591D01*
X123822115Y-57354946D01*
X123685250Y-57355286D01*
X123536709Y-57355611D01*
X123377014Y-57355921D01*
X123206685Y-57356213D01*
X123026242Y-57356488D01*
X122836208Y-57356743D01*
X122637102Y-57356980D01*
X122429444Y-57357195D01*
X122213757Y-57357390D01*
X121990561Y-57357562D01*
X121760375Y-57357711D01*
X121523722Y-57357836D01*
X121281122Y-57357936D01*
X121033095Y-57358011D01*
X120780163Y-57358058D01*
X120522845Y-57358078D01*
X120466722Y-57358079D01*
X116490850Y-57358079D01*
X116490957Y-54597760D01*
X119867387Y-54597760D01*
X119867387Y-54952297D01*
X119867387Y-55306833D01*
X119951800Y-55306833D01*
X120036213Y-55306833D01*
X120036213Y-55446115D01*
X120036213Y-55585397D01*
X120179716Y-55585397D01*
X120323219Y-55585397D01*
X120323219Y-55446115D01*
X120323219Y-55306833D01*
X120407633Y-55306833D01*
X120492046Y-55306833D01*
X120492046Y-54952297D01*
X120492046Y-54597760D01*
X120711521Y-54597760D01*
X120711521Y-54952297D01*
X120711521Y-55306833D01*
X120795934Y-55306833D01*
X120880348Y-55306833D01*
X120880348Y-55446115D01*
X120880348Y-55585397D01*
X121023851Y-55585397D01*
X121167353Y-55585397D01*
X121167353Y-55446115D01*
X121167353Y-55306833D01*
X121251767Y-55306833D01*
X121336180Y-55306833D01*
X121336180Y-54952297D01*
X121336180Y-54597760D01*
X121614745Y-54597760D01*
X121614745Y-54952297D01*
X121614745Y-55306833D01*
X121699158Y-55306833D01*
X121783571Y-55306833D01*
X121783571Y-55446115D01*
X121783571Y-55585397D01*
X121927074Y-55585397D01*
X122070577Y-55585397D01*
X122070577Y-55446115D01*
X122070577Y-55306833D01*
X122154990Y-55306833D01*
X122239404Y-55306833D01*
X122239404Y-54952297D01*
X122239404Y-54597760D01*
X122458879Y-54597760D01*
X122458879Y-54952297D01*
X122458879Y-55306833D01*
X122543292Y-55306833D01*
X122627706Y-55306833D01*
X122627706Y-55446115D01*
X122627706Y-55585397D01*
X122771208Y-55585397D01*
X122914711Y-55585397D01*
X122914711Y-55446115D01*
X122914711Y-55306833D01*
X122999125Y-55306833D01*
X123083538Y-55306833D01*
X123083538Y-54952297D01*
X123083538Y-54597760D01*
X122771208Y-54597760D01*
X122458879Y-54597760D01*
X122239404Y-54597760D01*
X121927074Y-54597760D01*
X121614745Y-54597760D01*
X121336180Y-54597760D01*
X121023851Y-54597760D01*
X120711521Y-54597760D01*
X120492046Y-54597760D01*
X120179716Y-54597760D01*
X119867387Y-54597760D01*
X116490957Y-54597760D01*
X116490988Y-53812715D01*
X118263531Y-53812715D01*
X118402814Y-53812715D01*
X118542096Y-53812715D01*
X118542096Y-53897129D01*
X118542096Y-53981542D01*
X118896632Y-53981542D01*
X119251169Y-53981542D01*
X119251169Y-53669212D01*
X119251169Y-53356883D01*
X118896632Y-53356883D01*
X118542096Y-53356883D01*
X118542096Y-53441296D01*
X118542096Y-53525710D01*
X118402814Y-53525710D01*
X118263531Y-53525710D01*
X118263531Y-53669212D01*
X118263531Y-53812715D01*
X116490988Y-53812715D01*
X116491004Y-53392758D01*
X116491022Y-53079231D01*
X116491032Y-52968581D01*
X118263531Y-52968581D01*
X118402814Y-52968581D01*
X118542096Y-52968581D01*
X118542096Y-53052994D01*
X118542096Y-53137408D01*
X118896632Y-53137408D01*
X119251169Y-53137408D01*
X119251169Y-52825078D01*
X119251169Y-52512748D01*
X118896632Y-52512748D01*
X118542096Y-52512748D01*
X118542096Y-52597162D01*
X118542096Y-52681575D01*
X118402814Y-52681575D01*
X118263531Y-52681575D01*
X118263531Y-52825078D01*
X118263531Y-52968581D01*
X116491032Y-52968581D01*
X116491050Y-52782147D01*
X116491091Y-52501069D01*
X116491145Y-52235557D01*
X116491192Y-52065357D01*
X118263531Y-52065357D01*
X118402814Y-52065357D01*
X118542096Y-52065357D01*
X118542096Y-52149771D01*
X118542096Y-52234184D01*
X118896632Y-52234184D01*
X119251169Y-52234184D01*
X119251169Y-51921854D01*
X119251169Y-51609525D01*
X118896632Y-51609525D01*
X118542096Y-51609525D01*
X118542096Y-51693938D01*
X118542096Y-51778352D01*
X118402814Y-51778352D01*
X118263531Y-51778352D01*
X118263531Y-51921854D01*
X118263531Y-52065357D01*
X116491192Y-52065357D01*
X116491214Y-51985173D01*
X116491299Y-51749479D01*
X116491402Y-51528035D01*
X116491523Y-51320403D01*
X116491595Y-51221223D01*
X118263531Y-51221223D01*
X118402814Y-51221223D01*
X118542096Y-51221223D01*
X118542096Y-51305636D01*
X118542096Y-51390050D01*
X118896632Y-51390050D01*
X119251169Y-51390050D01*
X119251169Y-51090382D01*
X119251169Y-50790715D01*
X118896632Y-50790715D01*
X118542096Y-50790715D01*
X118542096Y-50862466D01*
X118542096Y-50934217D01*
X118402814Y-50934217D01*
X118263531Y-50934217D01*
X118263531Y-51077720D01*
X118263531Y-51221223D01*
X116491595Y-51221223D01*
X116491665Y-51126144D01*
X116491828Y-50944820D01*
X116492014Y-50775992D01*
X116492224Y-50619221D01*
X116492460Y-50474068D01*
X116492723Y-50340096D01*
X116492835Y-50292675D01*
X119386230Y-50292675D01*
X119386230Y-52377687D01*
X119386230Y-54462699D01*
X121475462Y-54462699D01*
X123564695Y-54462699D01*
X123564695Y-53356883D01*
X123699756Y-53356883D01*
X123699756Y-53656550D01*
X123699756Y-53956218D01*
X124054293Y-53956218D01*
X124408829Y-53956218D01*
X124408829Y-53871805D01*
X124408829Y-53787391D01*
X124548111Y-53787391D01*
X124687393Y-53787391D01*
X124687393Y-53656550D01*
X124687393Y-53525710D01*
X124548111Y-53525710D01*
X124408829Y-53525710D01*
X124408829Y-53441296D01*
X124408829Y-53356883D01*
X124054293Y-53356883D01*
X123699756Y-53356883D01*
X123564695Y-53356883D01*
X123564695Y-52512748D01*
X123699756Y-52512748D01*
X123699756Y-52825078D01*
X123699756Y-53137408D01*
X124054293Y-53137408D01*
X124408829Y-53137408D01*
X124408829Y-53052994D01*
X124408829Y-52968581D01*
X124548111Y-52968581D01*
X124687393Y-52968581D01*
X124687393Y-52825078D01*
X124687393Y-52681575D01*
X124548111Y-52681575D01*
X124408829Y-52681575D01*
X124408829Y-52597162D01*
X124408829Y-52512748D01*
X124054293Y-52512748D01*
X123699756Y-52512748D01*
X123564695Y-52512748D01*
X123564695Y-52377687D01*
X123564695Y-51617966D01*
X123699756Y-51617966D01*
X123699756Y-51926075D01*
X123699756Y-52234184D01*
X124054293Y-52234184D01*
X124408829Y-52234184D01*
X124408829Y-52149771D01*
X124408829Y-52065357D01*
X124548111Y-52065357D01*
X124687393Y-52065357D01*
X124687393Y-51926075D01*
X124687393Y-51786793D01*
X124548111Y-51786793D01*
X124408829Y-51786793D01*
X124408829Y-51702380D01*
X124408829Y-51617966D01*
X124054293Y-51617966D01*
X123699756Y-51617966D01*
X123564695Y-51617966D01*
X123564695Y-50765391D01*
X123699756Y-50765391D01*
X123699756Y-51077720D01*
X123699756Y-51390050D01*
X124054293Y-51390050D01*
X124408829Y-51390050D01*
X124408829Y-51305636D01*
X124408829Y-51221223D01*
X124548111Y-51221223D01*
X124687393Y-51221223D01*
X124687393Y-51077720D01*
X124687393Y-50934217D01*
X124548111Y-50934217D01*
X124408829Y-50934217D01*
X124408829Y-50849804D01*
X124408829Y-50765391D01*
X124054293Y-50765391D01*
X123699756Y-50765391D01*
X123564695Y-50765391D01*
X123564695Y-50292675D01*
X121475462Y-50292675D01*
X119386230Y-50292675D01*
X116492835Y-50292675D01*
X116493014Y-50216864D01*
X116493206Y-50149173D01*
X119867387Y-50149173D01*
X120179716Y-50149173D01*
X120492046Y-50149173D01*
X120711521Y-50149173D01*
X121023851Y-50149173D01*
X121336180Y-50149173D01*
X121623186Y-50149173D01*
X121931295Y-50149173D01*
X122239404Y-50149173D01*
X122467320Y-50149173D01*
X122775429Y-50149173D01*
X123083538Y-50149173D01*
X123083538Y-49794636D01*
X123083538Y-49440100D01*
X122999125Y-49440100D01*
X122914711Y-49440100D01*
X122914711Y-49296597D01*
X122914711Y-49153094D01*
X122771208Y-49153094D01*
X122627706Y-49153094D01*
X122627706Y-49296597D01*
X122627706Y-49440100D01*
X122547513Y-49440100D01*
X122467320Y-49440100D01*
X122467320Y-49794636D01*
X122467320Y-50149173D01*
X122239404Y-50149173D01*
X122239404Y-49794636D01*
X122239404Y-49440100D01*
X122150770Y-49440100D01*
X122062136Y-49440100D01*
X122062136Y-49296597D01*
X122062136Y-49153094D01*
X121922854Y-49153094D01*
X121783571Y-49153094D01*
X121783571Y-49296597D01*
X121783571Y-49440100D01*
X121703379Y-49440100D01*
X121623186Y-49440100D01*
X121623186Y-49794636D01*
X121623186Y-50149173D01*
X121336180Y-50149173D01*
X121336180Y-49794636D01*
X121336180Y-49440100D01*
X121255987Y-49440100D01*
X121175795Y-49440100D01*
X121175795Y-49296597D01*
X121175795Y-49153094D01*
X121023851Y-49153094D01*
X120871906Y-49153094D01*
X120871906Y-49296597D01*
X120871906Y-49440100D01*
X120791714Y-49440100D01*
X120711521Y-49440100D01*
X120711521Y-49794636D01*
X120711521Y-50149173D01*
X120492046Y-50149173D01*
X120492046Y-49794636D01*
X120492046Y-49440100D01*
X120411853Y-49440100D01*
X120331660Y-49440100D01*
X120331660Y-49296597D01*
X120331660Y-49153094D01*
X120179716Y-49153094D01*
X120027772Y-49153094D01*
X120027772Y-49296597D01*
X120027772Y-49440100D01*
X119947579Y-49440100D01*
X119867387Y-49440100D01*
X119867387Y-49794636D01*
X119867387Y-50149173D01*
X116493206Y-50149173D01*
X116493334Y-50103935D01*
X116493686Y-50000870D01*
X116494069Y-49907230D01*
X116494486Y-49822577D01*
X116494938Y-49746471D01*
X116495427Y-49678474D01*
X116495952Y-49618148D01*
X116496517Y-49565054D01*
X116497122Y-49518752D01*
X116497768Y-49478805D01*
X116498457Y-49444774D01*
X116499191Y-49416220D01*
X116499970Y-49392704D01*
X116500796Y-49373788D01*
X116501670Y-49359033D01*
X116502594Y-49348000D01*
X116503330Y-49341834D01*
X116539118Y-49146773D01*
X116590093Y-48958859D01*
X116656471Y-48777575D01*
X116738463Y-48602404D01*
X116836286Y-48432828D01*
X116944498Y-48275877D01*
X116990805Y-48217894D01*
X117047496Y-48153338D01*
X117111263Y-48085517D01*
X117178800Y-48017737D01*
X117246801Y-47953305D01*
X117311957Y-47895528D01*
X117370962Y-47847713D01*
X117377873Y-47842502D01*
X117542596Y-47729386D01*
X117712420Y-47632304D01*
X117887864Y-47551042D01*
X118069445Y-47485386D01*
X118257680Y-47435122D01*
X118443830Y-47401334D01*
X118452328Y-47400371D01*
X118464214Y-47399460D01*
X118479928Y-47398597D01*
X118499908Y-47397783D01*
X118524593Y-47397015D01*
X118554421Y-47396292D01*
X118589832Y-47395613D01*
X118631264Y-47394977D01*
X118679155Y-47394382D01*
X118733945Y-47393827D01*
X118796072Y-47393310D01*
X118865974Y-47392831D01*
X118944091Y-47392387D01*
X119030861Y-47391978D01*
X119126722Y-47391603D01*
X119232114Y-47391259D01*
X119347474Y-47390946D01*
X119473243Y-47390662D01*
X119609858Y-47390405D01*
X119757757Y-47390176D01*
X119917381Y-47389971D01*
X120089167Y-47389791D01*
X120273554Y-47389633D01*
X120470980Y-47389496D01*
X120681885Y-47389379D01*
X120906708Y-47389281D01*
X121145885Y-47389200D01*
X121399858Y-47389134D01*
X121669063Y-47389084D01*
X121953940Y-47389046D01*
X122254928Y-47389021D01*
X122494859Y-47389008D01*
X126460285Y-47388854D01*
X126457614Y-51354174D01*
G37*
X114664800Y-46676000D02*
X114664800Y-48006000D01*
X113334800Y-46676000D02*
X114664800Y-46676000D01*
X112064800Y-46676000D02*
X99304800Y-46676000D01*
X112064800Y-46676000D02*
X112064800Y-49336000D01*
X99304800Y-46676000D02*
X99304800Y-49336000D01*
X112064800Y-49336000D02*
X99304800Y-49336000D01*
X104881200Y-58704900D02*
X104881200Y-60504900D01*
X104881200Y-58704900D02*
X104881200Y-57904900D01*
X108001200Y-58704900D02*
X108001200Y-59504900D01*
X108001200Y-58704900D02*
X108001200Y-57904900D01*
X102763367Y-61012800D02*
X102470833Y-61012800D01*
X102763367Y-59992800D02*
X102470833Y-59992800D01*
X105466200Y-68159400D02*
X105466200Y-71609400D01*
X105466200Y-68159400D02*
X105466200Y-66209400D01*
X110586200Y-68159400D02*
X110586200Y-70109400D01*
X110586200Y-68159400D02*
X110586200Y-66209400D01*
X94439200Y-63253233D02*
X94439200Y-63545767D01*
X93419200Y-63253233D02*
X93419200Y-63545767D01*
X101348000Y-63253233D02*
X101348000Y-63545767D01*
X100328000Y-63253233D02*
X100328000Y-63545767D01*
X110135124Y-53506900D02*
X109625676Y-53506900D01*
X110135124Y-52461900D02*
X109625676Y-52461900D01*
%LPC*%
D13*
X109067600Y-63500000D03*
X110792600Y-63500000D03*
D14*
X96418400Y-62514400D03*
X96418400Y-63464400D03*
X96418400Y-64414400D03*
X98693400Y-64414400D03*
X98693400Y-62514400D03*
D15*
X117652800Y-77419200D03*
D16*
X115112800Y-77419200D03*
X112572800Y-77419200D03*
D17*
X110791000Y-51308000D03*
X108966000Y-51308000D03*
D15*
X103479600Y-77419200D03*
D16*
X100939600Y-77419200D03*
X98399600Y-77419200D03*
D18*
X107391200Y-61675000D03*
X107391200Y-63500000D03*
D19*
X104391800Y-65684400D03*
X102666800Y-65684400D03*
D20*
X91795600Y-62559400D03*
X91795600Y-65684400D03*
D13*
X105206800Y-55016400D03*
X106931800Y-55016400D03*
D21*
X98094800Y-55016400D03*
X98094800Y-56286400D03*
X98094800Y-57556400D03*
X98094800Y-58826400D03*
X103044800Y-58826400D03*
X103044800Y-57556400D03*
X103044800Y-56286400D03*
X103044800Y-55016400D03*
D15*
X113334800Y-48006000D03*
D16*
X110794800Y-48006000D03*
X108254800Y-48006000D03*
X105714800Y-48006000D03*
X103174800Y-48006000D03*
X100634800Y-48006000D03*
D22*
X105491200Y-59842400D03*
X106441200Y-59842400D03*
X107391200Y-59842400D03*
X107391200Y-57567400D03*
X105491200Y-57567400D03*
D19*
X103479600Y-60502800D03*
X101754600Y-60502800D03*
D23*
X106121200Y-70634400D03*
X107391200Y-70634400D03*
X108661200Y-70634400D03*
X109931200Y-70634400D03*
X109931200Y-65684400D03*
X108661200Y-65684400D03*
X107391200Y-65684400D03*
X106121200Y-65684400D03*
D24*
X93929200Y-62537000D03*
X93929200Y-64262000D03*
X100838000Y-62537000D03*
X100838000Y-64262000D03*
D17*
X110792900Y-52984400D03*
X108967900Y-52984400D03*
%LPD*%
M02*
