M48
; DRILL file {KiCad 7.0.11-2.fc39} date dim. 09 juin 2024 18:16:29
; FORMAT={-:-/ absolute / metric / decimal}
; #@! TF.CreationDate,2024-06-09T18:16:29+02:00
; #@! TF.GenerationSoftware,Kicad,Pcbnew,7.0.11-2.fc39
; #@! TF.FileFunction,Plated,1,2,PTH
FMAT,2
METRIC
; #@! TA.AperFunction,Plated,PTH,ViaDrill
T1C0.300
; #@! TA.AperFunction,Plated,PTH,ViaDrill
T2C0.400
; #@! TA.AperFunction,Plated,PTH,ComponentDrill
T3C1.000
%
G90
G05
T1
X88.29Y-46.787
X88.29Y-52.781
X88.29Y-58.725
X88.29Y-64.77
X94.793Y-46.787
X94.793Y-52.781
X104.445Y-50.089
X104.445Y-52.527
X111.608Y-55.778
X111.709Y-64.77
X111.963Y-50.089
X114.605Y-52.781
X114.605Y-58.776
X114.605Y-64.77
X120.955Y-46.787
X120.955Y-52.781
X120.955Y-58.776
X120.955Y-64.77
X127.305Y-46.787
X127.305Y-52.781
X127.305Y-58.826
X127.305Y-64.77
T2
X91.796Y-60.757
X105.308Y-53.797
X107.391Y-52.984
X109.017Y-58.776
X110.846Y-54.204
X113.386Y-64.364
T3
X98.4Y-77.419
X100.635Y-48.006
X100.94Y-77.419
X103.175Y-48.006
X103.48Y-77.419
X105.715Y-48.006
X108.255Y-48.006
X110.795Y-48.006
X112.573Y-77.419
X113.335Y-48.006
X115.113Y-77.419
X117.653Y-77.419
M30
