G04 #@! TF.GenerationSoftware,KiCad,Pcbnew,7.0.11-2.fc39*
G04 #@! TF.CreationDate,2024-06-02T00:51:06+02:00*
G04 #@! TF.ProjectId,two_relays_extension,74776f5f-7265-46c6-9179-735f65787465,rev?*
G04 #@! TF.SameCoordinates,Original*
G04 #@! TF.FileFunction,Soldermask,Top*
G04 #@! TF.FilePolarity,Negative*
%FSLAX46Y46*%
G04 Gerber Fmt 4.6, Leading zero omitted, Abs format (unit mm)*
G04 Created by KiCad (PCBNEW 7.0.11-2.fc39) date 2024-06-02 00:51:06*
%MOMM*%
%LPD*%
G01*
G04 APERTURE LIST*
G04 Aperture macros list*
%AMRoundRect*
0 Rectangle with rounded corners*
0 $1 Rounding radius*
0 $2 $3 $4 $5 $6 $7 $8 $9 X,Y pos of 4 corners*
0 Add a 4 corners polygon primitive as box body*
4,1,4,$2,$3,$4,$5,$6,$7,$8,$9,$2,$3,0*
0 Add four circle primitives for the rounded corners*
1,1,$1+$1,$2,$3*
1,1,$1+$1,$4,$5*
1,1,$1+$1,$6,$7*
1,1,$1+$1,$8,$9*
0 Add four rect primitives between the rounded corners*
20,1,$1+$1,$2,$3,$4,$5,0*
20,1,$1+$1,$4,$5,$6,$7,0*
20,1,$1+$1,$6,$7,$8,$9,0*
20,1,$1+$1,$8,$9,$2,$3,0*%
G04 Aperture macros list end*
%ADD10R,1.700000X1.700000*%
%ADD11O,1.700000X1.700000*%
%ADD12R,0.800000X0.900000*%
%ADD13C,3.000000*%
%ADD14C,2.500000*%
%ADD15RoundRect,0.237500X0.300000X0.237500X-0.300000X0.237500X-0.300000X-0.237500X0.300000X-0.237500X0*%
%ADD16RoundRect,0.237500X0.250000X0.237500X-0.250000X0.237500X-0.250000X-0.237500X0.250000X-0.237500X0*%
%ADD17RoundRect,0.237500X-0.237500X0.250000X-0.237500X-0.250000X0.237500X-0.250000X0.237500X0.250000X0*%
%ADD18RoundRect,0.125000X-0.825000X-0.125000X0.825000X-0.125000X0.825000X0.125000X-0.825000X0.125000X0*%
%ADD19RoundRect,0.237500X-0.300000X-0.237500X0.300000X-0.237500X0.300000X0.237500X-0.300000X0.237500X0*%
%ADD20RoundRect,0.150000X-0.825000X-0.150000X0.825000X-0.150000X0.825000X0.150000X-0.825000X0.150000X0*%
G04 APERTURE END LIST*
D10*
X152908000Y-59994800D03*
D11*
X150368000Y-59994800D03*
X147828000Y-59994800D03*
X145288000Y-59994800D03*
X142748000Y-59994800D03*
X140208000Y-59994800D03*
D10*
X160259000Y-105537000D03*
D11*
X157719000Y-105537000D03*
X155179000Y-105537000D03*
D12*
X152588000Y-75470000D03*
X150688000Y-75470000D03*
X151638000Y-77470000D03*
D13*
X137114000Y-81177000D03*
D14*
X131064000Y-83127000D03*
D13*
X131064000Y-95327000D03*
X143114000Y-95377000D03*
D14*
X143064000Y-83127000D03*
D15*
X135481400Y-67360800D03*
X133756400Y-67360800D03*
D16*
X152527000Y-73787000D03*
X150702000Y-73787000D03*
D17*
X137703800Y-74169900D03*
X137703800Y-75994900D03*
D12*
X131963200Y-76486000D03*
X130063200Y-76486000D03*
X131013200Y-78486000D03*
D16*
X150469600Y-64744600D03*
X148644600Y-64744600D03*
X131902200Y-74803000D03*
X130077200Y-74803000D03*
D10*
X139573000Y-105410000D03*
D11*
X137033000Y-105410000D03*
X134493000Y-105410000D03*
D18*
X139862800Y-71315200D03*
X139862800Y-71965200D03*
X139862800Y-72615200D03*
X139862800Y-73265200D03*
X139862800Y-73915200D03*
X139862800Y-74565200D03*
X139862800Y-75215200D03*
X139862800Y-75865200D03*
X139862800Y-76515200D03*
X139862800Y-77165200D03*
X146862800Y-77165200D03*
X146862800Y-76515200D03*
X146862800Y-75865200D03*
X146862800Y-75215200D03*
X146862800Y-74565200D03*
X146862800Y-73915200D03*
X146862800Y-73265200D03*
X146862800Y-72615200D03*
X146862800Y-71965200D03*
X146862800Y-71315200D03*
D19*
X146788800Y-69545200D03*
X148513800Y-69545200D03*
D20*
X130533600Y-69037200D03*
X130533600Y-70307200D03*
X130533600Y-71577200D03*
X130533600Y-72847200D03*
X135483600Y-72847200D03*
X135483600Y-71577200D03*
X135483600Y-70307200D03*
X135483600Y-69037200D03*
D16*
X150495000Y-62966600D03*
X148670000Y-62966600D03*
D13*
X157688000Y-81100000D03*
D14*
X151638000Y-83050000D03*
D13*
X151638000Y-95250000D03*
X163688000Y-95300000D03*
D14*
X163638000Y-83050000D03*
M02*
