%TF.GenerationSoftware,KiCad,Pcbnew,7.0.11-2.fc39*%
%TF.CreationDate,2024-06-02T00:52:19+02:00*%
%TF.ProjectId,two_relays_extension,74776f5f-7265-46c6-9179-735f65787465,rev?*%
%TF.SameCoordinates,Original*%
%TF.FileFunction,Drillmap*%
%TF.FilePolarity,Positive*%
%FSLAX45Y45*%
G04 Gerber Fmt 4.5, Leading zero omitted, Abs format (unit mm)*
G04 Created by KiCad (PCBNEW 7.0.11-2.fc39) date 2024-06-02 00:52:19*
%MOMM*%
%LPD*%
G01*
G04 APERTURE LIST*
%ADD10C,0.100000*%
%ADD11C,0.200000*%
%ADD12C,0.130000*%
G04 APERTURE END LIST*
D10*
X12674600Y-5778500D02*
X16802100Y-5778500D01*
X16802100Y-10845800D01*
X12674600Y-10845800D01*
X12674600Y-5778500D01*
D11*
D10*
X12771360Y-5862560D02*
X12801360Y-5892560D01*
X12801360Y-5862560D02*
X12771360Y-5892560D01*
X12771360Y-6462000D02*
X12801360Y-6492000D01*
X12801360Y-6462000D02*
X12771360Y-6492000D01*
X12771360Y-7056360D02*
X12801360Y-7086360D01*
X12801360Y-7056360D02*
X12771360Y-7086360D01*
X12771360Y-7660880D02*
X12801360Y-7690880D01*
X12801360Y-7660880D02*
X12771360Y-7690880D01*
X13421600Y-5862560D02*
X13451600Y-5892560D01*
X13451600Y-5862560D02*
X13421600Y-5892560D01*
X13421600Y-6462000D02*
X13451600Y-6492000D01*
X13451600Y-6462000D02*
X13421600Y-6492000D01*
X14071840Y-6462000D02*
X14101840Y-6492000D01*
X14101840Y-6462000D02*
X14071840Y-6492000D01*
X15372320Y-6462000D02*
X15402320Y-6492000D01*
X15402320Y-6462000D02*
X15372320Y-6492000D01*
X15372320Y-7061440D02*
X15402320Y-7091440D01*
X15402320Y-7061440D02*
X15372320Y-7091440D01*
X15372320Y-7660880D02*
X15402320Y-7690880D01*
X15402320Y-7660880D02*
X15372320Y-7690880D01*
X16037800Y-5862560D02*
X16067800Y-5892560D01*
X16067800Y-5862560D02*
X16037800Y-5892560D01*
X16037800Y-6462000D02*
X16067800Y-6492000D01*
X16067800Y-6462000D02*
X16037800Y-6492000D01*
X16037800Y-7061440D02*
X16067800Y-7091440D01*
X16067800Y-7061440D02*
X16037800Y-7091440D01*
X16037800Y-7660880D02*
X16067800Y-7690880D01*
X16067800Y-7660880D02*
X16037800Y-7690880D01*
X16672800Y-5862560D02*
X16702800Y-5892560D01*
X16702800Y-5862560D02*
X16672800Y-5892560D01*
X16672800Y-6462000D02*
X16702800Y-6492000D01*
X16702800Y-6462000D02*
X16672800Y-6492000D01*
X16672800Y-7066520D02*
X16702800Y-7096520D01*
X16702800Y-7066520D02*
X16672800Y-7096520D01*
X16672800Y-7660880D02*
X16702800Y-7690880D01*
X16702800Y-7660880D02*
X16672800Y-7690880D01*
X12872400Y-7482840D02*
G75*
G03*
X12832400Y-7482840I-20000J0D01*
G01*
X12832400Y-7482840D02*
G75*
G03*
X12872400Y-7482840I20000J0D01*
G01*
X13654720Y-7538720D02*
G75*
G03*
X13614720Y-7538720I-20000J0D01*
G01*
X13614720Y-7538720D02*
G75*
G03*
X13654720Y-7538720I20000J0D01*
G01*
X13741080Y-6736080D02*
G75*
G03*
X13701080Y-6736080I-20000J0D01*
G01*
X13701080Y-6736080D02*
G75*
G03*
X13741080Y-6736080I20000J0D01*
G01*
X14177960Y-7650480D02*
G75*
G03*
X14137960Y-7650480I-20000J0D01*
G01*
X14137960Y-7650480D02*
G75*
G03*
X14177960Y-7650480I20000J0D01*
G01*
X14218600Y-7325360D02*
G75*
G03*
X14178600Y-7325360I-20000J0D01*
G01*
X14178600Y-7325360D02*
G75*
G03*
X14218600Y-7325360I20000J0D01*
G01*
X14421800Y-6289040D02*
G75*
G03*
X14381800Y-6289040I-20000J0D01*
G01*
X14381800Y-6289040D02*
G75*
G03*
X14421800Y-6289040I20000J0D01*
G01*
X14472600Y-6466840D02*
G75*
G03*
X14432600Y-6466840I-20000J0D01*
G01*
X14432600Y-6466840D02*
G75*
G03*
X14472600Y-6466840I20000J0D01*
G01*
X14543720Y-6954520D02*
G75*
G03*
X14503720Y-6954520I-20000J0D01*
G01*
X14503720Y-6954520D02*
G75*
G03*
X14543720Y-6954520I20000J0D01*
G01*
X15000920Y-6959600D02*
G75*
G03*
X14960920Y-6959600I-20000J0D01*
G01*
X14960920Y-6959600D02*
G75*
G03*
X15000920Y-6959600I20000J0D01*
G01*
X15087280Y-7259320D02*
G75*
G03*
X15047280Y-7259320I-20000J0D01*
G01*
X15047280Y-7259320D02*
G75*
G03*
X15087280Y-7259320I20000J0D01*
G01*
X13106400Y-8262700D02*
X13106400Y-8362700D01*
X13056400Y-8312700D02*
X13156400Y-8312700D01*
X13449300Y-10491000D02*
X13449300Y-10591000D01*
X13399300Y-10541000D02*
X13499300Y-10541000D01*
X13703300Y-10491000D02*
X13703300Y-10591000D01*
X13653300Y-10541000D02*
X13753300Y-10541000D01*
X13957300Y-10491000D02*
X13957300Y-10591000D01*
X13907300Y-10541000D02*
X14007300Y-10541000D01*
X14020800Y-5949480D02*
X14020800Y-6049480D01*
X13970800Y-5999480D02*
X14070800Y-5999480D01*
X14274800Y-5949480D02*
X14274800Y-6049480D01*
X14224800Y-5999480D02*
X14324800Y-5999480D01*
X14306400Y-8262700D02*
X14306400Y-8362700D01*
X14256400Y-8312700D02*
X14356400Y-8312700D01*
X14528800Y-5949480D02*
X14528800Y-6049480D01*
X14478800Y-5999480D02*
X14578800Y-5999480D01*
X14782800Y-5949480D02*
X14782800Y-6049480D01*
X14732800Y-5999480D02*
X14832800Y-5999480D01*
X15036800Y-5949480D02*
X15036800Y-6049480D01*
X14986800Y-5999480D02*
X15086800Y-5999480D01*
X15163800Y-8255000D02*
X15163800Y-8355000D01*
X15113800Y-8305000D02*
X15213800Y-8305000D01*
X15290800Y-5949480D02*
X15290800Y-6049480D01*
X15240800Y-5999480D02*
X15340800Y-5999480D01*
X15517900Y-10503700D02*
X15517900Y-10603700D01*
X15467900Y-10553700D02*
X15567900Y-10553700D01*
X15771900Y-10503700D02*
X15771900Y-10603700D01*
X15721900Y-10553700D02*
X15821900Y-10553700D01*
X16025900Y-10503700D02*
X16025900Y-10603700D01*
X15975900Y-10553700D02*
X16075900Y-10553700D01*
X16363800Y-8255000D02*
X16363800Y-8355000D01*
X16313800Y-8305000D02*
X16413800Y-8305000D01*
D12*
X13152362Y-9578662D02*
X13152362Y-9486738D01*
X13060438Y-9486738D01*
X13060438Y-9578662D01*
X13152362Y-9578662D01*
X13757362Y-8163662D02*
X13757362Y-8071738D01*
X13665438Y-8071738D01*
X13665438Y-8163662D01*
X13757362Y-8163662D01*
X14357362Y-9583662D02*
X14357362Y-9491738D01*
X14265438Y-9491738D01*
X14265438Y-9583662D01*
X14357362Y-9583662D01*
X15209762Y-9570962D02*
X15209762Y-9479038D01*
X15117838Y-9479038D01*
X15117838Y-9570962D01*
X15209762Y-9570962D01*
X15814762Y-8155962D02*
X15814762Y-8064038D01*
X15722838Y-8064038D01*
X15722838Y-8155962D01*
X15814762Y-8155962D01*
X16414762Y-9575962D02*
X16414762Y-9484038D01*
X16322838Y-9484038D01*
X16322838Y-9575962D01*
X16414762Y-9575962D01*
D11*
X12930377Y-11162284D02*
X12930377Y-10962284D01*
X12930377Y-10962284D02*
X12977996Y-10962284D01*
X12977996Y-10962284D02*
X13006567Y-10971808D01*
X13006567Y-10971808D02*
X13025615Y-10990855D01*
X13025615Y-10990855D02*
X13035139Y-11009903D01*
X13035139Y-11009903D02*
X13044662Y-11047998D01*
X13044662Y-11047998D02*
X13044662Y-11076570D01*
X13044662Y-11076570D02*
X13035139Y-11114665D01*
X13035139Y-11114665D02*
X13025615Y-11133712D01*
X13025615Y-11133712D02*
X13006567Y-11152760D01*
X13006567Y-11152760D02*
X12977996Y-11162284D01*
X12977996Y-11162284D02*
X12930377Y-11162284D01*
X13130377Y-11162284D02*
X13130377Y-11028950D01*
X13130377Y-11067046D02*
X13139901Y-11047998D01*
X13139901Y-11047998D02*
X13149424Y-11038474D01*
X13149424Y-11038474D02*
X13168472Y-11028950D01*
X13168472Y-11028950D02*
X13187520Y-11028950D01*
X13254186Y-11162284D02*
X13254186Y-11028950D01*
X13254186Y-10962284D02*
X13244662Y-10971808D01*
X13244662Y-10971808D02*
X13254186Y-10981331D01*
X13254186Y-10981331D02*
X13263710Y-10971808D01*
X13263710Y-10971808D02*
X13254186Y-10962284D01*
X13254186Y-10962284D02*
X13254186Y-10981331D01*
X13377996Y-11162284D02*
X13358948Y-11152760D01*
X13358948Y-11152760D02*
X13349424Y-11133712D01*
X13349424Y-11133712D02*
X13349424Y-10962284D01*
X13482758Y-11162284D02*
X13463710Y-11152760D01*
X13463710Y-11152760D02*
X13454186Y-11133712D01*
X13454186Y-11133712D02*
X13454186Y-10962284D01*
X13711329Y-11162284D02*
X13711329Y-10962284D01*
X13711329Y-10962284D02*
X13777996Y-11105141D01*
X13777996Y-11105141D02*
X13844662Y-10962284D01*
X13844662Y-10962284D02*
X13844662Y-11162284D01*
X14025615Y-11162284D02*
X14025615Y-11057522D01*
X14025615Y-11057522D02*
X14016091Y-11038474D01*
X14016091Y-11038474D02*
X13997043Y-11028950D01*
X13997043Y-11028950D02*
X13958948Y-11028950D01*
X13958948Y-11028950D02*
X13939901Y-11038474D01*
X14025615Y-11152760D02*
X14006567Y-11162284D01*
X14006567Y-11162284D02*
X13958948Y-11162284D01*
X13958948Y-11162284D02*
X13939901Y-11152760D01*
X13939901Y-11152760D02*
X13930377Y-11133712D01*
X13930377Y-11133712D02*
X13930377Y-11114665D01*
X13930377Y-11114665D02*
X13939901Y-11095617D01*
X13939901Y-11095617D02*
X13958948Y-11086093D01*
X13958948Y-11086093D02*
X14006567Y-11086093D01*
X14006567Y-11086093D02*
X14025615Y-11076570D01*
X14120853Y-11028950D02*
X14120853Y-11228950D01*
X14120853Y-11038474D02*
X14139901Y-11028950D01*
X14139901Y-11028950D02*
X14177996Y-11028950D01*
X14177996Y-11028950D02*
X14197043Y-11038474D01*
X14197043Y-11038474D02*
X14206567Y-11047998D01*
X14206567Y-11047998D02*
X14216091Y-11067046D01*
X14216091Y-11067046D02*
X14216091Y-11124189D01*
X14216091Y-11124189D02*
X14206567Y-11143236D01*
X14206567Y-11143236D02*
X14197043Y-11152760D01*
X14197043Y-11152760D02*
X14177996Y-11162284D01*
X14177996Y-11162284D02*
X14139901Y-11162284D01*
X14139901Y-11162284D02*
X14120853Y-11152760D01*
X14301805Y-11143236D02*
X14311329Y-11152760D01*
X14311329Y-11152760D02*
X14301805Y-11162284D01*
X14301805Y-11162284D02*
X14292282Y-11152760D01*
X14292282Y-11152760D02*
X14301805Y-11143236D01*
X14301805Y-11143236D02*
X14301805Y-11162284D01*
X14301805Y-11038474D02*
X14311329Y-11047998D01*
X14311329Y-11047998D02*
X14301805Y-11057522D01*
X14301805Y-11057522D02*
X14292282Y-11047998D01*
X14292282Y-11047998D02*
X14301805Y-11038474D01*
X14301805Y-11038474D02*
X14301805Y-11057522D01*
D10*
X12639600Y-11475800D02*
X12669600Y-11505800D01*
X12669600Y-11475800D02*
X12639600Y-11505800D01*
D11*
X12968472Y-11382284D02*
X12987520Y-11382284D01*
X12987520Y-11382284D02*
X13006567Y-11391808D01*
X13006567Y-11391808D02*
X13016091Y-11401331D01*
X13016091Y-11401331D02*
X13025615Y-11420379D01*
X13025615Y-11420379D02*
X13035139Y-11458474D01*
X13035139Y-11458474D02*
X13035139Y-11506093D01*
X13035139Y-11506093D02*
X13025615Y-11544188D01*
X13025615Y-11544188D02*
X13016091Y-11563236D01*
X13016091Y-11563236D02*
X13006567Y-11572760D01*
X13006567Y-11572760D02*
X12987520Y-11582284D01*
X12987520Y-11582284D02*
X12968472Y-11582284D01*
X12968472Y-11582284D02*
X12949424Y-11572760D01*
X12949424Y-11572760D02*
X12939901Y-11563236D01*
X12939901Y-11563236D02*
X12930377Y-11544188D01*
X12930377Y-11544188D02*
X12920853Y-11506093D01*
X12920853Y-11506093D02*
X12920853Y-11458474D01*
X12920853Y-11458474D02*
X12930377Y-11420379D01*
X12930377Y-11420379D02*
X12939901Y-11401331D01*
X12939901Y-11401331D02*
X12949424Y-11391808D01*
X12949424Y-11391808D02*
X12968472Y-11382284D01*
X13120853Y-11563236D02*
X13130377Y-11572760D01*
X13130377Y-11572760D02*
X13120853Y-11582284D01*
X13120853Y-11582284D02*
X13111329Y-11572760D01*
X13111329Y-11572760D02*
X13120853Y-11563236D01*
X13120853Y-11563236D02*
X13120853Y-11582284D01*
X13197043Y-11382284D02*
X13320853Y-11382284D01*
X13320853Y-11382284D02*
X13254186Y-11458474D01*
X13254186Y-11458474D02*
X13282758Y-11458474D01*
X13282758Y-11458474D02*
X13301805Y-11467998D01*
X13301805Y-11467998D02*
X13311329Y-11477522D01*
X13311329Y-11477522D02*
X13320853Y-11496569D01*
X13320853Y-11496569D02*
X13320853Y-11544188D01*
X13320853Y-11544188D02*
X13311329Y-11563236D01*
X13311329Y-11563236D02*
X13301805Y-11572760D01*
X13301805Y-11572760D02*
X13282758Y-11582284D01*
X13282758Y-11582284D02*
X13225615Y-11582284D01*
X13225615Y-11582284D02*
X13206567Y-11572760D01*
X13206567Y-11572760D02*
X13197043Y-11563236D01*
X13444662Y-11382284D02*
X13463710Y-11382284D01*
X13463710Y-11382284D02*
X13482758Y-11391808D01*
X13482758Y-11391808D02*
X13492282Y-11401331D01*
X13492282Y-11401331D02*
X13501805Y-11420379D01*
X13501805Y-11420379D02*
X13511329Y-11458474D01*
X13511329Y-11458474D02*
X13511329Y-11506093D01*
X13511329Y-11506093D02*
X13501805Y-11544188D01*
X13501805Y-11544188D02*
X13492282Y-11563236D01*
X13492282Y-11563236D02*
X13482758Y-11572760D01*
X13482758Y-11572760D02*
X13463710Y-11582284D01*
X13463710Y-11582284D02*
X13444662Y-11582284D01*
X13444662Y-11582284D02*
X13425615Y-11572760D01*
X13425615Y-11572760D02*
X13416091Y-11563236D01*
X13416091Y-11563236D02*
X13406567Y-11544188D01*
X13406567Y-11544188D02*
X13397043Y-11506093D01*
X13397043Y-11506093D02*
X13397043Y-11458474D01*
X13397043Y-11458474D02*
X13406567Y-11420379D01*
X13406567Y-11420379D02*
X13416091Y-11401331D01*
X13416091Y-11401331D02*
X13425615Y-11391808D01*
X13425615Y-11391808D02*
X13444662Y-11382284D01*
X13635139Y-11382284D02*
X13654186Y-11382284D01*
X13654186Y-11382284D02*
X13673234Y-11391808D01*
X13673234Y-11391808D02*
X13682758Y-11401331D01*
X13682758Y-11401331D02*
X13692282Y-11420379D01*
X13692282Y-11420379D02*
X13701805Y-11458474D01*
X13701805Y-11458474D02*
X13701805Y-11506093D01*
X13701805Y-11506093D02*
X13692282Y-11544188D01*
X13692282Y-11544188D02*
X13682758Y-11563236D01*
X13682758Y-11563236D02*
X13673234Y-11572760D01*
X13673234Y-11572760D02*
X13654186Y-11582284D01*
X13654186Y-11582284D02*
X13635139Y-11582284D01*
X13635139Y-11582284D02*
X13616091Y-11572760D01*
X13616091Y-11572760D02*
X13606567Y-11563236D01*
X13606567Y-11563236D02*
X13597043Y-11544188D01*
X13597043Y-11544188D02*
X13587520Y-11506093D01*
X13587520Y-11506093D02*
X13587520Y-11458474D01*
X13587520Y-11458474D02*
X13597043Y-11420379D01*
X13597043Y-11420379D02*
X13606567Y-11401331D01*
X13606567Y-11401331D02*
X13616091Y-11391808D01*
X13616091Y-11391808D02*
X13635139Y-11382284D01*
X13787520Y-11582284D02*
X13787520Y-11448950D01*
X13787520Y-11467998D02*
X13797043Y-11458474D01*
X13797043Y-11458474D02*
X13816091Y-11448950D01*
X13816091Y-11448950D02*
X13844663Y-11448950D01*
X13844663Y-11448950D02*
X13863710Y-11458474D01*
X13863710Y-11458474D02*
X13873234Y-11477522D01*
X13873234Y-11477522D02*
X13873234Y-11582284D01*
X13873234Y-11477522D02*
X13882758Y-11458474D01*
X13882758Y-11458474D02*
X13901805Y-11448950D01*
X13901805Y-11448950D02*
X13930377Y-11448950D01*
X13930377Y-11448950D02*
X13949424Y-11458474D01*
X13949424Y-11458474D02*
X13958948Y-11477522D01*
X13958948Y-11477522D02*
X13958948Y-11582284D01*
X14054186Y-11582284D02*
X14054186Y-11448950D01*
X14054186Y-11467998D02*
X14063710Y-11458474D01*
X14063710Y-11458474D02*
X14082758Y-11448950D01*
X14082758Y-11448950D02*
X14111329Y-11448950D01*
X14111329Y-11448950D02*
X14130377Y-11458474D01*
X14130377Y-11458474D02*
X14139901Y-11477522D01*
X14139901Y-11477522D02*
X14139901Y-11582284D01*
X14139901Y-11477522D02*
X14149424Y-11458474D01*
X14149424Y-11458474D02*
X14168472Y-11448950D01*
X14168472Y-11448950D02*
X14197043Y-11448950D01*
X14197043Y-11448950D02*
X14216091Y-11458474D01*
X14216091Y-11458474D02*
X14225615Y-11477522D01*
X14225615Y-11477522D02*
X14225615Y-11582284D01*
X14616091Y-11372760D02*
X14444663Y-11629903D01*
X14873234Y-11382284D02*
X14892282Y-11382284D01*
X14892282Y-11382284D02*
X14911329Y-11391808D01*
X14911329Y-11391808D02*
X14920853Y-11401331D01*
X14920853Y-11401331D02*
X14930377Y-11420379D01*
X14930377Y-11420379D02*
X14939901Y-11458474D01*
X14939901Y-11458474D02*
X14939901Y-11506093D01*
X14939901Y-11506093D02*
X14930377Y-11544188D01*
X14930377Y-11544188D02*
X14920853Y-11563236D01*
X14920853Y-11563236D02*
X14911329Y-11572760D01*
X14911329Y-11572760D02*
X14892282Y-11582284D01*
X14892282Y-11582284D02*
X14873234Y-11582284D01*
X14873234Y-11582284D02*
X14854186Y-11572760D01*
X14854186Y-11572760D02*
X14844663Y-11563236D01*
X14844663Y-11563236D02*
X14835139Y-11544188D01*
X14835139Y-11544188D02*
X14825615Y-11506093D01*
X14825615Y-11506093D02*
X14825615Y-11458474D01*
X14825615Y-11458474D02*
X14835139Y-11420379D01*
X14835139Y-11420379D02*
X14844663Y-11401331D01*
X14844663Y-11401331D02*
X14854186Y-11391808D01*
X14854186Y-11391808D02*
X14873234Y-11382284D01*
X15025615Y-11563236D02*
X15035139Y-11572760D01*
X15035139Y-11572760D02*
X15025615Y-11582284D01*
X15025615Y-11582284D02*
X15016091Y-11572760D01*
X15016091Y-11572760D02*
X15025615Y-11563236D01*
X15025615Y-11563236D02*
X15025615Y-11582284D01*
X15158948Y-11382284D02*
X15177996Y-11382284D01*
X15177996Y-11382284D02*
X15197044Y-11391808D01*
X15197044Y-11391808D02*
X15206567Y-11401331D01*
X15206567Y-11401331D02*
X15216091Y-11420379D01*
X15216091Y-11420379D02*
X15225615Y-11458474D01*
X15225615Y-11458474D02*
X15225615Y-11506093D01*
X15225615Y-11506093D02*
X15216091Y-11544188D01*
X15216091Y-11544188D02*
X15206567Y-11563236D01*
X15206567Y-11563236D02*
X15197044Y-11572760D01*
X15197044Y-11572760D02*
X15177996Y-11582284D01*
X15177996Y-11582284D02*
X15158948Y-11582284D01*
X15158948Y-11582284D02*
X15139901Y-11572760D01*
X15139901Y-11572760D02*
X15130377Y-11563236D01*
X15130377Y-11563236D02*
X15120853Y-11544188D01*
X15120853Y-11544188D02*
X15111329Y-11506093D01*
X15111329Y-11506093D02*
X15111329Y-11458474D01*
X15111329Y-11458474D02*
X15120853Y-11420379D01*
X15120853Y-11420379D02*
X15130377Y-11401331D01*
X15130377Y-11401331D02*
X15139901Y-11391808D01*
X15139901Y-11391808D02*
X15158948Y-11382284D01*
X15416091Y-11582284D02*
X15301806Y-11582284D01*
X15358948Y-11582284D02*
X15358948Y-11382284D01*
X15358948Y-11382284D02*
X15339901Y-11410855D01*
X15339901Y-11410855D02*
X15320853Y-11429903D01*
X15320853Y-11429903D02*
X15301806Y-11439427D01*
X15606567Y-11582284D02*
X15492282Y-11582284D01*
X15549425Y-11582284D02*
X15549425Y-11382284D01*
X15549425Y-11382284D02*
X15530377Y-11410855D01*
X15530377Y-11410855D02*
X15511329Y-11429903D01*
X15511329Y-11429903D02*
X15492282Y-11439427D01*
X15720853Y-11467998D02*
X15701806Y-11458474D01*
X15701806Y-11458474D02*
X15692282Y-11448950D01*
X15692282Y-11448950D02*
X15682758Y-11429903D01*
X15682758Y-11429903D02*
X15682758Y-11420379D01*
X15682758Y-11420379D02*
X15692282Y-11401331D01*
X15692282Y-11401331D02*
X15701806Y-11391808D01*
X15701806Y-11391808D02*
X15720853Y-11382284D01*
X15720853Y-11382284D02*
X15758948Y-11382284D01*
X15758948Y-11382284D02*
X15777996Y-11391808D01*
X15777996Y-11391808D02*
X15787520Y-11401331D01*
X15787520Y-11401331D02*
X15797044Y-11420379D01*
X15797044Y-11420379D02*
X15797044Y-11429903D01*
X15797044Y-11429903D02*
X15787520Y-11448950D01*
X15787520Y-11448950D02*
X15777996Y-11458474D01*
X15777996Y-11458474D02*
X15758948Y-11467998D01*
X15758948Y-11467998D02*
X15720853Y-11467998D01*
X15720853Y-11467998D02*
X15701806Y-11477522D01*
X15701806Y-11477522D02*
X15692282Y-11487046D01*
X15692282Y-11487046D02*
X15682758Y-11506093D01*
X15682758Y-11506093D02*
X15682758Y-11544188D01*
X15682758Y-11544188D02*
X15692282Y-11563236D01*
X15692282Y-11563236D02*
X15701806Y-11572760D01*
X15701806Y-11572760D02*
X15720853Y-11582284D01*
X15720853Y-11582284D02*
X15758948Y-11582284D01*
X15758948Y-11582284D02*
X15777996Y-11572760D01*
X15777996Y-11572760D02*
X15787520Y-11563236D01*
X15787520Y-11563236D02*
X15797044Y-11544188D01*
X15797044Y-11544188D02*
X15797044Y-11506093D01*
X15797044Y-11506093D02*
X15787520Y-11487046D01*
X15787520Y-11487046D02*
X15777996Y-11477522D01*
X15777996Y-11477522D02*
X15758948Y-11467998D01*
X15873234Y-11382284D02*
X15873234Y-11420379D01*
X15949425Y-11382284D02*
X15949425Y-11420379D01*
X16244663Y-11658474D02*
X16235139Y-11648950D01*
X16235139Y-11648950D02*
X16216091Y-11620379D01*
X16216091Y-11620379D02*
X16206568Y-11601331D01*
X16206568Y-11601331D02*
X16197044Y-11572760D01*
X16197044Y-11572760D02*
X16187520Y-11525141D01*
X16187520Y-11525141D02*
X16187520Y-11487046D01*
X16187520Y-11487046D02*
X16197044Y-11439427D01*
X16197044Y-11439427D02*
X16206568Y-11410855D01*
X16206568Y-11410855D02*
X16216091Y-11391808D01*
X16216091Y-11391808D02*
X16235139Y-11363236D01*
X16235139Y-11363236D02*
X16244663Y-11353712D01*
X16425615Y-11582284D02*
X16311329Y-11582284D01*
X16368472Y-11582284D02*
X16368472Y-11382284D01*
X16368472Y-11382284D02*
X16349425Y-11410855D01*
X16349425Y-11410855D02*
X16330377Y-11429903D01*
X16330377Y-11429903D02*
X16311329Y-11439427D01*
X16539901Y-11467998D02*
X16520853Y-11458474D01*
X16520853Y-11458474D02*
X16511329Y-11448950D01*
X16511329Y-11448950D02*
X16501806Y-11429903D01*
X16501806Y-11429903D02*
X16501806Y-11420379D01*
X16501806Y-11420379D02*
X16511329Y-11401331D01*
X16511329Y-11401331D02*
X16520853Y-11391808D01*
X16520853Y-11391808D02*
X16539901Y-11382284D01*
X16539901Y-11382284D02*
X16577996Y-11382284D01*
X16577996Y-11382284D02*
X16597044Y-11391808D01*
X16597044Y-11391808D02*
X16606568Y-11401331D01*
X16606568Y-11401331D02*
X16616091Y-11420379D01*
X16616091Y-11420379D02*
X16616091Y-11429903D01*
X16616091Y-11429903D02*
X16606568Y-11448950D01*
X16606568Y-11448950D02*
X16597044Y-11458474D01*
X16597044Y-11458474D02*
X16577996Y-11467998D01*
X16577996Y-11467998D02*
X16539901Y-11467998D01*
X16539901Y-11467998D02*
X16520853Y-11477522D01*
X16520853Y-11477522D02*
X16511329Y-11487046D01*
X16511329Y-11487046D02*
X16501806Y-11506093D01*
X16501806Y-11506093D02*
X16501806Y-11544188D01*
X16501806Y-11544188D02*
X16511329Y-11563236D01*
X16511329Y-11563236D02*
X16520853Y-11572760D01*
X16520853Y-11572760D02*
X16539901Y-11582284D01*
X16539901Y-11582284D02*
X16577996Y-11582284D01*
X16577996Y-11582284D02*
X16597044Y-11572760D01*
X16597044Y-11572760D02*
X16606568Y-11563236D01*
X16606568Y-11563236D02*
X16616091Y-11544188D01*
X16616091Y-11544188D02*
X16616091Y-11506093D01*
X16616091Y-11506093D02*
X16606568Y-11487046D01*
X16606568Y-11487046D02*
X16597044Y-11477522D01*
X16597044Y-11477522D02*
X16577996Y-11467998D01*
X16854187Y-11582284D02*
X16854187Y-11382284D01*
X16939901Y-11582284D02*
X16939901Y-11477522D01*
X16939901Y-11477522D02*
X16930377Y-11458474D01*
X16930377Y-11458474D02*
X16911330Y-11448950D01*
X16911330Y-11448950D02*
X16882758Y-11448950D01*
X16882758Y-11448950D02*
X16863711Y-11458474D01*
X16863711Y-11458474D02*
X16854187Y-11467998D01*
X17063711Y-11582284D02*
X17044663Y-11572760D01*
X17044663Y-11572760D02*
X17035139Y-11563236D01*
X17035139Y-11563236D02*
X17025615Y-11544188D01*
X17025615Y-11544188D02*
X17025615Y-11487046D01*
X17025615Y-11487046D02*
X17035139Y-11467998D01*
X17035139Y-11467998D02*
X17044663Y-11458474D01*
X17044663Y-11458474D02*
X17063711Y-11448950D01*
X17063711Y-11448950D02*
X17092282Y-11448950D01*
X17092282Y-11448950D02*
X17111330Y-11458474D01*
X17111330Y-11458474D02*
X17120853Y-11467998D01*
X17120853Y-11467998D02*
X17130377Y-11487046D01*
X17130377Y-11487046D02*
X17130377Y-11544188D01*
X17130377Y-11544188D02*
X17120853Y-11563236D01*
X17120853Y-11563236D02*
X17111330Y-11572760D01*
X17111330Y-11572760D02*
X17092282Y-11582284D01*
X17092282Y-11582284D02*
X17063711Y-11582284D01*
X17244663Y-11582284D02*
X17225615Y-11572760D01*
X17225615Y-11572760D02*
X17216092Y-11553712D01*
X17216092Y-11553712D02*
X17216092Y-11382284D01*
X17397044Y-11572760D02*
X17377996Y-11582284D01*
X17377996Y-11582284D02*
X17339901Y-11582284D01*
X17339901Y-11582284D02*
X17320853Y-11572760D01*
X17320853Y-11572760D02*
X17311330Y-11553712D01*
X17311330Y-11553712D02*
X17311330Y-11477522D01*
X17311330Y-11477522D02*
X17320853Y-11458474D01*
X17320853Y-11458474D02*
X17339901Y-11448950D01*
X17339901Y-11448950D02*
X17377996Y-11448950D01*
X17377996Y-11448950D02*
X17397044Y-11458474D01*
X17397044Y-11458474D02*
X17406568Y-11477522D01*
X17406568Y-11477522D02*
X17406568Y-11496569D01*
X17406568Y-11496569D02*
X17311330Y-11515617D01*
X17482758Y-11572760D02*
X17501806Y-11582284D01*
X17501806Y-11582284D02*
X17539901Y-11582284D01*
X17539901Y-11582284D02*
X17558949Y-11572760D01*
X17558949Y-11572760D02*
X17568473Y-11553712D01*
X17568473Y-11553712D02*
X17568473Y-11544188D01*
X17568473Y-11544188D02*
X17558949Y-11525141D01*
X17558949Y-11525141D02*
X17539901Y-11515617D01*
X17539901Y-11515617D02*
X17511330Y-11515617D01*
X17511330Y-11515617D02*
X17492282Y-11506093D01*
X17492282Y-11506093D02*
X17482758Y-11487046D01*
X17482758Y-11487046D02*
X17482758Y-11477522D01*
X17482758Y-11477522D02*
X17492282Y-11458474D01*
X17492282Y-11458474D02*
X17511330Y-11448950D01*
X17511330Y-11448950D02*
X17539901Y-11448950D01*
X17539901Y-11448950D02*
X17558949Y-11458474D01*
X17635139Y-11658474D02*
X17644663Y-11648950D01*
X17644663Y-11648950D02*
X17663711Y-11620379D01*
X17663711Y-11620379D02*
X17673234Y-11601331D01*
X17673234Y-11601331D02*
X17682758Y-11572760D01*
X17682758Y-11572760D02*
X17692282Y-11525141D01*
X17692282Y-11525141D02*
X17692282Y-11487046D01*
X17692282Y-11487046D02*
X17682758Y-11439427D01*
X17682758Y-11439427D02*
X17673234Y-11410855D01*
X17673234Y-11410855D02*
X17663711Y-11391808D01*
X17663711Y-11391808D02*
X17644663Y-11363236D01*
X17644663Y-11363236D02*
X17635139Y-11353712D01*
D10*
X12669600Y-11754800D02*
G75*
G03*
X12629600Y-11754800I-20000J0D01*
G01*
X12629600Y-11754800D02*
G75*
G03*
X12669600Y-11754800I20000J0D01*
G01*
D11*
X12968472Y-11646284D02*
X12987520Y-11646284D01*
X12987520Y-11646284D02*
X13006567Y-11655808D01*
X13006567Y-11655808D02*
X13016091Y-11665331D01*
X13016091Y-11665331D02*
X13025615Y-11684379D01*
X13025615Y-11684379D02*
X13035139Y-11722474D01*
X13035139Y-11722474D02*
X13035139Y-11770093D01*
X13035139Y-11770093D02*
X13025615Y-11808188D01*
X13025615Y-11808188D02*
X13016091Y-11827236D01*
X13016091Y-11827236D02*
X13006567Y-11836760D01*
X13006567Y-11836760D02*
X12987520Y-11846284D01*
X12987520Y-11846284D02*
X12968472Y-11846284D01*
X12968472Y-11846284D02*
X12949424Y-11836760D01*
X12949424Y-11836760D02*
X12939901Y-11827236D01*
X12939901Y-11827236D02*
X12930377Y-11808188D01*
X12930377Y-11808188D02*
X12920853Y-11770093D01*
X12920853Y-11770093D02*
X12920853Y-11722474D01*
X12920853Y-11722474D02*
X12930377Y-11684379D01*
X12930377Y-11684379D02*
X12939901Y-11665331D01*
X12939901Y-11665331D02*
X12949424Y-11655808D01*
X12949424Y-11655808D02*
X12968472Y-11646284D01*
X13120853Y-11827236D02*
X13130377Y-11836760D01*
X13130377Y-11836760D02*
X13120853Y-11846284D01*
X13120853Y-11846284D02*
X13111329Y-11836760D01*
X13111329Y-11836760D02*
X13120853Y-11827236D01*
X13120853Y-11827236D02*
X13120853Y-11846284D01*
X13301805Y-11712950D02*
X13301805Y-11846284D01*
X13254186Y-11636760D02*
X13206567Y-11779617D01*
X13206567Y-11779617D02*
X13330377Y-11779617D01*
X13444662Y-11646284D02*
X13463710Y-11646284D01*
X13463710Y-11646284D02*
X13482758Y-11655808D01*
X13482758Y-11655808D02*
X13492282Y-11665331D01*
X13492282Y-11665331D02*
X13501805Y-11684379D01*
X13501805Y-11684379D02*
X13511329Y-11722474D01*
X13511329Y-11722474D02*
X13511329Y-11770093D01*
X13511329Y-11770093D02*
X13501805Y-11808188D01*
X13501805Y-11808188D02*
X13492282Y-11827236D01*
X13492282Y-11827236D02*
X13482758Y-11836760D01*
X13482758Y-11836760D02*
X13463710Y-11846284D01*
X13463710Y-11846284D02*
X13444662Y-11846284D01*
X13444662Y-11846284D02*
X13425615Y-11836760D01*
X13425615Y-11836760D02*
X13416091Y-11827236D01*
X13416091Y-11827236D02*
X13406567Y-11808188D01*
X13406567Y-11808188D02*
X13397043Y-11770093D01*
X13397043Y-11770093D02*
X13397043Y-11722474D01*
X13397043Y-11722474D02*
X13406567Y-11684379D01*
X13406567Y-11684379D02*
X13416091Y-11665331D01*
X13416091Y-11665331D02*
X13425615Y-11655808D01*
X13425615Y-11655808D02*
X13444662Y-11646284D01*
X13635139Y-11646284D02*
X13654186Y-11646284D01*
X13654186Y-11646284D02*
X13673234Y-11655808D01*
X13673234Y-11655808D02*
X13682758Y-11665331D01*
X13682758Y-11665331D02*
X13692282Y-11684379D01*
X13692282Y-11684379D02*
X13701805Y-11722474D01*
X13701805Y-11722474D02*
X13701805Y-11770093D01*
X13701805Y-11770093D02*
X13692282Y-11808188D01*
X13692282Y-11808188D02*
X13682758Y-11827236D01*
X13682758Y-11827236D02*
X13673234Y-11836760D01*
X13673234Y-11836760D02*
X13654186Y-11846284D01*
X13654186Y-11846284D02*
X13635139Y-11846284D01*
X13635139Y-11846284D02*
X13616091Y-11836760D01*
X13616091Y-11836760D02*
X13606567Y-11827236D01*
X13606567Y-11827236D02*
X13597043Y-11808188D01*
X13597043Y-11808188D02*
X13587520Y-11770093D01*
X13587520Y-11770093D02*
X13587520Y-11722474D01*
X13587520Y-11722474D02*
X13597043Y-11684379D01*
X13597043Y-11684379D02*
X13606567Y-11665331D01*
X13606567Y-11665331D02*
X13616091Y-11655808D01*
X13616091Y-11655808D02*
X13635139Y-11646284D01*
X13787520Y-11846284D02*
X13787520Y-11712950D01*
X13787520Y-11731998D02*
X13797043Y-11722474D01*
X13797043Y-11722474D02*
X13816091Y-11712950D01*
X13816091Y-11712950D02*
X13844663Y-11712950D01*
X13844663Y-11712950D02*
X13863710Y-11722474D01*
X13863710Y-11722474D02*
X13873234Y-11741522D01*
X13873234Y-11741522D02*
X13873234Y-11846284D01*
X13873234Y-11741522D02*
X13882758Y-11722474D01*
X13882758Y-11722474D02*
X13901805Y-11712950D01*
X13901805Y-11712950D02*
X13930377Y-11712950D01*
X13930377Y-11712950D02*
X13949424Y-11722474D01*
X13949424Y-11722474D02*
X13958948Y-11741522D01*
X13958948Y-11741522D02*
X13958948Y-11846284D01*
X14054186Y-11846284D02*
X14054186Y-11712950D01*
X14054186Y-11731998D02*
X14063710Y-11722474D01*
X14063710Y-11722474D02*
X14082758Y-11712950D01*
X14082758Y-11712950D02*
X14111329Y-11712950D01*
X14111329Y-11712950D02*
X14130377Y-11722474D01*
X14130377Y-11722474D02*
X14139901Y-11741522D01*
X14139901Y-11741522D02*
X14139901Y-11846284D01*
X14139901Y-11741522D02*
X14149424Y-11722474D01*
X14149424Y-11722474D02*
X14168472Y-11712950D01*
X14168472Y-11712950D02*
X14197043Y-11712950D01*
X14197043Y-11712950D02*
X14216091Y-11722474D01*
X14216091Y-11722474D02*
X14225615Y-11741522D01*
X14225615Y-11741522D02*
X14225615Y-11846284D01*
X14616091Y-11636760D02*
X14444663Y-11893903D01*
X14873234Y-11646284D02*
X14892282Y-11646284D01*
X14892282Y-11646284D02*
X14911329Y-11655808D01*
X14911329Y-11655808D02*
X14920853Y-11665331D01*
X14920853Y-11665331D02*
X14930377Y-11684379D01*
X14930377Y-11684379D02*
X14939901Y-11722474D01*
X14939901Y-11722474D02*
X14939901Y-11770093D01*
X14939901Y-11770093D02*
X14930377Y-11808188D01*
X14930377Y-11808188D02*
X14920853Y-11827236D01*
X14920853Y-11827236D02*
X14911329Y-11836760D01*
X14911329Y-11836760D02*
X14892282Y-11846284D01*
X14892282Y-11846284D02*
X14873234Y-11846284D01*
X14873234Y-11846284D02*
X14854186Y-11836760D01*
X14854186Y-11836760D02*
X14844663Y-11827236D01*
X14844663Y-11827236D02*
X14835139Y-11808188D01*
X14835139Y-11808188D02*
X14825615Y-11770093D01*
X14825615Y-11770093D02*
X14825615Y-11722474D01*
X14825615Y-11722474D02*
X14835139Y-11684379D01*
X14835139Y-11684379D02*
X14844663Y-11665331D01*
X14844663Y-11665331D02*
X14854186Y-11655808D01*
X14854186Y-11655808D02*
X14873234Y-11646284D01*
X15025615Y-11827236D02*
X15035139Y-11836760D01*
X15035139Y-11836760D02*
X15025615Y-11846284D01*
X15025615Y-11846284D02*
X15016091Y-11836760D01*
X15016091Y-11836760D02*
X15025615Y-11827236D01*
X15025615Y-11827236D02*
X15025615Y-11846284D01*
X15158948Y-11646284D02*
X15177996Y-11646284D01*
X15177996Y-11646284D02*
X15197044Y-11655808D01*
X15197044Y-11655808D02*
X15206567Y-11665331D01*
X15206567Y-11665331D02*
X15216091Y-11684379D01*
X15216091Y-11684379D02*
X15225615Y-11722474D01*
X15225615Y-11722474D02*
X15225615Y-11770093D01*
X15225615Y-11770093D02*
X15216091Y-11808188D01*
X15216091Y-11808188D02*
X15206567Y-11827236D01*
X15206567Y-11827236D02*
X15197044Y-11836760D01*
X15197044Y-11836760D02*
X15177996Y-11846284D01*
X15177996Y-11846284D02*
X15158948Y-11846284D01*
X15158948Y-11846284D02*
X15139901Y-11836760D01*
X15139901Y-11836760D02*
X15130377Y-11827236D01*
X15130377Y-11827236D02*
X15120853Y-11808188D01*
X15120853Y-11808188D02*
X15111329Y-11770093D01*
X15111329Y-11770093D02*
X15111329Y-11722474D01*
X15111329Y-11722474D02*
X15120853Y-11684379D01*
X15120853Y-11684379D02*
X15130377Y-11665331D01*
X15130377Y-11665331D02*
X15139901Y-11655808D01*
X15139901Y-11655808D02*
X15158948Y-11646284D01*
X15416091Y-11846284D02*
X15301806Y-11846284D01*
X15358948Y-11846284D02*
X15358948Y-11646284D01*
X15358948Y-11646284D02*
X15339901Y-11674855D01*
X15339901Y-11674855D02*
X15320853Y-11693903D01*
X15320853Y-11693903D02*
X15301806Y-11703427D01*
X15597044Y-11646284D02*
X15501806Y-11646284D01*
X15501806Y-11646284D02*
X15492282Y-11741522D01*
X15492282Y-11741522D02*
X15501806Y-11731998D01*
X15501806Y-11731998D02*
X15520853Y-11722474D01*
X15520853Y-11722474D02*
X15568472Y-11722474D01*
X15568472Y-11722474D02*
X15587520Y-11731998D01*
X15587520Y-11731998D02*
X15597044Y-11741522D01*
X15597044Y-11741522D02*
X15606567Y-11760569D01*
X15606567Y-11760569D02*
X15606567Y-11808188D01*
X15606567Y-11808188D02*
X15597044Y-11827236D01*
X15597044Y-11827236D02*
X15587520Y-11836760D01*
X15587520Y-11836760D02*
X15568472Y-11846284D01*
X15568472Y-11846284D02*
X15520853Y-11846284D01*
X15520853Y-11846284D02*
X15501806Y-11836760D01*
X15501806Y-11836760D02*
X15492282Y-11827236D01*
X15673234Y-11646284D02*
X15806567Y-11646284D01*
X15806567Y-11646284D02*
X15720853Y-11846284D01*
X15873234Y-11646284D02*
X15873234Y-11684379D01*
X15949425Y-11646284D02*
X15949425Y-11684379D01*
X16244663Y-11922474D02*
X16235139Y-11912950D01*
X16235139Y-11912950D02*
X16216091Y-11884379D01*
X16216091Y-11884379D02*
X16206568Y-11865331D01*
X16206568Y-11865331D02*
X16197044Y-11836760D01*
X16197044Y-11836760D02*
X16187520Y-11789141D01*
X16187520Y-11789141D02*
X16187520Y-11751046D01*
X16187520Y-11751046D02*
X16197044Y-11703427D01*
X16197044Y-11703427D02*
X16206568Y-11674855D01*
X16206568Y-11674855D02*
X16216091Y-11655808D01*
X16216091Y-11655808D02*
X16235139Y-11627236D01*
X16235139Y-11627236D02*
X16244663Y-11617712D01*
X16425615Y-11846284D02*
X16311329Y-11846284D01*
X16368472Y-11846284D02*
X16368472Y-11646284D01*
X16368472Y-11646284D02*
X16349425Y-11674855D01*
X16349425Y-11674855D02*
X16330377Y-11693903D01*
X16330377Y-11693903D02*
X16311329Y-11703427D01*
X16549425Y-11646284D02*
X16568472Y-11646284D01*
X16568472Y-11646284D02*
X16587520Y-11655808D01*
X16587520Y-11655808D02*
X16597044Y-11665331D01*
X16597044Y-11665331D02*
X16606568Y-11684379D01*
X16606568Y-11684379D02*
X16616091Y-11722474D01*
X16616091Y-11722474D02*
X16616091Y-11770093D01*
X16616091Y-11770093D02*
X16606568Y-11808188D01*
X16606568Y-11808188D02*
X16597044Y-11827236D01*
X16597044Y-11827236D02*
X16587520Y-11836760D01*
X16587520Y-11836760D02*
X16568472Y-11846284D01*
X16568472Y-11846284D02*
X16549425Y-11846284D01*
X16549425Y-11846284D02*
X16530377Y-11836760D01*
X16530377Y-11836760D02*
X16520853Y-11827236D01*
X16520853Y-11827236D02*
X16511329Y-11808188D01*
X16511329Y-11808188D02*
X16501806Y-11770093D01*
X16501806Y-11770093D02*
X16501806Y-11722474D01*
X16501806Y-11722474D02*
X16511329Y-11684379D01*
X16511329Y-11684379D02*
X16520853Y-11665331D01*
X16520853Y-11665331D02*
X16530377Y-11655808D01*
X16530377Y-11655808D02*
X16549425Y-11646284D01*
X16854187Y-11846284D02*
X16854187Y-11646284D01*
X16939901Y-11846284D02*
X16939901Y-11741522D01*
X16939901Y-11741522D02*
X16930377Y-11722474D01*
X16930377Y-11722474D02*
X16911330Y-11712950D01*
X16911330Y-11712950D02*
X16882758Y-11712950D01*
X16882758Y-11712950D02*
X16863711Y-11722474D01*
X16863711Y-11722474D02*
X16854187Y-11731998D01*
X17063711Y-11846284D02*
X17044663Y-11836760D01*
X17044663Y-11836760D02*
X17035139Y-11827236D01*
X17035139Y-11827236D02*
X17025615Y-11808188D01*
X17025615Y-11808188D02*
X17025615Y-11751046D01*
X17025615Y-11751046D02*
X17035139Y-11731998D01*
X17035139Y-11731998D02*
X17044663Y-11722474D01*
X17044663Y-11722474D02*
X17063711Y-11712950D01*
X17063711Y-11712950D02*
X17092282Y-11712950D01*
X17092282Y-11712950D02*
X17111330Y-11722474D01*
X17111330Y-11722474D02*
X17120853Y-11731998D01*
X17120853Y-11731998D02*
X17130377Y-11751046D01*
X17130377Y-11751046D02*
X17130377Y-11808188D01*
X17130377Y-11808188D02*
X17120853Y-11827236D01*
X17120853Y-11827236D02*
X17111330Y-11836760D01*
X17111330Y-11836760D02*
X17092282Y-11846284D01*
X17092282Y-11846284D02*
X17063711Y-11846284D01*
X17244663Y-11846284D02*
X17225615Y-11836760D01*
X17225615Y-11836760D02*
X17216092Y-11817712D01*
X17216092Y-11817712D02*
X17216092Y-11646284D01*
X17397044Y-11836760D02*
X17377996Y-11846284D01*
X17377996Y-11846284D02*
X17339901Y-11846284D01*
X17339901Y-11846284D02*
X17320853Y-11836760D01*
X17320853Y-11836760D02*
X17311330Y-11817712D01*
X17311330Y-11817712D02*
X17311330Y-11741522D01*
X17311330Y-11741522D02*
X17320853Y-11722474D01*
X17320853Y-11722474D02*
X17339901Y-11712950D01*
X17339901Y-11712950D02*
X17377996Y-11712950D01*
X17377996Y-11712950D02*
X17397044Y-11722474D01*
X17397044Y-11722474D02*
X17406568Y-11741522D01*
X17406568Y-11741522D02*
X17406568Y-11760569D01*
X17406568Y-11760569D02*
X17311330Y-11779617D01*
X17482758Y-11836760D02*
X17501806Y-11846284D01*
X17501806Y-11846284D02*
X17539901Y-11846284D01*
X17539901Y-11846284D02*
X17558949Y-11836760D01*
X17558949Y-11836760D02*
X17568473Y-11817712D01*
X17568473Y-11817712D02*
X17568473Y-11808188D01*
X17568473Y-11808188D02*
X17558949Y-11789141D01*
X17558949Y-11789141D02*
X17539901Y-11779617D01*
X17539901Y-11779617D02*
X17511330Y-11779617D01*
X17511330Y-11779617D02*
X17492282Y-11770093D01*
X17492282Y-11770093D02*
X17482758Y-11751046D01*
X17482758Y-11751046D02*
X17482758Y-11741522D01*
X17482758Y-11741522D02*
X17492282Y-11722474D01*
X17492282Y-11722474D02*
X17511330Y-11712950D01*
X17511330Y-11712950D02*
X17539901Y-11712950D01*
X17539901Y-11712950D02*
X17558949Y-11722474D01*
X17635139Y-11922474D02*
X17644663Y-11912950D01*
X17644663Y-11912950D02*
X17663711Y-11884379D01*
X17663711Y-11884379D02*
X17673234Y-11865331D01*
X17673234Y-11865331D02*
X17682758Y-11836760D01*
X17682758Y-11836760D02*
X17692282Y-11789141D01*
X17692282Y-11789141D02*
X17692282Y-11751046D01*
X17692282Y-11751046D02*
X17682758Y-11703427D01*
X17682758Y-11703427D02*
X17673234Y-11674855D01*
X17673234Y-11674855D02*
X17663711Y-11655808D01*
X17663711Y-11655808D02*
X17644663Y-11627236D01*
X17644663Y-11627236D02*
X17635139Y-11617712D01*
D10*
X12619600Y-11968800D02*
X12619600Y-12068800D01*
X12569600Y-12018800D02*
X12669600Y-12018800D01*
D11*
X13035139Y-12110284D02*
X12920853Y-12110284D01*
X12977996Y-12110284D02*
X12977996Y-11910284D01*
X12977996Y-11910284D02*
X12958948Y-11938855D01*
X12958948Y-11938855D02*
X12939901Y-11957903D01*
X12939901Y-11957903D02*
X12920853Y-11967427D01*
X13120853Y-12091236D02*
X13130377Y-12100760D01*
X13130377Y-12100760D02*
X13120853Y-12110284D01*
X13120853Y-12110284D02*
X13111329Y-12100760D01*
X13111329Y-12100760D02*
X13120853Y-12091236D01*
X13120853Y-12091236D02*
X13120853Y-12110284D01*
X13254186Y-11910284D02*
X13273234Y-11910284D01*
X13273234Y-11910284D02*
X13292282Y-11919808D01*
X13292282Y-11919808D02*
X13301805Y-11929331D01*
X13301805Y-11929331D02*
X13311329Y-11948379D01*
X13311329Y-11948379D02*
X13320853Y-11986474D01*
X13320853Y-11986474D02*
X13320853Y-12034093D01*
X13320853Y-12034093D02*
X13311329Y-12072188D01*
X13311329Y-12072188D02*
X13301805Y-12091236D01*
X13301805Y-12091236D02*
X13292282Y-12100760D01*
X13292282Y-12100760D02*
X13273234Y-12110284D01*
X13273234Y-12110284D02*
X13254186Y-12110284D01*
X13254186Y-12110284D02*
X13235139Y-12100760D01*
X13235139Y-12100760D02*
X13225615Y-12091236D01*
X13225615Y-12091236D02*
X13216091Y-12072188D01*
X13216091Y-12072188D02*
X13206567Y-12034093D01*
X13206567Y-12034093D02*
X13206567Y-11986474D01*
X13206567Y-11986474D02*
X13216091Y-11948379D01*
X13216091Y-11948379D02*
X13225615Y-11929331D01*
X13225615Y-11929331D02*
X13235139Y-11919808D01*
X13235139Y-11919808D02*
X13254186Y-11910284D01*
X13444662Y-11910284D02*
X13463710Y-11910284D01*
X13463710Y-11910284D02*
X13482758Y-11919808D01*
X13482758Y-11919808D02*
X13492282Y-11929331D01*
X13492282Y-11929331D02*
X13501805Y-11948379D01*
X13501805Y-11948379D02*
X13511329Y-11986474D01*
X13511329Y-11986474D02*
X13511329Y-12034093D01*
X13511329Y-12034093D02*
X13501805Y-12072188D01*
X13501805Y-12072188D02*
X13492282Y-12091236D01*
X13492282Y-12091236D02*
X13482758Y-12100760D01*
X13482758Y-12100760D02*
X13463710Y-12110284D01*
X13463710Y-12110284D02*
X13444662Y-12110284D01*
X13444662Y-12110284D02*
X13425615Y-12100760D01*
X13425615Y-12100760D02*
X13416091Y-12091236D01*
X13416091Y-12091236D02*
X13406567Y-12072188D01*
X13406567Y-12072188D02*
X13397043Y-12034093D01*
X13397043Y-12034093D02*
X13397043Y-11986474D01*
X13397043Y-11986474D02*
X13406567Y-11948379D01*
X13406567Y-11948379D02*
X13416091Y-11929331D01*
X13416091Y-11929331D02*
X13425615Y-11919808D01*
X13425615Y-11919808D02*
X13444662Y-11910284D01*
X13635139Y-11910284D02*
X13654186Y-11910284D01*
X13654186Y-11910284D02*
X13673234Y-11919808D01*
X13673234Y-11919808D02*
X13682758Y-11929331D01*
X13682758Y-11929331D02*
X13692282Y-11948379D01*
X13692282Y-11948379D02*
X13701805Y-11986474D01*
X13701805Y-11986474D02*
X13701805Y-12034093D01*
X13701805Y-12034093D02*
X13692282Y-12072188D01*
X13692282Y-12072188D02*
X13682758Y-12091236D01*
X13682758Y-12091236D02*
X13673234Y-12100760D01*
X13673234Y-12100760D02*
X13654186Y-12110284D01*
X13654186Y-12110284D02*
X13635139Y-12110284D01*
X13635139Y-12110284D02*
X13616091Y-12100760D01*
X13616091Y-12100760D02*
X13606567Y-12091236D01*
X13606567Y-12091236D02*
X13597043Y-12072188D01*
X13597043Y-12072188D02*
X13587520Y-12034093D01*
X13587520Y-12034093D02*
X13587520Y-11986474D01*
X13587520Y-11986474D02*
X13597043Y-11948379D01*
X13597043Y-11948379D02*
X13606567Y-11929331D01*
X13606567Y-11929331D02*
X13616091Y-11919808D01*
X13616091Y-11919808D02*
X13635139Y-11910284D01*
X13787520Y-12110284D02*
X13787520Y-11976950D01*
X13787520Y-11995998D02*
X13797043Y-11986474D01*
X13797043Y-11986474D02*
X13816091Y-11976950D01*
X13816091Y-11976950D02*
X13844663Y-11976950D01*
X13844663Y-11976950D02*
X13863710Y-11986474D01*
X13863710Y-11986474D02*
X13873234Y-12005522D01*
X13873234Y-12005522D02*
X13873234Y-12110284D01*
X13873234Y-12005522D02*
X13882758Y-11986474D01*
X13882758Y-11986474D02*
X13901805Y-11976950D01*
X13901805Y-11976950D02*
X13930377Y-11976950D01*
X13930377Y-11976950D02*
X13949424Y-11986474D01*
X13949424Y-11986474D02*
X13958948Y-12005522D01*
X13958948Y-12005522D02*
X13958948Y-12110284D01*
X14054186Y-12110284D02*
X14054186Y-11976950D01*
X14054186Y-11995998D02*
X14063710Y-11986474D01*
X14063710Y-11986474D02*
X14082758Y-11976950D01*
X14082758Y-11976950D02*
X14111329Y-11976950D01*
X14111329Y-11976950D02*
X14130377Y-11986474D01*
X14130377Y-11986474D02*
X14139901Y-12005522D01*
X14139901Y-12005522D02*
X14139901Y-12110284D01*
X14139901Y-12005522D02*
X14149424Y-11986474D01*
X14149424Y-11986474D02*
X14168472Y-11976950D01*
X14168472Y-11976950D02*
X14197043Y-11976950D01*
X14197043Y-11976950D02*
X14216091Y-11986474D01*
X14216091Y-11986474D02*
X14225615Y-12005522D01*
X14225615Y-12005522D02*
X14225615Y-12110284D01*
X14616091Y-11900760D02*
X14444663Y-12157903D01*
X14873234Y-11910284D02*
X14892282Y-11910284D01*
X14892282Y-11910284D02*
X14911329Y-11919808D01*
X14911329Y-11919808D02*
X14920853Y-11929331D01*
X14920853Y-11929331D02*
X14930377Y-11948379D01*
X14930377Y-11948379D02*
X14939901Y-11986474D01*
X14939901Y-11986474D02*
X14939901Y-12034093D01*
X14939901Y-12034093D02*
X14930377Y-12072188D01*
X14930377Y-12072188D02*
X14920853Y-12091236D01*
X14920853Y-12091236D02*
X14911329Y-12100760D01*
X14911329Y-12100760D02*
X14892282Y-12110284D01*
X14892282Y-12110284D02*
X14873234Y-12110284D01*
X14873234Y-12110284D02*
X14854186Y-12100760D01*
X14854186Y-12100760D02*
X14844663Y-12091236D01*
X14844663Y-12091236D02*
X14835139Y-12072188D01*
X14835139Y-12072188D02*
X14825615Y-12034093D01*
X14825615Y-12034093D02*
X14825615Y-11986474D01*
X14825615Y-11986474D02*
X14835139Y-11948379D01*
X14835139Y-11948379D02*
X14844663Y-11929331D01*
X14844663Y-11929331D02*
X14854186Y-11919808D01*
X14854186Y-11919808D02*
X14873234Y-11910284D01*
X15025615Y-12091236D02*
X15035139Y-12100760D01*
X15035139Y-12100760D02*
X15025615Y-12110284D01*
X15025615Y-12110284D02*
X15016091Y-12100760D01*
X15016091Y-12100760D02*
X15025615Y-12091236D01*
X15025615Y-12091236D02*
X15025615Y-12110284D01*
X15158948Y-11910284D02*
X15177996Y-11910284D01*
X15177996Y-11910284D02*
X15197044Y-11919808D01*
X15197044Y-11919808D02*
X15206567Y-11929331D01*
X15206567Y-11929331D02*
X15216091Y-11948379D01*
X15216091Y-11948379D02*
X15225615Y-11986474D01*
X15225615Y-11986474D02*
X15225615Y-12034093D01*
X15225615Y-12034093D02*
X15216091Y-12072188D01*
X15216091Y-12072188D02*
X15206567Y-12091236D01*
X15206567Y-12091236D02*
X15197044Y-12100760D01*
X15197044Y-12100760D02*
X15177996Y-12110284D01*
X15177996Y-12110284D02*
X15158948Y-12110284D01*
X15158948Y-12110284D02*
X15139901Y-12100760D01*
X15139901Y-12100760D02*
X15130377Y-12091236D01*
X15130377Y-12091236D02*
X15120853Y-12072188D01*
X15120853Y-12072188D02*
X15111329Y-12034093D01*
X15111329Y-12034093D02*
X15111329Y-11986474D01*
X15111329Y-11986474D02*
X15120853Y-11948379D01*
X15120853Y-11948379D02*
X15130377Y-11929331D01*
X15130377Y-11929331D02*
X15139901Y-11919808D01*
X15139901Y-11919808D02*
X15158948Y-11910284D01*
X15292282Y-11910284D02*
X15416091Y-11910284D01*
X15416091Y-11910284D02*
X15349425Y-11986474D01*
X15349425Y-11986474D02*
X15377996Y-11986474D01*
X15377996Y-11986474D02*
X15397044Y-11995998D01*
X15397044Y-11995998D02*
X15406567Y-12005522D01*
X15406567Y-12005522D02*
X15416091Y-12024569D01*
X15416091Y-12024569D02*
X15416091Y-12072188D01*
X15416091Y-12072188D02*
X15406567Y-12091236D01*
X15406567Y-12091236D02*
X15397044Y-12100760D01*
X15397044Y-12100760D02*
X15377996Y-12110284D01*
X15377996Y-12110284D02*
X15320853Y-12110284D01*
X15320853Y-12110284D02*
X15301806Y-12100760D01*
X15301806Y-12100760D02*
X15292282Y-12091236D01*
X15511329Y-12110284D02*
X15549425Y-12110284D01*
X15549425Y-12110284D02*
X15568472Y-12100760D01*
X15568472Y-12100760D02*
X15577996Y-12091236D01*
X15577996Y-12091236D02*
X15597044Y-12062665D01*
X15597044Y-12062665D02*
X15606567Y-12024569D01*
X15606567Y-12024569D02*
X15606567Y-11948379D01*
X15606567Y-11948379D02*
X15597044Y-11929331D01*
X15597044Y-11929331D02*
X15587520Y-11919808D01*
X15587520Y-11919808D02*
X15568472Y-11910284D01*
X15568472Y-11910284D02*
X15530377Y-11910284D01*
X15530377Y-11910284D02*
X15511329Y-11919808D01*
X15511329Y-11919808D02*
X15501806Y-11929331D01*
X15501806Y-11929331D02*
X15492282Y-11948379D01*
X15492282Y-11948379D02*
X15492282Y-11995998D01*
X15492282Y-11995998D02*
X15501806Y-12015046D01*
X15501806Y-12015046D02*
X15511329Y-12024569D01*
X15511329Y-12024569D02*
X15530377Y-12034093D01*
X15530377Y-12034093D02*
X15568472Y-12034093D01*
X15568472Y-12034093D02*
X15587520Y-12024569D01*
X15587520Y-12024569D02*
X15597044Y-12015046D01*
X15597044Y-12015046D02*
X15606567Y-11995998D01*
X15777996Y-11976950D02*
X15777996Y-12110284D01*
X15730377Y-11900760D02*
X15682758Y-12043617D01*
X15682758Y-12043617D02*
X15806567Y-12043617D01*
X15873234Y-11910284D02*
X15873234Y-11948379D01*
X15949425Y-11910284D02*
X15949425Y-11948379D01*
X16244663Y-12186474D02*
X16235139Y-12176950D01*
X16235139Y-12176950D02*
X16216091Y-12148379D01*
X16216091Y-12148379D02*
X16206568Y-12129331D01*
X16206568Y-12129331D02*
X16197044Y-12100760D01*
X16197044Y-12100760D02*
X16187520Y-12053141D01*
X16187520Y-12053141D02*
X16187520Y-12015046D01*
X16187520Y-12015046D02*
X16197044Y-11967427D01*
X16197044Y-11967427D02*
X16206568Y-11938855D01*
X16206568Y-11938855D02*
X16216091Y-11919808D01*
X16216091Y-11919808D02*
X16235139Y-11891236D01*
X16235139Y-11891236D02*
X16244663Y-11881712D01*
X16425615Y-12110284D02*
X16311329Y-12110284D01*
X16368472Y-12110284D02*
X16368472Y-11910284D01*
X16368472Y-11910284D02*
X16349425Y-11938855D01*
X16349425Y-11938855D02*
X16330377Y-11957903D01*
X16330377Y-11957903D02*
X16311329Y-11967427D01*
X16597044Y-11910284D02*
X16558948Y-11910284D01*
X16558948Y-11910284D02*
X16539901Y-11919808D01*
X16539901Y-11919808D02*
X16530377Y-11929331D01*
X16530377Y-11929331D02*
X16511329Y-11957903D01*
X16511329Y-11957903D02*
X16501806Y-11995998D01*
X16501806Y-11995998D02*
X16501806Y-12072188D01*
X16501806Y-12072188D02*
X16511329Y-12091236D01*
X16511329Y-12091236D02*
X16520853Y-12100760D01*
X16520853Y-12100760D02*
X16539901Y-12110284D01*
X16539901Y-12110284D02*
X16577996Y-12110284D01*
X16577996Y-12110284D02*
X16597044Y-12100760D01*
X16597044Y-12100760D02*
X16606568Y-12091236D01*
X16606568Y-12091236D02*
X16616091Y-12072188D01*
X16616091Y-12072188D02*
X16616091Y-12024569D01*
X16616091Y-12024569D02*
X16606568Y-12005522D01*
X16606568Y-12005522D02*
X16597044Y-11995998D01*
X16597044Y-11995998D02*
X16577996Y-11986474D01*
X16577996Y-11986474D02*
X16539901Y-11986474D01*
X16539901Y-11986474D02*
X16520853Y-11995998D01*
X16520853Y-11995998D02*
X16511329Y-12005522D01*
X16511329Y-12005522D02*
X16501806Y-12024569D01*
X16854187Y-12110284D02*
X16854187Y-11910284D01*
X16939901Y-12110284D02*
X16939901Y-12005522D01*
X16939901Y-12005522D02*
X16930377Y-11986474D01*
X16930377Y-11986474D02*
X16911330Y-11976950D01*
X16911330Y-11976950D02*
X16882758Y-11976950D01*
X16882758Y-11976950D02*
X16863711Y-11986474D01*
X16863711Y-11986474D02*
X16854187Y-11995998D01*
X17063711Y-12110284D02*
X17044663Y-12100760D01*
X17044663Y-12100760D02*
X17035139Y-12091236D01*
X17035139Y-12091236D02*
X17025615Y-12072188D01*
X17025615Y-12072188D02*
X17025615Y-12015046D01*
X17025615Y-12015046D02*
X17035139Y-11995998D01*
X17035139Y-11995998D02*
X17044663Y-11986474D01*
X17044663Y-11986474D02*
X17063711Y-11976950D01*
X17063711Y-11976950D02*
X17092282Y-11976950D01*
X17092282Y-11976950D02*
X17111330Y-11986474D01*
X17111330Y-11986474D02*
X17120853Y-11995998D01*
X17120853Y-11995998D02*
X17130377Y-12015046D01*
X17130377Y-12015046D02*
X17130377Y-12072188D01*
X17130377Y-12072188D02*
X17120853Y-12091236D01*
X17120853Y-12091236D02*
X17111330Y-12100760D01*
X17111330Y-12100760D02*
X17092282Y-12110284D01*
X17092282Y-12110284D02*
X17063711Y-12110284D01*
X17244663Y-12110284D02*
X17225615Y-12100760D01*
X17225615Y-12100760D02*
X17216092Y-12081712D01*
X17216092Y-12081712D02*
X17216092Y-11910284D01*
X17397044Y-12100760D02*
X17377996Y-12110284D01*
X17377996Y-12110284D02*
X17339901Y-12110284D01*
X17339901Y-12110284D02*
X17320853Y-12100760D01*
X17320853Y-12100760D02*
X17311330Y-12081712D01*
X17311330Y-12081712D02*
X17311330Y-12005522D01*
X17311330Y-12005522D02*
X17320853Y-11986474D01*
X17320853Y-11986474D02*
X17339901Y-11976950D01*
X17339901Y-11976950D02*
X17377996Y-11976950D01*
X17377996Y-11976950D02*
X17397044Y-11986474D01*
X17397044Y-11986474D02*
X17406568Y-12005522D01*
X17406568Y-12005522D02*
X17406568Y-12024569D01*
X17406568Y-12024569D02*
X17311330Y-12043617D01*
X17482758Y-12100760D02*
X17501806Y-12110284D01*
X17501806Y-12110284D02*
X17539901Y-12110284D01*
X17539901Y-12110284D02*
X17558949Y-12100760D01*
X17558949Y-12100760D02*
X17568473Y-12081712D01*
X17568473Y-12081712D02*
X17568473Y-12072188D01*
X17568473Y-12072188D02*
X17558949Y-12053141D01*
X17558949Y-12053141D02*
X17539901Y-12043617D01*
X17539901Y-12043617D02*
X17511330Y-12043617D01*
X17511330Y-12043617D02*
X17492282Y-12034093D01*
X17492282Y-12034093D02*
X17482758Y-12015046D01*
X17482758Y-12015046D02*
X17482758Y-12005522D01*
X17482758Y-12005522D02*
X17492282Y-11986474D01*
X17492282Y-11986474D02*
X17511330Y-11976950D01*
X17511330Y-11976950D02*
X17539901Y-11976950D01*
X17539901Y-11976950D02*
X17558949Y-11986474D01*
X17635139Y-12186474D02*
X17644663Y-12176950D01*
X17644663Y-12176950D02*
X17663711Y-12148379D01*
X17663711Y-12148379D02*
X17673234Y-12129331D01*
X17673234Y-12129331D02*
X17682758Y-12100760D01*
X17682758Y-12100760D02*
X17692282Y-12053141D01*
X17692282Y-12053141D02*
X17692282Y-12015046D01*
X17692282Y-12015046D02*
X17682758Y-11967427D01*
X17682758Y-11967427D02*
X17673234Y-11938855D01*
X17673234Y-11938855D02*
X17663711Y-11919808D01*
X17663711Y-11919808D02*
X17644663Y-11891236D01*
X17644663Y-11891236D02*
X17635139Y-11881712D01*
D12*
X12650562Y-12328762D02*
X12650562Y-12236838D01*
X12558638Y-12236838D01*
X12558638Y-12328762D01*
X12650562Y-12328762D01*
D11*
X13035139Y-12374284D02*
X12920853Y-12374284D01*
X12977996Y-12374284D02*
X12977996Y-12174284D01*
X12977996Y-12174284D02*
X12958948Y-12202855D01*
X12958948Y-12202855D02*
X12939901Y-12221903D01*
X12939901Y-12221903D02*
X12920853Y-12231427D01*
X13120853Y-12355236D02*
X13130377Y-12364760D01*
X13130377Y-12364760D02*
X13120853Y-12374284D01*
X13120853Y-12374284D02*
X13111329Y-12364760D01*
X13111329Y-12364760D02*
X13120853Y-12355236D01*
X13120853Y-12355236D02*
X13120853Y-12374284D01*
X13197043Y-12174284D02*
X13320853Y-12174284D01*
X13320853Y-12174284D02*
X13254186Y-12250474D01*
X13254186Y-12250474D02*
X13282758Y-12250474D01*
X13282758Y-12250474D02*
X13301805Y-12259998D01*
X13301805Y-12259998D02*
X13311329Y-12269522D01*
X13311329Y-12269522D02*
X13320853Y-12288569D01*
X13320853Y-12288569D02*
X13320853Y-12336188D01*
X13320853Y-12336188D02*
X13311329Y-12355236D01*
X13311329Y-12355236D02*
X13301805Y-12364760D01*
X13301805Y-12364760D02*
X13282758Y-12374284D01*
X13282758Y-12374284D02*
X13225615Y-12374284D01*
X13225615Y-12374284D02*
X13206567Y-12364760D01*
X13206567Y-12364760D02*
X13197043Y-12355236D01*
X13444662Y-12174284D02*
X13463710Y-12174284D01*
X13463710Y-12174284D02*
X13482758Y-12183808D01*
X13482758Y-12183808D02*
X13492282Y-12193331D01*
X13492282Y-12193331D02*
X13501805Y-12212379D01*
X13501805Y-12212379D02*
X13511329Y-12250474D01*
X13511329Y-12250474D02*
X13511329Y-12298093D01*
X13511329Y-12298093D02*
X13501805Y-12336188D01*
X13501805Y-12336188D02*
X13492282Y-12355236D01*
X13492282Y-12355236D02*
X13482758Y-12364760D01*
X13482758Y-12364760D02*
X13463710Y-12374284D01*
X13463710Y-12374284D02*
X13444662Y-12374284D01*
X13444662Y-12374284D02*
X13425615Y-12364760D01*
X13425615Y-12364760D02*
X13416091Y-12355236D01*
X13416091Y-12355236D02*
X13406567Y-12336188D01*
X13406567Y-12336188D02*
X13397043Y-12298093D01*
X13397043Y-12298093D02*
X13397043Y-12250474D01*
X13397043Y-12250474D02*
X13406567Y-12212379D01*
X13406567Y-12212379D02*
X13416091Y-12193331D01*
X13416091Y-12193331D02*
X13425615Y-12183808D01*
X13425615Y-12183808D02*
X13444662Y-12174284D01*
X13635139Y-12174284D02*
X13654186Y-12174284D01*
X13654186Y-12174284D02*
X13673234Y-12183808D01*
X13673234Y-12183808D02*
X13682758Y-12193331D01*
X13682758Y-12193331D02*
X13692282Y-12212379D01*
X13692282Y-12212379D02*
X13701805Y-12250474D01*
X13701805Y-12250474D02*
X13701805Y-12298093D01*
X13701805Y-12298093D02*
X13692282Y-12336188D01*
X13692282Y-12336188D02*
X13682758Y-12355236D01*
X13682758Y-12355236D02*
X13673234Y-12364760D01*
X13673234Y-12364760D02*
X13654186Y-12374284D01*
X13654186Y-12374284D02*
X13635139Y-12374284D01*
X13635139Y-12374284D02*
X13616091Y-12364760D01*
X13616091Y-12364760D02*
X13606567Y-12355236D01*
X13606567Y-12355236D02*
X13597043Y-12336188D01*
X13597043Y-12336188D02*
X13587520Y-12298093D01*
X13587520Y-12298093D02*
X13587520Y-12250474D01*
X13587520Y-12250474D02*
X13597043Y-12212379D01*
X13597043Y-12212379D02*
X13606567Y-12193331D01*
X13606567Y-12193331D02*
X13616091Y-12183808D01*
X13616091Y-12183808D02*
X13635139Y-12174284D01*
X13787520Y-12374284D02*
X13787520Y-12240950D01*
X13787520Y-12259998D02*
X13797043Y-12250474D01*
X13797043Y-12250474D02*
X13816091Y-12240950D01*
X13816091Y-12240950D02*
X13844663Y-12240950D01*
X13844663Y-12240950D02*
X13863710Y-12250474D01*
X13863710Y-12250474D02*
X13873234Y-12269522D01*
X13873234Y-12269522D02*
X13873234Y-12374284D01*
X13873234Y-12269522D02*
X13882758Y-12250474D01*
X13882758Y-12250474D02*
X13901805Y-12240950D01*
X13901805Y-12240950D02*
X13930377Y-12240950D01*
X13930377Y-12240950D02*
X13949424Y-12250474D01*
X13949424Y-12250474D02*
X13958948Y-12269522D01*
X13958948Y-12269522D02*
X13958948Y-12374284D01*
X14054186Y-12374284D02*
X14054186Y-12240950D01*
X14054186Y-12259998D02*
X14063710Y-12250474D01*
X14063710Y-12250474D02*
X14082758Y-12240950D01*
X14082758Y-12240950D02*
X14111329Y-12240950D01*
X14111329Y-12240950D02*
X14130377Y-12250474D01*
X14130377Y-12250474D02*
X14139901Y-12269522D01*
X14139901Y-12269522D02*
X14139901Y-12374284D01*
X14139901Y-12269522D02*
X14149424Y-12250474D01*
X14149424Y-12250474D02*
X14168472Y-12240950D01*
X14168472Y-12240950D02*
X14197043Y-12240950D01*
X14197043Y-12240950D02*
X14216091Y-12250474D01*
X14216091Y-12250474D02*
X14225615Y-12269522D01*
X14225615Y-12269522D02*
X14225615Y-12374284D01*
X14616091Y-12164760D02*
X14444663Y-12421903D01*
X14873234Y-12174284D02*
X14892282Y-12174284D01*
X14892282Y-12174284D02*
X14911329Y-12183808D01*
X14911329Y-12183808D02*
X14920853Y-12193331D01*
X14920853Y-12193331D02*
X14930377Y-12212379D01*
X14930377Y-12212379D02*
X14939901Y-12250474D01*
X14939901Y-12250474D02*
X14939901Y-12298093D01*
X14939901Y-12298093D02*
X14930377Y-12336188D01*
X14930377Y-12336188D02*
X14920853Y-12355236D01*
X14920853Y-12355236D02*
X14911329Y-12364760D01*
X14911329Y-12364760D02*
X14892282Y-12374284D01*
X14892282Y-12374284D02*
X14873234Y-12374284D01*
X14873234Y-12374284D02*
X14854186Y-12364760D01*
X14854186Y-12364760D02*
X14844663Y-12355236D01*
X14844663Y-12355236D02*
X14835139Y-12336188D01*
X14835139Y-12336188D02*
X14825615Y-12298093D01*
X14825615Y-12298093D02*
X14825615Y-12250474D01*
X14825615Y-12250474D02*
X14835139Y-12212379D01*
X14835139Y-12212379D02*
X14844663Y-12193331D01*
X14844663Y-12193331D02*
X14854186Y-12183808D01*
X14854186Y-12183808D02*
X14873234Y-12174284D01*
X15025615Y-12355236D02*
X15035139Y-12364760D01*
X15035139Y-12364760D02*
X15025615Y-12374284D01*
X15025615Y-12374284D02*
X15016091Y-12364760D01*
X15016091Y-12364760D02*
X15025615Y-12355236D01*
X15025615Y-12355236D02*
X15025615Y-12374284D01*
X15158948Y-12174284D02*
X15177996Y-12174284D01*
X15177996Y-12174284D02*
X15197044Y-12183808D01*
X15197044Y-12183808D02*
X15206567Y-12193331D01*
X15206567Y-12193331D02*
X15216091Y-12212379D01*
X15216091Y-12212379D02*
X15225615Y-12250474D01*
X15225615Y-12250474D02*
X15225615Y-12298093D01*
X15225615Y-12298093D02*
X15216091Y-12336188D01*
X15216091Y-12336188D02*
X15206567Y-12355236D01*
X15206567Y-12355236D02*
X15197044Y-12364760D01*
X15197044Y-12364760D02*
X15177996Y-12374284D01*
X15177996Y-12374284D02*
X15158948Y-12374284D01*
X15158948Y-12374284D02*
X15139901Y-12364760D01*
X15139901Y-12364760D02*
X15130377Y-12355236D01*
X15130377Y-12355236D02*
X15120853Y-12336188D01*
X15120853Y-12336188D02*
X15111329Y-12298093D01*
X15111329Y-12298093D02*
X15111329Y-12250474D01*
X15111329Y-12250474D02*
X15120853Y-12212379D01*
X15120853Y-12212379D02*
X15130377Y-12193331D01*
X15130377Y-12193331D02*
X15139901Y-12183808D01*
X15139901Y-12183808D02*
X15158948Y-12174284D01*
X15406567Y-12174284D02*
X15311329Y-12174284D01*
X15311329Y-12174284D02*
X15301806Y-12269522D01*
X15301806Y-12269522D02*
X15311329Y-12259998D01*
X15311329Y-12259998D02*
X15330377Y-12250474D01*
X15330377Y-12250474D02*
X15377996Y-12250474D01*
X15377996Y-12250474D02*
X15397044Y-12259998D01*
X15397044Y-12259998D02*
X15406567Y-12269522D01*
X15406567Y-12269522D02*
X15416091Y-12288569D01*
X15416091Y-12288569D02*
X15416091Y-12336188D01*
X15416091Y-12336188D02*
X15406567Y-12355236D01*
X15406567Y-12355236D02*
X15397044Y-12364760D01*
X15397044Y-12364760D02*
X15377996Y-12374284D01*
X15377996Y-12374284D02*
X15330377Y-12374284D01*
X15330377Y-12374284D02*
X15311329Y-12364760D01*
X15311329Y-12364760D02*
X15301806Y-12355236D01*
X15606567Y-12374284D02*
X15492282Y-12374284D01*
X15549425Y-12374284D02*
X15549425Y-12174284D01*
X15549425Y-12174284D02*
X15530377Y-12202855D01*
X15530377Y-12202855D02*
X15511329Y-12221903D01*
X15511329Y-12221903D02*
X15492282Y-12231427D01*
X15682758Y-12193331D02*
X15692282Y-12183808D01*
X15692282Y-12183808D02*
X15711329Y-12174284D01*
X15711329Y-12174284D02*
X15758948Y-12174284D01*
X15758948Y-12174284D02*
X15777996Y-12183808D01*
X15777996Y-12183808D02*
X15787520Y-12193331D01*
X15787520Y-12193331D02*
X15797044Y-12212379D01*
X15797044Y-12212379D02*
X15797044Y-12231427D01*
X15797044Y-12231427D02*
X15787520Y-12259998D01*
X15787520Y-12259998D02*
X15673234Y-12374284D01*
X15673234Y-12374284D02*
X15797044Y-12374284D01*
X15873234Y-12174284D02*
X15873234Y-12212379D01*
X15949425Y-12174284D02*
X15949425Y-12212379D01*
X16244663Y-12450474D02*
X16235139Y-12440950D01*
X16235139Y-12440950D02*
X16216091Y-12412379D01*
X16216091Y-12412379D02*
X16206568Y-12393331D01*
X16206568Y-12393331D02*
X16197044Y-12364760D01*
X16197044Y-12364760D02*
X16187520Y-12317141D01*
X16187520Y-12317141D02*
X16187520Y-12279046D01*
X16187520Y-12279046D02*
X16197044Y-12231427D01*
X16197044Y-12231427D02*
X16206568Y-12202855D01*
X16206568Y-12202855D02*
X16216091Y-12183808D01*
X16216091Y-12183808D02*
X16235139Y-12155236D01*
X16235139Y-12155236D02*
X16244663Y-12145712D01*
X16406568Y-12174284D02*
X16368472Y-12174284D01*
X16368472Y-12174284D02*
X16349425Y-12183808D01*
X16349425Y-12183808D02*
X16339901Y-12193331D01*
X16339901Y-12193331D02*
X16320853Y-12221903D01*
X16320853Y-12221903D02*
X16311329Y-12259998D01*
X16311329Y-12259998D02*
X16311329Y-12336188D01*
X16311329Y-12336188D02*
X16320853Y-12355236D01*
X16320853Y-12355236D02*
X16330377Y-12364760D01*
X16330377Y-12364760D02*
X16349425Y-12374284D01*
X16349425Y-12374284D02*
X16387520Y-12374284D01*
X16387520Y-12374284D02*
X16406568Y-12364760D01*
X16406568Y-12364760D02*
X16416091Y-12355236D01*
X16416091Y-12355236D02*
X16425615Y-12336188D01*
X16425615Y-12336188D02*
X16425615Y-12288569D01*
X16425615Y-12288569D02*
X16416091Y-12269522D01*
X16416091Y-12269522D02*
X16406568Y-12259998D01*
X16406568Y-12259998D02*
X16387520Y-12250474D01*
X16387520Y-12250474D02*
X16349425Y-12250474D01*
X16349425Y-12250474D02*
X16330377Y-12259998D01*
X16330377Y-12259998D02*
X16320853Y-12269522D01*
X16320853Y-12269522D02*
X16311329Y-12288569D01*
X16663710Y-12374284D02*
X16663710Y-12174284D01*
X16749425Y-12374284D02*
X16749425Y-12269522D01*
X16749425Y-12269522D02*
X16739901Y-12250474D01*
X16739901Y-12250474D02*
X16720853Y-12240950D01*
X16720853Y-12240950D02*
X16692282Y-12240950D01*
X16692282Y-12240950D02*
X16673234Y-12250474D01*
X16673234Y-12250474D02*
X16663710Y-12259998D01*
X16873234Y-12374284D02*
X16854187Y-12364760D01*
X16854187Y-12364760D02*
X16844663Y-12355236D01*
X16844663Y-12355236D02*
X16835139Y-12336188D01*
X16835139Y-12336188D02*
X16835139Y-12279046D01*
X16835139Y-12279046D02*
X16844663Y-12259998D01*
X16844663Y-12259998D02*
X16854187Y-12250474D01*
X16854187Y-12250474D02*
X16873234Y-12240950D01*
X16873234Y-12240950D02*
X16901806Y-12240950D01*
X16901806Y-12240950D02*
X16920853Y-12250474D01*
X16920853Y-12250474D02*
X16930377Y-12259998D01*
X16930377Y-12259998D02*
X16939901Y-12279046D01*
X16939901Y-12279046D02*
X16939901Y-12336188D01*
X16939901Y-12336188D02*
X16930377Y-12355236D01*
X16930377Y-12355236D02*
X16920853Y-12364760D01*
X16920853Y-12364760D02*
X16901806Y-12374284D01*
X16901806Y-12374284D02*
X16873234Y-12374284D01*
X17054187Y-12374284D02*
X17035139Y-12364760D01*
X17035139Y-12364760D02*
X17025615Y-12345712D01*
X17025615Y-12345712D02*
X17025615Y-12174284D01*
X17206568Y-12364760D02*
X17187520Y-12374284D01*
X17187520Y-12374284D02*
X17149425Y-12374284D01*
X17149425Y-12374284D02*
X17130377Y-12364760D01*
X17130377Y-12364760D02*
X17120853Y-12345712D01*
X17120853Y-12345712D02*
X17120853Y-12269522D01*
X17120853Y-12269522D02*
X17130377Y-12250474D01*
X17130377Y-12250474D02*
X17149425Y-12240950D01*
X17149425Y-12240950D02*
X17187520Y-12240950D01*
X17187520Y-12240950D02*
X17206568Y-12250474D01*
X17206568Y-12250474D02*
X17216092Y-12269522D01*
X17216092Y-12269522D02*
X17216092Y-12288569D01*
X17216092Y-12288569D02*
X17120853Y-12307617D01*
X17292282Y-12364760D02*
X17311330Y-12374284D01*
X17311330Y-12374284D02*
X17349425Y-12374284D01*
X17349425Y-12374284D02*
X17368473Y-12364760D01*
X17368473Y-12364760D02*
X17377996Y-12345712D01*
X17377996Y-12345712D02*
X17377996Y-12336188D01*
X17377996Y-12336188D02*
X17368473Y-12317141D01*
X17368473Y-12317141D02*
X17349425Y-12307617D01*
X17349425Y-12307617D02*
X17320853Y-12307617D01*
X17320853Y-12307617D02*
X17301806Y-12298093D01*
X17301806Y-12298093D02*
X17292282Y-12279046D01*
X17292282Y-12279046D02*
X17292282Y-12269522D01*
X17292282Y-12269522D02*
X17301806Y-12250474D01*
X17301806Y-12250474D02*
X17320853Y-12240950D01*
X17320853Y-12240950D02*
X17349425Y-12240950D01*
X17349425Y-12240950D02*
X17368473Y-12250474D01*
X17444663Y-12450474D02*
X17454187Y-12440950D01*
X17454187Y-12440950D02*
X17473234Y-12412379D01*
X17473234Y-12412379D02*
X17482758Y-12393331D01*
X17482758Y-12393331D02*
X17492282Y-12364760D01*
X17492282Y-12364760D02*
X17501806Y-12317141D01*
X17501806Y-12317141D02*
X17501806Y-12279046D01*
X17501806Y-12279046D02*
X17492282Y-12231427D01*
X17492282Y-12231427D02*
X17482758Y-12202855D01*
X17482758Y-12202855D02*
X17473234Y-12183808D01*
X17473234Y-12183808D02*
X17454187Y-12155236D01*
X17454187Y-12155236D02*
X17444663Y-12145712D01*
M02*
