G04 #@! TF.GenerationSoftware,KiCad,Pcbnew,7.0.11-2.fc39*
G04 #@! TF.CreationDate,2024-06-02T00:51:06+02:00*
G04 #@! TF.ProjectId,two_relays_extension,74776f5f-7265-46c6-9179-735f65787465,rev?*
G04 #@! TF.SameCoordinates,Original*
G04 #@! TF.FileFunction,Legend,Top*
G04 #@! TF.FilePolarity,Positive*
%FSLAX46Y46*%
G04 Gerber Fmt 4.6, Leading zero omitted, Abs format (unit mm)*
G04 Created by KiCad (PCBNEW 7.0.11-2.fc39) date 2024-06-02 00:51:06*
%MOMM*%
%LPD*%
G01*
G04 APERTURE LIST*
G04 Aperture macros list*
%AMRoundRect*
0 Rectangle with rounded corners*
0 $1 Rounding radius*
0 $2 $3 $4 $5 $6 $7 $8 $9 X,Y pos of 4 corners*
0 Add a 4 corners polygon primitive as box body*
4,1,4,$2,$3,$4,$5,$6,$7,$8,$9,$2,$3,0*
0 Add four circle primitives for the rounded corners*
1,1,$1+$1,$2,$3*
1,1,$1+$1,$4,$5*
1,1,$1+$1,$6,$7*
1,1,$1+$1,$8,$9*
0 Add four rect primitives between the rounded corners*
20,1,$1+$1,$2,$3,$4,$5,0*
20,1,$1+$1,$4,$5,$6,$7,0*
20,1,$1+$1,$6,$7,$8,$9,0*
20,1,$1+$1,$8,$9,$2,$3,0*%
G04 Aperture macros list end*
%ADD10C,0.250000*%
%ADD11C,0.150000*%
%ADD12C,0.120000*%
%ADD13R,1.700000X1.700000*%
%ADD14O,1.700000X1.700000*%
%ADD15R,0.800000X0.900000*%
%ADD16C,3.000000*%
%ADD17C,2.500000*%
%ADD18RoundRect,0.237500X0.300000X0.237500X-0.300000X0.237500X-0.300000X-0.237500X0.300000X-0.237500X0*%
%ADD19RoundRect,0.237500X0.250000X0.237500X-0.250000X0.237500X-0.250000X-0.237500X0.250000X-0.237500X0*%
%ADD20RoundRect,0.237500X-0.237500X0.250000X-0.237500X-0.250000X0.237500X-0.250000X0.237500X0.250000X0*%
%ADD21RoundRect,0.125000X-0.825000X-0.125000X0.825000X-0.125000X0.825000X0.125000X-0.825000X0.125000X0*%
%ADD22RoundRect,0.237500X-0.300000X-0.237500X0.300000X-0.237500X0.300000X0.237500X-0.300000X0.237500X0*%
%ADD23RoundRect,0.150000X-0.825000X-0.150000X0.825000X-0.150000X0.825000X0.150000X-0.825000X0.150000X0*%
G04 APERTURE END LIST*
D10*
X153818568Y-102353619D02*
X153818568Y-101353619D01*
X153818568Y-101353619D02*
X154389996Y-102353619D01*
X154389996Y-102353619D02*
X154389996Y-101353619D01*
X155056663Y-101353619D02*
X155247139Y-101353619D01*
X155247139Y-101353619D02*
X155342377Y-101401238D01*
X155342377Y-101401238D02*
X155437615Y-101496476D01*
X155437615Y-101496476D02*
X155485234Y-101686952D01*
X155485234Y-101686952D02*
X155485234Y-102020285D01*
X155485234Y-102020285D02*
X155437615Y-102210761D01*
X155437615Y-102210761D02*
X155342377Y-102306000D01*
X155342377Y-102306000D02*
X155247139Y-102353619D01*
X155247139Y-102353619D02*
X155056663Y-102353619D01*
X155056663Y-102353619D02*
X154961425Y-102306000D01*
X154961425Y-102306000D02*
X154866187Y-102210761D01*
X154866187Y-102210761D02*
X154818568Y-102020285D01*
X154818568Y-102020285D02*
X154818568Y-101686952D01*
X154818568Y-101686952D02*
X154866187Y-101496476D01*
X154866187Y-101496476D02*
X154961425Y-101401238D01*
X154961425Y-101401238D02*
X155056663Y-101353619D01*
X158009044Y-102258380D02*
X157961425Y-102306000D01*
X157961425Y-102306000D02*
X157818568Y-102353619D01*
X157818568Y-102353619D02*
X157723330Y-102353619D01*
X157723330Y-102353619D02*
X157580473Y-102306000D01*
X157580473Y-102306000D02*
X157485235Y-102210761D01*
X157485235Y-102210761D02*
X157437616Y-102115523D01*
X157437616Y-102115523D02*
X157389997Y-101925047D01*
X157389997Y-101925047D02*
X157389997Y-101782190D01*
X157389997Y-101782190D02*
X157437616Y-101591714D01*
X157437616Y-101591714D02*
X157485235Y-101496476D01*
X157485235Y-101496476D02*
X157580473Y-101401238D01*
X157580473Y-101401238D02*
X157723330Y-101353619D01*
X157723330Y-101353619D02*
X157818568Y-101353619D01*
X157818568Y-101353619D02*
X157961425Y-101401238D01*
X157961425Y-101401238D02*
X158009044Y-101448857D01*
X159961426Y-102353619D02*
X159961426Y-101353619D01*
X159961426Y-101353619D02*
X160532854Y-102353619D01*
X160532854Y-102353619D02*
X160532854Y-101353619D01*
X161580473Y-102258380D02*
X161532854Y-102306000D01*
X161532854Y-102306000D02*
X161389997Y-102353619D01*
X161389997Y-102353619D02*
X161294759Y-102353619D01*
X161294759Y-102353619D02*
X161151902Y-102306000D01*
X161151902Y-102306000D02*
X161056664Y-102210761D01*
X161056664Y-102210761D02*
X161009045Y-102115523D01*
X161009045Y-102115523D02*
X160961426Y-101925047D01*
X160961426Y-101925047D02*
X160961426Y-101782190D01*
X160961426Y-101782190D02*
X161009045Y-101591714D01*
X161009045Y-101591714D02*
X161056664Y-101496476D01*
X161056664Y-101496476D02*
X161151902Y-101401238D01*
X161151902Y-101401238D02*
X161294759Y-101353619D01*
X161294759Y-101353619D02*
X161389997Y-101353619D01*
X161389997Y-101353619D02*
X161532854Y-101401238D01*
X161532854Y-101401238D02*
X161580473Y-101448857D01*
X133117568Y-102353619D02*
X133117568Y-101353619D01*
X133117568Y-101353619D02*
X133688996Y-102353619D01*
X133688996Y-102353619D02*
X133688996Y-101353619D01*
X134355663Y-101353619D02*
X134546139Y-101353619D01*
X134546139Y-101353619D02*
X134641377Y-101401238D01*
X134641377Y-101401238D02*
X134736615Y-101496476D01*
X134736615Y-101496476D02*
X134784234Y-101686952D01*
X134784234Y-101686952D02*
X134784234Y-102020285D01*
X134784234Y-102020285D02*
X134736615Y-102210761D01*
X134736615Y-102210761D02*
X134641377Y-102306000D01*
X134641377Y-102306000D02*
X134546139Y-102353619D01*
X134546139Y-102353619D02*
X134355663Y-102353619D01*
X134355663Y-102353619D02*
X134260425Y-102306000D01*
X134260425Y-102306000D02*
X134165187Y-102210761D01*
X134165187Y-102210761D02*
X134117568Y-102020285D01*
X134117568Y-102020285D02*
X134117568Y-101686952D01*
X134117568Y-101686952D02*
X134165187Y-101496476D01*
X134165187Y-101496476D02*
X134260425Y-101401238D01*
X134260425Y-101401238D02*
X134355663Y-101353619D01*
X137308044Y-102258380D02*
X137260425Y-102306000D01*
X137260425Y-102306000D02*
X137117568Y-102353619D01*
X137117568Y-102353619D02*
X137022330Y-102353619D01*
X137022330Y-102353619D02*
X136879473Y-102306000D01*
X136879473Y-102306000D02*
X136784235Y-102210761D01*
X136784235Y-102210761D02*
X136736616Y-102115523D01*
X136736616Y-102115523D02*
X136688997Y-101925047D01*
X136688997Y-101925047D02*
X136688997Y-101782190D01*
X136688997Y-101782190D02*
X136736616Y-101591714D01*
X136736616Y-101591714D02*
X136784235Y-101496476D01*
X136784235Y-101496476D02*
X136879473Y-101401238D01*
X136879473Y-101401238D02*
X137022330Y-101353619D01*
X137022330Y-101353619D02*
X137117568Y-101353619D01*
X137117568Y-101353619D02*
X137260425Y-101401238D01*
X137260425Y-101401238D02*
X137308044Y-101448857D01*
X139260426Y-102353619D02*
X139260426Y-101353619D01*
X139260426Y-101353619D02*
X139831854Y-102353619D01*
X139831854Y-102353619D02*
X139831854Y-101353619D01*
X140879473Y-102258380D02*
X140831854Y-102306000D01*
X140831854Y-102306000D02*
X140688997Y-102353619D01*
X140688997Y-102353619D02*
X140593759Y-102353619D01*
X140593759Y-102353619D02*
X140450902Y-102306000D01*
X140450902Y-102306000D02*
X140355664Y-102210761D01*
X140355664Y-102210761D02*
X140308045Y-102115523D01*
X140308045Y-102115523D02*
X140260426Y-101925047D01*
X140260426Y-101925047D02*
X140260426Y-101782190D01*
X140260426Y-101782190D02*
X140308045Y-101591714D01*
X140308045Y-101591714D02*
X140355664Y-101496476D01*
X140355664Y-101496476D02*
X140450902Y-101401238D01*
X140450902Y-101401238D02*
X140593759Y-101353619D01*
X140593759Y-101353619D02*
X140688997Y-101353619D01*
X140688997Y-101353619D02*
X140831854Y-101401238D01*
X140831854Y-101401238D02*
X140879473Y-101448857D01*
X128669387Y-63490942D02*
X128669387Y-62290942D01*
X128669387Y-62862371D02*
X129355101Y-62862371D01*
X129355101Y-63490942D02*
X129355101Y-62290942D01*
X129869387Y-63148085D02*
X130440816Y-63148085D01*
X129755101Y-63490942D02*
X130155101Y-62290942D01*
X130155101Y-62290942D02*
X130555101Y-63490942D01*
X131812244Y-62405228D02*
X131869387Y-62348085D01*
X131869387Y-62348085D02*
X131983673Y-62290942D01*
X131983673Y-62290942D02*
X132269387Y-62290942D01*
X132269387Y-62290942D02*
X132383673Y-62348085D01*
X132383673Y-62348085D02*
X132440815Y-62405228D01*
X132440815Y-62405228D02*
X132497958Y-62519514D01*
X132497958Y-62519514D02*
X132497958Y-62633800D01*
X132497958Y-62633800D02*
X132440815Y-62805228D01*
X132440815Y-62805228D02*
X131755101Y-63490942D01*
X131755101Y-63490942D02*
X132497958Y-63490942D01*
X133926530Y-63490942D02*
X133926530Y-62690942D01*
X133926530Y-62919514D02*
X133983673Y-62805228D01*
X133983673Y-62805228D02*
X134040816Y-62748085D01*
X134040816Y-62748085D02*
X134155101Y-62690942D01*
X134155101Y-62690942D02*
X134269387Y-62690942D01*
X135126530Y-63433800D02*
X135012244Y-63490942D01*
X135012244Y-63490942D02*
X134783673Y-63490942D01*
X134783673Y-63490942D02*
X134669387Y-63433800D01*
X134669387Y-63433800D02*
X134612244Y-63319514D01*
X134612244Y-63319514D02*
X134612244Y-62862371D01*
X134612244Y-62862371D02*
X134669387Y-62748085D01*
X134669387Y-62748085D02*
X134783673Y-62690942D01*
X134783673Y-62690942D02*
X135012244Y-62690942D01*
X135012244Y-62690942D02*
X135126530Y-62748085D01*
X135126530Y-62748085D02*
X135183673Y-62862371D01*
X135183673Y-62862371D02*
X135183673Y-62976657D01*
X135183673Y-62976657D02*
X134612244Y-63090942D01*
X135869386Y-63490942D02*
X135755101Y-63433800D01*
X135755101Y-63433800D02*
X135697958Y-63319514D01*
X135697958Y-63319514D02*
X135697958Y-62290942D01*
X136840815Y-63490942D02*
X136840815Y-62862371D01*
X136840815Y-62862371D02*
X136783672Y-62748085D01*
X136783672Y-62748085D02*
X136669386Y-62690942D01*
X136669386Y-62690942D02*
X136440815Y-62690942D01*
X136440815Y-62690942D02*
X136326529Y-62748085D01*
X136840815Y-63433800D02*
X136726529Y-63490942D01*
X136726529Y-63490942D02*
X136440815Y-63490942D01*
X136440815Y-63490942D02*
X136326529Y-63433800D01*
X136326529Y-63433800D02*
X136269386Y-63319514D01*
X136269386Y-63319514D02*
X136269386Y-63205228D01*
X136269386Y-63205228D02*
X136326529Y-63090942D01*
X136326529Y-63090942D02*
X136440815Y-63033800D01*
X136440815Y-63033800D02*
X136726529Y-63033800D01*
X136726529Y-63033800D02*
X136840815Y-62976657D01*
X137297957Y-62690942D02*
X137583671Y-63490942D01*
X137869386Y-62690942D02*
X137583671Y-63490942D01*
X137583671Y-63490942D02*
X137469386Y-63776657D01*
X137469386Y-63776657D02*
X137412243Y-63833800D01*
X137412243Y-63833800D02*
X137297957Y-63890942D01*
X138269386Y-63433800D02*
X138383672Y-63490942D01*
X138383672Y-63490942D02*
X138612243Y-63490942D01*
X138612243Y-63490942D02*
X138726529Y-63433800D01*
X138726529Y-63433800D02*
X138783672Y-63319514D01*
X138783672Y-63319514D02*
X138783672Y-63262371D01*
X138783672Y-63262371D02*
X138726529Y-63148085D01*
X138726529Y-63148085D02*
X138612243Y-63090942D01*
X138612243Y-63090942D02*
X138440815Y-63090942D01*
X138440815Y-63090942D02*
X138326529Y-63033800D01*
X138326529Y-63033800D02*
X138269386Y-62919514D01*
X138269386Y-62919514D02*
X138269386Y-62862371D01*
X138269386Y-62862371D02*
X138326529Y-62748085D01*
X138326529Y-62748085D02*
X138440815Y-62690942D01*
X138440815Y-62690942D02*
X138612243Y-62690942D01*
X138612243Y-62690942D02*
X138726529Y-62748085D01*
X129126530Y-65365800D02*
X129012244Y-65422942D01*
X129012244Y-65422942D02*
X128783673Y-65422942D01*
X128783673Y-65422942D02*
X128669387Y-65365800D01*
X128669387Y-65365800D02*
X128612244Y-65251514D01*
X128612244Y-65251514D02*
X128612244Y-64794371D01*
X128612244Y-64794371D02*
X128669387Y-64680085D01*
X128669387Y-64680085D02*
X128783673Y-64622942D01*
X128783673Y-64622942D02*
X129012244Y-64622942D01*
X129012244Y-64622942D02*
X129126530Y-64680085D01*
X129126530Y-64680085D02*
X129183673Y-64794371D01*
X129183673Y-64794371D02*
X129183673Y-64908657D01*
X129183673Y-64908657D02*
X128612244Y-65022942D01*
X129583672Y-65422942D02*
X130212244Y-64622942D01*
X129583672Y-64622942D02*
X130212244Y-65422942D01*
X130497958Y-64622942D02*
X130955101Y-64622942D01*
X130669387Y-64222942D02*
X130669387Y-65251514D01*
X130669387Y-65251514D02*
X130726530Y-65365800D01*
X130726530Y-65365800D02*
X130840815Y-65422942D01*
X130840815Y-65422942D02*
X130955101Y-65422942D01*
X131812244Y-65365800D02*
X131697958Y-65422942D01*
X131697958Y-65422942D02*
X131469387Y-65422942D01*
X131469387Y-65422942D02*
X131355101Y-65365800D01*
X131355101Y-65365800D02*
X131297958Y-65251514D01*
X131297958Y-65251514D02*
X131297958Y-64794371D01*
X131297958Y-64794371D02*
X131355101Y-64680085D01*
X131355101Y-64680085D02*
X131469387Y-64622942D01*
X131469387Y-64622942D02*
X131697958Y-64622942D01*
X131697958Y-64622942D02*
X131812244Y-64680085D01*
X131812244Y-64680085D02*
X131869387Y-64794371D01*
X131869387Y-64794371D02*
X131869387Y-64908657D01*
X131869387Y-64908657D02*
X131297958Y-65022942D01*
X132383672Y-64622942D02*
X132383672Y-65422942D01*
X132383672Y-64737228D02*
X132440815Y-64680085D01*
X132440815Y-64680085D02*
X132555100Y-64622942D01*
X132555100Y-64622942D02*
X132726529Y-64622942D01*
X132726529Y-64622942D02*
X132840815Y-64680085D01*
X132840815Y-64680085D02*
X132897958Y-64794371D01*
X132897958Y-64794371D02*
X132897958Y-65422942D01*
X133412243Y-65365800D02*
X133526529Y-65422942D01*
X133526529Y-65422942D02*
X133755100Y-65422942D01*
X133755100Y-65422942D02*
X133869386Y-65365800D01*
X133869386Y-65365800D02*
X133926529Y-65251514D01*
X133926529Y-65251514D02*
X133926529Y-65194371D01*
X133926529Y-65194371D02*
X133869386Y-65080085D01*
X133869386Y-65080085D02*
X133755100Y-65022942D01*
X133755100Y-65022942D02*
X133583672Y-65022942D01*
X133583672Y-65022942D02*
X133469386Y-64965800D01*
X133469386Y-64965800D02*
X133412243Y-64851514D01*
X133412243Y-64851514D02*
X133412243Y-64794371D01*
X133412243Y-64794371D02*
X133469386Y-64680085D01*
X133469386Y-64680085D02*
X133583672Y-64622942D01*
X133583672Y-64622942D02*
X133755100Y-64622942D01*
X133755100Y-64622942D02*
X133869386Y-64680085D01*
X134440815Y-65422942D02*
X134440815Y-64622942D01*
X134440815Y-64222942D02*
X134383672Y-64280085D01*
X134383672Y-64280085D02*
X134440815Y-64337228D01*
X134440815Y-64337228D02*
X134497958Y-64280085D01*
X134497958Y-64280085D02*
X134440815Y-64222942D01*
X134440815Y-64222942D02*
X134440815Y-64337228D01*
X135183672Y-65422942D02*
X135069387Y-65365800D01*
X135069387Y-65365800D02*
X135012244Y-65308657D01*
X135012244Y-65308657D02*
X134955101Y-65194371D01*
X134955101Y-65194371D02*
X134955101Y-64851514D01*
X134955101Y-64851514D02*
X135012244Y-64737228D01*
X135012244Y-64737228D02*
X135069387Y-64680085D01*
X135069387Y-64680085D02*
X135183672Y-64622942D01*
X135183672Y-64622942D02*
X135355101Y-64622942D01*
X135355101Y-64622942D02*
X135469387Y-64680085D01*
X135469387Y-64680085D02*
X135526530Y-64737228D01*
X135526530Y-64737228D02*
X135583672Y-64851514D01*
X135583672Y-64851514D02*
X135583672Y-65194371D01*
X135583672Y-65194371D02*
X135526530Y-65308657D01*
X135526530Y-65308657D02*
X135469387Y-65365800D01*
X135469387Y-65365800D02*
X135355101Y-65422942D01*
X135355101Y-65422942D02*
X135183672Y-65422942D01*
X136097958Y-64622942D02*
X136097958Y-65422942D01*
X136097958Y-64737228D02*
X136155101Y-64680085D01*
X136155101Y-64680085D02*
X136269386Y-64622942D01*
X136269386Y-64622942D02*
X136440815Y-64622942D01*
X136440815Y-64622942D02*
X136555101Y-64680085D01*
X136555101Y-64680085D02*
X136612244Y-64794371D01*
X136612244Y-64794371D02*
X136612244Y-65422942D01*
X138726529Y-65422942D02*
X138040815Y-65422942D01*
X138383672Y-65422942D02*
X138383672Y-64222942D01*
X138383672Y-64222942D02*
X138269386Y-64394371D01*
X138269386Y-64394371D02*
X138155101Y-64508657D01*
X138155101Y-64508657D02*
X138040815Y-64565800D01*
X139240815Y-65308657D02*
X139297958Y-65365800D01*
X139297958Y-65365800D02*
X139240815Y-65422942D01*
X139240815Y-65422942D02*
X139183672Y-65365800D01*
X139183672Y-65365800D02*
X139240815Y-65308657D01*
X139240815Y-65308657D02*
X139240815Y-65422942D01*
X140040815Y-64222942D02*
X140155101Y-64222942D01*
X140155101Y-64222942D02*
X140269387Y-64280085D01*
X140269387Y-64280085D02*
X140326530Y-64337228D01*
X140326530Y-64337228D02*
X140383672Y-64451514D01*
X140383672Y-64451514D02*
X140440815Y-64680085D01*
X140440815Y-64680085D02*
X140440815Y-64965800D01*
X140440815Y-64965800D02*
X140383672Y-65194371D01*
X140383672Y-65194371D02*
X140326530Y-65308657D01*
X140326530Y-65308657D02*
X140269387Y-65365800D01*
X140269387Y-65365800D02*
X140155101Y-65422942D01*
X140155101Y-65422942D02*
X140040815Y-65422942D01*
X140040815Y-65422942D02*
X139926530Y-65365800D01*
X139926530Y-65365800D02*
X139869387Y-65308657D01*
X139869387Y-65308657D02*
X139812244Y-65194371D01*
X139812244Y-65194371D02*
X139755101Y-64965800D01*
X139755101Y-64965800D02*
X139755101Y-64680085D01*
X139755101Y-64680085D02*
X139812244Y-64451514D01*
X139812244Y-64451514D02*
X139869387Y-64337228D01*
X139869387Y-64337228D02*
X139926530Y-64280085D01*
X139926530Y-64280085D02*
X140040815Y-64222942D01*
D11*
X136826666Y-59449619D02*
X136826666Y-60163904D01*
X136826666Y-60163904D02*
X136779047Y-60306761D01*
X136779047Y-60306761D02*
X136683809Y-60402000D01*
X136683809Y-60402000D02*
X136540952Y-60449619D01*
X136540952Y-60449619D02*
X136445714Y-60449619D01*
X137207619Y-59449619D02*
X137826666Y-59449619D01*
X137826666Y-59449619D02*
X137493333Y-59830571D01*
X137493333Y-59830571D02*
X137636190Y-59830571D01*
X137636190Y-59830571D02*
X137731428Y-59878190D01*
X137731428Y-59878190D02*
X137779047Y-59925809D01*
X137779047Y-59925809D02*
X137826666Y-60021047D01*
X137826666Y-60021047D02*
X137826666Y-60259142D01*
X137826666Y-60259142D02*
X137779047Y-60354380D01*
X137779047Y-60354380D02*
X137731428Y-60402000D01*
X137731428Y-60402000D02*
X137636190Y-60449619D01*
X137636190Y-60449619D02*
X137350476Y-60449619D01*
X137350476Y-60449619D02*
X137255238Y-60402000D01*
X137255238Y-60402000D02*
X137207619Y-60354380D01*
X162734666Y-104991819D02*
X162734666Y-105706104D01*
X162734666Y-105706104D02*
X162687047Y-105848961D01*
X162687047Y-105848961D02*
X162591809Y-105944200D01*
X162591809Y-105944200D02*
X162448952Y-105991819D01*
X162448952Y-105991819D02*
X162353714Y-105991819D01*
X163163238Y-105087057D02*
X163210857Y-105039438D01*
X163210857Y-105039438D02*
X163306095Y-104991819D01*
X163306095Y-104991819D02*
X163544190Y-104991819D01*
X163544190Y-104991819D02*
X163639428Y-105039438D01*
X163639428Y-105039438D02*
X163687047Y-105087057D01*
X163687047Y-105087057D02*
X163734666Y-105182295D01*
X163734666Y-105182295D02*
X163734666Y-105277533D01*
X163734666Y-105277533D02*
X163687047Y-105420390D01*
X163687047Y-105420390D02*
X163115619Y-105991819D01*
X163115619Y-105991819D02*
X163734666Y-105991819D01*
X154539961Y-76750057D02*
X154444723Y-76702438D01*
X154444723Y-76702438D02*
X154349485Y-76607200D01*
X154349485Y-76607200D02*
X154206628Y-76464342D01*
X154206628Y-76464342D02*
X154111390Y-76416723D01*
X154111390Y-76416723D02*
X154016152Y-76416723D01*
X154063771Y-76654819D02*
X153968533Y-76607200D01*
X153968533Y-76607200D02*
X153873295Y-76511961D01*
X153873295Y-76511961D02*
X153825676Y-76321485D01*
X153825676Y-76321485D02*
X153825676Y-75988152D01*
X153825676Y-75988152D02*
X153873295Y-75797676D01*
X153873295Y-75797676D02*
X153968533Y-75702438D01*
X153968533Y-75702438D02*
X154063771Y-75654819D01*
X154063771Y-75654819D02*
X154254247Y-75654819D01*
X154254247Y-75654819D02*
X154349485Y-75702438D01*
X154349485Y-75702438D02*
X154444723Y-75797676D01*
X154444723Y-75797676D02*
X154492342Y-75988152D01*
X154492342Y-75988152D02*
X154492342Y-76321485D01*
X154492342Y-76321485D02*
X154444723Y-76511961D01*
X154444723Y-76511961D02*
X154349485Y-76607200D01*
X154349485Y-76607200D02*
X154254247Y-76654819D01*
X154254247Y-76654819D02*
X154063771Y-76654819D01*
X154873295Y-75750057D02*
X154920914Y-75702438D01*
X154920914Y-75702438D02*
X155016152Y-75654819D01*
X155016152Y-75654819D02*
X155254247Y-75654819D01*
X155254247Y-75654819D02*
X155349485Y-75702438D01*
X155349485Y-75702438D02*
X155397104Y-75750057D01*
X155397104Y-75750057D02*
X155444723Y-75845295D01*
X155444723Y-75845295D02*
X155444723Y-75940533D01*
X155444723Y-75940533D02*
X155397104Y-76083390D01*
X155397104Y-76083390D02*
X154825676Y-76654819D01*
X154825676Y-76654819D02*
X155444723Y-76654819D01*
X127404905Y-99387819D02*
X127404905Y-98387819D01*
X127976333Y-99387819D02*
X127547762Y-98816390D01*
X127976333Y-98387819D02*
X127404905Y-98959247D01*
X128928714Y-99387819D02*
X128357286Y-99387819D01*
X128643000Y-99387819D02*
X128643000Y-98387819D01*
X128643000Y-98387819D02*
X128547762Y-98530676D01*
X128547762Y-98530676D02*
X128452524Y-98625914D01*
X128452524Y-98625914D02*
X128357286Y-98673533D01*
X137450533Y-77975619D02*
X137117200Y-77499428D01*
X136879105Y-77975619D02*
X136879105Y-76975619D01*
X136879105Y-76975619D02*
X137260057Y-76975619D01*
X137260057Y-76975619D02*
X137355295Y-77023238D01*
X137355295Y-77023238D02*
X137402914Y-77070857D01*
X137402914Y-77070857D02*
X137450533Y-77166095D01*
X137450533Y-77166095D02*
X137450533Y-77308952D01*
X137450533Y-77308952D02*
X137402914Y-77404190D01*
X137402914Y-77404190D02*
X137355295Y-77451809D01*
X137355295Y-77451809D02*
X137260057Y-77499428D01*
X137260057Y-77499428D02*
X136879105Y-77499428D01*
X138355295Y-76975619D02*
X137879105Y-76975619D01*
X137879105Y-76975619D02*
X137831486Y-77451809D01*
X137831486Y-77451809D02*
X137879105Y-77404190D01*
X137879105Y-77404190D02*
X137974343Y-77356571D01*
X137974343Y-77356571D02*
X138212438Y-77356571D01*
X138212438Y-77356571D02*
X138307676Y-77404190D01*
X138307676Y-77404190D02*
X138355295Y-77451809D01*
X138355295Y-77451809D02*
X138402914Y-77547047D01*
X138402914Y-77547047D02*
X138402914Y-77785142D01*
X138402914Y-77785142D02*
X138355295Y-77880380D01*
X138355295Y-77880380D02*
X138307676Y-77928000D01*
X138307676Y-77928000D02*
X138212438Y-77975619D01*
X138212438Y-77975619D02*
X137974343Y-77975619D01*
X137974343Y-77975619D02*
X137879105Y-77928000D01*
X137879105Y-77928000D02*
X137831486Y-77880380D01*
X152207933Y-65199419D02*
X151874600Y-64723228D01*
X151636505Y-65199419D02*
X151636505Y-64199419D01*
X151636505Y-64199419D02*
X152017457Y-64199419D01*
X152017457Y-64199419D02*
X152112695Y-64247038D01*
X152112695Y-64247038D02*
X152160314Y-64294657D01*
X152160314Y-64294657D02*
X152207933Y-64389895D01*
X152207933Y-64389895D02*
X152207933Y-64532752D01*
X152207933Y-64532752D02*
X152160314Y-64627990D01*
X152160314Y-64627990D02*
X152112695Y-64675609D01*
X152112695Y-64675609D02*
X152017457Y-64723228D01*
X152017457Y-64723228D02*
X151636505Y-64723228D01*
X153065076Y-64532752D02*
X153065076Y-65199419D01*
X152826981Y-64151800D02*
X152588886Y-64866085D01*
X152588886Y-64866085D02*
X153207933Y-64866085D01*
X142033666Y-104864819D02*
X142033666Y-105579104D01*
X142033666Y-105579104D02*
X141986047Y-105721961D01*
X141986047Y-105721961D02*
X141890809Y-105817200D01*
X141890809Y-105817200D02*
X141747952Y-105864819D01*
X141747952Y-105864819D02*
X141652714Y-105864819D01*
X143033666Y-105864819D02*
X142462238Y-105864819D01*
X142747952Y-105864819D02*
X142747952Y-104864819D01*
X142747952Y-104864819D02*
X142652714Y-105007676D01*
X142652714Y-105007676D02*
X142557476Y-105102914D01*
X142557476Y-105102914D02*
X142462238Y-105150533D01*
X146735895Y-78525019D02*
X146735895Y-79334542D01*
X146735895Y-79334542D02*
X146783514Y-79429780D01*
X146783514Y-79429780D02*
X146831133Y-79477400D01*
X146831133Y-79477400D02*
X146926371Y-79525019D01*
X146926371Y-79525019D02*
X147116847Y-79525019D01*
X147116847Y-79525019D02*
X147212085Y-79477400D01*
X147212085Y-79477400D02*
X147259704Y-79429780D01*
X147259704Y-79429780D02*
X147307323Y-79334542D01*
X147307323Y-79334542D02*
X147307323Y-78525019D01*
X147735895Y-78620257D02*
X147783514Y-78572638D01*
X147783514Y-78572638D02*
X147878752Y-78525019D01*
X147878752Y-78525019D02*
X148116847Y-78525019D01*
X148116847Y-78525019D02*
X148212085Y-78572638D01*
X148212085Y-78572638D02*
X148259704Y-78620257D01*
X148259704Y-78620257D02*
X148307323Y-78715495D01*
X148307323Y-78715495D02*
X148307323Y-78810733D01*
X148307323Y-78810733D02*
X148259704Y-78953590D01*
X148259704Y-78953590D02*
X147688276Y-79525019D01*
X147688276Y-79525019D02*
X148307323Y-79525019D01*
X133248495Y-73826019D02*
X133248495Y-74635542D01*
X133248495Y-74635542D02*
X133296114Y-74730780D01*
X133296114Y-74730780D02*
X133343733Y-74778400D01*
X133343733Y-74778400D02*
X133438971Y-74826019D01*
X133438971Y-74826019D02*
X133629447Y-74826019D01*
X133629447Y-74826019D02*
X133724685Y-74778400D01*
X133724685Y-74778400D02*
X133772304Y-74730780D01*
X133772304Y-74730780D02*
X133819923Y-74635542D01*
X133819923Y-74635542D02*
X133819923Y-73826019D01*
X134819923Y-74826019D02*
X134248495Y-74826019D01*
X134534209Y-74826019D02*
X134534209Y-73826019D01*
X134534209Y-73826019D02*
X134438971Y-73968876D01*
X134438971Y-73968876D02*
X134343733Y-74064114D01*
X134343733Y-74064114D02*
X134248495Y-74111733D01*
X152233333Y-63421419D02*
X151900000Y-62945228D01*
X151661905Y-63421419D02*
X151661905Y-62421419D01*
X151661905Y-62421419D02*
X152042857Y-62421419D01*
X152042857Y-62421419D02*
X152138095Y-62469038D01*
X152138095Y-62469038D02*
X152185714Y-62516657D01*
X152185714Y-62516657D02*
X152233333Y-62611895D01*
X152233333Y-62611895D02*
X152233333Y-62754752D01*
X152233333Y-62754752D02*
X152185714Y-62849990D01*
X152185714Y-62849990D02*
X152138095Y-62897609D01*
X152138095Y-62897609D02*
X152042857Y-62945228D01*
X152042857Y-62945228D02*
X151661905Y-62945228D01*
X152566667Y-62421419D02*
X153185714Y-62421419D01*
X153185714Y-62421419D02*
X152852381Y-62802371D01*
X152852381Y-62802371D02*
X152995238Y-62802371D01*
X152995238Y-62802371D02*
X153090476Y-62849990D01*
X153090476Y-62849990D02*
X153138095Y-62897609D01*
X153138095Y-62897609D02*
X153185714Y-62992847D01*
X153185714Y-62992847D02*
X153185714Y-63230942D01*
X153185714Y-63230942D02*
X153138095Y-63326180D01*
X153138095Y-63326180D02*
X153090476Y-63373800D01*
X153090476Y-63373800D02*
X152995238Y-63421419D01*
X152995238Y-63421419D02*
X152709524Y-63421419D01*
X152709524Y-63421419D02*
X152614286Y-63373800D01*
X152614286Y-63373800D02*
X152566667Y-63326180D01*
X166012905Y-99387819D02*
X166012905Y-98387819D01*
X166584333Y-99387819D02*
X166155762Y-98816390D01*
X166584333Y-98387819D02*
X166012905Y-98959247D01*
X166965286Y-98483057D02*
X167012905Y-98435438D01*
X167012905Y-98435438D02*
X167108143Y-98387819D01*
X167108143Y-98387819D02*
X167346238Y-98387819D01*
X167346238Y-98387819D02*
X167441476Y-98435438D01*
X167441476Y-98435438D02*
X167489095Y-98483057D01*
X167489095Y-98483057D02*
X167536714Y-98578295D01*
X167536714Y-98578295D02*
X167536714Y-98673533D01*
X167536714Y-98673533D02*
X167489095Y-98816390D01*
X167489095Y-98816390D02*
X166917667Y-99387819D01*
X166917667Y-99387819D02*
X167536714Y-99387819D01*
D12*
X154238000Y-58664800D02*
X154238000Y-59994800D01*
X152908000Y-58664800D02*
X154238000Y-58664800D01*
X151638000Y-58664800D02*
X138878000Y-58664800D01*
X151638000Y-58664800D02*
X151638000Y-61324800D01*
X138878000Y-58664800D02*
X138878000Y-61324800D01*
X151638000Y-61324800D02*
X138878000Y-61324800D01*
X161589000Y-104207000D02*
X161589000Y-105537000D01*
X160259000Y-104207000D02*
X161589000Y-104207000D01*
X158989000Y-104207000D02*
X153849000Y-104207000D01*
X158989000Y-104207000D02*
X158989000Y-106867000D01*
X153849000Y-104207000D02*
X153849000Y-106867000D01*
X158989000Y-106867000D02*
X153849000Y-106867000D01*
X153218000Y-77230000D02*
X153218000Y-75070000D01*
X153218000Y-77230000D02*
X152288000Y-77230000D01*
X150058000Y-77230000D02*
X150058000Y-75770000D01*
X150058000Y-77230000D02*
X150988000Y-77230000D01*
X144914000Y-79777000D02*
X138314000Y-79777000D01*
X144914000Y-79777000D02*
X144914000Y-99577000D01*
X135914000Y-79777000D02*
X129314000Y-79777000D01*
X137064000Y-83827000D02*
X137064000Y-83027000D01*
X137064000Y-83827000D02*
X133464000Y-83827000D01*
X131064000Y-84727000D02*
X131064000Y-87227000D01*
X138864000Y-85227000D02*
X138864000Y-89227000D01*
X135264000Y-85227000D02*
X138864000Y-85227000D01*
X143064000Y-87227000D02*
X143064000Y-84727000D01*
X143064000Y-87227000D02*
X138864000Y-87227000D01*
X135264000Y-87227000D02*
X131064000Y-87227000D01*
X138864000Y-89227000D02*
X135264000Y-89227000D01*
X135264000Y-89227000D02*
X138864000Y-85227000D01*
X135264000Y-89227000D02*
X135264000Y-85227000D01*
X137064000Y-90627000D02*
X133464000Y-90627000D01*
X137064000Y-90627000D02*
X137064000Y-92127000D01*
X133464000Y-90627000D02*
X133464000Y-83827000D01*
X137064000Y-92127000D02*
X139564000Y-96727000D01*
X141314000Y-95327000D02*
X138814000Y-95327000D01*
X132914000Y-95327000D02*
X135364000Y-95327000D01*
X144914000Y-99577000D02*
X129314000Y-99577000D01*
X129314000Y-99577000D02*
X129314000Y-79777000D01*
X134765167Y-67870800D02*
X134472633Y-67870800D01*
X134765167Y-66850800D02*
X134472633Y-66850800D01*
X151869224Y-74309500D02*
X151359776Y-74309500D01*
X151869224Y-73264500D02*
X151359776Y-73264500D01*
X138226300Y-74827676D02*
X138226300Y-75337124D01*
X137181300Y-74827676D02*
X137181300Y-75337124D01*
X132593200Y-78246000D02*
X132593200Y-76086000D01*
X132593200Y-78246000D02*
X131663200Y-78246000D01*
X129433200Y-78246000D02*
X129433200Y-76786000D01*
X129433200Y-78246000D02*
X130363200Y-78246000D01*
X149811824Y-65267100D02*
X149302376Y-65267100D01*
X149811824Y-64222100D02*
X149302376Y-64222100D01*
X131244424Y-75325500D02*
X130734976Y-75325500D01*
X131244424Y-74280500D02*
X130734976Y-74280500D01*
G36*
X161821045Y-70364061D02*
G01*
X161821045Y-71094237D01*
X161994093Y-71094237D01*
X162167140Y-71094237D01*
X162167140Y-71178651D01*
X162167140Y-71263064D01*
X161698646Y-71263064D01*
X161230151Y-71263064D01*
X161230151Y-71178651D01*
X161230151Y-71094237D01*
X161420081Y-71094237D01*
X161610012Y-71094237D01*
X161610012Y-70448474D01*
X161610012Y-69802712D01*
X161441185Y-69802712D01*
X161272358Y-69802712D01*
X161272358Y-69718298D01*
X161272358Y-69633885D01*
X161546702Y-69633885D01*
X161821045Y-69633885D01*
X161821045Y-70364061D01*
G37*
G36*
X160404621Y-70894795D02*
G01*
X160457768Y-70911714D01*
X160498404Y-70935181D01*
X160527721Y-70963871D01*
X160551075Y-71003237D01*
X160554134Y-71009824D01*
X160569650Y-71063018D01*
X160569556Y-71116362D01*
X160554866Y-71167039D01*
X160526591Y-71212234D01*
X160485743Y-71249132D01*
X160463391Y-71262348D01*
X160420652Y-71276299D01*
X160371229Y-71280326D01*
X160322093Y-71274436D01*
X160286845Y-71262182D01*
X160240680Y-71230745D01*
X160207781Y-71189108D01*
X160188656Y-71138128D01*
X160183610Y-71088177D01*
X160190715Y-71031561D01*
X160212046Y-70983469D01*
X160248328Y-70942289D01*
X160249745Y-70941067D01*
X160298392Y-70909391D01*
X160350544Y-70893893D01*
X160404621Y-70894795D01*
G37*
G36*
X159474074Y-69619108D02*
G01*
X159522364Y-69621695D01*
X159552115Y-69624874D01*
X159594128Y-69630647D01*
X159622352Y-69635818D01*
X159639507Y-69643327D01*
X159648310Y-69656116D01*
X159651481Y-69677125D01*
X159651737Y-69709295D01*
X159651620Y-69732513D01*
X159651620Y-69821562D01*
X159628406Y-69816643D01*
X159611025Y-69813583D01*
X159581188Y-69808953D01*
X159543177Y-69803397D01*
X159503897Y-69797916D01*
X159415865Y-69789485D01*
X159341044Y-69790355D01*
X159278304Y-69800914D01*
X159226515Y-69821552D01*
X159184547Y-69852659D01*
X159151273Y-69894624D01*
X159135040Y-69925111D01*
X159127924Y-69942007D01*
X159122678Y-69959196D01*
X159118949Y-69979739D01*
X159116382Y-70006696D01*
X159114623Y-70043129D01*
X159113319Y-70092098D01*
X159112821Y-70117152D01*
X159110007Y-70266986D01*
X159363931Y-70266986D01*
X159617855Y-70266986D01*
X159617855Y-70351399D01*
X159617855Y-70435812D01*
X159364614Y-70435812D01*
X159111374Y-70435812D01*
X159111374Y-70849438D01*
X159111374Y-71263064D01*
X159005857Y-71263064D01*
X158900341Y-71263064D01*
X158900341Y-70849438D01*
X158900341Y-70435812D01*
X158710410Y-70435812D01*
X158520480Y-70435812D01*
X158520480Y-70351399D01*
X158520480Y-70266986D01*
X158710410Y-70266986D01*
X158900341Y-70266986D01*
X158900341Y-70124833D01*
X158901907Y-70043900D01*
X158906967Y-69976551D01*
X158916064Y-69919746D01*
X158929740Y-69870445D01*
X158948538Y-69825611D01*
X158956477Y-69810321D01*
X158995221Y-69755924D01*
X159048017Y-69707676D01*
X159112638Y-69667261D01*
X159186507Y-69636478D01*
X159214852Y-69630280D01*
X159256183Y-69625240D01*
X159306635Y-69621480D01*
X159362344Y-69619123D01*
X159419446Y-69618292D01*
X159474074Y-69619108D01*
G37*
G36*
X157725492Y-69736759D02*
G01*
X157729142Y-69741266D01*
X157731775Y-69751451D01*
X157733557Y-69769359D01*
X157734649Y-69797035D01*
X157735215Y-69836525D01*
X157735419Y-69889874D01*
X157735435Y-69920890D01*
X157735435Y-70106600D01*
X157997117Y-70106600D01*
X158258799Y-70106600D01*
X158258799Y-70191013D01*
X158258799Y-70275427D01*
X157996586Y-70275427D01*
X157734373Y-70275427D01*
X157737015Y-70606750D01*
X157739656Y-70938072D01*
X157763902Y-70987450D01*
X157796215Y-71034865D01*
X157840585Y-71070697D01*
X157896222Y-71094320D01*
X157899675Y-71095275D01*
X157932483Y-71100641D01*
X157977283Y-71103191D01*
X158029434Y-71103009D01*
X158084296Y-71100180D01*
X158137229Y-71094789D01*
X158165944Y-71090394D01*
X158199782Y-71084581D01*
X158227771Y-71080121D01*
X158245349Y-71077728D01*
X158248247Y-71077510D01*
X158253328Y-71082429D01*
X158256623Y-71098658D01*
X158258365Y-71128135D01*
X158258799Y-71165305D01*
X158258799Y-71253255D01*
X158218702Y-71262912D01*
X158193886Y-71266757D01*
X158155870Y-71270052D01*
X158108260Y-71272725D01*
X158054665Y-71274708D01*
X157998693Y-71275929D01*
X157943950Y-71276319D01*
X157894044Y-71275807D01*
X157852584Y-71274324D01*
X157823176Y-71271798D01*
X157816760Y-71270730D01*
X157751198Y-71250834D01*
X157690064Y-71219920D01*
X157636745Y-71180335D01*
X157594628Y-71134422D01*
X157575591Y-71103740D01*
X157565569Y-71083220D01*
X157557243Y-71063312D01*
X157550455Y-71042262D01*
X157545051Y-71018320D01*
X157540874Y-70989734D01*
X157537768Y-70954751D01*
X157535578Y-70911621D01*
X157534146Y-70858592D01*
X157533317Y-70793911D01*
X157532935Y-70715828D01*
X157532843Y-70623969D01*
X157532843Y-70275427D01*
X157368237Y-70275427D01*
X157203631Y-70275427D01*
X157203631Y-70191013D01*
X157203631Y-70106600D01*
X157368055Y-70106600D01*
X157532479Y-70106600D01*
X157534771Y-69944104D01*
X157537064Y-69781608D01*
X157621477Y-69759099D01*
X157658341Y-69749571D01*
X157690185Y-69741892D01*
X157712793Y-69737050D01*
X157720663Y-69735885D01*
X157725492Y-69736759D01*
G37*
G36*
X164022898Y-69952545D02*
G01*
X164020015Y-70271206D01*
X164075243Y-70215687D01*
X164135412Y-70164690D01*
X164202852Y-70124001D01*
X164272970Y-70096202D01*
X164299940Y-70089435D01*
X164331140Y-70085243D01*
X164372426Y-70082815D01*
X164417065Y-70082479D01*
X164432998Y-70082947D01*
X164498598Y-70089331D01*
X164553155Y-70103872D01*
X164601344Y-70128561D01*
X164647839Y-70165391D01*
X164664831Y-70181774D01*
X164710102Y-70236375D01*
X164746801Y-70301300D01*
X164775426Y-70377865D01*
X164796470Y-70467383D01*
X164810045Y-70567179D01*
X164814914Y-70682404D01*
X164806588Y-70789938D01*
X164785468Y-70889017D01*
X164751955Y-70978877D01*
X164706451Y-71058753D01*
X164649358Y-71127880D01*
X164581077Y-71185494D01*
X164502010Y-71230831D01*
X164450523Y-71251490D01*
X164422961Y-71260489D01*
X164398307Y-71266927D01*
X164372634Y-71271299D01*
X164342011Y-71274100D01*
X164302511Y-71275825D01*
X164250205Y-71276968D01*
X164247931Y-71277007D01*
X164161941Y-71276829D01*
X164092347Y-71273148D01*
X164045339Y-71267125D01*
X164005758Y-71258736D01*
X163958417Y-71246827D01*
X163911476Y-71233502D01*
X163895505Y-71228525D01*
X163813202Y-71202067D01*
X163813202Y-71066454D01*
X164024236Y-71066454D01*
X164085435Y-71084068D01*
X164124326Y-71095131D01*
X164152454Y-71102366D01*
X164175276Y-71106641D01*
X164198244Y-71108825D01*
X164226814Y-71109785D01*
X164249289Y-71110141D01*
X164320706Y-71105991D01*
X164369799Y-71095054D01*
X164432596Y-71066941D01*
X164486510Y-71024765D01*
X164530931Y-70969181D01*
X164565251Y-70900842D01*
X164574248Y-70875628D01*
X164584604Y-70831933D01*
X164592079Y-70776235D01*
X164596524Y-70713191D01*
X164597792Y-70647456D01*
X164595736Y-70583687D01*
X164590208Y-70526542D01*
X164586097Y-70501918D01*
X164565324Y-70425109D01*
X164536421Y-70362928D01*
X164499443Y-70315446D01*
X164454445Y-70282740D01*
X164409352Y-70266479D01*
X164352426Y-70262032D01*
X164293874Y-70273888D01*
X164233534Y-70302136D01*
X164171243Y-70346866D01*
X164106840Y-70408165D01*
X164065182Y-70455244D01*
X164024236Y-70504220D01*
X164024236Y-70785337D01*
X164024236Y-71066454D01*
X163813202Y-71066454D01*
X163813202Y-70417976D01*
X163813202Y-69633885D01*
X163919491Y-69633885D01*
X164025780Y-69633885D01*
X164022898Y-69952545D01*
G37*
G36*
X156632303Y-70084739D02*
G01*
X156694037Y-70087555D01*
X156750152Y-70091724D01*
X156796910Y-70097198D01*
X156804777Y-70098439D01*
X156865977Y-70108640D01*
X156865977Y-70201579D01*
X156865977Y-70294519D01*
X156838543Y-70289812D01*
X156818097Y-70286220D01*
X156786449Y-70280565D01*
X156749006Y-70273814D01*
X156730916Y-70270534D01*
X156672067Y-70262148D01*
X156608521Y-70257022D01*
X156544497Y-70255164D01*
X156484215Y-70256587D01*
X156431896Y-70261301D01*
X156391759Y-70269316D01*
X156390593Y-70269667D01*
X156340479Y-70291293D01*
X156303508Y-70320875D01*
X156280627Y-70357126D01*
X156272784Y-70398759D01*
X156275695Y-70425812D01*
X156283523Y-70449886D01*
X156297248Y-70471492D01*
X156318507Y-70491614D01*
X156348937Y-70511237D01*
X156390174Y-70531347D01*
X156443855Y-70552928D01*
X156511619Y-70576966D01*
X156546019Y-70588477D01*
X156637506Y-70620270D01*
X156713720Y-70650547D01*
X156776086Y-70680289D01*
X156826028Y-70710480D01*
X156864972Y-70742102D01*
X156894341Y-70776135D01*
X156915561Y-70813564D01*
X156929376Y-70852821D01*
X156941273Y-70925280D01*
X156937187Y-70993672D01*
X156917715Y-71057129D01*
X156883451Y-71114782D01*
X156834989Y-71165764D01*
X156772926Y-71209207D01*
X156697855Y-71244241D01*
X156650431Y-71259843D01*
X156626576Y-71265385D01*
X156597222Y-71269568D01*
X156559693Y-71272591D01*
X156511316Y-71274654D01*
X156449417Y-71275956D01*
X156431248Y-71276189D01*
X156377866Y-71276622D01*
X156328802Y-71276677D01*
X156287113Y-71276376D01*
X156255857Y-71275744D01*
X156238090Y-71274804D01*
X156237097Y-71274684D01*
X156187517Y-71267409D01*
X156139804Y-71259504D01*
X156098956Y-71251847D01*
X156070381Y-71245423D01*
X156038726Y-71237089D01*
X156038726Y-71144560D01*
X156039278Y-71101079D01*
X156041086Y-71072478D01*
X156044375Y-71056785D01*
X156049334Y-71052030D01*
X156061444Y-71053804D01*
X156086238Y-71058616D01*
X156119953Y-71065705D01*
X156153976Y-71073213D01*
X156235096Y-71088547D01*
X156317525Y-71098737D01*
X156398318Y-71103776D01*
X156474533Y-71103660D01*
X156543227Y-71098384D01*
X156601458Y-71087942D01*
X156642687Y-71074034D01*
X156682575Y-71050766D01*
X156707493Y-71022921D01*
X156719276Y-70987538D01*
X156720299Y-70948740D01*
X156715994Y-70915034D01*
X156706951Y-70891811D01*
X156696620Y-70878407D01*
X156669770Y-70857250D01*
X156627586Y-70834086D01*
X156571413Y-70809517D01*
X156502596Y-70784147D01*
X156443910Y-70765084D01*
X156352047Y-70734240D01*
X156275578Y-70702864D01*
X156213020Y-70670003D01*
X156162891Y-70634698D01*
X156123707Y-70595995D01*
X156093985Y-70552938D01*
X156083765Y-70532888D01*
X156063921Y-70470694D01*
X156058904Y-70404559D01*
X156068703Y-70338595D01*
X156084404Y-70294653D01*
X156119617Y-70237229D01*
X156168876Y-70186759D01*
X156230315Y-70144563D01*
X156302064Y-70111961D01*
X156370134Y-70092700D01*
X156403911Y-70088005D01*
X156450754Y-70084911D01*
X156506925Y-70083368D01*
X156568687Y-70083327D01*
X156632303Y-70084739D01*
G37*
G36*
X165732071Y-70084739D02*
G01*
X165793804Y-70087555D01*
X165849919Y-70091724D01*
X165896677Y-70097198D01*
X165904545Y-70098439D01*
X165965744Y-70108640D01*
X165965744Y-70201579D01*
X165965744Y-70294519D01*
X165938310Y-70289812D01*
X165917864Y-70286220D01*
X165886217Y-70280565D01*
X165848773Y-70273814D01*
X165830683Y-70270534D01*
X165771834Y-70262148D01*
X165708288Y-70257022D01*
X165644264Y-70255164D01*
X165583983Y-70256587D01*
X165531663Y-70261301D01*
X165491527Y-70269316D01*
X165490361Y-70269667D01*
X165440246Y-70291293D01*
X165403275Y-70320875D01*
X165380395Y-70357126D01*
X165372551Y-70398759D01*
X165375463Y-70425812D01*
X165383291Y-70449886D01*
X165397016Y-70471492D01*
X165418274Y-70491614D01*
X165448704Y-70511237D01*
X165489941Y-70531347D01*
X165543623Y-70552928D01*
X165611386Y-70576966D01*
X165645787Y-70588477D01*
X165737273Y-70620270D01*
X165813487Y-70650547D01*
X165875853Y-70680289D01*
X165925796Y-70710480D01*
X165964739Y-70742102D01*
X165994109Y-70776135D01*
X166015328Y-70813564D01*
X166029143Y-70852821D01*
X166041040Y-70925280D01*
X166036955Y-70993672D01*
X166017482Y-71057129D01*
X165983218Y-71114782D01*
X165934757Y-71165764D01*
X165872693Y-71209207D01*
X165797622Y-71244241D01*
X165750199Y-71259843D01*
X165726344Y-71265385D01*
X165696989Y-71269568D01*
X165659460Y-71272591D01*
X165611083Y-71274654D01*
X165549184Y-71275956D01*
X165531015Y-71276189D01*
X165477633Y-71276622D01*
X165428569Y-71276677D01*
X165386880Y-71276376D01*
X165355624Y-71275744D01*
X165337857Y-71274804D01*
X165336864Y-71274684D01*
X165287284Y-71267409D01*
X165239571Y-71259504D01*
X165198723Y-71251847D01*
X165170148Y-71245423D01*
X165138493Y-71237089D01*
X165138493Y-71144560D01*
X165139045Y-71101079D01*
X165140853Y-71072478D01*
X165144142Y-71056785D01*
X165149102Y-71052030D01*
X165161211Y-71053804D01*
X165186006Y-71058616D01*
X165219720Y-71065705D01*
X165253743Y-71073213D01*
X165334864Y-71088547D01*
X165417292Y-71098737D01*
X165498085Y-71103776D01*
X165574300Y-71103660D01*
X165642995Y-71098384D01*
X165701225Y-71087942D01*
X165742455Y-71074034D01*
X165782342Y-71050766D01*
X165807260Y-71022921D01*
X165819043Y-70987538D01*
X165820066Y-70948740D01*
X165815762Y-70915034D01*
X165806719Y-70891811D01*
X165796387Y-70878407D01*
X165769538Y-70857250D01*
X165727354Y-70834086D01*
X165671181Y-70809517D01*
X165602364Y-70784147D01*
X165543677Y-70765084D01*
X165451814Y-70734240D01*
X165375345Y-70702864D01*
X165312787Y-70670003D01*
X165262658Y-70634698D01*
X165223474Y-70595995D01*
X165193753Y-70552938D01*
X165183532Y-70532888D01*
X165163689Y-70470694D01*
X165158672Y-70404559D01*
X165168470Y-70338595D01*
X165184171Y-70294653D01*
X165219384Y-70237229D01*
X165268644Y-70186759D01*
X165330082Y-70144563D01*
X165401831Y-70111961D01*
X165469901Y-70092700D01*
X165503679Y-70088005D01*
X165550521Y-70084911D01*
X165606692Y-70083368D01*
X165668454Y-70083327D01*
X165732071Y-70084739D01*
G37*
G36*
X163096213Y-70085817D02*
G01*
X163151531Y-70093558D01*
X163200896Y-70106492D01*
X163247826Y-70125172D01*
X163262142Y-70132071D01*
X163323243Y-70171765D01*
X163373644Y-70223616D01*
X163411959Y-70285695D01*
X163436801Y-70356076D01*
X163441988Y-70381897D01*
X163443615Y-70400218D01*
X163445136Y-70433544D01*
X163446517Y-70479998D01*
X163447725Y-70537703D01*
X163448728Y-70604782D01*
X163449493Y-70679359D01*
X163449986Y-70759554D01*
X163450175Y-70843493D01*
X163450175Y-70847328D01*
X163450224Y-71263064D01*
X163358354Y-71263064D01*
X163315488Y-71262919D01*
X163286694Y-71260818D01*
X163269170Y-71254262D01*
X163260114Y-71240751D01*
X163256725Y-71217787D01*
X163256201Y-71182870D01*
X163256189Y-71171936D01*
X163256073Y-71118795D01*
X163205474Y-71159737D01*
X163135411Y-71208068D01*
X163059184Y-71245869D01*
X162997394Y-71266547D01*
X162959250Y-71273331D01*
X162910936Y-71277512D01*
X162857838Y-71279065D01*
X162805345Y-71277964D01*
X162758844Y-71274183D01*
X162724269Y-71267850D01*
X162652282Y-71240397D01*
X162592999Y-71201881D01*
X162546671Y-71152642D01*
X162513552Y-71093020D01*
X162493893Y-71023354D01*
X162487911Y-70949954D01*
X162488769Y-70940001D01*
X162707386Y-70940001D01*
X162712461Y-70989808D01*
X162728809Y-71029581D01*
X162758115Y-71063182D01*
X162762944Y-71067281D01*
X162809811Y-71095235D01*
X162864280Y-71108171D01*
X162926197Y-71106065D01*
X162964406Y-71098218D01*
X163025870Y-71076531D01*
X163091942Y-71043119D01*
X163158043Y-71000418D01*
X163181993Y-70982438D01*
X163238698Y-70938072D01*
X163238945Y-70833364D01*
X163239191Y-70728656D01*
X163068254Y-70733531D01*
X162998323Y-70736014D01*
X162942590Y-70739358D01*
X162898376Y-70744071D01*
X162863000Y-70750660D01*
X162833782Y-70759632D01*
X162808041Y-70771494D01*
X162783097Y-70786755D01*
X162781527Y-70787817D01*
X162749222Y-70818993D01*
X162724591Y-70861102D01*
X162710139Y-70909008D01*
X162707386Y-70940001D01*
X162488769Y-70940001D01*
X162494768Y-70870392D01*
X162515483Y-70800430D01*
X162550270Y-70739735D01*
X162599343Y-70687967D01*
X162662917Y-70644792D01*
X162691794Y-70630160D01*
X162727976Y-70614620D01*
X162764254Y-70602295D01*
X162803383Y-70592754D01*
X162848116Y-70585561D01*
X162901209Y-70580284D01*
X162965415Y-70576489D01*
X163043490Y-70573741D01*
X163051371Y-70573528D01*
X163239191Y-70568556D01*
X163239191Y-70503245D01*
X163233798Y-70435102D01*
X163217267Y-70379108D01*
X163189070Y-70334280D01*
X163148678Y-70299636D01*
X163121915Y-70284959D01*
X163101830Y-70276059D01*
X163083636Y-70269936D01*
X163063549Y-70266094D01*
X163037782Y-70264037D01*
X163002549Y-70263270D01*
X162956406Y-70263287D01*
X162873962Y-70266621D01*
X162797528Y-70276608D01*
X162721671Y-70294387D01*
X162640958Y-70321092D01*
X162595538Y-70338773D01*
X162589183Y-70340056D01*
X162584960Y-70336011D01*
X162582439Y-70323997D01*
X162581192Y-70301375D01*
X162580788Y-70265507D01*
X162580766Y-70248015D01*
X162580766Y-70151266D01*
X162641966Y-70133127D01*
X162707643Y-70114820D01*
X162765555Y-70101699D01*
X162821866Y-70092788D01*
X162882739Y-70087110D01*
X162953645Y-70083709D01*
X163031424Y-70082718D01*
X163096213Y-70085817D01*
G37*
G36*
X166030814Y-63342974D02*
G01*
X166028142Y-67308295D01*
X166010153Y-67413812D01*
X165971619Y-67602652D01*
X165922040Y-67780161D01*
X165860614Y-67948429D01*
X165786537Y-68109546D01*
X165699007Y-68265602D01*
X165658329Y-68329697D01*
X165574735Y-68447149D01*
X165479115Y-68564243D01*
X165375407Y-68676651D01*
X165267550Y-68780042D01*
X165184920Y-68850169D01*
X165047970Y-68950613D01*
X164900751Y-69041940D01*
X164745865Y-69123027D01*
X164585910Y-69192748D01*
X164423488Y-69249979D01*
X164261197Y-69293594D01*
X164101639Y-69322468D01*
X164089656Y-69324033D01*
X164056793Y-69328912D01*
X164031449Y-69334022D01*
X164017413Y-69338537D01*
X164015794Y-69340144D01*
X164007440Y-69340581D01*
X163982723Y-69341011D01*
X163942166Y-69341433D01*
X163886287Y-69341846D01*
X163815609Y-69342249D01*
X163730653Y-69342642D01*
X163631937Y-69343023D01*
X163519985Y-69343391D01*
X163395315Y-69343746D01*
X163258450Y-69344086D01*
X163109909Y-69344411D01*
X162950214Y-69344721D01*
X162779885Y-69345013D01*
X162599442Y-69345288D01*
X162409408Y-69345543D01*
X162210302Y-69345780D01*
X162002644Y-69345995D01*
X161786957Y-69346190D01*
X161563761Y-69346362D01*
X161333575Y-69346511D01*
X161096922Y-69346636D01*
X160854322Y-69346736D01*
X160606295Y-69346811D01*
X160353363Y-69346858D01*
X160096045Y-69346878D01*
X160039922Y-69346879D01*
X156064050Y-69346879D01*
X156064157Y-66586560D01*
X159440587Y-66586560D01*
X159440587Y-66941097D01*
X159440587Y-67295633D01*
X159525000Y-67295633D01*
X159609413Y-67295633D01*
X159609413Y-67434915D01*
X159609413Y-67574197D01*
X159752916Y-67574197D01*
X159896419Y-67574197D01*
X159896419Y-67434915D01*
X159896419Y-67295633D01*
X159980833Y-67295633D01*
X160065246Y-67295633D01*
X160065246Y-66941097D01*
X160065246Y-66586560D01*
X160284721Y-66586560D01*
X160284721Y-66941097D01*
X160284721Y-67295633D01*
X160369134Y-67295633D01*
X160453548Y-67295633D01*
X160453548Y-67434915D01*
X160453548Y-67574197D01*
X160597051Y-67574197D01*
X160740553Y-67574197D01*
X160740553Y-67434915D01*
X160740553Y-67295633D01*
X160824967Y-67295633D01*
X160909380Y-67295633D01*
X160909380Y-66941097D01*
X160909380Y-66586560D01*
X161187945Y-66586560D01*
X161187945Y-66941097D01*
X161187945Y-67295633D01*
X161272358Y-67295633D01*
X161356771Y-67295633D01*
X161356771Y-67434915D01*
X161356771Y-67574197D01*
X161500274Y-67574197D01*
X161643777Y-67574197D01*
X161643777Y-67434915D01*
X161643777Y-67295633D01*
X161728190Y-67295633D01*
X161812604Y-67295633D01*
X161812604Y-66941097D01*
X161812604Y-66586560D01*
X162032079Y-66586560D01*
X162032079Y-66941097D01*
X162032079Y-67295633D01*
X162116492Y-67295633D01*
X162200906Y-67295633D01*
X162200906Y-67434915D01*
X162200906Y-67574197D01*
X162344408Y-67574197D01*
X162487911Y-67574197D01*
X162487911Y-67434915D01*
X162487911Y-67295633D01*
X162572325Y-67295633D01*
X162656738Y-67295633D01*
X162656738Y-66941097D01*
X162656738Y-66586560D01*
X162344408Y-66586560D01*
X162032079Y-66586560D01*
X161812604Y-66586560D01*
X161500274Y-66586560D01*
X161187945Y-66586560D01*
X160909380Y-66586560D01*
X160597051Y-66586560D01*
X160284721Y-66586560D01*
X160065246Y-66586560D01*
X159752916Y-66586560D01*
X159440587Y-66586560D01*
X156064157Y-66586560D01*
X156064188Y-65801515D01*
X157836731Y-65801515D01*
X157976014Y-65801515D01*
X158115296Y-65801515D01*
X158115296Y-65885929D01*
X158115296Y-65970342D01*
X158469832Y-65970342D01*
X158824369Y-65970342D01*
X158824369Y-65658012D01*
X158824369Y-65345683D01*
X158469832Y-65345683D01*
X158115296Y-65345683D01*
X158115296Y-65430096D01*
X158115296Y-65514510D01*
X157976014Y-65514510D01*
X157836731Y-65514510D01*
X157836731Y-65658012D01*
X157836731Y-65801515D01*
X156064188Y-65801515D01*
X156064204Y-65381558D01*
X156064222Y-65068031D01*
X156064232Y-64957381D01*
X157836731Y-64957381D01*
X157976014Y-64957381D01*
X158115296Y-64957381D01*
X158115296Y-65041794D01*
X158115296Y-65126208D01*
X158469832Y-65126208D01*
X158824369Y-65126208D01*
X158824369Y-64813878D01*
X158824369Y-64501548D01*
X158469832Y-64501548D01*
X158115296Y-64501548D01*
X158115296Y-64585962D01*
X158115296Y-64670375D01*
X157976014Y-64670375D01*
X157836731Y-64670375D01*
X157836731Y-64813878D01*
X157836731Y-64957381D01*
X156064232Y-64957381D01*
X156064250Y-64770947D01*
X156064291Y-64489869D01*
X156064345Y-64224357D01*
X156064392Y-64054157D01*
X157836731Y-64054157D01*
X157976014Y-64054157D01*
X158115296Y-64054157D01*
X158115296Y-64138571D01*
X158115296Y-64222984D01*
X158469832Y-64222984D01*
X158824369Y-64222984D01*
X158824369Y-63910654D01*
X158824369Y-63598325D01*
X158469832Y-63598325D01*
X158115296Y-63598325D01*
X158115296Y-63682738D01*
X158115296Y-63767152D01*
X157976014Y-63767152D01*
X157836731Y-63767152D01*
X157836731Y-63910654D01*
X157836731Y-64054157D01*
X156064392Y-64054157D01*
X156064414Y-63973973D01*
X156064499Y-63738279D01*
X156064602Y-63516835D01*
X156064723Y-63309203D01*
X156064795Y-63210023D01*
X157836731Y-63210023D01*
X157976014Y-63210023D01*
X158115296Y-63210023D01*
X158115296Y-63294436D01*
X158115296Y-63378850D01*
X158469832Y-63378850D01*
X158824369Y-63378850D01*
X158824369Y-63079182D01*
X158824369Y-62779515D01*
X158469832Y-62779515D01*
X158115296Y-62779515D01*
X158115296Y-62851266D01*
X158115296Y-62923017D01*
X157976014Y-62923017D01*
X157836731Y-62923017D01*
X157836731Y-63066520D01*
X157836731Y-63210023D01*
X156064795Y-63210023D01*
X156064865Y-63114944D01*
X156065028Y-62933620D01*
X156065214Y-62764792D01*
X156065424Y-62608021D01*
X156065660Y-62462868D01*
X156065923Y-62328896D01*
X156066035Y-62281475D01*
X158959430Y-62281475D01*
X158959430Y-64366487D01*
X158959430Y-66451499D01*
X161048662Y-66451499D01*
X163137895Y-66451499D01*
X163137895Y-65345683D01*
X163272956Y-65345683D01*
X163272956Y-65645350D01*
X163272956Y-65945018D01*
X163627493Y-65945018D01*
X163982029Y-65945018D01*
X163982029Y-65860605D01*
X163982029Y-65776191D01*
X164121311Y-65776191D01*
X164260593Y-65776191D01*
X164260593Y-65645350D01*
X164260593Y-65514510D01*
X164121311Y-65514510D01*
X163982029Y-65514510D01*
X163982029Y-65430096D01*
X163982029Y-65345683D01*
X163627493Y-65345683D01*
X163272956Y-65345683D01*
X163137895Y-65345683D01*
X163137895Y-64501548D01*
X163272956Y-64501548D01*
X163272956Y-64813878D01*
X163272956Y-65126208D01*
X163627493Y-65126208D01*
X163982029Y-65126208D01*
X163982029Y-65041794D01*
X163982029Y-64957381D01*
X164121311Y-64957381D01*
X164260593Y-64957381D01*
X164260593Y-64813878D01*
X164260593Y-64670375D01*
X164121311Y-64670375D01*
X163982029Y-64670375D01*
X163982029Y-64585962D01*
X163982029Y-64501548D01*
X163627493Y-64501548D01*
X163272956Y-64501548D01*
X163137895Y-64501548D01*
X163137895Y-64366487D01*
X163137895Y-63606766D01*
X163272956Y-63606766D01*
X163272956Y-63914875D01*
X163272956Y-64222984D01*
X163627493Y-64222984D01*
X163982029Y-64222984D01*
X163982029Y-64138571D01*
X163982029Y-64054157D01*
X164121311Y-64054157D01*
X164260593Y-64054157D01*
X164260593Y-63914875D01*
X164260593Y-63775593D01*
X164121311Y-63775593D01*
X163982029Y-63775593D01*
X163982029Y-63691180D01*
X163982029Y-63606766D01*
X163627493Y-63606766D01*
X163272956Y-63606766D01*
X163137895Y-63606766D01*
X163137895Y-62754191D01*
X163272956Y-62754191D01*
X163272956Y-63066520D01*
X163272956Y-63378850D01*
X163627493Y-63378850D01*
X163982029Y-63378850D01*
X163982029Y-63294436D01*
X163982029Y-63210023D01*
X164121311Y-63210023D01*
X164260593Y-63210023D01*
X164260593Y-63066520D01*
X164260593Y-62923017D01*
X164121311Y-62923017D01*
X163982029Y-62923017D01*
X163982029Y-62838604D01*
X163982029Y-62754191D01*
X163627493Y-62754191D01*
X163272956Y-62754191D01*
X163137895Y-62754191D01*
X163137895Y-62281475D01*
X161048662Y-62281475D01*
X158959430Y-62281475D01*
X156066035Y-62281475D01*
X156066214Y-62205664D01*
X156066406Y-62137973D01*
X159440587Y-62137973D01*
X159752916Y-62137973D01*
X160065246Y-62137973D01*
X160284721Y-62137973D01*
X160597051Y-62137973D01*
X160909380Y-62137973D01*
X161196386Y-62137973D01*
X161504495Y-62137973D01*
X161812604Y-62137973D01*
X162040520Y-62137973D01*
X162348629Y-62137973D01*
X162656738Y-62137973D01*
X162656738Y-61783436D01*
X162656738Y-61428900D01*
X162572325Y-61428900D01*
X162487911Y-61428900D01*
X162487911Y-61285397D01*
X162487911Y-61141894D01*
X162344408Y-61141894D01*
X162200906Y-61141894D01*
X162200906Y-61285397D01*
X162200906Y-61428900D01*
X162120713Y-61428900D01*
X162040520Y-61428900D01*
X162040520Y-61783436D01*
X162040520Y-62137973D01*
X161812604Y-62137973D01*
X161812604Y-61783436D01*
X161812604Y-61428900D01*
X161723970Y-61428900D01*
X161635336Y-61428900D01*
X161635336Y-61285397D01*
X161635336Y-61141894D01*
X161496054Y-61141894D01*
X161356771Y-61141894D01*
X161356771Y-61285397D01*
X161356771Y-61428900D01*
X161276579Y-61428900D01*
X161196386Y-61428900D01*
X161196386Y-61783436D01*
X161196386Y-62137973D01*
X160909380Y-62137973D01*
X160909380Y-61783436D01*
X160909380Y-61428900D01*
X160829187Y-61428900D01*
X160748995Y-61428900D01*
X160748995Y-61285397D01*
X160748995Y-61141894D01*
X160597051Y-61141894D01*
X160445106Y-61141894D01*
X160445106Y-61285397D01*
X160445106Y-61428900D01*
X160364914Y-61428900D01*
X160284721Y-61428900D01*
X160284721Y-61783436D01*
X160284721Y-62137973D01*
X160065246Y-62137973D01*
X160065246Y-61783436D01*
X160065246Y-61428900D01*
X159985053Y-61428900D01*
X159904860Y-61428900D01*
X159904860Y-61285397D01*
X159904860Y-61141894D01*
X159752916Y-61141894D01*
X159600972Y-61141894D01*
X159600972Y-61285397D01*
X159600972Y-61428900D01*
X159520779Y-61428900D01*
X159440587Y-61428900D01*
X159440587Y-61783436D01*
X159440587Y-62137973D01*
X156066406Y-62137973D01*
X156066534Y-62092735D01*
X156066886Y-61989670D01*
X156067269Y-61896030D01*
X156067686Y-61811377D01*
X156068138Y-61735271D01*
X156068627Y-61667274D01*
X156069152Y-61606948D01*
X156069717Y-61553854D01*
X156070322Y-61507552D01*
X156070968Y-61467605D01*
X156071657Y-61433574D01*
X156072391Y-61405020D01*
X156073170Y-61381504D01*
X156073996Y-61362588D01*
X156074870Y-61347833D01*
X156075794Y-61336800D01*
X156076530Y-61330634D01*
X156112318Y-61135573D01*
X156163293Y-60947659D01*
X156229671Y-60766375D01*
X156311663Y-60591204D01*
X156409486Y-60421628D01*
X156517698Y-60264677D01*
X156564005Y-60206694D01*
X156620696Y-60142138D01*
X156684463Y-60074317D01*
X156752000Y-60006537D01*
X156820001Y-59942105D01*
X156885157Y-59884328D01*
X156944162Y-59836513D01*
X156951073Y-59831302D01*
X157115796Y-59718186D01*
X157285620Y-59621104D01*
X157461064Y-59539842D01*
X157642645Y-59474186D01*
X157830880Y-59423922D01*
X158017030Y-59390134D01*
X158025528Y-59389171D01*
X158037414Y-59388260D01*
X158053128Y-59387397D01*
X158073108Y-59386583D01*
X158097793Y-59385815D01*
X158127621Y-59385092D01*
X158163032Y-59384413D01*
X158204464Y-59383777D01*
X158252355Y-59383182D01*
X158307145Y-59382627D01*
X158369272Y-59382110D01*
X158439174Y-59381631D01*
X158517291Y-59381187D01*
X158604061Y-59380778D01*
X158699922Y-59380403D01*
X158805314Y-59380059D01*
X158920674Y-59379746D01*
X159046443Y-59379462D01*
X159183058Y-59379205D01*
X159330957Y-59378976D01*
X159490581Y-59378771D01*
X159662367Y-59378591D01*
X159846754Y-59378433D01*
X160044180Y-59378296D01*
X160255085Y-59378179D01*
X160479908Y-59378081D01*
X160719085Y-59378000D01*
X160973058Y-59377934D01*
X161242263Y-59377884D01*
X161527140Y-59377846D01*
X161828128Y-59377821D01*
X162068059Y-59377808D01*
X166033485Y-59377654D01*
X166030814Y-63342974D01*
G37*
X140903000Y-104080000D02*
X140903000Y-105410000D01*
X139573000Y-104080000D02*
X140903000Y-104080000D01*
X138303000Y-104080000D02*
X133163000Y-104080000D01*
X138303000Y-104080000D02*
X138303000Y-106740000D01*
X133163000Y-104080000D02*
X133163000Y-106740000D01*
X138303000Y-106740000D02*
X133163000Y-106740000D01*
X140602800Y-70530200D02*
X140602800Y-70805200D01*
X140602800Y-70805200D02*
X138912800Y-70805200D01*
X140602800Y-77950200D02*
X140602800Y-77675200D01*
X143362800Y-70530200D02*
X140602800Y-70530200D01*
X143362800Y-70530200D02*
X146122800Y-70530200D01*
X143362800Y-77950200D02*
X140602800Y-77950200D01*
X143362800Y-77950200D02*
X146122800Y-77950200D01*
X146122800Y-70530200D02*
X146122800Y-70805200D01*
X146122800Y-77950200D02*
X146122800Y-77675200D01*
X147505033Y-69035200D02*
X147797567Y-69035200D01*
X147505033Y-70055200D02*
X147797567Y-70055200D01*
X133008600Y-68382200D02*
X129558600Y-68382200D01*
X133008600Y-68382200D02*
X134958600Y-68382200D01*
X133008600Y-73502200D02*
X131058600Y-73502200D01*
X133008600Y-73502200D02*
X134958600Y-73502200D01*
X149837224Y-63489100D02*
X149327776Y-63489100D01*
X149837224Y-62444100D02*
X149327776Y-62444100D01*
X165488000Y-79700000D02*
X158888000Y-79700000D01*
X165488000Y-79700000D02*
X165488000Y-99500000D01*
X156488000Y-79700000D02*
X149888000Y-79700000D01*
X157638000Y-83750000D02*
X157638000Y-82950000D01*
X157638000Y-83750000D02*
X154038000Y-83750000D01*
X151638000Y-84650000D02*
X151638000Y-87150000D01*
X159438000Y-85150000D02*
X159438000Y-89150000D01*
X155838000Y-85150000D02*
X159438000Y-85150000D01*
X163638000Y-87150000D02*
X163638000Y-84650000D01*
X163638000Y-87150000D02*
X159438000Y-87150000D01*
X155838000Y-87150000D02*
X151638000Y-87150000D01*
X159438000Y-89150000D02*
X155838000Y-89150000D01*
X155838000Y-89150000D02*
X159438000Y-85150000D01*
X155838000Y-89150000D02*
X155838000Y-85150000D01*
X157638000Y-90550000D02*
X154038000Y-90550000D01*
X157638000Y-90550000D02*
X157638000Y-92050000D01*
X154038000Y-90550000D02*
X154038000Y-83750000D01*
X157638000Y-92050000D02*
X160138000Y-96650000D01*
X161888000Y-95250000D02*
X159388000Y-95250000D01*
X153488000Y-95250000D02*
X155938000Y-95250000D01*
X165488000Y-99500000D02*
X149888000Y-99500000D01*
X149888000Y-99500000D02*
X149888000Y-79700000D01*
%LPC*%
D13*
X152908000Y-59994800D03*
D14*
X150368000Y-59994800D03*
X147828000Y-59994800D03*
X145288000Y-59994800D03*
X142748000Y-59994800D03*
X140208000Y-59994800D03*
D13*
X160259000Y-105537000D03*
D14*
X157719000Y-105537000D03*
X155179000Y-105537000D03*
D15*
X152588000Y-75470000D03*
X150688000Y-75470000D03*
X151638000Y-77470000D03*
D16*
X137114000Y-81177000D03*
D17*
X131064000Y-83127000D03*
D16*
X131064000Y-95327000D03*
X143114000Y-95377000D03*
D17*
X143064000Y-83127000D03*
D18*
X135481400Y-67360800D03*
X133756400Y-67360800D03*
D19*
X152527000Y-73787000D03*
X150702000Y-73787000D03*
D20*
X137703800Y-74169900D03*
X137703800Y-75994900D03*
D15*
X131963200Y-76486000D03*
X130063200Y-76486000D03*
X131013200Y-78486000D03*
D19*
X150469600Y-64744600D03*
X148644600Y-64744600D03*
X131902200Y-74803000D03*
X130077200Y-74803000D03*
D13*
X139573000Y-105410000D03*
D14*
X137033000Y-105410000D03*
X134493000Y-105410000D03*
D21*
X139862800Y-71315200D03*
X139862800Y-71965200D03*
X139862800Y-72615200D03*
X139862800Y-73265200D03*
X139862800Y-73915200D03*
X139862800Y-74565200D03*
X139862800Y-75215200D03*
X139862800Y-75865200D03*
X139862800Y-76515200D03*
X139862800Y-77165200D03*
X146862800Y-77165200D03*
X146862800Y-76515200D03*
X146862800Y-75865200D03*
X146862800Y-75215200D03*
X146862800Y-74565200D03*
X146862800Y-73915200D03*
X146862800Y-73265200D03*
X146862800Y-72615200D03*
X146862800Y-71965200D03*
X146862800Y-71315200D03*
D22*
X146788800Y-69545200D03*
X148513800Y-69545200D03*
D23*
X130533600Y-69037200D03*
X130533600Y-70307200D03*
X130533600Y-71577200D03*
X130533600Y-72847200D03*
X135483600Y-72847200D03*
X135483600Y-71577200D03*
X135483600Y-70307200D03*
X135483600Y-69037200D03*
D19*
X150495000Y-62966600D03*
X148670000Y-62966600D03*
D16*
X157688000Y-81100000D03*
D17*
X151638000Y-83050000D03*
D16*
X151638000Y-95250000D03*
X163688000Y-95300000D03*
D17*
X163638000Y-83050000D03*
%LPD*%
M02*
