G04 #@! TF.GenerationSoftware,KiCad,Pcbnew,7.0.11-2.fc39*
G04 #@! TF.CreationDate,2024-06-02T00:51:06+02:00*
G04 #@! TF.ProjectId,two_relays_extension,74776f5f-7265-46c6-9179-735f65787465,rev?*
G04 #@! TF.SameCoordinates,Original*
G04 #@! TF.FileFunction,Copper,L2,Bot*
G04 #@! TF.FilePolarity,Positive*
%FSLAX46Y46*%
G04 Gerber Fmt 4.6, Leading zero omitted, Abs format (unit mm)*
G04 Created by KiCad (PCBNEW 7.0.11-2.fc39) date 2024-06-02 00:51:06*
%MOMM*%
%LPD*%
G01*
G04 APERTURE LIST*
G04 #@! TA.AperFunction,ComponentPad*
%ADD10R,1.700000X1.700000*%
G04 #@! TD*
G04 #@! TA.AperFunction,ComponentPad*
%ADD11O,1.700000X1.700000*%
G04 #@! TD*
G04 #@! TA.AperFunction,ComponentPad*
%ADD12C,3.000000*%
G04 #@! TD*
G04 #@! TA.AperFunction,ComponentPad*
%ADD13C,2.500000*%
G04 #@! TD*
G04 #@! TA.AperFunction,SMDPad,CuDef*
%ADD14R,1.000000X1.000000*%
G04 #@! TD*
G04 #@! TA.AperFunction,ViaPad*
%ADD15C,0.600000*%
G04 #@! TD*
G04 #@! TA.AperFunction,ViaPad*
%ADD16C,0.800000*%
G04 #@! TD*
G04 #@! TA.AperFunction,Conductor*
%ADD17C,0.381000*%
G04 #@! TD*
G04 #@! TA.AperFunction,Conductor*
%ADD18C,0.762000*%
G04 #@! TD*
G04 APERTURE END LIST*
D10*
X152908000Y-59994800D03*
D11*
X150368000Y-59994800D03*
X147828000Y-59994800D03*
X145288000Y-59994800D03*
X142748000Y-59994800D03*
X140208000Y-59994800D03*
D10*
X160259000Y-105537000D03*
D11*
X157719000Y-105537000D03*
X155179000Y-105537000D03*
D12*
X137114000Y-81177000D03*
D13*
X131064000Y-83127000D03*
D12*
X131064000Y-95327000D03*
X143114000Y-95377000D03*
D13*
X143064000Y-83127000D03*
D10*
X139573000Y-105410000D03*
D11*
X137033000Y-105410000D03*
X134493000Y-105410000D03*
D12*
X157688000Y-81100000D03*
D13*
X151638000Y-83050000D03*
D12*
X151638000Y-95250000D03*
X163688000Y-95300000D03*
D13*
X163638000Y-83050000D03*
D14*
X161442400Y-85039200D03*
X158942400Y-85039200D03*
X138339200Y-85039200D03*
X135839200Y-85039200D03*
D15*
X127863600Y-76758800D03*
X127863600Y-70713600D03*
X153873200Y-76758800D03*
X153873200Y-70764400D03*
X160528000Y-76758800D03*
X160528000Y-70764400D03*
X166878000Y-76758800D03*
X166878000Y-70815200D03*
X166878000Y-64770000D03*
X160528000Y-64770000D03*
X153873200Y-64770000D03*
X140868400Y-64770000D03*
X134366000Y-64770000D03*
X127863600Y-64770000D03*
X134366000Y-58775600D03*
D16*
X128524000Y-74828400D03*
X149809200Y-69596000D03*
D15*
X166878000Y-58775600D03*
D16*
X141579600Y-76504800D03*
D15*
X127863600Y-58775600D03*
D16*
X141986000Y-73253600D03*
D15*
X160528000Y-58775600D03*
D16*
X150672800Y-72593200D03*
X144018000Y-62890400D03*
X144526000Y-64668400D03*
X136347200Y-75387200D03*
X145237200Y-69545200D03*
X137210800Y-67360800D03*
D17*
X147828000Y-61264800D02*
X147269200Y-61823600D01*
X146202400Y-62890400D02*
X147269200Y-61823600D01*
X144018000Y-62890400D02*
X146202400Y-62890400D01*
D18*
X153627200Y-85039200D02*
X151638000Y-83050000D01*
X158942400Y-85039200D02*
X153627200Y-85039200D01*
X132976200Y-85039200D02*
X131064000Y-83127000D01*
X135839200Y-85039200D02*
X132976200Y-85039200D01*
D17*
X147828000Y-59563000D02*
X147828000Y-61264800D01*
X144526000Y-64668400D02*
X142748000Y-62890400D01*
X142748000Y-62890400D02*
X142748000Y-59563000D01*
X143052800Y-67360800D02*
X145237200Y-69545200D01*
X137210800Y-67360800D02*
X136347200Y-68224400D01*
X137210800Y-67360800D02*
X143052800Y-67360800D01*
X136347200Y-68224400D02*
X136347200Y-75387200D01*
D18*
X141151800Y-85039200D02*
X143064000Y-83127000D01*
X161648800Y-85039200D02*
X163638000Y-83050000D01*
X138339200Y-85039200D02*
X141151800Y-85039200D01*
X161442400Y-85039200D02*
X159562800Y-86918800D01*
X146855800Y-86918800D02*
X143064000Y-83127000D01*
X161442400Y-85039200D02*
X161648800Y-85039200D01*
X143071000Y-83127000D02*
X143064000Y-83127000D01*
X159562800Y-86918800D02*
X146855800Y-86918800D01*
G04 #@! TA.AperFunction,Conductor*
G36*
X167463539Y-58305185D02*
G01*
X167509294Y-58357989D01*
X167520500Y-58409500D01*
X167520500Y-79073200D01*
X167500815Y-79140239D01*
X167448011Y-79185994D01*
X167396500Y-79197200D01*
X158333247Y-79197200D01*
X158289915Y-79189382D01*
X158253043Y-79175630D01*
X157973433Y-79114804D01*
X157688001Y-79094390D01*
X157687999Y-79094390D01*
X157402566Y-79114804D01*
X157122956Y-79175630D01*
X157086085Y-79189382D01*
X157042753Y-79197200D01*
X137437565Y-79197200D01*
X137411206Y-79194366D01*
X137399428Y-79191804D01*
X137173284Y-79175630D01*
X137114001Y-79171390D01*
X137113999Y-79171390D01*
X136828571Y-79191804D01*
X136823576Y-79192890D01*
X136816793Y-79194366D01*
X136790435Y-79197200D01*
X127370500Y-79197200D01*
X127303461Y-79177515D01*
X127257706Y-79124711D01*
X127246500Y-79073200D01*
X127246500Y-75387200D01*
X135441740Y-75387200D01*
X135461526Y-75575456D01*
X135461527Y-75575459D01*
X135520018Y-75755477D01*
X135520021Y-75755484D01*
X135614667Y-75919416D01*
X135741329Y-76060088D01*
X135894465Y-76171348D01*
X135894470Y-76171351D01*
X136067392Y-76248342D01*
X136067397Y-76248344D01*
X136252554Y-76287700D01*
X136252555Y-76287700D01*
X136441844Y-76287700D01*
X136441846Y-76287700D01*
X136627003Y-76248344D01*
X136799930Y-76171351D01*
X136953071Y-76060088D01*
X137079733Y-75919416D01*
X137174379Y-75755484D01*
X137232874Y-75575456D01*
X137252660Y-75387200D01*
X137232874Y-75198944D01*
X137174379Y-75018916D01*
X137079733Y-74854984D01*
X137073766Y-74848357D01*
X137070047Y-74844226D01*
X137039820Y-74781234D01*
X137038200Y-74761257D01*
X137038200Y-68561983D01*
X137057885Y-68494944D01*
X137074519Y-68474302D01*
X137256712Y-68292108D01*
X137318033Y-68258625D01*
X137318148Y-68258600D01*
X137490603Y-68221944D01*
X137490607Y-68221942D01*
X137490608Y-68221942D01*
X137579489Y-68182369D01*
X137663530Y-68144951D01*
X137741753Y-68088119D01*
X137759147Y-68075482D01*
X137824953Y-68052002D01*
X137832032Y-68051800D01*
X142715216Y-68051800D01*
X142782255Y-68071485D01*
X142802897Y-68088119D01*
X144309118Y-69594340D01*
X144342603Y-69655663D01*
X144344757Y-69669053D01*
X144351526Y-69733456D01*
X144351527Y-69733459D01*
X144410018Y-69913477D01*
X144410021Y-69913484D01*
X144504667Y-70077416D01*
X144631329Y-70218088D01*
X144784465Y-70329348D01*
X144784470Y-70329351D01*
X144957392Y-70406342D01*
X144957397Y-70406344D01*
X145142554Y-70445700D01*
X145142555Y-70445700D01*
X145331844Y-70445700D01*
X145331846Y-70445700D01*
X145517003Y-70406344D01*
X145689930Y-70329351D01*
X145843071Y-70218088D01*
X145969733Y-70077416D01*
X146064379Y-69913484D01*
X146122874Y-69733456D01*
X146142660Y-69545200D01*
X146122874Y-69356944D01*
X146064379Y-69176916D01*
X145969733Y-69012984D01*
X145843071Y-68872312D01*
X145843070Y-68872311D01*
X145689934Y-68761051D01*
X145689929Y-68761048D01*
X145517007Y-68684057D01*
X145517002Y-68684055D01*
X145345011Y-68647498D01*
X145283529Y-68614306D01*
X145283111Y-68613889D01*
X143558827Y-66889605D01*
X143553693Y-66884151D01*
X143514383Y-66839780D01*
X143465592Y-66806102D01*
X143459560Y-66801663D01*
X143412908Y-66765114D01*
X143412899Y-66765108D01*
X143403934Y-66761074D01*
X143384386Y-66750050D01*
X143376282Y-66744456D01*
X143376278Y-66744453D01*
X143320861Y-66723436D01*
X143313944Y-66720572D01*
X143259881Y-66696241D01*
X143259882Y-66696241D01*
X143250195Y-66694466D01*
X143228592Y-66688444D01*
X143219382Y-66684952D01*
X143160535Y-66677806D01*
X143153133Y-66676679D01*
X143094830Y-66665995D01*
X143094825Y-66665995D01*
X143035661Y-66669574D01*
X143028174Y-66669800D01*
X137832032Y-66669800D01*
X137764993Y-66650115D01*
X137759147Y-66646118D01*
X137663534Y-66576651D01*
X137663529Y-66576648D01*
X137490607Y-66499657D01*
X137490602Y-66499655D01*
X137344801Y-66468665D01*
X137305446Y-66460300D01*
X137116154Y-66460300D01*
X137083697Y-66467198D01*
X136930997Y-66499655D01*
X136930992Y-66499657D01*
X136758070Y-66576648D01*
X136758065Y-66576651D01*
X136604929Y-66687911D01*
X136478266Y-66828585D01*
X136383621Y-66992515D01*
X136383618Y-66992522D01*
X136325127Y-67172540D01*
X136325126Y-67172544D01*
X136318358Y-67236940D01*
X136291773Y-67301555D01*
X136282718Y-67311659D01*
X135876004Y-67718372D01*
X135870552Y-67723504D01*
X135826186Y-67762810D01*
X135826176Y-67762821D01*
X135792498Y-67811612D01*
X135788061Y-67817643D01*
X135751512Y-67864294D01*
X135751511Y-67864296D01*
X135747471Y-67873273D01*
X135736453Y-67892808D01*
X135730855Y-67900919D01*
X135709832Y-67956349D01*
X135706968Y-67963265D01*
X135682642Y-68017316D01*
X135680866Y-68027006D01*
X135674845Y-68048603D01*
X135671352Y-68057814D01*
X135671352Y-68057815D01*
X135664206Y-68116665D01*
X135663079Y-68124067D01*
X135652395Y-68182369D01*
X135652395Y-68182372D01*
X135655974Y-68241537D01*
X135656200Y-68249024D01*
X135656200Y-74761257D01*
X135636515Y-74828296D01*
X135624353Y-74844226D01*
X135614666Y-74854985D01*
X135520021Y-75018915D01*
X135520018Y-75018922D01*
X135461527Y-75198940D01*
X135461526Y-75198944D01*
X135441740Y-75387200D01*
X127246500Y-75387200D01*
X127246500Y-60244800D01*
X138877364Y-60244800D01*
X138934567Y-60458286D01*
X138934570Y-60458292D01*
X139034399Y-60672378D01*
X139169894Y-60865882D01*
X139336917Y-61032905D01*
X139530421Y-61168400D01*
X139744507Y-61268229D01*
X139744516Y-61268233D01*
X139958000Y-61325434D01*
X139958000Y-60430301D01*
X140065685Y-60479480D01*
X140172237Y-60494800D01*
X140243763Y-60494800D01*
X140350315Y-60479480D01*
X140458000Y-60430301D01*
X140458000Y-61325433D01*
X140671483Y-61268233D01*
X140671492Y-61268229D01*
X140885578Y-61168400D01*
X141079082Y-61032905D01*
X141246105Y-60865882D01*
X141376119Y-60680205D01*
X141430696Y-60636581D01*
X141500195Y-60629388D01*
X141562549Y-60660910D01*
X141579269Y-60680205D01*
X141709505Y-60866201D01*
X141709506Y-60866202D01*
X141876597Y-61033293D01*
X141876603Y-61033298D01*
X142004123Y-61122588D01*
X142047748Y-61177165D01*
X142057000Y-61224163D01*
X142057000Y-62865774D01*
X142056774Y-62873261D01*
X142053195Y-62932425D01*
X142053195Y-62932428D01*
X142063879Y-62990733D01*
X142065006Y-62998135D01*
X142072152Y-63056982D01*
X142075644Y-63066192D01*
X142081666Y-63087795D01*
X142083441Y-63097481D01*
X142107772Y-63151544D01*
X142110636Y-63158461D01*
X142131653Y-63213878D01*
X142131656Y-63213882D01*
X142137250Y-63221986D01*
X142148274Y-63241534D01*
X142152308Y-63250499D01*
X142152314Y-63250508D01*
X142188863Y-63297160D01*
X142193302Y-63303192D01*
X142226980Y-63351983D01*
X142271351Y-63391293D01*
X142276805Y-63396427D01*
X143597918Y-64717539D01*
X143631403Y-64778862D01*
X143633557Y-64792252D01*
X143640326Y-64856656D01*
X143640327Y-64856659D01*
X143698818Y-65036677D01*
X143698821Y-65036684D01*
X143793467Y-65200616D01*
X143920129Y-65341288D01*
X144073265Y-65452548D01*
X144073270Y-65452551D01*
X144246192Y-65529542D01*
X144246197Y-65529544D01*
X144431354Y-65568900D01*
X144431355Y-65568900D01*
X144620644Y-65568900D01*
X144620646Y-65568900D01*
X144805803Y-65529544D01*
X144978730Y-65452551D01*
X145131871Y-65341288D01*
X145258533Y-65200616D01*
X145353179Y-65036684D01*
X145411674Y-64856656D01*
X145431460Y-64668400D01*
X145411674Y-64480144D01*
X145353179Y-64300116D01*
X145258533Y-64136184D01*
X145131871Y-63995512D01*
X145131870Y-63995511D01*
X144978734Y-63884251D01*
X144978729Y-63884248D01*
X144831460Y-63818679D01*
X144778223Y-63773429D01*
X144757902Y-63706580D01*
X144776948Y-63639356D01*
X144829314Y-63593101D01*
X144881896Y-63581400D01*
X146177774Y-63581400D01*
X146185261Y-63581626D01*
X146244426Y-63585205D01*
X146244426Y-63585204D01*
X146244428Y-63585205D01*
X146302736Y-63574519D01*
X146310130Y-63573393D01*
X146368982Y-63566248D01*
X146378188Y-63562756D01*
X146399803Y-63556730D01*
X146409485Y-63554957D01*
X146463561Y-63530618D01*
X146470417Y-63527778D01*
X146525882Y-63506744D01*
X146533980Y-63501154D01*
X146553539Y-63490122D01*
X146562505Y-63486088D01*
X146609166Y-63449530D01*
X146615198Y-63445092D01*
X146663983Y-63411420D01*
X146703317Y-63367019D01*
X146708403Y-63361617D01*
X147787365Y-62282657D01*
X147787365Y-62282656D01*
X148299209Y-61770810D01*
X148304611Y-61765724D01*
X148349020Y-61726383D01*
X148382718Y-61677560D01*
X148387108Y-61671593D01*
X148423688Y-61624905D01*
X148427722Y-61615939D01*
X148438754Y-61596380D01*
X148444342Y-61588285D01*
X148444342Y-61588284D01*
X148444344Y-61588282D01*
X148465371Y-61532835D01*
X148468217Y-61525965D01*
X148492558Y-61471884D01*
X148494332Y-61462197D01*
X148500359Y-61440578D01*
X148503848Y-61431382D01*
X148510990Y-61372554D01*
X148512117Y-61365153D01*
X148522805Y-61306833D01*
X148522806Y-61306828D01*
X148519226Y-61247649D01*
X148519000Y-61240161D01*
X148519000Y-61224163D01*
X148538685Y-61157124D01*
X148571877Y-61122588D01*
X148622519Y-61087128D01*
X148699401Y-61033295D01*
X148866495Y-60866201D01*
X148996425Y-60680642D01*
X149051002Y-60637017D01*
X149120500Y-60629823D01*
X149182855Y-60661346D01*
X149199575Y-60680642D01*
X149329281Y-60865882D01*
X149329505Y-60866201D01*
X149496599Y-61033295D01*
X149593384Y-61101065D01*
X149690165Y-61168832D01*
X149690167Y-61168833D01*
X149690170Y-61168835D01*
X149904337Y-61268703D01*
X150132592Y-61329863D01*
X150309034Y-61345300D01*
X150367999Y-61350459D01*
X150368000Y-61350459D01*
X150368001Y-61350459D01*
X150426966Y-61345300D01*
X150603408Y-61329863D01*
X150831663Y-61268703D01*
X151045830Y-61168835D01*
X151239401Y-61033295D01*
X151361329Y-60911366D01*
X151422648Y-60877884D01*
X151492340Y-60882868D01*
X151548274Y-60924739D01*
X151565189Y-60955717D01*
X151614202Y-61087128D01*
X151614206Y-61087135D01*
X151700452Y-61202344D01*
X151700455Y-61202347D01*
X151815664Y-61288593D01*
X151815671Y-61288597D01*
X151950517Y-61338891D01*
X151950516Y-61338891D01*
X151957444Y-61339635D01*
X152010127Y-61345300D01*
X153805872Y-61345299D01*
X153865483Y-61338891D01*
X154000331Y-61288596D01*
X154115546Y-61202346D01*
X154201796Y-61087131D01*
X154252091Y-60952283D01*
X154258500Y-60892673D01*
X154258499Y-59096928D01*
X154252091Y-59037317D01*
X154250810Y-59033883D01*
X154201797Y-58902471D01*
X154201793Y-58902464D01*
X154115547Y-58787255D01*
X154115544Y-58787252D01*
X154000335Y-58701006D01*
X154000328Y-58701002D01*
X153865482Y-58650708D01*
X153865483Y-58650708D01*
X153805883Y-58644301D01*
X153805881Y-58644300D01*
X153805873Y-58644300D01*
X153805864Y-58644300D01*
X152010129Y-58644300D01*
X152010123Y-58644301D01*
X151950516Y-58650708D01*
X151815671Y-58701002D01*
X151815664Y-58701006D01*
X151700455Y-58787252D01*
X151700452Y-58787255D01*
X151614206Y-58902464D01*
X151614203Y-58902469D01*
X151565189Y-59033883D01*
X151523317Y-59089816D01*
X151457853Y-59114233D01*
X151389580Y-59099381D01*
X151361326Y-59078230D01*
X151239402Y-58956306D01*
X151239395Y-58956301D01*
X151045834Y-58820767D01*
X151045830Y-58820765D01*
X151045828Y-58820764D01*
X150831663Y-58720897D01*
X150831659Y-58720896D01*
X150831655Y-58720894D01*
X150603413Y-58659738D01*
X150603403Y-58659736D01*
X150368001Y-58639141D01*
X150367999Y-58639141D01*
X150132596Y-58659736D01*
X150132586Y-58659738D01*
X149904344Y-58720894D01*
X149904335Y-58720898D01*
X149690171Y-58820764D01*
X149690169Y-58820765D01*
X149496597Y-58956305D01*
X149329505Y-59123397D01*
X149199575Y-59308958D01*
X149144998Y-59352583D01*
X149075500Y-59359777D01*
X149013145Y-59328254D01*
X148996425Y-59308958D01*
X148866494Y-59123397D01*
X148699402Y-58956306D01*
X148699395Y-58956301D01*
X148505834Y-58820767D01*
X148505830Y-58820765D01*
X148505828Y-58820764D01*
X148291663Y-58720897D01*
X148291659Y-58720896D01*
X148291655Y-58720894D01*
X148063413Y-58659738D01*
X148063403Y-58659736D01*
X147828001Y-58639141D01*
X147827999Y-58639141D01*
X147592596Y-58659736D01*
X147592586Y-58659738D01*
X147364344Y-58720894D01*
X147364335Y-58720898D01*
X147150171Y-58820764D01*
X147150169Y-58820765D01*
X146956597Y-58956305D01*
X146789505Y-59123397D01*
X146659575Y-59308958D01*
X146604998Y-59352583D01*
X146535500Y-59359777D01*
X146473145Y-59328254D01*
X146456425Y-59308958D01*
X146326494Y-59123397D01*
X146159402Y-58956306D01*
X146159395Y-58956301D01*
X145965834Y-58820767D01*
X145965830Y-58820765D01*
X145965828Y-58820764D01*
X145751663Y-58720897D01*
X145751659Y-58720896D01*
X145751655Y-58720894D01*
X145523413Y-58659738D01*
X145523403Y-58659736D01*
X145288001Y-58639141D01*
X145287999Y-58639141D01*
X145052596Y-58659736D01*
X145052586Y-58659738D01*
X144824344Y-58720894D01*
X144824335Y-58720898D01*
X144610171Y-58820764D01*
X144610169Y-58820765D01*
X144416597Y-58956305D01*
X144249505Y-59123397D01*
X144119575Y-59308958D01*
X144064998Y-59352583D01*
X143995500Y-59359777D01*
X143933145Y-59328254D01*
X143916425Y-59308958D01*
X143786494Y-59123397D01*
X143619402Y-58956306D01*
X143619395Y-58956301D01*
X143425834Y-58820767D01*
X143425830Y-58820765D01*
X143425828Y-58820764D01*
X143211663Y-58720897D01*
X143211659Y-58720896D01*
X143211655Y-58720894D01*
X142983413Y-58659738D01*
X142983403Y-58659736D01*
X142748001Y-58639141D01*
X142747999Y-58639141D01*
X142512596Y-58659736D01*
X142512586Y-58659738D01*
X142284344Y-58720894D01*
X142284335Y-58720898D01*
X142070171Y-58820764D01*
X142070169Y-58820765D01*
X141876597Y-58956305D01*
X141709508Y-59123394D01*
X141579269Y-59309395D01*
X141524692Y-59353019D01*
X141455193Y-59360212D01*
X141392839Y-59328690D01*
X141376119Y-59309394D01*
X141246113Y-59123726D01*
X141246108Y-59123720D01*
X141079082Y-58956694D01*
X140885578Y-58821199D01*
X140671492Y-58721370D01*
X140671486Y-58721367D01*
X140458000Y-58664164D01*
X140458000Y-59559298D01*
X140350315Y-59510120D01*
X140243763Y-59494800D01*
X140172237Y-59494800D01*
X140065685Y-59510120D01*
X139958000Y-59559298D01*
X139958000Y-58664164D01*
X139957999Y-58664164D01*
X139744513Y-58721367D01*
X139744507Y-58721370D01*
X139530422Y-58821199D01*
X139530420Y-58821200D01*
X139336926Y-58956686D01*
X139336920Y-58956691D01*
X139169891Y-59123720D01*
X139169886Y-59123726D01*
X139034400Y-59317220D01*
X139034399Y-59317222D01*
X138934570Y-59531307D01*
X138934567Y-59531313D01*
X138877364Y-59744799D01*
X138877364Y-59744800D01*
X139774314Y-59744800D01*
X139748507Y-59784956D01*
X139708000Y-59922911D01*
X139708000Y-60066689D01*
X139748507Y-60204644D01*
X139774314Y-60244800D01*
X138877364Y-60244800D01*
X127246500Y-60244800D01*
X127246500Y-58409500D01*
X127266185Y-58342461D01*
X127318989Y-58296706D01*
X127370500Y-58285500D01*
X167396500Y-58285500D01*
X167463539Y-58305185D01*
G37*
G04 #@! TD.AperFunction*
M02*
