M48
; DRILL file {KiCad 7.0.11-2.fc39} date dim. 02 juin 2024 00:52:12
; FORMAT={-:-/ absolute / metric / decimal}
; #@! TF.CreationDate,2024-06-02T00:52:12+02:00
; #@! TF.GenerationSoftware,Kicad,Pcbnew,7.0.11-2.fc39
; #@! TF.FileFunction,Plated,1,2,PTH
FMAT,2
METRIC
; #@! TA.AperFunction,Plated,PTH,ViaDrill
T1C0.300
; #@! TA.AperFunction,Plated,PTH,ViaDrill
T2C0.400
; #@! TA.AperFunction,Plated,PTH,ComponentDrill
T3C1.000
; #@! TA.AperFunction,Plated,PTH,ComponentDrill
T4C1.300
%
G90
G05
T1
X127.864Y-58.776
X127.864Y-64.77
X127.864Y-70.714
X127.864Y-76.759
X134.366Y-58.776
X134.366Y-64.77
X140.868Y-64.77
X153.873Y-64.77
X153.873Y-70.764
X153.873Y-76.759
X160.528Y-58.776
X160.528Y-64.77
X160.528Y-70.764
X160.528Y-76.759
X166.878Y-58.776
X166.878Y-64.77
X166.878Y-70.815
X166.878Y-76.759
T2
X128.524Y-74.828
X136.347Y-75.387
X137.211Y-67.361
X141.58Y-76.505
X141.986Y-73.254
X144.018Y-62.89
X144.526Y-64.668
X145.237Y-69.545
X149.809Y-69.596
X150.673Y-72.593
T3
X131.064Y-83.127
X134.493Y-105.41
X137.033Y-105.41
X139.573Y-105.41
X140.208Y-59.995
X142.748Y-59.995
X143.064Y-83.127
X145.288Y-59.995
X147.828Y-59.995
X150.368Y-59.995
X151.638Y-83.05
X152.908Y-59.995
X155.179Y-105.537
X157.719Y-105.537
X160.259Y-105.537
X163.638Y-83.05
T4
X131.064Y-95.327
X137.114Y-81.177
X143.114Y-95.377
X151.638Y-95.25
X157.688Y-81.1
X163.688Y-95.3
M30
