G04 #@! TF.GenerationSoftware,KiCad,Pcbnew,7.0.11-2.fc39*
G04 #@! TF.CreationDate,2024-06-02T00:51:05+02:00*
G04 #@! TF.ProjectId,two_relays_extension,74776f5f-7265-46c6-9179-735f65787465,rev?*
G04 #@! TF.SameCoordinates,Original*
G04 #@! TF.FileFunction,Copper,L1,Top*
G04 #@! TF.FilePolarity,Positive*
%FSLAX46Y46*%
G04 Gerber Fmt 4.6, Leading zero omitted, Abs format (unit mm)*
G04 Created by KiCad (PCBNEW 7.0.11-2.fc39) date 2024-06-02 00:51:05*
%MOMM*%
%LPD*%
G01*
G04 APERTURE LIST*
G04 Aperture macros list*
%AMRoundRect*
0 Rectangle with rounded corners*
0 $1 Rounding radius*
0 $2 $3 $4 $5 $6 $7 $8 $9 X,Y pos of 4 corners*
0 Add a 4 corners polygon primitive as box body*
4,1,4,$2,$3,$4,$5,$6,$7,$8,$9,$2,$3,0*
0 Add four circle primitives for the rounded corners*
1,1,$1+$1,$2,$3*
1,1,$1+$1,$4,$5*
1,1,$1+$1,$6,$7*
1,1,$1+$1,$8,$9*
0 Add four rect primitives between the rounded corners*
20,1,$1+$1,$2,$3,$4,$5,0*
20,1,$1+$1,$4,$5,$6,$7,0*
20,1,$1+$1,$6,$7,$8,$9,0*
20,1,$1+$1,$8,$9,$2,$3,0*%
G04 Aperture macros list end*
G04 #@! TA.AperFunction,ComponentPad*
%ADD10R,1.700000X1.700000*%
G04 #@! TD*
G04 #@! TA.AperFunction,ComponentPad*
%ADD11O,1.700000X1.700000*%
G04 #@! TD*
G04 #@! TA.AperFunction,SMDPad,CuDef*
%ADD12R,0.800000X0.900000*%
G04 #@! TD*
G04 #@! TA.AperFunction,ComponentPad*
%ADD13C,3.000000*%
G04 #@! TD*
G04 #@! TA.AperFunction,ComponentPad*
%ADD14C,2.500000*%
G04 #@! TD*
G04 #@! TA.AperFunction,SMDPad,CuDef*
%ADD15RoundRect,0.237500X0.300000X0.237500X-0.300000X0.237500X-0.300000X-0.237500X0.300000X-0.237500X0*%
G04 #@! TD*
G04 #@! TA.AperFunction,SMDPad,CuDef*
%ADD16RoundRect,0.237500X0.250000X0.237500X-0.250000X0.237500X-0.250000X-0.237500X0.250000X-0.237500X0*%
G04 #@! TD*
G04 #@! TA.AperFunction,SMDPad,CuDef*
%ADD17RoundRect,0.237500X-0.237500X0.250000X-0.237500X-0.250000X0.237500X-0.250000X0.237500X0.250000X0*%
G04 #@! TD*
G04 #@! TA.AperFunction,SMDPad,CuDef*
%ADD18RoundRect,0.125000X-0.825000X-0.125000X0.825000X-0.125000X0.825000X0.125000X-0.825000X0.125000X0*%
G04 #@! TD*
G04 #@! TA.AperFunction,SMDPad,CuDef*
%ADD19RoundRect,0.237500X-0.300000X-0.237500X0.300000X-0.237500X0.300000X0.237500X-0.300000X0.237500X0*%
G04 #@! TD*
G04 #@! TA.AperFunction,SMDPad,CuDef*
%ADD20RoundRect,0.150000X-0.825000X-0.150000X0.825000X-0.150000X0.825000X0.150000X-0.825000X0.150000X0*%
G04 #@! TD*
G04 #@! TA.AperFunction,ViaPad*
%ADD21C,0.600000*%
G04 #@! TD*
G04 #@! TA.AperFunction,ViaPad*
%ADD22C,0.800000*%
G04 #@! TD*
G04 #@! TA.AperFunction,Conductor*
%ADD23C,1.524000*%
G04 #@! TD*
G04 #@! TA.AperFunction,Conductor*
%ADD24C,0.381000*%
G04 #@! TD*
G04 #@! TA.AperFunction,Conductor*
%ADD25C,0.762000*%
G04 #@! TD*
G04 APERTURE END LIST*
D10*
X152908000Y-59994800D03*
D11*
X150368000Y-59994800D03*
X147828000Y-59994800D03*
X145288000Y-59994800D03*
X142748000Y-59994800D03*
X140208000Y-59994800D03*
D10*
X160259000Y-105537000D03*
D11*
X157719000Y-105537000D03*
X155179000Y-105537000D03*
D12*
X152588000Y-75470000D03*
X150688000Y-75470000D03*
X151638000Y-77470000D03*
D13*
X137114000Y-81177000D03*
D14*
X131064000Y-83127000D03*
D13*
X131064000Y-95327000D03*
X143114000Y-95377000D03*
D14*
X143064000Y-83127000D03*
D15*
X135481400Y-67360800D03*
X133756400Y-67360800D03*
D16*
X152527000Y-73787000D03*
X150702000Y-73787000D03*
D17*
X137703800Y-74169900D03*
X137703800Y-75994900D03*
D12*
X131963200Y-76486000D03*
X130063200Y-76486000D03*
X131013200Y-78486000D03*
D16*
X150469600Y-64744600D03*
X148644600Y-64744600D03*
X131902200Y-74803000D03*
X130077200Y-74803000D03*
D10*
X139573000Y-105410000D03*
D11*
X137033000Y-105410000D03*
X134493000Y-105410000D03*
D18*
X139862800Y-71315200D03*
X139862800Y-71965200D03*
X139862800Y-72615200D03*
X139862800Y-73265200D03*
X139862800Y-73915200D03*
X139862800Y-74565200D03*
X139862800Y-75215200D03*
X139862800Y-75865200D03*
X139862800Y-76515200D03*
X139862800Y-77165200D03*
X146862800Y-77165200D03*
X146862800Y-76515200D03*
X146862800Y-75865200D03*
X146862800Y-75215200D03*
X146862800Y-74565200D03*
X146862800Y-73915200D03*
X146862800Y-73265200D03*
X146862800Y-72615200D03*
X146862800Y-71965200D03*
X146862800Y-71315200D03*
D19*
X146788800Y-69545200D03*
X148513800Y-69545200D03*
D20*
X130533600Y-69037200D03*
X130533600Y-70307200D03*
X130533600Y-71577200D03*
X130533600Y-72847200D03*
X135483600Y-72847200D03*
X135483600Y-71577200D03*
X135483600Y-70307200D03*
X135483600Y-69037200D03*
D16*
X150495000Y-62966600D03*
X148670000Y-62966600D03*
D13*
X157688000Y-81100000D03*
D14*
X151638000Y-83050000D03*
D13*
X151638000Y-95250000D03*
X163688000Y-95300000D03*
D14*
X163638000Y-83050000D03*
D21*
X127863600Y-76758800D03*
X127863600Y-70713600D03*
X153873200Y-76758800D03*
X153873200Y-70764400D03*
X160528000Y-76758800D03*
X160528000Y-70764400D03*
X166878000Y-76758800D03*
X166878000Y-70815200D03*
X166878000Y-64770000D03*
X160528000Y-64770000D03*
X153873200Y-64770000D03*
X140868400Y-64770000D03*
X134366000Y-64770000D03*
X127863600Y-64770000D03*
X134366000Y-58775600D03*
D22*
X128524000Y-74828400D03*
X149809200Y-69596000D03*
D21*
X166878000Y-58775600D03*
D22*
X141579600Y-76504800D03*
D21*
X127863600Y-58775600D03*
D22*
X141986000Y-73253600D03*
D21*
X160528000Y-58775600D03*
D22*
X150672800Y-72593200D03*
X144018000Y-62890400D03*
X144526000Y-64668400D03*
X136347200Y-75387200D03*
X145237200Y-69545200D03*
X137210800Y-67360800D03*
D23*
X152908000Y-59994800D02*
X163638000Y-70724800D01*
X163638000Y-70724800D02*
X163638000Y-83050000D01*
D24*
X139862800Y-71315200D02*
X141130400Y-71315200D01*
X141130400Y-71315200D02*
X141935200Y-70510400D01*
X141935200Y-70510400D02*
X141935200Y-64973200D01*
X141935200Y-64973200D02*
X144018000Y-62890400D01*
X139862800Y-71965200D02*
X141302058Y-71965200D01*
X141302058Y-71965200D02*
X142516200Y-70751058D01*
X142516200Y-70751058D02*
X142516200Y-65509800D01*
X142516200Y-65509800D02*
X145288000Y-62738000D01*
X150469600Y-64744600D02*
X150469600Y-65176400D01*
X150469600Y-65176400D02*
X149582800Y-66063200D01*
X149582800Y-66063200D02*
X149582800Y-66090800D01*
X149582800Y-66090800D02*
X146788800Y-68884800D01*
X146788800Y-68884800D02*
X146788800Y-69545200D01*
X148518400Y-75865200D02*
X148894800Y-75488800D01*
X151841200Y-71780400D02*
X152527000Y-72466200D01*
X148894800Y-72593200D02*
X149707600Y-71780400D01*
D25*
X152527000Y-73787000D02*
X152527000Y-75409000D01*
D24*
X152527000Y-72466200D02*
X152527000Y-73787000D01*
X146862800Y-75865200D02*
X148518400Y-75865200D01*
D25*
X152527000Y-75409000D02*
X152588000Y-75470000D01*
D24*
X149707600Y-71780400D02*
X151841200Y-71780400D01*
X148894800Y-75488800D02*
X148894800Y-72593200D01*
D25*
X130077200Y-74803000D02*
X128549400Y-74803000D01*
D24*
X141569200Y-76515200D02*
X141579600Y-76504800D01*
D25*
X130077200Y-74803000D02*
X130077200Y-76472000D01*
X150702000Y-72622400D02*
X150672800Y-72593200D01*
D24*
X148513800Y-69545200D02*
X149758400Y-69545200D01*
X139862800Y-76515200D02*
X141569200Y-76515200D01*
X149758400Y-69545200D02*
X149809200Y-69596000D01*
D25*
X150702000Y-75456000D02*
X150688000Y-75470000D01*
D24*
X130077200Y-74803000D02*
X130077200Y-73303600D01*
D25*
X130077200Y-76472000D02*
X130063200Y-76486000D01*
D24*
X139862800Y-73915200D02*
X141324400Y-73915200D01*
D25*
X150702000Y-73787000D02*
X150702000Y-75456000D01*
X150702000Y-73787000D02*
X150702000Y-72622400D01*
D24*
X128549400Y-74803000D02*
X128524000Y-74828400D01*
X130077200Y-73303600D02*
X130533600Y-72847200D01*
X141324400Y-73915200D02*
X141986000Y-73253600D01*
D25*
X151678000Y-83010000D02*
X151638000Y-83050000D01*
X151638000Y-77470000D02*
X151638000Y-83050000D01*
D24*
X148448000Y-76515200D02*
X146862800Y-76515200D01*
X138430000Y-78406600D02*
X148466200Y-78406600D01*
X138417500Y-78419100D02*
X138430000Y-78406600D01*
X148466200Y-78406600D02*
X148894800Y-77978000D01*
X148894800Y-76962000D02*
X148448000Y-76515200D01*
X134943600Y-76486000D02*
X136876700Y-78419100D01*
X131902200Y-74803000D02*
X131902200Y-76425000D01*
X136876700Y-78419100D02*
X138417500Y-78419100D01*
X131963200Y-76486000D02*
X134943600Y-76486000D01*
X131902200Y-76425000D02*
X131963200Y-76486000D01*
X148894800Y-77978000D02*
X148894800Y-76962000D01*
D25*
X131013200Y-78486000D02*
X131013200Y-83076200D01*
X131013200Y-83076200D02*
X131064000Y-83127000D01*
D24*
X137202800Y-71577200D02*
X137464800Y-71315200D01*
X137464800Y-71315200D02*
X139862800Y-71315200D01*
X135483600Y-71577200D02*
X137202800Y-71577200D01*
X147828000Y-62124600D02*
X148670000Y-62966600D01*
X147828000Y-60172600D02*
X147828000Y-62124600D01*
X136855200Y-72847200D02*
X135483600Y-72847200D01*
X148644600Y-64744600D02*
X147091400Y-64744600D01*
X139862800Y-71965200D02*
X137737200Y-71965200D01*
X145288000Y-60172600D02*
X145288000Y-62941200D01*
X137737200Y-71965200D02*
X136855200Y-72847200D01*
X147091400Y-64744600D02*
X145288000Y-62941200D01*
X137703800Y-72974200D02*
X137703800Y-74102200D01*
X138062800Y-72615200D02*
X139862800Y-72615200D01*
X138166800Y-74565200D02*
X139862800Y-74565200D01*
X137703800Y-74102200D02*
X138166800Y-74565200D01*
X137703800Y-72974200D02*
X138062800Y-72615200D01*
X143097200Y-73663290D02*
X143097200Y-69392800D01*
X140895290Y-75865200D02*
X143097200Y-73663290D01*
X139862800Y-75865200D02*
X140895290Y-75865200D01*
X143097200Y-66097200D02*
X144526000Y-64668400D01*
X143097200Y-69392800D02*
X143097200Y-66097200D01*
X136067800Y-76733400D02*
X133604000Y-74269600D01*
X137160000Y-77825600D02*
X136067800Y-76733400D01*
X137172500Y-77838100D02*
X136067800Y-76733400D01*
X133604000Y-71018400D02*
X134315200Y-70307200D01*
X144830800Y-76911200D02*
X143916400Y-77825600D01*
X144830800Y-72796400D02*
X144830800Y-76911200D01*
X143916400Y-77825600D02*
X137160000Y-77825600D01*
X134315200Y-70307200D02*
X135483600Y-70307200D01*
X133604000Y-74269600D02*
X133604000Y-71018400D01*
X145662000Y-71965200D02*
X144830800Y-72796400D01*
X146862800Y-71965200D02*
X145662000Y-71965200D01*
X150495000Y-62966600D02*
X150495000Y-60299600D01*
X150469600Y-64744600D02*
X150469600Y-62992000D01*
X135481400Y-67360800D02*
X137210800Y-67360800D01*
X135481400Y-67360800D02*
X135481400Y-69035000D01*
X136954900Y-75994900D02*
X136347200Y-75387200D01*
X146788800Y-71241200D02*
X146862800Y-71315200D01*
X146788800Y-69545200D02*
X145237200Y-69545200D01*
X137703800Y-75994900D02*
X136954900Y-75994900D01*
X150495000Y-60299600D02*
X150368000Y-60172600D01*
X150469600Y-62992000D02*
X150495000Y-62966600D01*
X146788800Y-69545200D02*
X146788800Y-71241200D01*
X135481400Y-69035000D02*
X135483600Y-69037200D01*
D23*
X137114000Y-81177000D02*
X137114000Y-105329000D01*
X137114000Y-105329000D02*
X137033000Y-105410000D01*
X134493000Y-105410000D02*
X132588000Y-105410000D01*
X132588000Y-105410000D02*
X131064000Y-103886000D01*
X131064000Y-103886000D02*
X131064000Y-95327000D01*
X143114000Y-104028000D02*
X141732000Y-105410000D01*
X143114000Y-95377000D02*
X143114000Y-104028000D01*
X141732000Y-105410000D02*
X139573000Y-105410000D01*
X157719000Y-81131000D02*
X157688000Y-81100000D01*
X157719000Y-105537000D02*
X157719000Y-81131000D01*
X153035000Y-105537000D02*
X151638000Y-104140000D01*
X151638000Y-104140000D02*
X151638000Y-95250000D01*
X155179000Y-105537000D02*
X153035000Y-105537000D01*
X162306000Y-105537000D02*
X163688000Y-104155000D01*
X160259000Y-105537000D02*
X162306000Y-105537000D01*
X163688000Y-104155000D02*
X163688000Y-95300000D01*
G04 #@! TA.AperFunction,Conductor*
G36*
X167463539Y-58305185D02*
G01*
X167509294Y-58357989D01*
X167520500Y-58409500D01*
X167520500Y-79073200D01*
X167500815Y-79140239D01*
X167448011Y-79185994D01*
X167396500Y-79197200D01*
X165024500Y-79197200D01*
X164957461Y-79177515D01*
X164911706Y-79124711D01*
X164900500Y-79073200D01*
X164900500Y-70802663D01*
X164901280Y-70788778D01*
X164905284Y-70753243D01*
X164902880Y-70717593D01*
X164900781Y-70686454D01*
X164900500Y-70678112D01*
X164900500Y-70668106D01*
X164900500Y-70668101D01*
X164896810Y-70627104D01*
X164896593Y-70624342D01*
X164889997Y-70526504D01*
X164888895Y-70522130D01*
X164885635Y-70502940D01*
X164885607Y-70502630D01*
X164885232Y-70498461D01*
X164859147Y-70403946D01*
X164858445Y-70401287D01*
X164834470Y-70306137D01*
X164832601Y-70302023D01*
X164825972Y-70283737D01*
X164824774Y-70279396D01*
X164813956Y-70256933D01*
X164782226Y-70191043D01*
X164781047Y-70188523D01*
X164740488Y-70099230D01*
X164740486Y-70099226D01*
X164737919Y-70095521D01*
X164728130Y-70078714D01*
X164726172Y-70074647D01*
X164668488Y-69995253D01*
X164666947Y-69993080D01*
X164611069Y-69912424D01*
X164607883Y-69909238D01*
X164595243Y-69894438D01*
X164592599Y-69890798D01*
X164592596Y-69890795D01*
X164521663Y-69822976D01*
X164519719Y-69821074D01*
X154294818Y-59596173D01*
X154261333Y-59534850D01*
X154258499Y-59508492D01*
X154258499Y-59096929D01*
X154258498Y-59096923D01*
X154252091Y-59037316D01*
X154201797Y-58902471D01*
X154201793Y-58902464D01*
X154115547Y-58787255D01*
X154115544Y-58787252D01*
X154000335Y-58701006D01*
X154000328Y-58701002D01*
X153865482Y-58650708D01*
X153865483Y-58650708D01*
X153805883Y-58644301D01*
X153805881Y-58644300D01*
X153805873Y-58644300D01*
X153805864Y-58644300D01*
X152010129Y-58644300D01*
X152010123Y-58644301D01*
X151950516Y-58650708D01*
X151815671Y-58701002D01*
X151815664Y-58701006D01*
X151700455Y-58787252D01*
X151700452Y-58787255D01*
X151614206Y-58902464D01*
X151614203Y-58902469D01*
X151565189Y-59033883D01*
X151523317Y-59089816D01*
X151457853Y-59114233D01*
X151389580Y-59099381D01*
X151361326Y-59078230D01*
X151239402Y-58956306D01*
X151239395Y-58956301D01*
X151045834Y-58820767D01*
X151045830Y-58820765D01*
X151045828Y-58820764D01*
X150831663Y-58720897D01*
X150831659Y-58720896D01*
X150831655Y-58720894D01*
X150603413Y-58659738D01*
X150603403Y-58659736D01*
X150368001Y-58639141D01*
X150367999Y-58639141D01*
X150132596Y-58659736D01*
X150132586Y-58659738D01*
X149904344Y-58720894D01*
X149904335Y-58720898D01*
X149690171Y-58820764D01*
X149690169Y-58820765D01*
X149496597Y-58956305D01*
X149329505Y-59123397D01*
X149199575Y-59308958D01*
X149144998Y-59352583D01*
X149075500Y-59359777D01*
X149013145Y-59328254D01*
X148996425Y-59308958D01*
X148866494Y-59123397D01*
X148699402Y-58956306D01*
X148699395Y-58956301D01*
X148505834Y-58820767D01*
X148505830Y-58820765D01*
X148505828Y-58820764D01*
X148291663Y-58720897D01*
X148291659Y-58720896D01*
X148291655Y-58720894D01*
X148063413Y-58659738D01*
X148063403Y-58659736D01*
X147828001Y-58639141D01*
X147827999Y-58639141D01*
X147592596Y-58659736D01*
X147592586Y-58659738D01*
X147364344Y-58720894D01*
X147364335Y-58720898D01*
X147150171Y-58820764D01*
X147150169Y-58820765D01*
X146956597Y-58956305D01*
X146789505Y-59123397D01*
X146659575Y-59308958D01*
X146604998Y-59352583D01*
X146535500Y-59359777D01*
X146473145Y-59328254D01*
X146456425Y-59308958D01*
X146326494Y-59123397D01*
X146159402Y-58956306D01*
X146159395Y-58956301D01*
X145965834Y-58820767D01*
X145965830Y-58820765D01*
X145965828Y-58820764D01*
X145751663Y-58720897D01*
X145751659Y-58720896D01*
X145751655Y-58720894D01*
X145523413Y-58659738D01*
X145523403Y-58659736D01*
X145288001Y-58639141D01*
X145287999Y-58639141D01*
X145052596Y-58659736D01*
X145052586Y-58659738D01*
X144824344Y-58720894D01*
X144824335Y-58720898D01*
X144610171Y-58820764D01*
X144610169Y-58820765D01*
X144416597Y-58956305D01*
X144249505Y-59123397D01*
X144119575Y-59308958D01*
X144064998Y-59352583D01*
X143995500Y-59359777D01*
X143933145Y-59328254D01*
X143916425Y-59308958D01*
X143786494Y-59123397D01*
X143619402Y-58956306D01*
X143619395Y-58956301D01*
X143425834Y-58820767D01*
X143425830Y-58820765D01*
X143425828Y-58820764D01*
X143211663Y-58720897D01*
X143211659Y-58720896D01*
X143211655Y-58720894D01*
X142983413Y-58659738D01*
X142983403Y-58659736D01*
X142748001Y-58639141D01*
X142747999Y-58639141D01*
X142512596Y-58659736D01*
X142512586Y-58659738D01*
X142284344Y-58720894D01*
X142284335Y-58720898D01*
X142070171Y-58820764D01*
X142070169Y-58820765D01*
X141876597Y-58956305D01*
X141709508Y-59123394D01*
X141579269Y-59309395D01*
X141524692Y-59353019D01*
X141455193Y-59360212D01*
X141392839Y-59328690D01*
X141376119Y-59309394D01*
X141246113Y-59123726D01*
X141246108Y-59123720D01*
X141079082Y-58956694D01*
X140885578Y-58821199D01*
X140671492Y-58721370D01*
X140671486Y-58721367D01*
X140458000Y-58664164D01*
X140458000Y-59559298D01*
X140350315Y-59510120D01*
X140243763Y-59494800D01*
X140172237Y-59494800D01*
X140065685Y-59510120D01*
X139958000Y-59559298D01*
X139958000Y-58664164D01*
X139957999Y-58664164D01*
X139744513Y-58721367D01*
X139744507Y-58721370D01*
X139530422Y-58821199D01*
X139530420Y-58821200D01*
X139336926Y-58956686D01*
X139336920Y-58956691D01*
X139169891Y-59123720D01*
X139169886Y-59123726D01*
X139034400Y-59317220D01*
X139034399Y-59317222D01*
X138934570Y-59531307D01*
X138934567Y-59531313D01*
X138877364Y-59744799D01*
X138877364Y-59744800D01*
X139774314Y-59744800D01*
X139748507Y-59784956D01*
X139708000Y-59922911D01*
X139708000Y-60066689D01*
X139748507Y-60204644D01*
X139774314Y-60244800D01*
X138877364Y-60244800D01*
X138934567Y-60458286D01*
X138934570Y-60458292D01*
X139034399Y-60672378D01*
X139169894Y-60865882D01*
X139336917Y-61032905D01*
X139530421Y-61168400D01*
X139744507Y-61268229D01*
X139744516Y-61268233D01*
X139958000Y-61325434D01*
X139958000Y-60430301D01*
X140065685Y-60479480D01*
X140172237Y-60494800D01*
X140243763Y-60494800D01*
X140350315Y-60479480D01*
X140458000Y-60430301D01*
X140458000Y-61325433D01*
X140671483Y-61268233D01*
X140671492Y-61268229D01*
X140885578Y-61168400D01*
X141079082Y-61032905D01*
X141246105Y-60865882D01*
X141376119Y-60680205D01*
X141430696Y-60636581D01*
X141500195Y-60629388D01*
X141562549Y-60660910D01*
X141579269Y-60680205D01*
X141709505Y-60866201D01*
X141876599Y-61033295D01*
X141973384Y-61101065D01*
X142070165Y-61168832D01*
X142070167Y-61168833D01*
X142070170Y-61168835D01*
X142284337Y-61268703D01*
X142512592Y-61329863D01*
X142689034Y-61345300D01*
X142747999Y-61350459D01*
X142748000Y-61350459D01*
X142748001Y-61350459D01*
X142806966Y-61345300D01*
X142983408Y-61329863D01*
X143211663Y-61268703D01*
X143425830Y-61168835D01*
X143619401Y-61033295D01*
X143786495Y-60866201D01*
X143916425Y-60680642D01*
X143971002Y-60637017D01*
X144040500Y-60629823D01*
X144102855Y-60661346D01*
X144119575Y-60680642D01*
X144249501Y-60866196D01*
X144249506Y-60866202D01*
X144416597Y-61033293D01*
X144416603Y-61033298D01*
X144544123Y-61122588D01*
X144587748Y-61177165D01*
X144597000Y-61224163D01*
X144597000Y-61971524D01*
X144577315Y-62038563D01*
X144524511Y-62084318D01*
X144455353Y-62094262D01*
X144422564Y-62084803D01*
X144297807Y-62029257D01*
X144297802Y-62029255D01*
X144152001Y-61998265D01*
X144112646Y-61989900D01*
X143923354Y-61989900D01*
X143890897Y-61996798D01*
X143738197Y-62029255D01*
X143738192Y-62029257D01*
X143565270Y-62106248D01*
X143565265Y-62106251D01*
X143412129Y-62217511D01*
X143285466Y-62358185D01*
X143190821Y-62522115D01*
X143190818Y-62522122D01*
X143135850Y-62691297D01*
X143132326Y-62702144D01*
X143125558Y-62766540D01*
X143098973Y-62831154D01*
X143089918Y-62841258D01*
X141464004Y-64467172D01*
X141458552Y-64472304D01*
X141414186Y-64511610D01*
X141414176Y-64511621D01*
X141380498Y-64560412D01*
X141376061Y-64566443D01*
X141339512Y-64613094D01*
X141339511Y-64613096D01*
X141335471Y-64622073D01*
X141324453Y-64641608D01*
X141318855Y-64649719D01*
X141297832Y-64705149D01*
X141294968Y-64712065D01*
X141270642Y-64766116D01*
X141268866Y-64775806D01*
X141262845Y-64797403D01*
X141259352Y-64806614D01*
X141259352Y-64806615D01*
X141252206Y-64865465D01*
X141251079Y-64872867D01*
X141240395Y-64931169D01*
X141240395Y-64931172D01*
X141243974Y-64990337D01*
X141244200Y-64997824D01*
X141244200Y-70172815D01*
X141224515Y-70239854D01*
X141207881Y-70260496D01*
X140926973Y-70541403D01*
X140865650Y-70574888D01*
X140804701Y-70572799D01*
X140786436Y-70567493D01*
X140786430Y-70567491D01*
X140786427Y-70567491D01*
X140786424Y-70567490D01*
X140786420Y-70567490D01*
X140750963Y-70564700D01*
X138974649Y-70564700D01*
X138974624Y-70564701D01*
X138939172Y-70567491D01*
X138787411Y-70611581D01*
X138781820Y-70614001D01*
X138732573Y-70624200D01*
X137489426Y-70624200D01*
X137481939Y-70623974D01*
X137422774Y-70620395D01*
X137422769Y-70620395D01*
X137364467Y-70631079D01*
X137357065Y-70632206D01*
X137298215Y-70639352D01*
X137298214Y-70639352D01*
X137289003Y-70642845D01*
X137267406Y-70648866D01*
X137257716Y-70650642D01*
X137220763Y-70667273D01*
X137203658Y-70674970D01*
X137196749Y-70677832D01*
X137141317Y-70698855D01*
X137134679Y-70702340D01*
X137133362Y-70699831D01*
X137079491Y-70717557D01*
X137011851Y-70700047D01*
X136964416Y-70648747D01*
X136952246Y-70579946D01*
X136955440Y-70563918D01*
X136956198Y-70559767D01*
X136956431Y-70556810D01*
X136959100Y-70522894D01*
X136959100Y-70091506D01*
X136956198Y-70054631D01*
X136938301Y-69993031D01*
X136915191Y-69913484D01*
X136910344Y-69896802D01*
X136826681Y-69755335D01*
X136826678Y-69755332D01*
X136821898Y-69749169D01*
X136824350Y-69747266D01*
X136797755Y-69698621D01*
X136802704Y-69628926D01*
X136823540Y-69596504D01*
X136821898Y-69595231D01*
X136826675Y-69589070D01*
X136826681Y-69589065D01*
X136910344Y-69447598D01*
X136956198Y-69289769D01*
X136959100Y-69252894D01*
X136959100Y-68821506D01*
X136956198Y-68784631D01*
X136949347Y-68761051D01*
X136910345Y-68626806D01*
X136910344Y-68626803D01*
X136910344Y-68626802D01*
X136826681Y-68485335D01*
X136826679Y-68485333D01*
X136826676Y-68485329D01*
X136741275Y-68399928D01*
X136707790Y-68338605D01*
X136712774Y-68268913D01*
X136754646Y-68212980D01*
X136820110Y-68188563D01*
X136879392Y-68198968D01*
X136909487Y-68212367D01*
X136930997Y-68221944D01*
X137116154Y-68261300D01*
X137116155Y-68261300D01*
X137305444Y-68261300D01*
X137305446Y-68261300D01*
X137490603Y-68221944D01*
X137663530Y-68144951D01*
X137816671Y-68033688D01*
X137943333Y-67893016D01*
X138037979Y-67729084D01*
X138096474Y-67549056D01*
X138116260Y-67360800D01*
X138096474Y-67172544D01*
X138037979Y-66992516D01*
X137943333Y-66828584D01*
X137816671Y-66687912D01*
X137791464Y-66669598D01*
X137663534Y-66576651D01*
X137663529Y-66576648D01*
X137490607Y-66499657D01*
X137490602Y-66499655D01*
X137344801Y-66468665D01*
X137305446Y-66460300D01*
X137116154Y-66460300D01*
X137083697Y-66467198D01*
X136930997Y-66499655D01*
X136930992Y-66499657D01*
X136758070Y-66576648D01*
X136758065Y-66576651D01*
X136662453Y-66646118D01*
X136596647Y-66669598D01*
X136589568Y-66669800D01*
X136422952Y-66669800D01*
X136355913Y-66650115D01*
X136335271Y-66633481D01*
X136242251Y-66540461D01*
X136242250Y-66540460D01*
X136097060Y-66450906D01*
X136095418Y-66449893D01*
X136095413Y-66449891D01*
X136049823Y-66434784D01*
X135931653Y-66395626D01*
X135931651Y-66395625D01*
X135830578Y-66385300D01*
X135132230Y-66385300D01*
X135132212Y-66385301D01*
X135031147Y-66395625D01*
X134867384Y-66449892D01*
X134867381Y-66449893D01*
X134720548Y-66540461D01*
X134706225Y-66554784D01*
X134644901Y-66588268D01*
X134575209Y-66583282D01*
X134530865Y-66554782D01*
X134516938Y-66540855D01*
X134516934Y-66540852D01*
X134370211Y-66450351D01*
X134370200Y-66450346D01*
X134206552Y-66396119D01*
X134105554Y-66385800D01*
X134006400Y-66385800D01*
X134006400Y-68335799D01*
X134011559Y-68335799D01*
X134078598Y-68355484D01*
X134124353Y-68408288D01*
X134134297Y-68477446D01*
X134118291Y-68522920D01*
X134056855Y-68626803D01*
X134056854Y-68626806D01*
X134011002Y-68784626D01*
X134011001Y-68784632D01*
X134008100Y-68821498D01*
X134008100Y-69252901D01*
X134011001Y-69289767D01*
X134011002Y-69289773D01*
X134056854Y-69447593D01*
X134056854Y-69447594D01*
X134087430Y-69499296D01*
X134104611Y-69567020D01*
X134082451Y-69633282D01*
X134027985Y-69677045D01*
X134024672Y-69678356D01*
X133991720Y-69690854D01*
X133983608Y-69696453D01*
X133964073Y-69707471D01*
X133955096Y-69711511D01*
X133955095Y-69711512D01*
X133908437Y-69748065D01*
X133902408Y-69752501D01*
X133853618Y-69786179D01*
X133853610Y-69786186D01*
X133814297Y-69830560D01*
X133809165Y-69836012D01*
X133132804Y-70512372D01*
X133127352Y-70517504D01*
X133082986Y-70556810D01*
X133082976Y-70556821D01*
X133049298Y-70605612D01*
X133044861Y-70611643D01*
X133008312Y-70658294D01*
X133008311Y-70658296D01*
X133004271Y-70667273D01*
X132993253Y-70686808D01*
X132987655Y-70694919D01*
X132966632Y-70750349D01*
X132963768Y-70757265D01*
X132939442Y-70811316D01*
X132937666Y-70821006D01*
X132931645Y-70842603D01*
X132928152Y-70851814D01*
X132928152Y-70851815D01*
X132921006Y-70910665D01*
X132919879Y-70918067D01*
X132909195Y-70976369D01*
X132909195Y-70976372D01*
X132912774Y-71035537D01*
X132913000Y-71043024D01*
X132913000Y-73983248D01*
X132893315Y-74050287D01*
X132840511Y-74096042D01*
X132771353Y-74105986D01*
X132707797Y-74076961D01*
X132701319Y-74070929D01*
X132613051Y-73982661D01*
X132613050Y-73982660D01*
X132472442Y-73895932D01*
X132466218Y-73892093D01*
X132466213Y-73892091D01*
X132456601Y-73888906D01*
X132302453Y-73837826D01*
X132302451Y-73837825D01*
X132201384Y-73827500D01*
X131684815Y-73827500D01*
X131617776Y-73807815D01*
X131572021Y-73755011D01*
X131562077Y-73685853D01*
X131591102Y-73622297D01*
X131621695Y-73596768D01*
X131760150Y-73514887D01*
X131760161Y-73514878D01*
X131876278Y-73398761D01*
X131876285Y-73398752D01*
X131959881Y-73257398D01*
X132005700Y-73099686D01*
X132005895Y-73097201D01*
X132005895Y-73097200D01*
X129061305Y-73097200D01*
X129061304Y-73097201D01*
X129061499Y-73099686D01*
X129107318Y-73257398D01*
X129190914Y-73398752D01*
X129190921Y-73398761D01*
X129307038Y-73514878D01*
X129307047Y-73514885D01*
X129448402Y-73598481D01*
X129572794Y-73634620D01*
X129631680Y-73672226D01*
X129660887Y-73735699D01*
X129651141Y-73804885D01*
X129605538Y-73857820D01*
X129577205Y-73871403D01*
X129513397Y-73892547D01*
X129513388Y-73892551D01*
X129366665Y-73983052D01*
X129366661Y-73983055D01*
X129244755Y-74104961D01*
X129244752Y-74104965D01*
X129154251Y-74251688D01*
X129154246Y-74251699D01*
X129100019Y-74415347D01*
X129089700Y-74516345D01*
X129089700Y-74553000D01*
X130203200Y-74553000D01*
X130270239Y-74572685D01*
X130315994Y-74625489D01*
X130327200Y-74677000D01*
X130327200Y-75755638D01*
X130313200Y-75803316D01*
X130313200Y-77436000D01*
X130326030Y-77448830D01*
X130359515Y-77510153D01*
X130354531Y-77579845D01*
X130312662Y-77635776D01*
X130255654Y-77678453D01*
X130255652Y-77678455D01*
X130169406Y-77793664D01*
X130169402Y-77793671D01*
X130119108Y-77928517D01*
X130112701Y-77988116D01*
X130112701Y-77988123D01*
X130112700Y-77988135D01*
X130112700Y-78983870D01*
X130112701Y-78983876D01*
X130119109Y-79043484D01*
X130119392Y-79044682D01*
X130119340Y-79045639D01*
X130119938Y-79051196D01*
X130119037Y-79051292D01*
X130115653Y-79114452D01*
X130074787Y-79171124D01*
X130009769Y-79196706D01*
X129998716Y-79197200D01*
X127370500Y-79197200D01*
X127303461Y-79177515D01*
X127257706Y-79124711D01*
X127246500Y-79073200D01*
X127246500Y-76736000D01*
X129163200Y-76736000D01*
X129163200Y-76983844D01*
X129169601Y-77043372D01*
X129169603Y-77043379D01*
X129219845Y-77178086D01*
X129219849Y-77178093D01*
X129306009Y-77293187D01*
X129306012Y-77293190D01*
X129421106Y-77379350D01*
X129421113Y-77379354D01*
X129555820Y-77429596D01*
X129555827Y-77429598D01*
X129615355Y-77435999D01*
X129615372Y-77436000D01*
X129813200Y-77436000D01*
X129813200Y-76736000D01*
X129163200Y-76736000D01*
X127246500Y-76736000D01*
X127246500Y-75053000D01*
X129089701Y-75053000D01*
X129089701Y-75089654D01*
X129100019Y-75190652D01*
X129154246Y-75354300D01*
X129154251Y-75354311D01*
X129244752Y-75501034D01*
X129244755Y-75501038D01*
X129279916Y-75536199D01*
X129313401Y-75597522D01*
X129308417Y-75667214D01*
X129291502Y-75698190D01*
X129219849Y-75793907D01*
X129219845Y-75793913D01*
X129169603Y-75928620D01*
X129169601Y-75928627D01*
X129163200Y-75988155D01*
X129163200Y-76236000D01*
X129813200Y-76236000D01*
X129813200Y-75558362D01*
X129827200Y-75510683D01*
X129827200Y-75053000D01*
X129089701Y-75053000D01*
X127246500Y-75053000D01*
X127246500Y-71792901D01*
X129058100Y-71792901D01*
X129061001Y-71829767D01*
X129061002Y-71829773D01*
X129106854Y-71987593D01*
X129106855Y-71987596D01*
X129190517Y-72129062D01*
X129195302Y-72135231D01*
X129192969Y-72137040D01*
X129219810Y-72186195D01*
X129214826Y-72255887D01*
X129194070Y-72288221D01*
X129195697Y-72289483D01*
X129190913Y-72295649D01*
X129107318Y-72437001D01*
X129061499Y-72594713D01*
X129061304Y-72597198D01*
X129061305Y-72597200D01*
X132005895Y-72597200D01*
X132005895Y-72597198D01*
X132005700Y-72594713D01*
X131959881Y-72437001D01*
X131876285Y-72295647D01*
X131871500Y-72289478D01*
X131873966Y-72287564D01*
X131847402Y-72238976D01*
X131852349Y-72169282D01*
X131873456Y-72136432D01*
X131871901Y-72135226D01*
X131876677Y-72129068D01*
X131876681Y-72129065D01*
X131960344Y-71987598D01*
X132006198Y-71829769D01*
X132009100Y-71792894D01*
X132009100Y-71361506D01*
X132006198Y-71324631D01*
X132001718Y-71309212D01*
X131964373Y-71180671D01*
X131960344Y-71166802D01*
X131876681Y-71025335D01*
X131876678Y-71025332D01*
X131871898Y-71019169D01*
X131874350Y-71017266D01*
X131847755Y-70968621D01*
X131852704Y-70898926D01*
X131873540Y-70866504D01*
X131871898Y-70865231D01*
X131876675Y-70859070D01*
X131876681Y-70859065D01*
X131960344Y-70717598D01*
X132000336Y-70579946D01*
X132006197Y-70559773D01*
X132006198Y-70559767D01*
X132006431Y-70556810D01*
X132009100Y-70522894D01*
X132009100Y-70091506D01*
X132006198Y-70054631D01*
X131988301Y-69993031D01*
X131965191Y-69913484D01*
X131960344Y-69896802D01*
X131876681Y-69755335D01*
X131876678Y-69755332D01*
X131871898Y-69749169D01*
X131874350Y-69747266D01*
X131847755Y-69698621D01*
X131852704Y-69628926D01*
X131873540Y-69596504D01*
X131871898Y-69595231D01*
X131876675Y-69589070D01*
X131876681Y-69589065D01*
X131960344Y-69447598D01*
X132006198Y-69289769D01*
X132009100Y-69252894D01*
X132009100Y-68821506D01*
X132006198Y-68784631D01*
X131999347Y-68761051D01*
X131960345Y-68626806D01*
X131960344Y-68626803D01*
X131960344Y-68626802D01*
X131876681Y-68485335D01*
X131876679Y-68485333D01*
X131876676Y-68485329D01*
X131760470Y-68369123D01*
X131760462Y-68369117D01*
X131618996Y-68285455D01*
X131618993Y-68285454D01*
X131461173Y-68239602D01*
X131461167Y-68239601D01*
X131424301Y-68236700D01*
X131424294Y-68236700D01*
X129642906Y-68236700D01*
X129642898Y-68236700D01*
X129606032Y-68239601D01*
X129606026Y-68239602D01*
X129448206Y-68285454D01*
X129448203Y-68285455D01*
X129306737Y-68369117D01*
X129306729Y-68369123D01*
X129190523Y-68485329D01*
X129190517Y-68485337D01*
X129106855Y-68626803D01*
X129106854Y-68626806D01*
X129061002Y-68784626D01*
X129061001Y-68784632D01*
X129058100Y-68821498D01*
X129058100Y-69252901D01*
X129061001Y-69289767D01*
X129061002Y-69289773D01*
X129106854Y-69447593D01*
X129106855Y-69447596D01*
X129190517Y-69589062D01*
X129195302Y-69595231D01*
X129192856Y-69597127D01*
X129219457Y-69645842D01*
X129214473Y-69715534D01*
X129193669Y-69747903D01*
X129195302Y-69749169D01*
X129190517Y-69755337D01*
X129106855Y-69896803D01*
X129106854Y-69896806D01*
X129061002Y-70054626D01*
X129061001Y-70054632D01*
X129058100Y-70091498D01*
X129058100Y-70522901D01*
X129061001Y-70559767D01*
X129061002Y-70559773D01*
X129106854Y-70717593D01*
X129106855Y-70717596D01*
X129190517Y-70859062D01*
X129195302Y-70865231D01*
X129192856Y-70867127D01*
X129219457Y-70915842D01*
X129214473Y-70985534D01*
X129193669Y-71017903D01*
X129195302Y-71019169D01*
X129190517Y-71025337D01*
X129106855Y-71166803D01*
X129106854Y-71166806D01*
X129061002Y-71324626D01*
X129061001Y-71324632D01*
X129058100Y-71361498D01*
X129058100Y-71792901D01*
X127246500Y-71792901D01*
X127246500Y-67610800D01*
X132718901Y-67610800D01*
X132718901Y-67647454D01*
X132729219Y-67748452D01*
X132783446Y-67912100D01*
X132783451Y-67912111D01*
X132873952Y-68058834D01*
X132873955Y-68058838D01*
X132995861Y-68180744D01*
X132995865Y-68180747D01*
X133142588Y-68271248D01*
X133142599Y-68271253D01*
X133306247Y-68325480D01*
X133407251Y-68335799D01*
X133506400Y-68335798D01*
X133506400Y-67610800D01*
X132718901Y-67610800D01*
X127246500Y-67610800D01*
X127246500Y-67110800D01*
X132718900Y-67110800D01*
X133506400Y-67110800D01*
X133506400Y-66385799D01*
X133407260Y-66385800D01*
X133407244Y-66385801D01*
X133306247Y-66396119D01*
X133142599Y-66450346D01*
X133142588Y-66450351D01*
X132995865Y-66540852D01*
X132995861Y-66540855D01*
X132873955Y-66662761D01*
X132873952Y-66662765D01*
X132783451Y-66809488D01*
X132783446Y-66809499D01*
X132729219Y-66973147D01*
X132718900Y-67074145D01*
X132718900Y-67110800D01*
X127246500Y-67110800D01*
X127246500Y-58409500D01*
X127266185Y-58342461D01*
X127318989Y-58296706D01*
X127370500Y-58285500D01*
X167396500Y-58285500D01*
X167463539Y-58305185D01*
G37*
G04 #@! TD.AperFunction*
G04 #@! TA.AperFunction,Conductor*
G36*
X151570655Y-72491085D02*
G01*
X151591297Y-72507719D01*
X151799681Y-72716102D01*
X151833166Y-72777425D01*
X151836000Y-72803783D01*
X151836000Y-72895447D01*
X151816315Y-72962486D01*
X151799681Y-72983128D01*
X151701827Y-73080982D01*
X151640504Y-73114467D01*
X151570812Y-73109483D01*
X151526465Y-73080982D01*
X151412538Y-72967055D01*
X151412534Y-72967052D01*
X151265811Y-72876551D01*
X151265800Y-72876546D01*
X151102152Y-72822319D01*
X151001154Y-72812000D01*
X150952000Y-72812000D01*
X150952000Y-74739638D01*
X150938000Y-74787316D01*
X150938000Y-76420000D01*
X150950830Y-76432830D01*
X150984315Y-76494153D01*
X150979331Y-76563845D01*
X150937462Y-76619776D01*
X150880454Y-76662453D01*
X150880452Y-76662455D01*
X150794206Y-76777664D01*
X150794202Y-76777671D01*
X150743908Y-76912517D01*
X150739149Y-76956788D01*
X150737501Y-76972123D01*
X150737500Y-76972135D01*
X150737500Y-77967870D01*
X150737501Y-77967876D01*
X150743909Y-78027485D01*
X150748681Y-78040279D01*
X150756500Y-78083613D01*
X150756500Y-79073200D01*
X150736815Y-79140239D01*
X150684011Y-79185994D01*
X150632500Y-79197200D01*
X148936856Y-79197200D01*
X148869817Y-79177515D01*
X148824062Y-79124711D01*
X148814118Y-79055553D01*
X148843143Y-78991997D01*
X148860378Y-78975593D01*
X148872957Y-78965737D01*
X148878998Y-78961292D01*
X148927783Y-78927620D01*
X148967117Y-78883219D01*
X148972203Y-78877817D01*
X149366017Y-78484003D01*
X149371419Y-78478917D01*
X149415820Y-78439583D01*
X149449496Y-78390791D01*
X149453934Y-78384761D01*
X149490488Y-78338105D01*
X149494522Y-78329139D01*
X149505554Y-78309580D01*
X149511142Y-78301485D01*
X149511142Y-78301484D01*
X149511144Y-78301482D01*
X149532178Y-78246017D01*
X149535018Y-78239161D01*
X149559357Y-78185085D01*
X149561130Y-78175403D01*
X149567156Y-78153788D01*
X149570648Y-78144582D01*
X149577793Y-78085730D01*
X149578919Y-78078336D01*
X149589604Y-78020033D01*
X149589605Y-78020026D01*
X149586026Y-77960861D01*
X149585800Y-77953374D01*
X149585800Y-76986637D01*
X149586026Y-76979149D01*
X149586451Y-76972116D01*
X149589606Y-76919972D01*
X149578914Y-76861636D01*
X149577789Y-76854235D01*
X149570648Y-76795418D01*
X149570647Y-76795416D01*
X149567163Y-76786230D01*
X149561132Y-76764600D01*
X149559358Y-76754916D01*
X149535018Y-76700836D01*
X149532160Y-76693933D01*
X149511146Y-76638522D01*
X149511145Y-76638520D01*
X149511144Y-76638518D01*
X149505548Y-76630411D01*
X149494525Y-76610866D01*
X149490488Y-76601895D01*
X149453934Y-76555238D01*
X149449499Y-76549211D01*
X149444542Y-76542030D01*
X149415820Y-76500417D01*
X149371438Y-76461098D01*
X149365985Y-76455964D01*
X149223102Y-76313081D01*
X149189617Y-76251758D01*
X149194601Y-76182066D01*
X149223099Y-76137721D01*
X149366033Y-75994787D01*
X149371419Y-75989717D01*
X149415820Y-75950383D01*
X149449496Y-75901591D01*
X149453934Y-75895561D01*
X149490488Y-75848905D01*
X149494522Y-75839939D01*
X149505554Y-75820380D01*
X149511142Y-75812285D01*
X149511142Y-75812284D01*
X149511144Y-75812282D01*
X149532178Y-75756817D01*
X149535018Y-75749961D01*
X149550925Y-75714617D01*
X149596391Y-75661565D01*
X149663321Y-75641514D01*
X149730468Y-75660831D01*
X149776511Y-75713384D01*
X149788000Y-75765512D01*
X149788000Y-75967844D01*
X149794401Y-76027372D01*
X149794403Y-76027379D01*
X149844645Y-76162086D01*
X149844649Y-76162093D01*
X149930809Y-76277187D01*
X149930812Y-76277190D01*
X150045906Y-76363350D01*
X150045913Y-76363354D01*
X150180620Y-76413596D01*
X150180627Y-76413598D01*
X150240155Y-76419999D01*
X150240172Y-76420000D01*
X150438000Y-76420000D01*
X150438000Y-74542362D01*
X150452000Y-74494683D01*
X150452000Y-72812000D01*
X150451999Y-72811999D01*
X150402861Y-72812000D01*
X150402843Y-72812001D01*
X150301847Y-72822319D01*
X150138199Y-72876546D01*
X150138188Y-72876551D01*
X149991465Y-72967052D01*
X149991461Y-72967055D01*
X149869554Y-73088962D01*
X149815338Y-73176860D01*
X149763390Y-73223584D01*
X149694427Y-73234805D01*
X149630345Y-73206961D01*
X149591490Y-73148892D01*
X149585800Y-73111762D01*
X149585800Y-72930783D01*
X149605485Y-72863744D01*
X149622119Y-72843102D01*
X149957502Y-72507719D01*
X150018825Y-72474234D01*
X150045183Y-72471400D01*
X151503616Y-72471400D01*
X151570655Y-72491085D01*
G37*
G04 #@! TD.AperFunction*
G04 #@! TA.AperFunction,Conductor*
G36*
X151492340Y-60882868D02*
G01*
X151548274Y-60924739D01*
X151565189Y-60955717D01*
X151614202Y-61087128D01*
X151614206Y-61087135D01*
X151700452Y-61202344D01*
X151700455Y-61202347D01*
X151815664Y-61288593D01*
X151815671Y-61288597D01*
X151860618Y-61305361D01*
X151950517Y-61338891D01*
X152010127Y-61345300D01*
X152421692Y-61345299D01*
X152488731Y-61364983D01*
X152509373Y-61381618D01*
X162339181Y-71211426D01*
X162372666Y-71272749D01*
X162375500Y-71299107D01*
X162375500Y-79073200D01*
X162355815Y-79140239D01*
X162303011Y-79185994D01*
X162251500Y-79197200D01*
X158333247Y-79197200D01*
X158289915Y-79189382D01*
X158253043Y-79175630D01*
X157973433Y-79114804D01*
X157688001Y-79094390D01*
X157687999Y-79094390D01*
X157402566Y-79114804D01*
X157122956Y-79175630D01*
X157086085Y-79189382D01*
X157042753Y-79197200D01*
X152643500Y-79197200D01*
X152576461Y-79177515D01*
X152530706Y-79124711D01*
X152519500Y-79073200D01*
X152519500Y-78083613D01*
X152527319Y-78040277D01*
X152532090Y-78027485D01*
X152532091Y-78027483D01*
X152538500Y-77967873D01*
X152538499Y-76972128D01*
X152532091Y-76912517D01*
X152517687Y-76873899D01*
X152481797Y-76777671D01*
X152481793Y-76777664D01*
X152395547Y-76662455D01*
X152395544Y-76662453D01*
X152370581Y-76643765D01*
X152328710Y-76587830D01*
X152323727Y-76518139D01*
X152357213Y-76456816D01*
X152418537Y-76423332D01*
X152444886Y-76420499D01*
X153035872Y-76420499D01*
X153095483Y-76414091D01*
X153230331Y-76363796D01*
X153345546Y-76277546D01*
X153431796Y-76162331D01*
X153482091Y-76027483D01*
X153488500Y-75967873D01*
X153488499Y-74972128D01*
X153482091Y-74912517D01*
X153474980Y-74893452D01*
X153431797Y-74777671D01*
X153427548Y-74769890D01*
X153429264Y-74768952D01*
X153408815Y-74714117D01*
X153408500Y-74705278D01*
X153408500Y-74441624D01*
X153426962Y-74376526D01*
X153450408Y-74338516D01*
X153504674Y-74174753D01*
X153515000Y-74073677D01*
X153514999Y-73500324D01*
X153504674Y-73399247D01*
X153450408Y-73235484D01*
X153359840Y-73088650D01*
X153254318Y-72983128D01*
X153220834Y-72921805D01*
X153218000Y-72895447D01*
X153218000Y-72490825D01*
X153218226Y-72483338D01*
X153221805Y-72424172D01*
X153211114Y-72365836D01*
X153209992Y-72358456D01*
X153207122Y-72334821D01*
X153202848Y-72299618D01*
X153199360Y-72290423D01*
X153193332Y-72268801D01*
X153191558Y-72259116D01*
X153167224Y-72205048D01*
X153164360Y-72198133D01*
X153160831Y-72188827D01*
X153143344Y-72142718D01*
X153137748Y-72134611D01*
X153126725Y-72115066D01*
X153122688Y-72106095D01*
X153086134Y-72059438D01*
X153081699Y-72053411D01*
X153048020Y-72004617D01*
X153003638Y-71965298D01*
X152998185Y-71960164D01*
X152347227Y-71309205D01*
X152342093Y-71303751D01*
X152302783Y-71259380D01*
X152253992Y-71225702D01*
X152247960Y-71221263D01*
X152201308Y-71184714D01*
X152201299Y-71184708D01*
X152192334Y-71180674D01*
X152172786Y-71169650D01*
X152164682Y-71164056D01*
X152164678Y-71164053D01*
X152109261Y-71143036D01*
X152102344Y-71140172D01*
X152048281Y-71115841D01*
X152048282Y-71115841D01*
X152038595Y-71114066D01*
X152016992Y-71108044D01*
X152007782Y-71104552D01*
X151948935Y-71097406D01*
X151941533Y-71096279D01*
X151883230Y-71085595D01*
X151883225Y-71085595D01*
X151824061Y-71089174D01*
X151816574Y-71089400D01*
X149732226Y-71089400D01*
X149724739Y-71089174D01*
X149665574Y-71085595D01*
X149665569Y-71085595D01*
X149607267Y-71096279D01*
X149599865Y-71097406D01*
X149541015Y-71104552D01*
X149541014Y-71104552D01*
X149531803Y-71108045D01*
X149510206Y-71114066D01*
X149500516Y-71115842D01*
X149475615Y-71127049D01*
X149446458Y-71140170D01*
X149439549Y-71143032D01*
X149384119Y-71164055D01*
X149376008Y-71169653D01*
X149356473Y-71180671D01*
X149347496Y-71184711D01*
X149347495Y-71184712D01*
X149300837Y-71221265D01*
X149294808Y-71225701D01*
X149246018Y-71259379D01*
X149246010Y-71259386D01*
X149206697Y-71303760D01*
X149201565Y-71309212D01*
X148524980Y-71985796D01*
X148463657Y-72019281D01*
X148393965Y-72014297D01*
X148338032Y-71972425D01*
X148313615Y-71906961D01*
X148313299Y-71898115D01*
X148313299Y-71777049D01*
X148313298Y-71777024D01*
X148313021Y-71773510D01*
X148310509Y-71741573D01*
X148291108Y-71674795D01*
X148291108Y-71605604D01*
X148310509Y-71538827D01*
X148313300Y-71503363D01*
X148313299Y-71127038D01*
X148310509Y-71091573D01*
X148266418Y-70939810D01*
X148202706Y-70832079D01*
X148185972Y-70803783D01*
X148185965Y-70803774D01*
X148114071Y-70731880D01*
X148080586Y-70670557D01*
X148085570Y-70600865D01*
X148127442Y-70544932D01*
X148192906Y-70520515D01*
X148201751Y-70520199D01*
X148263800Y-70520198D01*
X148263800Y-69795200D01*
X148763800Y-69795200D01*
X148763800Y-70520199D01*
X148862940Y-70520199D01*
X148862954Y-70520198D01*
X148963952Y-70509880D01*
X149127600Y-70455653D01*
X149127611Y-70455648D01*
X149274334Y-70365147D01*
X149274338Y-70365144D01*
X149396244Y-70243238D01*
X149396247Y-70243234D01*
X149486748Y-70096511D01*
X149486753Y-70096500D01*
X149540980Y-69932852D01*
X149551299Y-69831854D01*
X149551300Y-69831841D01*
X149551300Y-69795200D01*
X148763800Y-69795200D01*
X148263800Y-69795200D01*
X148263800Y-68570200D01*
X148763800Y-68570200D01*
X148763800Y-69295200D01*
X149551299Y-69295200D01*
X149551299Y-69258560D01*
X149551298Y-69258545D01*
X149540980Y-69157547D01*
X149486753Y-68993899D01*
X149486748Y-68993888D01*
X149396247Y-68847165D01*
X149396244Y-68847161D01*
X149274338Y-68725255D01*
X149274334Y-68725252D01*
X149127611Y-68634751D01*
X149127600Y-68634746D01*
X148963952Y-68580519D01*
X148862954Y-68570200D01*
X148763800Y-68570200D01*
X148263800Y-68570200D01*
X148263800Y-68570199D01*
X148259891Y-68566290D01*
X148226406Y-68504967D01*
X148231390Y-68435275D01*
X148259887Y-68390932D01*
X150054009Y-66596810D01*
X150059411Y-66591724D01*
X150103820Y-66552383D01*
X150137518Y-66503560D01*
X150141913Y-66497587D01*
X150178488Y-66450905D01*
X150178492Y-66450895D01*
X150180128Y-66448191D01*
X150198566Y-66424654D01*
X150914271Y-65708948D01*
X150962944Y-65678926D01*
X151033616Y-65655508D01*
X151180450Y-65564940D01*
X151302440Y-65442950D01*
X151393008Y-65296116D01*
X151447274Y-65132353D01*
X151457600Y-65031277D01*
X151457599Y-64457924D01*
X151447274Y-64356847D01*
X151393008Y-64193084D01*
X151302440Y-64046250D01*
X151212170Y-63955980D01*
X151178686Y-63894656D01*
X151183670Y-63824965D01*
X151212167Y-63780622D01*
X151327840Y-63664950D01*
X151418408Y-63518116D01*
X151472674Y-63354353D01*
X151483000Y-63253277D01*
X151482999Y-62679924D01*
X151472674Y-62578847D01*
X151418408Y-62415084D01*
X151327840Y-62268250D01*
X151222318Y-62162728D01*
X151188834Y-62101405D01*
X151186000Y-62075047D01*
X151186000Y-61135237D01*
X151205685Y-61068198D01*
X151235550Y-61037124D01*
X151235256Y-61036774D01*
X151238516Y-61034038D01*
X151238881Y-61033659D01*
X151239401Y-61033295D01*
X151361329Y-60911366D01*
X151422648Y-60877884D01*
X151492340Y-60882868D01*
G37*
G04 #@! TD.AperFunction*
G04 #@! TA.AperFunction,Conductor*
G36*
X145526644Y-64169939D02*
G01*
X145566056Y-64196477D01*
X146585364Y-65215785D01*
X146590498Y-65221238D01*
X146629817Y-65265620D01*
X146678619Y-65299305D01*
X146684638Y-65303734D01*
X146731295Y-65340288D01*
X146740269Y-65344326D01*
X146759813Y-65355349D01*
X146767918Y-65360944D01*
X146823347Y-65381965D01*
X146830252Y-65384825D01*
X146884315Y-65409158D01*
X146884317Y-65409158D01*
X146884319Y-65409159D01*
X146893992Y-65410931D01*
X146915627Y-65416962D01*
X146924817Y-65420448D01*
X146936303Y-65421842D01*
X146983663Y-65427592D01*
X146991031Y-65428713D01*
X147049372Y-65439405D01*
X147108539Y-65435826D01*
X147116026Y-65435600D01*
X147753048Y-65435600D01*
X147820087Y-65455285D01*
X147840729Y-65471919D01*
X147933750Y-65564940D01*
X148080584Y-65655508D01*
X148244347Y-65709774D01*
X148345423Y-65720100D01*
X148676916Y-65720099D01*
X148743954Y-65739783D01*
X148789709Y-65792587D01*
X148799653Y-65861746D01*
X148770628Y-65925301D01*
X148764596Y-65931780D01*
X146317604Y-68378772D01*
X146312152Y-68383904D01*
X146267786Y-68423210D01*
X146267776Y-68423221D01*
X146234098Y-68472012D01*
X146229661Y-68478043D01*
X146193112Y-68524694D01*
X146193111Y-68524696D01*
X146189071Y-68533673D01*
X146178053Y-68553208D01*
X146172455Y-68561317D01*
X146151434Y-68616744D01*
X146148567Y-68623665D01*
X146147480Y-68626080D01*
X146102014Y-68679133D01*
X146099505Y-68680722D01*
X146027951Y-68724858D01*
X145939634Y-68813175D01*
X145878310Y-68846659D01*
X145808619Y-68841675D01*
X145779068Y-68825811D01*
X145689934Y-68761051D01*
X145689929Y-68761048D01*
X145517007Y-68684057D01*
X145517002Y-68684055D01*
X145371201Y-68653065D01*
X145331846Y-68644700D01*
X145142554Y-68644700D01*
X145110097Y-68651598D01*
X144957397Y-68684055D01*
X144957392Y-68684057D01*
X144784470Y-68761048D01*
X144784465Y-68761051D01*
X144631329Y-68872311D01*
X144504666Y-69012985D01*
X144410021Y-69176915D01*
X144410018Y-69176922D01*
X144353456Y-69351004D01*
X144351526Y-69356944D01*
X144331740Y-69545200D01*
X144351526Y-69733456D01*
X144351527Y-69733459D01*
X144410018Y-69913477D01*
X144410021Y-69913484D01*
X144504667Y-70077416D01*
X144605863Y-70189805D01*
X144631329Y-70218088D01*
X144784465Y-70329348D01*
X144784470Y-70329351D01*
X144957392Y-70406342D01*
X144957397Y-70406344D01*
X145142554Y-70445700D01*
X145142555Y-70445700D01*
X145331844Y-70445700D01*
X145331846Y-70445700D01*
X145517003Y-70406344D01*
X145689930Y-70329351D01*
X145779070Y-70264587D01*
X145844875Y-70241108D01*
X145912929Y-70256933D01*
X145939635Y-70277225D01*
X146018494Y-70356084D01*
X146051979Y-70417407D01*
X146046995Y-70487099D01*
X146005123Y-70543032D01*
X145945270Y-70565601D01*
X145945408Y-70566352D01*
X145941282Y-70567105D01*
X145940549Y-70567382D01*
X145939176Y-70567490D01*
X145939174Y-70567490D01*
X145787414Y-70611580D01*
X145787409Y-70611582D01*
X145651383Y-70692027D01*
X145651374Y-70692034D01*
X145539634Y-70803774D01*
X145539627Y-70803783D01*
X145459182Y-70939809D01*
X145459180Y-70939814D01*
X145415092Y-71091566D01*
X145415090Y-71091579D01*
X145412300Y-71127029D01*
X145412300Y-71235283D01*
X145392615Y-71302322D01*
X145344466Y-71344042D01*
X145345163Y-71345369D01*
X145338523Y-71348853D01*
X145338518Y-71348856D01*
X145338513Y-71348859D01*
X145338510Y-71348861D01*
X145330410Y-71354451D01*
X145310881Y-71365466D01*
X145301900Y-71369508D01*
X145301897Y-71369510D01*
X145255237Y-71406064D01*
X145249211Y-71410497D01*
X145200416Y-71444180D01*
X145200414Y-71444182D01*
X145161104Y-71488552D01*
X145155972Y-71494004D01*
X144359604Y-72290372D01*
X144354152Y-72295504D01*
X144309786Y-72334810D01*
X144309776Y-72334821D01*
X144276098Y-72383612D01*
X144271661Y-72389643D01*
X144235112Y-72436294D01*
X144235111Y-72436296D01*
X144231071Y-72445273D01*
X144220053Y-72464808D01*
X144214455Y-72472919D01*
X144193432Y-72528349D01*
X144190568Y-72535265D01*
X144166242Y-72589316D01*
X144164466Y-72599006D01*
X144158445Y-72620603D01*
X144154952Y-72629814D01*
X144154952Y-72629815D01*
X144147806Y-72688665D01*
X144146679Y-72696067D01*
X144135995Y-72754369D01*
X144135995Y-72754372D01*
X144137389Y-72777425D01*
X144139574Y-72813537D01*
X144139800Y-72821024D01*
X144139800Y-76573616D01*
X144120115Y-76640655D01*
X144103481Y-76661297D01*
X143666497Y-77098281D01*
X143605174Y-77131766D01*
X143578816Y-77134600D01*
X141437299Y-77134600D01*
X141370260Y-77114915D01*
X141324505Y-77062111D01*
X141313299Y-77010600D01*
X141313299Y-76977049D01*
X141313298Y-76977024D01*
X141310509Y-76941573D01*
X141302067Y-76912516D01*
X141290847Y-76873895D01*
X141290847Y-76804706D01*
X141302325Y-76765200D01*
X141296593Y-76757565D01*
X141255553Y-76745515D01*
X141215860Y-76704321D01*
X141181999Y-76647065D01*
X141185514Y-76644986D01*
X141165666Y-76599212D01*
X141176940Y-76530258D01*
X141218281Y-76481882D01*
X141218769Y-76481545D01*
X141218772Y-76481544D01*
X141226878Y-76475947D01*
X141246429Y-76464922D01*
X141255395Y-76460888D01*
X141302056Y-76424330D01*
X141308088Y-76419892D01*
X141356873Y-76386220D01*
X141396207Y-76341819D01*
X141401293Y-76336417D01*
X143568417Y-74169293D01*
X143573819Y-74164207D01*
X143618220Y-74124873D01*
X143651896Y-74076081D01*
X143656334Y-74070051D01*
X143692888Y-74023395D01*
X143696922Y-74014429D01*
X143707954Y-73994870D01*
X143713542Y-73986775D01*
X143713542Y-73986774D01*
X143713544Y-73986772D01*
X143734578Y-73931307D01*
X143737418Y-73924451D01*
X143761757Y-73870375D01*
X143763530Y-73860693D01*
X143769556Y-73839078D01*
X143773048Y-73829872D01*
X143780193Y-73771020D01*
X143781319Y-73763626D01*
X143792004Y-73705323D01*
X143792005Y-73705316D01*
X143788426Y-73646151D01*
X143788200Y-73638664D01*
X143788200Y-66434784D01*
X143807885Y-66367745D01*
X143824519Y-66347103D01*
X144571913Y-65599708D01*
X144633234Y-65566225D01*
X144633557Y-65566155D01*
X144805803Y-65529544D01*
X144978730Y-65452551D01*
X145131871Y-65341288D01*
X145258533Y-65200616D01*
X145353179Y-65036684D01*
X145411674Y-64856656D01*
X145431460Y-64668400D01*
X145411674Y-64480144D01*
X145360443Y-64322475D01*
X145358449Y-64252635D01*
X145394529Y-64192802D01*
X145457230Y-64161974D01*
X145526644Y-64169939D01*
G37*
G04 #@! TD.AperFunction*
G04 #@! TA.AperFunction,Conductor*
G36*
X142325534Y-72021459D02*
G01*
X142381467Y-72063331D01*
X142405884Y-72128795D01*
X142406200Y-72137641D01*
X142406200Y-73325705D01*
X142386515Y-73392744D01*
X142369881Y-73413386D01*
X141514526Y-74268740D01*
X141453203Y-74302225D01*
X141383511Y-74297241D01*
X141327578Y-74255369D01*
X141303161Y-74189905D01*
X141305354Y-74169233D01*
X141296593Y-74157565D01*
X141255553Y-74145515D01*
X141215860Y-74104321D01*
X141185972Y-74053783D01*
X141185965Y-74053774D01*
X141074225Y-73942034D01*
X141074216Y-73942027D01*
X140996273Y-73895932D01*
X140948589Y-73844863D01*
X140936086Y-73776121D01*
X140962731Y-73711532D01*
X141020067Y-73671602D01*
X141059394Y-73665200D01*
X141302326Y-73665200D01*
X141290587Y-73624796D01*
X141290587Y-73555604D01*
X141302326Y-73515200D01*
X141059394Y-73515200D01*
X140992355Y-73495515D01*
X140946600Y-73442711D01*
X140936656Y-73373553D01*
X140965681Y-73309997D01*
X140996273Y-73284468D01*
X141042045Y-73257398D01*
X141074220Y-73238370D01*
X141185970Y-73126620D01*
X141215860Y-73076079D01*
X141266929Y-73028396D01*
X141297937Y-73021044D01*
X141302325Y-73015199D01*
X141290847Y-72975689D01*
X141290847Y-72906500D01*
X141310509Y-72838827D01*
X141313300Y-72803363D01*
X141313299Y-72769763D01*
X141332982Y-72702726D01*
X141385784Y-72656970D01*
X141422352Y-72646667D01*
X141468640Y-72641048D01*
X141477846Y-72637556D01*
X141499461Y-72631530D01*
X141509143Y-72629757D01*
X141563219Y-72605418D01*
X141570075Y-72602578D01*
X141625540Y-72581544D01*
X141633638Y-72575954D01*
X141653197Y-72564922D01*
X141662163Y-72560888D01*
X141708824Y-72524330D01*
X141714856Y-72519892D01*
X141763641Y-72486220D01*
X141802975Y-72441819D01*
X141808061Y-72436417D01*
X142194520Y-72049959D01*
X142255842Y-72016475D01*
X142325534Y-72021459D01*
G37*
G04 #@! TD.AperFunction*
G04 #@! TA.AperFunction,Conductor*
G36*
X140055839Y-73385384D02*
G01*
X140101594Y-73438188D01*
X140112800Y-73489699D01*
X140112800Y-73690700D01*
X140093115Y-73757739D01*
X140040311Y-73803494D01*
X139988800Y-73814700D01*
X139736800Y-73814700D01*
X139669761Y-73795015D01*
X139624006Y-73742211D01*
X139612800Y-73690700D01*
X139612800Y-73489699D01*
X139632485Y-73422660D01*
X139685289Y-73376905D01*
X139736797Y-73365699D01*
X139988801Y-73365699D01*
X140055839Y-73385384D01*
G37*
G04 #@! TD.AperFunction*
M02*
